<svg id="Icon_Set" enable-background="new 0 0 256 256" height="512" viewBox="0 0 256 256" width="512" xmlns="http://www.w3.org/2000/svg"><path id="XMLID_8_" d="m143.096 170.537 9.514-13.301c.363-.507.557-1.112.557-1.735 0-2.275-.001-7.815-.001-7.759 0-26.944 21.551-49.277 48.495-49.476 37.554-.277 61.201 40.22 43.049 72.59-4.987 8.893-15.758 29.99-15.758 40.42 0 6.885 2.177 13.832 6.557 19.672l7.308 9.744c1.476 1.968.072 4.777-2.389 4.777h-52.136c-1.649 0-2.986-1.338-2.986-2.987 0-12.581.002-24.111.002-24.034.001-1.649-1.336-2.987-2.986-2.987h-10.258c-9.781 0-18.426-23.706-18.897-38.924h-6.986c-3.086 0-4.88-3.489-3.085-6z" fill="#5fcdff"/><path id="XMLID_7_" d="m112.896 170.537-9.514-13.301c-.363-.507-.557-1.112-.557-1.735 0-2.275.001-7.815.001-7.759 0-26.944-21.551-49.277-48.495-49.476-37.554-.277-61.201 40.22-43.049 72.59 4.987 8.893 15.758 29.99 15.758 40.42 0 6.885-2.177 13.832-6.557 19.672l-7.308 9.744c-1.476 1.968-.072 4.777 2.389 4.777h52.136c1.649 0 2.986-1.338 2.986-2.987 0-12.581-.002-24.111-.002-24.034-.001-1.649 1.336-2.987 2.986-2.987h10.258c9.781 0 18.425-23.706 18.897-38.924h6.986c3.086 0 4.88-3.489 3.085-6z" fill="#5fcdff"/><path d="m203.296 245.469h-15c-1.65 0-2.99-1.34-2.99-2.99 0-12.54 0-24.03 0-24.03 0-1.65-1.33-2.99-2.98-2.99h-10.26c-9.78 0-18.43-23.7-18.9-38.92h-6.98c-3.09 0-4.89-3.49-3.09-6l9.51-13.3c.37-.51.56-1.11.56-1.74 0-2.26 0-7.76 0-7.76 0-26.94 21.55-49.27 48.49-49.47 2.73-.02 5.39.18 7.97.57-23.56 3.63-41.46 24.35-41.46 48.9v7.76c0 .63-.19 1.23-.56 1.74l-9.51 13.3c-1.8 2.51 0 6 3.09 6h6.98c.47 15.22 9.12 38.92 18.9 38.92h10.26c1.65 0 2.98 1.34 2.98 2.99v24.03c0 1.65 1.34 2.99 2.99 2.99z" fill="#73d7f9"/><path d="m109.806 176.539h-6.98c-.47 15.22-9.12 38.92-18.9 38.92h-10.26c-1.65 0-2.98 1.34-2.98 2.99v24.03c0 1.65-1.34 2.99-2.99 2.99h-15c1.65 0 2.99-1.34 2.99-2.99 0-12.54 0-24.03 0-24.03 0-1.65 1.33-2.99 2.98-2.99h10.26c9.78 0 18.43-23.7 18.9-38.92h6.98c3.09 0 4.89-3.49 3.09-6l-9.51-13.3c-.37-.51-.56-1.11-.56-1.74 0-2.26 0-7.76 0-7.76 0-24.55-17.9-45.27-41.46-48.9 2.58-.39 5.24-.59 7.97-.57 26.94.2 48.49 22.53 48.49 49.47v7.76c0 .63.19 1.23.56 1.74l9.51 13.3c1.8 2.51 0 6-3.09 6z" fill="#30b6ff"/><path d="m26.286 170.859c4.98 8.89 15.75 29.99 15.75 40.42 0 6.88-2.17 13.83-6.55 19.67l-7.31 9.74c-1.48 1.97-.07 4.78 2.39 4.78h-15c-2.46 0-3.87-2.81-2.39-4.78l7.31-9.74c4.38-5.84 6.55-12.79 6.55-19.67 0-10.43-10.77-31.53-15.75-40.42-18.16-32.37 5.49-72.87 43.05-72.59 2.39.02 4.74.21 7.03.57-32.81 5-51.92 42.01-35.08 72.02z" fill="#73d7f9"/><path d="m244.706 170.859c-4.98 8.89-15.75 29.99-15.75 40.42 0 6.88 2.17 13.83 6.55 19.67l7.31 9.74c1.48 1.97.07 4.78-2.39 4.78h-15c2.46 0 3.87-2.81 2.39-4.78l-7.31-9.74c-4.38-5.84-6.55-12.79-6.55-19.67 0-10.43 10.77-31.53 15.75-40.42 16.84-30.01-2.27-67.02-35.08-72.02 2.29-.36 4.64-.55 7.03-.57 37.56-.28 61.21 40.22 43.05 72.59z" fill="#30b6ff"/><g fill="#5f266d"><path d="m227.678 155.069-5.869 11.6c-2.412 4.768 4.775 8.28 7.139 3.611l5.869-11.6c.997-1.971.208-4.377-1.764-5.375-1.973-.999-4.377-.208-5.375 1.764z"/><path d="m220.411 178.29c-1.971-.999-4.377-.209-5.375 1.764l-3.275 6.474c-1.349 2.666.603 5.807 3.566 5.807 3.099 0 3.575-2.201 6.848-8.669.997-1.972.208-4.379-1.764-5.376z"/><path d="m201.633 94.362c-28.93.214-52.466 24.203-52.466 53.477l.002 7.431-9.324 13.036c-3.687 5.152.001 12.328 6.338 12.328h3.265c1.62 15.148 9.819 38.924 22.618 38.924h9.255c-.017.572-.013 22.447-.013 23.021 0 3.853 3.134 6.987 6.985 6.987h52.136c5.752 0 9.042-6.576 5.589-11.177-7.125-9.502-13.065-15.491-13.065-27.018 0-7.787 7.658-24.93 15.248-38.464 19.665-35.072-5.902-78.776-46.568-78.545zm39.588 74.634c-2.717 4.845-16.27 29.657-16.27 42.376 0 14.018 6.894 21.455 13.448 30.194h-49.093l.002-23.02c.002-3.863-3.122-6.989-6.986-6.989h-10.258c-5.454 0-14.396-18.798-14.898-35.048-.066-2.159-1.837-3.876-3.998-3.876h-6.584c12.325-17.233 10.585-12.452 10.582-24.582 0-.072-.001-.144-.004-.214h.004c0-24.894 19.974-45.294 44.524-45.476 34.477-.261 56.203 36.906 39.531 66.635z"/><path d="m106.825 155.269.002-7.432c0-29.272-23.536-53.262-52.466-53.476-40.822-.201-66.17 43.586-46.567 78.546 7.59 13.534 15.248 30.677 15.248 38.464 0 11.514-5.842 17.386-13.064 27.017-3.454 4.602-.165 11.178 5.588 11.178h52.136c3.852 0 6.985-3.135 6.985-6.987 0-.575.005-22.45-.013-23.021h9.255c12.799 0 20.998-23.775 22.618-38.924 3.119 0 7.729.57 10.195-4.23 1.342-2.608 1.114-5.712-.593-8.098zm-4 17.365c-2.161 0-3.932 1.717-3.998 3.876-.503 16.25-9.444 35.048-14.898 35.048h-10.258c-3.861 0-6.988 3.124-6.986 6.988l.002 23.021h-49.093c6.53-8.707 13.448-16.156 13.448-30.194 0-12.719-13.553-37.531-16.27-42.376-16.738-29.848 5.248-66.978 39.53-66.634 24.551.182 44.524 20.582 44.524 45.476h.004c-.006.152-.006 7.607-.006 7.76 0 1.464.451 2.867 1.304 4.062l9.28 12.975h-6.583z"/><path d="m206.608 56.166h-115.808c-2.209 0-4 1.791-4 4s1.791 4 4 4h115.808l-17.115 18.254c-1.511 1.612-1.43 4.144.182 5.654 1.615 1.513 4.145 1.427 5.654-.182l23.431-24.99c.735-.78 1.004-1.609 1.059-2.485.075-1.187-.371-2.258-1.059-2.988l-23.431-24.99c-1.511-1.611-4.041-1.693-5.654-.182-1.611 1.511-1.692 4.042-.182 5.654z"/><path d="m37.234 38.16 23.431 24.99c3.594 3.835 9.457-1.608 5.836-5.473l-17.115-18.253h115.808c2.209 0 4-1.791 4-4s-1.791-4-4-4h-115.808l17.115-18.254c1.511-1.612 1.43-4.144-.182-5.654-1.613-1.512-4.145-1.428-5.654.182l-23.431 24.99c-.903.959-1.232 2.322-1.008 3.494.142.736.512 1.45 1.008 1.978z"/></g></svg>