<svg id="Icon_Set" enable-background="new 0 0 256 256" height="512" viewBox="0 0 256 256" width="512" xmlns="http://www.w3.org/2000/svg"><path d="m165.566 41.178-76 17.523h-83.233v156.124h83.233l76-19.147v-.058l84.1 19.205v-156.596z" fill="#ffe2e2"/><path d="m6.33 58.702h15v156.12h-15z" fill="#ffefee"/><path d="m249.67 58.231v156.59l-15-3.42v-156.21z" fill="#ffcfcf"/><circle cx="225.5" cy="177.085" fill="#3193f3" r="10.5"/><path d="m227.747 85.179-4.912-14.096-9.751 11.302-1.932 2.238-.973-2.792-4.911-14.095-9.751 11.301-9.751 11.302 14.663 2.794 2.904.553 14.663 2.794 14.663 2.794z" fill="#5fcdff"/><path d="m75.44 159.211c-2.206-4.97-.318-.719-9.97-22.45-9.084 20.453-8.119 18.281-8.76 19.72v.004c-.787-1.771-7.797-17.554-8.76-19.723l-8.001 18.016-8.009-18.017c-9.691 21.818-7.825 17.617-9.97 22.45-2.96 6.65.74 14.97 6.65 14.97h6.64c1.818 0 3.417-.779 4.686-2.066 2.561 2.58 4.393 2.065 11.327 2.065 2.194 0 4.081-1.149 5.437-2.932v.003c1.36 1.78 3.25 2.93 5.44 2.93h6.64c5.91.001 9.61-8.32 6.65-14.97z" fill="#44c7b6"/><g fill="#5f266d"><path d="m250.462 54.31c-90.434-18.336-84.55-17.317-85.794-17.029l-75.555 17.42h-82.78c-2.209 0-4 1.791-4 4v156.124c0 2.209 1.791 4 4 4 .624 0 83.334.04 83.948-.072.364-.065 75.093-18.901 75.452-18.991l83.043 18.963c2.507.573 4.891-1.337 4.891-3.899v-156.596c0-1.903-1.341-3.542-3.205-3.92zm-164.895 156.515h-75.234v-148.124h75.233v148.124zm75.999-18.264-68 17.131v-147.809l68-15.678zm84.101 17.247-76.101-17.377v-146.36l76.101 15.43z"/><path d="m106.938 101.479c5.162 2.574 5.19 4.187 7.66 4.187 3.753 0 5.443-4.737 2.522-7.106-2.003-1.625-4.229-3.052-6.616-4.24-1.976-.987-4.378-.182-5.364 1.797-.984 1.976-.18 4.377 1.798 5.362z"/><path d="m184.77 170.871c.908.195 6.802 1.417 7.731 1.417 4.856 0 5.477-7.118.672-7.943-2.267-.39-4.53-.825-6.728-1.296-2.16-.466-4.286.914-4.749 3.073-.462 2.161.914 4.287 3.074 4.749z"/><path d="m66.921 100.799c.024-.008 2.492-.814 6.343-1.607 2.164-.446 3.557-2.562 3.111-4.725s-2.564-3.556-4.725-3.111c-4.348.896-7.126 1.811-7.242 1.849-2.096.694-3.23 2.955-2.538 5.051.691 2.09 2.949 3.236 5.051 2.543z"/><path d="m127.004 136.117c1.173 2.214 2.564 4.376 4.134 6.426 1.342 1.753 3.853 2.087 5.607.744s2.087-3.854.744-5.607c-1.301-1.699-2.45-3.485-3.417-5.309-1.034-1.95-3.455-2.698-5.407-1.661-1.952 1.034-2.696 3.454-1.661 5.407z"/><path d="m122.047 121.112c1.375 5.14 9.1 3.057 7.728-2.068-.682-2.548-1.542-4.971-2.554-7.203-.913-2.012-3.285-2.902-5.296-1.989s-2.902 3.284-1.989 5.296c.831 1.833 1.542 3.84 2.111 5.964z"/><path d="m142.726 153.691c1.932 1.412 4.016 2.775 6.192 4.054 1.908 1.121 4.357.479 5.475-1.424 1.119-1.905.481-4.356-1.424-5.475-1.948-1.144-3.807-2.359-5.524-3.614-1.781-1.304-4.286-.914-5.589.87-1.304 1.783-.914 4.286.87 5.589z"/><path d="m225.5 162.584c-7.995 0-14.5 6.505-14.5 14.5s6.505 14.5 14.5 14.5 14.5-6.505 14.5-14.5-6.505-14.5-14.5-14.5zm0 21c-3.584 0-6.5-2.916-6.5-6.5s2.916-6.5 6.5-6.5 6.5 2.916 6.5 6.5-2.916 6.5-6.5 6.5z"/><path d="m185.018 94.269c.582.111 47.048 9.005 47.641 9.005 2.753 0 4.681-2.72 3.777-5.316l-9.824-28.19c-1.018-2.918-4.812-3.61-6.806-1.297l-7.157 8.294-3.604-10.345c-1.014-2.906-4.798-3.624-6.806-1.297l-19.501 22.604c-2.01 2.329-.739 5.967 2.28 6.542zm18.752-18.675 3.604 10.346c1.014 2.913 4.808 3.614 6.806 1.296l7.157-8.294c3.232 9.275 2.031 5.831 5.264 15.105l-33.28-6.341z"/><path d="m27.939 178.136v16.116c0 2.209 1.791 4 4 4s4-1.791 4-4v-16.104c1.418-.092 2.771-.471 4.025-1.123 1.244.64 2.587 1.018 3.986 1.111v16.116c0 2.209 1.791 4 4 4s4-1.791 4-4v-16.116c1.692-.113 3.305-.64 4.756-1.543 1.453.909 3.065 1.437 4.764 1.548v16.111c0 2.209 1.791 4 4 4s4-1.791 4-4v-16.116c3.382-.228 6.464-2.114 8.529-5.293 2.843-4.376 3.272-10.365 1.097-15.254l-9.97-22.451c-1.403-3.156-5.904-3.166-7.312 0l-5.105 11.493-5.103-11.491c-1.403-3.156-5.904-3.166-7.312 0l-4.347 9.788-4.352-9.791c-1.406-3.162-5.907-3.159-7.311.001l-9.968 22.447c-2.178 4.893-1.748 10.881 1.094 15.257 2.065 3.179 5.147 5.066 8.529 5.294zm37.531-31.52 6.315 14.223c1.906 4.283-.418 9.343-2.996 9.343-.314 0-6.641.017-6.941-.027 1.89-4.859 1.219-9.208-.763-13.67zm-23.835 14.22 6.315-14.219 6.315 14.219c1.256 2.826.655 5.88-.497 7.652-.411.632-1.281 1.691-2.496 1.691h-6.646c-2.576.001-4.894-5.061-2.991-9.343zm-16.009-.003 6.315-14.222 3.63 8.167-1.248 2.81c-1.759 3.96-1.811 8.635-.262 12.593-5.829 0-6.553.44-7.942-1.697-1.151-1.773-1.751-4.824-.493-7.651z"/><path d="m29.656 102.668c5.723 0 3.953.689 9.171-7.877 5.557 8.627 3.646 7.877 9.417 7.877 2.213 0 3.575-2.274 2.427-4.052l-6.939-10.743 6.714-10.095c1.182-1.777-.178-4.082-2.408-4.082-5.319 0-4.056-.792-9.072 7.424 0-.001-3.64-6.068-3.638-6.066-1.02-1.702-2.831-1.358-5.369-1.358-2.202 0-3.566 2.253-2.44 4.031l6.517 10.3-6.81 10.593c-1.143 1.779.22 4.048 2.43 4.048z"/></g></svg>