<svg id="Icon_Set" enable-background="new 0 0 256 256" height="512" viewBox="0 0 256 256" width="512" xmlns="http://www.w3.org/2000/svg"><path d="m189.5 27.894c-33.962 0-61.5 12.693-61.5 28.375 0-15.682-27.538-28.375-61.5-28.375s-61.5 12.693-61.5 28.375v152.657 1.093h.051 122.897.103 122.897.052v-1.093-152.657c0-15.682-27.538-28.375-61.5-28.375z" fill="#ffe2e2"/><path d="m251 56.27v153.75h-15v-153.75c0-14.51-23.58-26.46-54-28.17 2.46-.14 4.96-.21 7.5-.21 33.96 0 61.5 12.7 61.5 28.38z" fill="#ffcfcf"/><path d="m74 28.1c-30.42 1.71-54 13.66-54 28.17v153.75h-15v-153.75c0-15.68 27.54-28.38 61.5-28.38 2.54 0 5.04.07 7.5.21z" fill="#ffefee"/><path d="m251 208.926c0 .359-.017.735-.051 1.093h-122.898c-.034-.359-.051-.735-.051-1.093 0-15.665 27.538-28.375 61.5-28.375s61.5 12.709 61.5 28.375z" fill="#ffe2e2"/><path d="m128 208.926c0 .359-.017.735-.051 1.093h-122.898c-.034-.359-.051-.734-.051-1.093 0-15.665 27.538-28.375 61.5-28.375s61.5 12.709 61.5 28.375z" fill="#ffe2e2"/><path d="m251 208.93c0 .35-.02.73-.05 1.09h-15c.03-.36.05-.74.05-1.09 0-14.5-23.58-26.46-54-28.17 2.46-.14 4.96-.21 7.5-.21 33.96 0 61.5 12.71 61.5 28.38z" fill="#ffcfcf"/><path d="m20 208.93c0 .35.02.73.05 1.09h-15c-.03-.36-.05-.74-.05-1.09 0-15.67 27.54-28.38 61.5-28.38 2.54 0 5.04.07 7.5.21-30.42 1.71-54 13.67-54 28.17z" fill="#ffefee"/><circle cx="128" cy="172.004" fill="#ff4a73" r="56.128"/><path d="m154.858 169.865c2 1.155 2 4.041 0 5.196-.89.514-39.125 22.589-38.403 22.172-2 1.155-4.5-.289-4.5-2.598v-22.172-22.172c0-2.309 2.5-3.753 4.5-2.598.89.514 39.125 22.589 38.403 22.172z" fill="#f9d335"/><path d="m126.95 153.75v37.42l-10.5 6.06c-2 1.16-4.5-.29-4.5-2.59v-44.35c0-2.31 2.5-3.75 4.5-2.6z" fill="#f9e27d"/><path d="m167.69 211.69c-12.85 12.85-30.44 18.16-47.19 15.92 11.78-1.58 23.15-6.88 32.19-15.92 21.88-21.88 21.88-57.49 0-79.37-9.04-9.03-20.41-14.34-32.19-15.92 16.75-2.24 34.34 3.07 47.19 15.92 21.88 21.88 21.88 57.49 0 79.37z" fill="#ea2a6a"/><path d="m103.31 211.69c9.04 9.04 20.41 14.34 32.19 15.92-16.75 2.24-34.34-3.07-47.19-15.92-21.88-21.88-21.88-57.49 0-79.37 12.85-12.85 30.44-18.16 47.19-15.92-11.78 1.58-23.15 6.89-32.19 15.92-21.88 21.88-21.88 57.49 0 79.37z" fill="#f973a3"/><g fill="#5f266d"><path d="m189.5 23.89c-28.6 0-52.38 8.63-61.5 21.02-9.12-12.39-32.9-21.02-61.5-21.02-36.73 0-65.5 14.22-65.5 32.38v153.75c0 2.271 1.935 4 4.05 4h79.94c.16.17.32.33.49.5 11.34 11.34 26.44 17.59 42.52 17.59s31.18-6.25 42.52-17.59c.17-.17.33-.33.49-.5h79.94c.13 0 .26-.01.38-.02.13-.01.25-.03.37-.05 1.88-.33 3.3-1.96 3.3-3.93v-153.75c0-18.16-28.77-32.38-65.5-32.38zm-61.5 200.22c-26.906 0-49.347-20.33-51.88-47.22-2.842-30.691 21.127-56.99 51.88-56.99 34.034 0 58.968 32.027 50.48 65.11-5.558 22.05-25.731 39.1-50.48 39.1zm-119-167.84c0-11.53 23.61-24.38 57.5-24.38s57.5 12.85 57.5 24.38v55.76c-32.725 2.134-58.416 30.396-55.93 64.53-18.845-.363-45.074 3.941-59.07 16.63zm.49 149.75c3.733-11.325 28.171-22.142 59.72-21.44 1.62 7.69 4.73 14.96 9.2 21.44zm168.1 0c4.47-6.48 7.58-13.75 9.2-21.44 31.404-.699 55.967 10.052 59.72 21.44zm10.34-29.46c2.494-34.199-23.276-62.401-55.93-64.53v-55.76c0-11.53 23.61-24.38 57.5-24.38s57.5 12.85 57.5 24.38v136.92c-13.992-12.685-40.213-16.993-59.07-16.63z"/><path d="m46.62 75.03h39.14c5.285 0 5.293-8 0-8h-39.14c-5.285 0-5.293 8 0 8z"/><path d="m31.09 101.74h70.2c5.285 0 5.293-8 0-8h-70.2c-5.285 0-5.293 8 0 8z"/><path d="m31.09 128.46h40.78c5.281 0 5.294-8 0-8h-40.78c-5.302 0-5.276 8 0 8z"/><path d="m57.33 147.17h-26.24c-5.285 0-5.293 8 0 8h26.24c5.288 0 5.285-8 0-8z"/><path d="m222.19 147.17h-26.24c-5.285 0-5.293 8 0 8h26.24c5.288 0 5.285-8 0-8z"/><path d="m169.93 75.03h39.14c5.285 0 5.293-8 0-8h-39.14c-5.285 0-5.293 8 0 8z"/><path d="m224.6 93.74h-70.2c-5.284 0-5.295 8 0 8h70.2c5.284 0 5.295-8 0-8z"/><path d="m224.6 120.46h-40.47c-5.306 0-5.273 8 0 8h40.47c5.281 0 5.293-8 0-8z"/><path d="m156.86 166.4c-4.144-2.392-34.57-19.956-38.41-22.17-4.647-2.695-10.49.654-10.49 6.06v44.35c0 4.085 3.353 7.01 7 7.01 2.548 0-.269 1.216 41.9-23.13 4.65-2.675 4.687-9.402 0-12.12zm-40.9 26.5c0-14.738 0-25.016 0-40.88 10.742 6.199 2.374 1.368 35.4 20.44-.052.03-35.4 20.44-35.4 20.44z"/></g></svg>