<svg id="Icon_Set" enable-background="new 0 0 256 256" height="512" viewBox="0 0 256 256" width="512" xmlns="http://www.w3.org/2000/svg"><path d="m189.5 51.24c-33.962 0-61.5 12.693-61.5 28.375 0-15.682-27.538-28.375-61.5-28.375s-61.5 12.693-61.5 28.376v152.657 1.093h.051 122.897.103 122.897.052v-1.093-152.657c0-15.683-27.538-28.376-61.5-28.376z" fill="#ffe2e2"/><path d="m251 79.617v153.75h-15v-153.75c0-14.51-23.58-26.46-54-28.17 2.46-.14 4.96-.21 7.5-.21 33.96 0 61.5 12.699 61.5 28.38z" fill="#ffcfcf"/><path d="m251 232.272c0 .359-.017.735-.051 1.093h-122.898c-.034-.359-.051-.735-.051-1.093 0-15.665 27.538-28.375 61.5-28.375s61.5 12.71 61.5 28.375z" fill="#ffe2e2"/><path d="m128 232.272c0 .359-.017.735-.051 1.093h-122.898c-.034-.358-.051-.734-.051-1.093 0-15.665 27.538-28.375 61.5-28.375s61.5 12.71 61.5 28.375z" fill="#ffe2e2"/><path d="m251 232.277c0 .35-.02.73-.05 1.09h-15c.03-.36.05-.74.05-1.09 0-14.5-23.58-26.46-54-28.17 2.46-.14 4.96-.21 7.5-.21 33.96 0 61.5 12.71 61.5 28.38z" fill="#ffcfcf"/><path d="m20 232.277c0 .35.02.73.05 1.09h-15c-.03-.36-.05-.74-.05-1.09 0-15.67 27.54-28.38 61.5-28.38 2.54 0 5.04.07 7.5.21-30.42 1.71-54 13.67-54 28.17z" fill="#ffefee"/><circle cx="128" cy="195.351" fill="#f9d335" r="56.128"/><path d="m154.858 193.212c2 1.155 2 4.041 0 5.196l-19.201 11.086-19.201 11.086c-2 1.155-4.5-.289-4.5-2.598v-22.172-22.172c0-2.309 2.5-3.753 4.5-2.598l19.201 11.086z" fill="#ff4a73"/><path d="m167.69 235.037c-12.85 12.85-30.44 18.16-47.19 15.92 11.78-1.58 23.15-6.88 32.19-15.92 21.88-21.88 21.88-57.49 0-79.37-9.04-9.03-20.41-14.34-32.19-15.92 16.75-2.24 34.34 3.07 47.19 15.92 21.88 21.88 21.88 57.49 0 79.37z" fill="#f2c300"/><path d="m103.31 235.037c9.04 9.04 20.41 14.34 32.19 15.92-16.75 2.24-34.34-3.07-47.19-15.92-21.88-21.88-21.88-57.49 0-79.37 12.85-12.85 30.44-18.16 47.19-15.92-11.78 1.58-23.15 6.89-32.19 15.92-21.88 21.88-21.88 57.49 0 79.37z" fill="#f9e27d"/><path d="m74 51.447c-30.42 1.71-54 13.66-54 28.17v153.75h-15v-153.75c0-15.68 27.54-28.38 61.5-28.38 2.54 0 5.04.07 7.5.21z" fill="#ffefee"/><path d="m223.582 102.972v12.137h-22.112v-12.137c0-20.892-8.226-39.803-21.516-53.5-13.301-13.686-31.666-22.156-51.954-22.156-40.577 0-73.47 33.872-73.47 75.656v12.137h-22.112v-12.137c0-54.274 42.877-98.427 95.582-98.427s95.582 44.153 95.582 98.427z" fill="#87828e"/><path d="m223.58 102.967v12.14h-15v-12.14c0-51.67-38.87-94.17-88.08-98.12 2.48-.2 4.98-.3 7.5-.3 52.71 0 95.58 44.15 95.58 98.42z" fill="#796e84"/><path d="m135.5 4.847c-49.21 3.95-88.08 46.45-88.08 98.12v12.14h-15v-12.14c0-54.27 42.87-98.42 95.58-98.42 2.52 0 5.02.1 7.5.3z" fill="#a4a4a5"/><path d="m154.86 198.407-19.2 11.09-19.21 11.08c-2 1.16-4.5-.29-4.5-2.59v-3.47l8.71-5.02 19.2-11.09c2-1.15 2-4.04 0-5.19l-19.2-11.09-8.71-5.03v-3.46c0-2.31 2.5-3.75 4.5-2.6l19.21 11.09 19.2 11.09c2 1.15 2 4.04 0 5.19z" fill="#ea2a6a"/><path d="m126.95 177.097v37.42l-10.5 6.06c-2 1.16-4.5-.29-4.5-2.59v-44.35c0-2.31 2.5-3.75 4.5-2.6z" fill="#f973a3"/><path d="m52.53 167.987h-17.575c-12.736 0-23.06-10.324-23.06-23.06v-22.429c0-12.736 10.324-23.06 23.06-23.06h17.575c1.105 0 2 .895 2 2v64.549c0 1.104-.895 2-2 2z" fill="#ff4a73"/><path d="m54.53 101.436v64.55c0 1.1-.89 2-2 2h-15c1.11 0 2-.9 2-2v-64.55c0-1.1-.89-2-2-2h15c1.11 0 2 .901 2 2z" fill="#ea2a6a"/><path d="m49.95 167.987h-15c-12.73 0-23.06-10.32-23.06-23.06v-22.43c0-12.73 10.33-23.06 23.06-23.06h15c-12.73 0-23.06 10.33-23.06 23.06v22.43c0 12.74 10.33 23.06 23.06 23.06z" fill="#f973a3"/><path d="m221.045 167.987h-17.575c-1.105 0-2-.895-2-2v-64.549c0-1.105.895-2 2-2h17.576c12.736 0 23.06 10.324 23.06 23.06v22.429c-.001 12.735-10.325 23.06-23.061 23.06z" fill="#ff4a73"/><path d="m244.11 122.497v22.43c0 12.74-10.33 23.06-23.06 23.06h-15c12.73 0 23.06-10.32 23.06-23.06v-22.43c0-12.73-10.33-23.06-23.06-23.06h15c12.73-.001 23.06 10.33 23.06 23.06z" fill="#ea2a6a"/><path d="m218.47 167.987h-15c-1.11 0-2-.9-2-2v-64.55c0-1.1.89-2 2-2h15c-1.11 0-2 .9-2 2v64.55c0 1.1.89 2 2 2z" fill="#f973a3"/><g fill="#5f266d"><path d="m156.86 189.75c-25.641-14.801-24.813-14.322-38.4-22.17-4.689-2.707-10.51.69-10.51 6.06v5.934c0 4.233 0 5.544 0 5.432v32.974c0 5.446 5.919 8.75 10.5 6.06 1.949-1.131 36.746-21.209 38.41-22.17 4.68-2.693 4.655-9.455 0-12.12zm-40.91 26.5c0-14.755 0-25.016 0-40.88 20.676 11.943-1.905-1.109 35.41 20.44-1.386.8-28.608 16.523-35.41 20.44z"/><path d="m212.76 49.27c-17.55-29.22-48.98-48.72-84.76-48.72s-67.21 19.5-84.76 48.72c-24.92 4.54-42.24 16.26-42.24 30.35v153.75c0 2.213 1.86 4 4.05 4h79.94c9.926 10.54 25.694 18.08 43.01 18.08 17.31 0 33.063-7.519 43.01-18.08h79.94c2.105 0 4.05-1.671 4.05-4v-153.75c0-14.09-17.32-25.81-42.24-30.35zm-84.76-40.72c47.833 0 87.541 38.119 91.29 86.89h-14.16c-3.646-40.158-36.477-72.12-77.13-72.12-40.343 0-73.436 31.812-77.12 72.12h-14.17c3.74-48.657 43.349-86.89 91.29-86.89zm93.04 94.89c2.171 0 4.391.365 6.54 1.16 7.31 2.67 12.53 9.69 12.53 17.9v22.43c0 10.51-8.55 19.06-19.07 19.06h-15.57c0-6.798 0-53.672 0-60.55zm-48.18-55.18c-20.96 2.61-37.58 10.11-44.86 20-7.27-9.88-23.88-17.37-44.81-19.99 12.1-10.57 27.74-16.95 44.81-16.95 16.61 0 32.33 5.97 44.86 16.94zm-122.33 55.18v60.55h-15.57c-10.52 0-19.07-8.55-19.07-19.06v-22.43c0-10.554 8.604-19.06 19.07-19.06zm-41.53-23.82c0-7.95 11.22-16.52 29.29-21.08-5.42 11.52-8.8 24.24-9.65 37.65-9.41 2.25-16.92 9.43-19.64 18.65zm0 72.97c3.31 11.2 13.69 19.4 25.96 19.4h17.57c3.31 0 6-2.69 6-6v-50.88-12.14c0-18.15 6.58-34.75 17.41-47.39 28.76 2.11 48.06 13.61 48.06 24.04v55.76c-14.04.93-27.81 6.74-38.52 17.45-12.88 12.88-18.68 30.2-17.41 47.08-.52-.01-1.05-.01-1.57-.01-25.1 0-46.47 6.64-57.5 16.63zm.49 76.78c3.52-10.68 25.95-21.47 57.01-21.47.91 0 1.82.01 2.72.03 1.6 7.55 4.67 14.85 9.19 21.44zm149.37 8c-18.28 13.45-43.44 13.45-61.72 0-40.293-29.549-19.497-94.12 30.86-94.12 50.213 0 71.288 64.473 30.86 94.12zm18.73-8c4.52-6.59 7.59-13.89 9.19-21.44.9-.02 1.81-.03 2.72-.03 31.06 0 53.49 10.79 57.01 21.47zm69.41-12.84c-11.03-9.99-32.4-16.63-57.5-16.63-.52 0-1.05 0-1.57.01 1.27-16.88-4.53-34.2-17.41-47.08-10.71-10.71-24.48-16.52-38.52-17.45v-55.76c0-10.43 19.32-21.94 48.1-24.04 11.24 13.1 17.37 29.76 17.37 47.39v63.02c0 3.31 2.69 6 6 6h17.57c12.27 0 22.65-8.2 25.96-19.4zm0-101.69c-2.72-9.22-10.23-16.4-19.64-18.65-.85-13.41-4.23-26.13-9.65-37.65 18.07 4.56 29.29 13.13 29.29 21.08z"/><path d="m146.6 71.56c-7.828 7.762-9.83 20.735-9.08 28.24.483 5.284 8.441 4.575 7.96-.72 0-7.802.96-16.096 6.75-21.83 3.762-3.738-1.874-9.398-5.63-5.69z"/><path d="m165.27 63.85c-1.07.07-2.11.17-3.11.31-4.919.719-4.342 7.96.56 7.96.19 0 .38-.01.57-.04.78-.11 1.6-.19 2.44-.24 5.283-.311 4.81-8.3-.46-7.99z"/></g></svg>