<svg id="Icon_Set" enable-background="new 0 0 256 256" height="512" viewBox="0 0 256 256" width="512" xmlns="http://www.w3.org/2000/svg"><path d="m111.827 249.967h-47.244v-228.934c0-8.284 6.716-15 15-15h17.244c8.284 0 15 6.716 15 15z" fill="#b76c6c"/><path d="m231.256 249.967h-47.244v-228.934c0-8.284 6.716-15 15-15h17.244c8.284 0 15 6.716 15 15z" fill="#b76c6c"/><path d="m111.826 21.03v228.94h-15v-228.94c0-8.28-6.71-15-15-15h15c8.29 0 15 6.72 15 15z" fill="#965959"/><path d="m94.586 6.03c-8.29 0-15 6.72-15 15v228.94h-15v-228.94c0-8.28 6.71-15 15-15z" fill="#c98585"/><path d="m231.256 21.03v228.94h-15v-228.94c0-8.28-6.72-15-15-15h15c8.28 0 15 6.72 15 15z" fill="#965959"/><path d="m214.016 6.03c-8.29 0-15 6.72-15 15v228.94h-15v-228.94c0-8.28 6.71-15 15-15z" fill="#c98585"/><path d="m234.746 249.967h-174.923c-8.284 0-15-6.716-15-15v-174.923c0-8.284 6.716-15 15-15h174.923c8.284 0 15 6.716 15 15v174.923c0 8.284-6.716 15-15 15z" fill="#b76c6c"/><path d="m249.746 60.04v174.93c0 8.28-6.72 15-15 15h-15c8.28 0 15-6.72 15-15v-174.93c0-8.28-6.72-15-15-15h15c8.28 0 15 6.72 15 15z" fill="#965959"/><path d="m74.826 249.97h-15c-8.29 0-15-6.72-15-15v-174.93c0-8.28 6.71-15 15-15h15c-8.29 0-15 6.72-15 15v174.93c0 8.28 6.71 15 15 15z" fill="#c98585"/><path d="m154.727 203.386h-17.864c-5.523 0-10-4.477-10-10v-44.254c0-5.523 4.477-10 10-10h17.864c5.523 0 10 4.477 10 10v44.254c0 5.523-4.477 10-10 10z" fill="#f9d335"/><path d="m164.726 149.13v44.26c0 5.52-4.48 10-10 10h-15c5.52 0 10-4.48 10-10v-44.26c0-5.52-4.48-10-10-10h15c5.52 0 10 4.48 10 10z" fill="#f2c300"/><path d="m151.866 203.39h-15c-5.53 0-10-4.48-10-10v-44.26c0-5.52 4.47-10 10-10h15c-5.53 0-10 4.48-10 10v44.26c0 5.52 4.47 10 10 10z" fill="#f9e27d"/><path d="m149.135 213.617v31.35c0 2.761-2.239 5-5 5h-128.53c-6.23-4.89-9.35-12.79-9.35-20.67 0-7.9 3.12-15.78 9.35-20.68h128.53c2.761 0 5 2.239 5 5z" fill="#3193f3"/><path d="m149.134 172.267v31.35c0 2.761-2.239 5-5 5h-128.53c-6.23-4.89-9.35-12.79-9.35-20.67 0-7.9 3.12-15.78 9.35-20.68h128.53c2.761 0 5 2.239 5 5z" fill="#ff4a73"/><path d="m149.136 172.27v31.35c0 2.76-2.24 5-5 5h-15c2.76 0 5-2.24 5-5v-31.35c0-2.76-2.24-5-5-5h15c2.76 0 5 2.24 5 5z" fill="#ea2a6a"/><path d="m30.606 208.62h-15c-6.23-4.89-9.35-12.79-9.35-20.67 0-7.9 3.12-15.78 9.35-20.68h15c-6.23 4.9-9.35 12.78-9.35 20.68 0 7.88 3.12 15.78 9.35 20.67z" fill="#f973a3"/><path d="m149.136 213.62v31.35c0 2.76-2.24 5-5 5h-15c2.76 0 5-2.24 5-5v-31.35c0-2.76-2.24-5-5-5h15c2.76 0 5 2.24 5 5z" fill="#307fed"/><path d="m30.606 249.97h-15c-6.23-4.89-9.35-12.79-9.35-20.67 0-7.9 3.12-15.78 9.35-20.68h15c-6.23 4.9-9.35 12.78-9.35 20.68 0 7.88 3.12 15.78 9.35 20.67z" fill="#35b1fc"/><g fill="#5f266d"><path d="m235.26 41.05v-20.02c0-10.47-8.53-19-19-19h-17.25c-10.47 0-19 8.53-19 19v20.01h-64.18v-20.01c0-10.47-8.53-19-19-19h-17.25c-10.47 0-19 8.53-19 19v20.01h-.76c-10.47 0-19 8.53-19 19v97.25 5.98h-25.22c-.89 0-1.76.3-2.47.85-6.81 5.36-10.88 14.27-10.88 23.83 0 7.88 2.76 15.31 7.54 20.67-4.78 5.37-7.54 12.8-7.54 20.68 0 9.56 4.07 18.47 10.89 23.81.7.56 1.57.86 2.46.86h219.15c10.47 0 19-8.53 19-19 0-7.594 0-167.213 0-174.93 0-10.3-8.25-18.72-18.49-18.99zm0 204.91c-.309.018-81.881.01-82.19.01.098-.807.06 1.515.06-32.35 0-1.85-.56-3.57-1.52-5 .26-.39.49-.8.69-1.23h2.43c7.72 0 14-6.28 14-14v-17.1c.306 0 66.225.008 66.53-.01 3.9-.1 7.51-1.39 10.49-3.51v62.2c0 5.89-4.66 10.72-10.49 10.99zm-218.19.01c-4.29-3.92-6.82-10.05-6.82-16.67 0-6.63 2.53-12.76 6.82-16.68h127.06c.56 0 1 .45 1 1v11.67c-12.936 0-50.444 0-67.44 0-5.288 0-5.285 8 0 8h67.44v11.68c0 .55-.44 1-1 1-12.308 0-114.793 0-127.06 0zm0-74.7h127.06c.56 0 1 .45 1 1v.02 11.65c-14.494 0-57.179 0-71.69 0-5.285 0-5.293 8 0 8h71.69v11.45.23c0 .55-.44 1-1 1-78.904 0-46.643 0-127.06 0-4.29-3.92-6.82-10.05-6.82-16.67 0-6.63 2.53-12.76 6.82-16.68zm42.75-122.23c.263 0 175.177-.005 175.44.01 5.83.27 10.49 5.1 10.49 10.99v97.25c0 5.89-4.66 10.72-10.49 10.99-.264.016-66.265.01-66.53.01v-19.16c0-7.72-6.28-14-14-14h-17.87c-7.72 0-14 6.28-14 14v14.14c-16.672 0-56.584 0-72.26 0-1.12-1.72-1.78-3.78-1.78-5.98v-97.25c0-6.06 4.94-11 11-11zm8.76-28.01c0-6.06 4.94-11 11-11h17.25c6.06 0 11 4.94 11 11v20.01h-39.25zm119.43 0c0-6.06 4.94-11 11-11h17.25c6.06 0 11 4.94 11 11v20.01h-39.25zm-27.28 172.36c0 3.3-2.69 6-6 6h-1.6c0-23.475 0-16.744 0-27.1v-.02c0-4.926-3.991-9-9-9h-13.27v-14.14c0-3.31 2.69-6 6-6h17.87c3.31 0 6 2.69 6 6z"/><path d="m101.36 67.74h3.29c5.201 0 5.332-8 0-8h-3.29c-5.285 0-5.293 8 0 8z"/><path d="m68.58 88.1v-19.36c0-.55.45-1 1-1h16.78c5.285 0 5.293-8 0-8-17.649 0-16.97-.038-17.78.06-4.481.487-8 4.313-8 8.94v19.36c0 5.284 8 5.295 8 0z"/></g></svg>