<svg id="Icon_Set" enable-background="new 0 0 256 256" height="512" viewBox="0 0 256 256" width="512" xmlns="http://www.w3.org/2000/svg"><path d="m217.521 5.62h-165.57c5.12.05 9.75 2.14 13.11 5.5 3.4 3.4 5.5 8.1 5.5 13.28v52.87h-.01v168.11c0 2.77 2.24 5 5 5h142.46c2.76 0 5-2.23 5-5v-234.28c0-3.03-2.46-5.48-5.49-5.48z" fill="#ffe2e2"/><path d="m70.556 77.266h-32.563c-2.761 0-5-2.239-5-5v-47.867c0-10.373 8.409-18.782 18.782-18.782 10.373 0 18.782 8.409 18.782 18.782v52.867z" fill="#ffcfcf"/><path d="m90.551 250.38h-15c-2.76 0-5-2.23-5-5v-168.11h.01v-52.87c0-5.18-2.1-9.88-5.5-13.28-3.36-3.36-7.99-5.45-13.11-5.5h15c5.12.05 9.75 2.14 13.11 5.5 3.4 3.4 5.5 8.1 5.5 13.28v52.87h-.01v168.11c0 2.77 2.24 5 5 5z" fill="#ffefee"/><path d="m223.011 11.1v234.28c0 2.77-2.24 5-5 5h-15c2.76 0 5-2.23 5-5v-234.28c0-3.03-2.46-5.48-5.49-5.48h15c3.03 0 5.49 2.45 5.49 5.48z" fill="#ffcfcf"/><g fill="#5f266d"><path d="m217.52 1.615c-.201 0-165.545.002-165.746.002-12.562 0-22.781 10.22-22.781 22.782v47.867c0 4.963 4.037 9 9 9h28.559v164.118c0 4.963 4.037 9 9 9h142.457c4.963 0 9-4.037 9-9v-234.28c-.001-5.232-4.258-9.489-9.489-9.489zm-150.964 71.652c-10.161 0-18.657 0-28.563 0-.552 0-1-.448-1-1v-47.868c0-8.151 6.631-14.782 14.781-14.782 8.151 0 14.782 6.631 14.782 14.782zm152.452 172.118c0 .552-.448 1-1 1h-142.457c-.552 0-1-.448-1-1 0-95.46.005-214.468.005-220.985 0-5.639-2.064-10.802-5.469-14.784h148.433c.82 0 1.488.668 1.488 1.489z"/><path d="m200.135 110.275h-105.386c-2.209 0-4 1.791-4 4s1.791 4 4 4h105.386c2.209 0 4-1.791 4-4s-1.791-4-4-4z"/><path d="m200.135 135.775h-105.386c-2.209 0-4 1.791-4 4s1.791 4 4 4h105.386c2.209 0 4-1.791 4-4s-1.791-4-4-4z"/><path d="m200.135 161.275h-105.386c-2.209 0-4 1.791-4 4s1.791 4 4 4h105.386c2.209 0 4-1.791 4-4s-1.791-4-4-4z"/><path d="m200.135 186.775h-105.386c-2.209 0-4 1.791-4 4s1.791 4 4 4h105.386c2.209 0 4-1.791 4-4s-1.791-4-4-4z"/><path d="m200.135 212.275h-105.386c-2.209 0-4 1.791-4 4s1.791 4 4 4h105.386c2.209 0 4-1.791 4-4s-1.791-4-4-4z"/><path d="m157.61 39.513h-4.831c-.841 0-1.592.526-1.88 1.316l-12.915 35.514c-.474 1.305.492 2.684 1.88 2.684h3.993c.843 0 1.595-.528 1.881-1.32l1.996-5.526c.286-.792 1.039-1.32 1.881-1.32h11.104c.843 0 1.595.528 1.881 1.32l1.996 5.526c.286.792 1.039 1.32 1.881 1.32h3.994c1.387 0 2.353-1.377 1.88-2.681l-12.861-35.514c-.286-.792-1.038-1.319-1.88-1.319zm-.773 24.448h-3.337c-1.384 0-2.349-1.371-1.883-2.674l1.668-4.662c.633-1.768 3.133-1.768 3.766 0l1.668 4.662c.467 1.303-.499 2.674-1.882 2.674z"/><path d="m171.667 42.5h6.833v6.833c0 2.209 1.791 4 4 4s4-1.791 4-4v-6.833h6.833c2.209 0 4-1.791 4-4s-1.791-4-4-4h-6.833v-6.833c0-2.209-1.791-4-4-4s-4 1.791-4 4v6.833h-6.833c-2.209 0-4 1.791-4 4s1.791 4 4 4z"/><path d="m156.167 99.333c16.369 0 30.807-9.637 36.783-24.55 1.803-4.498 2.717-9.247 2.717-14.116 0-2.209-1.791-4-4-4s-4 1.791-4 4c0 16.776-13.808 30.666-31.5 30.666-17.369 0-31.5-13.757-31.5-30.666 0-16.91 14.131-30.667 31.5-30.667 2.209 0 4-1.791 4-4s-1.791-4-4-4c-21.78 0-39.5 17.346-39.5 38.667 0 21.32 17.72 38.666 39.5 38.666z"/></g></svg>