<svg id="Icon_Set" enable-background="new 0 0 256 256" height="512" viewBox="0 0 256 256" width="512" xmlns="http://www.w3.org/2000/svg"><g fill="#f9d335"><path d="m149.496 63.063h-16.846c-3.573 0-6.874 1.906-8.66 5l-8.423 14.589c-1.786 3.094-1.786 6.906 0 10l8.423 14.589c1.786 3.094 5.088 5 8.66 5h16.846c3.573 0 6.874-1.906 8.66-5l8.423-14.589c1.786-3.094 1.786-6.906 0-10l-8.423-14.589c-1.786-3.094-5.087-5-8.66-5z"/><path d="m192.107 87.652h-16.846c-3.573 0-6.874 1.906-8.66 5l-8.423 14.589c-1.786 3.094-1.786 6.906 0 10l8.423 14.589c1.786 3.094 5.088 5 8.66 5h16.846c3.573 0 6.874-1.906 8.66-5l8.423-14.589c1.786-3.094 1.786-6.906 0-10l-8.423-14.589c-1.786-3.094-5.087-5-8.66-5z"/><path d="m192.107 136.831h-16.846c-3.573 0-6.874 1.906-8.66 5l-8.423 14.589c-1.786 3.094-1.786 6.906 0 10l8.423 14.589c1.786 3.094 5.088 5 8.66 5h16.846c3.573 0 6.874-1.906 8.66-5l8.423-14.589c1.786-3.094 1.786-6.906 0-10l-8.423-14.589c-1.786-3.094-5.087-5-8.66-5z"/><path d="m228.44 30.562h-16.846c-3.573 0-6.874 1.906-8.66 5l-8.423 14.589c-1.786 3.094-1.786 6.906 0 10l8.423 14.589c1.786 3.094 5.088 5 8.66 5h16.846c3.573 0 6.874-1.906 8.66-5l8.423-14.589c1.786-3.094 1.786-6.906 0-10l-8.423-14.589c-1.786-3.094-5.088-5-8.66-5z"/><path d="m113.188 5.973h-16.846c-3.573 0-6.874 1.906-8.66 5l-8.423 14.589c-1.786 3.094-1.786 6.906 0 10l8.423 14.589c1.786 3.094 5.088 5 8.66 5h16.846c3.573 0 6.874-1.906 8.66-5l8.423-14.589c1.786-3.094 1.786-6.906 0-10l-8.423-14.589c-1.786-3.094-5.087-5-8.66-5z"/><path d="m149.496 112.242h-16.846c-3.573 0-6.874 1.906-8.66 5l-8.423 14.589c-1.786 3.094-1.786 6.906 0 10l8.423 14.589c1.786 3.094 5.088 5 8.66 5h16.846c3.573 0 6.874-1.906 8.66-5l8.423-14.589c1.786-3.094 1.786-6.906 0-10l-8.423-14.589c-1.786-3.094-5.087-5-8.66-5z"/><path d="m155.782 193.921h-16.846c-3.573 0-6.874 1.906-8.66 5l-8.423 14.589c-1.786 3.094-1.786 6.906 0 10l8.423 14.589c1.786 3.094 5.088 5 8.66 5h16.846c3.573 0 6.874-1.906 8.66-5l8.423-14.589c1.786-3.094 1.786-6.906 0-10l-8.423-14.589c-1.786-3.094-5.087-5-8.66-5z"/></g><path d="m130.276 35.559-8.43 14.59c-1.78 3.1-5.09 5-8.66 5h-15c3.57 0 6.88-1.9 8.66-5l8.43-14.59c1.78-3.09 1.78-6.9 0-10l-8.43-14.59c-1.78-3.09-5.09-5-8.66-5h15c3.57 0 6.88 1.91 8.66 5l8.43 14.59c1.78 3.099 1.78 6.91 0 10z" fill="#f2c300"/><path d="m111.346 55.148h-15c-3.58 0-6.88-1.9-8.66-5l-8.43-14.59c-1.78-3.09-1.78-6.9 0-10l8.43-14.59c1.78-3.09 5.08-5 8.66-5h15c-3.58 0-6.88 1.91-8.66 5l-8.43 14.59c-1.78 3.1-1.78 6.91 0 10l8.43 14.59c1.78 3.101 5.08 5 8.66 5z" fill="#f9e27d"/><path d="m245.526 60.148-8.43 14.59c-1.78 3.1-5.08 5-8.66 5h-15c3.58 0 6.88-1.9 8.66-5l8.43-14.59c1.78-3.09 1.78-6.9 0-10l-8.43-14.59c-1.78-3.09-5.08-5-8.66-5h15c3.58 0 6.88 1.91 8.66 5l8.43 14.59c1.78 3.101 1.78 6.911 0 10z" fill="#f2c300"/><path d="m226.596 79.739h-15c-3.58 0-6.88-1.9-8.66-5l-8.43-14.59c-1.78-3.09-1.78-6.9 0-10l8.43-14.59c1.78-3.09 5.08-5 8.66-5h15c-3.58 0-6.88 1.91-8.66 5l-8.43 14.59c-1.78 3.1-1.78 6.91 0 10l8.43 14.59c1.78 3.1 5.08 5 8.66 5z" fill="#f9e27d"/><path d="m166.576 92.648-8.42 14.59c-1.79 3.1-5.09 5-8.66 5h-15c3.57 0 6.87-1.9 8.66-5l8.42-14.59c1.79-3.09 1.79-6.9 0-10l-8.42-14.59c-1.79-3.09-5.09-5-8.66-5h15c3.57 0 6.87 1.91 8.66 5l8.42 14.59c1.79 3.101 1.79 6.911 0 10z" fill="#f2c300"/><path d="m147.646 112.239h-15c-3.57 0-6.87-1.9-8.66-5l-8.42-14.59c-1.79-3.09-1.79-6.9 0-10l8.42-14.59c1.79-3.09 5.09-5 8.66-5h15c-3.57 0-6.87 1.91-8.66 5l-8.42 14.59c-1.79 3.1-1.79 6.91 0 10l8.42 14.59c1.79 3.1 5.09 5 8.66 5z" fill="#f9e27d"/><path d="m209.186 117.239-8.42 14.59c-1.78 3.1-5.09 5-8.66 5h-15c3.57 0 6.88-1.9 8.66-5l8.42-14.59c1.79-3.09 1.79-6.9 0-10l-8.42-14.59c-1.78-3.09-5.09-5-8.66-5h15c3.57 0 6.88 1.91 8.66 5l8.42 14.59c1.79 3.1 1.79 6.909 0 10z" fill="#f2c300"/><path d="m190.266 136.829h-15c-3.58 0-6.88-1.9-8.67-5l-8.42-14.59c-1.78-3.09-1.78-6.9 0-10l8.42-14.59c1.79-3.09 5.09-5 8.67-5h15c-3.58 0-6.88 1.91-8.67 5l-8.42 14.59c-1.78 3.1-1.78 6.91 0 10l8.42 14.59c1.79 3.1 5.09 5 8.67 5z" fill="#f9e27d"/><path d="m209.186 166.419-8.42 14.59c-1.78 3.09-5.09 5-8.66 5h-15c3.57 0 6.88-1.91 8.66-5l8.42-14.59c1.79-3.09 1.79-6.9 0-10l-8.42-14.59c-1.78-3.09-5.09-5-8.66-5h15c3.57 0 6.88 1.91 8.66 5l8.42 14.59c1.79 3.1 1.79 6.91 0 10z" fill="#f2c300"/><path d="m190.266 186.009h-15c-3.58 0-6.88-1.91-8.67-5l-8.42-14.59c-1.78-3.09-1.78-6.9 0-10l8.42-14.59c1.79-3.09 5.09-5 8.67-5h15c-3.58 0-6.88 1.91-8.67 5l-8.42 14.59c-1.78 3.1-1.78 6.91 0 10l8.42 14.59c1.79 3.09 5.09 5 8.67 5z" fill="#f9e27d"/><path d="m166.576 141.829-8.42 14.59c-1.79 3.1-5.09 5-8.66 5h-15c3.57 0 6.87-1.9 8.66-5l8.42-14.59c1.79-3.09 1.79-6.9 0-10l-8.42-14.59c-1.79-3.09-5.09-5-8.66-5h15c3.57 0 6.87 1.91 8.66 5l8.42 14.59c1.79 3.1 1.79 6.91 0 10z" fill="#f2c300"/><path d="m147.646 161.419h-15c-3.57 0-6.87-1.9-8.66-5l-8.42-14.59c-1.79-3.09-1.79-6.9 0-10l8.42-14.59c1.79-3.09 5.09-5 8.66-5h15c-3.57 0-6.87 1.91-8.66 5l-8.42 14.59c-1.79 3.1-1.79 6.91 0 10l8.42 14.59c1.79 3.1 5.09 5 8.66 5z" fill="#f9e27d"/><path d="m172.866 223.509-8.42 14.59c-1.79 3.1-5.09 5-8.66 5h-15c3.57 0 6.87-1.9 8.66-5l8.42-14.59c1.79-3.09 1.79-6.9 0-10l-8.42-14.59c-1.79-3.09-5.09-5-8.66-5h15c3.57 0 6.87 1.91 8.66 5l8.42 14.59c1.79 3.1 1.79 6.91 0 10z" fill="#f2c300"/><path d="m153.936 243.099h-15c-3.57 0-6.87-1.9-8.66-5l-8.42-14.59c-1.79-3.09-1.79-6.9 0-10l8.42-14.59c1.79-3.09 5.09-5 8.66-5h15c-3.57 0-6.87 1.91-8.66 5l-8.42 14.59c-1.79 3.1-1.79 6.91 0 10l8.42 14.59c1.79 3.1 5.09 5 8.66 5z" fill="#f9e27d"/><path d="m35.736 103.463c-.696-.616-1.36-1.261-2.032-1.898-.672.638-1.336 1.282-2.032 1.898-20.108 17.804-38.442 46.162-2.238 75.553 1.476 1.199 2.896 2.452 4.27 3.745 1.374-1.293 2.793-2.546 4.27-3.745 36.204-29.392 17.87-57.749-2.238-75.553z" fill="#3193f3"/><path d="m41.206 176.259c-1.02.93-2.1 1.84-3.23 2.76-1.48 1.2-2.9 2.45-4.27 3.74-1.38-1.29-2.8-2.54-4.27-3.74-36.21-29.39-17.87-57.75 2.24-75.56.69-.61 1.36-1.26 2.03-1.89.67.63 1.33 1.28 2.03 1.89 1.85 1.64 3.69 3.37 5.47 5.18-16.95 17.249-28.81 41.93 0 67.62z" fill="#35b1fc"/><path d="m52.396 163.509h-37.38c-4.8-7.44-6.56-14.7-6.2-21.62h49.78c.36 6.92-1.4 14.18-6.2 21.62z" fill="#ff4a73"/><path d="m30.016 163.509h-15c-4.8-7.44-6.56-14.7-6.2-21.62h15c-.36 6.92 1.4 14.18 6.2 21.62z" fill="#f973a3"/><path d="m51.226 120.949h-35.04c1.059-1.663 2.662-3.871 3.62-5.07.76-.983 2.501-3.031 3.33-3.97 2.491-2.767 5.1-5.38 8.54-8.45.7-.62 1.36-1.26 2.02-1.89.68.63 1.34 1.27 2.04 1.89.771.684 2.16 1.96 2.16 1.96 1.291 1.203 3.101 2.992 3.94 3.86.961 1.121 4.452 4.398 8.55 10.41.4.615.318.439.84 1.26z" fill="#ff4a73"/><path d="m41.216 108.648c-2.209 2.109-6.064 6.693-6.94 7.92-.166.083-2.976 4.201-3.09 4.38h-15c1.059-1.663 2.662-3.871 3.62-5.07.76-.983 2.501-3.031 3.33-3.97 2.491-2.767 5.1-5.38 8.54-8.45.7-.62 1.36-1.26 2.02-1.89.68.63 1.34 1.27 2.04 1.89.771.684 2.16 1.96 2.16 1.96 1.093 1.019 2.217 2.127 3.32 3.23z" fill="#f973a3"/><path d="m249.192 47.936-8.42-14.59c-2.49-4.31-7.14-7-12.13-7h-16.84c-4.99 0-9.63 2.69-12.13 7l-8.42 14.59c-2.49 4.32-2.49 9.68 0 14l8.42 14.59c.45.77.96 1.49 1.54 2.15.001.001.003.003.004.004l-5.245 5.246h-.009c-1.18-.32-2.4-.49-3.65-.49h-16.84c-1.3 0-2.57.18-3.79.53-.3-1.22-.78-2.41-1.43-3.53l-8.42-14.59c-2.5-4.31-7.14-7-12.13-7h-16.85c-1.24 0-2.46.17-3.63.49l-5.24-5.24c.57-.66 1.09-1.38 1.54-2.16l8.42-14.59c2.49-4.31 2.49-9.68 0-14l-8.42-14.58c-2.5-4.32-7.14-7-12.13-7h-16.84c-4.99 0-9.64 2.68-12.13 7l-8.42 14.58c-2.49 4.32-2.49 9.69 0 14l8.42 14.59c2.49 4.32 7.14 7 12.13 7h16.84c1.239 0 2.457-.17 3.626-.489l5.252 5.252c-.579.659-1.089 1.379-1.538 2.147l-8.42 14.59c-2.5 4.32-2.5 9.69 0 14l8.42 14.59c.65 1.12 1.44 2.13 2.34 3-.9.88-1.69 1.89-2.34 3l-8.42 14.59c-2.5 4.32-2.5 9.68 0 14l8.42 14.59c2.49 4.32 7.14 7 12.12 7h16.85c1.3 0 2.57-.18 3.79-.53.31 1.22.79 2.41 1.43 3.53l8.42 14.59c.44.77.96 1.49 1.52 2.15l.002.002-5.239 5.239c-.001 0-.002-.001-.003-.001-1.17-.31-2.39-.48-3.63-.48h-16.85c-4.99 0-9.63 2.68-12.12 7l-8.43 14.59c-2.49 4.32-2.49 9.68 0 14l8.43 14.59c2.49 4.32 7.13 7 12.12 7h16.85c4.98 0 9.63-2.68 12.12-7l8.42-14.59c2.5-4.32 2.5-9.68 0-14l-8.42-14.59c-.45-.77-.96-1.49-1.54-2.15 0 0 0 0-.001-.001l5.25-5.25h.001c1.18.32 2.4.49 3.65.49h16.84c4.99 0 9.63-2.68 12.13-7l8.42-14.59c2.49-4.32 2.49-9.68 0-14l-8.42-14.59c-.65-1.12-1.44-2.12-2.34-3 .9-.88 1.69-1.88 2.34-3l8.42-14.59c2.49-4.31 2.49-9.68 0-14l-8.42-14.59c-.44-.77-.959-1.479-1.529-2.139l5.261-5.261c1.17.32 2.389.49 3.628.49h16.84c4.99 0 9.64-2.68 12.13-7l8.42-14.59c2.49-4.319 2.49-9.679 0-13.999zm-152.64 3c-2.14 0-4.13-1.15-5.2-3l-8.42-14.59c-1.07-1.85-1.07-4.15 0-6l8.42-14.59c1.07-1.85 3.06-2.99 5.2-2.99h16.84c2.14 0 4.13 1.14 5.2 3l8.42 14.58c1.07 1.85 1.07 4.15 0 6l-8.42 14.59c-1.07 1.85-3.06 3-5.2 3zm31.11 54.09-8.43-14.59c-1.06-1.85-1.06-4.15.01-6l8.42-14.59c1.07-1.85 3.06-3 5.19-3h16.85c2.14 0 4.13 1.15 5.2 3l8.42 14.59c1.07 1.85 1.07 4.15 0 6l-8.42 14.59c-1.07 1.85-3.06 3-5.2 3h-16.85c-2.13 0-4.12-1.15-5.19-3zm5.19 52.18c-2.13 0-4.12-1.15-5.19-3l-8.43-14.59c-1.06-1.85-1.06-4.15.01-6l8.42-14.59c1.07-1.85 3.06-3 5.19-3h16.85c2.14 0 4.13 1.15 5.2 3l8.42 14.59c1.07 1.85 1.07 4.15 0 6l-8.42 14.59c-1.07 1.85-3.06 3-5.2 3zm36.76 58.09c1.06 1.85 1.06 4.15 0 6l-8.43 14.59c-1.07 1.85-3.06 3-5.19 3h-16.85c-2.14 0-4.13-1.15-5.2-3l-8.42-14.59c-1.07-1.85-1.07-4.15 0-6l8.42-14.59c1.07-1.85 3.06-3 5.2-3h16.85c2.13 0 4.12 1.15 5.19 3zm27.9-71.68 8.42 14.59c1.07 1.85 1.07 4.15 0 6l-8.42 14.59c-1.07 1.85-3.06 3-5.2 3h-16.84c-2.14 0-4.13-1.15-5.2-3l-8.42-14.59c-1.07-1.85-1.07-4.15 0-6l8.42-14.59c1.07-1.85 3.06-3 5.2-3h16.84c2.14 0 4.13 1.15 5.2 3zm8.42-34.59c1.07 1.85 1.07 4.15 0 6l-8.42 14.59c-1.07 1.85-3.06 3-5.2 3h-16.84c-2.14 0-4.13-1.15-5.2-3l-8.42-14.59c-1.07-1.85-1.07-4.15 0-6l8.42-14.59c1.07-1.85 3.06-3 5.2-3h16.84c2.14 0 4.13 1.15 5.2 3zm36.33-51.09-8.42 14.59c-1.07 1.85-3.06 3-5.2 3h-16.84c-2.14 0-4.13-1.15-5.2-3l-8.42-14.59c-1.07-1.85-1.07-4.15 0-6l8.42-14.59c1.07-1.85 3.06-3 5.2-3h16.84c2.14 0 4.13 1.15 5.2 3l8.42 14.59c1.07 1.85 1.07 4.15 0 6z" fill="#5f266d"/><path d="m62.832 142.036c0-16.166-11.714-29.374-23.13-40.79 14.79-15.54 23.15-36.27 23.15-57.9 0-5.281-8-5.294-8 0 0 19.57-7.56 38.32-20.94 52.38-13.38-14.06-20.94-32.81-20.94-52.38 0-5.285-8-5.293-8 0 0 21.63 8.35 42.36 23.14 57.9-17.525 15.93-22.887 30.398-23.12 40.79-.919 16.523 10.408 29.965 23.08 40.66-19.774 20.63-23.1 42.078-23.1 67.57 0 5.285 8 5.293 8 0 0-10.86-1.992-38.21 20.94-62.1 18.355 19.122 20.94 38.798 20.94 62.1 0 5.305 8 5.274 8 0 0-24.715-2.787-46.378-23.1-67.57 12.64-10.667 24.02-24.002 23.08-40.66zm-45.35 17.26h-.01c-2.646-4.554-4.036-9.246-4.4-13.61v-.01h41.68v.06c-.456 4.782-1.879 9.221-4.4 13.56h-.01zm16.43-52.5c2.111 1.9 7.124 6.565 9.58 9.94h-19.16c1.007-1.411 5.295-6.083 9.58-9.94zm-15.25 17.94h30.5c3.391 5.095 4.785 11.94 5.12 12.94h-40.75c.995-4.826 2.639-8.689 5.13-12.94zm15.25 52.43c-4.57-3.649-7.407-6.362-10.61-9.87h21.22c-4.356 4.773-9.607 9.206-10.61 9.87z" fill="#5f266d"/></svg>