<svg id="Icon_Set" enable-background="new 0 0 256 256" height="512" viewBox="0 0 256 256" width="512" xmlns="http://www.w3.org/2000/svg"><path id="XMLID_42_" d="m252.299 180.081c.272-7.168-3.197-13.531-8.602-17.327-.756-.531-.886-1.582-.278-2.277 4.429-5.065 6.517-12.225 4.53-19.814-2.434-9.298-11.051-15.641-20.663-15.634-1.092.001-1.834-1.076-1.48-2.109 1.184-3.454 1.714-7.212 1.428-11.13-.904-12.376-10.102-22.814-22.26-25.295-3.656-.746-7.202-.729-10.545-.129-.823.148-1.588-.412-1.76-1.231-3.447-16.373-17.967-28.667-35.366-28.667-11.358 0-21.486 5.243-28.112 13.435-.613.758-1.764.758-2.378 0-6.626-8.192-16.754-13.435-28.112-13.435-17.399 0-31.919 12.294-35.366 28.667-.172.818-.937 1.379-1.76 1.231-3.343-.601-6.889-.617-10.545.129-12.158 2.481-21.357 12.919-22.26 25.295-.299 4.094.293 8.014 1.592 11.595.291.801-.298 1.645-1.151 1.644-11.866-.008-21.858 9.432-21.909 21.298-.023 5.422 1.979 10.37 5.284 14.15.608.695.478 1.747-.278 2.277-5.405 3.796-8.874 10.159-8.602 17.327.416 10.953 9.808 19.437 20.769 19.437h207.055c10.961 0 20.352-8.484 20.769-19.437z" fill="#ff4a73"/><path d="m194.668 155.41h-133.334c-5.615 0-10.167-4.552-10.167-10.167 0-5.615 4.552-10.167 10.167-10.167h133.333c5.615 0 10.167 4.552 10.167 10.167 0 5.615-4.552 10.167-10.166 10.167z" fill="#ffe2e2"/><path id="XMLID_13_" d="m63.331 85.134c-.17.82-.93 1.38-1.76 1.23-3.34-.6-6.89-.61-10.54.13-16.365 3.337-26.562 20.665-20.67 36.89.29.8-.3 1.65-1.15 1.65-.01 0-.01 0-.02 0-11.86 0-21.84 9.44-21.89 21.29-.02 5.42 1.98 10.37 5.28 14.15.61.7.48 1.75-.28 2.28-5.4 3.8-8.87 10.16-8.6 17.33.42 10.95 9.81 19.43 20.77 19.43h15c-10.96 0-20.35-8.48-20.77-19.43-.27-7.17 3.2-13.53 8.6-17.33.76-.53.89-1.58.28-2.28-3.3-3.78-5.3-8.73-5.28-14.15.05-11.85 10.03-21.29 21.89-21.29h.02c.85 0 1.44-.85 1.15-1.65-1.3-3.58-1.89-7.5-1.59-11.59.9-12.38 10.1-22.82 22.26-25.3 3.65-.74 7.2-.73 10.54-.13.83.15 1.59-.41 1.76-1.23 2.94-13.95 13.92-24.94 27.88-27.87-19.511-4.193-38.775 8.393-42.88 27.87z" fill="#f973a3"/><path id="XMLID_29_" d="m243.701 162.753c-.76-.53-.89-1.58-.28-2.28 4.43-5.06 6.51-12.22 4.53-19.81-2.44-9.3-11.05-15.64-20.66-15.63-.91 0-1.57-.74-1.57-1.57 0-.18.03-.36.09-.54 1.18-3.46 1.71-7.22 1.42-11.13-.9-12.38-10.1-22.82-22.26-25.3-3.65-.74-7.2-.73-10.54-.13-.83.15-1.59-.41-1.76-1.23-3.45-16.37-17.97-28.66-35.37-28.66-2.58 0-5.09.27-7.51.79 13.96 2.93 24.94 13.92 27.88 27.87.17.82.93 1.38 1.76 1.23 3.34-.6 6.89-.61 10.54.13 12.16 2.48 21.36 12.92 22.26 25.3.29 3.91-.24 7.67-1.42 11.13-.06.18-.09.36-.09.54 0 .83.66 1.57 1.57 1.57 9.61-.01 18.22 6.33 20.66 15.63 1.98 7.59-.1 14.75-4.53 19.81-.61.7-.48 1.75.28 2.28 5.4 3.8 8.87 10.16 8.6 17.33-.42 10.95-9.81 19.43-20.77 19.43h15c10.96 0 20.35-8.48 20.77-19.43.27-7.17-3.2-13.53-8.6-17.33z" fill="#ea2a6a"/><g fill="#796e84"><path d="m99.188 181.41h-.188c-5.523 0-10-4.477-10-10v-52.333c0-5.523 4.477-10 10-10h.188c5.523 0 10 4.477 10 10v52.333c0 5.523-4.477 10-10 10z"/><path d="m79.001 171.827h-.188c-5.523 0-10-4.477-10-10v-33.167c0-5.523 4.477-10 10-10h.188c5.523 0 10 4.477 10 10v33.167c0 5.523-4.477 10-10 10z"/><path d="m156.813 109.077h.188c5.523 0 10 4.477 10 10v52.333c0 5.523-4.477 10-10 10h-.188c-5.523 0-10-4.477-10-10v-52.333c0-5.523 4.478-10 10-10z"/><path d="m177.001 118.66h.188c5.523 0 10 4.477 10 10v33.167c0 5.523-4.477 10-10 10h-.188c-5.523 0-10-4.477-10-10v-33.167c0-5.523 4.477-10 10-10z"/></g><path d="m248.035 161.079c10.748-15.074 2.179-37.446-17.578-39.859 5.09-21.479-12.732-41.416-34.407-39.121-8.153-30.053-46.506-39.96-68.049-16.92-21.549-23.05-59.901-13.123-68.049 16.92-21.843-2.299-39.497 17.813-34.395 39.18-19.108 2.653-28.609 24.253-17.587 39.798-16.997 14.83-6.041 42.441 16.502 42.441h207.058c22.502.001 33.514-27.594 16.505-42.439zm-16.505 34.44h-207.058c-14.646 0-24.065-18.291-9.616-29.688 5.276.991 8.088 6.811 5.643 11.539-1.015 1.962-.248 4.375 1.715 5.391 5.18 2.68 7.928-5.607 6.946-11.638 12.631-2.906 15.977-19.592 8.425-19.592-2.209 0-4 1.791-4 4 0 4.363-3.507 7.916-7.849 8.003-2.49-3.021-6.069-5.1-10.125-5.67-9.893-11.306-1.717-28.834 13.583-28.834.005-.001.012-.001.018 0 3.629 0 6.144-3.61 4.91-7.008-6.275-17.285 8.614-34.971 26.748-31.717 1.735.311 3.544-.187 4.982-1.641 2.606-2.605 6.448-3.233 9.655-1.892-3.511 6.36-2.836 17.381 3.51 15.544 2.122-.612 3.347-2.829 2.733-4.952-2.525-8.75 8.28-15.139 14.719-8.699 1.563 1.561 4.095 1.562 5.657-.001 5.448-5.452-9.488-15.274-20.966-7.922-3.377-2.163-7.357-2.991-11.205-2.502 10.454-20.781 38.96-24.101 53.747-5.821.118.146.245.283.375.415.65 7.372 6.068 13.387 13.147 14.938 2.919 13.319 20.427 16.926 20.427 9.222 0-2.209-1.791-4-4-4-3.688 0-6.85-2.275-8.168-5.494 12.413-3.586 15.7-20.155 8.168-20.155-2.209 0-4 1.791-4 4 0 4.866-3.959 8.825-8.825 8.825-4.426 0-8.092-3.28-8.719-7.536 20.666-22.901 51.62-10.554 56.648 13.329.626 2.964 3.438 4.871 6.382 4.341 17.887-3.199 32.809 14.029 26.888 31.318-1.245 3.628 1.434 7.407 5.261 7.407 1.986-.662 13.906 1.61 16.795 12.646 1.529 5.842.199 11.722-3.648 16.14-9.208.232-12.208-3.769-12.178-12.183.008-2.209-1.777-4.006-3.986-4.014-2.208-.008-4.006 1.776-4.014 3.986-.022 6.278 1.387 12.356 6.339 16.254-4.888 3.916-6.277 9.914-6.256 16.179.008 2.204 1.797 3.986 4 3.986 2.214 0 4.008-1.799 4-4.014-.016-4.511.867-7.593 2.698-9.423 3.075-3.071 8.76-2.639 10.039-2.814 14.548 11.936 4.968 29.747-9.545 29.747z" fill="#5f266d"/><path d="m194.671 131.073h-3.482v-2.413c0-10.725-11.404-17.094-20.493-12.482-1.339-6.333-6.969-11.102-13.694-11.102-8.212 0-14.188 6.516-14.188 14v11.997h-29.625v-11.997c0-7.463-5.95-14-14.188-14-6.726 0-12.355 4.769-13.694 11.102-9.073-4.604-20.493 1.734-20.493 12.482v2.413c-3.688 0-8.819-.547-13.49 4.151-8.869 8.866-2.602 24.188 10.008 24.188h3.482v2.413c0 10.725 11.404 17.094 20.493 12.482 1.294 6.119 6.689 11.102 13.882 11.102 7.72 0 14-6.28 14-14v-11.997h29.625v11.997c0 7.72 6.28 14 14 14 7.102 0 12.569-4.895 13.882-11.102 9.073 4.604 20.493-1.734 20.493-12.482v-2.413h3.482c7.874 0 14.16-6.389 14.16-14.17 0-7.812-6.353-14.169-14.16-14.169zm-129.858 20.34h-3.482c-5.467 0-8.229-6.653-4.344-10.539 2.16-2.171 4.408-1.801 7.826-1.801zm20.188 10.413c0 7.987-12.188 8.013-12.188 0v-33.166c0-3.119 2.435-6 6.188-6 3.309 0 6 2.691 6 6zm20.187 9.584c0 3.118-2.435 6-6.188 6-3.309 0-6-2.691-6-6 0-7.761 0-27.588 0-42.75v-9.584c0-3.309 2.691-6 6-6 3.735 0 6.188 2.867 6.188 6zm37.625-19.997h-29.625v-12.34h29.625zm20.188 19.997c0 3.309-2.691 6-6 6h-.188c-3.309 0-6-2.691-6-6v-52.334c0-3.119 2.435-6 6.188-6 3.309 0 6 2.691 6 6zm20.187-9.584c0 3.118-2.435 6-6.188 6-3.309 0-6-2.691-6-6v-33.166c0-7.987 12.188-8.013 12.188 0zm11.483-10.413h-3.482v-12.34h3.482c3.396 0 6.16 2.768 6.16 6.17 0 3.332-2.688 6.17-6.16 6.17z" fill="#5f266d"/></svg>