<svg id="Icon_Set" enable-background="new 0 0 256 256" height="512" viewBox="0 0 256 256" width="512" xmlns="http://www.w3.org/2000/svg"><path d="m250.139 95.086c0-25.662-21.685-46.26-47.73-44.468-22.179 1.526-40.065 19.632-41.347 41.826-.554 9.587 1.928 18.56 6.57 26.056 4.485 7.244 6.871 15.589 6.871 24.109v25.522h59.91v-22.12c0-9.103 2.602-18.074 7.794-25.551 5-7.2 7.932-15.943 7.932-25.374z" fill="#f9d335"/><path d="m182.637 118.5c4.48 7.24 6.87 15.59 6.87 24.11v25.52h-15v-25.52c0-8.52-2.39-16.87-6.87-24.11-4.65-7.5-7.13-16.47-6.57-26.06 1.28-22.19 19.16-40.3 41.34-41.82 3.65-.25 7.21-.06 10.64.52-20.12 3.42-35.79 20.58-36.98 41.3-.56 9.59 1.92 18.56 6.57 26.06z" fill="#f9e27d"/><path d="m250.137 95.09c0 9.43-2.93 18.17-7.93 25.37-5.19 7.48-7.79 16.45-7.79 25.55v22.12h-15v-22.12c0-9.1 2.6-18.07 7.79-25.55 5-7.2 7.93-15.94 7.93-25.37 0-22.08-16.03-40.39-37.09-43.95 1.43-.24 2.89-.42 4.36-.52 26.05-1.79 47.73 18.8 47.73 44.47z" fill="#f2c300"/><path d="m203.098 221.86c-6.82 11.43-19.85 19.14-34.82 19.14h-122.23c-14.78 0-27.68-7.46-34.64-18.56-3.45-5.52-5.43-11.94-5.43-18.8 0-20.63 17.94-37.36 40.07-37.36 5.17 0 10.1.92 14.64 2.58l.01.01v-.01c5.263-20.601 23.95-35.85 46.21-35.85 2.55 0 5.05.2 7.49.59 18.93 2.98 34.15 17.11 38.76 35.45 34.517-13.342 68.476 21.889 49.94 52.81z" fill="#5fcdff"/><path d="m153.157 169.05c-.01 0-.01.01-.01.01-3 .07-5.62-.06-8.52-.1-3.7-.06-7-2.34-8.36-5.79-6.1-15.43-20.02-26.92-36.87-29.57 2.44-.39 4.95-.59 7.51-.59 2.55 0 5.05.2 7.49.59 18.93 2.98 34.15 17.11 38.76 35.45z" fill="#30b6ff"/><path d="m61.047 241h-15c-14.78 0-27.68-7.46-34.64-18.56-3.45-5.52-5.43-11.94-5.43-18.8 0-20.63 17.94-37.36 40.07-37.36 2.57 0 5.06.23 7.49.66-18.54 3.27-32.56 18.46-32.56 36.7 0 6.86 1.98 13.28 5.43 18.8 6.96 11.1 19.86 18.56 34.64 18.56z" fill="#73d7f9"/><path d="m114.397 133.6c-17.55 2.77-31.9 15.11-37.57 31.5-.8 2.31-2.99 3.86-5.43 3.88-3.92.05-6.94-.08-10.7-.12 5.27-20.61 23.95-35.85 46.21-35.85 2.55 0 5.05.2 7.49.59z" fill="#73d7f9"/><path d="m203.098 221.86c-6.82 11.43-19.85 19.14-34.82 19.14h-21.33c18.33 0 33.72-11.57 38.39-27.26.48-1.59-.53-3.25-2.17-3.49-12.65-1.88-22.45-12.46-23.12-25.47h-.04c0-11.13.816-14.541-3.19-16.93 33.857-9.57 63.946 24.541 46.28 54.01z" fill="#30b6ff"/><path d="m234.414 156.762h-59.91v25.522h.037c.739 14.356 12.613 25.769 27.153 25.769h5.472c14.54 0 26.413-11.413 27.153-25.769h.096v-25.522z" fill="#87828e"/><path d="m234.417 156.76v25.52h-.1c-.74 14.36-12.61 25.77-27.15 25.77h-5.47c-1.63 0-3.22-.14-4.76-.42 12.29-2.17 21.72-12.6 22.38-25.35h.1v-25.52z" fill="#796e84"/><path d="m211.937 207.63c-1.55.28-3.14.42-4.77.42h-5.47c-14.54 0-26.42-11.41-27.16-25.77h-.03v-25.52h15v25.52h.03c.66 12.75 10.1 23.18 22.4 25.35z" fill="#a4a4a5"/><g fill="#5f266d"><path d="m238.707 59.574c-29.915-27.929-79.266-8.389-81.633 32.633-1.487 25.427 13.433 28.296 13.433 50.403 0 11.547-.003 15.397-.003 19.728-4.875-.229-9.776.268-14.684 1.632-15.829-46.427-81.852-46.514-97.79-.134-38.018-10.114-70.028 28.705-50.011 60.729 7.902 12.605 22.474 20.435 38.028 20.435h122.23c20.902 0 38.975-13.971 43.018-33.229 14.406-1.905 25.771-13.634 26.95-28.398.284-1 .172-.599.172-15.243 0-22.375-1.581-32.909 7.075-45.389 13.733-19.775 10.835-46.717-6.785-63.167zm-70.43 177.426h-122.23c-12.823 0-24.798-6.394-31.248-16.68-17.038-27.262 12.923-59.313 44.517-47.696 2.217.819 4.67-.465 5.257-2.766 4.934-19.341 22.342-32.849 42.334-32.849 20.055 0 37.479 13.577 42.371 33.017.599 2.379 3.259 3.666 5.478 2.695 4.887-1.836 10.096-2.68 15.748-2.362 0 12.503-.062 12.056.098 12.783 1.08 15.029 13.025 28.907 32.401 28.907-4.025 14.456-18.188 24.951-34.726 24.951zm38.889-32.95h-5.47c-10.898 0-20.086-7.511-22.538-17.766h50.547c-2.445 10.24-11.637 17.766-22.539 17.766zm23.248-25.766h-51.907c0-4.251 0-8.245 0-17.522h51.907zm.002-25.522h-21.958v-29.158l16.488-16.489c1.563-1.562 1.563-4.095 0-5.656-1.563-1.563-4.096-1.563-5.656 0l-10.824 10.825v-15.31c0-2.209-1.791-4-4-4s-4 1.791-4 4v15.31l-10.825-10.825c-1.561-1.563-4.096-1.563-5.656 0-1.563 1.562-1.563 4.095 0 5.656l16.474 16.474v29.174h-21.952v-10.153c0-24.551-14.761-27.449-13.446-49.939 1.98-34.309 43.24-50.542 68.187-27.249 15.294 14.279 16.728 36.838 5.674 52.758-9.372 13.507-8.506 26.371-8.506 34.582z"/><path d="m204.375 35.352c2.209 0 4-1.791 4-4v-16.352c0-2.209-1.791-4-4-4s-4 1.791-4 4v16.352c0 2.209 1.791 4 4 4z"/><path d="m238.45 42.989 11.563-11.563c1.563-1.562 1.563-4.095 0-5.656-1.561-1.563-4.096-1.563-5.656 0l-11.563 11.563c-3.733 3.73 1.926 9.391 5.656 5.656z"/><path d="m177.82 42.768c3.53 0 5.356-4.302 2.828-6.828l-11.563-11.563c-1.561-1.563-4.096-1.563-5.656 0-1.563 1.562-1.563 4.095 0 5.656 12.47 12.469 12.183 12.735 14.391 12.735z"/><path d="m66.39 217.667h-19c-2.209 0-4 1.791-4 4s1.791 4 4 4h19c2.209 0 4-1.791 4-4s-1.791-4-4-4z"/><path d="m85.057 217.667h-3.667c-2.209 0-4 1.791-4 4s1.791 4 4 4h3.667c2.209 0 4-1.791 4-4s-1.791-4-4-4z"/></g></svg>