<svg id="Icon_Set" enable-background="new 0 0 256 256" height="512" viewBox="0 0 256 256" width="512" xmlns="http://www.w3.org/2000/svg"><path d="m95.068 189.099h65.862v42.568h-65.862z" fill="#87828e"/><path d="m241.666 189.099h-227.333c-5.523 0-10-4.477-10-10v-144.766c0-5.523 4.477-10 10-10h227.333c5.523 0 10 4.477 10 10v144.766c0 5.523-4.477 10-10 10z" fill="#87828e"/><path d="m227.964 171.71h-199.928c-2.781 0-5.036-2.255-5.036-5.036v-119.915c0-2.781 2.255-5.036 5.036-5.036h199.928c2.781 0 5.036 2.255 5.036 5.036v119.915c0 2.781-2.255 5.036-5.036 5.036z" fill="#5fcdff"/><path d="m251.67 34.33v144.77c0 5.52-4.48 10-10 10h-15c5.52 0 10-4.48 10-10v-144.77c0-5.52-4.48-10-10-10h15c5.52 0 10 4.48 10 10z" fill="#796e84"/><path d="m29.33 189.1h-15c-5.52 0-10-4.48-10-10v-144.77c0-5.52 4.48-10 10-10h15c-5.52 0-10 4.48-10 10v144.77c0 5.52 4.48 10 10 10z" fill="#a4a4a5"/><path d="m233 46.76v119.91c0 2.79-2.25 5.04-5.04 5.04h-15c2.79 0 5.04-2.25 5.04-5.04v-119.91c0-2.78-2.25-5.04-5.04-5.04h15c2.79 0 5.04 2.26 5.04 5.04z" fill="#30b6ff"/><path d="m43.04 171.71h-15c-2.79 0-5.04-2.25-5.04-5.04v-119.91c0-2.78 2.25-5.04 5.04-5.04h15c-2.79 0-5.04 2.26-5.04 5.04v119.91c0 2.79 2.25 5.04 5.04 5.04z" fill="#73d7f9"/><path d="m145.93 189.1h15v42.57h-15z" fill="#796e84"/><path d="m95.07 189.1h15v42.57h-15z" fill="#a4a4a5"/><path d="m155.322 66.26c-15.088 0-27.322 5.639-27.322 12.606 0-6.967-12.234-12.606-27.323-12.606s-27.323 5.639-27.323 12.606v67.821.486h.023 54.599.046 54.599.023v-.486-67.821c.001-6.967-12.234-12.606-27.322-12.606z" fill="#ffe2e2"/><path d="m182.645 146.687c0 .159-.008.326-.023.486h-54.599c-.015-.159-.023-.326-.023-.486 0-6.96 12.234-12.606 27.323-12.606s27.322 5.646 27.322 12.606z" fill="#ffcfcf"/><path d="m128 146.687c0 .159-.008.326-.023.486h-54.599c-.015-.159-.023-.326-.023-.486 0-6.96 12.234-12.606 27.323-12.606s27.322 5.646 27.322 12.606z" fill="#ffcfcf"/><g fill="#5f266d"><path d="m227.964 37.723h-199.928c-4.982 0-9.036 4.054-9.036 9.036v119.915c0 4.982 4.054 9.036 9.036 9.036h199.928c4.982 0 9.036-4.054 9.036-9.036v-119.915c0-4.983-4.054-9.036-9.036-9.036zm1.036 128.951c0 .571-.465 1.036-1.036 1.036h-199.928c-.571 0-1.036-.465-1.036-1.036v-119.915c0-.571.465-1.036 1.036-1.036h199.928c.571 0 1.036.465 1.036 1.036z"/><path d="m241.667 20.333h-227.334c-7.72 0-14 6.28-14 14v144.767c0 7.72 6.28 14 14 14h76.735v34.567h-8.041c-2.209 0-4 1.791-4 4s1.791 4 4 4h89.943c2.209 0 4-1.791 4-4s-1.791-4-4-4h-8.04v-34.567h76.736c7.72 0 14-6.28 14-14v-144.767c.001-7.72-6.28-14-13.999-14zm-84.737 207.334h-57.862v-34.567h57.862zm90.737-48.567c0 3.309-2.691 6-6 6-10.438 0-218.509 0-227.333 0-3.309 0-6-2.691-6-6v-144.767c0-3.309 2.691-6 6-6h227.333c3.309 0 6 2.691 6 6z"/><path d="m155.322 62.26c-12.02 0-22.049 3.234-27.322 8.236-5.273-5.002-15.303-8.236-27.323-8.236-17.856 0-31.322 7.14-31.322 16.606v68.307c0 1.076.491 2.252 1.478 3.07.746.612 1.589.93 2.545.93h54.599.046 54.599.023c.691 0 1.419-.192 2.08-.599.003-.002.006-.003.009-.005 1.142-.704 1.91-1.956 1.91-3.396v-68.307c.001-9.467-13.465-16.606-31.322-16.606zm0 8c14.021 0 23.323 5.18 23.323 8.606v56.505c-5.646-3.289-13.868-5.291-23.323-5.291-9.454 0-17.677 2.002-23.322 5.291v-56.505c0-3.427 9.302-8.606 23.322-8.606zm-54.645 0c14.021 0 23.323 5.18 23.323 8.606v56.505c-5.646-3.289-13.868-5.291-23.323-5.291-9.454 0-17.677 2.002-23.322 5.291v-56.505c0-3.427 9.301-8.606 23.322-8.606zm-20.738 72.913c3.688-2.644 11.098-5.093 20.738-5.093s17.049 2.449 20.738 5.093zm54.645 0c3.689-2.644 11.099-5.093 20.738-5.093 9.641 0 17.05 2.449 20.739 5.093z"/><path d="m222.771 103.979-13.244-14.124c-1.51-1.611-4.043-1.692-5.654-.182s-1.692 4.043-.182 5.654l6.928 7.388h-14.057c-2.209 0-4 1.791-4 4s1.791 4 4 4h14.057l-6.928 7.389c-1.511 1.612-1.43 4.144.182 5.654.772.724 1.755 1.082 2.735 1.082 1.067 0 2.132-.424 2.919-1.264l13.244-14.125c1.418-1.511 1.427-3.95 0-5.472z"/><path d="m59.437 102.716h-14.056l6.927-7.388c1.511-1.612 1.43-4.144-.182-5.654-1.61-1.51-4.144-1.428-5.654.182l-13.243 14.124c-1.445 1.542-1.402 3.977 0 5.473l13.243 14.125c1.509 1.61 4.042 1.693 5.654.182s1.693-4.042.182-5.654l-6.927-7.389h14.057c2.209 0 4-1.791 4-4s-1.792-4.001-4.001-4.001z"/><path d="m144.166 219.667h1.667c2.209 0 4-1.791 4-4s-1.791-4-4-4h-1.667c-2.209 0-4 1.791-4 4s1.791 4 4 4z"/><path d="m110.166 219.667h19c2.209 0 4-1.791 4-4s-1.791-4-4-4h-19c-2.209 0-4 1.791-4 4s1.791 4 4 4z"/></g></svg>