<svg id="Icon_Set" enable-background="new 0 0 256 256" height="512" viewBox="0 0 256 256" width="512" xmlns="http://www.w3.org/2000/svg"><path d="m140.714 193.119v26.573c0 3.125-2.526 5.651-5.651 5.651h-79.75c-3.12 0-5.651-2.526-5.651-5.651v-26.573c0-12.369 4.93-23.581 12.951-31.77 4.12-4.258 9.08-7.602 13.798-9.692.703-.321 1.417-.63 2.138-.915 1.096-.436 2.217-.824 3.35-1.169 4.204-1.284 8.656-1.975 13.284-1.975s9.08.691 13.284 1.975c1.139.351 2.253.745 3.35 1.187.727.279 1.442.582 2.15.897 5.771 2.638 10.772 6.324 14.804 10.74 7.412 8.099 11.943 18.886 11.943 30.722z" fill="#5fcdff"/><path d="m102.686 148.22c-1.98.32-3.91.78-5.79 1.35-1.13.35-2.25.74-3.35 1.17-.72.29-1.43.6-2.14.92-4.71 2.09-9.68 5.43-13.8 9.69-8.02 8.19-12.95 19.4-12.95 31.77v26.57c0 3.13 2.54 5.65 5.66 5.65h-15c-3.12 0-5.66-2.52-5.66-5.65v-26.57c0-12.37 4.93-23.58 12.95-31.77 4.12-4.26 9.09-7.6 13.8-9.69.71-.32 1.42-.63 2.14-.92 1.1-.43 2.22-.82 3.35-1.17 4.21-1.28 8.66-1.97 13.29-1.97 2.56 0 5.06.21 7.5.62z" fill="#73d7f9"/><path d="m140.716 193.12v26.57c0 3.13-2.53 5.65-5.65 5.65h-15c3.12 0 5.65-2.52 5.65-5.65v-26.57c0-11.84-4.53-22.62-11.95-30.72-4.03-4.42-9.03-8.1-14.8-10.74-.71-.32-1.42-.62-2.15-.9-1.1-.44-2.21-.83-3.35-1.19-1.88-.57-3.81-1.03-5.78-1.35 2.44-.41 4.94-.62 7.5-.62 4.62 0 9.07.69 13.28 1.97 1.14.36 2.25.75 3.35 1.19.73.28 1.44.58 2.15.9 5.77 2.64 10.77 6.32 14.8 10.74 7.42 8.1 11.95 18.88 11.95 30.72z" fill="#30b6ff"/><path d="m128.874 250.677h-67.386c-8.284 0-15-6.716-15-15v-38.596c0-8.284 6.716-15 15-15h67.387c8.284 0 15 6.716 15 15v38.596c-.001 8.284-6.716 15-15.001 15z" fill="#b76c6c"/><path d="m76.486 250.68h-15c-8.28 0-15-6.72-15-15v-38.6c0-8.28 6.72-15 15-15h15c-8.28 0-15 6.72-15 15v38.6c0 8.28 6.72 15 15 15z" fill="#c98585"/><path d="m207.356 28.544c6.565 18.192-2.861 38.262-21.053 44.826-7.21 2.602-14.715 2.692-21.558.72-3.186-.918-18.344 23.512-21.146 21.745-2.892-1.824 6.588-29.872 4.314-32.501-2.729-3.156-4.936-6.858-6.437-11.017-6.565-18.192 2.861-38.262 21.053-44.826s38.263 2.861 44.827 21.053z" fill="#5fcdff"/><path d="m128.874 224.674h-67.386c-8.284 0-15-6.716-15-15v-12.593c0-8.284 6.716-15 15-15h67.387c8.284 0 15 6.716 15 15v12.593c-.001 8.284-6.716 15-15.001 15z" fill="#b76c6c"/><path d="m76.486 224.669h-15c-8.28 0-15-6.71-15-15v-12.59c0-8.28 6.72-15 15-15h15c-8.28 0-15 6.72-15 15v12.59c0 8.291 6.72 15 15 15z" fill="#c98585"/><path d="m143.876 197.08v38.6c0 8.28-6.72 15-15 15h-15c8.28 0 15-6.72 15-15v-38.6c0-8.28-6.72-15-15-15h15c8.28 0 15 6.719 15 15z" fill="#965959"/><path d="m143.876 197.08v12.59c0 8.29-6.72 15-15 15h-15c8.28 0 15-6.71 15-15v-12.59c0-8.28-6.72-15-15-15h15c8.28 0 15 6.719 15 15z" fill="#965959"/><path d="m94.473 235.084c-4.969 0-8.997-4.028-8.997-8.997v-3.514c0-4.969 4.028-8.997 8.997-8.997 4.969 0 8.997 4.028 8.997 8.997v3.514c0 4.969-4.028 8.997-8.997 8.997z" fill="#f9d335"/><g fill="#ffbb98"><path d="m110.146 153.649c-4.613 8-2.422 4.205-10.051 17.408-2.184 3.78-7.637 3.78-9.82 0-7.863-13.622-5.984-10.367-10.044-17.401 4.438 2.45 9.526 3.843 14.951 3.843 5.424 0 10.526-1.393 14.964-3.85z"/><path d="m67.176 139.734c-1.218.511-2.555.798-3.962.798-5.649 0-10.24-4.592-10.24-10.24 0-5.677 4.592-10.254 10.24-10.254.567 0 1.12.042 1.652.133-.049.231-.098.462-.14.693-.154.819-.266 1.645-.357 2.485 0 .945-.522 3.678.238 8.12 0 .137.249 1.357.28 1.498.088.7.892 3.7 2.023 6.181-.014.014 0 .021.007.035.084.187.168.369.259.551z"/><path d="m137.388 130.284c0 5.656-4.571 10.24-10.233 10.24-1.4 0-2.737-.287-3.955-.791.091-.189.182-.385.266-.574 1.382-2.848 2.317-7.225 2.415-8.497.188-1.045.287-3.076.287-4.151 0-2.276-.252-4.416-.602-6.034-.021-.105-.042-.203-.063-.308.539-.091 1.092-.133 1.652-.133 5.663.001 10.233 4.586 10.233 10.248z"/><path d="m125.566 120.479c-2.801-14.222-15.334-24.941-30.384-24.941-15.175 0-27.799 10.911-30.452 25.326-.159.817-.272 1.645-.363 2.484 0 .846-.508 3.747.239 8.121 0 .117.252 1.359.283 1.497.069.7.916 3.742 2.019 6.181-.011.011 0 .022.011.034 4.832 10.798 15.674 18.317 28.264 18.317 12.612 0 23.455-7.531 28.287-18.34 1.426-2.998 2.31-7.218 2.415-8.495.193-1.155.284-2.96.284-4.151-.002-2.276-.253-4.421-.603-6.033z"/></g><path d="m102.696 156.58c-2.41.6-4.92.92-7.51.92-12.59 0-23.44-7.52-28.27-18.32-.01-.01-.02-.02-.01-.03-9.067-20.114 5.585-43.61 28.28-43.61 2.59 0 5.1.32 7.5.92-18.578 4.608-28.714 25.088-20.78 42.69-.01.01 0 .02.01.03 3.84 8.579 11.48 15.1 20.78 17.4z" fill="#ffcaa6"/><path d="m126.166 126.509c0 1.19-.09 3-.28 4.15-.11 1.28-.99 5.5-2.42 8.5-4.83 10.81-15.67 18.34-28.28 18.34-2.58 0-5.09-.32-7.49-.92 9.3-2.31 16.93-8.83 20.77-17.42 1.43-3 2.31-7.22 2.42-8.5.19-1.15.28-2.96.28-4.15 0-2.27-.25-4.42-.6-6.03-2.32-11.77-11.31-21.15-22.88-24.02 2.4-.6 4.91-.92 7.5-.92 15.05 0 27.58 10.72 30.38 24.94.35 1.61.6 3.761.6 6.03z" fill="#ffaa80"/><path d="m54.153 118.375v3.919h7.742c5.388 0 10.371-3.142 13.071-8.256l4.337-8.256 4.349 8.256c1.35 2.557 3.274 4.624 5.532 6.046 2.246 1.422 4.851 2.21 7.539 2.21h39.499v-3.919c0-22.187-17.611-40.252-39.606-41.004-.467-.024-.945-.024-1.422-.024-.478 0-.956 0-1.422.024-10.765.37-20.478 4.874-27.599 11.995-7.431 7.419-12.02 17.671-12.02 29.009z" fill="#b76c6c"/><path d="m102.726 78.03c-8.34 1.53-15.79 5.58-21.55 11.34-7.43 7.42-12.02 17.67-12.02 29.01v1.86c-2.18 1.32-4.68 2.05-7.26 2.05h-7.74v-3.91c0-11.34 4.59-21.59 12.02-29.01 7.12-7.12 16.83-11.63 27.6-12 .46-.02.94-.02 1.42-.02s.95 0 1.42.02c2.08.069 4.12.299 6.11.66z" fill="#c98585"/><path d="m136.226 118.379v3.91h-15v-3.91c0-20.09-14.44-36.81-33.5-40.35 1.97-.36 3.99-.59 6.05-.66.46-.02.94-.02 1.42-.02s.95 0 1.42.02c22 .751 39.61 18.82 39.61 41.01z" fill="#965959"/><path d="m186.306 73.37c-6.45 2.33-13.14 2.64-19.37 1.27 1.46-.33 2.92-.75 4.37-1.27 18.19-6.56 27.61-26.63 21.05-44.83-4.23-11.75-14.1-19.83-25.46-22.32 16.93-3.74 34.42 5.58 40.46 22.32 6.56 18.2-2.86 38.27-21.05 44.83z" fill="#30b6ff"/><path d="m156.476 52.319c1.5 4.16 3.71 7.86 6.44 11.01.96 1.12-.19 6.81-1.61 13.13-5.65 5.94-15.5 20.76-17.71 19.38-2.89-1.83 6.59-29.88 4.32-32.51-2.73-3.15-4.94-6.85-6.44-11.01-6.56-18.19 2.86-38.26 21.05-44.83 6.45-2.33 13.14-2.64 19.37-1.27-1.46.33-2.92.75-4.37 1.27-18.19 6.571-27.61 26.64-21.05 44.83z" fill="#73d7f9"/><path d="m161.171 3.728c-25.276 9.123-34.021 40.687-16.893 61.501-.037 2.293-1.486 8.648-2.472 12.967-3.146 13.797-4.046 18.687-.342 21.022 7.02 4.428 15.836-13.775 23.623-20.896 17.693 4.382 36.587-4.141 44.646-21.305 14.667-31.226-15.839-65.095-48.562-53.289zm4.683 66.519c-4.781-1.366-8.29 4.311-17.618 15.901 3.107-14.731 5.694-21.971 2.704-25.429-17.349-20.072-2.94-51.309 23.446-51.309 12.706 0 24.652 7.869 29.207 20.491 8.592 23.806-13.56 47.313-37.739 40.346z" fill="#5f266d"/><path d="m120.534 150.602c1.728-1.818 3.252-3.773 4.709-6.218.633.086 1.27.146 1.913.146 7.846 0 14.229-6.393 14.229-14.25 0-2.256-.531-4.426-1.506-6.375.447-1.009.346-1.366.346-5.525 0-40.034-48.536-60.194-76.876-31.84-8.508 8.496-13.193 19.804-13.193 31.84 0 4.113-.103 4.496.33 5.496-1.709 3.378-2.016 7.359-.675 11.155 2.038 5.771 7.299 9.499 13.404 9.499.651 0 1.292-.059 1.927-.145 1.343 2.258 2.919 4.336 4.698 6.207-12.526 7.494-21.426 20.155-23.645 35.257-2.321 3.151-3.71 7.027-3.71 11.231 0 1.53.002 19.229.002 38.598 0 10.477 8.523 19 19 19h67.387c10.477 0 19-8.523 19-19 0-13.875.002-32.198.002-38.598 0-4.196-1.384-8.066-3.697-11.214-2.193-14.902-10.985-27.727-23.645-35.264zm8.24-14.286c.951-3.244 1.419-6.621 1.391-10.027h1.779c2.9 3.474 1.215 8.843-3.17 10.027zm-70.363-10.021c.294 0 1.486.002 1.778.001.021 3.849.529 7.066 1.413 10.037-4.268-1.076-6.131-6.572-3.191-10.038zm5.353-8.19c-.004.001-.009 0-.013.001-.963.189-1.131.195-5.594.188.022-9.865 3.872-19.13 10.849-26.097 23.257-23.268 63.147-6.796 63.221 26.092-13.93 0-4.112 0-35.5 0-4.112 0-7.643-2.535-9.531-6.114l-4.35-8.26c-1.498-2.846-5.581-2.849-7.08.004l-4.336 8.252c-1.942 3.675-5.388 5.687-7.666 5.934zm4.483 7.019c5.625-2.114 8.536-5.94 11.063-10.752l.808 1.534c3.276 6.211 9.505 10.384 16.608 10.384h25.43c.116 37.623-55.803 34.544-53.909-1.166zm33.064 35.835c-1.214 2.099-1.965 3.398-4.681 8.098-.42.727-1.086.835-1.445.835-.36.001-1.027-.108-1.446-.834l-4.675-8.098c4.081.722 8.327.691 12.247-.001zm-24.836-4.905c.261.165.53.316.794.475l9.541 16.531c3.723 6.442 13.021 6.449 16.746-.001 6.576-11.378 6.326-10.942 9.523-16.49.27-.161.533-.334.8-.502 9.837 4.983 16.862 13.332 20.32 22.787-1.691-.495-3.474-.773-5.323-.773h-67.39c-1.846 0-3.627.278-5.316.771 3.71-10.17 11.353-18.313 20.305-22.798zm63.4 79.623c0 6.065-4.935 11-11 11h-67.387c-6.065 0-11-4.935-11-11v-10.543c3.108 2.217 6.898 3.536 10.998 3.536h20.25c1.201 5.934 6.455 10.415 12.738 10.415s11.536-4.481 12.738-10.415h21.666c4.1 0 7.89-1.318 10.998-3.536v10.543zm-50.399-9.591v-3.514c0-2.756 2.241-4.997 4.997-4.997s4.997 2.241 4.997 4.997v3.514c0 2.756-2.241 4.998-4.997 4.998s-4.997-2.242-4.997-4.998zm50.399-16.378c-.021 6.047-4.946 10.961-10.998 10.961h-21.562c-.926-6.266-6.323-11.094-12.842-11.094s-11.916 4.828-12.842 11.094h-20.145c-6.052 0-10.977-4.914-10.998-10.961v-12.627c0-6.065 4.935-11 11-11h67.387c6.065 0 11 4.935 11 11z" fill="#5f266d"/><path d="m174.417 19.081c-12.892 0-17.102 17.199-9.199 17.199 2.209 0 4-1.791 4-4 0-2.867 2.332-5.199 5.199-5.199s5.199 2.332 5.199 5.199-2.332 5.199-5.199 5.199c-2.209 0-4 1.791-4 4v10.686c0 2.209 1.791 4 4 4s4-1.791 4-4v-7.309c5.328-1.699 9.199-6.692 9.199-12.576 0-7.279-5.921-13.199-13.199-13.199z" fill="#5f266d"/><path d="m171.252 61.658c0 4.182 6.329 4.187 6.329 0 0-4.181-6.329-4.186-6.329 0z" fill="#5f266d"/></svg>