<svg id="Icon_Set" enable-background="new 0 0 256 256" height="512" viewBox="0 0 256 256" width="512" xmlns="http://www.w3.org/2000/svg"><path d="m189.903 102.404-.01-.01c-2.42-23.37-9.24-50.39-22.27-70.07 0 0 0-.01-.01-.01-9.18-14.04-20.27-22.35-31.73-24.96-5.05-1.14-10.16-1.18-15.21-.12-11.69 2.45-23.03 10.82-32.36 25.08-.01 0-.01.01-.01.01-3.661 5.575-6.26 10.95-6.26 10.95-4.5 7.89-12.99 30.52-16.01 59.12-1.87 17.43-1.76 34.95-.01 51.31l.01.01c1.01 9.68 2.99 21.08 5.57 30.72 3.37 13.14 9.04 27.78 16.7 39.35 0 0 0 .01.01.01 9.61 14.7 21.36 23.07 33.41 25.19.01.01.02.01.03.01 4.58.81 9.21.72 13.78-.28 11.64-2.52 22.89-10.86 32.08-24.92.01 0 .01-.01.01-.01 21.38-32.3 26.38-82.5 22.28-121.38zm-16.32 44.58c-.92 10.61-2.6 20.63-4.93 29.78-.28 1.23-1.92 7.51-4.09 13.51-3.5 9.74-8.59 20.17-15.53 27.85-12.2 14.03-28.18 15.37-42.14.01v-.01c-15.61-17.27-22.55-48.05-24.55-71.15-2-21.81-.44-46.54 4.93-67.63v-.01c2.21-8.82 5.39-18.07 9.59-26.34 6.19-12.38 16.27-25.05 30.14-25.98.28-.01 3.14 0 3.39.12 20.72 2.39 33.16 31.79 38.26 52.2 5.69 22.38 6.91 50.36 4.93 67.65z" fill="#ff4a73"/><path d="m189.903 102.404-.01-.01c-2.42-23.37-9.24-50.39-22.27-70.07 0 0 0-.01-.01-.01-13.21-20.21-30.42-28.56-46.94-25.08 15.15 3.95 29.97 17.99 39.86 39.48 20.97 45.67 20.96 117.03 0 162.68-10.28 22.35-24.3 36.02-40.07 39.29.38.08.8.18 1.26.3.01.01.02.01.03.01 16.26 2.87 33.06-5.62 45.86-25.2.01 0 .01-.01.01-.01 21.38-32.3 26.38-82.5 22.28-121.38z" fill="#ea2a6a"/><path d="m101.093 220.264c-2.01-3.35-3.91-6.98-5.7-10.87-.77-1.68-1.52-3.4-2.23-5.15-3.79-9.26-6.83-19.57-9.06-30.56-1.9-9.33-3.21-19.17-3.88-29.29-.37-5.37-.55-10.83-.55-16.34 0-26.8 4.49-56.91 15.72-81.34 10.2-22.18 24.85-35.96 40.49-39.36-5.05-1.14-10.16-1.18-15.21-.12-11.69 2.45-23.03 10.82-32.36 25.08-.01 0-.01.01-.01.01-3.661 5.575-6.26 10.95-6.26 10.95-4.5 7.89-12.99 30.52-16.01 59.12-1.87 17.43-1.76 34.95-.01 51.31l.01.01c1.01 9.68 2.99 21.08 5.57 30.72 3.37 13.14 9.04 27.78 16.7 39.35 0 0 0 .01.01.01 9.61 14.7 21.36 23.07 33.41 25.19.01.01.02.01.03.01 4.58.81 9.21.72 13.78-.28-12.94-2.77-24.99-12.63-34.44-28.45z" fill="#f973a3"/><circle cx="127.964" cy="128.057" fill="#44c7b6" r="14.982"/><path d="m135.464 141.017c-2.2 1.29-4.76 2.02-7.5 2.02-8.27 0-14.98-6.71-14.98-14.98s6.71-14.98 14.98-14.98c2.74 0 5.3.73 7.5 2.02-4.47 2.58-7.48 7.42-7.48 12.96s3.01 10.38 7.48 12.96z" fill="#4bdbc3"/><path d="m223.733 167.684v-.01c-4.58-22.47-17.64-45.32-33.84-65.32-6.68-8.23-13.88-15.98-21.24-23.02v-.01c-4.97-4.75-10.01-9.19-15-13.23h-.01c-13.37-10.87-29.8-21.44-46.74-28.16-4.05 4.44-7.39 9.77-10.03 15.04 32.859 10.752 64.138 40.331 76.64 56.04.05.05.08.09.12.14 6.83 8.11 12.7 16.35 17.51 24.43.03.04.05.07.07.11.67 1.07 3.95 6.67 6.66 12.45 4.41 9.36 8.18 20.33 8.71 30.67 1.29 18.54-9.05 30.79-29.77 29.81-.01 0-.01 0-.02 0l-.01-.01c-5.76-.29-11.73-1.55-17.72-3.5-18.2-5.91-36.6-18.23-49.95-29.45-9.34-7.77-18.54-16.95-26.78-26.78-6.62-7.89-12.61-16.19-17.56-24.53v-.01c-.01-.02-.02-.03-.03-.05-4.67-7.79-8.95-16.56-11.82-25.35-4.37-13.13-6.2-29.22 2.95-39.69.19-.2 2.22-2.22 2.48-2.31 5.66-4.49 12.91-5.99 20.73-5.57 1.09-2.53 2.1-4.59 2.96-6.1 0 0 2.599-5.375 6.26-10.95 0 0 0-.01.01-.01 0-.01.01-.01.01-.02-16.42-3.44-30.13-1.48-40.08 4.78-4.37 2.77-8.02 6.35-10.84 10.67-6.53 10-8.63 23.94-5.15 40.62v.01c1.4 6.73 3.32 12.12 3.32 12.14v.03c2.4 8.75 12.39 30.74 30.44 53.08.01.02.03.03.04.05 6.63 8.21 13.78 15.95 21.23 23.05 4.91 4.7 9.95 9.13 15.05 13.24h.01c7.56 6.13 17.02 12.79 25.66 17.78 6.4 3.79 13.61 7.41 21.06 10.35 6.13 2.44 12.43 4.41 18.57 5.67h.01.01c17.19 3.59 31.42 1.2 41.44-5.82.01 0 .02 0 .03-.01 3.81-2.67 7.02-6 9.54-9.94 6.45-10.02 8.51-23.87 5.07-40.31z" fill="#f9d335"/><path d="m37.403 47.744c11.07-6.49 26.78-8.03 44.3-3.86.12-.21.23-.42.34-.61 0 0 2.599-5.375 6.26-10.95 0 0 0-.01.01-.01 0-.01.01-.01.01-.02-23.63-4.95-41.7 1.31-50.92 15.45zm186.33 119.94v-.01c-4.58-22.47-17.64-45.32-33.84-65.32-6.68-8.23-13.88-15.98-21.24-23.02v-.01c-4.97-4.75-10.01-9.19-15-13.23h-.01c-13.37-10.87-29.8-21.44-46.74-28.16-3.17 3.48-5.9 7.49-8.2 11.6 26.29 11.02 53.2 31.82 74.5 56.16 6.6 7.55 12.67 15.44 18 23.49 7.3 10.98 13.23 22.25 17.34 33.33 8.53 23.07 8.28 42.65-.55 56.11.32-.21.69-.44 1.1-.68.01 0 .02 0 .03-.01 13.52-9.47 19.4-27.35 14.61-50.25z" fill="#f2c300"/><g fill="#3193f3"><path d="m111.623 197.054c-.6.3-1.21.59-1.82.88-9.36 4.41-20.33 8.18-30.67 8.71-18.55 1.29-30.8-9.06-29.81-29.79l.01-.01c.53-10.52 4.27-21.74 9.6-32.52-2.194-2.996-6.577-9.399-10.66-16.38-.02.04-.05.08-.07.12-6.91 11.68-13.25 26.04-16.02 39.64v.01c-3.6 17.19-1.21 31.42 5.82 41.44 0 .01 0 .02.01.03 2.67 3.81 6 7.02 9.94 9.54 10.01 6.45 23.87 8.51 40.31 5.06h.01c13.35-2.71 26.83-8.43 39.77-16.02-.01 0-.03-.01-.04-.02-5.36-3.1-11.04-6.83-16.38-10.69z"/><path d="m64.773 122.344v.01c1.12 1.89 2.29 3.77 3.52 5.65 4.5-6.89 9.34-13.29 13.99-18.83 12.6-15.15 28.91-29.93 45.69-40.84-5.335-3.472-10.766-6.608-16.37-9.33-3.08 2.21-6.2 4.58-9.33 7.11-13.65 11.01-25.96 23.47-36.29 36.28v.01c-2.31 2.85-4.7 5.97-7.04 9.22 2.793 5.732 5.83 10.72 5.83 10.72z"/><path d="m223.653 88.394v.01c-2.71 13.32-8.59 26.91-15.93 39.52-10.13 15.55-11.17 17.55-17.87 25.78v.01c-12.23 15.12-28.04 30.62-45.51 43.34-4.865-2.384-9.804-5.225-14.26-8.04.004-.002.007-.005.011-.008-.697-.44-1.399-.872-2.091-1.322 24.62-16.03 45.6-38.25 59.64-59.72l9.34-16.38c8.51-17.53 14.63-39.79 4.02-53.17-.09-.27-2.11-2.29-2.31-2.49-10.47-9.15-26.56-7.31-39.69-2.94-4.95 1.62-9.88 3.67-14.64 6-5.17-3.75-10.66-7.36-16.34-10.67 12.05-7.04 22.11-11.24 27.38-12.68 0 0 5.61-1.96 12.17-3.32-1 0 23.28-6.18 40.63 5.15 16.66 10.87 19.53 31.45 15.45 50.93z"/></g><path d="m114.243 198.914c-6.93 3.86-13.91 7.13-20.81 9.69-23.07 8.53-42.65 8.28-56.11-.56.21.33.43.7.68 1.11 0 .01 0 .02.01.03 9.47 13.52 27.35 19.4 50.25 14.6h.01c13.35-2.71 26.83-8.43 39.77-16.02-.01 0-.03-.01-.04-.02-4.49-2.59-9.2-5.64-13.76-8.83z" fill="#307fed"/><path d="m223.653 88.394v.01c-2.71 13.32-8.59 26.91-15.93 39.52-10.13 15.55-11.17 17.55-17.87 25.78v.01c-12.23 15.12-28.04 30.62-45.51 43.34-4.865-2.384-9.804-5.225-14.26-8.04 32.85-22.72 64.9-59.1 78.38-95.45 8.21-22.19 7.66-42.59-.26-56.1 16.66 10.87 19.53 31.45 15.45 50.93z" fill="#307fed"/><path d="m47.373 162.544c.64-1.74 1.33-3.48 2.07-5.22 2.16-5.16 4.71-10.38 7.63-15.62-.743-1.04-5.164-7.465-8.8-13.76-.02.04-.05.08-.07.12-6.91 11.68-13.25 26.04-16.02 39.64v.01c-3.6 17.19-1.21 31.42 5.82 41.44 0 .01 0 .02.01.03 2.67 3.81 6 7.02 9.94 9.54-7.19-11.11-8.74-26.6-4.23-44.47.94-3.79 2.17-7.7 3.65-11.71zm160.83-125.08c-10-6.53-23.94-8.63-40.62-5.15-.01 0-.01 0-.01 0-6.73 1.4-12.12 3.32-12.15 3.32-.01 0-.01 0-.02 0-5.27 1.44-15.33 5.64-27.38 12.68 4.74 2.76 9.33 5.72 13.72 8.8 6.76-3.77 13.68-7.02 20.66-9.61 22.9-8.47 43-7.85 56.47.8-2.77-4.37-6.35-8.02-10.67-10.84zm-96.6 21.54c-3.08 2.21-6.2 4.58-9.33 7.11-13.65 11.01-25.96 23.47-36.29 36.28v.01c-2.31 2.85-4.7 5.97-7.04 9.22 3.186 6.54 5.33 9.72 5.83 10.72v.01c.71 1.19 1.43 2.38 2.18 3.56 4.67-6.79 9.92-13.52 15.66-20.06 3.53-4.06 7.27-8.05 11.16-11.95 9.52-9.52 20.42-18.82 32.12-26.91-4.671-2.92-9.139-5.488-14.29-7.99z" fill="#35b1fc"/><path d="m174.196 212.227c-3.79-.947-7.7-2.171-11.717-3.656-1.732-.643-3.479-1.329-5.218-2.065-9.228-3.868-18.668-9.009-28.016-15.203-7.941-5.254-15.825-11.285-23.455-17.968-4.059-3.536-8.047-7.269-11.943-11.165-18.95-18.95-37.067-43.416-46.4-68.632-8.471-22.896-7.856-42.999.799-56.462-4.377 2.765-8.019 6.35-10.84 10.67-6.534 9.999-8.634 23.936-5.148 40.616-.007.007 0 .014 0 .014 1.393 6.725 3.316 12.113 3.316 12.141 0 .014.007.021 0 .028 2.397 8.761 12.396 30.766 30.483 53.125 11.003 13.647 23.469 25.958 36.275 36.289h.014c7.559 6.131 17.02 12.792 25.661 17.784 11.674 6.908 26.036 13.251 39.633 16.016 0 0 .007.007.014 0 17.19 3.599 31.417 1.209 41.436-5.812.014 0 .021-.007.028-.014 3.811-2.666 7.022-6.003 9.546-9.942-11.107 7.192-26.6 8.74-44.468 4.236z" fill="#f9e27d"/><path d="m212.333 127.918c38.355-67.814 6.467-109.598-42.98-100.155-23.702-33.886-59.281-33.66-82.858.11-52.215-9.325-80.029 34.826-42.841 100.067-14.29 24.939-25.419 59.867-8.915 83.539h-.001c8.733 12.462 22.983 17.969 38.364 17.969 4.264 0 8.737-.437 13.364-1.264 8.467 12.152 20.002 22.152 34.592 24.748 19.712 3.485 36.818-8.117 48.419-24.767 14.768 2.628 29.715 1.508 41.943-6.958v.001c28.952-20.286 18.435-62.499.913-93.29zm-6.315-87.103c35.747 23.323 6.072 100.717-62.05 151.547-4.663-2.4-7.372-4.06-8.623-4.812 25.593-17.933 51.368-45.78 65.236-74.218 25.239-51.988-.159-78.221-42.596-64.22-1 .269-6.789 2.245-13.2 5.238-2.312-1.639-5.364-3.687-8.486-5.673-.116-.073-.23-.152-.346-.225 20.617-11.08 50.391-20.486 70.065-7.637zm-12.3 114.473c.91-1.127 1.722-2.15 2.468-3.112 9.602 22.714 11.118 47.855-13.365 50.314 5.322-13.873 8.979-29.717 10.897-47.202zm-19.464 47.109c-3.045-.32-6.24-.913-9.567-1.792 2.864-6.337 5.458-13.529 7.609-21.907 4.08-3.933 8.032-8.001 11.806-12.156-2.188 13.169-5.482 25.18-9.848 35.855zm-13.571-13.166c-1.149 3.157-2.377 6.149-3.668 8.936-1.606-.591-3.244-1.253-4.901-1.96 2.88-2.235 5.74-4.565 8.569-6.976zm-83.076-54.814c-1.57-2.13-3.075-4.261-4.503-6.388 1.456-2.163 2.957-4.311 4.517-6.433-.128 4.294-.133 8.582-.014 12.821zm-9.18-13.749c-1.99-3.335-3.561-6.207-4.817-8.655 13.273-17.98 30.785-35.389 48.339-48.312 2.823 1.445 5.704 3.046 8.628 4.802-19.674 13.767-38.071 32.039-52.15 52.165zm123.783-8.788-4.859 8.522c-.286-.407-10.213-13.884-10.71-13.884-16.156-19.983-45.225-44.862-74.042-55.765 1.648-2.836 3.51-5.567 5.433-7.965.014-.017.028-.035.042-.052 32.343 13.661 63.231 41.141 84.136 69.144zm-78.149-75.26c8.862-7.211 18.504-7.723 27.832-.063-4.083 1.867-8.762 4.235-13.876 7.145-4.666-2.642-9.335-5.014-13.956-7.082zm38.117 23.211c1.608-.679 3.208-1.322 4.794-1.904 1.271 2.75 2.479 5.678 3.597 8.719-2.688-2.287-5.083-4.255-8.391-6.815zm31.899 29.622c-3.795-4.184-7.744-8.262-11.824-12.2-1.496-5.782-3.927-13.668-7.606-21.79 3.501-.946 6.669-1.524 9.531-1.82 4.3 10.596 7.695 22.924 9.899 35.81zm-1.328-35.857c24.425 2.595 22.921 27.307 13.367 50.184-.783-1.011-1.578-2.02-2.383-3.027-1.35-12.392-4.352-29.806-10.984-47.157zm-4.425 67.973c1.571 2.128 3.062 4.261 4.496 6.395-1.422 2.106-2.88 4.204-4.407 6.279.096-4.058.067-8.32-.089-12.674zm-74.558-61.711c-2.632 2.023-4.735 3.684-8.455 6.832 1.118-3.062 2.328-5.996 3.611-8.766 1.592.586 3.212 1.241 4.844 1.934zm-17.533 50.844c12.006-14.23 26.685-27.441 41.686-37.527 18.391 12.376 33.673 27.527 41.725 37.423 1.06 12.393 1.1 24.84.113 34.574-12.257 14.468-26.733 27.59-41.767 37.704-15.637-10.52-29.722-23.407-41.771-37.606-.938-11.113-.933-23.002.014-34.568zm48.761-99.448c9.419 2.147 18.306 8.519 25.94 18.535-3.308.887-8.678 2.581-10.881 3.384-24.061-23.957-53.833-4.438-66.344 44-4.083 3.927-8.033 7.988-11.829 12.182 6.963-40.6 29.015-85.798 63.114-78.101zm-72.802 89.498c-.805 1.004-1.605 2.025-2.401 3.059-9.568-22.62-10.788-48.028 13.445-50.338-6.797 17.792-9.763 35.764-11.044 47.279zm-13.785 35.106c2.157 3.419 4.235 6.51 5.891 8.864-20.044 42.426-4.544 67.984 25.04 65.917 10.724-.55 22.239-4.438 31.887-8.953 2.127 1.502 6.533 4.462 8.875 5.944-67.7 36.114-108.665-2.576-71.693-71.772zm24.812 66.77c-24.176-2.033-23.323-27.508-13.474-50.516.802 1.044 1.614 2.077 2.433 3.103 1.74 15.811 5.354 32.594 11.041 47.413zm-1.354-36.044c3.812 4.215 7.759 8.302 11.83 12.22 2.07 8.023 4.589 15.327 7.512 21.798-3.3.874-6.47 1.482-9.47 1.812-4.708-11.554-7.762-23.485-9.872-35.83zm23.385 22.7c2.844 2.414 5.294 4.417 8.575 6.94-1.667.706-3.315 1.354-4.941 1.948-1.292-2.787-2.506-5.751-3.634-8.888zm32.789 23.098c4.55 2.599 9.278 4.999 13.973 7.087-8.954 7.568-18.673 7.562-27.923.012 4.601-2.057 9.256-4.427 13.95-7.099zm-33.053 13.929c3.586-.949 7.22-2.107 10.894-3.472 14.161 13.968 30.99 13.551 44.269-.039 3.667 1.373 7.28 2.532 10.813 3.481-19.447 25.481-46.276 25.851-65.976.03zm73.485-6.462c-49.454-10.303-110.814-66.928-129.148-120.734-13.956-40.844 3.69-69.132 42.503-63.887-1.571 2.721-3.676 6.656-5.289 10.079-64.039.095-21.695 109.886 63.481 154.032 55.133 28.565 87.49.576 61.573-54.688 1.578-2.354 3.387-5.149 5.879-8.993 29.867 55.833 8.964 94.206-38.999 84.191z" fill="#5f266d"/><path d="m127.964 147.039c10.467 0 18.982-8.515 18.982-18.982s-8.515-18.982-18.982-18.982-18.982 8.515-18.982 18.982 8.516 18.982 18.982 18.982zm0-29.964c6.056 0 10.982 4.926 10.982 10.982s-4.926 10.982-10.982 10.982-10.982-4.926-10.982-10.982c.001-6.056 4.927-10.982 10.982-10.982z" fill="#5f266d"/></svg>