<svg id="Icon_Set" enable-background="new 0 0 256 256" height="512" viewBox="0 0 256 256" width="512" xmlns="http://www.w3.org/2000/svg"><path d="m201.069 46.062c-6.39 0-12.474 1.172-18.041 3.307-.002.001-.003.001-.005.002-6.205-24.725-28.57-43.036-55.22-43.036-26.569 0-48.885 18.199-55.168 42.81-5.414-1.995-11.315-3.083-17.481-3.083-26.426 0-47.843 19.966-47.843 44.592 0 8.19 2.372 15.864 6.488 22.45 8.302 13.255 23.705 22.156 41.355 22.156h145.914c17.873 0 33.43-9.209 41.578-22.854 3.851-6.432 6.042-13.855 6.042-21.752.001-24.626-21.319-44.592-47.619-44.592z" fill="#5fcdff"/><path d="m248.69 90.655c0 7.9-2.19 15.32-6.04 21.75-7.84 13.14-22.55 22.16-39.57 22.81 8.23-4.02 15.04-10.23 19.57-17.81 3.85-6.43 6.04-13.85 6.04-21.75 0-24.63-21.32-44.59-47.62-44.59-6.39 0-12.47 1.17-18.04 3.3l-.01.01c-6.2-24.73-28.57-43.04-55.22-43.04-1.21 0-2.41.04-3.61.11 7.19-3.28 15.19-5.11 23.61-5.11 26.65 0 49.02 18.31 55.22 43.04l.01-.01c5.57-2.13 11.65-3.3 18.04-3.3 26.3 0 47.62 19.96 47.62 44.59z" fill="#30b6ff"/><path d="m151.41 11.445c-1.2-.07-2.4-.11-3.61-.11-26.57 0-48.88 18.2-55.16 42.81-5.42-1.99-11.32-3.08-17.49-3.08-26.42 0-47.84 19.96-47.84 44.59 0 8.19 2.37 15.86 6.49 22.45 4.54 7.25 11.22 13.21 19.22 17.11-16.75-.68-31.26-9.4-39.22-22.11-4.12-6.59-6.49-14.26-6.49-22.45 0-24.63 21.42-44.59 47.84-44.59 6.17 0 12.07 1.09 17.49 3.08 6.28-24.61 28.59-42.81 55.16-42.81 8.42 0 16.42 1.83 23.61 5.11z" fill="#73d7f9"/><path d="m64.739 249.578h-31.35c-2.761 0-5-2.239-5-5v-128.53c4.89-6.23 12.79-9.35 20.67-9.35 7.9 0 15.78 3.12 20.68 9.35v128.53c0 2.762-2.239 5-5 5z" fill="#44c7b6"/><path d="m212.703 208.316v36.35c0 2.761-2.239 5-5 5h-128.53c-6.23-4.89-9.35-12.79-9.35-20.67 0-7.9 3.12-15.78 9.35-20.68z" fill="#3193f3"/><path d="m233.703 171.966v31.35c0 2.761-2.239 5-5 5h-128.53c-6.23-4.89-9.35-12.79-9.35-20.67 0-7.9 3.12-15.78 9.35-20.68h128.53c2.761 0 5 2.238 5 5z" fill="#ff4a73"/><path d="m213.703 130.616v36.35h-133.53c-6.23-4.89-9.35-12.79-9.35-20.67 0-7.9 3.12-15.78 9.35-20.68h128.53c2.761 0 5 2.238 5 5z" fill="#f9d335"/><path d="m69.74 116.045v128.53c0 2.76-2.24 5-5 5h-15c2.76 0 5-2.24 5-5v-128.53c-3.33-4.23-8.02-7.02-13.17-8.38 2.43-.65 4.96-.97 7.49-.97 7.9 0 15.78 3.12 20.68 9.35z" fill="#3bb2a0"/><path d="m48.39 249.575h-15c-2.76 0-5-2.24-5-5v-128.53c4.89-6.23 12.79-9.35 20.67-9.35 2.54 0 5.08.32 7.51.97-5.15 1.35-9.86 4.15-13.18 8.38v128.53c0 2.76 2.24 5 5 5z" fill="#4bdbc3"/><path d="m213.7 130.615v36.35h-15v-36.35c0-2.76-2.24-5-5-5h15c2.76 0 5 2.24 5 5z" fill="#f2c300"/><path d="m95.17 166.965h-15c-6.23-4.89-9.35-12.79-9.35-20.67 0-7.9 3.12-15.78 9.35-20.68h15c-6.23 4.9-9.35 12.78-9.35 20.68 0 7.88 3.12 15.78 9.35 20.67z" fill="#f9e27d"/><path d="m233.7 171.965v31.35c0 2.76-2.24 5-5 5h-15c2.76 0 5-2.24 5-5v-31.35c0-2.76-2.24-5-5-5h15c2.76 0 5 2.24 5 5z" fill="#ea2a6a"/><path d="m115.17 208.315h-15c-6.23-4.89-9.35-12.79-9.35-20.67 0-7.9 3.12-15.78 9.35-20.68h15c-6.23 4.9-9.35 12.78-9.35 20.68 0 7.88 3.12 15.78 9.35 20.67z" fill="#f973a3"/><path d="m212.7 208.315v36.35c0 2.76-2.24 5-5 5h-15c2.76 0 5-2.24 5-5v-36.35z" fill="#307fed"/><path d="m94.17 249.665h-15c-6.23-4.89-9.35-12.79-9.35-20.67 0-7.9 3.12-15.78 9.35-20.68h15c-6.23 4.9-9.35 12.78-9.35 20.68 0 7.88 3.12 15.78 9.35 20.67z" fill="#35b1fc"/><g fill="#5f266d"><path d="m185.71 44.245c-8.14-24.88-31.37-41.91-57.91-41.91-26.45 0-49.66 16.96-57.85 41.74-33.016-9.275-66.64 14.056-66.64 46.58 0 15.326 7.669 29.851 21.08 39.08v114.84c0 4.97 4.04 9 9 9h31.35c3.42 0 6.4-1.91 7.92-4.73 1.619 1.967 4.262 4.82 6.51 4.82h128.53c4.97 0 9-4.04 9-9 0-3.649 0-28.263 0-32.35h12c4.97 0 9-4.04 9-9 0-7.256 0-14.659 0-31.35 0-4.96-4.03-9-9-9h-11c0-2.778 0-23.594 0-26.3 20.852-6.699 34.99-25.101 34.99-46.01 0-32.803-33.939-56.108-66.98-46.41zm23.99 98.05h-79.47c-2.21 0-4 1.79-4 4 0 2.2 1.79 4 4 4h79.47v12.67c-4.765 0-122.27 0-128.06 0-9.118-8.331-9.064-25.095 0-33.35h127.06c.5 0 .91.37.99.85.01.05.01.1.01.15zm20 29.67v11.68h-71.69c-5.305 0-5.274 8 0 8h71.69v11.67c0 .55-.45 1-1 1-5.408 0-121.988 0-127.06 0-9.097-8.312-9.088-25.025 0-33.35h127.06c.55 0 1 .45 1 1zm-21 53.03h-67.44c-2.21 0-4 1.79-4 4 0 2.2 1.79 4 4 4h67.44v11.67c0 .55-.45 1-1 1h-127.06c-9.097-8.312-9.088-25.025 0-33.35h128.06zm-163.64-46.86v67.44h-11.67c-.55 0-1-.45-1-1 0-7.216 0-119.953 0-127.06 8.313-9.097 25.025-9.088 33.35 0v127.06c0 .55-.45 1-1 1h-11.68v-67.44c0-5.288-8-5.285-8 0zm28.68-11.89c1.649 1.981 4.199 4.72 6.43 4.72h11.24c-6.113 9.947-6.126 23.403 0 33.35h-12.24c-1.475 0-2.773.709-5.43 3.6zm143.66-37.94c-1.02-3.84-4.53-6.69-8.7-6.69h-128.53c-2.229 0-4.729 2.686-6.43 4.73v-10.3c0-9.529-32.251-23.153-48.5-2.47-1.064 1.374-.85 2.372-.85 5.99-8.646-7.837-13.08-18.363-13.08-28.91 0-28.727 31.463-48.258 59.94-37.76 2.236.836 4.679-.478 5.26-2.76 5.98-23.43 27.08-39.8 51.29-39.8 24.32 0 45.43 16.45 51.34 40.01.54 2.14 2.71 3.44 4.85 2.91.17-.04.33-.1.49-.16 28.697-10.966 60.21 8.792 60.21 37.56 0 17.047-11.297 31.628-27.29 37.65z"/><path d="m162.26 33.935c-9.496-12.583-24.452-17.182-36.21-15.71-5.198.811-4.041 8.664 1.19 7.92 1-1 18.246-1.153 28.64 12.61 3.15 4.187 9.609-.522 6.38-4.82z"/><path d="m169.74 48.275c-1.744-4.993-9.295-2.365-7.55 2.63.22.64.43 1.29.64 1.96 1.567 5.085 9.223 2.7 7.64-2.36-.23-.77-.48-1.51-.73-2.23z"/></g></svg>