<svg id="Icon_Set" enable-background="new 0 0 256 256" height="512" viewBox="0 0 256 256" width="512" xmlns="http://www.w3.org/2000/svg"><path d="m189.519 36.909c-33.972 0-61.519 12.697-61.519 28.384 0-15.687-27.547-28.384-61.519-28.384s-61.519 12.697-61.519 28.384v152.704 1.094h.051 122.936.103 122.936.051v-1.094-152.704c-.001-15.687-27.547-28.384-61.52-28.384z" fill="#ffe2e2"/><path d="m251.04 65.29v153.8h-15v-153.8c0-14.51-23.58-26.46-54.02-28.17 2.46-.14 4.96-.21 7.5-.21 33.97 0 61.52 12.7 61.52 28.38z" fill="#ffcfcf"/><path d="m73.98 37.12c-30.44 1.71-54.02 13.66-54.02 28.17v153.8h-15v-153.8c0-15.68 27.55-28.38 61.52-28.38 2.54 0 5.04.07 7.5.21z" fill="#ffefee"/><path d="m251.038 217.998c0 .359-.017.735-.051 1.094h-122.936c-.034-.359-.051-.735-.051-1.094 0-15.67 27.547-28.384 61.519-28.384s61.519 12.713 61.519 28.384z" fill="#ffe2e2"/><path d="m128 217.998c0 .359-.017.735-.051 1.094h-122.936c-.034-.359-.051-.735-.051-1.094 0-15.67 27.547-28.384 61.519-28.384s61.519 12.713 61.519 28.384z" fill="#ffe2e2"/><path d="m251.04 218c0 .36-.02.73-.05 1.09h-15c.03-.36.05-.73.05-1.09 0-14.5-23.58-26.47-54.02-28.18 2.46-.14 4.96-.21 7.5-.21 33.97 0 61.52 12.72 61.52 28.39z" fill="#ffcfcf"/><path d="m143 218c0 .36.02.73.05 1.09h-15c-.03-.36-.05-.73-.05-1.09 0-15.67 27.55-28.39 61.52-28.39 2.54 0 5.04.07 7.5.21-30.44 1.71-54.02 13.68-54.02 28.18z" fill="#ffefee"/><path d="m128 218c0 .36-.02.73-.05 1.09h-15c.03-.36.05-.73.05-1.09 0-14.5-23.58-26.47-54.02-28.18 2.46-.14 4.96-.21 7.5-.21 33.97 0 61.52 12.72 61.52 28.39z" fill="#ffcfcf"/><path d="m19.96 218c0 .36.02.73.05 1.09h-15c-.03-.36-.05-.73-.05-1.09 0-15.67 27.55-28.39 61.52-28.39 2.54 0 5.04.07 7.5.21-30.44 1.71-54.02 13.68-54.02 28.18z" fill="#ffefee"/><g fill="#5f266d"><path d="m189.52 32.91c-28.61 0-52.4 8.63-61.52 21.02-9.12-12.39-32.91-21.02-61.52-21.02-36.74 0-65.52 14.22-65.52 32.38v153.8c0 2.266 1.923 4 4.05 4h245.98c2.117 0 4.05-1.683 4.05-4v-153.8c0-18.16-28.78-32.38-65.52-32.38zm-123.04 8c33.9 0 57.52 12.85 57.52 24.38v136.97c-11.02-10-32.41-16.65-57.52-16.65s-46.5 6.65-57.52 16.65v-136.97c0-11.53 23.62-24.38 57.52-24.38zm123.04 0c33.9 0 57.52 12.85 57.52 24.38v136.97c-11.02-10-32.41-16.65-57.52-16.65s-46.5 6.65-57.52 16.65v-136.97c0-11.53 23.62-24.38 57.52-24.38zm57.03 174.18h-114.06c3.52-10.68 25.96-21.48 57.03-21.48s53.51 10.8 57.03 21.48zm-237.1 0c3.52-10.68 25.96-21.48 57.03-21.48s53.51 10.8 57.03 21.48z"/><path d="m101.28 130.57h-70.22c-5.285 0-5.293 8 0 8h70.22c5.285 0 5.293-8 0-8z"/><path d="m101.28 157.29h-70.22c-5.285 0-5.293 8 0 8h70.22c5.285 0 5.293-8 0-8z"/><path d="m169.94 73.38h39.15c5.285 0 5.293-8 0-8h-39.15c-5.288 0-5.285 8 0 8z"/><path d="m154.41 100.1h70.22c5.285 0 5.293-8 0-8h-70.22c-5.285 0-5.293 8 0 8z"/><path d="m163.91 163.43c3.71 3.71 9.445-1.866 5.66-5.65l-16.8-16.8 16.8-16.81c3.729-3.729-1.908-9.402-5.66-5.65l-19.63 19.63c-1.56 1.56-1.56 4.09 0 5.65z"/><path d="m206.65 124.17 16.81 16.81-16.81 16.8c-3.817 3.792 1.989 9.311 5.65 5.65l19.63-19.63c1.57-1.56 1.57-4.09 0-5.65l-19.63-19.63c-3.726-3.75-9.402 1.922-5.65 5.65z"/><path d="m189.29 118.39-9.09 44c-1.081 5.213 6.738 6.828 7.84 1.62l9.09-44.01c1.053-5.169-6.765-6.796-7.84-1.61z"/><path d="m42.29 106.92c3.707 3.708 9.427-1.858 5.65-5.66l-16.8-16.8 16.8-16.8c3.728-3.727-1.903-9.407-5.65-5.66l-19.63 19.63c-1.57 1.57-1.57 4.1 0 5.66z"/><path d="m90.68 106.92 19.63-19.63c1.56-1.56 1.56-4.09 0-5.66l-19.63-19.63c-3.767-3.744-9.385 1.935-5.66 5.66l16.8 16.8-16.8 16.8c-3.783 3.807 1.951 9.322 5.66 5.66z"/><path d="m66.41 107.5 9.09-44.01c1.075-5.159-6.763-6.806-7.84-1.61l-9.09 44c-1.059 5.201 6.763 6.838 7.84 1.62z"/></g></svg>