<svg id="Icon_Set" enable-background="new 0 0 256 256" height="512" viewBox="0 0 256 256" width="512" xmlns="http://www.w3.org/2000/svg"><circle cx="128" cy="128" fill="#5fcdff" r="122"/><path d="m83.973 139.662v16.199c0 2.285-1.852 4.137-4.137 4.137h-49.185c-2.285 0-4.137-1.852-4.137-4.137v-16.199c0-15.885 12.909-28.725 28.724-28.725 15.786-.001 28.735 12.804 28.735 28.725z" fill="#ff4a73"/><path d="m156.729 139.662v16.199c0 2.285-1.852 4.137-4.137 4.137h-49.185c-2.285 0-4.137-1.852-4.137-4.137v-16.199c0-15.885 12.909-28.725 28.724-28.725 15.786-.001 28.735 12.804 28.735 28.725z" fill="#ff4a73"/><path d="m229.485 139.662v16.199c0 2.285-1.852 4.137-4.137 4.137h-49.186c-2.285 0-4.137-1.852-4.137-4.137v-16.199c0-15.885 12.909-28.725 28.724-28.725 15.787-.001 28.736 12.804 28.736 28.725z" fill="#ff4a73"/><path d="m250 128c0 67.38-54.62 122-122 122-2.52 0-5.02-.08-7.5-.23 63.88-3.87 114.5-56.91 114.5-121.77s-50.62-117.9-114.5-121.77c2.48-.15 4.98-.23 7.5-.23 67.38 0 122 54.62 122 122z" fill="#30b6ff"/><path d="m135.5 249.77c-2.48.15-4.98.23-7.5.23-67.38 0-122-54.62-122-122s54.62-122 122-122c2.52 0 5.02.08 7.5.23-63.88 3.87-114.5 56.91-114.5 121.77s50.62 117.9 114.5 121.77z" fill="#73d7f9"/><path d="m229.49 139.66v16.2c0 2.28-1.86 4.14-4.14 4.14h-15c2.28 0 4.14-1.86 4.14-4.14v-16.2c0-13.31-9.05-24.43-21.24-27.72 2.39-.66 4.91-1 7.5-1 15.79 0 28.74 12.8 28.74 28.72z" fill="#ea2a6a"/><path d="m187.03 139.66v16.2c0 2.28 1.85 4.14 4.13 4.14h-15c-2.28 0-4.13-1.86-4.13-4.14v-16.2c0-15.88 12.91-28.72 28.72-28.72 2.59 0 5.11.34 7.5 1-12.2 3.29-21.22 14.44-21.22 27.72z" fill="#f973a3"/><path d="m156.73 139.66v16.2c0 2.28-1.85 4.14-4.14 4.14h-15c2.29 0 4.14-1.86 4.14-4.14v-16.2c0-13.31-9.05-24.44-21.24-27.72 2.39-.65 4.91-1 7.51-1 15.78 0 28.73 12.8 28.73 28.72z" fill="#ea2a6a"/><path d="m114.27 139.66v16.2c0 2.28 1.85 4.14 4.14 4.14h-15c-2.29 0-4.14-1.86-4.14-4.14v-16.2c0-15.88 12.91-28.72 28.73-28.72 2.59 0 5.1.34 7.49 1-12.2 3.3-21.22 14.45-21.22 27.72z" fill="#f973a3"/><path d="m83.97 139.66v16.2c0 2.28-1.85 4.14-4.13 4.14h-15c2.28 0 4.13-1.86 4.13-4.14v-16.2c0-13.31-9.05-24.44-21.24-27.72 2.39-.65 4.91-1 7.51-1 15.78 0 28.73 12.8 28.73 28.72z" fill="#ea2a6a"/><path d="m41.51 139.66v16.2c0 2.28 1.86 4.14 4.14 4.14h-15c-2.28 0-4.14-1.86-4.14-4.14v-16.2c0-15.88 12.91-28.72 28.73-28.72 2.59 0 5.1.34 7.49 1-12.2 3.3-21.22 14.45-21.22 27.72z" fill="#f973a3"/><circle cx="55.244" cy="92.066" fill="#ffbb98" r="26.037"/><circle cx="128" cy="92.066" fill="#ffbb98" r="26.037"/><circle cx="200.084" cy="90.423" fill="#ffbb98" r="26.037"/><path d="m226.12 90.42c0 14.38-11.66 26.04-26.04 26.04-2.61 0-5.13-.38-7.5-1.1 10.73-3.22 18.54-13.17 18.54-24.94s-7.81-21.71-18.54-24.93c2.37-.72 4.89-1.1 7.5-1.1 14.38 0 26.04 11.65 26.04 26.03z" fill="#ffaa80"/><path d="m207.58 115.36c-2.37.72-4.89 1.1-7.5 1.1-14.38 0-26.03-11.66-26.03-26.04s11.65-26.03 26.03-26.03c2.61 0 5.13.38 7.5 1.1-10.72 3.22-18.53 13.16-18.53 24.93s7.81 21.72 18.53 24.94z" fill="#ffcaa6"/><path d="m154.04 92.07c0 14.38-11.66 26.03-26.04 26.03-2.61 0-5.13-.38-7.5-1.1 10.73-3.22 18.54-13.16 18.54-24.93s-7.81-21.72-18.54-24.94c2.37-.72 4.89-1.1 7.5-1.1 14.38 0 26.04 11.66 26.04 26.04z" fill="#ffaa80"/><path d="m135.5 117c-2.37.72-4.89 1.1-7.5 1.1-14.38 0-26.04-11.65-26.04-26.03s11.66-26.04 26.04-26.04c2.61 0 5.13.38 7.5 1.1-10.73 3.22-18.54 13.17-18.54 24.94s7.81 21.71 18.54 24.93z" fill="#ffcaa6"/><path d="m81.28 92.07c0 14.38-11.66 26.03-26.04 26.03-2.61 0-5.13-.38-7.5-1.1 10.73-3.22 18.54-13.16 18.54-24.93s-7.81-21.72-18.54-24.94c2.37-.72 4.89-1.1 7.5-1.1 14.38 0 26.04 11.66 26.04 26.04z" fill="#ffaa80"/><path d="m62.74 117c-2.37.72-4.89 1.1-7.5 1.1-14.38 0-26.03-11.65-26.03-26.03s11.65-26.04 26.03-26.04c2.61 0 5.13.38 7.5 1.1-10.72 3.22-18.53 13.17-18.53 24.94s7.81 21.71 18.53 24.93z" fill="#ffcaa6"/><path d="m245.625 221.088h-36.643v-31.266h36.643c2.018 0 2.766 2.648 1.047 3.704-.382.234-18.159 11.151-17.777 10.917-.755.464-.755 1.561 0 2.025l17.777 10.917c1.719 1.055.97 3.703-1.047 3.703z" fill="#f9d335"/><path d="m10.075 189.822h36.643v31.266h-36.643c-2.018 0-2.766-2.648-1.047-3.704.382-.234 18.159-11.151 17.777-10.917.755-.464.755-1.561 0-2.025l-17.776-10.916c-1.72-1.056-.972-3.704 1.046-3.704z" fill="#f9d335"/><path d="m207.654 231.41h-159.608c-5.523 0-10-4.477-10-10v-31.91c0-5.523 4.477-10 10-10h159.608c5.523 0 10 4.477 10 10v31.91c0 5.523-4.477 10-10 10z" fill="#f9d335"/><path d="m217.65 189.5v31.91c0 5.52-4.47 10-10 10h-15c5.53 0 10-4.48 10-10v-31.91c0-5.52-4.47-10-10-10h15c5.53 0 10 4.48 10 10z" fill="#f2c300"/><path d="m63.05 231.41h-15c-5.53 0-10-4.48-10-10v-31.91c0-5.52 4.47-10 10-10h15c-5.53 0-10 4.48-10 10v31.91c0 5.52 4.47 10 10 10z" fill="#f9e27d"/><g fill="#5f266d"><path d="m87.97 155.86v-16.2c0-10.07-4.61-19.43-12.33-25.57 5.93-5.49 9.64-13.33 9.64-22.02 0-16.57-13.47-30.04-30.04-30.04-16.56 0-30.03 13.47-30.03 30.04 0 8.69 3.71 16.53 9.64 22.02-7.73 6.14-12.34 15.5-12.34 25.57v16.2c0 4.49 3.65 8.14 8.14 8.14h49.19c4.48 0 8.13-3.65 8.13-8.14zm-54.76-63.79c0-12.15 9.88-22.04 22.03-22.04 12.16 0 22.04 9.89 22.04 22.04 0 12.132-9.859 22.03-22.04 22.03-12.558 0-22.03-10.235-22.03-22.03zm-2.7 63.79v-16.2c0-8.43 4.27-16.19 11.28-20.74 8.383 4.195 18.327 4.29 26.9 0 7.01 4.55 11.28 12.31 11.28 20.74v16.2c0 .07-.06.14-.13.14h-49.19c-.07 0-.14-.07-.14-.14z"/><path d="m103.41 164h49.18c4.49 0 8.14-3.65 8.14-8.14v-16.2c0-10.07-4.61-19.42-12.33-25.57 5.93-5.49 9.64-13.33 9.64-22.02 0-16.57-13.48-30.04-30.04-30.04s-30.04 13.47-30.04 30.04c0 8.69 3.71 16.53 9.64 22.02-7.72 6.15-12.33 15.5-12.33 25.57v16.2c0 4.49 3.65 8.14 8.14 8.14zm2.55-71.93c0-12.15 9.89-22.04 22.04-22.04s22.04 9.89 22.04 22.04-9.89 22.03-22.04 22.03c-12.669 0-22.04-10.319-22.04-22.03zm-2.69 47.59c0-8.43 4.27-16.19 11.28-20.74 8.32 4.164 18.265 4.321 26.9 0 7.01 4.55 11.28 12.31 11.28 20.74v16.2c0 .08-.06.14-.14.14h-49.18c-.08 0-.14-.06-.14-.14z"/><path d="m176.16 164h49.19c4.49 0 8.14-3.65 8.14-8.14v-16.2c0-10.68-5.21-20.54-13.7-26.6 6.33-5.5 10.33-13.61 10.33-22.64 0-16.56-13.47-30.03-30.04-30.03-16.56 0-30.03 13.47-30.03 30.03 0 9.33 4.27 17.67 10.95 23.18-8.04 6.12-12.97 15.77-12.97 26.06v16.2c0 4.49 3.65 8.14 8.13 8.14zm1.89-73.58c0-12.15 9.88-22.03 22.03-22.03 12.16 0 22.04 9.88 22.04 22.03 0 12.2-9.912 21.643-20.91 22.01-13.022.705-23.16-9.812-23.16-22.01zm-2.02 49.24c0-8.88 4.86-17.13 12.53-21.5 7.595 3.231 16.635 2.985 23.79-.32 8.04 4.26 13.14 12.64 13.14 21.82v16.2c0 .07-.07.14-.14.14h-49.19c-.07 0-.13-.07-.13-.14z"/><path d="m245.62 185.82h-5.65c9.2-17.8 14.03-37.65 14.03-57.82 0-69.48-56.52-126-126-126s-126 56.52-126 126c0 20.17 4.83 40.02 14.03 57.82h-5.95c-6.046 0-8.302 7.939-3.14 11.12l13.89 8.52c-.197.12-13.725 8.408-13.9 8.51-5.167 3.198-2.87 11.12 3.15 11.12h24.46c1.62 5.94 7.06 10.32 13.51 10.32h14.04c19.79 12.17 42.55 18.59 65.91 18.59s46.12-6.42 65.91-18.59h13.74c6.45 0 11.89-4.38 13.51-10.32h24.46c6.02 0 8.321-7.926 3.14-11.12l-13.88-8.51c5.14-3.15 13.55-8.31 13.89-8.52 5.16-3.194 2.881-11.12-3.15-11.12zm-235.62-57.82c0-65.07 52.93-118 118-118s118 52.93 118 118c0 20.29-5.22 40.23-15.11 57.82h-9.73c-1.562-5.857-7.05-10.095-12.79-10.3-.92-.038-160.49-.023-161.04 0-5.997.214-11.3 4.712-12.79 10.3h-9.43c-9.89-17.59-15.11-37.53-15.11-57.82zm18.86 81.91c.05-.03.09-.05.13-.08 3.198-2.075 3.185-6.75-.09-8.8l-11.75-7.21h16.9v23.27h-16.9c.002-.001 11.71-7.18 11.71-7.18zm99.14 36.09c-17 0-33.65-3.63-48.93-10.59h97.86c-15.28 6.96-31.93 10.59-48.93 10.59zm85.65-24.59c0 3.31-2.69 6-6 6-10.517 0-154.984 0-159.6 0-3.31 0-6-2.69-6-6v-.32-31.27-.32c0-3.31 2.69-6 6-6h159.6c3.31 0 6 2.69 6 6v.32zm13.11-20.36c-3.2 2.021-3.294 6.736.04 8.83l11.75 7.21h-16.9v-23.27h16.9c-5.03 3.09-11.43 7.01-11.79 7.23z"/><path d="m109.67 205.93h-3.43c-5.288 0-5.285 8 0 8h3.43c5.285 0 5.293-8 0-8z"/><path d="m91.24 205.93h-36c-5.288 0-5.285 8 0 8h36c5.285 0 5.293-8 0-8z"/></g></svg>