<svg id="Icon_Set" enable-background="new 0 0 256 256" height="512" viewBox="0 0 256 256" width="512" xmlns="http://www.w3.org/2000/svg"><path d="m185.121 5.74h-150.82c4.66.04 8.87 1.95 11.93 5.01 3.1 3.1 5.01 7.38 5.01 12.1v200.86c0 2.76 2.24 5 5 5h128.88c2.76 0 5-2.24 5-5v-212.97c0-2.761-2.24-5-5-5z" fill="#ffe2e2"/><path d="m51.246 71.009h-29.219c-2.761 0-5-2.239-5-5v-43.159c0-9.449 7.66-17.109 17.109-17.109 9.449 0 17.109 7.66 17.109 17.109v48.159z" fill="#ffcfcf"/><path d="m71.241 228.709h-15c-2.76 0-5-2.24-5-5v-200.859c0-4.72-1.91-9-5.01-12.1-3.06-3.06-7.27-4.97-11.93-5.01h15c4.66.04 8.87 1.95 11.93 5.01 3.1 3.1 5.01 7.38 5.01 12.1v200.86c0 2.76 2.24 4.999 5 4.999z" fill="#ffefee"/><path d="m190.121 10.74v212.97c0 2.76-2.24 5-5 5h-15c2.76 0 5-2.24 5-5v-212.97c0-2.76-2.24-5-5-5h15c2.76 0 5 2.239 5 5z" fill="#ffcfcf"/><path d="m208.258 245.001-.09.023c-27.605 7.006-56.522 7.006-84.127 0l-.09-.023c-2.137-.543-3.634-2.466-3.634-4.672v-49.267h91.574v49.267c.001 2.205-1.495 4.129-3.633 4.672z" fill="#87828e"/><path d="m173.606 250.119c-16.62.72-33.32-.98-49.56-5.1l-.09-.02c-2.14-.54-3.64-2.46-3.64-4.67v-49.27h15v49.27c0 2.21 1.5 4.13 3.64 4.67l.09.02c11.36 2.89 22.94 4.59 34.56 5.1z" fill="#a4a4a5"/><path d="m211.896 191.059v49.27c0 2.21-1.5 4.13-3.64 4.67l-.09.02c-16.24 4.12-32.94 5.82-49.56 5.1 11.62-.51 23.2-2.21 34.56-5.1l.09-.02c2.14-.54 3.64-2.46 3.64-4.67v-49.27z" fill="#796e84"/><path d="m229.626 188.169c-.94.36-61.61 23.43-62.81 23.88-.46.18-.95.18-1.41 0h-.01c-.36-.13-5.5-2.09-12.7-4.83-17.98-6.83-48.82-18.55-50.11-19.05-1.72-.65-1.72-3.07-.01-3.73 0 0 0-.01.01-.01.69-.26 31.95-12.14 50.11-19.05 7.21-2.74 12.36-4.69 12.7-4.83.45-.17.95-.17 1.4-.01 0 0 0 0 .01.01.94.35 61 23.19 62.82 23.88 1.72.66 1.72 3.09 0 3.74z" fill="#87828e"/><path d="m229.626 188.169c-.94.36-61.61 23.43-62.81 23.88-.46.18-.95.18-1.41 0h-.01c-.36-.13-5.5-2.09-12.7-4.83 18.17-6.9 49.42-18.79 50.1-19.05 1.72-.65 1.72-3.08 0-3.74-1.29-.49-32.12-12.21-50.1-19.05 7.21-2.74 12.36-4.69 12.7-4.83.45-.17.95-.17 1.4-.01 0 0 0 0 .01.01.94.35 61 23.19 62.82 23.88 1.72.66 1.72 3.09 0 3.74z" fill="#796e84"/><path d="m128.086 188.169c1.31.5 32.89 12.51 50.77 19.3-6.86 2.61-11.71 4.45-12.04 4.58-.46.18-.95.18-1.41 0h-.01c-1.24-.47-61-23.18-62.81-23.88-1.72-.65-1.72-3.07-.01-3.73 0 0 0-.01.01-.01.96-.36 61.6-23.42 62.81-23.88.45-.17.95-.17 1.4-.01 0 0 0 0 .01.01.26.1 5.13 1.95 12.06 4.58-18.05 6.86-50.09 19.04-50.78 19.3-.01 0-.01.01-.01.01-1.71.66-1.71 3.08.01 3.73z" fill="#a4a4a5"/><g fill="#5f266d"><path d="m241.749 233.707-4.093-4.092c2.453-1.907 1.948-3.764 1.948-11.056 0-2.611-2.008-4.729-4.56-4.956v-27.654c0-1.737-1.528-4.316-3.998-5.256l-36.925-14.04v-155.914c0-4.963-4.037-9-9-9-1.858 0-148.957.002-150.984.002-11.64 0-21.109 9.47-21.109 21.109v43.16c0 4.963 4.037 9 9 9h25.214v148.7c0 4.963 4.037 9 9 9h60.08v7.62c0 4.045 2.735 7.56 6.651 8.548.026.007.089.021.143.033 28.107 7.126 57.854 7.141 85.995-.002.045-.01.089-.021.133-.032 3.915-.991 6.648-4.507 6.648-8.547v-42.658l11.152-4.24v20.171c-2.552.226-4.561 2.345-4.561 4.956 0 7.339-.491 9.161 1.949 11.056l-4.093 4.092c-1.563 1.562-1.563 4.094 0 5.656 1.558 1.56 4.091 1.565 5.656 0l1.049-1.049v1.483c0 2.209 1.791 4 4 4s4-1.791 4-4v-1.483l1.049 1.049c3.732 3.733 9.39-1.924 5.656-5.656zm-194.503-166.697c-9.38 0-15.834 0-25.219 0-.552 0-1-.448-1-1v-43.159c0-7.229 5.881-13.109 13.109-13.109s13.109 5.881 13.109 13.109v44.159zm69.075 157.7h-60.08c-.552 0-1-.448-1-1 0-85.752.005-195.107.005-200.859 0-4.954-1.727-9.506-4.596-13.111h134.471c.552 0 1 .448 1 1v152.873l-17.886-6.801c-1.375-.522-2.888-.521-4.263 0-40.673 15.465-25.861 9.833-62.807 23.882-5.153 1.96-5.151 9.257-.001 11.217l15.156 5.763v27.036zm91.571 15.62c0 .375-.252.701-.57.78-.045.011-.09.021-.135.032-26.875 6.822-55.286 6.822-82.161 0-.024-.007-.077-.019-.127-.029-.347-.103-.577-.413-.577-.783v-39.615l39.654 15.077c1.382.525 2.891.52 4.263 0l39.653-15.078zm-41.787-32.286c-8.366-3.181-53.091-20.188-57.18-21.742l57.18-21.742 57.18 21.742c-4.108 1.562-48.587 18.474-57.18 21.742z"/><path d="m169.003 238.497c2.727.188 7.315.222 11.551-.064 5.269-.355 4.746-8.336-.539-7.982-3.278.222-6.938.262-10.451.066-5.301-.366-5.818 7.609-.561 7.98z"/><path d="m194.963 235.594c1.368 0 3.977-1.374 4.983-1.953 1.915-1.102 2.573-3.547 1.472-5.462-1.103-1.914-3.546-2.575-5.462-1.472-.722.415-1.547.806-2.455 1.162-4.111 1.612-2.918 7.725 1.462 7.725z"/><path d="m85.784 37.43h65.334c2.209 0 4-1.791 4-4s-1.791-4-4-4h-65.334c-2.209 0-4 1.791-4 4s1.791 4 4 4z"/><path d="m73.284 69.097h96c2.209 0 4-1.791 4-4s-1.791-4-4-4h-96c-2.209 0-4 1.791-4 4s1.791 4 4 4z"/><path d="m73.284 94.207h96c2.209 0 4-1.791 4-4s-1.791-4-4-4h-96c-2.209 0-4 1.791-4 4s1.791 4 4 4z"/><path d="m73.284 119.318h96c2.209 0 4-1.791 4-4s-1.791-4-4-4h-96c-2.209 0-4 1.791-4 4s1.791 4 4 4z"/><path d="m173.284 140.43c0-2.209-1.791-4-4-4h-96c-2.209 0-4 1.791-4 4s1.791 4 4 4h96c2.209 0 4-1.791 4-4z"/></g></svg>