<svg id="Icon_Set" enable-background="new 0 0 256 256" height="512" viewBox="0 0 256 256" width="512" xmlns="http://www.w3.org/2000/svg"><path d="m110.162 250.253h-78.7c-11.55 0-18.77-12.5-12.99-22.5l19.67-34.08.57-.99c5.48-9.48 8.72-20.06 9.52-30.94.13-1.77.2-3.54.2-5.32v-83.19h45.33v84.18c0 1.45.04 2.89.14 4.33.66 11.22 3.93 22.15 9.58 31.93l19.67 34.08c5.78 10-1.44 22.5-12.99 22.5z" fill="#ffe2e2"/><path d="m110.163 250.258h-15c11.55 0 18.77-12.5 12.99-22.5l-19.67-34.09c-5.65-9.77-8.92-20.71-9.58-31.93-.1-1.44-.14-2.88-.14-4.33v-84.18h15v84.18c0 1.45.04 2.89.14 4.33.66 11.22 3.93 22.16 9.58 31.93l19.67 34.09c5.78 10-1.44 22.5-12.99 22.5z" fill="#ffcfcf"/><path d="m63.433 73.228v83.19c0 1.79-.07 3.55-.2 5.32-.8 10.89-4.04 21.47-9.52 30.95l-.57.98-19.67 34.09c-5.78 10 1.44 22.5 12.99 22.5h-15c-11.55 0-18.77-12.5-12.99-22.5l19.67-34.09.57-.98c5.48-9.48 8.72-20.06 9.52-30.95.13-1.77.2-3.53.2-5.32v-83.19z" fill="#ffefee"/><path d="m96.096 95.55h-50c-2.761 0-5-2.239-5-5v-15.422c0-2.761 2.239-5 5-5h50c2.761 0 5 2.239 5 5v15.422c0 2.761-2.239 5-5 5z" fill="#ffe2e2"/><circle cx="48.429" cy="19.801" fill="#3193f3" r="14.059"/><circle cx="62.488" cy="51.994" fill="#3193f3" r="9.075"/><circle cx="85.021" cy="24.335" fill="#3193f3" r="9.075"/><path d="m110.162 250.253h-78.7c-11.55 0-18.77-12.5-12.99-22.5l19.67-34.08.57-.99c5.48-9.48 8.72-20.06 9.52-30.94h14.255 22.533 8.881c.66 11.22 3.93 22.15 9.58 31.93l19.67 34.08c5.781 10-1.439 22.5-12.989 22.5z" fill="#3193f3"/><path d="m55.933 31.688c-2.17 1.38-4.74 2.17-7.5 2.17-7.77 0-14.06-6.29-14.06-14.06 0-7.76 6.29-14.06 14.06-14.06 2.76 0 5.33.8 7.5 2.17-3.95 2.49-6.56 6.89-6.56 11.89 0 5.01 2.61 9.4 6.56 11.89z" fill="#35b1fc"/><path d="m110.163 250.258h-15c11.55 0 18.77-12.5 12.99-22.5l-19.67-34.09c-5.65-9.77-8.92-20.71-9.58-31.93h15c.66 11.22 3.93 22.16 9.58 31.93l19.67 34.09c5.78 10-1.44 22.5-12.99 22.5z" fill="#307fed"/><path d="m63.233 161.738c-.8 10.89-4.04 21.47-9.52 30.95l-.57.98-19.67 34.09c-5.78 10 1.44 22.5 12.99 22.5h-15c-11.55 0-18.77-12.5-12.99-22.5l19.67-34.09.57-.98c5.48-9.48 8.72-20.06 9.52-30.95z" fill="#35b1fc"/><path d="m101.093 75.128v15.42c0 2.76-2.24 5-5 5h-15c2.76 0 5-2.24 5-5v-15.42c0-2.76-2.24-5-5-5h15c2.76 0 5 2.24 5 5z" fill="#ffcfcf"/><path d="m61.093 95.548h-15c-2.76 0-5-2.24-5-5v-15.42c0-2.76 2.24-5 5-5h15c-2.76 0-5 2.24-5 5v15.42c0 2.76 2.24 5 5 5z" fill="#ffefee"/><path d="m163.637 155.919h14.478v43.448h-14.478z" fill="#796e84" transform="matrix(0 -1 1 0 -6.767 348.518)"/><circle cx="118.248" cy="180.556" fill="#87828e" r="48.974"/><circle cx="118.248" cy="180.556" fill="#5fcdff" r="34.534"/><path d="m239.567 181.736v-8.216c0-5.506-4.464-9.97-9.97-9.97h-33.718c-5.523 0-10 4.477-10 10v8.186c0 5.523 4.477 10 10 10h33.688c5.523 0 10-4.478 10-10z" fill="#87828e"/><path d="m142.666 204.978c-8.67 8.66-20.78 11.76-31.92 9.28 6.2-1.36 12.1-4.46 16.92-9.28 13.49-13.49 13.49-35.35 0-48.84-4.82-4.82-10.72-7.92-16.92-9.29 11.14-2.47 23.25.62 31.92 9.29 13.49 13.489 13.49 35.35 0 48.84z" fill="#30b6ff"/><path d="m108.826 204.978c4.82 4.82 10.72 7.92 16.92 9.28-11.14 2.48-23.25-.62-31.92-9.28-13.48-13.49-13.48-35.35 0-48.84 8.67-8.67 20.78-11.76 31.92-9.29-6.2 1.37-12.1 4.47-16.92 9.29-13.48 13.489-13.48 35.35 0 48.84z" fill="#73d7f9"/><path d="m239.566 173.518v8.22c0 5.52-4.48 10-10 10h-33.69c-5.52 0-10-4.48-10-10v-8.19c0-.83.1-1.63.3-2.4 1.07 4.36 5.01 7.59 9.7 7.59h33.69c4.7 0 8.65-3.25 9.71-7.62.19.77.29 1.57.29 2.4z" fill="#a4a4a5"/><g fill="#5f266d"><path d="m48.437 37.86c9.958 0 18.059-8.101 18.059-18.059s-8.101-18.058-18.059-18.058-18.058 8.1-18.058 18.058 8.101 18.059 18.058 18.059zm0-28.117c5.546 0 10.059 4.513 10.059 10.059s-4.512 10.058-10.059 10.058-10.059-4.513-10.059-10.059 4.513-10.058 10.059-10.058z"/><path d="m49.422 51.994c0 7.21 5.865 13.075 13.074 13.075s13.075-5.865 13.075-13.075c0-7.209-5.865-13.074-13.075-13.074-7.209-.001-13.074 5.865-13.074 13.074zm18.149 0c0 2.799-2.276 5.075-5.075 5.075-2.798 0-5.074-2.276-5.074-5.075 0-2.798 2.276-5.074 5.074-5.074 2.798-.001 5.075 2.276 5.075 5.074z"/><path d="m85.03 37.409c7.209 0 13.074-5.865 13.074-13.074s-5.865-13.075-13.074-13.075-13.075 5.865-13.075 13.074 5.865 13.075 13.075 13.075zm0-18.149c2.798 0 5.074 2.276 5.074 5.074s-2.276 5.074-5.074 5.074-5.075-2.276-5.075-5.074 2.276-5.074 5.075-5.074z"/><path d="m91 153.309c-24.228 24.229-6.917 65.763 27.248 65.763 34.136 0 51.503-41.507 27.248-65.763-15.025-15.025-39.471-15.025-54.496 0zm48.838 48.838c-11.904 11.904-31.276 11.904-43.181 0-11.905-11.905-11.905-31.276 0-43.182 11.905-11.905 31.276-11.905 43.181 0 11.905 11.906 11.905 31.277 0 43.182z"/><path d="m229.597 159.549h-33.718c-5.109 0-9.575 2.76-12.02 6.858h-14.587c-8.476-30.77-42.114-46.974-71.506-34.694v-32.324c4.17-.783 7.338-4.445 7.338-8.84v-15.421c0-4.963-4.038-9-9-9h-50c-4.962 0-9 4.037-9 9v15.421c0 4.393 3.165 8.054 7.333 8.839 0 62.074.074 58.463-.189 62.057-1.44 19.611-8.202 27.87-29.233 64.311-3.438 5.947-3.44 13.049-.008 18.997 3.434 5.951 9.587 9.505 16.46 9.505h78.7c8.15 0 15.331-5.069 17.954-12.816 1.087-3 1.414-6.152.885-9.042 21.492-4.426 38.079-21.668 41.527-43.521h13.327c2.445 4.099 6.91 6.858 12.02 6.858h33.688c7.72 0 14-6.28 14-14v-8.217c-.001-7.704-6.268-13.971-13.971-13.971zm-184.493-84.421c0-.552.449-1 1-1h50c.551 0 1 .448 1 1v15.421c0 .552-.449 1-1 1-2.761 0-46.783 0-50 0-.551 0-1-.448-1-1zm20.667 59.141h-13.335v-11.809h13.334c2.209 0 4-1.791 4-4s-1.791-4-4-4h-13.334v-14.911h37.33v36.351c-3.182 2.03-6.199 4.421-8.977 7.198-4.379 4.379-7.819 9.343-10.341 14.64h-18.037c.033-1.841.025 1.964.025-15.469h13.334c2.209 0 4-1.791 4-4s-1.79-4-3.999-4zm54.791 104.532c-1.574 4.247-5.297 7.457-10.396 7.457h-78.7c-3.98 0-7.543-2.058-9.531-5.503-1.987-3.443-1.985-7.554.006-10.998 21.308-36.928 27.538-44.812 29.919-64.019h15.543c-9.836 33.963 15.546 67.768 50.844 67.768.918 0 1.837-.028 2.754-.076.281 1.842.125 3.676-.439 5.371zm29.487-26.443c-17.535 17.536-46.067 17.534-63.603 0-28.278-28.278-8.075-76.754 31.801-76.754 39.842 0 60.112 48.443 31.802 76.754zm31.83-31.481h-10.69c.013-2.161-.113-4.321-.362-6.47h11.052zm53.688.859c0 3.309-2.691 6-6 6h-33.688c-3.309 0-6-2.691-6-6v-8.187c0-3.309 2.691-6 6-6h33.718c3.292 0 5.97 2.678 5.97 5.97z"/><path d="m55.978 198.014c-1.908-1.117-4.357-.473-5.472 1.434l-9.591 16.401c-1.115 1.907-.473 4.357 1.434 5.473.635.371 1.33.548 2.015.548 1.375 0 2.713-.71 3.457-1.981l9.591-16.401c1.115-1.908.473-4.359-1.434-5.474z"/><path d="m38.815 227.364c-1.908-1.116-4.357-.473-5.472 1.434l-1.88 3.215c-1.115 1.907-.473 4.357 1.434 5.473.635.371 1.33.548 2.015.548 1.375 0 2.713-.71 3.457-1.981l1.88-3.215c1.115-1.909.473-4.359-1.434-5.474z"/><path d="m131.782 170.79-18.089 14.741-7.067-6.644c-1.611-1.516-4.142-1.436-5.654.174-1.513 1.61-1.435 4.142.175 5.654 8.214 7.722 9.025 9.159 12.5 9.159 3.295 0 2.857-.314 23.189-16.884 1.712-1.396 1.969-3.915.574-5.628-1.396-1.711-3.916-1.97-5.628-.572z"/></g></svg>