<svg id="Icon_Set" enable-background="new 0 0 256 256" height="512" viewBox="0 0 256 256" width="512" xmlns="http://www.w3.org/2000/svg"><path d="m82.044 204.422h50.468v32.618h-50.468z" fill="#87828e"/><path d="m197.353 204.422h-180.149c-5.523 0-10-4.477-10-10v-113.333c0-5.523 4.477-10 10-10h180.149c5.523 0 10 4.477 10 10v113.333c0 5.523-4.477 10-10 10z" fill="#87828e"/><path d="m183.66 188.859h-152.762c-2.761 0-5-2.239-5-5v-92.207c0-2.761 2.239-5 5-5h152.762c2.761 0 5 2.239 5 5v92.208c0 2.761-2.239 4.999-5 4.999z" fill="#5fcdff"/><path d="m207.35 81.09v113.33c0 5.53-4.47 10-10 10h-15c5.53 0 10-4.47 10-10v-113.33c0-5.52-4.47-10-10-10h15c5.53 0 10 4.48 10 10z" fill="#796e84"/><path d="m32.2 204.42h-15c-5.52 0-10-4.47-10-10v-113.33c0-5.52 4.48-10 10-10h15c-5.52 0-10 4.48-10 10v113.33c0 5.53 4.48 10 10 10z" fill="#a4a4a5"/><path d="m117.51 204.42h15v32.62h-15z" fill="#796e84"/><path d="m82.04 204.42h15v32.62h-15z" fill="#a4a4a5"/><path d="m188.66 91.65v92.21c0 2.76-2.24 5-5 5h-15c2.76 0 5-2.24 5-5v-92.21c0-2.76-2.24-5-5-5h15c2.76 0 5 2.24 5 5z" fill="#30b6ff"/><path d="m45.9 188.86h-15c-2.76 0-5-2.24-5-5v-92.21c0-2.76 2.24-5 5-5h15c-2.76 0-5 2.24-5 5v92.21c0 2.76 2.24 5 5 5z" fill="#73d7f9"/><circle cx="202.247" cy="65.508" fill="#3193f3" r="46.549"/><path d="m248.8 65.51c0 25.71-20.84 46.55-46.55 46.55-2.55 0-5.06-.21-7.5-.61 22.14-3.58 39.05-22.78 39.05-45.94s-16.91-42.36-39.05-45.94c2.44-.4 4.95-.61 7.5-.61 25.71 0 46.55 20.84 46.55 46.55z" fill="#307fed"/><path d="m209.75 111.45c-2.44.4-4.95.61-7.5.61-25.71 0-46.55-20.84-46.55-46.55s20.84-46.55 46.55-46.55c2.55 0 5.06.21 7.5.61-22.14 3.58-39.05 22.78-39.05 45.94s16.91 42.36 39.05 45.94z" fill="#35b1fc"/><path d="m171.042 117.807c3.383 7.74 3.383 16.596 0 24.336-.466 1.065-1.743 1.512-2.773.972-12.383-6.501-21.687-11.389-21.65-11.369-1.427-.749-1.427-2.792 0-3.541 18.411-9.67 21.65-11.369 21.65-11.369 1.029-.541 2.307-.095 2.773.971z" fill="#ff4a73"/><path d="m161.62 131.75 11 5.78c-.4 1.57-.93 3.11-1.58 4.61-.46 1.07-1.74 1.52-2.77.97-10.61-5.561-5.697-2.983-21.65-11.36-1.43-.75-1.43-2.8 0-3.55 15.858-8.327 11.166-5.865 21.65-11.36 1.03-.55 2.31-.1 2.77.97.65 1.5 1.18 3.04 1.58 4.61l-11 5.78c-1.43.75-1.43 2.8 0 3.55z" fill="#f973a3"/><path d="m139.601 106.138c2.883 2.284 5.223 4.957 7.03 7.864.615.988.256 2.294-.775 2.835l-8.485 4.455-13.161 6.913c-1.427.749-1.427 2.792 0 3.541l13.161 6.913 8.485 4.455c1.031.541 1.389 1.846.774 2.835-1.808 2.909-4.15 5.583-7.034 7.867-11.3 8.948-27.65 8.575-38.551-.855-14.052-12.156-14.049-33.825.009-45.977 10.905-9.426 27.25-9.795 38.547-.846z" fill="#f9d335"/><path d="m146.63 145.95c-1.81 2.91-4.15 5.58-7.03 7.86-7.54 5.97-17.32 7.79-26.23 5.54 7.853-1.978 14.276-6.994 18.26-13.4.62-.99.26-2.3-.77-2.84-10.61-5.561-5.697-2.983-21.65-11.36-1.43-.75-1.43-2.8 0-3.55 15.858-8.327 11.166-5.865 21.65-11.36 1.03-.54 1.39-1.85.77-2.84-4.021-6.442-10.414-11.424-18.28-13.4 8.92-2.26 18.71-.43 26.25 5.54 2.88 2.28 5.22 4.96 7.03 7.86.62.99.26 2.3-.77 2.84l-8.49 4.45-13.16 6.91c-1.43.75-1.43 2.8 0 3.55l13.16 6.91 8.49 4.45c1.03.54 1.39 1.85.77 2.84z" fill="#f2c300"/><path d="m128.37 159.35c-9.37 2.38-19.68.22-27.32-6.39-14.06-12.16-14.05-33.83.01-45.98 7.63-6.59 17.93-8.75 27.29-6.38-4.44 1.11-8.67 3.24-12.29 6.38-14.06 12.15-14.07 33.82-.01 45.98 3.63 3.14 7.87 5.28 12.32 6.39z" fill="#f9e27d"/><g fill="#5f266d"><path d="m41.89 150.77h25.29c5.288 0 5.285-8 0-8h-25.29c-5.285 0-5.293 8 0 8z"/><path d="m41.89 164.26h34.46c5.281 0 5.294-8 0-8h-34.46c-5.303 0-5.276 8 0 8z"/><path d="m76.35 169.84h-34.46c-5.285 0-5.293 8 0 8h34.46c5.285 0 5.293-8 0-8z"/><path d="m98.43 155.98c15.805 13.688 40.322 10.198 51.6-7.92 1.853-3.003.733-6.896-2.31-8.49l-18.28-9.59 18.27-9.6c3.045-1.585 4.183-5.505 2.32-8.49-11.28-18.121-35.786-21.598-51.59-7.93-15.925 13.761-15.869 38.316-.01 52.02zm5.24-45.97c11.482-9.919 29.136-8.142 38.35 4.32l-19.67 10.33c-4.283 2.25-4.267 8.389 0 10.63l19.67 10.33c-9.2 12.442-26.854 14.259-38.36 4.31-12.177-10.524-12.213-29.356.01-39.92z"/><path d="m144.76 135.29 21.65 11.37c3.136 1.622 6.917.229 8.3-2.91 3.82-8.76 3.82-18.79 0-27.54 0-.01 0-.01 0-.01-1.383-3.139-5.17-4.549-8.3-2.91l-21.65 11.37c-4.283 2.25-4.267 8.389 0 10.63zm7.09-5.31 16.31-8.57c1.89 5.54 1.89 11.59 0 17.13z"/><path d="m202.25 14.96c-28.974 0-51.593 24.271-50.52 52.13h-134.53c-7.72 0-14 6.28-14 14v113.33c0 7.72 6.28 14 14 14h60.84v24.62h-5.22c-5.285 0-5.293 8 0 8h68.92c5.285 0 5.293-8 0-8h-5.23v-24.62h60.84c7.72 0 14-6.28 14-14v-79.18c23.651-4.325 41.45-25.055 41.45-49.73 0-27.927-22.74-50.55-50.55-50.55zm25.73 16.69c-1.59 1.21-3.25 2.3-4.98 3.26-1.89-3.42-4.12-6.63-6.65-9.54 4.22 1.48 8.14 3.61 11.63 6.28zm-68.09 37.86h14.28c.448 6.012 1.938 12.533 4.65 18.94-2.905 1.509-5.829 3.448-8.26 5.42-6.259-7.007-9.889-15.635-10.67-24.36zm10.67-32.36c2.37 1.91 4.89 3.59 7.53 5.03-2.35 6.05-3.76 12.59-4.07 19.33h-14.13c.87-9.32 4.76-17.77 10.67-24.36zm14.84 8.28c4.11 1.46 8.43 2.38 12.85 2.72v13.36h-16.22c.29-5.6 1.46-11.04 3.37-16.08zm37.07 16.08h-16.22v-13.36c4.42-.34 8.73-1.26 12.85-2.72 1.91 5.04 3.08 10.48 3.37 16.08zm-40.28 8h16.06v13.35c-4.457.342-8.759 1.31-12.07 2.46-1.973-4.551-3.442-10.06-3.99-15.81zm16.06 21.38v11.41c-3.315-2.941-6.207-6.477-8.29-9.79 2.268-.714 5.274-1.349 8.29-1.62zm8 11.4v-11.4c2.807.261 5.537.784 8.28 1.62-2.161 3.453-5.046 6.915-8.28 9.78zm0-19.43c0-7.829 0-5.588 0-13.35h16.06c-.52 5.55-1.89 10.89-4 15.81-3.946-1.339-8.057-2.157-12.06-2.46zm9.41-44.71c-3.03 1.01-6.19 1.67-9.41 1.97v-13.64c3.72 3.3 6.89 7.25 9.41 11.67zm-17.41-11.67v13.64c-3.22-.3-6.38-.96-9.41-1.97 2.52-4.42 5.69-8.37 9.41-11.67zm-15.79 69.1c2.23 3.748 5.196 7.623 8.66 11-5.162-1.383-10.185-3.832-14.6-7.21 1.88-1.44 3.87-2.7 5.94-3.79zm48.02-34.07c-.31-6.74-1.72-13.28-4.08-19.33 2.64-1.44 5.16-3.12 7.53-5.03 5.92 6.59 9.81 15.04 10.68 24.36zm-42.33-36.14c-2.53 2.91-4.76 6.12-6.65 9.54-1.73-.95-3.39-2.05-4.98-3.26 3.49-2.67 7.41-4.8 11.63-6.28zm-3.49 87.54v70.95c0 .55-.45 1-1 1h-152.76c-.55 0-1-.45-1-1v-92.21c0-.55.45-1 1-1h127.51c5.764 10.051 15.034 18.074 26.25 22.26zm28.7-6.32c3.33-3.25 6.24-6.96 8.67-11.01 2.07 1.09 4.06 2.36 5.95 3.79-4.3 3.29-9.25 5.77-14.62 7.22zm20.57-12.72c-2.59-2.09-5.35-3.9-8.26-5.42 2.52-5.89 4.12-12.29 4.66-18.94h14.28c-.87 9.32-4.76 17.77-10.68 24.36zm-105.42 139.17h-42.47v-24.62h42.47zm74.84-38.62c0 3.31-2.69 6-6 6-3.306 0-177.127 0-180.15 0-3.3 0-6-2.69-6-6v-113.33c0-3.31 2.7-6 6-6h135.42c.49 2.6 1.19 5.12 2.07 7.56h-123.79c-4.97 0-9 4.04-9 9v92.21c0 4.96 4.03 9 9 9h152.76c4.96 0 9-4.04 9-9v-68.72c3.992.794 8.539 1.02 10.69.9z"/><path d="m68.35 103.98 2.11.02h.04c5.263 0 5.3-7.952.04-8l-2.11-.02h-.04c-5.263 0-5.3 7.952-.04 8z"/><path d="m43.75 117.25v-12.5c0-.55.45-1 .96-1l8.64.08h.04c5.271 0 5.301-7.929.04-8l-8.68-.08c-4.96 0-9 4.04-9 9v12.5c0 5.285 8 5.293 8 0z"/></g></svg>