<svg id="Icon_Set" enable-background="new 0 0 256 256" height="512" viewBox="0 0 256 256" width="512" xmlns="http://www.w3.org/2000/svg"><path d="m130.084 196.375h-118.667c-2.761 0-5-2.239-5-5v-181.25c0-2.761 2.239-5 5-5h118.667c2.761 0 5 2.239 5 5v181.25c0 2.761-2.239 5-5 5z" fill="#ffe2e2"/><path d="m135.087 10.12v181.26c0 2.76-2.24 5-5 5h-15c2.76 0 5-2.24 5-5v-181.26c0-2.76-2.24-5-5-5h15c2.76 0 5 2.24 5 5z" fill="#ffcfcf"/><path d="m26.417 196.38h-15c-2.76 0-5-2.24-5-5v-181.26c0-2.76 2.24-5 5-5h15c-2.76 0-5 2.24-5 5v181.26c0 2.76 2.24 5 5 5z" fill="#ffefee"/><path d="m166.584 250.875h-118.667c-2.761 0-5-2.239-5-5v-181.25c0-2.761 2.239-5 5-5h118.667c2.761 0 5 2.239 5 5v181.25c0 2.761-2.239 5-5 5z" fill="#5fcdff"/><path d="m171.587 64.62v181.26c0 2.76-2.24 5-5 5h-15c2.76 0 5-2.24 5-5v-181.26c0-2.76-2.24-5-5-5h15c2.76 0 5 2.24 5 5z" fill="#30b6ff"/><path d="m62.917 250.88h-15c-2.76 0-5-2.24-5-5v-181.26c0-2.76 2.24-5 5-5h15c-2.76 0-5 2.24-5 5v181.26c0 2.76 2.24 5 5 5z" fill="#73d7f9"/><path d="m245.463 43.673h-16.138v-32.044c0-2.269-1.839-4.108-4.108-4.108h-16.433c-2.269 0-4.108 1.839-4.108 4.108v32.044h-16.138c-3.162 0-5.139 3.424-3.558 6.162l28.462 49.298c1.581 2.739 5.534 2.739 7.116 0l28.462-49.298c1.582-2.739-.395-6.162-3.557-6.162z" fill="#44c7b6"/><path d="m200.088 137.006h-16.141v-32.046c0-2.27-1.84-4.11-4.11-4.11h-16.43c-2.27 0-4.11 1.84-4.11 4.11v32.046h-16.134c-3.162 0-5.139 3.423-3.558 6.162l28.462 49.298c1.581 2.739 5.534 2.739 7.116 0l28.462-49.298c1.582-2.738-.395-6.162-3.557-6.162z" fill="#44c7b6"/><path d="m219.677 43.67h-15v-32.04c0-2.27 1.84-4.11 4.11-4.11h15c-2.27 0-4.11 1.84-4.11 4.11z" fill="#4bdbc3"/><path d="m224.497 92.3-3.94 6.83c-1.58 2.74-5.53 2.74-7.11 0l-28.47-49.29c-1.58-2.74.4-6.17 3.56-6.17h15c-3.16 0-5.14 3.43-3.56 6.17z" fill="#4bdbc3"/><path d="m174.297 137.01h-15v-32.05c0-2.27 1.84-4.11 4.11-4.11h15c-2.27 0-4.11 1.84-4.11 4.11z" fill="#4bdbc3"/><path d="m179.127 185.64-3.94 6.83c-1.59 2.74-5.54 2.74-7.12 0l-28.46-49.3c-1.58-2.74.39-6.16 3.56-6.16h15c-3.17 0-5.14 3.42-3.56 6.16z" fill="#4bdbc3"/><g fill="#5f266d"><path d="m115.705 28.167h3.792c2.209 0 4-1.791 4-4s-1.791-4-4-4h-3.792c-2.209 0-4 1.791-4 4s1.791 4 4 4z"/><path d="m85.705 28.167h15c2.209 0 4-1.791 4-4s-1.791-4-4-4h-15c-2.209 0-4 1.791-4 4s1.791 4 4 4z"/><path d="m80.584 97.25h52c2.209 0 4-1.791 4-4s-1.791-4-4-4h-52c-2.209 0-4 1.791-4 4s1.791 4 4 4z"/><path d="m66.584 129.25h54.416c2.209 0 4-1.791 4-4s-1.791-4-4-4h-54.416c-2.209 0-4 1.791-4 4s1.791 4 4 4z"/><path d="m66.584 152.25h54.416c2.209 0 4-1.791 4-4s-1.791-4-4-4h-54.416c-2.209 0-4 1.791-4 4s1.791 4 4 4z"/><path d="m66.584 175.25h65.416c2.209 0 4-1.791 4-4s-1.791-4-4-4h-65.416c-2.209 0-4 1.791-4 4s1.791 4 4 4z"/><path d="m147.917 190.25h-81.333c-2.209 0-4 1.791-4 4s1.791 4 4 4h81.333c2.209 0 4-1.791 4-4s-1.791-4-4-4z"/><path d="m147.917 213.25h-81.333c-2.209 0-4 1.791-4 4s1.791 4 4 4h81.333c2.209 0 4-1.791 4-4s-1.791-4-4-4z"/><path d="m245.463 39.673h-12.136v-28.043c0-4.472-3.639-8.11-8.11-8.11h-16.43c-4.472 0-8.11 3.639-8.11 8.11v28.043h-12.139c-6.24 0-10.145 6.753-7.021 12.162l28.462 49.299c3.117 5.401 10.918 5.41 14.044.001v-.001l28.462-49.299c3.12-5.404-.777-12.162-7.022-12.162zm-36.786-28.043c0-.061.05-.11.11-.11h16.43c.061 0 .11.05.11.11v28.043h-16.65zm8.229 85.504-28.462-49.299c-.023-.04-.031-.054 0-.108s.047-.054.094-.054c.097 0 56.97-.03 57.019.054.071.125-28.52 49.63-28.651 49.407z"/><path d="m200.088 133.006h-12.141v-28.046c0-4.472-3.639-8.11-8.11-8.11h-4.25v-32.23c0-4.963-4.037-9-9-9h-27.5v-45.5c0-4.963-4.037-9-9-9h-118.67c-4.963 0-9 4.037-9 9v181.26c0 4.963 4.037 9 9 9h27.5v45.5c0 4.963 4.037 9 9 9h118.67c4.963 0 9-4.037 9-9v-48.385c1.247-.697 2.308-1.724 3.061-3.027v-.001l28.463-49.298c1.465-2.539 1.465-5.57-.001-8.109-1.467-2.539-4.092-4.054-7.022-4.054zm-20.251-28.156c.061 0 .11.05.11.11v28.046h-16.65v-28.046c0-.061.05-.11.11-.11zm-140.92-40.23v127.76h-27.5c-.552 0-1-.448-1-1v-181.26c0-.552.448-1 1-1h118.67c.552 0 1 .448 1 1v45.5h-83.17c-4.963 0-9 4.037-9 9zm128.67 181.26c0 .552-.448 1-1 1h-118.67c-.552 0-1-.448-1-1v-181.26c0-.552.448-1 1-1h118.67c.552 0 1 .448 1 1v32.23h-4.18c-4.472 0-8.11 3.639-8.11 8.11v28.046h-12.134c-2.931 0-5.556 1.516-7.021 4.054-1.466 2.539-1.466 5.57 0 8.109l28.462 49.298c.737 1.277 1.768 2.293 2.983 2.99zm32.594-104.711-28.462 49.298c-.023.04-.032.054-.095.054s-.07-.014-.094-.054l-28.462-49.298c-.023-.04-.031-.055.001-.109.03-.054.046-.054.093-.054h56.925c.047 0 .063 0 .093.054.033.054.025.069.001.109z"/></g></svg>