<svg id="Icon_Set" enable-background="new 0 0 256 256" height="512" viewBox="0 0 256 256" width="512" xmlns="http://www.w3.org/2000/svg"><path d="m17.065 239.599v-223.198c0-5.523 4.477-10 10-10h184.167c5.523 0 10 4.477 10 10v223.199c0 5.523-4.477 10-10 10h-184.167c-5.523-.001-10-4.478-10-10.001z" fill="#ffe2e2"/><path d="m191.949 210.801h-145.602c-5.523 0-10-4.477-10-10v-145.602c0-5.523 4.477-10 10-10h145.603c5.523 0 10 4.477 10 10v145.603c-.001 5.522-4.478 9.999-10.001 9.999z" fill="#44c7b6"/><path d="m221.228 16.4v223.2c0 5.52-4.47 10-10 10h-15c5.53 0 10-4.48 10-10v-223.2c0-5.52-4.47-10-10-10h15c5.53 0 10 4.48 10 10z" fill="#ffcfcf"/><path d="m42.068 249.6h-15c-5.53 0-10-4.48-10-10v-223.2c0-5.52 4.47-10 10-10h15c-5.53 0-10 4.48-10 10v223.2c0 5.52 4.47 10 10 10z" fill="#ffefee"/><path d="m201.948 55.2v145.6c0 5.52-4.48 10-10 10h-15c5.52 0 10-4.48 10-10v-145.6c0-5.52-4.48-10-10-10h15c5.52 0 10 4.48 10 10z" fill="#3bb2a0"/><path d="m61.348 210.8h-15c-5.52 0-10-4.48-10-10v-145.6c0-5.52 4.48-10 10-10h15c-5.52 0-10 4.48-10 10v145.6c0 5.52 4.48 10 10 10z" fill="#4bdbc3"/><path d="m150.562 70.921c-17.253 0-31.243 6.448-31.243 14.415 0-7.967-13.99-14.415-31.243-14.415s-31.243 6.448-31.243 14.415v77.553.555h.026 62.434.052 62.434.026v-.555-77.553c0-7.967-13.99-14.415-31.243-14.415z" fill="#ffe2e2"/><path d="m181.805 162.889c0 .182-.009.373-.026.555h-62.434c-.017-.182-.026-.373-.026-.555 0-7.958 13.99-14.415 31.243-14.415s31.243 6.456 31.243 14.415z" fill="#ffcfcf"/><path d="m119.319 162.889c0 .182-.009.373-.026.555h-62.435c-.017-.182-.026-.373-.026-.555 0-7.958 13.99-14.415 31.243-14.415s31.244 6.456 31.244 14.415z" fill="#ffcfcf"/><circle cx="119.207" cy="83.667" fill="#5fcdff" r="24.667"/><path d="m126.71 107.16c-2.36.76-4.88 1.17-7.5 1.17-13.63 0-24.67-11.04-24.67-24.66 0-13.63 11.04-24.67 24.67-24.67 2.62 0 5.14.41 7.5 1.17-9.96 3.16-17.17 12.49-17.17 23.5s7.21 20.33 17.17 23.49z" fill="#73d7f9"/><path d="m238.861 175.81v19.2c0 10.12-3.98 19.3-10.45 26.09-.87.9-1.34 2.11-1.34 3.36v16.37c0 4.86-3.94 8.8-8.8 8.8h-36.96c-4.86 0-8.8-3.94-8.8-8.8v-19.11c0-1.22-.45-2.4-1.27-3.31-7.89-8.71-16.58-16.65-26.35-23.19l-.75-.5c-2.02-1.35-2.56-4.08-1.21-6.1l1.07-1.6c3.73-5.57 11.27-7.06 16.84-3.34l2.39 1.6v-56.35c0-2.56 1.04-4.88 2.72-6.55 1.68-1.68 4-2.72 6.56-2.72 5.12 0 9.27 4.15 9.27 9.27v42.48h52.68c2.43 0 4.4 1.97 4.4 4.4z" fill="#ffcaa6"/><path d="m238.861 175.81v19.2c0 10.12-3.98 19.3-10.45 26.09-.87.9-1.34 2.11-1.34 3.36v16.37c0 4.86-3.94 8.8-8.8 8.8h-20.46v-31.8l-10.211-13.377c-3.774-4.944-5.819-10.992-5.819-17.213v-15.83h52.68c2.43 0 4.4 1.97 4.4 4.4z" fill="#ffbb98"/><path d="m234.461 171.41h-15c2.43 0 4.4 1.97 4.4 4.4v19.2c0 10.12-3.98 19.3-10.45 26.09-.87.9-1.34 2.11-1.34 3.36v16.37c0 4.86-3.94 8.8-8.8 8.8h15c4.86 0 8.8-3.94 8.8-8.8v-16.37c0-1.25.47-2.46 1.34-3.36 6.47-6.79 10.45-15.97 10.45-26.09v-19.2c0-2.43-1.97-4.4-4.4-4.4z" fill="#ffaa80"/><g fill="#5f266d"><path d="m134.215 226.413h-29.204c-2.209 0-4 1.791-4 4s1.791 4 4 4h29.204c2.209 0 4-1.791 4-4s-1.791-4-4-4z"/><ellipse cx="156.873" cy="25.057" rx="6.288" ry="6.288" transform="matrix(.383 -.924 .924 .383 73.691 160.4)"/><path d="m174.373 29.026c2.192 0 3.97-1.777 3.97-3.97s-1.777-3.97-3.97-3.97c-2.192 0-3.97 1.777-3.97 3.97s1.778 3.97 3.97 3.97z"/><path d="m234.48 167.41h-9.19v-151.04c0-7.72-6.28-14-14-14h-184.17c-7.72 0-14 6.28-14 14v223.2c0 7.72 6.28 14 14 14 177.019 0 119.141.06 191.17.06 7.058 0 12.8-5.742 12.8-12.8v-16.37c0-.227.079-.438.236-.601 7.451-7.82 11.554-18.065 11.554-28.85v-19.2c0-4.631-3.768-8.399-8.4-8.399zm-207.36 78.16c-3.309 0-6-2.691-6-6v-223.2c0-3.309 2.691-6 6-6h184.17c3.309 0 6 2.691 6 6v151.04h-11.28v-112.24c0-7.72-6.28-14-14-14h-145.6c-7.72 0-14 6.28-14 14v145.6c0 7.72 6.28 14 14 14h115.835c2.052 2.044 4.085 4.153 6.044 6.318.155.173.241.397.241.632v19.11c0 1.671.324 3.27.909 4.74zm115.629-178.221c-11.416-16.479-35.707-16.409-47.072-.021-21.576-2.357-42.847 5.391-42.847 18.012v78.101c0 2.189 1.868 4.004 4.028 4.004 14.337 0 88.086-.004 102.392-.004v11.031c-12.251-4.105-22.249 7.335-20.882 14.228 1.037 5.232 3.845 4.497 15.184 14.07h-107.142c-3.309 0-6-2.691-6-6v-145.6c0-3.309 2.691-6 6-6h145.6c3.309 0 6 2.691 6 6v112.24h-12.21c.001-.071.01-2.848.01-82.07 0-12.749-21.577-20.403-43.061-17.991zm-19.429 83.593v-38.914c17.231-2.495 28.579-19.944 23.217-36.975 18.41-1.157 31.273 5.549 31.273 10.286v31.423c-8.817-3.843-18.56 2.699-18.56 12.167v16.092c-11.415-1.432-26.218-.194-35.93 5.921zm35.93 2.129v6.368h-33.979c5.918-5.502 20.625-8.282 33.979-6.368zm-98.42-2.125v-65.606c0-4.689 12.682-11.39 31.049-10.299-.876 2.776-1.339 5.688-1.339 8.629 0 14.484 10.806 26.485 24.78 28.389v38.886c-13.734-8.645-40.751-8.649-54.49.001zm52.539 8.494h-50.587c9.964-9.258 40.604-9.276 50.587 0zm-14.829-75.77c0-3.546.911-7.032 2.641-10.098 7.862-14.063 28.19-14.098 36.072.037 7.667 13.646-2.28 30.721-18.043 30.721-11.398 0-20.67-9.268-20.67-20.66zm136.34 111.34c0 8.72-3.319 17.006-9.326 23.311-1.589 1.644-2.464 3.824-2.464 6.14v16.37c0 2.646-2.153 4.8-4.8 4.8-.444 0-37.066.02-37.506-.035-2.425-.271-4.254-2.319-4.254-4.765v-19.11c0-4.079-2.006-6.169-9.79-13.777-.001-.001-.002-.002-.003-.003-.012-.012-.023-.024-.035-.036-20.741-20.209-22.258-14.32-19.358-18.659 2.496-3.728 7.562-4.733 11.291-2.242l2.39 1.601c2.651 1.776 6.226-.127 6.226-3.323 0-11.247 0-43.349 0-56.351 0-2.936 2.398-5.27 5.28-5.27 2.906 0 5.27 2.364 5.27 5.27v.663 8.748 33.07c0 2.209 1.791 4 4 4h52.68c.221 0 .4.179.4.399v19.199z"/><path d="m123.207 92.833v-5.166h5.167c2.209 0 4-1.791 4-4s-1.791-4-4-4h-5.167v-5.167c0-2.209-1.791-4-4-4s-4 1.791-4 4v5.167h-5.167c-2.209 0-4 1.791-4 4s1.791 4 4 4h5.167v5.166c0 2.209 1.791 4 4 4s4-1.791 4-4z"/><path d="m104.922 129.366c-6.647-3.063-8.939 4.906-4.268 6.862.308.129.615.264.923.405 4.86 2.235 8.101-5.078 3.345-7.267z"/><path d="m87.523 125.744c-9.792.116-16.956 3.507-17.256 3.65-1.991.957-2.829 3.348-1.872 5.339.959 1.994 3.351 2.827 5.338 1.872.058-.028 5.974-2.769 13.885-2.861 5.26-.063 5.227-8.028-.095-8z"/></g></svg>