<svg id="Icon_Set" enable-background="new 0 0 256 256" height="512" viewBox="0 0 256 256" width="512" xmlns="http://www.w3.org/2000/svg"><path d="m200.031 248h-144.062c-5.523 0-10-4.477-10-10v-220c0-5.523 4.477-10 10-10h144.063c5.523 0 10 4.477 10 10v220c-.001 5.523-4.478 10-10.001 10z" fill="#ffe2e2"/><path d="m186.5 211.331h-117c-2.761 0-5-2.239-5-5v-166.662c0-2.761 2.239-5 5-5h117c2.761 0 5 2.239 5 5v166.663c0 2.761-2.239 4.999-5 4.999z" fill="#5fcdff"/><path d="m191.5 39.67v166.66c0 2.76-2.24 5-5 5h-15c2.76 0 5-2.24 5-5v-166.66c0-2.76-2.24-5-5-5h15c2.76 0 5 2.24 5 5z" fill="#30b6ff"/><path d="m84.5 211.33h-15c-2.76 0-5-2.24-5-5v-166.66c0-2.76 2.24-5 5-5h15c-2.76 0-5 2.24-5 5v166.66c0 2.76 2.24 5 5 5z" fill="#73d7f9"/><path d="m210.03 18v220c0 5.52-4.48 10-10 10h-15c5.52 0 10-4.48 10-10v-220c0-5.52-4.48-10-10-10h15c5.52 0 10 4.48 10 10z" fill="#ffcfcf"/><path d="m70.97 248h-15c-5.52 0-10-4.48-10-10v-220c0-5.52 4.48-10 10-10h15c-5.52 0-10 4.48-10 10v220c0 5.52 4.48 10 10 10z" fill="#ffefee"/><g fill="#5f266d"><path d="m200.03 4h-144.06c-7.72 0-14 6.28-14 14v220c0 7.72 6.28 14 14 14h144.06c7.72 0 14-6.28 14-14v-220c0-7.72-6.28-14-14-14zm6 234c0 3.31-2.69 6-6 6h-144.06c-3.31 0-6-2.69-6-6v-220c0-3.31 2.69-6 6-6h144.06c3.31 0 6 2.69 6 6z"/><path d="m186.5 30.67h-117c-4.96 0-9 4.04-9 9v166.66c0 4.96 4.04 9 9 9h117c4.96 0 9-4.04 9-9v-166.66c0-4.96-4.04-9-9-9zm1 175.66c0 .55-.45 1-1 1h-117c-.55 0-1-.45-1-1v-166.66c0-.55.45-1 1-1h117c.55 0 1 .45 1 1z"/><path d="m165.67 27.38c3.47 0 6.28-2.82 6.28-6.29s-2.81-6.29-6.28-6.29c-3.48 0-6.29 2.82-6.29 6.29s2.81 6.29 6.29 6.29z"/><path d="m183.17 25.06c2.19 0 3.97-1.78 3.97-3.97s-1.78-3.97-3.97-3.97c-2.2 0-3.97 1.78-3.97 3.97s1.77 3.97 3.97 3.97z"/><path d="m87 68.98h56c5.281 0 5.294-8 0-8h-56c-5.303 0-5.276 8 0 8z"/><path d="m87 94.71h84.96c5.288 0 5.285-8 0-8h-84.96c-5.285 0-5.293 8 0 8z"/><path d="m87 120.44h84.96c5.288 0 5.285-8 0-8h-84.96c-5.285 0-5.293 8 0 8z"/><path d="m87 146.18h84.96c5.288 0 5.285-8 0-8h-84.96c-5.285 0-5.293 8 0 8z"/><path d="m171.96 163.91h-84.96c-5.285 0-5.293 8 0 8h84.96c5.288 0 5.285-8 0-8z"/><path d="m159.33 192.65h-22c-5.285 0-5.293 8 0 8h22c5.285 0 5.293-8 0-8z"/><path d="m176.2 192.65h-1.87c-5.284 0-5.295 8 0 8h1.87c5.285 0 5.293-8 0-8z"/><path d="m156.46 78.27c3.061-5.328 1.408-2.464 7.54-13.06 6.039 10.456 4.461 7.722 7.54 13.06.73 1.26 2.66.74 2.66-.71v-29.44c0-1.58-1.28-2.86-2.85-2.86h-14.7c-1.58 0-2.85 1.28-2.85 2.86v29.44c0 1.45 1.93 1.97 2.66.71z"/><path d="m142.6 225.45h-29.2c-5.285 0-5.293 8 0 8h29.2c5.284 0 5.295-8 0-8z"/></g></svg>