<svg id="Icon_Set" enable-background="new 0 0 256 256" height="512" viewBox="0 0 256 256" width="512" xmlns="http://www.w3.org/2000/svg"><path d="m189.519 36.909c-33.972 0-61.519 12.697-61.519 28.384 0-15.687-27.547-28.384-61.519-28.384s-61.519 12.697-61.519 28.384v152.704 1.094h.051 122.936.103 122.936.051v-1.094-152.704c-.001-15.687-27.547-28.384-61.52-28.384z" fill="#ffe2e2"/><path d="m251.04 65.29v153.8h-15v-153.8c0-14.51-23.58-26.46-54.02-28.17 2.46-.14 4.96-.21 7.5-.21 33.97 0 61.52 12.7 61.52 28.38z" fill="#ffcfcf"/><path d="m73.98 37.12c-30.44 1.71-54.02 13.66-54.02 28.17v153.8h-15v-153.8c0-15.68 27.55-28.38 61.52-28.38 2.54 0 5.04.07 7.5.21z" fill="#ffefee"/><path d="m251.038 217.997c0 .359-.017.735-.051 1.094h-122.936c-.034-.359-.051-.735-.051-1.094 0-15.67 27.547-28.384 61.519-28.384s61.519 12.714 61.519 28.384z" fill="#ffe2e2"/><path d="m128 217.997c0 .359-.017.735-.051 1.094h-122.936c-.034-.359-.051-.735-.051-1.094 0-15.67 27.547-28.384 61.519-28.384s61.519 12.714 61.519 28.384z" fill="#ffe2e2"/><path d="m251.04 218c0 .36-.02.73-.05 1.09h-15c.03-.36.05-.73.05-1.09 0-14.5-23.58-26.47-54.02-28.18 2.46-.14 4.96-.21 7.5-.21 33.97 0 61.52 12.72 61.52 28.39z" fill="#ffcfcf"/><path d="m143 218c0 .36.02.73.05 1.09h-15c-.03-.36-.05-.73-.05-1.09 0-15.67 27.55-28.39 61.52-28.39 2.54 0 5.04.07 7.5.21-30.44 1.71-54.02 13.68-54.02 28.18z" fill="#ffefee"/><path d="m128 218c0 .36-.02.73-.05 1.09h-15c.03-.36.05-.73.05-1.09 0-14.5-23.58-26.47-54.02-28.18 2.46-.14 4.96-.21 7.5-.21 33.97 0 61.52 12.72 61.52 28.39z" fill="#ffcfcf"/><path d="m19.96 218c0 .36.02.73.05 1.09h-15c-.03-.36-.05-.73-.05-1.09 0-15.67 27.55-28.39 61.52-28.39 2.54 0 5.04.07 7.5.21-30.44 1.71-54.02 13.68-54.02 28.18z" fill="#ffefee"/><circle cx="128" cy="128" fill="#f9d335" r="48.6"/><path d="m135.5 176.02c-2.44.38-4.95.58-7.5.58-26.84 0-48.6-21.76-48.6-48.6s21.76-48.6 48.6-48.6c2.55 0 5.06.2 7.5.58-23.28 3.6-41.1 23.73-41.1 48.02s17.82 44.42 41.1 48.02z" fill="#f9e27d"/><path d="m176.6 128c0 26.84-21.76 48.6-48.6 48.6-2.55 0-5.06-.2-7.5-.58 23.28-3.6 41.1-23.73 41.1-48.02s-17.82-44.42-41.1-48.02c2.44-.38 4.95-.58 7.5-.58 26.84 0 48.6 21.76 48.6 48.6z" fill="#f2c300"/><g fill="#5f266d"><path d="m189.519 32.909c-28.611 0-52.396 8.628-61.519 21.021-9.124-12.394-32.908-21.021-61.519-21.021-36.74 0-65.52 14.225-65.52 32.384v153.798c0 2.206 1.868 4 4.051 4h246.026c2.209 0 4-1.791 4-4v-153.798c.001-18.159-28.779-32.384-65.519-32.384zm0 8c33.897 0 57.52 12.851 57.52 24.384v136.969c-24.469-22.197-90.561-22.204-115.039 0v-21.83c27.14-2.053 48.6-24.775 48.6-52.432s-21.46-50.379-48.6-52.432v-10.275c0-11.533 23.622-24.384 57.519-24.384zm-61.519 42.491c24.593 0 44.6 20.007 44.6 44.6s-20.007 44.6-44.6 44.6-44.6-20.007-44.6-44.6 20.007-44.6 44.6-44.6zm-61.519-42.491c33.897 0 57.519 12.851 57.519 24.384v10.275c-27.14 2.053-48.6 24.775-48.6 52.432s21.46 50.379 48.6 52.432v21.83c-24.47-22.197-90.561-22.204-115.039 0v-136.969c0-11.533 23.623-24.384 57.52-24.384zm-57.034 174.182c3.528-10.682 25.965-21.478 57.034-21.478s53.506 10.796 57.033 21.478zm123.039 0c3.527-10.682 25.964-21.478 57.033-21.478s53.506 10.796 57.034 21.478z"/><path d="m123.1 131.9h9.7c2.537 0 4.6 2.063 4.6 4.6s-2.063 4.6-4.6 4.6h-12.9c-.63 0-1.3-.455-1.3-1.3 0-2.209-1.791-4-4-4s-4 1.791-4 4c0 5.128 4.172 9.3 9.3 9.3h4.1v5.2c0 2.209 1.791 4 4 4s4-1.791 4-4v-5.2c8.365 0 13.4-6.009 13.4-12.6 0-6.947-5.652-12.6-12.6-12.6h-9.7c-2.537 0-4.6-2.063-4.6-4.601 0-2.536 2.063-4.6 4.6-4.6h12.9c.844 0 1.3.67 1.3 1.3 0 2.209 1.791 4 4 4 7.1 0 4.314-13.3-5.3-13.3h-4v-4.9c0-2.209-1.791-4-4-4s-4 1.791-4 4v4.9c-8.778 0-13.5 6.299-13.5 12.6 0 6.949 5.652 12.601 12.6 12.601z"/><path d="m237.66 170.134c-1.5-.963-3.188-1.852-5.016-2.641-2.027-.877-4.383.059-5.258 2.086-.876 2.028.058 4.383 2.086 5.258 4.041 1.747 4.111 2.663 6.023 2.663 3.984 0 5.518-5.214 2.165-7.366z"/><path d="m217.169 163.384c-6.62-.969-14.049-1.263-19.767-1.003-5.238.292-4.881 8.216.443 7.988 1.001-.071 9.317-.365 18.163.931 5.247.753 6.383-7.151 1.161-7.916z"/></g></svg>