<svg id="Icon_Set" enable-background="new 0 0 256 256" height="512" viewBox="0 0 256 256" width="512" xmlns="http://www.w3.org/2000/svg"><path d="m223 248h-190c-13.807 0-25-11.193-25-25v-190c0-13.807 11.193-25 25-25h190c13.807 0 25 11.193 25 25v190c0 13.807-11.193 25-25 25z" fill="#3193f3"/><path d="m212.968 200.049h-169.936c-2.761 0-5-2.239-5-5v-107.88c0-2.761 2.239-5 5-5h169.935c2.761 0 5 2.239 5 5v107.88c.001 2.761-2.238 5-4.999 5z" fill="#ffe2e2"/><path d="m169.832 105.661-.09.023c-27.605 7.006-56.522 7.006-84.127 0l-.09-.023c-2.137-.543-3.634-2.466-3.634-4.672v-49.267h91.574v49.267c.001 2.206-1.496 4.129-3.633 4.672z" fill="#87828e"/><path d="m141.265 192.18v39.212c0 1.943-2.573 2.632-3.544.949l-3.246-5.626-6.797-11.768-6.797 11.768-3.246 5.626c-.971 1.683-3.544.994-3.544-.949v-39.212c0-2.097 1.7-3.798 3.798-3.798h19.577c2.099.001 3.799 1.701 3.799 3.798z" fill="#ff4a73"/><path d="m248 33v190c0 13.81-11.19 25-25 25h-15c13.81 0 25-11.19 25-25v-190c0-13.81-11.19-25-25-25h15c13.81 0 25 11.19 25 25z" fill="#307fed"/><path d="m48 248h-15c-13.81 0-25-11.19-25-25v-190c0-13.81 11.19-25 25-25h15c-13.81 0-25 11.19-25 25v190c0 13.81 11.19 25 25 25z" fill="#35b1fc"/><path d="m217.97 87.17v107.88c0 2.76-2.24 5-5 5h-15c2.76 0 5-2.24 5-5v-107.88c0-2.76-2.24-5-5-5h15c2.76 0 5 2.24 5 5z" fill="#ffcfcf"/><path d="m58.03 200.05h-15c-2.76 0-5-2.24-5-5v-107.88c0-2.76 2.24-5 5-5h15c-2.76 0-5 2.24-5 5v107.88c0 2.76 2.24 5 5 5z" fill="#ffefee"/><path d="m173.47 51.72v49.27c0 2.2-1.5 4.13-3.64 4.67l-.09.02c-16.24 4.12-32.94 5.82-49.56 5.09 11.62-.51 23.2-2.21 34.56-5.09l.09-.02c2.14-.54 3.64-2.47 3.64-4.67v-49.27z" fill="#796e84"/><path d="m135.18 110.77c-16.62.73-33.32-.97-49.56-5.09l-.09-.02c-2.14-.54-3.64-2.47-3.64-4.67v-49.27h15v49.27c0 2.2 1.5 4.13 3.64 4.67l.09.02c11.36 2.88 22.94 4.58 34.56 5.09z" fill="#a4a4a5"/><path d="m93.461 33.951-29.301 11.141c-1.719.654-1.719 3.085 0 3.739l29.301 11.141 33.507 12.74c.458.174.964.174 1.422 0l33.507-12.74 29.301-11.141c1.719-.654 1.719-3.085 0-3.739l-29.301-11.141-33.507-12.74c-.458-.174-.964-.174-1.422 0z" fill="#87828e"/><path d="m191.2 48.83-29.3 11.14-33.51 12.74c-.46.18-.96.18-1.42 0l-14.79-5.62 18.72-7.12 29.3-11.14c1.72-.65 1.72-3.08 0-3.74l-29.3-11.14-18.72-7.12 14.79-5.62c.46-.17.96-.17 1.42 0l33.51 12.74 29.3 11.14c1.72.66 1.72 3.09 0 3.74z" fill="#796e84"/><path d="m123.46 59.97 19.22 7.31-14.29 5.43c-.46.18-.96.18-1.42 0l-33.51-12.74-29.3-11.14c-1.72-.65-1.72-3.08 0-3.74l29.3-11.14 33.51-12.74c.46-.17.96-.17 1.42 0l14.29 5.43-19.22 7.31-29.3 11.14c-1.72.66-1.72 3.09 0 3.74z" fill="#a4a4a5"/><path d="m131.48 188.38c-2.1 0-3.8 1.7-3.8 3.8v22.77l-6.8 11.76-3.24 5.63c-.97 1.68-3.55 1-3.55-.95v-39.21c0-2.1 1.7-3.8 3.8-3.8z" fill="#f973a3"/><circle cx="127.679" cy="182.638" fill="#f9d335" r="19.638"/><path d="m135.18 200.8c-2.31.95-4.84 1.48-7.5 1.48-10.83 0-19.64-8.81-19.64-19.64s8.81-19.64 19.64-19.64c2.66 0 5.19.53 7.5 1.48-7.12 2.96-12.14 9.98-12.14 18.16s5.02 15.2 12.14 18.16z" fill="#f9e27d"/><g fill="#5f266d"><path d="m223 4h-190c-15.99 0-29 13.01-29 29v190c0 15.99 13.01 29 29 29h190c15.99 0 29-13.01 29-29v-190c0-15.99-13.01-29-29-29zm21 219c0 11.58-9.42 21-21 21h-190c-11.58 0-21-9.42-21-21v-190c0-11.58 9.42-21 21-21h190c11.58 0 21 9.42 21 21z"/><path d="m212.97 78.17h-11.9c-.45-2.12-2.25-3.74-4.45-3.92v-27.64c0-1.529-1.4-4.274-4-5.26l-62.81-23.88c-1.37-.52-2.89-.52-4.26 0-10.413 3.959-55.41 21.066-62.81 23.88-5.173 1.981-5.138 9.274 0 11.22l15.15 5.76v19.84h-34.86c-4.96 0-9 4.04-9 9v107.88c0 4.96 4.04 9 9 9h67.06v27.34c0 6.013 7.998 8.193 11.01 2.95l6.58-11.4 6.58 11.4c3.009 5.216 11 3.09 11-2.95v-27.34h67.71c4.96 0 9-4.04 9-9v-107.88c0-4.96-4.04-9-9-9zm1 116.88c0 .55-.45 1-1 1h-65.83c2.63-3.81 4.18-8.43 4.18-13.41 0-13.04-10.61-23.64-23.64-23.64-13.04 0-23.64 10.6-23.64 23.64 0 4.98 1.55 9.6 4.18 13.41h-65.19c-.55 0-1-.45-1-1v-107.88c0-.55.45-1 1-1h34.86v14.82c0 4.04 2.74 7.55 6.74 8.57 14.09 3.58 28.57 5.36 43.05 5.36s28.96-1.78 43.03-5.36l.09-.02h.02c3.91-1 6.65-4.51 6.65-8.55v-14.82h6.59v.17c0 1.61.75 3.04 1.93 3.95l-4.08 4.08c-3.727 3.727 1.923 9.386 5.66 5.65l1.05-1.05v1.49c0 5.285 8 5.293 8 0v-1.49l1.05 1.05c3.747 3.747 9.378-1.922 5.65-5.65l-4.08-4.08c1.18-.91 1.94-2.34 1.94-3.95v-.17h11.79c.55 0 1 .45 1 1zm-86.29 15.9c-1.43 0-2.75.76-3.47 2l-6.12 10.6v-19.31c2.93 1.31 6.18 2.04 9.59 2.04s6.65-.73 9.58-2.03v19.3l-6.12-10.6c-.71-1.24-2.03-2-3.46-2zm-15.64-28.31c0-8.62 7.02-15.64 15.64-15.64s15.64 7.02 15.64 15.64c0 8.625-7.038 15.64-15.64 15.64-8.574 0-15.64-6.986-15.64-15.64zm-26.15-121.27 39.66 15.08c1.38.52 2.88.52 4.26 0l39.66-15.08v39.62c0 .37-.26.7-.62.79-.02.01-.09.03-.09.03-26.87 6.82-55.28 6.82-82.25-.03-.36-.09-.62-.42-.62-.79 0-18.165 0-21.219 0-39.62zm102.73 12.88c-2.21.18-4 1.8-4.45 3.92h-6.7v-19.84l11.15-4.24zm-60.94-5.55c-.941-.358-56.218-21.375-57.18-21.74l57.18-21.74 57.18 21.74c-.651.247-56.541 21.497-57.18 21.74z"/><path d="m93.49 133.21h71.14c5.284 0 5.295-8 0-8h-71.14c-5.285 0-5.293 8 0 8z"/><path d="m182.81 144.09h-107.51c-5.287 0-5.285 8 0 8h107.51c5.281 0 5.294-8 0-8z"/><path d="m122.09 184.98c.25.24.36.59.3.94-.515 3.018-.342 1.999-.76 4.47-.15.87.76 1.53 1.54 1.12l4.01-2.11c.31-.17.68-.17.99 0l4.02 2.11c.78.41 1.69-.25 1.54-1.12-.43-2.47-.254-1.45-.77-4.47-.06-.35.06-.7.31-.94.91-.88.265-.253 3.25-3.17.63-.61.28-1.69-.59-1.81l-4.49-.65c-.35-.05-.65-.27-.8-.59l-2.01-4.06c-.39-.79-1.51-.79-1.9 0l-2.01 4.06c-.16.32-.46.54-.8.59l-4.49.65c-.87.12-1.22 1.2-.59 1.81 2.985 2.917 2.34 2.29 3.25 3.17z"/><path d="m57.1 29.06h5.64c5.285 0 5.293-8 0-8h-5.64c-5.285 0-5.293 8 0 8z"/><path d="m42.1 21.06h-8.32c-7.05 0-12.78 5.73-12.78 12.78v17.88c0 5.285 8 5.293 8 0v-17.88c0-2.63 2.15-4.78 4.78-4.78h8.32c5.284 0 5.295-8 0-8z"/><path d="m63.74 92.89h-10.74c-2.21 0-4 1.79-4 4v12.86c0 5.285 8 5.293 8 0 0-4.989 0-3.931 0-8.86h6.74c5.285 0 5.293-8 0-8z"/><path d="m198.97 172.08v8.86c-2.482 0-4.325 0-6.74 0-5.285 0-5.293 8 0 8h10.74c2.21 0 4-1.79 4-4v-12.86c0-5.285-8-5.293-8 0z"/></g></svg>