<svg id="Icon_Set" enable-background="new 0 0 256 256" height="512" viewBox="0 0 256 256" width="512" xmlns="http://www.w3.org/2000/svg"><path d="m99.674 213.63h56.544v36.545h-56.544z" fill="#87828e"/><path d="m224.116 213.63h-192.34c-5.523 0-10-4.477-10-10v-121.455c0-5.523 4.477-10 10-10h192.341c5.523 0 10 4.477 10 10v121.455c-.001 5.523-4.478 10-10.001 10z" fill="#87828e"/><path d="m213.055 198.701h-170.217c-2.781 0-5.036-2.255-5.036-5.036v-101.525c0-2.781 2.255-5.036 5.036-5.036h170.217c2.781 0 5.036 2.255 5.036 5.036v101.524c0 2.782-2.255 5.037-5.036 5.037z" fill="#5fcdff"/><path d="m155.607 102.946c-15.275 0-27.66 5.709-27.66 12.762 0-7.053-12.386-12.762-27.66-12.762s-27.66 5.709-27.66 12.762v68.659.492h.023 55.275.046 55.275.023v-.492-68.659c-.002-7.053-12.388-12.762-27.662-12.762z" fill="#ffe2e2"/><path d="m234.116 82.175v121.45c0 5.53-4.48 10-10 10h-15c5.52 0 10-4.47 10-10v-121.45c0-5.52-4.48-10-10-10h15c5.52 0 10 4.48 10 10z" fill="#796e84"/><path d="m46.776 213.625h-15c-5.52 0-10-4.47-10-10v-121.45c0-5.52 4.48-10 10-10h15c-5.52 0-10 4.48-10 10v121.45c0 5.53 4.48 10 10 10z" fill="#a4a4a5"/><path d="m218.086 92.145v101.52c0 2.78-2.25 5.04-5.03 5.04h-15c2.78 0 5.03-2.26 5.03-5.04v-101.52c0-2.79-2.25-5.04-5.03-5.04h15c2.78 0 5.03 2.25 5.03 5.04z" fill="#30b6ff"/><path d="m57.836 198.705h-15c-2.78 0-5.03-2.26-5.03-5.04v-101.52c0-2.79 2.25-5.04 5.03-5.04h15c-2.78 0-5.03 2.25-5.03 5.04v101.52c0 2.78 2.25 5.04 5.03 5.04z" fill="#73d7f9"/><path d="m183.266 115.705v69.15h-15v-69.15c0-5.85-8.53-10.78-20.16-12.28 2.38-.31 4.9-.48 7.5-.48 15.28 0 27.66 5.71 27.66 12.76z" fill="#ffcfcf"/><path d="m107.786 103.425c-11.63 1.5-20.16 6.43-20.16 12.28v69.15h-15v-69.15c0-7.05 12.38-12.76 27.66-12.76 2.6 0 5.12.17 7.5.48z" fill="#ffefee"/><path d="m141.216 213.625h15v36.55h-15z" fill="#796e84"/><path d="m99.676 213.625h15v36.55h-15z" fill="#a4a4a5"/><path d="m183.267 184.367c0 .161-.008.33-.023.492h-55.275c-.015-.161-.023-.33-.023-.492 0-7.046 12.386-12.762 27.66-12.762s27.661 5.717 27.661 12.762z" fill="#ffe2e2"/><path d="m127.946 184.367c0 .161-.008.33-.023.492h-55.275c-.015-.161-.023-.33-.023-.492 0-7.046 12.386-12.762 27.66-12.762s27.661 5.717 27.661 12.762z" fill="#ffe2e2"/><path d="m183.266 184.365c0 .16-.01.33-.02.49h-15c.01-.16.02-.33.02-.49 0-5.84-8.53-10.78-20.16-12.28 2.38-.31 4.9-.48 7.5-.48 15.28 0 27.66 5.72 27.66 12.76z" fill="#ffcfcf"/><path d="m142.946 184.365c0 .16.01.33.02.49h-15c-.01-.16-.02-.33-.02-.49 0-7.04 12.39-12.76 27.66-12.76 2.6 0 5.11.17 7.5.48-11.63 1.51-20.16 6.44-20.16 12.28z" fill="#ffefee"/><path d="m127.946 184.365c0 .16-.01.33-.02.49h-15c.01-.16.02-.33.02-.49 0-5.84-8.53-10.77-20.16-12.28 2.39-.31 4.9-.48 7.5-.48 15.27 0 27.66 5.72 27.66 12.76z" fill="#ffcfcf"/><path d="m87.626 184.365c0 .16.01.33.02.49h-15c-.01-.16-.02-.33-.02-.49 0-7.04 12.38-12.76 27.66-12.76 2.6 0 5.12.17 7.5.48-11.63 1.5-20.16 6.44-20.16 12.28z" fill="#ffefee"/><path d="m207.426 75.975c-1.49.33-2.98.56-4.47.68.99-.9 1.78-1.37 2.28-1.23.72.21 1.45.39 2.19.55z" fill="#ffcfcf"/><path d="m247.848 29.88c6.565 18.192-2.861 38.262-21.053 44.826-7.21 2.602-14.715 2.692-21.558.72-3.186-.918-18.344 23.512-21.146 21.745-2.892-1.824 6.588-29.872 4.314-32.501-2.729-3.156-4.936-6.858-6.437-11.017-6.565-18.192 2.861-38.262 21.053-44.826s38.262 2.861 44.827 21.053z" fill="#ffe2e2"/><path d="m40.252 5.829c18.882 0 34.189 15.307 34.189 34.189 0 7.484-2.404 14.406-6.483 20.036-1.899 2.622 7.219 30.2 4.668 32.188-2.634 2.05-16.956-21.512-20.124-20.296-3.803 1.46-7.933 2.26-12.25 2.26-18.882 0-34.189-15.307-34.189-34.189s15.307-34.188 34.189-34.188z" fill="#ffe2e2"/><path d="m150.117 16.817c12.245 12.245 12.245 32.097 0 44.342-4.853 4.853-10.901 7.783-17.197 8.789-2.932.469-5.917 26.037-8.861 25.672-3.038-.377-6.031-26.716-8.874-27.982-3.413-1.519-6.61-3.679-9.41-6.478-12.245-12.245-12.245-32.097 0-44.342s32.097-12.245 44.342-.001z" fill="#ffe2e2"/><path d="m72.626 92.245c-2.21 1.73-12.71-14.7-17.87-19.22-1.43-6.24-2.61-11.86-1.8-12.97 4.08-5.63 6.48-12.55 6.48-20.04 0-16.3-11.41-29.94-26.68-33.36 2.41-.55 4.92-.83 7.5-.83 18.88 0 34.18 15.31 34.18 34.19 0 7.49-2.4 14.41-6.48 20.04-1.9 2.62 7.22 30.2 4.67 32.19z" fill="#ffcfcf"/><path d="m47.756 73.375c-2.42.54-4.93.83-7.5.83-18.89 0-34.19-15.31-34.19-34.19s15.3-34.19 34.19-34.19c2.58 0 5.09.29 7.5.83-15.28 3.41-26.69 17.05-26.69 33.36s11.41 29.95 26.69 33.36z" fill="#ffefee"/><path d="m150.116 61.155c-4.85 4.86-10.9 7.79-17.2 8.79-2.93.47-5.91 26.04-8.86 25.68-2.43-.3-4.83-17.2-7.14-24.61.33-.63.66-1.02 1-1.07 6.3-1 12.35-3.93 17.2-8.79 12.25-12.24 12.25-32.09 0-44.34-4.2-4.2-9.29-6.96-14.67-8.27 10.29-2.53 21.63.23 29.67 8.27 12.25 12.25 12.25 32.1 0 44.34z" fill="#ffcfcf"/><path d="m131.916 71.015c-2.61 4.91-5.25 24.93-7.86 24.61-3.04-.38-6.03-26.72-8.87-27.99-3.41-1.52-6.61-3.68-9.41-6.48-12.25-12.24-12.25-32.09 0-44.34 8.04-8.04 19.38-10.8 29.67-8.27-5.38 1.31-10.47 4.07-14.67 8.27-12.25 12.25-12.25 32.1 0 44.34 2.8 2.8 6 4.96 9.41 6.48.57.26 1.15 1.52 1.73 3.38z" fill="#ffefee"/><path d="m226.796 74.705c-6.45 2.33-13.14 2.64-19.37 1.27 1.46-.33 2.92-.75 4.37-1.27 18.19-6.56 27.62-26.63 21.05-44.83-4.23-11.75-14.1-19.83-25.46-22.32 16.93-3.74 34.42 5.58 40.46 22.32 6.57 18.2-2.86 38.27-21.05 44.83z" fill="#ffcfcf"/><path d="m196.966 53.655c1.5 4.16 3.71 7.86 6.44 11.01.96 1.12-.19 6.81-1.62 13.14-5.65 5.95-15.49 20.75-17.69 19.37-2.9-1.83 6.58-29.88 4.31-32.51-2.73-3.15-4.94-6.85-6.44-11.01-6.56-18.19 2.86-38.26 21.06-44.83 6.45-2.33 13.13-2.64 19.36-1.27-1.46.33-2.92.75-4.36 1.27-18.2 6.57-27.62 26.64-21.06 44.83z" fill="#ffefee"/><g fill="#5f266d"><path d="m72.648 188.86h110.59c2.261 0 4.03-1.806 4.03-4v-69.15c0-9.56-13.61-16.77-31.66-16.77-12.19 0-22.35 3.29-27.66 8.36-5.32-5.07-15.48-8.36-27.66-8.36-18.05 0-31.66 7.21-31.66 16.77v69.15c0 1 .956 4 4.02 4zm6.5-8c3.71-2.72 11.27-5.26 21.14-5.26 9.86 0 17.42 2.54 21.13 5.26zm55.32 0c3.71-2.72 11.27-5.26 21.14-5.26 9.86 0 17.42 2.54 21.13 5.26zm21.14-73.92c14.22 0 23.66 5.28 23.66 8.77v57.29c-5.71-3.36-14.06-5.4-23.66-5.4s-17.95 2.04-23.66 5.4v-57.29c0-3.49 9.43-8.77 23.66-8.77zm-78.98 8.77c0-3.49 9.43-8.77 23.66-8.77 14.22 0 23.66 5.28 23.66 8.77v57.29c-5.71-3.36-14.06-5.4-23.66-5.4s-17.95 2.04-23.66 5.4z"/><path d="m231.498 6.45c-19.454-9.15-42.72-.853-51.91 18.73-6.695 14.252-3.974 30.254 5.18 41.38-.01.42-.06.96-.15 1.61h-36.71c9.164-6.245 15.39-16.904 15.39-29.18 0-47.598-70.71-45.955-70.71 0 0 12.228 6.199 22.937 15.41 29.18h-35.22c-.58-2.72-1.05-5.24-1.09-6.47 4.42-6.39 6.75-13.87 6.75-21.68 0-21.06-17.13-38.19-38.19-38.19s-38.19 17.13-38.19 38.19c0 14.1 7.69 26.44 19.09 33.05-2.1 2.44-3.37 5.63-3.37 9.1v121.46c0 7.72 6.28 14 14 14h63.89v28.54h-6.33c-5.285 0-5.293 8 0 8h77.21c5.285 0 5.293-8 0-8h-6.33v-28.54h63.9c7.72 0 14-6.28 14-14v-121.46c0-2.76-.8-5.34-2.19-7.51 6.17-3.93 11.12-9.52 14.3-16.31 9.166-19.511.784-42.733-18.73-51.9zm-191.25 3.38c16.65 0 30.19 13.54 30.19 30.19 0 6.4-1.98 12.52-5.72 17.69-2.452 3.381-.008 10.48 3.04 24.57-6.263-7.922-9.875-12.875-13.27-14.11-1.131-.411-2.213-.388-3.3 0-.04.01-.08.02-.12.04-19.844 7.593-41.01-7.173-41.01-28.19 0-16.65 13.55-30.19 30.19-30.19zm24.4 81.27c7.735 8.867 12.165 4.733 12.42 0h40.5c3.037 11.259 9.916 11.582 13.09 0h49.25c-1.644 10.766 3.408 16.127 16.17 0h16.97c.58 0 1.04.47 1.04 1.04v101.52c0 .57-.46 1.04-1.04 1.04h-170.21c-.57 0-1.04-.47-1.04-1.04v-101.52c0-.57.47-1.04 1.04-1.04zm52.16-27.12c-9.522-4.232-16.22-13.811-16.22-24.99 0-15.2 12.294-27.34 27.36-27.34 15.014 0 27.35 12.093 27.35 27.34 0 13.805-10.112 24.932-23.01 27.01-1.4.22-2.45.92-3.33 2.17-2.21 3.163-3.522 10.807-4.82 16-1.941-8.729-2.815-13.015-3.98-16-.9-2.31-1.89-3.54-3.35-4.19zm89.53 7.6c-4.695-1.354-8.131 4.074-17.61 15.9 1.429-6.777 3.519-14.817 3.94-19.31.29-3-.08-4.77-1.24-6.12-7.652-8.856-10.044-21.871-4.6-33.47 7.28-15.512 25.754-22.181 41.26-14.89 15.518 7.283 22.195 25.74 14.89 41.26-6.572 14.028-22.258 20.784-36.64 16.63zm-23.28 4.59c-.184.805-1.361 5.993-1.57 6.93h-48.89c.5-2.17 1.12-4.83 1.71-6.93zm-68.91 0c.47 1.99.94 4.15 1.33 5.92.07.34.15.68.22 1.01h-39.59c-.4-1.98-.91-4.27-1.52-6.93zm38.07 170h-48.55v-28.54h48.55zm77.9-164v121.46c0 3.31-2.69 6-6 6-8.092 0-185.337 0-192.34 0-3.31 0-6-2.69-6-6v-121.46c0-2.48 1.51-4.62 3.66-5.53 7.159 2.128 15.249 2.16 22.93-.4 1.41 1.31 3.81 4.28 5.85 6.86h-15.38c-4.98 0-9.04 4.06-9.04 9.04v101.52c0 4.99 4.06 9.04 9.04 9.04h170.21c4.99 0 9.04-4.05 9.04-9.04v-101.52c0-4.98-4.05-9.04-9.04-9.04h-10.58c1.2-1.45 2.32-2.72 3.11-3.44 8.157 2.015 16.815 1.188 23.09-1.39.91 1.05 1.45 2.42 1.45 3.9z"/><path d="m219.858 40.37 6.96-11.14c1.22-1.95-.18-4.5-2.49-4.5h-2.95c-1.05 0-2.01.56-2.54 1.47-.27.46-3.65 6.26-3.91 6.72 0 0-3.77-6.67-3.77-6.69-.52-.92-1.5-1.5-2.57-1.5h-3c-2.28 0-3.69 2.49-2.52 4.45l6.75 11.36-7.06 11.68c-1.18 1.96.23 4.46 2.52 4.46h2.95c1.07 0 2.06-.59 2.58-1.53 4.39-8.03 2.44-4.49 3.97-7.16 1.62 2.67 4.21 7.21 4.21 7.22.53.91 1.5 1.47 2.55 1.47h3c2.29 0 3.7-2.51 2.51-4.47z"/><path d="m137.028 53.34c.8-.4 1.29-1.22 1.29-2.08 0-.2-.03-.39-.08-.59l-.67-2.57c-.37-1.42-1.95-2.15-3.27-1.51-2.167 1.052-11.59 2.718-11.59-6.96 0-8.923 8.228-8.83 11.52-7.21 1.269.616 2.831-.046 3.25-1.44l.78-2.64c.628-2.166-1.394-3.05-3.49-3.57-10.17-2.63-20.14 3.427-20.14 14.98 0 8.99 5.92 15.03 14.73 15.03 3 0 5.87-.54 7.67-1.44z"/><path d="m30.918 54.28 1.84-5.09c.11-.31.4-.51.73-.51h12.09c.33 0 .62.2.73.51l1.84 5.09c1.22 3.37 7.39 1.82 6.05-1.89l-10.76-29.7c-.4-1.09-1.44-1.83-2.61-1.83h-2.55c-1.16 0-2.21.74-2.61 1.83l-10.8 29.7c-1.38 3.81 4.84 5.24 6.05 1.89zm4.36-12.19 3.52-9.85c.25-.68 1.22-.68 1.46 0l3.53 9.85c.18.51-.2 1.04-.73 1.04h-7.05c-.54 0-.91-.53-.73-1.04z"/><path d="m85.338 152.67v1.5c0 5.285 8 5.293 8 0v-1.5c0-5.285-8-5.293-8 0z"/><path d="m85.338 124.67v13c0 5.285 8 5.293 8 0v-13c0-5.285-8-5.293-8 0z"/></g></svg>