<svg id="Icon_Set" enable-background="new 0 0 256 256" height="512" viewBox="0 0 256 256" width="512" xmlns="http://www.w3.org/2000/svg"><path d="m189.519 36.909c-33.972 0-61.519 12.697-61.519 28.384 0-15.687-27.547-28.384-61.519-28.384s-61.519 12.697-61.519 28.384v152.704 1.094h.051 122.936.103 122.936.051v-1.094-152.704c0-15.687-27.547-28.384-61.52-28.384z" fill="#ffe2e2"/><path d="m251.04 65.29v153.8h-15v-153.8c0-14.51-23.58-26.46-54.02-28.17 2.46-.14 4.96-.21 7.5-.21 33.97 0 61.52 12.7 61.52 28.38z" fill="#ffcfcf"/><path d="m73.98 37.12c-30.44 1.71-54.02 13.66-54.02 28.17v153.8h-15v-153.8c0-15.68 27.55-28.38 61.52-28.38 2.54 0 5.04.07 7.5.21z" fill="#ffefee"/><path d="m251.039 217.997c0 .359-.017.735-.051 1.094h-122.936c-.034-.359-.051-.735-.051-1.094 0-15.67 27.547-28.384 61.519-28.384s61.519 12.714 61.519 28.384z" fill="#ffe2e2"/><path d="m128 217.997c0 .359-.017.735-.051 1.094h-122.936c-.034-.359-.051-.735-.051-1.094 0-15.67 27.547-28.384 61.519-28.384s61.519 12.714 61.519 28.384z" fill="#ffe2e2"/><path d="m251.04 218c0 .36-.02.73-.05 1.09h-15c.03-.36.05-.73.05-1.09 0-14.5-23.58-26.47-54.02-28.18 2.46-.14 4.96-.21 7.5-.21 33.97 0 61.52 12.72 61.52 28.39z" fill="#ffcfcf"/><path d="m143 218c0 .36.02.73.05 1.09h-15c-.03-.36-.05-.73-.05-1.09 0-15.67 27.55-28.39 61.52-28.39 2.54 0 5.04.07 7.5.21-30.44 1.71-54.02 13.68-54.02 28.18z" fill="#ffefee"/><path d="m128 218c0 .36-.02.73-.05 1.09h-15c.03-.36.05-.73.05-1.09 0-14.5-23.58-26.47-54.02-28.18 2.46-.14 4.96-.21 7.5-.21 33.97 0 61.52 12.72 61.52 28.39z" fill="#ffcfcf"/><path d="m19.96 218c0 .36.02.73.05 1.09h-15c-.03-.36-.05-.73-.05-1.09 0-15.67 27.55-28.39 61.52-28.39 2.54 0 5.04.07 7.5.21-30.44 1.71-54.02 13.68-54.02 28.18z" fill="#ffefee"/><path d="m92.872 120.093-12.461 44.969c-1.245 4.494 2.135 8.938 6.799 8.938 3.176 0 5.961-2.123 6.803-5.185l13.392-48.722z" fill="#5fcdff"/><path d="m109.896 120.093h-19.513c-8.342 0-15.104-6.762-15.104-15.104 0-8.342 6.762-15.104 15.104-15.104h19.513z" fill="#3193f3"/><path d="m160.298 147.686-50.403-27.593v-30.208l50.769-22.617c3.307-1.473 7.035.947 7.035 4.567v71.465c0 3.799-4.069 6.21-7.401 4.386z" fill="#5fcdff"/><path d="m167.699 91.761.123 31.932c3.14-.658 5.937-2.228 8.121-4.411 2.956-2.955 4.78-7.033 4.78-11.541-.001-7.876-5.587-14.454-13.024-15.98z" fill="#f9d335"/><path d="m109.9 89.88v15.25h-19.52c-4.17 0-7.94 1.69-10.68 4.43-.91.91-1.7 1.94-2.35 3.06-1.32-2.24-2.07-4.85-2.07-7.63 0-4.17 1.69-7.95 4.42-10.68 2.74-2.74 6.51-4.43 10.68-4.43z" fill="#35b1fc"/><path d="m167.7 71.84v15.25c0-3.63-3.73-6.05-7.04-4.57l-50.76 22.61v-15.25l50.76-22.61c3.31-1.48 7.04.94 7.04 4.57z" fill="#73d7f9"/><g fill="#5f266d"><path d="m189.52 32.909c-28.611 0-52.396 8.628-61.52 21.021-9.124-12.394-32.908-21.021-61.519-21.021-36.74 0-65.52 14.225-65.52 32.384v153.798c0 2.296 1.972 4 4.051 4h246.025c2.209 0 4-1.791 4-4v-153.798c.001-18.159-28.778-32.384-65.517-32.384zm-27.229 38.013c.665-.298 1.408.184 1.408.913v71.466c0 .765-.809 1.243-1.48.877l-48.323-26.455v-25.242c14.448-6.436 19.681-8.768 48.395-21.559zm-152.843 144.169c3.528-10.682 25.965-21.478 57.034-21.478s53.506 10.796 57.033 21.478zm114.552-12.829c-24.47-22.197-90.561-22.204-115.039 0v-136.969c0-11.533 23.623-24.384 57.52-24.384s57.519 12.851 57.519 24.384v13.929l-14.956 6.663h-18.661c-10.534 0-19.104 8.569-19.104 19.104 0 9.612 7.142 17.566 16.393 18.889l-11.116 40.115c-1.95 7.043 3.337 14.007 10.654 14.007 4.961 0 9.345-3.341 10.66-8.124l12.377-45.031 13.754 7.53v69.887zm-33.617-86.169c-6.123 0-11.104-4.981-11.104-11.104 0-6.122 4.981-11.104 11.104-11.104h15.513v22.208zm11.774 8-12.001 43.662c-1.089 3.965-6.949 2.19-5.89-1.625l11.649-42.037zm30.329 90.998c3.528-10.682 25.965-21.478 57.034-21.478 31.068 0 53.505 10.796 57.033 21.478zm114.552-12.829c-24.47-22.197-90.561-22.204-115.038 0v-65.507l26.377 14.44h.001c6.003 3.285 13.321-1.063 13.321-7.895v-16.6c17.332-6.636 17.28-31.243 0-37.911v-16.954c0-6.515-6.711-10.87-12.663-8.222l-27.036 12.045v-10.365c0-11.533 23.622-24.384 57.52-24.384 33.896 0 57.519 12.851 57.519 24.384v136.969zm-75.316-104.421c6.633 4.925 6.669 14.794.076 19.756z"/><path d="m237.66 170.134c-1.5-.963-3.188-1.852-5.016-2.641-2.027-.877-4.383.059-5.258 2.086-.876 2.028.058 4.383 2.086 5.258 4.041 1.747 4.111 2.663 6.023 2.663 3.984 0 5.518-5.214 2.165-7.366z"/><path d="m217.169 163.384c-6.62-.969-14.049-1.263-19.767-1.003-5.238.292-4.881 8.216.443 7.988 1.001-.071 9.317-.365 18.163.931 5.247.753 6.383-7.151 1.161-7.916z"/></g></svg>