<svg id="Icon_Set" enable-background="new 0 0 256 256" height="512" viewBox="0 0 256 256" width="512" xmlns="http://www.w3.org/2000/svg"><path d="m25.917 239.599v-223.198c0-5.523 4.477-10 10-10h184.167c5.523 0 10 4.477 10 10v223.199c0 5.523-4.477 10-10 10h-184.167c-5.523-.001-10-4.478-10-10.001z" fill="#ffe2e2"/><path d="m200.801 210.5h-145.602c-5.523 0-10-4.477-10-10v-145.301c0-5.523 4.477-10 10-10h145.603c5.523 0 10 4.477 10 10v145.301c-.001 5.523-4.478 10-10.001 10z" fill="#5fcdff"/><path d="m210.8 55.2v145.3c0 5.52-4.48 10-10 10h-15c5.52 0 10-4.48 10-10v-145.3c0-5.52-4.48-10-10-10h15c5.52 0 10 4.48 10 10z" fill="#30b6ff"/><path d="m70.2 210.5h-15c-5.52 0-10-4.48-10-10v-145.3c0-5.52 4.48-10 10-10h15c-5.52 0-10 4.48-10 10v145.3c0 5.52 4.48 10 10 10z" fill="#73d7f9"/><path d="m230.08 16.4v223.2c0 5.52-4.47 10-10 10h-15c5.53 0 10-4.48 10-10v-223.2c0-5.52-4.47-10-10-10h15c5.53 0 10 4.48 10 10z" fill="#ffcfcf"/><path d="m50.92 249.6h-15c-5.53 0-10-4.48-10-10v-223.2c0-5.52 4.47-10 10-10h15c-5.53 0-10 4.48-10 10v223.2c0 5.52 4.47 10 10 10z" fill="#ffefee"/><path d="m161 67.853c-18.223 0-33 6.811-33 15.226 0-8.415-14.777-15.226-33-15.226s-33 6.811-33 15.226v81.913.587h.028 65.945.055 65.945.027v-.587-81.913c0-8.415-14.777-15.226-33-15.226z" fill="#ffe2e2"/><path d="m194 83.08v82.5h-15v-82.5c0-7.23-10.89-13.27-25.5-14.83 2.41-.26 4.92-.4 7.5-.4 18.22 0 33 6.81 33 15.23z" fill="#ffcfcf"/><path d="m102.5 68.25c-14.61 1.56-25.5 7.6-25.5 14.83v82.5h-15v-82.5c0-8.42 14.78-15.23 33-15.23 2.58 0 5.09.14 7.5.4z" fill="#ffefee"/><path d="m194 164.992c0 .193-.009.394-.028.587h-65.945c-.018-.193-.028-.394-.028-.587 0-8.406 14.777-15.226 33-15.226s33.001 6.821 33.001 15.226z" fill="#ffe2e2"/><path d="m128 164.992c0 .193-.009.394-.028.587h-65.944c-.018-.193-.028-.394-.028-.587 0-8.406 14.777-15.226 33-15.226s33 6.821 33 15.226z" fill="#ffe2e2"/><path d="m194 164.99c0 .2-.01.4-.03.59h-15c.02-.19.03-.39.03-.59 0-7.21-10.89-13.26-25.5-14.82 2.41-.26 4.92-.4 7.5-.4 18.22 0 33 6.82 33 15.22z" fill="#ffcfcf"/><path d="m128 164.99c0 .2-.01.4-.03.59h-15c.02-.19.03-.39.03-.59 0-7.21-10.89-13.26-25.5-14.82 2.41-.26 4.92-.4 7.5-.4 18.22 0 33 6.82 33 15.22z" fill="#ffcfcf"/><path d="m143 164.99c0 .2.01.4.03.59h-15c-.02-.19-.03-.39-.03-.59 0-8.4 14.78-15.22 33-15.22 2.58 0 5.09.14 7.5.4-14.61 1.56-25.5 7.61-25.5 14.82z" fill="#ffefee"/><path d="m77 164.99c0 .2.01.4.03.59h-15c-.02-.19-.03-.39-.03-.59 0-8.4 14.78-15.22 33-15.22 2.58 0 5.09.14 7.5.4-14.61 1.56-25.5 7.61-25.5 14.82z" fill="#ffefee"/><g fill="#5f266d"><path d="m143.01 226.45h-29.21c-5.288 0-5.285 8 0 8h29.21c5.285 0 5.293-8 0-8z"/><path d="m220.08 2.4h-184.16c-7.72 0-14 6.28-14 14v223.2c0 7.72 6.28 14 14 14h184.16c7.72 0 14-6.28 14-14v-223.2c0-7.72-6.28-14-14-14zm6 237.2c0 3.31-2.69 6-6 6h-184.16c-3.31 0-6-2.69-6-6v-223.2c0-3.31 2.69-6 6-6h184.16c3.31 0 6 2.69 6 6z"/><path d="m200.8 41.2h-145.6c-7.72 0-14 6.28-14 14v145.6c0 7.72 6.28 14 14 14h145.6c7.72 0 14-6.28 14-14v-145.6c0-7.72-6.28-14-14-14zm6 159.6c0 3.31-2.69 6-6 6h-145.6c-3.31 0-6-2.69-6-6v-145.6c0-3.31 2.69-6 6-6h145.6c3.31 0 6 2.69 6 6z"/><path d="m165.67 31.38c3.47 0 6.28-2.82 6.28-6.29s-2.81-6.29-6.28-6.29c-3.48 0-6.29 2.82-6.29 6.29s2.81 6.29 6.29 6.29z"/><path d="m183.17 29.06c2.19 0 3.97-1.78 3.97-3.97s-1.78-3.97-3.97-3.97c-2.2 0-3.97 1.78-3.97 3.97s1.77 3.97 3.97 3.97z"/><path d="m161 63.85c-14.77 0-27 4.06-33 10.25-6-6.19-18.23-10.25-33-10.25-21.09 0-37 8.27-37 19.23v82.5c0 2.144 1.779 4 4.03 4h131.94c2.177 0 4.03-1.738 4.03-4v-82.5c0-10.96-15.91-19.23-37-19.23zm-95 19.23c0-4.58 11.3-11.23 29-11.23s29 6.65 29 11.23v69.7c-6.67-4.33-16.99-7.01-29-7.01s-22.33 2.68-29 7.01zm1.77 78.5c3.82-3.89 13.64-7.81 27.23-7.81s23.41 3.92 27.23 7.81zm66 0c3.82-3.89 13.64-7.81 27.23-7.81s23.41 3.92 27.23 7.81zm27.23-15.81c-12.01 0-22.33 2.68-29 7.01v-69.7c0-4.58 11.3-11.23 29-11.23s29 6.65 29 11.23v69.7c-6.67-4.33-16.99-7.01-29-7.01z"/><path d="m84.33 95h21c5.285 0 5.293-8 0-8h-21c-5.285 0-5.293 8 0 8z"/><path d="m150.5 95h21c5.285 0 5.293-8 0-8h-21c-5.285 0-5.293 8 0 8z"/><path d="m76 109.33h37.67c5.285 0 5.293-8 0-8h-37.67c-5.285 0-5.293 8 0 8z"/><path d="m76 123.67h37.67c5.285 0 5.293-8 0-8h-37.67c-5.285 0-5.293 8 0 8z"/><path d="m113.67 130h-37.67c-5.285 0-5.293 8 0 8h37.67c5.285 0 5.293-8 0-8z"/><path d="m179.83 101.33h-37.66c-5.285 0-5.293 8 0 8h37.66c5.285 0 5.293-8 0-8z"/><path d="m179.83 115.67h-37.66c-5.285 0-5.293 8 0 8h37.66c5.285 0 5.293-8 0-8z"/><path d="m179.83 130h-37.66c-5.285 0-5.293 8 0 8h37.66c5.285 0 5.293-8 0-8z"/><path d="m121.99 190.42h-6c-5.281 0-5.294 8 0 8h6c5.303 0 5.276-8 0-8z"/><path d="m100.99 190.42h-37c-5.281 0-5.294 8 0 8h37c5.303 0 5.276-8 0-8z"/></g></svg>