<svg id="Icon_Set" enable-background="new 0 0 256 256" height="512" viewBox="0 0 256 256" width="512" xmlns="http://www.w3.org/2000/svg"><path d="m172.289 106.828c0-32.757-27.68-59.05-60.927-56.763-28.311 1.948-51.142 25.059-52.778 53.39-.707 12.237 2.461 23.691 8.387 33.26 5.726 9.247 8.77 19.899 8.77 30.775v32.579h76.474v-28.236c0-11.62 3.321-23.071 9.949-32.616 6.382-9.189 10.125-20.35 10.125-32.389z" fill="#f9d335"/><path d="m172.288 106.829c0 12.04-3.74 23.2-10.12 32.39-6.63 9.54-9.95 21-9.95 32.62v28.23h-15v-28.23c0-11.62 3.32-23.08 9.95-32.62 6.38-9.19 10.12-20.35 10.12-32.39 0-28.89-21.53-52.75-49.42-56.41 1.15-.15 2.32-.27 3.49-.35 33.249-2.291 60.93 23.999 60.93 56.76z" fill="#f2c300"/><path d="m81.967 136.718c5.73 9.24 8.77 19.9 8.77 30.771v32.58h-15v-32.58c0-10.87-3.04-21.53-8.77-30.771-5.92-9.57-9.09-21.03-8.38-33.26 1.63-28.33 24.46-51.45 52.77-53.39 3.93-.27 7.77-.14 11.51.35-26.68 3.52-47.72 25.88-49.28 53.04-.709 12.23 2.46 23.69 8.38 33.26z" fill="#f9e27d"/><path d="m152.215 185.556h-76.474v32.579h.047c.944 18.325 16.1 32.893 34.66 32.893h6.985c18.56 0 33.716-14.568 34.66-32.893h.123v-32.579z" fill="#87828e"/><path d="m121.448 250.798c-1.31.15-2.65.23-4.01.23h-6.99c-18.56 0-33.72-14.57-34.66-32.89h-.05v-32.58h15v32.58h.05c.869 16.981 13.959 30.751 30.66 32.66z" fill="#a4a4a5"/><path d="m152.217 185.559v32.58h-.12c-.95 18.32-16.1 32.89-34.66 32.89h-6.99c-1.35 0-2.69-.08-4-.23 16.69-1.92 29.77-15.68 30.65-32.66h.12v-32.58z" fill="#796e84"/><circle cx="193.304" cy="199.231" fill="#5fcdff" r="52.167"/><path d="m245.467 199.228c0 28.81-23.35 52.17-52.16 52.17-2.55 0-5.05-.18-7.5-.54 25.26-3.64 44.66-25.37 44.66-51.63s-19.4-47.99-44.66-51.62c2.45-.36 4.95-.54 7.5-.54 28.81 0 52.16 23.35 52.16 52.16z" fill="#30b6ff"/><path d="m200.808 250.858c-2.45.36-4.95.54-7.5.54-28.81 0-52.17-23.36-52.17-52.17s23.36-52.16 52.17-52.16c2.55 0 5.05.18 7.5.54-25.26 3.63-44.67 25.36-44.67 51.62s19.41 47.99 44.67 51.63z" fill="#73d7f9"/><g fill="#5f266d"><path d="m115.388 29.472c2.209 0 4-1.791 4-4v-20.872c0-2.209-1.791-4-4-4s-4 1.791-4 4v20.872c0 2.209 1.791 4 4 4z"/><path d="m76.19 34.384c.932 1.998 3.308 2.87 5.315 1.935 2.002-.934 2.868-3.313 1.935-5.315l-8.821-18.917c-.933-2.001-3.312-2.868-5.315-1.935-2.002.934-2.868 3.313-1.935 5.315z"/><path d="m53.196 51.208-15.989-13.417c-1.693-1.421-4.216-1.198-5.636.493-1.42 1.692-1.199 4.216.493 5.636 17.419 14.617 16.61 14.353 18.559 14.353 3.718 0 5.432-4.667 2.573-7.065z"/><path d="m12.095 84.626 20.161 5.402c2.112.571 4.323-.679 4.898-2.828.572-2.134-.694-4.327-2.828-4.898l-20.161-5.402c-2.134-.579-4.327.694-4.898 2.828-.572 2.134.694 4.327 2.828 4.898z"/><path d="m34.999 121.702c-.384-2.175-2.461-3.628-4.634-3.245l-20.555 3.624c-5.202.917-3.829 8.792 1.389 7.879l20.556-3.624c2.175-.384 3.628-2.459 3.244-4.634z"/><path d="m42.055 152.898-17.099 11.973c-1.81 1.267-2.25 3.761-.982 5.57 1.269 1.812 3.764 2.248 5.57.982l17.099-11.973c1.81-1.267 2.25-3.761.982-5.57-1.266-1.809-3.76-2.251-5.57-.982z"/><path d="m150.949 36.695c1.507 0 2.949-.855 3.628-2.311l8.821-18.917c.934-2.002.067-4.382-1.935-5.315-2.004-.935-4.382-.066-5.315 1.935l-8.821 18.917c-1.241 2.661.722 5.691 3.622 5.691z"/><path d="m182.712 57.337 15.989-13.417c1.692-1.42 1.913-3.943.493-5.636-1.422-1.691-3.944-1.914-5.636-.493l-15.988 13.417c-4.043 3.393 1.094 9.528 5.142 6.129z"/><path d="m198.51 90.029 20.162-5.402c2.134-.571 3.4-2.765 2.828-4.898-.571-2.134-2.768-3.406-4.898-2.828l-20.162 5.402c-5.071 1.357-3.077 9.118 2.07 7.726z"/><path d="m200.402 118.457c-2.179-.382-4.249 1.07-4.634 3.245-.384 2.176 1.069 4.25 3.245 4.634.564.1 20.682 3.686 21.255 3.686 4.854 0 5.47-7.097.689-7.94z"/><path d="m158.884 154.894c1.55-4.801 3.742-9.326 6.569-13.395 28.958-41.71-3.306-98.965-54.369-95.421-45.669 3.128-71.475 54.024-47.516 92.747 10.398 16.772 8.169 26.25 8.169 79.313 0 17.625 15.995 36.891 38.71 36.891h6.99c13.828 0 26.514-7.471 33.375-19.13 34.022 39.37 98.658 15.07 98.658-36.667.001-46.655-53.874-72.902-90.586-44.338zm-88.515-20.28c-20.838-33.679 1.654-77.841 41.263-80.555 31.64-2.155 56.655 23.019 56.655 52.77 0 27.78-16.865 30.116-19.721 58.493-3.69 4.856-6.6 10.331-8.563 16.236h-22.025v-38.786l21.372-21.372c1.563-1.562 1.563-4.095 0-5.656-1.561-1.563-4.096-1.563-5.656 0l-15.706 15.706v-22.212c0-2.209-1.791-4-4-4s-4 1.791-4 4v22.211l-15.705-15.706c-1.563-1.563-4.096-1.563-5.656 0-1.563 1.562-1.563 4.095 0 5.656l21.352 21.353v38.806h-30.24v-14.069c-.002-11.623-3.242-22.992-9.37-32.875zm9.368 54.944h58.251c-1.456 8.346-1.024 16.611 1.173 24.58h-59.424c0-13.843 0-10.863 0-24.58zm37.701 57.471h-6.99c-14.925 0-27.44-10.641-30.155-24.891h61.749c1.019 2.271 2.177 4.464 3.476 6.563-4.867 11.033-15.912 18.328-28.08 18.328zm75.867.368c-26.56 0-48.167-21.607-48.167-48.166 0-26.56 21.607-48.167 48.167-48.167 26.559 0 48.166 21.607 48.166 48.167 0 26.559-21.608 48.166-48.166 48.166z"/><path d="m232.275 189.075c-1.814-1.262-4.306-.813-5.567 1.001l-3.525 5.069c-2.797-16.046-16.816-28.286-33.649-28.286-2.209 0-4 1.791-4 4s1.791 4 4 4c13.113 0 24.002 9.697 25.878 22.297l-5.275-3.472c-1.846-1.213-4.326-.703-5.541 1.143-1.214 1.846-.702 4.326 1.143 5.541 13.993 9.209 13.482 9.151 15.102 9.151 2.786 0 2.821-1.046 12.437-14.877 1.258-1.813.811-4.307-1.003-5.567z"/><path d="m197.075 223.603c-13.113 0-24.003-9.698-25.878-22.298l5.276 3.472c1.846 1.216 4.325.704 5.54-1.142s.704-4.326-1.142-5.54l-12.905-8.494c-1.811-1.193-4.245-.725-5.483 1.058l-9.149 13.161c-1.847 2.656.074 6.283 3.28 6.283 2.636 0 3.227-1.629 6.813-6.787 2.797 16.046 16.816 28.287 33.649 28.287 2.209 0 4-1.791 4-4s-1.792-4-4.001-4z"/><path d="m125.983 73.181c.092.025 9.281 2.706 16.246 11.914.787 1.04 1.982 1.587 3.193 1.587 3.271 0 5.188-3.768 3.188-6.413-8.567-11.326-19.971-14.65-20.451-14.787-2.127-.6-4.337.637-4.938 2.762-.601 2.126.636 4.337 2.762 4.937z"/><path d="m148.161 97.145c.516 1.812.919 3.72 1.2 5.673.286 1.993 1.997 3.432 3.954 3.432 2.432 0 4.312-2.15 3.964-4.57-.331-2.306-.81-4.567-1.423-6.724-.605-2.125-2.816-3.354-4.942-2.753-2.125.604-3.357 2.817-2.753 4.942z"/></g></svg>