<svg id="Icon_Set" enable-background="new 0 0 256 256" height="512" viewBox="0 0 256 256" width="512" xmlns="http://www.w3.org/2000/svg"><path d="m179.569 24.536c-31.817 0-57.617 11.891-57.617 26.584 0-14.692-25.799-26.584-57.617-26.584s-57.615 11.891-57.615 26.584v143.017 1.024h.048 115.137.096 115.137.048v-1.024-143.017c0-14.693-25.799-26.584-57.617-26.584z" fill="#ffe2e2"/><path d="m237.186 194.137c0 .336-.016.688-.048 1.024h-115.137c-.032-.336-.048-.688-.048-1.024 0-14.676 25.799-26.584 57.617-26.584s57.616 11.908 57.616 26.584z" fill="#ffe2e2"/><path d="m71.84 24.76c-28.28 1.7-50.12 12.84-50.12 26.36v144.04h-15v-144.04c0-14.69 25.8-26.58 57.62-26.58 2.54 0 5.05.08 7.5.22z" fill="#ffefee"/><path d="m237.19 51.12v144.04h-15v-144.04c0-13.52-21.84-24.66-50.12-26.36 2.46-.14 4.96-.22 7.5-.22 31.82 0 57.62 11.89 57.62 26.58z" fill="#ffcfcf"/><path d="m121.953 194.137c0 .336-.016.688-.048 1.024h-115.137c-.032-.336-.048-.688-.048-1.024 0-14.676 25.799-26.584 57.617-26.584s57.616 11.908 57.616 26.584z" fill="#ffe2e2"/><path d="m121.95 194.14c0 .33-.01.68-.05 1.02h-15c.04-.34.05-.69.05-1.02 0-13.51-21.84-24.67-50.11-26.37 2.46-.14 4.96-.22 7.5-.22 31.81 0 57.61 11.91 57.61 26.59z" fill="#ffcfcf"/><path d="m21.72 194.14c0 .33.02.68.05 1.02h-15c-.03-.34-.05-.69-.05-1.02 0-14.68 25.8-26.59 57.62-26.59 2.54 0 5.05.08 7.5.22-28.28 1.7-50.12 12.86-50.12 26.37z" fill="#ffefee"/><path d="m136.95 194.14c0 .33.02.68.05 1.02h-15c-.03-.34-.05-.69-.05-1.02 0-14.68 25.8-26.59 57.62-26.59 2.54 0 5.04.08 7.5.22-28.28 1.7-50.12 12.86-50.12 26.37z" fill="#ffefee"/><circle cx="202.977" cy="185.161" fill="#f9d335" r="46.303"/><path d="m225.005 169.975c-5.567-5.567-14.594-5.567-20.161 0l-1.867 1.867-1.867-1.867c-5.567-5.567-14.594-5.567-20.161 0-5.567 5.567-5.567 14.594 0 20.161l1.867 1.867 18.04 18.04c1.172 1.172 3.071 1.172 4.243 0l18.04-18.04 1.867-1.867c5.566-5.568 5.566-14.594-.001-20.161z" fill="#ff4a73"/><path d="m225.01 190.14-1.87 1.86-18.04 18.04c-1.17 1.17-3.07 1.17-4.24 0l-5.38-5.38 12.66-12.66 1.87-1.86c5.56-5.57 5.56-14.6 0-20.17h-.01c-.79-.79-1.66-1.47-2.57-2.04 5.5-3.41 12.81-2.72 17.57 2.04h.01c5.56 5.57 5.56 14.6 0 20.17z" fill="#ea2a6a"/><path d="m210.48 204.66-5.38 5.38c-1.17 1.17-3.07 1.17-4.24 0l-18.04-18.04-1.87-1.86c-2.79-2.78-4.18-6.44-4.18-10.08 0-3.66 1.39-7.3 4.18-10.09 4.78-4.77 12.09-5.45 17.58-2.04-.92.57-1.78 1.25-2.58 2.04-2.79 2.79-4.18 6.43-4.18 10.09 0 3.64 1.39 7.3 4.18 10.08l1.87 1.86z" fill="#f973a3"/><path d="m249.28 185.16c0 25.57-20.73 46.3-46.3 46.3-2.55 0-5.06-.21-7.5-.6 22.01-3.59 38.8-22.68 38.8-45.7s-16.79-42.11-38.8-45.7c2.44-.39 4.95-.6 7.5-.6 25.57 0 46.3 20.73 46.3 46.3z" fill="#f2c300"/><path d="m210.48 230.86c-2.44.39-4.95.6-7.5.6-25.58 0-46.31-20.73-46.31-46.3s20.73-46.3 46.31-46.3c2.55 0 5.06.21 7.5.6-22.01 3.59-38.81 22.68-38.81 45.7s16.8 42.11 38.81 45.7z" fill="#f9e27d"/><g fill="#5f266d"><path d="m45.71 68.95h36.67c5.285 0 5.293-8 0-8h-36.67c-5.285 0-5.293 8 0 8z"/><path d="m31.16 93.97h65.77c5.302 0 5.276-8 0-8h-65.77c-5.281 0-5.294 8 0 8z"/><path d="m96.93 111h-65.77c-5.285 0-5.293 8 0 8h65.77c5.285 0 5.293-8 0-8z"/><path d="m96.93 136.03h-65.77c-5.305 0-5.274 8 0 8h65.77c5.281 0 5.294-8 0-8z"/><path d="m27.23 54.13c.05-.06 4.42-5.3 16.19-7.92 5.194-1.154 3.404-8.958-1.74-7.81-14.61 3.25-20.17 10.05-20.76 10.81-3.294 4.302 3.182 9.01 6.31 4.92z"/><path d="m57.47 44.73c2.012 0 2.53.01 2.53.01 5.233 0 5.308-7.895.07-7.99-.804-.025-1.841-.02-2.67-.02-5.277.048-5.237 8.024.07 8z"/><path d="m241.19 152.48v-101.36c0-17.15-27.07-30.58-61.62-30.58-26.66 0-48.87 8-57.62 19.53-8.75-11.53-30.95-19.53-57.61-19.53-34.55 0-61.62 13.43-61.62 30.58v144.04c0 2.287 1.958 4 4.05 4h147.88c6.08 20.95 25.45 36.3 48.33 36.3 27.73 0 50.3-22.56 50.3-50.3 0-12.47-4.56-23.88-12.09-32.68zm-38.21 74.98c-23.325 0-42.31-18.981-42.31-42.3 0-23.341 19.001-42.3 42.31-42.3 23.323 0 42.3 18.973 42.3 42.3 0 23.33-18.98 42.3-42.3 42.3zm-138.64-198.92c31.59 0 53.61 11.9 53.61 22.58v127.72c-10.5-9.2-30.36-15.29-53.61-15.29s-43.11 6.09-53.62 15.29v-127.72c0-10.68 22.02-22.58 53.62-22.58zm115.23 0c31.6 0 53.62 11.9 53.62 22.58v93.86c-8.42-6.36-18.89-10.12-30.21-10.12-20.83 0-38.75 12.72-46.38 30.81-13.07 2.54-23.83 7.2-30.65 13.17v-127.72c0-10.68 22.02-22.58 53.62-22.58zm-168.3 162.62c3.59-9.8 24.38-19.61 53.07-19.61 28.68 0 49.47 9.81 53.06 19.61zm115.23 0c2.4-6.53 12.42-13.06 27.31-16.69-1.209 5.546-1.436 11.305-.78 16.69z"/><path d="m161.24 68.95h36.66c5.285 0 5.293-8 0-8h-36.66c-5.285 0-5.293 8 0 8z"/><path d="m146.69 93.97h65.76c5.305 0 5.275-8 0-8h-65.76c-5.281 0-5.294 8 0 8z"/><path d="m146.69 119h65.76c5.285 0 5.293-8 0-8h-65.76c-5.285 0-5.293 8 0 8z"/><path d="m202.98 166.25c-16.847-14.253-39.656 7.781-26.43 24.91.935 1.253-.226.004 21.48 21.71 2.704 2.704 7.113 2.766 9.9 0 21.22-21.235 21.516-21.061 23.23-24.49 9.126-17.718-13.097-35.2-28.18-22.13zm0 40.26c-15.344-15.344-5.871-5.871-19.2-19.2-9.582-9.582 4.911-24.099 14.5-14.51l1.87 1.87c1.56 1.56 4.102 1.558 5.66 0l.06-.06 1.8-1.81c7.287-7.287 19.697-.379 17.21 9.72-.906 3.686-1.25 3.34-21.9 23.99z"/></g></svg>