<svg id="Icon_Set" enable-background="new 0 0 256 256" height="512" viewBox="0 0 256 256" width="512" xmlns="http://www.w3.org/2000/svg"><path d="m121.5 58h13v51.333h-13z" fill="#f2c300"/><path d="m137.793 62.805h-19.585c-13.268 0-24.023-10.756-24.023-24.023v-26.805c0-3.369 2.731-6.1 6.1-6.1h55.431c3.369 0 6.1 2.731 6.1 6.1v26.805c0 13.268-10.756 24.023-24.023 24.023z" fill="#f9d335"/><path d="m160.082 128.371h-64.164c-1.824 0-3.034-1.891-2.27-3.547l9.61-20.833c.409-.886 1.295-1.453 2.27-1.453h44.809c.971 0 1.853.562 2.265 1.441l9.745 20.833c.775 1.658-.435 3.559-2.265 3.559z" fill="#f9d335"/><path d="m130.242 21.037 2.068 4.19c.364.738 1.068 1.249 1.882 1.368l4.624.672c2.051.298 2.869 2.818 1.386 4.264l-3.346 3.261c-.589.574-.858 1.402-.719 2.213l.79 4.605c.35 2.042-1.793 3.6-3.627 2.635l-4.136-2.174c-.728-.383-1.598-.383-2.327 0l-4.136 2.174c-1.834.964-3.978-.593-3.627-2.635l.79-4.605c.139-.811-.13-1.638-.719-2.213l-3.346-3.261c-1.484-1.446-.665-3.966 1.386-4.264l4.624-.672c.814-.118 1.518-.63 1.882-1.368l2.068-4.19c.916-1.858 3.566-1.858 4.483 0z" fill="#f9d335"/><path d="m176.25 250.124h-96.5v-116.75c0-2.761 2.239-5 5-5h86.5c2.761 0 5 2.239 5 5z" fill="#5fcdff"/><path d="m79.75 250.124h-65.5c-2.761 0-5-2.239-5-5v-77c0-2.761 2.239-5 5-5h65.5z" fill="#3193f3"/><path d="m241.75 250.124h-65.5v-87h65.5c2.761 0 5 2.239 5 5v77c0 2.761-2.239 5-5 5z" fill="#3193f3"/><path d="m133.21 62.81h-15c-13.27 0-24.03-10.76-24.03-24.03v-26.8c0-3.37 2.74-6.1 6.1-6.1h15c-3.36 0-6.1 2.73-6.1 6.1v26.8c0 13.27 10.76 24.03 24.03 24.03z" fill="#f9e27d"/><path d="m120.53 102.54c-.98 0-1.86.57-2.27 1.45l-9.61 20.83c-.77 1.66.44 3.55 2.27 3.55h-15c-1.83 0-3.04-1.89-2.27-3.55l9.61-20.83c.41-.88 1.29-1.45 2.27-1.45z" fill="#f9e27d"/><path d="m161.82 11.98v26.8c0 13.27-10.76 24.03-24.03 24.03h-15c13.27 0 24.03-10.76 24.03-24.03v-26.8c0-3.37-2.74-6.1-6.1-6.1h15c3.36 0 6.1 2.73 6.1 6.1z" fill="#f2c300"/><path d="m160.08 128.37h-15c1.83 0 3.04-1.9 2.27-3.56l-9.75-20.83c-.41-.88-1.29-1.44-2.26-1.44h15c.97 0 1.85.56 2.26 1.44l9.75 20.83c.77 1.66-.44 3.56-2.27 3.56z" fill="#f2c300"/><path d="m99.75 128.37c-2.76 0-5 2.24-5 5v116.75h-15v-116.75c0-2.76 2.24-5 5-5z" fill="#73d7f9"/><path d="m29.25 250.12h-15c-2.76 0-5-2.23-5-5v-77c0-2.76 2.24-5 5-5h15c-2.76 0-5 2.24-5 5v77c0 2.77 2.24 5 5 5z" fill="#35b1fc"/><path d="m176.25 163.12h15v87h-15z" fill="#35b1fc"/><path d="m176.25 133.37v116.75h-15v-116.75c0-2.76-2.24-5-5-5h15c2.76 0 5 2.24 5 5z" fill="#30b6ff"/><path d="m64.75 163.12h15v87h-15z" fill="#307fed"/><path d="m246.75 168.12v77c0 2.77-2.24 5-5 5h-15c2.76 0 5-2.23 5-5v-77c0-2.76-2.24-5-5-5h15c2.76 0 5 2.24 5 5z" fill="#307fed"/><path d="m126.55 31.53 3.34 3.26c.59.58.86 1.4.72 2.21l-.79 4.61c-.05.28-.05.55-.01.8l-.65-.34c-.72-.38-1.6-.38-2.32 0l-4.14 2.18c-1.83.96-3.98-.6-3.63-2.64l.79-4.61c.14-.81-.13-1.63-.72-2.21l-3.34-3.26c-1.49-1.45-.67-3.97 1.38-4.26l4.63-.68c.81-.11 1.52-.63 1.88-1.36l2.07-4.19c.92-1.86 3.56-1.86 4.48 0l2.07 4.19c.23.47.61.86 1.07 1.09-.25.14-.53.23-.82.27l-4.63.68c-2.05.29-2.87 2.81-1.38 4.26z" fill="#f9e27d"/><g fill="#5f266d"><path d="m124.562 47.786 3.438-1.807 3.437 1.807c4.765 2.506 10.342-1.541 9.433-6.853l-.656-3.827 2.779-2.71c3.858-3.759 1.727-10.315-3.602-11.087l-3.843-.559-1.719-3.483v.001c-2.382-4.83-9.276-4.829-11.658-.001l-1.719 3.483-3.843.559c-2.467.357-4.478 2.053-5.248 4.424-.77 2.37-.139 4.924 1.646 6.662l2.78 2.711-.656 3.829c-.421 2.457.571 4.894 2.588 6.358 2.012 1.458 4.628 1.657 6.843.493zm3.438-22.254c2.147 4.349 3.301 4.683 7.232 5.256-3.543 3.452-3.408 4.739-2.762 8.503-4.32-2.271-5.478-1.822-8.941 0 .645-3.75.798-5.032-2.762-8.503 4.903-.712 5.539-1.823 7.233-5.256z"/><path d="m241.75 159.124h-61.5v-25.75c0-4.963-4.037-9-9-9h-4.853c-.102-.427-.236-.849-.427-1.256l-9.745-20.835c-1.064-2.274-3.375-3.745-5.887-3.745h-11.838v-31.751c8.05-.201 15.266-3.809 20.258-9.438h4.398c10.617 0 19.255-8.636 19.255-19.25v-8.814c0-9.767-7.319-17.839-16.758-19.069-.837-4.731-4.969-8.339-9.937-8.339h-55.432c-4.941 0-9.057 3.568-9.925 8.262-9.445 1.225-16.77 9.3-16.77 19.071v8.81c0 10.614 8.638 19.25 19.255 19.25h4.328c4.994 5.675 12.239 9.316 20.327 9.518v31.751h-11.972c-2.528 0-4.846 1.483-5.902 3.777l-9.611 20.834c-.183.397-.312.809-.411 1.225h-4.853c-4.963 0-9 4.037-9 9v25.75h-61.5c-4.963 0-9 4.037-9 9v77c0 4.963 4.037 9 9 9h227.5c4.963 0 9-4.037 9-9v-77c0-4.964-4.037-9.001-9-9.001zm-75.934-120.342v-20.417c4.924 1.2 8.594 5.634 8.594 10.919v8.814c0 6.001-4.729 10.906-10.657 11.22 1.326-3.255 2.063-6.81 2.063-10.536zm-84.226-.763v-8.81c0-5.285 3.67-9.719 8.594-10.919v20.492c0 3.695.726 7.222 2.031 10.455-5.913-.33-10.625-5.228-10.625-11.218zm-5.84 208.105h-61.5c-.552 0-1-.448-1-1v-77c0-.552.448-1 1-1h61.5zm22.434-207.342c0-17.093 0-22.995 0-24.787 0-.497 0-.682 0-.697 0-.308 0-.734 0-1.321 0-1.158.942-2.101 2.101-2.101h55.432c1.158 0 2.101.942 2.101 2.101v26.806c0 11.04-8.982 20.022-20.023 20.022-7.134 0-12.852 0-19.586 0-11.043 0-20.025-8.983-20.025-20.023zm32.316 28.023v31.733h-5v-31.733zm-24.012 39.733h42.895l8.342 17.833h-59.463zm65.762 139.586h-88.5c0-12.039 0-100.076 0-112.75 0-.552.448-1 1-1h86.5c.552 0 1 .448 1 1zm70.5-1c0 .552-.448 1-1 1h-61.5v-79h61.5c.552 0 1 .448 1 1z"/><path d="m132.119 160.763h-8.238c-1.798 0-3.256 1.458-3.256 3.256 0 1.799 1.458 3.257 3.256 3.257h1.02c1.798 0 3.256 1.458 3.256 3.256v43.702c0 4.364 7.219 4.358 7.219 0v-50.215c-.001-1.799-1.458-3.256-3.257-3.256z"/><path d="m212.667 175.79h-11c-2.209 0-4 1.791-4 4s1.791 4 4 4h11c2.209 0 4-1.791 4-4s-1.791-4-4-4z"/><path d="m229 175.79h-1.333c-2.209 0-4 1.791-4 4s1.791 4 4 4h1.333c2.209 0 4-1.791 4-4s-1.791-4-4-4z"/></g></svg>