<svg id="Icon_Set" enable-background="new 0 0 256 256" height="512" viewBox="0 0 256 256" width="512" xmlns="http://www.w3.org/2000/svg"><circle cx="101.693" cy="101.04" fill="#3193f3" r="96.349"/><path d="m198.04 101.04c0 53.21-43.14 96.35-96.35 96.35-2.53 0-5.03-.1-7.5-.29 49.71-3.83 88.85-45.37 88.85-96.06s-39.14-92.23-88.85-96.06c2.47-.19 4.97-.29 7.5-.29 53.21 0 96.35 43.14 96.35 96.35z" fill="#307fed"/><path d="m109.19 197.1c-2.47.19-4.97.29-7.5.29-53.21 0-96.35-43.14-96.35-96.35s43.14-96.35 96.35-96.35c2.53 0 5.03.1 7.5.29-49.71 3.83-88.85 45.37-88.85 96.06s39.14 92.23 88.85 96.06z" fill="#35b1fc"/><path d="m188.737 250.588c-33.613 0-60.96-27.346-60.96-60.959s27.347-60.959 60.96-60.959 60.959 27.346 60.959 60.959-27.345 60.959-60.959 60.959z" fill="#f9d335"/><circle cx="188.737" cy="189.629" fill="#ffe2e2" r="45.288"/><path d="m249.7 189.63c0 33.61-27.35 60.96-60.96 60.96-2.54 0-5.04-.16-7.5-.46 30.09-3.71 53.46-29.43 53.46-60.5s-23.37-56.79-53.46-60.5c2.46-.3 4.96-.46 7.5-.46 33.61 0 60.96 27.35 60.96 60.96z" fill="#f2c300"/><path d="m196.24 250.13c-2.46.3-4.96.46-7.5.46-33.62 0-60.96-27.35-60.96-60.96s27.34-60.96 60.96-60.96c2.54 0 5.04.16 7.5.46-30.1 3.71-53.46 29.43-53.46 60.5s23.36 56.79 53.46 60.5z" fill="#f9e27d"/><path d="m234.02 189.63c0 25.01-20.27 45.29-45.28 45.29-2.55 0-5.06-.21-7.5-.62 21.44-3.58 37.78-22.22 37.78-44.67s-16.34-41.09-37.78-44.67c2.44-.41 4.95-.62 7.5-.62 25.01 0 45.28 20.28 45.28 45.29z" fill="#ffcfcf"/><path d="m196.24 234.3c-2.44.41-4.94.62-7.5.62-25.01 0-45.29-20.28-45.29-45.29s20.28-45.29 45.29-45.29c2.56 0 5.06.21 7.5.62-21.44 3.57-37.79 22.22-37.79 44.67s16.35 41.1 37.79 44.67z" fill="#ffefee"/><path d="m187.358 170.799c.67-1.678 3.045-1.678 3.715 0l2.903 7.269 4.76 11.919h-9.521-9.521l4.76-11.919z" fill="#ff4a73"/><path d="m187.358 209.175c.67 1.678 3.045 1.678 3.715 0l2.903-7.269 4.76-11.919h-9.521-9.521l4.76 11.919z" fill="#3193f3"/><g fill="#5f266d"><path d="m199.5 125.85c1.97-7.83 3.02-16.02 3.02-24.45 0-55.694-45.345-100.35-100.35-100.35-55.655 0-100.35 45.348-100.35 100.35 0 28.5 11.95 54.27 31.1 72.55.02.02.03.04.05.05.06.09.13.17.21.25.2.21.41.39.64.55.01.01.02.01.03.02 18.054 16.839 42.136 26.93 68.32 26.93 7.348 0 15.091-.819 22.74-2.59 4.47 31.49 31.6 55.79 64.31 55.79 35.81 0 64.96-29.14 64.96-64.96 0-32.32-23.73-59.2-54.68-64.14zm-10.28 121.1c-30.456 0-55.358-24.021-56.89-54.02-1.387-33.96 25.387-59.9 56.89-59.9 31.192 0 56.96 25.354 56.96 56.96 0 31.4-25.56 56.96-56.96 56.96zm-179.31-141.55h38.14c.81 16.11 4.71 31.57 11.21 45.48-8.27 3.92-16.01 8.98-23.02 15.11-15.47-15.77-25.32-37.05-26.33-60.59zm26.33-68.59c6.54 5.72 13.72 10.51 21.36 14.3-6.08 14.28-9.48 30.04-9.7 46.29h-37.99c1.01-23.54 10.86-44.82 26.33-60.59zm50.82-26.51c-10.69 9.2-19.53 20.65-26.08 33.55-6.73-3.36-13.07-7.56-18.87-12.54 12.52-10.76 27.96-18.22 44.95-21.01zm107.37 87.1h-37.97c-.22-16.25-3.62-32.01-9.7-46.3 7.63-3.79 14.8-8.58 21.34-14.29 15.47 15.77 25.32 37.05 26.33 60.59zm-56.71 50.36c-10.01-3.8-20.65-5.98-31.55-6.41v-35.95h42.12c-.8 15.02-4.47 29.43-10.57 42.36zm-31.55-50.36v-35.95c11.55-.45 22.78-2.87 33.3-7.08 5.62 13.26 8.77 27.91 8.99 43.03zm0-43.96v-41.76c12.48 9.08 22.66 21.3 29.9 35.42-9.46 3.75-19.55 5.9-29.9 6.34zm-8 0c-10.34-.44-20.43-2.59-29.88-6.33 7.23-14.12 17.41-26.34 29.88-35.42zm0 8.01v35.95h-42.27c.22-15.12 3.37-29.77 8.99-43.03 10.51 4.21 21.75 6.63 33.28 7.08zm0 43.95v35.95c-10.91.43-21.54 2.61-31.55 6.41-6.08-12.93-9.75-27.34-10.56-42.36zm0 43.96v37.1c-11.35-8.24-20.79-19.06-27.85-31.55 8.86-3.26 18.24-5.14 27.85-5.55zm8 37.11v-37.11c9.61.4 18.99 2.29 27.86 5.55-7.06 12.49-16.51 23.31-27.86 31.56zm85.27-61.4c-13.966-.567-28.852 3.671-41.27 13.05 3.47-10.38 5.57-21.39 6.14-32.72h38.12c-.29 6.77-1.31 13.36-2.99 19.67zm-48.07-81.23c-6.55-12.89-15.37-24.34-26.06-33.54 16.98 2.8 32.4 10.26 44.92 21.01-5.8 4.98-12.13 9.18-18.86 12.53zm-80.47 114.17c7.79 14.07 18.38 26.22 31.2 35.38-19.76-1.71-37.76-9.68-52-21.91 6.35-5.45 13.35-9.97 20.8-13.47zm47.35 35.38c5.29-3.78 10.2-8.08 14.69-12.8-.537 3.665-.75 7.617-.67 10.48-4.55 1.13-9.23 1.91-14.02 2.32z"/><path d="m139.93 189.99v.07.01c0 32.712 24.643 49.103 49.285 49.11s49.285-16.369 49.285-49.19c0-26.336-21.028-49.082-49.28-49.265-26.734-.173-49.29 21.796-49.29 49.265zm88.88 4h1.5c-1.9 19.58-17.51 35.19-37.09 37.09v-1.08c0-5.288-8-5.285-8 0v1.08c-19.58-1.9-35.2-17.51-37.1-37.09h1.51c5.292 0 5.285-8 0-8h-1.3-.21c1.836-19.388 17.38-35.196 37.1-37.1v1.08c0 5.157 8 5.324 8 0v-1.08c19.58 1.9 35.2 17.52 37.09 37.1h-1.5c-5.285 0-5.293 8 0 8z"/><path d="m202.35 188.26-7.56-18.94c-2.019-5.046-9.141-5.021-11.15 0l-7.56 18.94c-.555 1.22-.466 2.333 0 3.45l7.56 18.95c2.013 5.01 9.129 5.03 11.15 0l7.56-18.95c.45-1.082.585-2.163 0-3.45zm-9.52 5.73-3.61 9.05-3.62-9.05zm-7.23-8 3.62-9.06 3.61 9.06z"/></g></svg>