<svg id="Icon_Set" enable-background="new 0 0 256 256" height="512" viewBox="0 0 256 256" width="512" xmlns="http://www.w3.org/2000/svg"><path d="m43.77 249.975h-31.35c-2.761 0-5-2.239-5-5v-128.53c4.89-6.23 12.79-9.35 20.67-9.35 7.9 0 15.78 3.12 20.68 9.35v128.53c0 2.762-2.239 5-5 5z" fill="#5fcdff"/><path d="m191.734 208.712v36.35c0 2.761-2.239 5-5 5h-128.53c-6.23-4.89-9.35-12.79-9.35-20.67 0-7.9 3.12-15.78 9.35-20.68z" fill="#44c7b6"/><path d="m212.734 172.362v31.35c0 2.761-2.239 5-5 5h-128.53c-6.23-4.89-9.35-12.79-9.35-20.67 0-7.9 3.12-15.78 9.35-20.68h128.53c2.761 0 5 2.239 5 5z" fill="#f9d335"/><path d="m192.734 131.012v36.35h-133.53c-6.23-4.89-9.35-12.79-9.35-20.67 0-7.9 3.12-15.78 9.35-20.68h128.53c2.761 0 5 2.239 5 5z" fill="#ff4a73"/><path d="m74.205 167.365h-15c-6.23-4.89-9.35-12.79-9.35-20.67 0-7.9 3.12-15.78 9.35-20.68h15c-6.23 4.9-9.35 12.78-9.35 20.68 0 7.88 3.12 15.78 9.35 20.67z" fill="#f973a3"/><path d="m94.205 208.715h-15c-6.23-4.89-9.35-12.79-9.35-20.67 0-7.9 3.12-15.78 9.35-20.68h15c-6.23 4.9-9.35 12.78-9.35 20.68 0 7.88 3.12 15.78 9.35 20.67z" fill="#f9e27d"/><path d="m212.735 172.365v31.35c0 2.76-2.24 5-5 5h-15c2.76 0 5-2.24 5-5v-31.35c0-2.76-2.24-5-5-5h15c2.76 0 5 2.24 5 5z" fill="#f2c300"/><circle cx="163.278" cy="91.24" fill="#3193f3" r="85.307"/><path d="m248.585 91.245c0 47.11-38.19 85.3-85.31 85.3-2.53 0-5.03-.11-7.5-.33 43.61-3.79 77.81-40.39 77.81-84.97 0-44.59-34.2-81.19-77.81-84.98 2.47-.22 4.97-.33 7.5-.33 47.12 0 85.31 38.19 85.31 85.31z" fill="#307fed"/><path d="m170.775 176.215c-2.47.22-4.97.33-7.5.33-47.11 0-85.3-38.19-85.3-85.3 0-47.12 38.19-85.31 85.3-85.31 2.53 0 5.03.11 7.5.33-43.6 3.8-77.8 40.39-77.8 84.98 0 44.58 34.2 81.17 77.8 84.97z" fill="#35b1fc"/><path d="m191.735 208.715v36.35c0 2.76-2.24 5-5 5h-15c2.76 0 5-2.24 5-5v-36.35z" fill="#3bb2a0"/><path d="m73.205 250.065h-15c-6.23-4.89-9.35-12.79-9.35-20.67 0-7.9 3.12-15.78 9.35-20.68h15c-6.23 4.9-9.35 12.78-9.35 20.68 0 7.88 3.12 15.78 9.35 20.67z" fill="#4bdbc3"/><path d="m48.765 116.445v128.53c0 2.76-2.23 5-5 5h-15c2.77 0 5-2.24 5-5v-128.53c-3.33-4.23-8.02-7.02-13.17-8.38 2.43-.65 4.96-.97 7.49-.97 7.9 0 15.78 3.12 20.68 9.35z" fill="#30b6ff"/><path d="m27.415 249.975h-15c-2.76 0-5-2.24-5-5v-128.53c4.89-6.23 12.79-9.35 20.67-9.35 2.54 0 5.08.32 7.51.97-5.15 1.35-9.86 4.15-13.18 8.38v128.53c0 2.76 2.24 5 5 5z" fill="#73d7f9"/><path d="m163.275 1.935c-49.078 0-89.3 39.914-89.3 89.31 0 10.81 1.93 21.18 5.47 30.77h-20.24c-.9 0-1.77.3-2.47.85-1.45 1.14-2.77 2.44-3.96 3.87v-10.29c0-.9-.31-1.77-.86-2.47-5.36-6.81-14.26-10.88-23.83-10.88-9.56 0-18.46 4.07-23.81 10.88-.55.7-.86 1.57-.86 2.47v128.53c0 4.96 4.04 9 9 9h31.36c3.42 0 6.4-1.92 7.92-4.73 1.21 1.47 2.56 2.8 4.04 3.96.7.56 1.57.86 2.47.86h128.53c4.96 0 9-4.04 9-9v-32.35h12c4.96 0 9-4.04 9-9v-31.35c0-2.9-1.38-5.48-3.51-7.12 25.307-17.225 39.36-45.18 39.36-74 0-49.411-40.228-89.31-89.31-89.31zm58.35 145.86c-6.04-5.23-12.67-9.57-19.74-12.96 5.61-12.13 9-25.58 9.76-39.59h32.84c-.99 20.37-9.52 38.8-22.86 52.55zm-13.89 23.57c.55 0 1 .45 1 1v11.67h-71.7c-5.285 0-5.293 8 0 8h71.7v11.68c0 .55-.45 1-1 1-5.408 0-121.987 0-127.07 0-4.29-3.92-6.81-10.05-6.81-16.67 0-6.63 2.52-12.76 6.81-16.68h43.2c12.631 6.247 26.126 9.18 39.41 9.18 13.736 0 27.142-3.114 39.42-9.18zm-20 54.02h-67.44c-5.285 0-5.293 8 0 8h67.44v11.68c0 .55-.45 1-1 1h-127.07c-4.29-3.92-6.81-10.05-6.81-16.67 0-6.63 2.52-12.76 6.81-16.68h128.07zm-163.64-46.85v67.44h-11.68c-.55 0-1-.45-1-1v-127.07c3.92-4.28 10.05-6.81 16.67-6.81 6.63 0 12.76 2.53 16.69 6.81v127.07c0 .55-.45 1-1 1h-11.68v-67.44c0-5.285-8-5.293-8 0zm36.57-48.52h22.17c6.177 12.748 15.896 24.668 27.85 33.35-22.452 0-26.838 0-50.02 0-4.29-3.92-6.81-10.05-6.81-16.67 0-6.63 2.52-12.76 6.81-16.68zm44.26-95.32c5.62 4.86 11.77 8.96 18.3 12.24-5.24 12.45-8.2 26.16-8.45 40.31h-32.7c.99-20.37 9.51-38.8 22.85-52.55zm43.45-23.39c-8.86 7.9-16.22 17.56-21.77 28.37-5.62-2.84-10.92-6.35-15.8-10.48 10.56-8.96 23.43-15.26 37.57-17.89zm96.11 75.94h-32.69c-.25-14.15-3.21-27.86-8.45-40.32 6.52-3.28 12.66-7.38 18.28-12.24 13.34 13.75 21.87 32.18 22.86 52.56zm-77.21 78.42c0-14.496 0-17.431 0-31.48 8.162.388 16.253 2.04 23.54 4.68-5.728 10.154-13.552 19.233-23.54 26.8zm-38.96-23.7c6.678 11.446 14.896 21.986 26.2 30.11-15.872-1.68-31.232-8.188-43.71-18.79 5.625-4.775 12.224-8.889 17.51-11.32zm-5.38-46.72h36.34v30.77.16c-9.766.436-19.139 2.467-27.24 5.53-5.432-11.7-8.382-24.114-9.1-36.46zm44.34-8v-30.94c9.96-.44 19.67-2.52 28.78-6.12 4.79 11.44 7.5 24.04 7.74 37.06zm0-38.95v-35.59c10.52 7.84 19.15 18.24 25.38 30.21-8.04 3.13-16.6 4.96-25.38 5.38zm-8 0c-8.77-.42-17.32-2.25-25.36-5.37 6.22-11.97 14.84-22.36 25.36-30.21zm0 8.01v30.94h-36.5c.24-13.01 2.95-25.61 7.74-37.05 9.11 3.59 18.8 5.67 28.76 6.11zm0 109.34c-9.097-6.732-17.243-15.82-23.53-26.78 7.5-2.7 15.42-4.29 23.53-4.68zm35.26-33.94c-8.637-3.166-17.448-5.094-27.26-5.53v-.16c0-6.968 0 15.329 0-30.77h36.36c-.731 12.522-3.753 24.937-9.1 36.46zm5.43-92.04c-5.55-10.81-12.91-20.45-21.76-28.35 14.13 2.62 26.98 8.92 37.54 17.87-4.87 4.14-10.17 7.64-15.78 10.48zm-85.04 55.58c.775 14.313 4.335 28.006 9.76 39.59-7.699 3.675-13.85 7.948-19.76 12.95-13.675-14.048-21.881-32.681-22.85-52.54zm-62.15 71.4c1.19 1.43 2.51 2.72 3.96 3.86.7.56 1.57.86 2.47.86h11.23c-2.94 4.8-4.58 10.61-4.58 16.68s1.64 11.87 4.58 16.67h-12.23c-.9 0-1.77.3-2.47.85-1.05.83-2.04 1.74-2.96 2.73zm148-3.28c-8.051 4.269-18.216 8-27.79 8 10.141-7.712 18.899-17.977 25.26-29.4 6.25 2.98 12.13 6.77 17.5 11.33-4.58 3.89-9.6 7.27-14.97 10.07z" fill="#5f266d"/></svg>