<svg id="Icon_Set" enable-background="new 0 0 256 256" height="512" viewBox="0 0 256 256" width="512" xmlns="http://www.w3.org/2000/svg"><path d="m196.162 164.649-.16.041c-49.325 12.519-100.996 12.519-150.321 0l-.16-.041c-3.819-.969-6.493-4.407-6.493-8.347v-88.033h163.628v88.033c0 3.94-2.674 7.378-6.494 8.347z" fill="#87828e"/><path d="m54.027 68.266v98.41c-2.79-.62-5.57-1.29-8.35-1.99l-.16-.04c-3.81-.97-6.49-4.4-6.49-8.34v-88.04z" fill="#a4a4a5"/><path d="m202.657 68.266v88.04c0 3.94-2.68 7.37-6.49 8.34l-.16.04c-2.78.7-5.56 1.37-8.35 1.99v-98.41z" fill="#796e84"/><path d="m59.701 36.516-52.356 19.907c-3.071 1.168-3.071 5.513 0 6.681l52.356 19.907 59.871 22.765c.818.311 1.722.311 2.54 0l59.871-22.765 52.356-19.907c3.071-1.168 3.071-5.513 0-6.681l-52.356-19.907-59.871-22.765c-.818-.311-1.722-.311-2.54 0z" fill="#87828e"/><path d="m234.337 63.106-52.35 19.91-59.88 22.76c-.81.31-1.72.31-2.54 0l-11.95-4.54 47.91-18.22 52.35-19.91c3.07-1.17 3.07-5.51 0-6.68l-52.35-19.91-47.91-18.22 11.95-4.54c.82-.32 1.73-.32 2.54 0l59.88 22.76 52.35 19.91c3.07 1.17 3.07 5.51 0 6.68z" fill="#796e84"/><path d="m87.697 83.016 47.14 17.92-12.73 4.84c-.81.31-1.72.31-2.54 0l-59.87-22.76-52.35-19.91c-3.07-1.17-3.07-5.51 0-6.68l52.35-19.91 59.87-22.76c.82-.32 1.73-.32 2.54 0l12.73 4.84-47.14 17.92-52.35 19.91c-3.07 1.17-3.07 5.51 0 6.68z" fill="#a4a4a5"/><path d="m222.171 172.887v8c0 8.28-6.71 15-15 15h-172.66c-8.29 0-15-6.72-15-15v-8c0-8.28 6.71-15 15-15h172.66c8.29 0 15 6.719 15 15z" fill="#ffe2e2"/><g fill="#ff4a73"><path d="m108.171 157.887h25.34v38h-25.34z"/><path d="m66.615 221.53c-1.415 1.438-.052 3.829 1.906 3.344l18.927-4.686c1.053-.261 2.122.366 2.409 1.412l5.334 19.419c.557 2.028 3.466 1.932 3.888-.129l9.074-44.316-16.604-.396z"/><path d="m175.279 221.53-24.935-25.352-16.604.396 9.074 44.316c.422 2.061 3.331 2.157 3.888.129l5.334-19.419c.287-1.046 1.356-1.672 2.409-1.412l18.927 4.686c1.958.485 3.321-1.906 1.907-3.344z"/></g><path d="m49.506 195.882h-15c-8.29 0-15-6.72-15-15v-8c0-8.28 6.71-15 15-15h15c-8.29 0-15 6.72-15 15v8c0 8.281 6.71 15 15 15z" fill="#ffefee"/><path d="m222.166 172.882v8c0 8.28-6.71 15-15 15h-15c8.29 0 15-6.72 15-15v-8c0-8.28-6.71-15-15-15h15c8.29 0 15 6.721 15 15z" fill="#ffcfcf"/><path d="m253.778 146.692-8.006-8.005c3.698-1.094 6.399-4.511 6.399-8.564v-12.725c0-4.934-4-8.934-8.934-8.934h-2.363v-49.334c0-1.813-2.026-5.274-5.115-6.449l-112.225-42.671c-1.736-.662-3.65-.661-5.385-.001-21.829 8.301-90.126 34.269-112.226 42.672-6.502 2.473-6.503 11.686 0 14.159l29.104 11.066v75.979h-.515c-10.477 0-19 8.523-19 19v8c0 10.477 8.523 19 19 19h47.781l-18.531 18.84c-4.239 4.311-.138 11.484 5.721 10.03l17.034-4.217 4.818 17.54c1.676 6.095 10.402 5.774 11.663-.386l8.561-41.808h18.776l8.56 41.808c1.261 6.152 9.988 6.487 11.664.385l4.817-17.539 17.033 4.217c5.856 1.455 9.964-5.716 5.721-10.031l-18.53-18.839h47.571c10.477 0 19-8.523 19-19v-8c0-10.477-8.523-19-19-19h-.516v-75.978l26.219-9.97v40.527h-2.362c-4.934 0-8.934 4-8.934 8.934v12.725c0 4.053 2.701 7.47 6.399 8.564l-8.005 8.005c-1.563 1.562-1.563 4.095 0 5.656 1.56 1.563 4.096 1.563 5.656 0l7.246-7.246v10.248c0 2.209 1.791 4 4 4s4-1.791 4-4v-10.249c7.763 7.762 7.932 8.418 10.075 8.418 3.531.001 5.357-4.301 2.829-6.827zm-156.942 85.213-3.121-11.363c-.868-3.161-4.042-5.022-7.228-4.236l-12.061 2.985 19.086-19.404h9.88zm7.336-40.019h-69.66c-6.065 0-11-4.935-11-11v-8c0-6.065 4.935-11 11-11h69.66zm25.34 0h-17.34v-30h17.34zm-86.486-38v-72.937l75.126 28.565c1.737.658 3.643.657 5.381-.001l75.123-28.564v72.938c-6.226-.001-149.419-.001-155.63-.001zm124.441 65.405-12.063-2.986c-3.183-.782-6.357 1.077-7.225 4.236l-3.121 11.364-6.556-32.019h9.879zm39.705-57.405c6.065 0 11 4.935 11 11v8c0 6.065-4.935 11-11 11h-69.66v-30zm-86.33-59.909-111.028-42.216c12.75-4.848 97.863-37.21 111.027-42.216l111.026 42.216z" fill="#5f266d"/><path d="m182.106 99.502c-2.209 0-4 1.791-4 4v17c0 2.209 1.791 4 4 4s4-1.791 4-4v-17c0-2.209-1.791-4-4-4z" fill="#5f266d"/><path d="m182.106 131.502c-2.209 0-4 1.791-4 4v5.25c0 2.209 1.791 4 4 4s4-1.791 4-4v-5.25c0-2.209-1.791-4-4-4z" fill="#5f266d"/></svg>