<svg id="Icon_Set" enable-background="new 0 0 256 256" height="512" viewBox="0 0 256 256" width="512" xmlns="http://www.w3.org/2000/svg"><path d="m234.708 122.484c4.45 0 6.683-5.376 3.542-8.529l-50.874-51.067-55.84-56.041c-1.954-1.961-5.13-1.961-7.084 0l-55.828 56.041-50.874 51.067c-3.141 3.153-.908 8.529 3.542 8.529h26.051v123.142c0 2.761 2.239 5 5 5h151.315c2.761 0 5-2.239 5-5v-123.142z" fill="#b76c6c"/><circle cx="128" cy="80.477" fill="#5fcdff" r="22.787"/><path d="m191.965 250.626h-127.93v-124.555c0-2.761 2.239-5 5-5h117.93c2.761 0 5 2.239 5 5z" fill="#ffe2e2"/><path d="m155.642 203.243v16.132c0 1.897-1.534 3.431-3.431 3.431h-48.415c-1.894 0-3.431-1.534-3.431-3.431v-16.132c0-7.509 2.993-14.316 7.862-19.287 2.501-2.585 5.513-4.615 8.377-5.884.427-.195.86-.382 1.298-.555.665-.265 1.346-.5 2.034-.71 2.552-.78 5.255-1.199 8.064-1.199 2.81 0 5.512.419 8.064 1.199.691.213 1.368.452 2.034.721.441.169.875.353 1.305.544 3.503 1.601 6.539 3.839 8.987 6.52 4.502 4.916 7.252 11.465 7.252 18.651z" fill="#3193f3"/><path d="m150.79 80.481c0 12.58-10.2 22.78-22.79 22.78-2.63 0-5.15-.44-7.5-1.26 8.9-3.1 15.29-11.57 15.29-21.52 0-9.96-6.39-18.43-15.29-21.53 2.35-.82 4.87-1.26 7.5-1.26 12.59 0 22.79 10.2 22.79 22.79z" fill="#30b6ff"/><path d="m135.5 102.001c-2.35.82-4.87 1.26-7.5 1.26-12.59 0-22.79-10.2-22.79-22.78 0-12.59 10.2-22.79 22.79-22.79 2.63 0 5.15.44 7.5 1.26-8.9 3.1-15.29 11.57-15.29 21.53 0 9.95 6.39 18.42 15.29 21.52z" fill="#73d7f9"/><path d="m234.71 122.481h-20c4.45 0 6.68-5.37 3.54-8.53l-50.87-51.06-49.38-49.56 6.45-6.48c1.96-1.96 5.13-1.97 7.09 0l55.84 56.04 50.87 51.06c3.14 3.16.91 8.53-3.54 8.53z" fill="#965959"/><path d="m37.75 113.951c-3.14 3.16-.91 8.53 3.54 8.53h-20c-4.45 0-6.68-5.37-3.54-8.53l50.87-51.06 55.83-56.04c1.96-1.96 5.13-1.97 7.09 0l6.46 6.48-49.38 49.56z" fill="#c98585"/><path d="m191.97 126.135v124.491h-15v-124.491c0-2.795-2.24-5.063-5-5.063h15c2.76-.001 5 2.268 5 5.063z" fill="#ffcfcf"/><path d="m84.03 121.071c-2.76 0-5 2.268-5 5.063v124.491h-15v-124.49c0-2.795 2.24-5.063 5-5.063h15z" fill="#ffefee"/><path d="m155.64 203.241v16.13c0 1.9-1.53 3.44-3.43 3.44h-15c1.9 0 3.43-1.54 3.43-3.44v-16.13c0-7.18-2.75-13.73-7.25-18.65-3.376-3.694-7.756-6.408-12.33-7.78-.19-.06-.37-.11-.56-.16 2.38-.68 4.89-1.04 7.5-1.04 2.81 0 5.51.42 8.06 1.2.7.21 1.37.45 2.04.72.44.17.87.35 1.3.54 3.51 1.6 6.54 3.84 8.99 6.52 4.5 4.92 7.25 11.47 7.25 18.65z" fill="#307fed"/><path d="m135.5 176.651c-.19.05-.37.1-.56.16-11.628 3.538-19.58 14.292-19.58 26.43v16.13c0 1.9 1.54 3.44 3.44 3.44h-15c-1.9 0-3.44-1.54-3.44-3.44v-16.13c0-7.51 3-14.31 7.87-19.29 2.5-2.58 5.51-4.61 8.37-5.88.43-.19.86-.38 1.3-.55.67-.27 1.35-.5 2.04-.71 2.55-.78 5.25-1.2 8.06-1.2 2.61 0 5.12.36 7.5 1.04z" fill="#35b1fc"/><path d="m120.155 196.328h15.691v40.298h-15.691z" fill="#ff4a73"/><path d="m159.87 194.036v34.63c0 .97-.65 1.81-1.58 2.06l-22.44 5.9v-40.28l21.47-4.4c1.32-.27 2.55.74 2.55 2.09z" fill="#ff4a73"/><path d="m120.15 196.346v40.28l-22.44-5.9c-.93-.25-1.58-1.09-1.58-2.06v-34.63c0-1.35 1.23-2.36 2.55-2.09z" fill="#ff4a73"/><path d="m146.446 159.144c-1.701-8.634-9.309-15.141-18.446-15.141-9.213 0-16.876 6.624-18.487 15.375-.096.496-.165.999-.221 1.508 0 .514-.309 2.275.145 4.93 0 .446.527 2.736 1.398 4.662-.007.007 0 .014.007.021 2.933 6.555 9.516 11.12 17.158 11.12 7.656 0 14.239-4.572 17.173-11.134.866-1.82 1.402-4.382 1.466-5.157.117-.701.173-1.797.173-2.52-.001-1.383-.153-2.685-.366-3.664z" fill="#ffbb98"/><path d="m135.5 180.061c-2.3 1.01-4.83 1.56-7.5 1.56-7.64 0-14.22-4.57-17.16-11.12-.01-.01-.01-.02-.01-.02-.878-1.969-1.39-4.226-1.39-4.67-.46-2.65-.15-4.41-.15-4.93.06-.51.13-1.01.22-1.5 1.61-8.75 9.28-15.38 18.49-15.38 2.67 0 5.2.56 7.5 1.56-5.65 2.46-9.85 7.6-10.99 13.82-.09.49-.16.99-.22 1.5 0 9.006 2.854 15.538 11.21 19.18z" fill="#ffcaa6"/><path d="m103.093 157.866v2.379h4.7c3.271 0 6.296-1.908 7.935-5.012l2.633-5.012 2.64 5.012c.82 1.552 1.987 2.807 3.358 3.67 1.364.863 2.945 1.342 4.577 1.342h23.98v-2.379c0-13.469-10.691-24.436-24.045-24.893-.283-.014-.574-.014-.863-.014-.29 0-.58 0-.863.014-6.535.225-12.432 2.959-16.755 7.282-4.512 4.505-7.297 10.728-7.297 17.611z" fill="#87828e"/><path d="m152.92 157.871v2.37h-15v-2.37c0-11.15-7.33-20.59-17.43-23.75 2.11-.68 4.34-1.07 6.65-1.15.29-.01.58-.01.87-.01s.58 0 .86.01c13.35.46 24.05 11.43 24.05 24.9z" fill="#796e84"/><path d="m135.49 134.121c-3.86 1.21-7.31 3.34-10.1 6.13-3.03 3.03-5.29 6.84-6.43 11.11l-.6-1.14-2.63 5.01c-1.64 3.11-4.67 5.01-7.94 5.01h-4.7v-2.37c0-6.89 2.79-13.11 7.3-17.62 4.32-4.32 10.22-7.05 16.75-7.28.29-.01.58-.01.87-.01s.58 0 .86.01c2.3.08 4.52.47 6.62 1.15z" fill="#a4a4a5"/><path d="m159.87 194.031v34.63c0 .97-.65 1.81-1.58 2.06l-13.42 3.53v-39.76l12.45-2.55c1.32-.27 2.55.74 2.55 2.09z" fill="#ea2a6a"/><path d="m111.15 194.501c-.01.13-.02.27-.02.41v39.34l-13.42-3.53c-.93-.25-1.58-1.09-1.58-2.06v-34.63c0-1.35 1.23-2.36 2.55-2.09z" fill="#f973a3"/><g fill="#5f266d"><path d="m241.08 111.131-106.71-107.11c-3.529-3.529-9.232-3.518-12.75 0l-106.7 107.11c-5.657 5.679-1.614 15.35 6.37 15.35h22.05v119.14c0 4.97 4.04 9 9 9h11.69 127.93 11.7c4.96 0 9-4.03 9-9v-119.14h22.05c7.985 0 12.026-9.672 6.37-15.35zm-6.37 7.35h-26.05c-2.21 0-4 1.79-4 4v123.14c0 .56-.45 1-1 1h-7.7v-120.55c0-4.96-4.03-9-9-9h-117.93c-4.96 0-9 4.04-9 9v120.55h-7.69c-.55 0-1-.44-1-1v-123.14c0-2.21-1.79-4-4-4h-26.05c-.922 0-1.33-1.08-.71-1.7l106.71-107.11c.378-.378 1.014-.396 1.41 0l106.72 107.11c.62.62.212 1.7-.71 1.7zm-166.68 7.59c0-.55.45-1 1-1h117.93c.56 0 1 .45 1 1v120.55h-119.93z"/><path d="m128 53.691c-14.77 0-26.79 12.02-26.79 26.79s12.02 26.78 26.79 26.78 26.79-12.01 26.79-26.78-12.02-26.79-26.79-26.79zm0 45.57c-10.36 0-18.79-8.42-18.79-18.78s8.43-18.79 18.79-18.79 18.79 8.43 18.79 18.79-8.43 18.78-18.79 18.78z"/><path d="m156.52 188.031-.7.14c-2.362-4.357-5.799-8.24-10.03-11.06 2.842-3.535 4.717-8.131 4.98-12.87h2.15c2.2 0 4-1.79 4-4v-2.37c0-15.67-12.26-28.36-27.84-28.89-15.159-.855-29.99 11.606-29.99 28.89v2.37c0 2.21 1.79 4 4 4h2.14c.383 5.048 2.186 9.351 5 12.85-3.915 2.625-7.542 6.464-10.05 11.08l-.7-.14c-3.821-.781-7.35 2.133-7.35 6v34.63c0 2.77 1.87 5.21 4.56 5.93l22.27 5.85c.37.109.713.18 1.19.18h15.7c.537 0 .861-.083 1.19-.18l22.29-5.85c2.67-.72 4.54-3.16 4.54-5.93v-34.63c0-3.882-3.55-6.781-7.35-6zm-24.67 44.59h-7.7c0-16.442 0-15.784 0-32.29h7.7zm-3.84-95.66c11.067 0 20.015 8.427 20.85 19.28-6.654 0-13.277 0-19.92 0-3.618 0-4.705-3.437-7.04-7.88-1.453-2.807-5.568-2.892-7.08 0-3.937 7.501-4.701 7.88-7.67 7.88.794-10.687 9.777-19.28 20.86-19.28zm-14.82 26.04c2.04-.97 3.82-2.49 5.17-4.42 2.397 3.434 6.249 5.66 10.58 5.66h13.81c-.991 8.412-7.829 13.38-14.75 13.38-8.349 0-14.81-6.94-14.81-14.62zm3.4 19.55c3.4 1.97 7.32 3.07 11.41 3.07s8.02-1.1 11.42-3.06c3.323 1.822 6.037 4.354 8.08 7.32l-11.96 2.45h-15.08l-11.95-2.45c1.98-2.892 4.784-5.526 8.08-7.33zm-.44 48.89-16.02-4.21c0-11.082 0-18.173 0-30.9.189.038 15.831 3.241 16.02 3.28zm23.7-31.83c.301-.062 15.716-3.217 16.02-3.28v29.51 1.39l-16.02 4.21c0-7.079 0-25.169 0-31.83z"/><path d="m57.47 90.451-11 11.63c-3.638 3.855 2.226 9.311 5.82 5.49l10.99-11.62c3.635-3.826-2.168-9.334-5.81-5.5z"/><path d="m69.51 77.731-1.73 1.83c-3.629 3.819 2.188 9.341 5.81 5.49l1.73-1.82c3.633-3.848-2.177-9.347-5.81-5.5z"/></g></svg>