<svg id="Icon_Set" enable-background="new 0 0 256 256" height="512" viewBox="0 0 256 256" width="512" xmlns="http://www.w3.org/2000/svg"><path id="XMLID_14_" d="m38.277 125.775 15.931-22.273c.607-.849.933-1.862.933-2.906-.001-3.809-.002-13.087-.002-12.993 0-45.118 36.089-82.516 81.206-82.849 62.885-.464 102.482 67.35 72.086 121.555-8.35 14.891-26.388 50.219-26.388 67.684 0 11.529 3.645 23.162 10.981 32.942l12.238 16.317c2.472 3.296.12 8-4 8h-87.303c-2.761 0-5-2.24-5-5.002 0-21.067.004-40.375.004-40.246.001-2.762-2.238-5.002-5-5.002h-17.178c-16.378 0-30.854-39.697-31.643-65.18h-11.699c-5.168 0-8.173-5.844-5.166-10.047z" fill="#5fcdff"/><path d="m123.956 246.252c0-21 .01-40.25.01-40.25 0-2.76-2.24-5-5-5h-15c2.76 0 5 2.24 5 5 0 0-.01 19.25-.01 40.25 0 2.76 2.24 5 5 5h15c-2.76 0-5-2.241-5-5z" fill="#73d7f9"/><path d="m70.146 135.821h-11.7c-5.17 0-8.18-5.84-5.17-10.05l15.93-22.27c.61-.85.94-1.86.94-2.91 0-3.78-.01-12.99-.01-12.99 0-42.82 32.51-78.69 74.4-82.51-2.68-.25-5.41-.36-8.19-.34-45.12.34-81.21 37.73-81.21 82.85 0 0 .01 9.21.01 12.99 0 1.05-.33 2.06-.94 2.91l-15.93 22.27c-3.01 4.21 0 10.05 5.17 10.05h11.7c.78 25.48 15.26 65.18 31.64 65.18h15c-16.38.001-30.86-39.7-31.64-65.18z" fill="#73d7f9"/><path d="m208.436 126.312c-8.35 14.89-26.39 50.22-26.39 67.68 0 11.53 3.64 23.16 10.98 32.94l12.24 16.32c2.47 3.3.12 8-4 8h-15c4.12 0 6.47-4.7 4-8l-12.24-16.32c-7.34-9.78-10.98-21.41-10.98-32.94 0-17.46 18.04-52.79 26.39-67.68 29.05-51.82-5.85-116.06-63.9-121.22 2.24-.21 4.51-.32 6.81-.34 62.88-.46 102.48 67.35 72.09 121.56z" fill="#30b6ff"/><path d="m162.29 79.186c0-16.871-14.256-30.412-31.379-29.234-14.581 1.003-26.339 12.906-27.182 27.497-.364 6.303 1.268 12.202 4.319 17.13 2.949 4.762 4.517 10.249 4.517 15.85v16.779h39.386v-14.542c0-5.984 1.711-11.882 5.124-16.798 3.288-4.734 5.215-10.482 5.215-16.682z" fill="#f9d335"/><path d="m134.038 153.452h-3.597c-9.872 0-17.875-8.003-17.875-17.875v-8.37h39.347v8.37c0 9.873-8.003 17.875-17.875 17.875z" fill="#87828e"/><path d="m162.286 79.184c0 6.2-1.92 11.95-5.21 16.68-3.41 4.92-5.12 10.82-5.12 16.8v14.54h-15v-14.54c0-5.98 1.71-11.88 5.12-16.8 3.29-4.73 5.21-10.48 5.21-16.68 0-13.59-9.25-25.02-21.8-28.33 1.75-.47 3.57-.77 5.43-.9 17.12-1.18 31.37 12.36 31.37 29.23z" fill="#f2c300"/><path d="m123.046 94.574c2.95 4.77 4.52 10.25 4.52 15.85v16.78h-15v-16.78c0-5.6-1.57-11.08-4.52-15.85-3.05-4.92-4.68-10.82-4.32-17.13.85-14.59 12.6-26.49 27.19-27.49 3.33-.23 6.54.1 9.57.9-11.98 3.18-21.02 13.86-21.76 26.59-.36 6.31 1.27 12.21 4.32 17.13z" fill="#f9e27d"/><path d="m151.916 127.204v8.37c0 9.88-8.01 17.88-17.88 17.88h-3.6c-1.99 0-3.91-.33-5.7-.93 7.08-2.38 12.18-9.06 12.18-16.95v-8.37z" fill="#796e84"/><path d="m139.736 152.524c-1.79.6-3.71.93-5.7.93h-3.6c-9.87 0-17.87-8-17.87-17.88v-8.37h15v8.37c0 7.89 5.1 14.57 12.17 16.95z" fill="#a4a4a5"/><path d="m112.566 119.733h39.386v16.779h-39.386z" fill="#87828e"/><path d="m136.956 119.734h15v16.78h-15z" fill="#796e84"/><path d="m112.566 119.734h15v16.78h-15z" fill="#a4a4a5"/><g fill="#5f266d"><path d="m136.327.753c-46.965.347-85.175 39.308-85.175 86.85l.001 12.994c0 .491-15.83 22.447-16.118 22.85-4.895 6.843.002 16.374 8.42 16.374h7.919c1.992 24.915 15.7 65.18 35.422 65.18h17.178c.555 0 1 .446 1 1.001h.041c-.064.646-.041-1.719-.045 40.247 0 4.964 4.038 9.002 9 9.002h87.303c7.413 0 11.646-8.471 7.2-14.4-12.214-16.285-22.418-26.607-22.418-46.858 0-15.46 16.266-48.589 25.876-65.728 32.067-57.182-10.012-128.098-75.604-127.512zm41.729 193.239c0 22.755 11.18 34.542 24.019 51.659.497.663.031 1.6-.8 1.6h-87.303c-.551 0-1-.449-1-1.002 0-20.936.004-40.135.004-40.245.002-4.975-4.024-9.003-9-9.003h-17.179c-12.431 0-26.861-35.98-27.645-61.304-.067-2.16-1.837-3.876-3.998-3.876h-11.699c-1.917 0-3.028-2.16-1.913-3.72 17.337-24.238 17.613-23.68 17.611-27.507-.002-11.634.038-11.992-.07-12.992h.068c0-43.291 34.884-78.852 77.833-78.852 59.445 0 96.808 64.174 67.97 115.601-4.491 8.01-26.898 49.011-26.898 69.641z"/><path d="m185.288 124.334c-2.029-.883-4.383.043-5.266 2.068l-6.396 14.666c-.883 2.024.042 4.382 2.067 5.266 2.031.883 4.385-.046 5.266-2.068l6.396-14.666c.884-2.025-.042-4.382-2.067-5.266z"/><path d="m172.897 152.751c-2.024-.884-4.382.042-5.266 2.066l-2.108 4.834c-1.156 2.65.801 5.601 3.665 5.601 3.349 0 3.94-3.023 5.777-7.235.882-2.026-.043-4.383-2.068-5.266z"/><path d="m155.715 54.844c-20.557-19.188-54.345-5.692-55.981 22.389-.983 17.201 8.833 19.138 8.833 33.209 0 27.391-.063 26.179.087 26.901.906 11.328 10.349 20.119 21.792 20.119h3.59c12.887 0 21.917-11.024 21.917-20.941 0-24.992-1.131-30.376 4.406-38.364 9.452-13.589 7.411-32.059-4.644-43.313zm-21.678 94.617h-3.59c-5.924 0-11.003-3.713-12.986-8.941h29.548c-1.995 5.245-7.063 8.941-12.972 8.941zm13.881-16.942h-31.349v-8.779h31.386c0 1.821-.037 3.306-.037 8.779zm.04-16.779h-11.696v-17.231l10.438-10.439c1.562-1.562 1.562-4.095 0-5.656-1.563-1.563-4.095-1.563-5.657 0l-4.777 4.777v-6.756c0-2.209-1.791-4-4-4s-4 1.791-4 4v6.756l-4.777-4.777c-1.563-1.563-4.095-1.563-5.657 0-1.562 1.562-1.562 4.095 0 5.656l10.429 10.429v17.241h-11.694v-5.299c0-16.407-9.658-18.561-8.847-32.748.738-12.668 10.828-22.875 23.472-23.742 14.879-1.019 27.105 10.718 27.105 25.24.001 16.087-10.339 12.697-10.339 36.549z"/><path d="m132.978 41.294c2.209 0 4-1.791 4-4v-10.75c0-2.209-1.791-4-4-4s-4 1.791-4 4v10.75c0 2.209 1.791 4 4 4z"/><path d="m154.806 45.913 7.601-7.601c1.563-1.562 1.563-4.095 0-5.656-1.562-1.562-4.094-1.563-5.657 0l-7.601 7.601c-1.563 1.562-1.563 4.095 0 5.656 1.563 1.562 4.096 1.563 5.657 0z"/><path d="m113.978 46.169c3.531 0 5.356-4.302 2.829-6.828l-7.602-7.602c-1.563-1.563-4.095-1.563-5.657 0-1.562 1.562-1.562 4.095 0 5.656 8.141 8.141 8.272 8.774 10.43 8.774z"/></g></svg>