<svg id="Icon_Set" enable-background="new 0 0 256 256" height="512" viewBox="0 0 256 256" width="512" xmlns="http://www.w3.org/2000/svg"><path d="m196.162 226.608-.16.041c-49.325 12.519-100.996 12.519-150.321 0l-.16-.041c-3.819-.969-6.493-4.407-6.493-8.347v-88.033h163.628v88.033c-.001 3.94-2.675 7.378-6.494 8.347z" fill="#87828e"/><path d="m54.026 130.224v98.41c-2.79-.62-5.57-1.29-8.35-1.99l-.16-.04c-3.81-.97-6.49-4.4-6.49-8.34v-88.04z" fill="#a4a4a5"/><path d="m202.656 130.224v88.04c0 3.94-2.68 7.37-6.49 8.34l-.16.04c-2.78.7-5.56 1.37-8.35 1.99v-98.41z" fill="#796e84"/><path d="m59.7 98.474-52.355 19.908c-3.071 1.168-3.071 5.513 0 6.681l52.355 19.907 59.871 22.765c.818.311 1.722.311 2.54 0l59.871-22.765 52.356-19.907c3.071-1.168 3.071-5.513 0-6.681l-52.356-19.907-59.871-22.765c-.818-.311-1.722-.311-2.54 0z" fill="#87828e"/><path d="m234.336 125.064-52.35 19.91-59.88 22.76c-.81.31-1.72.31-2.54 0l-11.95-4.54 47.91-18.22 52.35-19.91c3.07-1.17 3.07-5.51 0-6.68l-52.35-19.91-47.91-18.22 11.95-4.54c.82-.32 1.73-.32 2.54 0l59.88 22.76 52.35 19.91c3.07 1.17 3.07 5.51 0 6.68z" fill="#796e84"/><path d="m87.696 144.974 47.14 17.92-12.73 4.84c-.81.31-1.72.31-2.54 0l-59.87-22.76-52.35-19.91c-3.07-1.17-3.07-5.51 0-6.68l52.35-19.91 59.87-22.76c.82-.32 1.73-.32 2.54 0l12.73 4.84-47.14 17.92-52.35 19.91c-3.07 1.17-3.07 5.51 0 6.68z" fill="#a4a4a5"/><circle cx="120.841" cy="68.591" fill="#f9d335" r="48.6"/><path d="m169.436 68.594c0 26.84-21.75 48.6-48.6 48.6-2.55 0-5.06-.2-7.5-.58 23.29-3.6 41.1-23.73 41.1-48.02s-17.81-44.42-41.1-48.02c2.44-.38 4.95-.58 7.5-.58 26.85 0 48.6 21.76 48.6 48.6z" fill="#f2c300"/><path d="m128.336 116.614c-2.44.38-4.95.58-7.5.58-26.84 0-48.6-21.76-48.6-48.6s21.76-48.6 48.6-48.6c2.55 0 5.06.2 7.5.58-23.28 3.6-41.1 23.73-41.1 48.02s17.82 44.42 41.1 48.02z" fill="#f9e27d"/><g fill="#5f266d"><path d="m253.777 208.655-8.005-8.005c3.698-1.094 6.399-4.511 6.399-8.564v-12.725c0-4.934-4-8.934-8.934-8.934h-2.362c0-53.704.387-50.284-.935-51.875-.807-1.76-2.272-3.176-4.182-3.904l-66.585-25.319c14.919-34.638-10.678-73.336-48.332-73.336-37.665 0-63.25 38.696-48.334 73.333l-66.586 25.322c-6.498 2.478-6.499 11.679.002 14.156l29.102 11.066v78.396c0 5.769 3.908 10.792 9.52 12.221l.146.036c48.082 12.204 100.782 13.093 152.46-.041 5.595-1.424 9.503-6.447 9.503-12.216v-78.396l26.219-9.969v40.526h-2.363c-4.934 0-8.934 4-8.934 8.934v12.725c0 4.053 2.701 7.47 6.399 8.564l-8.005 8.005c-1.562 1.562-1.562 4.095 0 5.656 1.563 1.563 4.095 1.563 5.657 0l7.246-7.246v10.248c0 2.209 1.791 4 4 4s4-1.791 4-4v-10.248c7.76 7.76 7.93 8.417 10.074 8.417 3.533.001 5.357-4.301 2.83-6.827zm-132.937-184.662c24.593 0 44.6 20.007 44.6 44.6s-20.007 44.6-44.6 44.6-44.6-20.007-44.6-44.6 20.007-44.6 44.6-44.6zm77.815 194.273c0 2.107-1.43 3.942-3.46 4.459l-.174.044c-48.53 12.316-99.833 12.318-148.375-.004l-.144-.035c-2.047-.521-3.477-2.356-3.477-4.464v-75.354l75.124 28.565c1.758.665 3.673.651 5.377-.002l75.129-28.564zm-77.82-54.327-111.019-42.213 66.442-25.268c6.034 9.619 15.089 17.152 25.829 21.266h-31.297c-2.209 0-4 1.791-4 4s1.791 4 4 4h100.099c2.209 0 4-1.791 4-4s-1.791-4-4-4h-31.296c10.739-4.113 19.793-11.645 25.827-21.263l66.445 25.265z"/><path d="m115.94 72.493h9.7c2.536 0 4.6 2.063 4.6 4.6s-2.063 4.6-4.6 4.6h-12.9c-.63 0-1.3-.455-1.3-1.3 0-2.209-1.791-4-4-4s-4 1.791-4 4c0 5.128 4.172 9.3 9.3 9.3h4.1v5.2c0 2.209 1.791 4 4 4s4-1.791 4-4v-5.2c8.587 0 13.4-6.24 13.4-12.6 0-6.947-5.652-12.6-12.6-12.6h-9.7c-2.537 0-4.6-2.063-4.6-4.601 0-2.536 2.063-4.6 4.6-4.6h12.9c.845 0 1.3.67 1.3 1.3 0 2.209 1.791 4 4 4s4-1.791 4-4c0-5.128-4.172-9.3-9.3-9.3h-4v-4.9c0-2.209-1.791-4-4-4s-4 1.791-4 4v4.9c-8.778 0-13.5 6.299-13.5 12.6 0 6.949 5.652 12.601 12.6 12.601z"/><path d="m183.938 210.683c2.209 0 4-1.791 4-4v-5.334c0-2.209-1.791-4-4-4s-4 1.791-4 4v5.334c0 2.209 1.791 4 4 4z"/><path d="m183.938 190.349c2.209 0 4-1.791 4-4v-19c0-2.209-1.791-4-4-4s-4 1.791-4 4v19c0 2.209 1.791 4 4 4z"/></g></svg>