<svg id="Icon_Set" enable-background="new 0 0 256 256" height="512" viewBox="0 0 256 256" width="512" xmlns="http://www.w3.org/2000/svg"><path d="m229.756 195.6v50.039c0 2.761-2.239 5-5 5h-188.881c-9.046-7.1-13.576-18.571-13.576-30.012 0-11.47 4.53-22.912 13.576-30.027h188.881c2.761 0 5 2.239 5 5z" fill="#ff4a73"/><path d="m229.756 195.599v50.04c0 2.76-2.24 5-5 5h-15c2.76 0 5-2.24 5-5v-50.04c0-2.76-2.24-5-5-5h15c2.76 0 5 2.24 5 5z" fill="#ea2a6a"/><path d="m50.876 250.639h-15c-9.05-7.1-13.58-18.57-13.58-30.01 0-11.47 4.53-22.91 13.58-30.03h15c-9.05 7.12-13.58 18.56-13.58 30.03 0 11.44 4.53 22.91 13.58 30.01z" fill="#f973a3"/><path d="m149.4 61.471c-26.462 0-47.92 9.89-47.92 22.11 0-12.22-21.457-22.11-47.92-22.11s-47.92 9.89-47.92 22.11v118.948.852h.04 95.76.08 95.76.04v-.852-118.948c0-12.219-21.458-22.11-47.92-22.11z" fill="#ffe2e2"/><path d="m197.316 83.579v119.8h-15v-119.8c0-11.04-17.51-20.18-40.42-21.84 2.45-.18 4.95-.27 7.5-.27 26.47 0 47.92 9.89 47.92 22.11z" fill="#ffcfcf"/><path d="m61.056 61.739c-22.9 1.66-40.42 10.8-40.42 21.84v119.8h-15v-119.8c0-12.22 21.46-22.11 47.92-22.11 2.55 0 5.05.09 7.5.27z" fill="#ffefee"/><path d="m197.32 202.529c0 .28-.013.572-.04.852h-95.76c-.027-.28-.04-.572-.04-.852 0-12.206 21.457-22.11 47.92-22.11s47.92 9.904 47.92 22.11z" fill="#ffe2e2"/><path d="m101.48 202.529c0 .28-.013.572-.04.852h-95.76c-.027-.28-.04-.572-.04-.852 0-12.206 21.457-22.11 47.92-22.11s47.92 9.904 47.92 22.11z" fill="#ffe2e2"/><path d="m197.316 202.529c0 .28-.01.57-.04.85h-15c.03-.28.04-.57.04-.85 0-11.03-17.51-20.18-40.42-21.83 2.45-.19 4.95-.28 7.5-.28 26.47 0 47.92 9.9 47.92 22.11z" fill="#ffcfcf"/><path d="m116.476 202.529c0 .28.02.57.04.85h-15c-.02-.28-.04-.57-.04-.85 0-12.21 21.46-22.11 47.92-22.11 2.55 0 5.05.09 7.5.28-22.9 1.65-40.42 10.8-40.42 21.83z" fill="#ffefee"/><path d="m101.476 202.529c0 .28-.01.57-.04.85h-15c.03-.28.04-.57.04-.85 0-11.03-17.51-20.18-40.42-21.83 2.45-.19 4.95-.28 7.5-.28 26.47 0 47.92 9.9 47.92 22.11z" fill="#ffcfcf"/><path d="m20.636 202.529c0 .28.02.57.04.85h-15c-.02-.28-.04-.57-.04-.85 0-12.21 21.46-22.11 47.92-22.11 2.55 0 5.05.09 7.5.28-22.9 1.65-40.42 10.8-40.42 21.83z" fill="#ffefee"/><path d="m191.424 36.539h13.887v41.674h-13.887z" fill="#87828e" transform="matrix(-.707 -.707 .707 -.707 298.064 238.213)"/><ellipse cx="164.65" cy="95.045" fill="#87828e" rx="46.974" ry="46.974" transform="matrix(.707 -.707 .707 .707 -18.982 144.263)"/><path d="m211.626 95.049c0 25.9-21.07 46.97-46.98 46.97-2.55 0-5.05-.2-7.49-.6 22.35-3.6 39.47-23.02 39.47-46.37 0-23.36-17.12-42.78-39.47-46.38 2.44-.4 4.94-.6 7.49-.6 25.91 0 46.98 21.07 46.98 46.98z" fill="#796e84"/><path d="m247.443 13.274-4.996-4.996c-3.893-3.893-10.206-3.893-14.1 0l-22.291 22.292c-3.905 3.905-3.905 10.237 0 14.142l4.975 4.975c3.905 3.905 10.237 3.905 14.142 0l22.271-22.271c3.905-3.905 3.905-10.237-.001-14.142z" fill="#87828e"/><path d="m247.346 13.179c-3.64-1.57-8.02-.87-11 2.1l-22.29 22.29c-3.91 3.91-3.91 10.24 0 14.14l.09.09c-1.13-.48-2.19-1.19-3.12-2.11l-4.97-4.98c-3.91-3.9-3.91-10.23 0-14.14l22.29-22.29c3.9-3.89 10.21-3.89 14.1 0z" fill="#a4a4a5"/><path d="m172.156 141.419c-2.45.4-4.95.6-7.51.6-25.9 0-46.97-21.07-46.97-46.97 0-25.91 21.07-46.98 46.97-46.98 2.56 0 5.06.2 7.51.6-22.36 3.6-39.48 23.02-39.48 46.38 0 23.35 17.12 42.77 39.48 46.37z" fill="#a4a4a5"/><circle cx="164.65" cy="95.045" fill="#5fcdff" r="33.123"/><path d="m197.776 95.049c0 18.29-14.83 33.12-33.13 33.12-2.58 0-5.09-.3-7.5-.85 14.69-3.4 25.63-16.56 25.63-32.27 0-15.72-10.94-28.88-25.63-32.28 2.41-.55 4.92-.85 7.5-.85 18.3 0 33.13 14.83 33.13 33.13z" fill="#30b6ff"/><path d="m172.146 127.319c-2.41.55-4.92.85-7.5.85-18.29 0-33.12-14.83-33.12-33.12 0-18.3 14.83-33.13 33.12-33.13 2.58 0 5.09.3 7.5.85-14.68 3.4-25.62 16.56-25.62 32.28 0 15.71 10.94 28.87 25.62 32.27z" fill="#73d7f9"/><g fill="#5f266d"><path d="m161.116 58.089c-18.766 1.761-33.59 17.636-33.59 36.96 0 20.47 16.65 37.12 37.12 37.12 20.524 0 37.13-16.706 37.13-37.12 0-21.69-18.684-39.042-40.66-36.96zm3.53 66.08c-16.06 0-29.12-13.06-29.12-29.12 0-14.85 11.16-27.14 25.54-28.9 16.687-2.281 32.71 10.994 32.71 28.9 0 15.94-12.96 29.12-29.13 29.12z"/><path d="m228.006 52.519 22.27-22.27c5.45-5.46 5.45-14.34 0-19.8l-5-5c-5.45-5.45-14.31-5.45-19.76 0l-22.29 22.29c-3.54 3.54-4.78 8.51-3.74 13.05l-9.85 9.84c-7.39-4.18-15.91-6.56-24.99-6.56-14.35 0-27.33 5.96-36.59 15.54-12.11 2.61-21.55 7.42-26.58 13.55-7.69-9.4-25.77-15.69-47.92-15.69-29.6 0-51.92 11.23-51.92 26.11v119.8c0 2.2 1.857 4 4.04 4h14.55c-1.26 4.19-1.93 8.66-1.93 13.25 0 13.34 5.65 25.73 15.11 33.16.7.55 1.57.85 2.47.85h188.88c4.96 0 9-4.04 9-9v-50.04c0-4.96-4.04-9-9-9h-23.44v-56.19c8.86-9.17 14.31-21.64 14.31-35.36 0-11.12-3.58-21.42-9.65-29.81l8.99-8.99c4.504 1.049 9.503-.193 13.04-3.73zm-63.36 85.5c-23.69 0-42.97-19.28-42.97-42.97 0-16.952 10.115-30.778 21.87-37.43 28.612-16.187 64.08 4.652 64.08 37.43 0 23.795-19.369 42.97-42.98 42.97zm61.11 57.58v21.02h-99.73c-5.285 0-5.293 8 0 8h99.73v21.02c0 .55-.45 1-1 1h-187.44c-6.92-6-11.02-15.62-11.02-26.01 0-4.65.83-9.16 2.36-13.25h168.62c2.215 0 4.04-1.755 4.04-4v-8.78h23.44c.55 0 1 .45 1 1zm-172.2-130.13c25.89 0 43.92 9.55 43.92 18.11v103.02c-.128 0-18.739-10.18-43.92-10.18-18.7 0-34.79 4.73-43.92 12v-104.84c0-8.56 18.04-18.11 43.92-18.11zm95.84 118.95c20.736 0 38.965 6.454 43.14 14.96h-86.28c5.529-11.265 29.721-14.96 43.14-14.96zm-95.84 0c21.033 0 39.058 6.644 43.14 14.96-9.621 0-76.42 0-86.27 0 3.72-7.59 20.4-14.96 43.13-14.96zm139.76 2.18c-.001 0-19.338-10.18-43.92-10.18-25.166 0-43.792 10.18-43.92 10.18v-103.02c0-4.7 5.43-9.69 14.6-13.23-4.08 7.32-6.4 15.75-6.4 24.7 0 28.1 22.87 50.97 50.97 50.97 10.63 0 20.5-3.27 28.67-8.85zm3.07-131.4 7.25-7.25 4.16 4.16-7.02 7.02c-1.38-1.4-2.85-2.71-4.39-3.93zm34.79-44.09c2.314-2.334 6.126-2.334 8.44 0l5 4.99c2.34 2.34 2.34 6.15 0 8.49-.22.22-22.371 22.394-22.62 22.58-2.387 2.048-5.935 1.895-8.14-.31l-4.97-4.97c-2.206-2.206-2.359-5.77-.31-8.14.186-.249 22.381-22.421 22.6-22.64z"/><path d="m38.066 98.079h30.5c5.303 0 5.276-8 0-8h-30.5c-5.278 0-5.292 8 0 8z"/><path d="m25.966 118.899h54.7c5.285 0 5.293-8 0-8h-54.7c-5.285 0-5.293 8 0 8z"/><path d="m25.966 139.709h54.7c5.285 0 5.293-8 0-8h-54.7c-5.285 0-5.293 8 0 8z"/><path d="m25.966 160.529h54.7c5.281 0 5.294-8 0-8h-54.7c-5.302 0-5.276 8 0 8z"/><path d="m147.146 156.099c-15.51-.74-30.47 5.64-31.06 5.9-4.806 2.06-1.725 9.453 3.17 7.34 8.626-3.305 18.569-5.744 27.51-5.25 5.245.308 5.7-7.75.38-7.99z"/><path d="m159.566 167.229c.96.5 1.89 1.07 2.75 1.69 4.376 3.082 8.901-3.451 4.67-6.5-1.18-.84-2.44-1.62-3.74-2.29-4.699-2.434-8.387 4.662-3.68 7.1z"/></g></svg>