<svg id="Icon_Set" enable-background="new 0 0 256 256" height="512" viewBox="0 0 256 256" width="512" xmlns="http://www.w3.org/2000/svg"><path d="m173.56 201.83v42.561c0 3.233-2.621 5.854-5.854 5.854h-150.49c-7.294-5.725-10.947-14.975-10.947-24.202 0-9.25 3.653-18.476 10.947-24.213z" fill="#ff4a73"/><path d="m198.148 159.269v36.706c0 3.233-2.621 5.854-5.854 5.854h-150.49c-7.294-5.725-10.947-14.975-10.947-24.202 0-9.25 3.653-18.476 10.947-24.213h150.49c3.233.001 5.854 2.622 5.854 5.855z" fill="#f9d335"/><path d="m174.731 110.854v42.561h-156.344c-7.294-5.726-10.947-14.975-10.947-24.202 0-9.25 3.653-18.476 10.947-24.213h150.49c3.233 0 5.854 2.621 5.854 5.854z" fill="#3193f3"/><path d="m174.73 110.85v42.56h-15v-42.56c0-3.23-2.62-5.85-5.85-5.85h15c3.23 0 5.85 2.62 5.85 5.85z" fill="#307fed"/><path d="m33.39 153.41h-15c-7.3-5.72-10.95-14.97-10.95-24.2 0-9.25 3.65-18.47 10.95-24.21h15c-7.3 5.74-10.95 14.96-10.95 24.21 0 9.23 3.65 18.48 10.95 24.2z" fill="#35b1fc"/><circle cx="182.5" cy="72.5" fill="#ff4a73" r="67.5"/><path d="m212.493 56.36-4.172-9.361c-.705-1.581-2.949-1.581-3.654 0l-4.172 9.361-5.999 13.46-5.998-13.46-4.172-9.361c-.705-1.581-2.949-1.581-3.654 0l-4.172 9.361-5.999 13.46-5.999-13.46-4.172-9.361c-.705-1.581-2.949-1.581-3.654 0l-4.172 9.361-5.739 12.877c-.171.384-.26.8-.26 1.221v23.347h71.982v-23.347c0-.421-.089-.837-.26-1.221z" fill="#f9d335"/><path d="m198.15 159.27v36.71c0 3.23-2.62 5.85-5.86 5.85h-15c3.24 0 5.86-2.62 5.86-5.85v-36.71c0-3.23-2.62-5.86-5.86-5.86h15c3.24 0 5.86 2.63 5.86 5.86z" fill="#f2c300"/><path d="m56.8 201.83h-15c-7.29-5.73-10.94-14.98-10.94-24.2 0-9.25 3.65-18.48 10.94-24.22h15c-7.29 5.74-10.94 14.97-10.94 24.22 0 9.22 3.65 18.47 10.94 24.2z" fill="#f9e27d"/><path d="m173.56 201.83v42.56c0 3.23-2.62 5.85-5.85 5.85h-15c3.23 0 5.85-2.62 5.85-5.85v-42.56z" fill="#ea2a6a"/><path d="m32.22 250.24h-15c-7.3-5.72-10.95-14.97-10.95-24.2 0-9.25 3.65-18.47 10.95-24.21h15c-7.3 5.74-10.95 14.96-10.95 24.21 0 9.23 3.65 18.48 10.95 24.2z" fill="#f973a3"/><path d="m250 72.5c0 37.28-30.22 67.5-67.5 67.5-2.54 0-5.04-.14-7.5-.42 33.75-3.72 60-32.34 60-67.08s-26.25-63.36-60-67.08c2.46-.28 4.96-.42 7.5-.42 37.28 0 67.5 30.22 67.5 67.5z" fill="#ea2a6a"/><path d="m190 139.58c-2.46.28-4.96.42-7.5.42-37.28 0-67.5-30.22-67.5-67.5s30.22-67.5 67.5-67.5c2.54 0 5.04.14 7.5.42-33.75 3.72-60 32.34-60 67.08s26.25 63.36 60 67.08z" fill="#f973a3"/><path d="m218.49 70.46v23.35h-15v-23.35c0-.42-.09-.84-.26-1.22l-4.24-9.5 1.51-3.38 4.17-9.36c.7-1.58 2.95-1.58 3.65 0l4.17 9.36 5.74 12.88c.17.38.26.8.26 1.22z" fill="#f2c300"/><path d="m166.01 59.74-4.24 9.5c-.17.38-.26.8-.26 1.22v23.35h-15v-23.35c0-.42.09-.84.26-1.22l5.74-12.88 4.17-9.36c.7-1.58 2.95-1.58 3.65 0l4.17 9.36z" fill="#f9e27d"/><path d="m216.682 102.1h-68.365c-3.032 0-5.49-2.458-5.49-5.49v-6.274c0-3.032 2.458-5.49 5.49-5.49h68.365c3.032 0 5.49 2.458 5.49 5.49v6.274c0 3.032-2.458 5.49-5.49 5.49z" fill="#f9d335"/><path d="m222.17 90.34v6.27c0 3.03-2.46 5.49-5.49 5.49h-15c3.03 0 5.49-2.46 5.49-5.49v-6.27c0-3.04-2.46-5.49-5.49-5.49h15c3.03 0 5.49 2.45 5.49 5.49z" fill="#f2c300"/><path d="m163.32 102.1h-15c-3.03 0-5.49-2.46-5.49-5.49v-6.27c0-3.04 2.46-5.49 5.49-5.49h15c-3.03 0-5.49 2.45-5.49 5.49v6.27c0 3.03 2.46 5.49 5.49 5.49z" fill="#f9e27d"/><g fill="#5f266d"><path d="m253.87 72.88c0-39.43-32.08-71.5-71.5-71.5-39.43 0-71.5 32.07-71.5 71.5 0 10.13 2.12 19.77 5.94 28.5h-98.56c-.89 0-1.77.3-2.47.85-7.81 6.15-12.47 16.37-12.47 27.36s4.66 21.22 12.47 27.35c.71.55 1.58.85 2.47.85h14.41c-3.81 5.71-5.94 12.79-5.94 20.22s2.13 14.5 5.93 20.2h-15.57c-.9 0-1.77.3-2.47.85-7.81 6.15-12.48 16.37-12.48 27.36s4.67 21.22 12.48 27.35c.71.55 1.58.85 2.47.85h150.49c5.43 0 9.86-4.42 9.86-9.85v-38.56h14.73c5.43 0 9.85-4.42 9.85-9.86 0-8.507 0-17.16 0-36.7 0-5.44-4.42-9.86-9.85-9.86h-13.56v-5.51c40.34 2.261 75.27-30.145 75.27-71.4zm-59.86 86.77v14.35h-84.62c-5.285 0-5.293 8 0 8h84.62v14.35c0 1.03-.83 1.86-1.85 1.86-6.308 0-142.945 0-149.04 0-5.28-4.71-8.4-12.15-8.4-20.2s3.12-15.5 8.4-20.22h149.04c1.02 0 1.85.83 1.85 1.86zm-24.58 62.77h-79.65c-5.303 0-5.276 8 0 8h79.65v14.35c0 1.02-.84 1.85-1.86 1.85h-149.04c-5.28-4.7-8.4-12.15-8.4-20.2s3.12-15.5 8.4-20.21h150.9zm1.17-72.63c-3.119 0-134.751 0-150.9 0-5.28-4.7-8.39-12.15-8.39-20.2s3.11-15.5 8.39-20.21h101.21c3.59 6.03 8.05 11.49 13.19 16.2h-48.13c-5.281 0-5.294 8 0 8h58.66c7.78 4.86 16.57 8.27 25.97 9.82zm11.77-140.41c35.01 0 63.5 28.48 63.5 63.5 0 35.94-30.148 65.464-67.27 63.39-33.469-1.985-59.73-29.836-59.73-63.39 0-35.02 28.48-63.5 63.5-63.5z"/><path d="m148.18 106.48h68.37c5.23 0 9.49-4.26 9.49-9.49v-6.28c0-3.04-1.44-5.76-3.68-7.5v-12.37c0-1-.21-1.96-.61-2.85-6.912-15.51-4.657-10.45-9.91-22.24-2.096-4.717-8.851-4.747-10.96 0l-6.52 14.62-6.51-14.62c-2.139-4.764-8.86-4.726-10.96 0l-6.52 14.62-6.52-14.62c-2.105-4.737-8.856-4.735-10.96 0l-9.91 22.23c-.4.9-.6 1.86-.6 2.86v12.36c-2.24 1.74-3.69 4.46-3.69 7.51v6.28c0 5.163 4.189 9.49 9.49 9.49zm25.84-34.65 8.35-18.73 8.34 18.73c1.401 3.153 5.885 3.157 7.31 0l8.34-18.73c2.961 6.639 1.189 2.665 8 17.95v10.17h-63.98v-10.17l7.99-17.95 8.34 18.73c1.462 3.189 5.925 3.117 7.31 0zm42.53 17.39c.82 0 1.49.67 1.49 1.49v6.28c0 .49-.24.93-.61 1.19h-70.13c-.37-.26-.61-.7-.61-1.19 0-2.424 0-3.964 0-6.28 0-.82.67-1.49 1.49-1.49z"/><path d="m153.86 70.75c0 2.92 1.83 5.29 4.09 5.29 2.25 0 4.08-2.37 4.08-5.29s-1.83-5.29-4.08-5.29c-2.26 0-4.09 2.37-4.09 5.29z"/><path d="m182.51 76.04c2.25 0 4.08-2.37 4.08-5.29s-1.83-5.29-4.08-5.29c-2.26 0-4.09 2.37-4.09 5.29s1.83 5.29 4.09 5.29z"/><path d="m206.59 76.04c2.25 0 4.08-2.37 4.08-5.29s-1.83-5.29-4.08-5.29-4.08 2.37-4.08 5.29 1.83 5.29 4.08 5.29z"/></g></svg>