<svg id="Icon_Set" enable-background="new 0 0 256 256" height="512" viewBox="0 0 256 256" width="512" xmlns="http://www.w3.org/2000/svg"><path d="m189.519 36.909c-33.972 0-61.519 12.697-61.519 28.384 0-15.687-27.547-28.384-61.519-28.384s-61.519 12.697-61.519 28.384v152.704 1.094h.051 122.936.103 122.936.051v-1.094-152.704c-.001-15.687-27.547-28.384-61.52-28.384z" fill="#ffe2e2"/><path d="m251.04 65.29v153.8h-15v-153.8c0-14.51-23.58-26.46-54.02-28.17 2.46-.14 4.96-.21 7.5-.21 33.97 0 61.52 12.7 61.52 28.38z" fill="#ffcfcf"/><path d="m73.98 37.12c-30.44 1.71-54.02 13.66-54.02 28.17v153.8h-15v-153.8c0-15.68 27.55-28.38 61.52-28.38 2.54 0 5.04.07 7.5.21z" fill="#ffefee"/><path d="m251.038 217.998c0 .359-.017.735-.051 1.094h-122.936c-.034-.359-.051-.735-.051-1.094 0-15.67 27.547-28.384 61.519-28.384s61.519 12.713 61.519 28.384z" fill="#ffe2e2"/><path d="m128 217.998c0 .359-.017.735-.051 1.094h-122.936c-.034-.359-.051-.735-.051-1.094 0-15.67 27.547-28.384 61.519-28.384s61.519 12.713 61.519 28.384z" fill="#ffe2e2"/><path d="m251.04 218c0 .36-.02.73-.05 1.09h-15c.03-.36.05-.73.05-1.09 0-14.5-23.58-26.47-54.02-28.18 2.46-.14 4.96-.21 7.5-.21 33.97 0 61.52 12.72 61.52 28.39z" fill="#ffcfcf"/><path d="m143 218c0 .36.02.73.05 1.09h-15c-.03-.36-.05-.73-.05-1.09 0-15.67 27.55-28.39 61.52-28.39 2.54 0 5.04.07 7.5.21-30.44 1.71-54.02 13.68-54.02 28.18z" fill="#ffefee"/><path d="m128 218c0 .36-.02.73-.05 1.09h-15c.03-.36.05-.73.05-1.09 0-14.5-23.58-26.47-54.02-28.18 2.46-.14 4.96-.21 7.5-.21 33.97 0 61.52 12.72 61.52 28.39z" fill="#ffcfcf"/><path d="m19.96 218c0 .36.02.73.05 1.09h-15c-.03-.36-.05-.73-.05-1.09 0-15.67 27.55-28.39 61.52-28.39 2.54 0 5.04.07 7.5.21-30.44 1.71-54.02 13.68-54.02 28.18z" fill="#ffefee"/><g fill="#5f266d"><path d="m189.52 32.91c-28.61 0-52.4 8.63-61.52 21.02-9.12-12.39-32.91-21.02-61.52-21.02-36.74 0-65.52 14.22-65.52 32.38v153.8c0 1.28.62 2.42 1.57 3.14.12.09.24.18.37.26.31.19.64.34 1 .44.35.1.72.16 1.11.16h245.98c.13 0 .26-.01.38-.02.13-.01.25-.03.37-.05s.23-.05.35-.08c.2-.06.39-.13.57-.21.16-.07.31-.16.46-.25 1.16-.68 1.92-1.94 1.92-3.39v-153.8c0-18.16-28.78-32.38-65.52-32.38zm-123.04 8c33.9 0 57.52 12.85 57.52 24.38v136.97c-11.02-10-32.41-16.65-57.52-16.65s-46.5 6.65-57.52 16.65v-136.97c0-11.53 23.62-24.38 57.52-24.38zm123.04 0c33.9 0 57.52 12.85 57.52 24.38v136.97c-11.02-10-32.41-16.65-57.52-16.65s-46.5 6.65-57.52 16.65v-136.97c0-11.53 23.62-24.38 57.52-24.38zm57.03 174.18h-114.06c3.52-10.68 25.96-21.48 57.03-21.48s53.5 10.8 57.03 21.48zm-237.1 0c3.52-10.68 25.96-21.48 57.03-21.48s53.51 10.8 57.03 21.48z"/><path d="m29.36 87.93 1.84-5.56h5.46l1.9 5.59c1.357 3.951 9.05 2.325 7.55-2.07l-7.8-22.88c-1.012-2.922-7.509-3.298-8.62.01l-7.77 22.87c-1.551 4.567 6.137 5.949 7.44 2.04zm4.56-14.19.53 1.55h-1.05z"/><path d="m63.5 90.24c4.73 0 7.94-.93 10.17-2.97 3.689-3.568 3.853-9.734-.2-13.1 3.282-3.528 2.44-8.971-.84-11.4-1.97-1.6-4.52-2.31-8.24-2.31-2.25 0-4.67.22-6.32.56-1.06.23-1.83 1.16-1.83 2.25v24.38c0 2.439 2.504 2.59 7.26 2.59zm.54-22.72h.53c3.14 0 3.14 1.09 3.14 1.74 0 1.73-2.35 1.86-3.07 1.86h-.6zm0 10.62h.35c1.87 0 4.1.43 4.1 2.48 0 .63 0 2.52-4.07 2.52h-.38z"/><path d="m99.51 90.14c3 0 5.87-.53 7.67-1.43.81-.41 1.29-1.22 1.29-2.08 0-.441-.627-2.689-.75-3.16-.37-1.43-1.94-2.15-3.26-1.51-1.02.49-2.69.81-4.28.81-6.37 0-7.32-4.87-7.32-7.77 0-5.1 2.72-8.03 7.47-8.03 2.07 0 3.43.51 4.05.81 1.336.647 2.843-.078 3.25-1.43l.78-2.64c.32-1.07-.17-2.21-1.15-2.73-2.049-1.024-4.707-1.38-7.04-1.38-9.09 0-15.44 6.38-15.44 15.51 0 8.99 5.92 15.03 14.73 15.03z"/><path d="m101.9 105.5h-71.68c-5.285 0-5.293 8 0 8h71.68c5.285 0 5.293-8 0-8z"/><path d="m101.9 135.17h-71.68c-5.285 0-5.293 8 0 8h71.68c5.285 0 5.293-8 0-8z"/><path d="m101.9 164.84h-71.68c-5.285 0-5.293 8 0 8h71.68c5.285 0 5.293-8 0-8z"/><path d="m153.68 70.74h71.68c5.285 0 5.293-8 0-8h-71.68c-5.285 0-5.293 8 0 8z"/><path d="m153.68 100.41h71.68c5.285 0 5.293-8 0-8h-71.68c-5.285 0-5.293 8 0 8z"/><path d="m153.68 130.08h71.68c5.285 0 5.293-8 0-8h-71.68c-5.285 0-5.293 8 0 8z"/><path d="m150.34 173.09h2.81c1.03 0 1.97-.56 2.46-1.46 3.686-6.742 2.437-4.488 3.79-6.83 1.65 2.751-.849-1.575 4.02 6.88.5.87 1.43 1.41 2.43 1.41h2.86c2.19 0 3.54-2.4 2.4-4.27l-6.86-11.3 6.64-10.62c1.17-1.87-.18-4.29-2.38-4.29h-2.81c-1 0-1.92.53-2.43 1.39-.489.843-3.73 6.42-3.73 6.42s.081.141-3.6-6.38c-.49-.89-1.43-1.43-2.44-1.43h-2.86c-2.18 0-3.53 2.37-2.42 4.24l6.45 10.83-6.74 11.15c-1.13 1.87.22 4.26 2.41 4.26z"/><path d="m203.38 142.61h-3.62c-.92 0-1.75.51-2.18 1.32-.022.042-4.18 8.04-4.18 8.04s-.006-.02-4.09-8.03c-.42-.82-1.26-1.33-2.18-1.33h-3.63c-1.86 0-3.05 1.99-2.15 3.62l7.78 14.17v10.24c0 1.35 1.1 2.45 2.45 2.45h3.23c1.35 0 2.45-1.1 2.45-2.45v-10.24l8.23-14.11c.96-1.63-.22-3.68-2.11-3.68z"/><path d="m212.78 145.66v1.82c0 1.55 1.26 2.8 2.81 2.8h8l-11.52 16.86c-.32.47-.49 1.02-.49 1.58 0 1.001-.257 4.12 2.8 4.12h17.55c1.55 0 2.81-1.26 2.81-2.81v-1.81c0-1.55-1.26-2.81-2.81-2.81h-9.33l11.46-16.78c.81-1.189 1.144-5.78-2.32-5.78h-16.15c-1.55 0-2.81 1.26-2.81 2.81z"/></g></svg>