<svg id="Icon_Set" enable-background="new 0 0 256 256" height="512" viewBox="0 0 256 256" width="512" xmlns="http://www.w3.org/2000/svg"><path d="m192.029 214.81h-34.626v-204.665c0-2.788 2.26-5.049 5.049-5.049h29.578c3.297 0 5.97 2.673 5.97 5.97v197.774c-.001 3.297-2.674 5.97-5.971 5.97z" fill="#44c7b6"/><path d="m177.45 5.1c-2.79 0-5.05 2.26-5.05 5.04v204.67h-15v-204.67c0-2.78 2.26-5.04 5.05-5.04z" fill="#4bdbc3"/><path d="m198 11.07v197.77c0 3.3-2.67 5.97-5.97 5.97h-15c3.3 0 5.97-2.67 5.97-5.97v-197.77c0-3.3-2.67-5.97-5.97-5.97h15c3.3 0 5.97 2.67 5.97 5.97z" fill="#3bb2a0"/><path d="m153.803 166.971h-92.304c-1.932 0-3.498-1.566-3.498-3.498v-139.062c0-1.932 1.566-3.498 3.498-3.498h92.304c1.932 0 3.498 1.566 3.498 3.498v139.063c0 1.931-1.566 3.497-3.498 3.497z" fill="#5fcdff"/><path d="m76.5 166.97h-15c-1.93 0-3.5-1.56-3.5-3.5v-139.06c0-1.93 1.57-3.5 3.5-3.5h15c-1.93 0-3.5 1.57-3.5 3.5v139.06c0 1.94 1.57 3.5 3.5 3.5z" fill="#73d7f9"/><path d="m105.601 36.239c.809-1.499 2.958-1.503 3.774-.008l3.964 7.268 5.858 10.741-11.672.027-11.672.027 5.814-10.768z" fill="#ff4a73"/><path d="m96.084 167.545 23.344-.054v-113.251l-23.344.054z" fill="#ea2a6a"/><path d="m157.3 24.41v139.06c0 1.94-1.57 3.5-3.5 3.5h-15c1.93 0 3.5-1.56 3.5-3.5v-139.06c0-1.93-1.57-3.5-3.5-3.5h15c1.93 0 3.5 1.57 3.5 3.5z" fill="#30b6ff"/><g fill="#ffbb98"><path d="m188.8 250.904h-121.6c-11.046 0-20-8.954-20-20v-144h161.6v144c0 11.045-8.954 20-20 20z"/><path d="m249.562 120.09-34.587-32.553c-.432-.407-1.004-.633-1.597-.633h-4.242v26.5l33.686 29.81c3.227 2.856 8.314.565 8.314-3.744v-15.738c-.001-1.38-.57-2.697-1.574-3.642z"/><path d="m42.622 86.904c-.594 0-1.165.227-1.597.633l-34.587 32.553c-1.004.945-1.573 2.262-1.573 3.641v15.738c0 4.309 5.087 6.6 8.314 3.744l34.03-30.068.042-26.242h-4.629z"/></g><path d="m82.2 250.9h-15c-11.05 0-20-8.95-20-20v-144h15v144c0 11.05 8.95 20 20 20z" fill="#ffcaa6"/><path d="m208.8 86.9v144c0 11.05-8.95 20-20 20h-15c11.05 0 20-8.95 20-20v-144z" fill="#ffaa80"/><path d="m153.566 236.035h30.134c4.411 0 8-3.589 8-8v-10.4c0-2.209-1.791-4-4-4s-4 1.791-4 4v10.4h-30.134c-2.209 0-4 1.791-4 4s1.791 4 4 4z" fill="#5f266d"/><path d="m131.967 236.302h8c2.209 0 4-1.791 4-4s-1.791-4-4-4h-8c-2.209 0-4 1.791-4 4s1.791 4 4 4z" fill="#5f266d"/><path d="m252.304 117.175-34.588-32.553c-1.179-1.108-2.719-1.72-4.338-1.72-1.113 0-10.255 0-11.378 0v-71.834c0-5.498-4.473-9.971-9.97-9.971h-29.58c-4.99 0-9.05 4.056-9.05 9.04v6.771h-91.9c-4.136 0-7.5 3.364-7.5 7.5v58.494c-5.856 0-5.674 0-11.378 0-1.619 0-3.159.611-4.338 1.72l-34.589 32.554c-1.799 1.694-2.831 4.083-2.831 6.553v15.739c0 3.588 2.032 6.732 5.304 8.206 3.228 1.452 6.936.945 9.66-1.467l27.372-24.222v108.917c0 13.233 10.767 24 24 24h121.6c13.233 0 24-10.767 24-24v-108.917l27.371 24.222c5.815 5.145 14.965 1.011 14.965-6.739v-15.739c0-2.47-1.032-4.859-2.832-6.554zm-209.104-5.871-32.674 28.913c-.652.576-1.662.121-1.662-.749v-15.739c0-.274.115-.54.314-.728l34.022-32.02zm118.2-101.166c0-.573.471-1.04 1.05-1.04h29.58c1.086 0 1.97.884 1.97 1.971v7.125h-6.698c-2.209 0-4 1.791-4 4s1.791 4 4 4h6.698v7.92h-3.283c-2.209 0-4 1.791-4 4s1.791 4 4 4h3.283v7.92h-3.283c-2.209 0-4 1.791-4 4s1.791 4 4 4h3.283v7.92h-3.283c-2.209 0-4 1.791-4 4s1.791 4 4 4h3.283v8.949h-32.6zm-99.4 14.77h91.3v57.994h-29.87v-28.591c0-.003 0-.005 0-.008 0-.744-.195-1.443-.487-1.98l-9.822-18.009c-2.336-4.282-8.489-4.265-10.805.023l-9.748 18.055c-.321.595-.487 1.319-.487 1.896v28.614h-30.081zm53.43 33.339v24.656h-15.35v-24.62zm-12.628-7.973 4.93-9.132 4.969 9.111zm101.998 180.628c0 8.822-7.178 16-16 16h-121.6c-8.822 0-16-7.178-16-16v-140h153.6zm42.336-91.434c0 .867-1.009 1.325-1.663.749l-32.673-28.913v-20.323l34.02 32.019c.2.188.315.454.315.729v15.739z" fill="#5f266d"/></svg>