<svg id="Icon_Set" enable-background="new 0 0 256 256" height="512" viewBox="0 0 256 256" width="512" xmlns="http://www.w3.org/2000/svg"><path d="m172.471 69.237c-30.66 0-55.521 11.459-55.521 25.617 0-14.158-24.861-25.617-55.521-25.617s-55.522 11.459-55.522 25.617v137.816.987h.046 110.95.093 110.95.046v-.987-137.816c0-14.158-24.861-25.617-55.521-25.617z" fill="#ffe2e2"/><path d="m227.99 94.85v138.81h-15v-138.81c0-12.98-20.9-23.69-48.02-25.38 2.45-.15 4.96-.23 7.5-.23 30.66 0 55.52 11.46 55.52 25.61z" fill="#ffcfcf"/><path d="m68.93 69.47c-27.12 1.69-48.02 12.4-48.02 25.38v138.81h-15v-138.81c0-14.15 24.86-25.61 55.52-25.61 2.54 0 5.05.08 7.5.23z" fill="#ffefee"/><path d="m227.992 232.67c0 .324-.015.663-.046.987h-110.95c-.031-.324-.046-.663-.046-.987 0-14.142 24.861-25.617 55.521-25.617s55.521 11.474 55.521 25.617z" fill="#ffe2e2"/><path d="m116.95 232.67c0 .324-.015.663-.046.987h-110.95c-.031-.324-.046-.663-.046-.987 0-14.142 24.861-25.617 55.521-25.617s55.521 11.474 55.521 25.617z" fill="#ffe2e2"/><path d="m227.99 232.67c0 .32-.01.66-.04.99h-15c.03-.33.04-.67.04-.99 0-12.97-20.9-23.7-48.02-25.38 2.45-.16 4.96-.24 7.5-.24 30.66 0 55.52 11.48 55.52 25.62z" fill="#ffcfcf"/><path d="m131.95 232.67c0 .32.02.66.05.99h-15c-.03-.33-.05-.67-.05-.99 0-14.14 24.86-25.62 55.52-25.62 2.54 0 5.05.08 7.5.24-27.12 1.68-48.02 12.41-48.02 25.38z" fill="#ffefee"/><path d="m116.95 232.67c0 .32-.02.66-.05.99h-15c.03-.33.05-.67.05-.99 0-12.97-20.9-23.7-48.02-25.38 2.45-.16 4.96-.24 7.5-.24 30.66 0 55.52 11.48 55.52 25.62z" fill="#ffcfcf"/><path d="m20.91 232.67c0 .32.01.66.04.99h-15c-.03-.33-.04-.67-.04-.99 0-14.14 24.86-25.62 55.52-25.62 2.54 0 5.05.08 7.5.24-27.12 1.68-48.02 12.41-48.02 25.38z" fill="#ffefee"/><circle cx="203.79" cy="68.647" fill="#f9d335" r="46.303"/><path d="m250.09 68.65c0 25.57-20.73 46.3-46.3 46.3-2.55 0-5.06-.21-7.5-.6 22-3.59 38.8-22.68 38.8-45.7 0-23.03-16.8-42.12-38.8-45.71 2.44-.39 4.95-.6 7.5-.6 25.57 0 46.3 20.73 46.3 46.31z" fill="#f2c300"/><path d="m211.29 114.35c-2.44.39-4.95.6-7.5.6-25.57 0-46.3-20.73-46.3-46.3 0-25.58 20.73-46.31 46.3-46.31 2.55 0 5.06.21 7.5.6-22 3.59-38.8 22.68-38.8 45.71 0 23.02 16.8 42.11 38.8 45.7z" fill="#f9e27d"/><g fill="#5f266d"><path d="m43.48 112.18h35.33c5.285 0 5.293-8 0-8h-35.33c-5.285 0-5.293 8 0 8z"/><path d="m29.46 136.29h63.37c5.305 0 5.275-8 0-8h-63.37c-5.281 0-5.295 8 0 8z"/><path d="m29.46 160.41h63.37c5.285 0 5.293-8 0-8h-63.37c-5.285 0-5.293 8 0 8z"/><path d="m29.46 184.53h63.37c5.281 0 5.294-8 0-8h-63.37c-5.302 0-5.276 8 0 8z"/><path d="m203.79 18.34c-27.09 0-49.25 21.53-50.26 48.38-16.91 2.73-30.26 9.05-36.58 17.25-8.54-11.07-29.9-18.73-55.52-18.73-33.38 0-59.52 13.01-59.52 29.61v138.81c0 2.207 1.867 4 4.04 4h222c2.259 0 4.04-1.792 4.04-4v-123.37c13.33-9.06 22.1-24.35 22.1-41.64 0-27.74-22.56-50.31-50.3-50.31zm0 92.61c-23.368 0-42.3-19.028-42.3-42.3 0-23.327 18.971-42.31 42.3-42.31 23.33 0 42.3 18.98 42.3 42.31 0 23.406-19.064 42.3-42.3 42.3zm-142.36-37.71c30.36 0 51.52 11.39 51.52 21.61v122.77c-10.21-8.78-29.26-14.57-51.52-14.57s-41.31 5.79-51.52 14.57v-122.77c0-10.22 21.16-21.61 51.52-21.61zm-50.93 156.42c3.62-9.33 23.53-18.61 50.93-18.61s47.3 9.28 50.93 18.61zm111.04 0c3.62-9.33 23.53-18.61 50.93-18.61s47.31 9.28 50.93 18.61zm102.45-12.04c-10.21-8.78-29.26-14.57-51.52-14.57s-41.31 5.79-51.52 14.57v-122.77c0-7.97 12.86-16.65 32.91-20.09 3.02 24.86 24.26 44.19 49.93 44.19 7.18 0 14.01-1.51 20.2-4.24z"/><path d="m154.8 135.35h35.34c5.285 0 5.293-8 0-8h-35.34c-5.288 0-5.285 8 0 8z"/><path d="m140.78 159.47h63.38c5.285 0 5.293-8 0-8h-63.38c-5.288 0-5.285 8 0 8z"/><path d="m204.16 175.58h-63.38c-5.288 0-5.285 8 0 8h63.38c5.285 0 5.293-8 0-8z"/><path d="m203.79 38.22c-9.49 0-17.2 7.71-17.2 17.2 0 5.285 8 5.293 8 0 0-5.08 4.12-9.2 9.2-9.2 5.07 0 9.2 4.12 9.2 9.2 0 5.07-4.13 9.2-9.2 9.2-2.194 0-3.909 1.745-3.99 3.81-.01.06-.01.13-.01.19v15.34c0 5.285 8 5.293 8 0 0-1.393 0-10.341 0-11.81.65-.15 1.28-.34 1.89-.57 6.59-2.41 11.31-8.75 11.31-16.16 0-9.49-7.71-17.2-17.2-17.2z"/><ellipse cx="203.79" cy="97.58" rx="4.54" ry="4.54" transform="matrix(.987 -.16 .16 .987 -12.999 33.904)"/></g></svg>