<svg id="Icon_Set" enable-background="new 0 0 256 256" height="512" viewBox="0 0 256 256" width="512" xmlns="http://www.w3.org/2000/svg"><path d="m250.47 155.267c0 33.18-24.54 60.74-56.42 65.47-2.55.38-5.14.62-7.77.7-.66.02-1.33.03-2 .03-2.62 0-5.21-.15-7.75-.46v-131.47c2.54-.31 5.13-.46 7.75-.46.67 0 1.34.01 2 .03 2.63.08 5.22.31 7.77.69 31.88 4.73 56.42 32.29 56.42 65.47z" fill="#ff4a73"/><path d="m231.88 155.267c0 21.64-14.44 39.91-34.21 45.69v-91.38c19.77 5.79 34.21 24.05 34.21 45.69z" fill="#fff"/><path d="m174.526 225.37h-29v-175.638h29c2.761 0 5 2.239 5 5v165.638c0 2.762-2.238 5-5 5z" fill="#f9d335"/><path d="m144.526 225.37h-133.992c-2.761 0-5-2.239-5-5v-195.819c0-2.761 2.239-5 5-5h133.993c2.761 0 5 2.239 5 5v195.819c-.001 2.762-2.239 5-5.001 5z" fill="#44c7b6"/><path d="m131.358 123.6c1.632-.488 3.155 1.029 2.674 2.663l-2.336 7.942-3.453 11.737-8.272-8.234-8.272-8.234 11.725-3.503z" fill="#87828e"/><path d="m31.781 209.718 16.545 16.468 80.081-80.081-16.545-16.468z" fill="#ff4a73"/><path d="m24.544 231.313 2.216 2.206c3.956 3.938 10.355 3.924 14.294-.031l7.272-7.301-16.545-16.469-7.268 7.298c-3.94 3.956-3.926 10.358.031 14.297z" fill="#87828e"/><path d="m116.983 106.213h-78.906c-2.761 0-5-2.239-5-5v-37.693c0-2.761 2.239-5 5-5h78.906c2.761 0 5 2.239 5 5v37.693c0 2.761-2.239 5-5 5z" fill="#f9d335"/><path d="m250.47 155.267c0 33.18-24.54 60.74-56.42 65.47-2.55.38-5.14.62-7.77.7-1.84-.05-3.67-.19-5.47-.4.75-.09 1.5-.19 2.24-.3 31.88-4.73 56.42-32.29 56.42-65.47s-24.54-60.74-56.42-65.47c-.74-.11-1.49-.21-2.24-.29 1.8-.21 3.63-.35 5.47-.4 2.63.08 5.22.31 7.77.69 31.88 4.73 56.42 32.29 56.42 65.47z" fill="#ea2a6a"/><path d="m145.53 49.727h15v175.64h-15z" fill="#f9e27d"/><path d="m149.53 24.547v195.82c0 2.76-2.24 5-5 5h-15c2.76 0 5-2.24 5-5v-195.82c0-2.76-2.24-5-5-5h15c2.76 0 5 2.24 5 5z" fill="#3bb2a0"/><path d="m25.53 225.367h-15c-2.76 0-5-2.24-5-5v-195.82c0-2.76 2.24-5 5-5h15c-2.76 0-5 2.24-5 5v195.82c0 2.76 2.24 5 5 5z" fill="#4bdbc3"/><path d="m121.98 63.517v37.7c0 2.76-2.24 5-5 5h-15c2.76 0 5-2.24 5-5v-37.7c0-2.76-2.24-5-5-5h15c2.76 0 5 2.24 5 5z" fill="#f2c300"/><path d="m53.08 106.217h-15c-2.76 0-5-2.24-5-5v-37.7c0-2.76 2.24-5 5-5h15c-2.76 0-5 2.24-5 5v37.7c0 2.76 2.24 5 5 5z" fill="#f9e27d"/><path d="m128.41 146.107-.02.02-8.53-8.49-80.06 80.06-8.02-7.98 80.08-80.08z" fill="#f973a3"/><path d="m32.51 224.017c-3.23 3.24-3.8 8.13-1.72 11.96-1.48-.47-2.86-1.29-4.03-2.46l-2.22-2.2c-3.95-3.94-3.97-10.35-.03-14.3l7.27-7.3 7.52 7.48z" fill="#a4a4a5"/><path d="m133.4 124.057-13.54 13.54-8.16-8.12 11.72-3.51 7.94-2.37c.77-.23 1.52-.01 2.04.46z" fill="#a4a4a5"/><path d="m197.67 90.167v19.41c-1.19-.35-2.39-.65-3.62-.91-3.15-.66-6.42-1-9.77-1-2.64 0-5.23.21-7.75.64v-23.14h15.1c3.34 0 6.04 2.24 6.04 5z" fill="#ff4a73"/><path d="m194.05 201.867c1.23-.26 2.43-.56 3.62-.91v19.41c0 2.76-2.7 5-6.04 5h-15.1v-23.13c2.52.42 5.11.64 7.75.64 3.35 0 6.62-.35 9.77-1.01z" fill="#ff4a73"/><path d="m202.026 225.37h-17.5c-2.761 0-5-2.239-5-5v-29.745c0-7.594 6.156-13.75 13.75-13.75 7.594 0 13.75 6.156 13.75 13.75v29.745c0 2.762-2.238 5-5 5z" fill="#ffbb98"/><path d="m176.53 85.167h11v140.2h-11z" fill="#f973a3"/><path d="m199.53 225.367h-15c-2.77 0-5-2.24-5-5v-29.74c0-7.6 6.15-13.75 13.75-13.75 2.77 0 5.34.82 7.5 2.23-3.77 2.44-6.25 6.69-6.25 11.52v29.74c0 2.76 2.23 5 5 5z" fill="#ffcaa6"/><path d="m202.026 225.37h-17.5c-2.761 0-5-2.239-5-5v-14.541h27.5v14.541c0 2.762-2.238 5-5 5z" fill="#b76c6c"/><path d="m199.53 225.367h-15c-2.77 0-5-2.24-5-5v-14.54h15v14.54c0 2.76 2.23 5 5 5z" fill="#c98585"/><g fill="#5f266d"><path d="m201.08 87.115c-1.4-3.47-5.11-5.95-9.45-5.95h-8.1v-26.44c0-4.96-4.04-9-9-9h-21v-21.18c0-4.96-4.04-9-9-9h-134c-4.96 0-9 4.04-9 9v195.82c0 4.96 4.04 9 9 9h8.03c.728 2.546 6.797 11.09 15.33 11.09 3.62 0 7.25-1.38 10-4.15l6.91-6.94h123.73c1.85 0 3.57-.56 5-1.52 1.43.96 3.15 1.52 5 1.52h17.5c4.721 0 9-3.715 9-9.21 26.1-10.78 43.44-36.51 43.44-64.89 0-32.27-22.3-60.51-53.39-68.15zm-17.55 103.51c0-5.38 4.37-9.75 9.75-9.75 5.052 0 9.75 4.077 9.75 9.75v11.2h-19.5c0-4.159 0-7.026 0-11.2zm27.48-.91c-.472-6.842-4.205-11.866-9.34-14.73v-59.71c15.67 6.85 26.21 22.59 26.21 39.99 0 13.61-6.33 26.28-16.87 34.45zm-19.38-100.55c1.27 0 2.04.69 2.04 1v.28 82.43c-3.724 0-7.064.899-10.14 2.92 0-8.958 0-75.323 0-86.63zm-65.33 49.2-7.02-6.99 9.95-2.97zm-14.43-3.08 10.87 10.82-74.42 74.43-10.88-10.83zm-73.65 95.38c-2.38 2.38-6.25 2.39-8.64.02l-2.21-2.21c-2.187-2.165-2.495-5.771-.33-8.31 0 0-.239.222 4.75-4.79l10.88 10.82zm106.31-9.3h-85.73l72.44-72.43c.75-.75 1.17-1.77 1.17-2.84 0-.04 0-.09-.01-.13l5.47-18.57c1.361-4.616-2.904-9.024-7.66-7.63l-19.66 5.87c-1.09.33-1.97 1.1-2.45 2.1-93.919 93.919-89.109 87.848-90.26 93.63h-7.31c-.55 0-1-.45-1-1v-195.82c0-.55.45-1 1-1h134c.55 0 1 .45 1 1v25.18 170.64c0 .535-.423 1-1 1zm30 0h-21.06c.04-.33.06-.66.06-1v-166.64h21c.55 0 1 .45 1 1v5.33h-4.96c-5.303 0-5.276 8 0 8h4.96v5.33h-2.1c-5.285 0-5.293 8 0 8h2.1v5.33h-2.1c-5.285 0-5.293 8 0 8h2.1v5.34h-2.1c-5.303 0-5.276 8 0 8h2.1v5.33h-4.96c-5.285 0-5.293 8 0 8h4.96v5.33h-2.1c-5.285 0-5.293 8 0 8h2.1v5.34h-2.1c-5.303 0-5.276 8 0 8h2.1v5.33h-2.1c-5.285 0-5.293 8 0 8h2.1v5.33h-4.96c-5.285 0-5.293 8 0 8h4.96v5.34h-2.1c-5.303 0-5.276 8 0 8h2.1v5.33h-2.1c-5.285 0-5.293 8 0 8h2.1v5.33h-2.1c-5.285 0-5.293 8 0 8h2.1v5.65c0 .55-.45 1-1 1zm28.5-1c0 .55-.45 1-1 1h-17.5c-.56 0-1-.45-1-1 0-4.2 0-6.326 0-10.54h19.5zm8-8.97c0-6.771 0-5.289 0-12.02 15.39-9.31 24.85-26 24.85-44.11 0-21.76-13.92-41.31-34.21-48.59v-11.12c26.23 7.63 44.8 32 44.8 59.71 0 24.02-14.02 45.9-35.44 56.13z"/><path d="m116.98 54.515h-78.9c-4.97 0-9 4.04-9 9v37.7c0 4.96 4.03 9 9 9h78.9c4.97 0 9-4.04 9-9v-37.7c0-4.96-4.03-9-9-9zm1 46.7c0 .55-.45 1-1 1h-78.9c-.55 0-1-.45-1-1v-37.7c0-.55.45-1 1-1h78.9c.55 0 1 .45 1 1z"/><path d="m60.53 38.405h2.63c5.288 0 5.285-8 0-8h-2.63c-5.285 0-5.293 8 0 8z"/><path d="m45.53 30.405h-25c-5.285 0-5.293 8 0 8h25c5.285 0 5.293-8 0-8z"/></g></svg>