<svg id="Icon_Set" enable-background="new 0 0 256 256" height="512" viewBox="0 0 256 256" width="512" xmlns="http://www.w3.org/2000/svg"><path d="m169.083 196.188h-118.666c-2.761 0-5-2.239-5-5v-181.25c0-2.761 2.239-5 5-5h118.667c2.761 0 5 2.239 5 5v181.25c-.001 2.761-2.239 5-5.001 5z" fill="#ffe2e2"/><path d="m174.08 9.94v181.25c0 2.76-2.24 5-5 5h-15c2.76 0 5-2.24 5-5v-181.25c0-2.76-2.24-5-5-5h15c2.76 0 5 2.24 5 5z" fill="#ffcfcf"/><path d="m205.583 250.688h-118.666c-2.761 0-5-2.239-5-5v-181.25c0-2.761 2.239-5 5-5h118.667c2.761 0 5 2.239 5 5v181.25c-.001 2.761-2.239 5-5.001 5z" fill="#5fcdff"/><path d="m210.58 64.44v181.25c0 2.76-2.24 5-5 5h-15c2.76 0 5-2.24 5-5v-181.25c0-2.76-2.24-5-5-5h15c2.76 0 5 2.24 5 5z" fill="#30b6ff"/><path d="m65.42 196.19h-15c-2.76 0-5-2.24-5-5v-181.25c0-2.76 2.24-5 5-5h15c-2.76 0-5 2.24-5 5v181.25c0 2.76 2.24 5 5 5z" fill="#ffefee"/><path d="m101.92 250.69h-15c-2.76 0-5-2.24-5-5v-181.25c0-2.76 2.24-5 5-5h15c-2.76 0-5 2.24-5 5v181.25c0 2.76 2.24 5 5 5z" fill="#73d7f9"/><g fill="#5f266d"><path d="m205.586 55.437h-27.503v-45.499c0-4.963-4.038-9-9-9h-118.661c-4.962 0-9 4.037-9 9v181.25c0 4.963 4.038 9 9 9h27.497v45.498c0 4.963 4.038 9 9 9h118.667c4.962 0 9-4.037 9-9v-181.249c0-4.963-4.038-9-9-9zm-127.667 9v127.752h-27.497c-.551 0-1-.448-1-1v-181.251c0-.552.449-1 1-1h118.66c.551 0 1 .448 1 1v45.498h-83.163c-4.962.001-9 4.038-9 9.001zm128.667 181.25c0 .552-.449 1-1 1h-118.667c-.551 0-1-.448-1-1 0-23.029 0-158.528 0-181.25 0-.552.449-1 1-1h118.667c.551 0 1 .448 1 1z"/><path d="m251.217 54.687c-1.878-1.163-4.344-.584-5.507 1.294l-5.439 8.784v-26.746c0-8.569-6.971-15.541-15.54-15.541h-19.837c-2.209 0-4 1.791-4 4s1.791 4 4 4h19.837c4.158 0 7.54 3.383 7.54 7.541v26.727l-5.428-8.765c-1.163-1.877-3.628-2.456-5.507-1.294-1.878 1.163-2.458 3.628-1.295 5.507.207.335 12.689 20.498 12.907 20.826 1.663 2.471 5.219 2.336 6.73-.101l12.834-20.725c1.163-1.88.584-4.344-1.295-5.507z"/><path d="m51.111 247.062h-19.837c-4.158 0-7.54-3.383-7.54-7.541v-26.727l5.428 8.765c1.164 1.878 3.629 2.458 5.507 1.294 1.878-1.163 2.458-3.628 1.295-5.507l-12.835-20.725c-1.558-2.52-5.238-2.522-6.802 0l-12.834 20.725c-1.658 2.678.295 6.107 3.397 6.107 2.887-.002 3.256-1.654 8.844-10.678v26.746c0 8.569 6.971 15.541 15.54 15.541h19.837c2.209 0 4-1.791 4-4s-1.791-4-4-4z"/><path d="m119.586 97.062h52c2.209 0 4-1.791 4-4s-1.791-4-4-4h-52c-2.209 0-4 1.791-4 4s1.791 4 4 4z"/><path d="m186.919 121.062h-81.333c-2.209 0-4 1.791-4 4s1.791 4 4 4h81.333c2.209 0 4-1.791 4-4s-1.791-4-4-4z"/><path d="m186.919 144.062h-81.333c-2.209 0-4 1.791-4 4s1.791 4 4 4h81.333c2.209 0 4-1.791 4-4s-1.791-4-4-4z"/><path d="m186.919 167.062h-81.333c-2.209 0-4 1.791-4 4s1.791 4 4 4h81.333c2.209 0 4-1.791 4-4s-1.791-4-4-4z"/><path d="m186.919 190.062h-81.333c-2.209 0-4 1.791-4 4s1.791 4 4 4h81.333c2.209 0 4-1.791 4-4s-1.791-4-4-4z"/><path d="m186.919 213.062h-81.333c-2.209 0-4 1.791-4 4s1.791 4 4 4h81.333c2.209 0 4-1.791 4-4s-1.791-4-4-4z"/><path d="m139.752 32.728c0-2.209-1.791-4-4-4h-52c-2.209 0-4 1.791-4 4s1.791 4 4 4h52c2.209 0 4-1.791 4-4z"/><path d="m63.002 168.497c-2.209 0-4 1.791-4 4v5c0 2.209 1.791 4 4 4s4-1.791 4-4v-5c0-2.209-1.791-4-4-4z"/><path d="m63.002 142.497c-2.209 0-4 1.791-4 4v11c0 2.209 1.791 4 4 4s4-1.791 4-4v-11c0-2.209-1.791-4-4-4z"/></g></svg>