<svg id="Icon_Set" enable-background="new 0 0 256 256" height="512" viewBox="0 0 256 256" width="512" xmlns="http://www.w3.org/2000/svg"><path d="m29.335 251.066h-4.466c-5.45 0-9.869-4.419-9.869-9.869v-226.394c0-5.45 4.418-9.869 9.869-9.869h4.466c5.45 0 9.869 4.418 9.869 9.869v226.395c0 5.45-4.418 9.868-9.869 9.868z" fill="#f9d335"/><path d="m231.131 251.066h-4.466c-5.451 0-9.869-4.419-9.869-9.869v-226.394c0-5.45 4.419-9.869 9.869-9.869h4.466c5.45 0 9.869 4.418 9.869 9.869v226.395c0 5.45-4.419 9.868-9.869 9.868z" fill="#f9d335"/><g fill="#ff4a73"><path d="m76.006 57.015h-3.786c-2.725 0-4.935-2.209-4.935-4.934v-16.759c0-2.725 2.209-4.934 4.935-4.934h3.786c2.725 0 4.935 2.209 4.935 4.934v16.759c0 2.725-2.21 4.934-4.935 4.934z"/><path d="m110.145 57.015h-3.786c-2.725 0-4.934-2.209-4.934-4.934v-16.759c0-2.725 2.209-4.934 4.934-4.934h3.786c2.725 0 4.934 2.209 4.934 4.934v16.759c0 2.725-2.209 4.934-4.934 4.934z"/><path d="m144.283 57.015h-3.786c-2.725 0-4.934-2.209-4.934-4.934v-16.759c0-2.725 2.209-4.934 4.934-4.934h3.786c2.725 0 4.934 2.209 4.934 4.934v16.759c.001 2.725-2.209 4.934-4.934 4.934z"/><path d="m143.97 113.214h-3.786c-2.725 0-4.934-2.209-4.934-4.935v-16.758c0-2.725 2.209-4.935 4.934-4.935h3.786c2.725 0 4.935 2.209 4.935 4.935v16.759c0 2.725-2.209 4.934-4.935 4.934z"/><path d="m116.972 169.414h-3.786c-2.725 0-4.935-2.209-4.935-4.934v-16.76c0-2.725 2.209-4.934 4.935-4.934h3.786c2.725 0 4.935 2.209 4.935 4.934v16.759c0 2.725-2.209 4.935-4.935 4.935z"/><path d="m151.111 169.414h-3.786c-2.725 0-4.935-2.209-4.935-4.934v-16.76c0-2.725 2.209-4.934 4.935-4.934h3.786c2.725 0 4.934 2.209 4.934 4.934v16.759c0 2.725-2.209 4.935-4.934 4.935z"/><path d="m143.97 225.613h-3.786c-2.725 0-4.934-2.209-4.934-4.934v-16.759c0-2.725 2.209-4.934 4.934-4.934h3.786c2.725 0 4.935 2.209 4.935 4.934v16.759c0 2.725-2.209 4.934-4.935 4.934z"/><path d="m178.109 225.613h-3.786c-2.725 0-4.935-2.209-4.935-4.934v-16.759c0-2.725 2.209-4.934 4.935-4.934h3.786c2.725 0 4.934 2.209 4.934 4.934v16.759c0 2.725-2.209 4.934-4.934 4.934z"/><path d="m82.834 169.414h-3.786c-2.725 0-4.934-2.209-4.934-4.934v-16.76c0-2.725 2.209-4.934 4.934-4.934h3.786c2.725 0 4.934 2.209 4.934 4.934v16.759c0 2.725-2.209 4.935-4.934 4.935z"/><path d="m178.109 113.214h-3.786c-2.725 0-4.935-2.209-4.935-4.935v-16.758c0-2.725 2.209-4.935 4.935-4.935h3.786c2.725 0 4.934 2.209 4.934 4.935v16.759c0 2.725-2.209 4.934-4.934 4.934z"/></g><path d="m33.524 250.129c-1.263.602-2.684.938-4.184.938h-4.471c-5.448 0-9.869-4.421-9.869-9.869v-226.395c0-5.448 4.421-9.869 9.869-9.869h4.471c1.5 0 2.921.336 4.184.938-3.365 1.559-5.694 4.974-5.694 8.931v226.395c0 3.957 2.329 7.371 5.694 8.931z" fill="#f9e27d"/><path d="m241 14.803v226.395c0 5.448-4.421 9.869-9.869 9.869h-4.471c-1.49 0-2.911-.336-4.175-.938 3.355-1.569 5.685-4.984 5.685-8.931v-226.395c0-3.948-2.329-7.362-5.685-8.931 1.263-.602 2.684-.938 4.175-.938h4.471c5.448 0 9.869 4.421 9.869 9.869z" fill="#f2c300"/><path d="m231.131.934h-4.466c-7.647 0-13.869 6.222-13.869 13.869v24.896h-59.578v-4.377c0-4.927-4.008-8.935-8.935-8.935h-3.787c-4.927 0-8.935 4.008-8.935 8.935v4.377h-12.483v-4.377c0-4.927-4.008-8.935-8.935-8.935h-3.786c-4.927 0-8.935 4.008-8.935 8.935v4.377h-12.481v-4.377c0-4.927-4.008-8.935-8.935-8.935h-3.786c-4.927 0-8.935 4.008-8.935 8.935v4.377h-20.08v-24.896c0-7.647-6.222-13.869-13.869-13.869h-4.466c-7.648 0-13.87 6.221-13.87 13.869v226.395c0 7.647 6.222 13.869 13.869 13.869h4.466c7.647 0 13.869-6.222 13.869-13.869v-24.896h88.045v4.377c0 4.927 4.008 8.935 8.935 8.935h3.786c4.927 0 8.935-4.008 8.935-8.935v-4.377h12.483v4.377c0 4.927 4.008 8.935 8.935 8.935h3.787c4.927 0 8.935-4.008 8.935-8.935v-4.377h25.752v24.896c0 7.647 6.222 13.869 13.869 13.869h4.466c7.647 0 13.869-6.222 13.869-13.869v-226.395c-.001-7.648-6.223-13.869-13.87-13.869zm-195.926 240.263c0 3.236-2.633 5.869-5.869 5.869h-4.466c-3.236 0-5.869-2.633-5.869-5.869v-226.394c0-3.236 2.633-5.869 5.869-5.869h4.466c3.236 0 5.869 2.633 5.869 5.869zm104.357-205.875c0-.515.419-.935.935-.935h3.787c.515 0 .935.419.935.935v16.759c0 .515-.419.935-.935.935h-3.787c-.515 0-.935-.419-.935-.935zm-34.138 0c0-.515.419-.935.935-.935h3.786c.515 0 .935.419.935.935v16.759c0 .515-.419.935-.935.935h-3.786c-.515 0-.935-.419-.935-.935zm-34.139 0c0-.515.419-.935.935-.935h3.787c.515 0 .935.419.935.935v16.759c0 .515-.419.935-.935.935h-3.787c-.515 0-.935-.419-.935-.935 0-1.235 0 3.615 0-16.759zm73.62 176.955c0 .008-.002.016-.002.024s.002.016.002.024v8.353c0 .515-.419.935-.935.935h-3.786c-.515 0-.935-.419-.935-.935v-8.334c0-.015.004-.029.004-.044s-.004-.029-.004-.044v-8.338c0-.515.419-.935.935-.935h3.786c.515 0 .935.419.935.935zm34.138-.015c0 .013-.004.026-.004.039s.004.026.004.039v8.339c0 .515-.419.935-.935.935h-3.787c-.515 0-.935-.419-.935-.935v-8.348c0-.01.003-.019.003-.029s-.003-.019-.003-.029v-8.352c0-.515.419-.935.935-.935h3.787c.515 0 .935.419.935.935zm33.752-3.961h-25.752v-4.381c0-4.927-4.008-8.935-8.935-8.935h-3.787c-4.927 0-8.935 4.008-8.935 8.935v4.381h-12.483v-4.381c0-4.927-4.008-8.935-8.935-8.935h-3.786c-4.927 0-8.935 4.008-8.935 8.935v4.381h-88.042v-48.204h26.908v4.382c0 4.927 4.008 8.935 8.935 8.935h3.787c4.927 0 8.935-4.008 8.935-8.935v-4.382h12.483v4.382c0 4.927 4.008 8.935 8.935 8.935h3.786c4.927 0 8.935-4.008 8.935-8.935v-4.382h12.483v4.382c0 4.927 4.008 8.935 8.934 8.935h3.787c4.927 0 8.935-4.008 8.935-8.935v-4.382h52.75v48.204zm-134.682-52.228v-8.353c0-.515.419-.935.935-.935h3.787c.515 0 .935.419.935.935v8.333c0 .015-.004.029-.004.044s.004.029.004.044v8.338c0 .515-.419.935-.935.935h-3.787c-.515 0-.935-.419-.935-.935v-8.358c0-.008.002-.016.002-.024s-.002-.016-.002-.024zm34.138.019v-8.372c0-.515.419-.935.935-.935h3.786c.515 0 .935.419.935.935v16.759c0 .515-.419.935-.935.935h-3.786c-.515 0-.935-.419-.935-.935v-8.377c0-.002 0-.003 0-.005s0-.003 0-.005zm34.139 8.387v-16.759c0-.515.419-.935.934-.935h3.787c.515 0 .935.419.935.935v16.759c0 .515-.419.935-.935.935h-3.787c-.515 0-.934-.42-.934-.935zm66.405-12.382h-52.75v-4.377c0-4.927-4.008-8.935-8.935-8.935h-3.787c-4.926 0-8.934 4.008-8.934 8.935v4.377h-12.483v-4.377c0-4.927-4.008-8.935-8.935-8.935h-3.786c-4.927 0-8.935 4.008-8.935 8.935v4.377h-12.481v-4.377c0-4.927-4.008-8.935-8.935-8.935h-3.787c-4.927 0-8.935 4.008-8.935 8.935v4.377h-26.907v-48.194h88.045v4.377c0 4.927 4.008 8.935 8.935 8.935h3.786c4.927 0 8.935-4.008 8.935-8.935v-4.377h12.483v4.377c0 4.927 4.008 8.935 8.935 8.935h3.787c4.927 0 8.935-4.008 8.935-8.935v-4.377h25.752v48.194zm-73.545-52.238v-8.338c0-.515.419-.935.935-.935h3.786c.515 0 .935.419.935.935v8.358c0 .008-.002.016-.002.024s.002.016.002.024v8.353c0 .515-.419.935-.935.935h-3.786c-.515 0-.935-.419-.935-.935v-8.333c0-.015.004-.029.004-.044s-.004-.029-.004-.044zm34.138.015v-8.353c0-.515.419-.935.935-.935h3.787c.515 0 .935.419.935.935v8.343c0 .013-.004.026-.004.039s.004.026.004.039v8.338c0 .515-.419.935-.935.935h-3.787c-.515 0-.935-.419-.935-.935v-8.348c0-.01.003-.019.003-.029s-.003-.019-.003-.029zm39.407-3.971h-25.752v-4.382c0-4.927-4.008-8.935-8.935-8.935h-3.787c-4.927 0-8.935 4.008-8.935 8.935v4.382h-12.483v-4.382c0-4.927-4.008-8.935-8.935-8.935h-3.786c-4.927 0-8.935 4.008-8.935 8.935v4.382h-88.042v-48.204h20.081v4.381c0 4.927 4.008 8.935 8.935 8.935h3.787c4.927 0 8.935-4.008 8.935-8.935v-4.381h12.483v4.381c0 4.927 4.008 8.935 8.935 8.935h3.786c4.927 0 8.935-4.008 8.935-8.935v-4.381h12.483v4.381c0 4.927 4.008 8.935 8.935 8.935h3.787c4.927 0 8.935-4.008 8.935-8.935v-4.381h59.578v48.204zm24.205 145.294c0 3.236-2.633 5.869-5.869 5.869h-4.466c-3.236 0-5.869-2.633-5.869-5.869v-226.394c0-3.236 2.633-5.869 5.869-5.869h4.466c3.236 0 5.869 2.633 5.869 5.869z" fill="#5f266d"/></svg>