<svg id="Icon_Set" enable-background="new 0 0 256 256" height="512" viewBox="0 0 256 256" width="512" xmlns="http://www.w3.org/2000/svg"><path id="XMLID_810_" d="m38.29 125.774 15.931-22.273c.607-.849.933-1.862.933-2.906-.001-3.809-.002-13.087-.002-12.993 0-45.118 36.089-82.516 81.206-82.849 62.885-.464 102.482 67.35 72.086 121.555-8.35 14.891-26.388 50.219-26.388 67.684 0 11.529 3.645 23.162 10.981 32.942l12.238 16.317c2.472 3.296.12 8-4 8h-87.303c-2.761 0-5-2.24-5-5.002 0-21.067.004-40.375.004-40.246.001-2.762-2.238-5.002-5-5.002h-17.179c-16.378 0-30.854-39.697-31.643-65.18h-11.698c-5.168 0-8.173-5.843-5.166-10.047z" fill="#5fcdff"/><g fill="#ff4a73"><circle cx="137.44" cy="81.251" r="16.201"/><circle cx="137.44" cy="33.216" r="10.09"/><circle cx="137.44" cy="129.286" r="10.09"/><circle cx="188.885" cy="81.251" r="10.09"/><circle cx="85.994" cy="81.251" r="10.09"/></g><path d="m144.94 95.61c-2.24 1.18-4.79 1.84-7.5 1.84-8.95 0-16.2-7.25-16.2-16.2s7.25-16.2 16.2-16.2c2.71 0 5.26.66 7.5 1.84-5.17 2.7-8.7 8.12-8.7 14.36s3.53 11.66 8.7 14.36z" fill="#f973a3"/><path d="m123.968 246.251c0-21 .01-40.25.01-40.25 0-2.76-2.24-5-5-5h-15c2.76 0 5 2.24 5 5 0 0-.01 19.25-.01 40.25 0 2.76 2.24 5 5 5h15c-2.76 0-5-2.24-5-5z" fill="#73d7f9"/><path d="m70.158 135.821h-11.7c-5.17 0-8.18-5.84-5.17-10.05l15.93-22.27c.61-.85.94-1.86.94-2.91 0-3.78-.01-12.99-.01-12.99 0-42.82 32.51-78.69 74.4-82.51-2.68-.25-5.41-.36-8.19-.34-45.12.34-81.21 37.73-81.21 82.85 0 0 .01 9.21.01 12.99 0 1.05-.33 2.06-.94 2.91l-15.93 22.27c-3.01 4.21 0 10.05 5.17 10.05h11.7c.78 25.48 15.26 65.18 31.64 65.18h15c-16.38 0-30.86-39.7-31.64-65.18z" fill="#73d7f9"/><path d="m208.448 126.311c-8.35 14.89-26.39 50.22-26.39 67.68 0 11.53 3.64 23.16 10.98 32.94l12.24 16.32c2.47 3.3.12 8-4 8h-15c4.12 0 6.47-4.7 4-8l-12.24-16.32c-7.34-9.78-10.98-21.41-10.98-32.94 0-17.46 18.04-52.79 26.39-67.68 29.05-51.82-5.85-116.06-63.9-121.22 2.24-.21 4.51-.32 6.81-.34 62.88-.46 102.48 67.35 72.09 121.56z" fill="#30b6ff"/><path d="m136.328.753c-46.966.347-85.176 39.308-85.176 86.85l.001 12.994c0 .491-15.83 22.447-16.118 22.85-4.895 6.843.002 16.374 8.42 16.374h7.919c1.992 24.915 15.7 65.18 35.422 65.18h17.178c.555 0 1 .446 1 1.001h.041c-.064.646-.041-1.719-.045 40.247 0 4.964 4.038 9.002 9 9.002h87.303c3.431 0 6.516-1.906 8.05-4.976 1.535-3.068 1.208-6.68-.85-9.425-12.214-16.285-22.418-26.607-22.418-46.858 0-15.46 16.266-48.589 25.876-65.728 32.054-57.157-9.978-128.097-75.603-127.511zm41.729 193.239c0 22.755 11.18 34.542 24.019 51.659.497.663.031 1.6-.8 1.6h-87.303c-.551 0-1-.449-1-1.002 0-20.936.004-40.135.004-40.245.002-4.975-4.024-9.003-9-9.003h-17.18c-12.431 0-26.861-35.98-27.645-61.304-.067-2.16-1.837-3.876-3.998-3.876h-11.698c-1.917 0-3.028-2.16-1.913-3.72 17.337-24.238 17.613-23.68 17.611-27.507-.002-11.634.038-11.992-.07-12.992h.068c0-43.291 34.884-78.852 77.833-78.852 59.445 0 96.808 64.174 67.97 115.601-4.491 8.01-26.898 49.011-26.898 69.641z" fill="#5f266d"/><path d="m188.885 67.161c-6.379 0-11.774 4.264-13.503 10.09h-18.142c-1.602-7.943-7.877-14.21-15.824-15.804.037-.625.024 2.367.024-14.728 5.825-1.729 10.09-7.125 10.09-13.504 0-7.77-6.321-14.09-14.09-14.09-7.77 0-14.09 6.32-14.09 14.09 0 6.379 4.265 11.775 10.09 13.504 0 17.094-.013 14.103.024 14.728-7.947 1.593-14.221 7.86-15.824 15.804h-18.142c-1.729-5.826-7.124-10.09-13.504-10.09-7.769 0-14.09 6.32-14.09 14.09s6.321 14.09 14.09 14.09c6.379 0 11.775-4.264 13.504-10.09h18.142c1.601 7.936 7.865 14.199 15.8 15.8v14.731c-5.826 1.729-10.09 7.125-10.09 13.504 0 7.77 6.321 14.09 14.09 14.09s14.09-6.32 14.09-14.09c0-6.379-4.264-11.775-10.09-13.504v-14.731c7.936-1.601 14.199-7.865 15.8-15.8h18.142c1.729 5.826 7.124 10.09 13.503 10.09 7.77 0 14.09-6.32 14.09-14.09s-6.32-14.09-14.09-14.09zm-102.891 20.18c-3.358 0-6.09-2.731-6.09-6.09s2.732-6.09 6.09-6.09 6.09 2.731 6.09 6.09-2.732 6.09-6.09 6.09zm45.356-54.125c0-3.358 2.732-6.09 6.09-6.09s6.09 2.731 6.09 6.09-2.732 6.091-6.09 6.091c-3.359-.001-6.09-2.733-6.09-6.091zm12.18 96.07c0 3.358-2.732 6.09-6.09 6.09s-6.09-2.731-6.09-6.09 2.732-6.091 6.09-6.091 6.09 2.733 6.09 6.091zm-6.09-35.834c-6.728 0-12.201-5.474-12.201-12.201s5.474-12.201 12.201-12.201 12.201 5.474 12.201 12.201-5.474 12.201-12.201 12.201zm51.445-6.111c-3.358 0-6.09-2.731-6.09-6.09s2.732-6.09 6.09-6.09 6.09 2.731 6.09 6.09-2.731 6.09-6.09 6.09z" fill="#5f266d"/><path d="m172.897 152.751c-2.024-.884-4.382.042-5.266 2.066l-2.108 4.834c-1.156 2.65.801 5.601 3.665 5.601 3.349 0 3.94-3.023 5.777-7.235.883-2.026-.043-4.383-2.068-5.266z" fill="#5f266d"/><path d="m185.289 124.334c-2.029-.883-4.383.043-5.266 2.068l-6.396 14.666c-.883 2.024.042 4.382 2.067 5.266 2.031.883 4.385-.046 5.266-2.068l6.396-14.666c.884-2.025-.042-4.382-2.067-5.266z" fill="#5f266d"/></svg>