<svg id="Icon_Set" enable-background="new 0 0 256 256" height="512" viewBox="0 0 256 256" width="512" xmlns="http://www.w3.org/2000/svg"><path d="m17.065 239.599v-223.198c0-5.523 4.477-10 10-10h184.167c5.523 0 10 4.477 10 10v223.199c0 5.523-4.477 10-10 10h-184.167c-5.523-.001-10-4.478-10-10.001z" fill="#ffe2e2"/><path d="m191.949 210.801h-145.602c-5.523 0-10-4.477-10-10v-145.602c0-5.523 4.477-10 10-10h145.603c5.523 0 10 4.477 10 10v145.603c-.001 5.522-4.478 9.999-10.001 9.999z" fill="#f9d335"/><path d="m221.228 16.4v223.2c0 5.52-4.47 10-10 10h-15c5.53 0 10-4.48 10-10v-223.2c0-5.52-4.47-10-10-10h15c5.53 0 10 4.48 10 10z" fill="#ffcfcf"/><path d="m42.068 249.6h-15c-5.53 0-10-4.48-10-10v-223.2c0-5.52 4.47-10 10-10h15c-5.53 0-10 4.48-10 10v223.2c0 5.52 4.47 10 10 10z" fill="#ffefee"/><path d="m201.948 55.2v145.6c0 5.52-4.48 10-10 10h-15c5.52 0 10-4.48 10-10v-145.6c0-5.52-4.48-10-10-10h15c5.52 0 10 4.48 10 10z" fill="#f2c300"/><path d="m61.348 210.8h-15c-5.52 0-10-4.48-10-10v-145.6c0-5.52 4.48-10 10-10h15c-5.52 0-10 4.48-10 10v145.6c0 5.52 4.48 10 10 10z" fill="#f9e27d"/><path d="m147.865 193.6h-57.353c-8.417 0-13.679-9.11-9.467-16.397l14.335-24.836.415-.721c3.994-6.909 6.355-14.619 6.938-22.548.095-1.29.146-2.58.146-3.877v-60.626h33.035v61.347c0 1.057.029 2.106.102 3.156.481 8.177 2.864 16.142 6.981 23.269l14.335 24.836c4.212 7.287-1.05 16.397-9.467 16.397z" fill="#ffe2e2"/><path d="m137.614 80.859h-36.438c-2.012 0-3.644-1.631-3.644-3.644v-11.239c0-2.012 1.631-3.644 3.644-3.644h36.438c2.012 0 3.644 1.631 3.644 3.644v11.239c-.001 2.012-1.632 3.644-3.644 3.644z" fill="#ffe2e2"/><path d="m147.865 193.6h-57.353c-8.417 0-13.679-9.11-9.467-16.397l14.335-24.836.415-.721c3.994-6.909 6.355-14.619 6.938-22.548h10.389 16.421 6.472c.481 8.177 2.864 16.142 6.981 23.269l14.335 24.836c4.213 7.287-1.049 16.397-9.466 16.397z" fill="#44c7b6"/><path d="m238.861 175.81v19.2c0 10.12-3.98 19.3-10.45 26.09-.87.9-1.34 2.11-1.34 3.36v16.37c0 4.86-3.94 8.8-8.8 8.8h-36.96c-4.86 0-8.8-3.94-8.8-8.8v-19.11c0-1.22-.45-2.4-1.27-3.31-7.89-8.71-16.58-16.65-26.35-23.19l-.75-.5c-2.02-1.35-2.56-4.08-1.21-6.1l1.07-1.6c3.73-5.57 11.27-7.06 16.84-3.34l2.39 1.6v-56.35c0-2.56 1.04-4.88 2.72-6.55 1.68-1.68 4-2.72 6.56-2.72 5.12 0 9.27 4.15 9.27 9.27v42.48h52.68c2.43 0 4.4 1.97 4.4 4.4z" fill="#ffcaa6"/><path d="m117.881 64.6v60.62c0 1.3-.05 2.59-.15 3.88-.58 7.93-2.94 15.64-6.94 22.55l-.41.72-14.34 24.83c-4.21 7.29 1.05 16.4 9.47 16.4h-15c-8.42 0-13.68-9.11-9.47-16.4l14.34-24.83.41-.72c4-6.91 6.36-14.62 6.94-22.55.1-1.29.15-2.58.15-3.88v-60.62z" fill="#ffefee"/><path d="m116.171 80.86h-15c-2.01 0-3.64-1.63-3.64-3.64v-11.24c0-2.02 1.63-3.65 3.64-3.65h15c-2.01 0-3.64 1.63-3.64 3.65v11.24c0 2.01 1.63 3.64 3.64 3.64z" fill="#ffefee"/><path d="m117.731 129.1c-.58 7.93-2.94 15.64-6.94 22.55l-.41.72-14.34 24.83c-4.21 7.29 1.05 16.4 9.47 16.4h-15c-8.42 0-13.68-9.11-9.47-16.4l14.34-24.83.41-.72c4-6.91 6.36-14.62 6.94-22.55z" fill="#4bdbc3"/><path d="m238.861 175.81v19.2c0 10.12-3.98 19.3-10.45 26.09-.87.9-1.34 2.11-1.34 3.36v16.37c0 4.86-3.94 8.8-8.8 8.8h-20.46v-31.8l-10.211-13.377c-3.774-4.944-5.819-10.992-5.819-17.213v-15.83h52.68c2.43 0 4.4 1.97 4.4 4.4z" fill="#ffbb98"/><path d="m234.461 171.41h-15c2.43 0 4.4 1.97 4.4 4.4v19.2c0 10.12-3.98 19.3-10.45 26.09-.87.9-1.34 2.11-1.34 3.36v16.37c0 4.86-3.94 8.8-8.8 8.8h15c4.86 0 8.8-3.94 8.8-8.8v-16.37c0-1.25.47-2.46 1.34-3.36 6.47-6.79 10.45-15.97 10.45-26.09v-19.2c0-2.43-1.97-4.4-4.4-4.4z" fill="#ffaa80"/><g fill="#5f266d"><path d="m134.217 226.411h-29.204c-2.209 0-4 1.791-4 4s1.791 4 4 4h29.204c2.209 0 4-1.791 4-4s-1.791-4-4-4z"/><ellipse cx="156.875" cy="25.055" rx="6.288" ry="6.288" transform="matrix(.987 -.16 .16 .987 -1.988 25.452)"/><path d="m174.375 29.025c2.192 0 3.97-1.777 3.97-3.97s-1.777-3.97-3.97-3.97-3.97 1.777-3.97 3.97 1.778 3.97 3.97 3.97z"/><path d="m104.82 169.562 5.553-9.496c1.115-1.907.473-4.357-1.434-5.473-1.908-1.116-4.357-.473-5.472 1.434l-5.553 9.496c-2.691 4.602 4.261 8.559 6.906 4.039z"/><path d="m93.039 185.778c2.603 0 3.489-2.037 4.209-3.269 1.115-1.906.474-4.356-1.433-5.473-1.906-1.115-4.356-.474-5.472 1.434l-.753 1.287c-1.564 2.674.384 6.021 3.449 6.021z"/><path d="m234.479 167.404h-9.187v-151.036c0-7.72-6.28-14-14-14h-184.17c-7.72 0-14 6.28-14 14v223.2c0 7.72 6.28 14 14 14 115.601 0 184.949.063 191.174.063 7.058 0 12.799-5.742 12.799-12.8v-16.373c0-.231.083-.452.229-.604 7.451-7.813 11.555-18.056 11.555-28.842v-19.208c-.001-4.631-3.769-8.4-8.4-8.4zm-207.357 78.164c-3.309 0-6-2.691-6-6v-223.2c0-3.309 2.691-6 6-6h184.17c3.309 0 6 2.691 6 6v151.036h-11.28v-112.235c0-7.72-6.28-14-14-14h-145.6c-7.72 0-14 6.28-14 14v145.6c0 7.72 6.28 14 14 14h115.856c2.015 2.007 4.022 4.109 6.029 6.325.149.164.231.386.231.623v19.115c0 1.674.332 3.27.919 4.736zm145.408-129.913c-7.32 0-13.275 5.955-13.275 13.275v43.563c-22.595-39.151-19.323-27.206-19.323-87.991 3.095-.978 5.346-3.875 5.346-7.29v-11.237c0-4.215-3.429-7.644-7.644-7.644h-36.438c-4.215 0-7.644 3.429-7.644 7.644v11.239c0 3.416 2.252 6.314 5.349 7.291 0 44.333.052 41.829-.139 44.302-.535 7.309-2.752 14.515-6.426 20.861l-14.739 25.53c-2.7 4.675-2.701 10.258-.002 14.933 2.699 4.676 7.535 7.468 12.936 7.468h50.806c1.175.945 5.328 3.356 12.216 9.17h-107.141c-3.309 0-6-2.691-6-6v-145.6c0-3.309 2.691-6 6-6h145.6c3.309 0 6 2.691 6 6v112.235h-12.207v-38.474c0-7.32-5.955-13.275-13.275-13.275zm-57.002-7.666h-8.626v-6.436h8.626c2.209 0 4-1.791 4-4s-1.791-4-4-4h-8.626v-8.696h25.03v40.241h-25.03v-9.109h8.626c2.209 0 4-1.791 4-4s-1.791-4-4-4zm-13.976-31.132v-10.526h35.725v10.526zm4.793 56.242h26.044c1.792 14.081 6.723 20.497 20.625 44.586-9.288.644-14.112 8.733-14.674 11.914h-47.808c-2.509 0-4.754-1.296-6.008-3.467-1.253-2.171-1.252-4.763.001-6.934 15.221-26.355 19.904-32.449 21.82-46.099zm128.533 61.914c0 8.721-3.318 17.003-9.344 23.32-1.573 1.649-2.439 3.825-2.439 6.126v16.373c0 2.646-2.153 4.8-4.799 4.8h-36.969c-2.646 0-4.799-2.153-4.799-4.8v-19.115c0-2.226-.817-4.354-2.301-5.993-9.915-10.948-18.938-18.368-27.841-24.33-.183-.122-.234-.369-.109-.553 1.044-1.561 2.976-5.206 7.847-5.206 5.507 0 6.97 5.334 11.013 3.175 1.302-.695 2.116-2.052 2.116-3.528v-9.557c.002-.05.003-.101.003-.149v-46.645c0-2.909 2.367-5.275 5.275-5.275s5.274 2.366 5.274 5.274v42.475c0 2.209 1.791 4 4 4h52.674c.221 0 .4.18.4.4v19.208z"/></g></svg>