<svg id="Icon_Set" enable-background="new 0 0 256 256" height="512" viewBox="0 0 256 256" width="512" xmlns="http://www.w3.org/2000/svg"><path d="m4.911 239.584v-223.198c0-5.523 4.477-10 10-10h184.167c5.523 0 10 4.477 10 10v223.199c0 5.523-4.477 10-10 10h-184.167c-5.523-.001-10-4.478-10-10.001z" fill="#ffe2e2"/><path d="m179.796 210.786h-145.603c-5.523 0-10-4.477-10-10v-145.602c0-5.523 4.477-10 10-10h145.603c5.523 0 10 4.477 10 10v145.603c0 5.522-4.477 9.999-10 9.999z" fill="#5fcdff"/><circle cx="127.304" cy="101.198" fill="#f9d335" r="38.828"/><path d="m209.083 16.381v223.2c0 5.53-4.48 10-10 10h-15c5.52 0 10-4.47 10-10v-223.2c0-5.52-4.48-10-10-10h15c5.52 0 10 4.48 10 10z" fill="#ffcfcf"/><path d="m29.912 249.581h-15c-5.52 0-10-4.47-10-10v-223.2c0-5.52 4.48-10 10-10h15c-5.52 0-10 4.48-10 10v223.2c0 5.53 4.481 10 10 10z" fill="#ffefee"/><path d="m189.793 55.181v145.61c0 5.52-4.47 10-10 10h-15c5.53 0 10-4.48 10-10v-145.61c0-5.52-4.47-10-10-10h15c5.53 0 10 4.48 10 10z" fill="#30b6ff"/><path d="m49.192 210.791h-15c-5.52 0-10-4.48-10-10v-145.61c0-5.52 4.48-10 10-10h15c-5.52 0-10 4.48-10 10v145.61c0 5.52 4.48 10 10 10z" fill="#73d7f9"/><path d="m166.133 101.201c0 21.44-17.38 38.82-38.83 38.82-2.57 0-5.08-.25-7.5-.73 17.86-3.49 31.33-19.22 31.33-38.09 0-18.88-13.47-34.61-31.33-38.1 2.42-.48 4.93-.73 7.5-.73 21.45 0 38.83 17.38 38.83 38.83z" fill="#f2c300"/><path d="m134.803 139.291c-2.42.48-4.93.73-7.5.73-21.44 0-38.83-17.38-38.83-38.82 0-21.45 17.39-38.83 38.83-38.83 2.57 0 5.08.25 7.5.73-17.86 3.49-31.33 19.22-31.33 38.1 0 18.87 13.469 34.6 31.33 38.09z" fill="#f9e27d"/><path d="m147.232 120.48c-3.519 0-6.869.645-9.935 1.821-.001 0-.002.001-.003.001-3.417-13.616-15.733-23.699-30.408-23.699-14.631 0-26.92 10.022-30.38 23.575-2.981-1.099-6.231-1.698-9.627-1.698-14.552 0-26.346 10.995-26.346 24.556 0 4.51 1.306 8.736 3.573 12.363 4.572 7.299 13.054 12.201 22.774 12.201h80.352c9.842 0 18.409-5.071 22.896-12.585 2.121-3.542 3.327-7.63 3.327-11.978 0-13.562-11.74-24.557-26.223-24.557z" fill="#3193f3"/><path d="m59.373 121.491c.81-.22 1.64-.41 2.48-.56-.13.41-.24.83-.35 1.25-.7-.26-1.41-.49-2.13-.69z" fill="#307fed"/><path d="m132.233 120.481c-3.52 0-6.87.64-9.93 1.82-.01 0-.01 0-.01 0-2.81-11.21-11.67-20.04-22.91-22.79 2.4-.6 4.91-.91 7.5-.91 14.16 0 26.12 9.39 30.01 22.27-1.51-.26-3.07-.39-4.66-.39z" fill="#307fed"/><path d="m173.452 145.031c0 4.35-1.2 8.44-3.32 11.98-4.49 7.52-13.06 12.59-22.9 12.59h-15c9.84 0 18.41-5.07 22.9-12.59 2.12-3.54 3.32-7.63 3.32-11.98 0-11.12-7.89-20.51-18.72-23.53 2.37-.67 4.89-1.02 7.5-1.02 14.481 0 26.22 10.99 26.22 24.55z" fill="#307fed"/><path d="m81.883 169.601h-15c-9.72 0-18.2-4.9-22.78-12.2-2.26-3.63-3.57-7.85-3.57-12.37 0-13.56 11.79-24.55 26.35-24.55 2.6 0 5.11.35 7.49 1.01-10.9 3.01-18.84 12.41-18.84 23.54 0 4.52 1.31 8.74 3.57 12.37 4.579 7.3 13.059 12.2 22.78 12.2z" fill="#3193f3"/><path d="m106.883 98.601c2.59 0 5.1.31 7.5.91-11.2 2.74-20.03 11.51-22.88 22.67-2.98-1.1-6.23-1.7-9.62-1.7-1.72 0-3.4.15-5.03.45 3.87-12.92 15.849-22.33 30.03-22.33z" fill="#3193f3"/><path d="m154.733 121.501c-.83.23-1.64.5-2.43.8-.01 0-.01 0-.01 0-.12-.48-.25-.96-.4-1.43.97.16 1.91.37 2.84.63z" fill="#3193f3"/><path d="m138.317 139.403c-.454-1.52.958-2.939 2.481-2.491l8.201 2.413 11.737 3.453-8.234 8.272-8.234 8.272-3.503-11.725z" fill="#ff4a73"/><path d="m224.349 239.402 16.468-16.545-80.081-80.081-16.468 16.545z" fill="#87828e"/><path d="m245.944 246.639 2.206-2.216c3.938-3.956 3.924-10.355-.031-14.294l-7.301-7.272-16.469 16.545 7.298 7.268c3.956 3.94 10.358 3.927 14.297-.031z" fill="#ff4a73"/><path d="m151.192 152.371-6.92 6.95-3.51-11.72-2.45-8.2c-.45-1.52.96-2.94 2.49-2.49l6.42 1.89c0 .2.03.4.09.6l2.45 8.2z" fill="#f973a3"/><path d="m231.333 232.381-6.98 7.02-80.08-80.08 16.46-16.54.02.02-9.48 9.52z" fill="#a4a4a5"/><path d="m250.103 241.651c-.47 1-1.12 1.94-1.95 2.77l-2.21 2.22c-3.94 3.96-10.34 3.97-14.3.03l-7.29-7.27 16.46-16.54.02.02-9.48 9.52 7.29 7.27c3.11 3.09 7.71 3.75 11.46 1.98z" fill="#f973a3"/><g fill="#5f266d"><path d="m73.993 57.9h-5.07c-5.285 0-5.293 8 0 8h5.07c5.285 0 5.292-8 0-8z"/><path d="m53.922 57.9h-8.39c-4.96 0-9 4.04-9 9v16.75c0 5.284 8 5.295 8 0v-16.75c0-.55.45-1 1-1h8.39c5.285 0 5.295-8 0-8z"/><path d="m122.003 226.43h-29.2c-5.285 0-5.293 8 0 8h29.2c5.285 0 5.292-8 0-8z"/><path d="m144.662 31.36c3.47 0 6.29-2.81 6.29-6.29 0-3.47-2.82-6.28-6.29-6.28s-6.29 2.81-6.29 6.28c.001 3.48 2.82 6.29 6.29 6.29z"/><path d="m162.162 29.04c2.19 0 3.97-1.77 3.97-3.97 0-2.19-1.78-3.97-3.97-3.97s-3.97 1.78-3.97 3.97c0 2.2 1.781 3.97 3.97 3.97z"/><path d="m250.942 227.29c-12.987-12.933-4.924-4.885-37.86-37.82v-173.09c0-7.71-6.29-14-14-14h-184.17c-7.72 0-14 6.29-14 14v223.2c0 7.72 6.28 14 14 14h184.17c7.71 0 14-6.28 14-14v-5.79c11.84 11.84 6.827 6.845 15.74 15.71 4.235 4.219 10.335 5.134 15.39 3.04 3.061-1.286 4.425-2.934 6.77-5.3 5.491-5.51 5.47-14.46-.04-19.95zm-16.469 16.55-4.47-4.45 10.83-10.88 4.46 4.45c5.864 5.839-4.678 16.969-10.82 10.88zm-48.68-81.66-9.46-9.46c3.414-11.489-1.11-23.825-11.51-30.89 3.38-6.12 5.31-13.16 5.31-20.63 0-23.62-19.21-42.83-42.83-42.83-23.339 0-43.359 18.973-42.81 44.21-4.67 3.82-8.37 8.83-10.61 14.66-19.247-4.221-37.35 9.53-37.35 27.8 0 16.148 14.038 28.56 30.35 28.56h80.35c1.77 0 3.52-.15 5.23-.43l31.71 31.71c-1.09 1.17-2.65 1.91-4.38 1.91h-145.6c-3.31 0-6-2.7-6-6v-145.61c0-3.31 2.69-6 6-6h145.6c3.31 0 6 2.69 6 6zm-45.881-44.86c-5.16-13.56-18.2-22.72-33.03-22.72-5.02 0-9.84 1.05-14.22 2.98 1.81-17.51 16.66-31.21 34.64-31.21 19.21 0 34.83 15.62 34.83 34.83 0 6.18-1.62 11.99-4.46 17.03-5.806-2.019-12.066-2.25-17.76-.91zm-33.029-14.72c12.57 0 23.48 8.5 26.53 20.67.603 2.373 3.115 3.624 5.33 2.76 5.54-2.121 12.125-2.154 18.03.44 7.557 3.325 12.994 10.662 12.66 19.35-.547-.547-5.936-6.021-6.56-6.42-1.163-.613-20.32-6.179-21.32-6.43-3.767-.848-7.32 2.041-7.32 5.87 0 1.269 6.013 22.103 7.15 23.24.017.035 3.479 3.489 3.51 3.52h-78.01c-12.163 0-22.35-9.084-22.35-20.56 0-14.51 16.005-24.474 30.59-19.11 2.191.807 4.661-.428 5.26-2.76 3.106-12.188 14.077-20.57 26.5-20.57zm36.319 39.19 9.95 2.93c-4.275 4.311-2.683 2.713-6.98 7.01zm6.72 17.52 10.82-10.87c7.195 7.195 67.393 67.393 74.42 74.42l-10.82 10.88c-51.636-51.637-35.441-35.452-74.42-74.43zm55.161 80.27c0 3.31-2.7 6-6 6h-184.171c-3.31 0-6-2.69-6-6v-223.2c0-3.3 2.69-6 6-6h184.17c3.3 0 6 2.7 6 6v165.09l-11.29-11.29v-115c0-7.72-6.28-14-14-14h-145.6c-7.72 0-14 6.28-14 14v145.61c0 7.71 6.28 14 14 14h145.6c3.93 0 7.49-1.63 10.03-4.26l15.26 15.26v13.79z"/></g></svg>