<svg id="Icon_Set" enable-background="new 0 0 256 256" height="512" viewBox="0 0 256 256" width="512" xmlns="http://www.w3.org/2000/svg"><path d="m250.014 238.332v7.035c0 2.761-2.239 5-5 5h-19.827c-2.761 0-5-2.239-5-5v-7.035c0-2.761 2.239-5 5-5h19.827c2.761 0 5 2.239 5 5z" fill="#b76c6c"/><path d="m106.093 169.784c.09-.04.18-.07.27-.12-.01.08-.02.16-.03.24l-.03.18c-.08-.1-.14-.2-.21-.3z" fill="#965959"/><path d="m183.654 122.027c25.01 25.01 33.948 57.509 22.224 76.572-1.216 1.966-2.645 3.79-4.306 5.452-1.655 1.655-3.486 3.09-5.445 4.299-19.056 11.731-51.562 2.8-76.58-22.217-5.19-5.19-9.68-10.699-13.449-16.348 2.022-.806 3.91-2.029 5.551-3.67 2.595-2.595 4.158-5.827 4.681-9.206.792-5.077-.764-10.451-4.681-14.368-4.999-4.999-12.395-6.159-18.505-3.458-1.839.806-3.557 1.959-5.063 3.465-.12.12-.233.233-.346.361-2.044-1.662-4.038-3.458-5.968-5.388-21.701-21.701-26.835-51.739-11.469-67.104 15.358-15.358 45.396-10.225 67.097 11.476 1.93 1.93 3.726 3.924 5.388 5.968-2.234 2.333-3.656 5.169-4.257 8.132-1.089 5.303.424 11.031 4.533 15.139 3.719 3.719 8.754 5.318 13.605 4.78 3.642-.389 7.177-1.987 9.97-4.78.601-.601 1.146-1.23 1.633-1.902 5.31 3.626 10.493 7.904 15.387 12.797z" fill="#b76c6c"/><path d="m167.966 146.039 2.683 2.683c1.953 1.953 1.953 5.118 0 7.071l-17.331 17.331c-1.953 1.953-5.118 1.953-7.071 0l-2.683-2.683c-1.953-1.953-1.953-5.118 0-7.071l17.331-17.331c1.952-1.952 5.118-1.952 7.071 0z" fill="#ffe2e2"/><path d="m205.873 198.604c-1.21 1.96-2.64 3.79-4.3 5.45-1.05 1.04-2.17 2-3.34 2.87 7.88-19.4-1.51-48.83-24.58-71.9-4.89-4.89-10.08-9.17-15.39-12.8-.48.68-1.03 1.31-1.63 1.91-2.79 2.79-6.33 4.39-9.97 4.78-4.85.53-9.89-1.06-13.6-4.78-4.11-4.11-5.63-9.84-4.54-15.14.6-2.97 2.03-5.8 4.26-8.13-1.66-2.05-3.46-4.04-5.39-5.97-20.15-20.15-47.49-26.02-63.59-14.46 1.46-3.76 3.62-7.15 6.49-10.02 15.36-15.36 45.4-10.22 67.1 11.48 1.93 1.93 3.73 3.92 5.39 5.97-2.23 2.33-3.66 5.16-4.26 8.13-1.09 5.3.43 11.03 4.54 15.14 3.71 3.72 8.75 5.31 13.6 4.78 3.64-.39 7.18-1.99 9.97-4.78.6-.6 1.15-1.23 1.63-1.91 5.31 3.63 10.5 7.91 15.39 12.8 25.01 25.01 33.95 57.51 22.22 76.58z" fill="#965959"/><path d="m201.263 204.354c-1.58 1.53-3.3 2.86-5.14 4-19.05 11.73-51.56 2.8-76.58-22.22-5.19-5.19-9.68-10.7-13.45-16.35 2.03-.8 3.92-2.03 5.56-3.67 2.59-2.59 4.15-5.83 4.68-9.21.79-5.07-.77-10.45-4.68-14.36-5-5-12.4-6.16-18.51-3.46-1.84.8-3.56 1.96-5.06 3.46-.12.12-.24.24-.35.36-2.04-1.66-4.04-3.45-5.97-5.38-21.7-21.71-26.83-51.74-11.47-67.11 4.1-4.1 9.24-6.74 14.99-7.99-15.35 15.37-10.22 45.39 11.48 67.1 1.93 1.93 3.93 3.72 5.97 5.38.11-.12.23-.24.35-.36 1.5-1.5 3.22-2.66 5.06-3.46 6.11-2.7 13.51-1.54 18.51 3.46 3.91 3.91 5.47 9.29 4.68 14.36-.53 3.38-2.09 6.62-4.68 9.21-1.64 1.64-3.53 2.87-5.56 3.67 3.77 5.65 8.26 11.16 13.45 16.35 21.1 21.1 47.54 30.76 66.72 26.22z" fill="#c98585"/><path d="m192.655 185.377 13.223 13.223c-1.216 1.966-2.645 3.79-4.306 5.452-1.655 1.655-3.486 3.09-5.445 4.299l-13.223-13.223c-1.953-1.953-1.953-5.118 0-7.071l2.68-2.68c1.953-1.953 5.118-1.953 7.071 0z" fill="#ffe2e2"/><path d="m159.313 167.124-6 6c-1.95 1.95-5.11 1.95-7.07 0l-2.68-2.68c-1.95-1.95-1.95-5.12 0-7.07l6-6c-1.95 1.95-1.95 5.12 0 7.07l2.68 2.68c1.96 1.95 5.12 1.95 7.07 0z" fill="#ffefee"/><path d="m170.643 155.794-8 8c1.96-1.95 1.96-5.12 0-7.07l-2.68-2.68c-1.95-1.96-5.12-1.96-7.07 0l8-8c1.95-1.96 5.12-1.96 7.07 0l2.68 2.68c1.96 1.95 1.96 5.12 0 7.07z" fill="#ffcfcf"/><path d="m200.293 205.254c-1.3 1.16-2.7 2.19-4.17 3.1l-13.22-13.23c-1.95-1.95-1.95-5.11 0-7.07l2.68-2.68c.66-.65 1.46-1.09 2.3-1.3l-.98.98c-1.95 1.96-1.95 5.12 0 7.07l13.22 13.23c.06-.04.11-.07.17-.1z" fill="#ffefee"/><path d="m200.261 237.492v4.358h-173.914v-4.358c0-4.521 3.665-8.187 8.187-8.187h157.541c4.521 0 8.186 3.666 8.186 8.187z" fill="#ffe2e2"/><path d="m200.263 237.494v4.36h-15v-4.36c0-4.52-3.67-8.19-8.19-8.19h15c4.52 0 8.19 3.67 8.19 8.19z" fill="#ffcfcf"/><path d="m49.533 229.304c-4.52 0-8.19 3.67-8.19 8.19v4.36h-15v-4.36c0-4.52 3.67-8.19 8.19-8.19z" fill="#ffefee"/><path d="m32.932 20.013-3.255-12.148c-.598-2.231-3.386-2.978-5.019-1.345l-8.892 8.892-8.892 8.892c-1.633 1.633-.886 4.421 1.345 5.019l12.147 3.255 2.477.664-1.204 1.204 108.541 108.541 13.162-13.162-108.542-108.539-1.204 1.204z" fill="#b76c6c"/><path d="m137.183 135.984-7 7-108.55-108.54 1.21-1.2-2.48-.66-12.15-3.26c-2.23-.6-2.97-3.39-1.34-5.02l7-7c-1.63 1.63-.89 4.42 1.34 5.02l12.15 3.26 2.48.66-1.21 1.2z" fill="#c98585"/><g fill="#5f266d"><path d="m245.013 229.334h-19.83c-4.8 0-8.74 3.78-8.99 8.52h-11.93v-.36c0-6.72-5.47-12.19-12.19-12.19h-157.54c-6.72 0-12.19 5.47-12.19 12.19v4.36c0 2.21 1.79 4 4 4h173.92 15.93c.26 4.74 4.2 8.51 8.99 8.51h19.83c4.96 0 9-4.03 9-9v-7.03c0-4.96-4.04-9-9-9zm1 16.03c0 .56-.45 1-1 1h-19.83c-.37 0-.7-.2-.87-.51-.08-.14-.13-.31-.13-.49v-7.03c0-.17.04-.34.13-.48.16-.31.49-.52.87-.52h19.83c.55 0 1 .45 1 1zm-215.67-7.87c0-2.31 1.88-4.19 4.19-4.19h157.54c2.31 0 4.19 1.88 4.19 4.19v.36h-165.92z"/><path d="m140.733 173.274 2.68 2.68c3.551 3.531 9.249 3.481 12.73 0l17.33-17.33c3.51-3.51 3.51-9.22 0-12.73l-2.68-2.68c-3.51-3.51-9.22-3.51-12.73 0l-17.33 17.33c-3.51 3.51-3.51 9.22 0 12.73zm5.66-7.07 17.33-17.34c.42-.399 1.035-.375 1.41 0l2.69 2.69c.39.39.39 1.02 0 1.41l-17.33 17.33c-.39.39-1.03.39-1.42 0l-2.68-2.68c-.39-.39-.39-1.03 0-1.41z"/><path d="m26.333 60.224 7.72-7.71 26.17 26.17c-7.06 17.8-.12 42.83 18.72 61.66 2 2.01 4.11 3.91 6.27 5.67 1.66 1.35 4.1 1.15 5.52-.45 2.653-3.714 11.952-6.328 18.09-.19 6.375 6.353 4.219 17.317-4.21 20.7-2.372.932-3.239 3.843-1.84 5.93 4 6 8.69 11.7 13.95 16.96 26.168 26.182 60.46 35.748 81.5 22.79 4.569-2.823 8.264-6.537 11.06-11.05.02-.03.04-.06.04-.09 12.89-21.07 3.29-55.28-22.84-81.42-4.97-4.96-10.34-9.43-15.96-13.27-1.79-1.22-4.22-.8-5.49.95-4.52 6.151-13.583 6.977-19.15 1.43-4.839-4.855-4.961-12.697-.21-17.68 1.39-1.45 1.49-3.72.21-5.29-1.76-2.16-3.66-4.27-5.66-6.27-18.59-18.59-43.22-25.6-60.97-18.99l-26.38-26.38 7.71-7.72c3.74-3.74-1.928-9.382-5.66-5.65l-7.71 7.71-6.63-6.63 7.71-7.71c3.738-3.761-1.928-9.392-5.66-5.66l-6.92 6.92-2.17-8.12c-1.403-5.208-7.894-6.956-11.71-3.14l-17.79 17.78c-3.811 3.811-2.074 10.321 3.14 11.71l8.12 2.18-6.92 6.92c-3.734 3.734 1.927 9.394 5.66 5.66l7.72-7.72 6.63 6.63-7.72 7.72c-3.807 3.807 2.002 9.308 5.66 5.65zm-15.41-34.31 15.34-15.34 2.8 10.47.12.44-7.35 7.35zm24 1.15 6.63 6.63-7.5 7.51-6.63-6.63zm102.76 102.76-7.5 7.51c-19.309-19.309-70.59-70.59-90.48-90.48l7.5-7.5c31.082 31.069 12.224 12.214 90.48 90.47zm58.9 73.33-10.85-10.85c-.39-.39-.39-1.03 0-1.42l2.68-2.68c.379-.379 1.016-.394 1.41 0l10.85 10.85c-1.226 1.553-2.573 2.883-4.09 4.1zm-110.97-136.72c18.081-4.334 38.953 6.865 52 21.51-5.342 8.05-4.443 18.957 2.62 26.02 7.93 7.93 20.552 8.002 28.62.58 4.18 3.08 8.2 6.54 11.97 10.31 21.27 21.27 30.86 48.93 23.94 66.97l-9.28-9.28c-3.51-3.5-9.22-3.5-12.73 0l-2.68 2.68c-3.51 3.51-3.51 9.22 0 12.73l9.28 9.28c-17.904 6.915-45.608-2.558-66.98-23.93-3.83-3.83-7.33-7.91-10.46-12.18.91-.65 1.76-1.38 2.56-2.18 8.229-8.229 7.909-21.321 0-29.23-7.052-7.064-18.512-8.127-26.77-2.09-14.771-13.1-25.962-34.661-21.19-52.65l60.84 60.84c1.551 1.551 4.081 1.569 5.65 0l13.17-13.16c1.56-1.56 1.56-4.09 0-5.66z"/></g></svg>