<svg id="Icon_Set" enable-background="new 0 0 256 256" height="512" viewBox="0 0 256 256" width="512" xmlns="http://www.w3.org/2000/svg"><path d="m95.069 189.099h65.862v42.568h-65.862z" fill="#87828e"/><path d="m241.667 189.099h-227.334c-5.523 0-10-4.477-10-10v-144.766c0-5.523 4.477-10 10-10h227.333c5.523 0 10 4.477 10 10v144.766c.001 5.523-4.476 10-9.999 10z" fill="#87828e"/><path d="m227.964 171.71h-199.928c-2.781 0-5.036-2.255-5.036-5.036v-119.915c0-2.781 2.255-5.036 5.036-5.036h199.928c2.781 0 5.036 2.255 5.036 5.036v119.915c0 2.781-2.255 5.036-5.036 5.036z" fill="#5fcdff"/><path d="m103.3 136.792v15.788c0 2.257-1.83 4.086-4.086 4.086h-48.008c-2.257 0-4.086-1.83-4.086-4.086v-15.788c0-7.304 2.798-13.963 7.367-18.963 2.574-2.807 5.172-4.577 8.165-6.152 1.351-.676 2.749-1.255 4.367-1.76 2.595-.785 5.342-1.215 8.19-1.215 2.861 0 5.608.43 8.19 1.215 1.369.417 2.831.985 4.38 1.76 2.79 1.476 5.1 2.995 7.519 5.507 4.951 5.051 8.002 11.975 8.002 19.608z" fill="#ff4a73"/><path d="m193.866 59.103h-51.461c-7.523 0-13.622 6.099-13.622 13.622v19.105 3.472l-.116.746c-1.15 7.373-4.737 14.148-10.188 19.244-.788 1.564.875 3.228 2.439 2.439l7.865-3.964 12.58-6.34h52.503c7.523 0 13.622-6.099 13.622-13.622v-21.08c0-7.524-6.099-13.622-13.622-13.622z" fill="#f9d335"/><path d="m251.67 34.33v144.77c0 5.52-4.48 10-10 10h-15c5.52 0 10-4.48 10-10v-144.77c0-5.52-4.48-10-10-10h15c5.52 0 10 4.48 10 10z" fill="#796e84"/><path d="m29.33 189.1h-15c-5.52 0-10-4.48-10-10v-144.77c0-5.52 4.48-10 10-10h15c-5.52 0-10 4.48-10 10v144.77c0 5.52 4.48 10 10 10z" fill="#a4a4a5"/><path d="m207.49 72.72v21.08c0 7.53-6.1 13.63-13.62 13.63h-15c7.52 0 13.62-6.1 13.62-13.63v-21.08c0-7.52-6.1-13.62-13.62-13.62h15c7.52 0 13.62 6.1 13.62 13.62z" fill="#f2c300"/><path d="m157.4 59.1c-7.52 0-13.62 6.1-13.62 13.62v22.58l-.11.75c-.7 4.5-2.31 8.78-4.71 12.59l-10.18 5.13-7.86 3.96c-1.29.65-2.64-.36-2.64-1.61 0-.27.06-.55.2-.83 5.45-5.09 9.04-11.87 10.19-19.24l.11-.75v-22.58c0-7.52 6.1-13.62 13.62-13.62z" fill="#f9e27d"/><path d="m233 46.76v119.91c0 2.79-2.25 5.04-5.04 5.04h-15c2.79 0 5.04-2.25 5.04-5.04v-119.91c0-2.78-2.25-5.04-5.04-5.04h15c2.79 0 5.04 2.26 5.04 5.04z" fill="#30b6ff"/><path d="m43.04 171.71h-15c-2.79 0-5.04-2.25-5.04-5.04v-119.91c0-2.78 2.25-5.04 5.04-5.04h15c-2.79 0-5.04 2.26-5.04 5.04v119.91c0 2.79 2.25 5.04 5.04 5.04z" fill="#73d7f9"/><path d="m103.3 136.79v15.79c0 2.26-1.83 4.09-4.09 4.09h-15c2.26 0 4.09-1.83 4.09-4.09v-15.79c0-7.63-3.05-14.56-8-19.61-2.642-2.721-5.989-4.932-8.51-5.97-1.1-.51-2.23-.94-3.39-1.29-.23-.07-.46-.14-.69-.2 2.38-.66 4.9-1.02 7.5-1.02 2.86 0 5.61.43 8.19 1.22 1.585.478 3.205 1.155 4.38 1.76 2.893 1.447 5.357 3.272 7.52 5.5 4.95 5.05 8 11.98 8 19.61z" fill="#ea2a6a"/><path d="m82.71 109.72c-.23.06-.46.13-.69.2-1.18.36-2.3.79-3.39 1.29-3.48 1.582-6.461 3.75-9.14 6.62-4.57 5-7.37 11.66-7.37 18.96v15.79c0 2.26 1.83 4.09 4.09 4.09h-15c-2.26 0-4.09-1.83-4.09-4.09v-15.79c0-7.3 2.8-13.96 7.37-18.96 2.515-2.694 4.873-4.438 8.16-6.15 1.163-.599 2.758-1.268 4.37-1.76 2.59-.79 5.34-1.22 8.19-1.22 2.61 0 5.13.36 7.5 1.02z" fill="#f973a3"/><path d="m80.36 124.51-2.79 4.84c-1.05 1.82-3.67 1.82-4.72 0l-6.51-11.28-3.69-6.39c0-.01 0-.01 0-.01 1.39-.69 2.84-1.27 4.37-1.75 1.41-.43 2.87-.75 4.37-.96l2.95 5.11z" fill="#ffcaa6"/><path d="m145.93 189.1h15v42.57h-15z" fill="#796e84"/><path d="m95.07 189.1h15v42.57h-15z" fill="#a4a4a5"/><path d="m87.78 111.677-3.696 6.393-6.515 11.282c-1.049 1.816-3.67 1.816-4.718 0l-6.515-11.282-3.684-6.393c.001-.002.001-.003.002-.005 1.388-.692 2.834-1.277 4.366-1.754 2.595-.785 5.342-1.215 8.19-1.215 2.861 0 5.608.43 8.19 1.215 1.369.416 2.831.985 4.38 1.759z" fill="#ffbb98"/><ellipse cx="75.209" cy="89.989" fill="#ffbb98" rx="21.204" ry="21.204" transform="matrix(.998 -.071 .071 .998 -6.19 5.558)"/><path d="m96.41 89.99c0 11.71-9.49 21.2-21.2 21.2-2.64 0-5.17-.48-7.5-1.37 8.01-3.02 13.7-10.76 13.7-19.83s-5.69-16.81-13.7-19.84c2.33-.89 4.86-1.37 7.5-1.37 11.71 0 21.2 9.5 21.2 21.21z" fill="#ffaa80"/><path d="m82.71 109.82c-2.33.89-4.86 1.37-7.5 1.37-11.71 0-21.21-9.49-21.21-21.2s9.5-21.21 21.21-21.21c2.64 0 5.17.48 7.5 1.37-8.01 3.03-13.71 10.77-13.71 19.84s5.7 16.81 13.71 19.83z" fill="#ffcaa6"/><path d="m103.293 84.418c0 1.481-1.201 2.682-2.682 2.682-10.676 0-11.265.676-17.558-11.302-2.446 4.644-4.762 11.302-11.923 11.302h-21.329c-1.481 0-2.682-1.201-2.682-2.682 0-25.098 30.415-37.389 47.946-19.856 9.395 9.375 8.228 21.295 8.228 19.856z" fill="#87828e"/><path d="m103.29 84.42c0 1.48-1.2 2.68-2.68 2.68-6.87 0-9.56.28-12.29-2.72.1-1.39 0-11.58-8.26-19.82-3.63-3.63-7.82-5.99-12.17-7.2 9.07-2.49 19.39-.58 27.17 7.2 9.4 9.38 8.23 21.3 8.23 19.86z" fill="#796e84"/><path d="m62.12 84.42c0 1.48 1.2 2.68 2.68 2.68h-15c-1.48 0-2.68-1.2-2.68-2.68 0-19.9 19.11-31.75 35.77-27.06-11.37 3.1-20.77 13.1-20.77 27.06z" fill="#a4a4a5"/><g fill="#5f266d"><path d="m211.49 93.8v-21.08c0-9.71-7.91-17.62-17.62-17.62h-51.47c-9.71 0-17.62 7.91-17.62 17.62v22.27l-.07.44c-1.775 11.466-9.02 16.5-9.8 18.06-2.506 4.946 2.759 10.335 7.81 7.81l19.59-9.87h51.56c9.71 0 17.62-7.91 17.62-17.63zm-8 0c0 5.31-4.32 9.63-9.62 9.63h-52.51c-.62 0-1.24.14-1.8.42l-11.57 5.84c2.33-4 3.91-8.43 4.63-13.03.089-.549.16-.863.16-1.36v-22.58c0-5.3 4.32-9.62 9.62-9.62h51.47c5.3 0 9.62 4.32 9.62 9.62z"/><path d="m184.5 71.08h-31c-5.285 0-5.293 8 0 8h31c5.285 0 5.293-8 0-8z"/><path d="m184.5 86.52h-31c-5.285 0-5.293 8 0 8h31c5.285 0 5.293-8 0-8z"/><path d="m186.09 149.08h-4.42c-5.285 0-5.293 8 0 8h4.42c5.285 0 5.293-8 0-8z"/><path d="m209.15 133v15.08c0 .55-.44 1-1 1h-7.06c-5.285 0-5.293 8 0 8h7.06c4.97 0 9-4.04 9-9v-15.08c0-5.303-8-5.276-8 0z"/><path d="m227.96 37.72h-199.92c-4.99 0-9.04 4.06-9.04 9.04v119.91c0 4.99 4.05 9.04 9.04 9.04h199.92c4.99 0 9.04-4.05 9.04-9.04v-119.91c0-4.98-4.05-9.04-9.04-9.04zm1.04 128.95c0 .58-.46 1.04-1.04 1.04h-199.92c-.58 0-1.04-.46-1.04-1.04v-119.91c0-.57.46-1.04 1.04-1.04h199.92c.58 0 1.04.47 1.04 1.04z"/><path d="m241.67 20.33h-227.34c-7.72 0-14 6.28-14 14v144.77c0 7.72 6.28 14 14 14h76.74v34.57h-8.04c-5.285 0-5.293 8 0 8h89.94c5.285 0 5.293-8 0-8h-8.04v-34.57h76.74c7.72 0 14-6.28 14-14v-144.77c0-7.72-6.28-14-14-14zm-84.74 207.34h-57.86v-34.57h57.86zm90.74-48.57c0 3.31-2.69 6-6 6-8.842 0-216.933 0-227.34 0-3.31 0-6-2.69-6-6v-144.77c0-3.31 2.69-6 6-6h227.34c3.31 0 6 2.69 6 6z"/><path d="m97.89 61.73c-20.113-20.113-54.77-5.918-54.77 22.69 0 3.68 3 6.68 6.68 6.68h.23c.31 7.23 3.69 13.68 8.86 18.07-10.311 6.156-15.77 16.81-15.77 27.62v15.79c0 4.46 3.63 8.09 8.09 8.09h48c4.46 0 8.09-3.63 8.09-8.09v-15.79c0-11.812-6.374-22.072-15.77-27.62 5.17-4.39 8.54-10.84 8.85-18.07h.23c3.723 0 6.69-3.05 6.69-6.68.272-3.603-1-14.296-9.41-22.69zm1.41 90.85c0 .05-.04.09-.09.09h-48c-.05 0-.09-.04-.09-.09v-15.79c0-8.082 4.067-15.4 10.1-19.59l8.17 14.15c2.572 4.485 9.071 4.479 11.64 0l8.18-14.15c5.412 3.608 10.09 10.991 10.09 19.59zm-17.69-38.22-6.4 11.08-6.39-11.08c4.193 1.11 8.622 1.103 12.79 0zm.93-8.81c-4.662 2.195-10.039 2.181-14.65 0-5.52-2.6-9.45-8.05-9.85-14.45h13.09c6.07 0 9.63-3.39 12.01-7.03 2.78 4.32 5.14 6.04 9.25 6.69-.28 6.54-4.24 12.14-9.85 14.79zm9.7-38.16c4.244 4.236 6.713 9.843 7.08 15.71-3.75 0-6.085.083-7.25-.7-1.34-.9-2.96-3.67-5.48-8.46-1.437-2.749-5.444-2.956-7.08-.01-2.768 5.358-4.146 9.17-8.38 9.17-12.772 0-7.199 0-19.98 0 .738-20.029 26.068-30.732 41.09-15.71z"/></g></svg>