<svg id="Icon_Set" enable-background="new 0 0 256 256" height="512" viewBox="0 0 256 256" width="512" xmlns="http://www.w3.org/2000/svg"><path d="m84.08 198.295h50.468v32.618h-50.468z" fill="#87828e"/><path d="m199.389 198.295h-180.149c-5.523 0-10-4.477-10-10v-113.333c0-5.523 4.477-10 10-10h180.149c5.523 0 10 4.477 10 10v113.333c0 5.523-4.477 10-10 10z" fill="#87828e"/><path d="m185.696 182.732h-152.762c-2.761 0-5-2.239-5-5v-92.207c0-2.761 2.239-5 5-5h152.762c2.761 0 5 2.239 5 5v92.208c0 2.761-2.239 4.999-5 4.999z" fill="#5fcdff"/><path d="m91.361 153.867v11.591c0 1.657-1.343 3-3 3h-35.244c-1.657 0-3-1.343-3-3v-11.591c0-5.362 2.054-10.251 5.409-13.922 1.865-2.034 3.79-3.357 5.994-4.517.996-.498 2.022-.922 3.206-1.292 1.905-.576 3.922-.892 6.013-.892 2.1 0 4.117.316 6.013.892 1.005.306 2.079.723 3.215 1.292 1.867.988 3.637 2.087 5.52 4.043 3.635 3.708 5.874 8.792 5.874 14.396z" fill="#ff4a73"/><path d="m163.347 143.094h-47.365c-2.761 0-5-2.239-5-5v-34.072c0-2.761 2.239-5 5-5h47.365c2.761 0 5 2.239 5 5v34.072c0 2.761-2.239 5-5 5z" fill="#f9d335"/><path d="m119.548 198.294h15v32.62h-15z" fill="#796e84"/><path d="m84.078 198.294h15v32.62h-15z" fill="#a4a4a5"/><path d="m209.388 74.964v113.33c0 5.52-4.48 10-10 10h-15c5.52 0 10-4.48 10-10v-113.33c0-5.52-4.48-10-10-10h15c5.52 0 10 4.48 10 10z" fill="#796e84"/><path d="m34.238 198.294h-15c-5.52 0-10-4.48-10-10v-113.33c0-5.52 4.48-10 10-10h15c-5.52 0-10 4.48-10 10v113.33c0 5.52 4.48 10 10 10z" fill="#a4a4a5"/><path d="m190.698 85.524v92.21c0 2.76-2.24 5-5 5h-15c2.76 0 5-2.24 5-5v-92.21c0-2.76-2.24-5-5-5h15c2.76 0 5 2.24 5 5z" fill="#30b6ff"/><path d="m47.938 182.734h-15c-2.77 0-5-2.24-5-5v-92.21c0-2.76 2.23-5 5-5h15c-2.77 0-5 2.24-5 5v92.21c0 2.76 2.23 5 5 5z" fill="#73d7f9"/><path d="m168.348 104.024v34.07c0 2.76-2.24 5-5 5h-15c2.76 0 5-2.24 5-5v-34.07c0-2.76-2.24-5-5-5h15c2.76 0 5 2.24 5 5z" fill="#f2c300"/><path d="m130.978 143.094h-15c-2.76 0-5-2.24-5-5v-34.07c0-2.76 2.24-5 5-5h15c-2.76 0-5 2.24-5 5v34.07c0 2.76 2.24 5 5 5z" fill="#f9e27d"/><path d="m91.358 153.864v11.59c0 1.66-1.34 3-3 3h-15c1.66 0 3-1.34 3-3v-11.59c0-8.66-5.371-16.155-13.1-19.2.47-.2.96-.37 1.47-.53 1.9-.57 3.92-.89 6.01-.89 2.1 0 4.12.32 6.01.89 1.11.336 2.238.799 3.22 1.29 1 .563 3.175 1.609 5.52 4.05 3.63 3.71 5.87 8.79 5.87 14.39z" fill="#ea2a6a"/><path d="m78.258 134.663c-7.479 2.778-13.14 10.326-13.14 19.2v11.59c0 1.66 1.34 3 3 3h-15c-1.66 0-3-1.34-3-3v-11.59c0-5.36 2.05-10.25 5.41-13.92 1.892-2.082 3.819-3.341 5.99-4.52.918-.459 2.089-.942 3.21-1.29 1.9-.57 3.92-.89 6.01-.89 2.1 0 4.12.32 6.01.89.51.161 1.02.331 1.51.53z" fill="#f973a3"/><path d="m79.968 135.428-2.714 4.693-4.783 8.283c-.77 1.333-2.694 1.333-3.464 0l-4.783-8.283-2.704-4.693c0-.002.001-.002.001-.004 1.019-.508 2.081-.937 3.205-1.288 1.905-.576 3.922-.892 6.013-.892 2.1 0 4.117.316 6.013.892 1.005.307 2.079.724 3.216 1.292z" fill="#ffbb98"/><circle cx="70.738" cy="119.506" fill="#ffbb98" r="15.567"/><path d="m78.238 133.144c-2.22 1.23-4.78 1.93-7.5 1.93-8.6 0-15.57-6.97-15.57-15.57 0-8.59 6.97-15.56 15.57-15.56 2.72 0 5.28.7 7.5 1.93-4.81 2.64-8.07 7.76-8.07 13.63 0 5.88 3.26 11 8.07 13.64z" fill="#ffcaa6"/><path d="m91.357 115.416c0 1.088-.882 1.969-1.969 1.969-7.838 0-8.27.496-12.89-8.297-1.796 3.409-3.496 8.297-8.754 8.297h-15.658c-1.088 0-1.969-.882-1.969-1.969 0-18.426 22.329-27.449 35.199-14.577 6.897 6.883 6.041 15.634 6.041 14.577z" fill="#87828e"/><path d="m78.348 96.214c-7.41 2.84-13.23 9.8-13.23 19.2 0 1.09.88 1.97 1.97 1.97h-15c-1.09 0-1.97-.88-1.97-1.97 0-15.39 15.59-24.23 28.23-19.2z" fill="#a4a4a5"/><g fill="#5f266d"><path d="m204.376 46.108c-5.245-.643-6.22 7.303-.965 7.941 6.954.845 13.543 7.435 14.388 14.389.646 5.315 8.579 4.283 7.941-.965-1.297-10.682-10.682-20.067-21.364-21.365z"/><path d="m207.541 33.317c-5.237-.644-6.229 7.302-.965 7.941 11.807 1.435 22.58 12.208 24.014 24.015.646 5.315 8.579 4.283 7.941-.965-1.881-15.495-15.494-29.108-30.99-30.991z"/><path d="m250.726 59.776c-2.309-19.004-19.648-36.344-38.653-38.653-5.245-.64-6.22 7.304-.965 7.941 15.574 1.893 29.784 16.102 31.676 31.676.646 5.316 8.58 4.284 7.942-.964z"/><path d="m185.698 76.524h-152.76c-4.97 0-9 4.04-9 9v92.21c0 4.96 4.03 9 9 9h152.76c4.96 0 9-4.04 9-9v-92.21c0-4.96-4.04-9-9-9zm1 101.21c0 .55-.45 1-1 1h-152.76c-.56 0-1-.45-1-1v-92.21c0-.55.44-1 1-1h152.76c.55 0 1 .45 1 1z"/><path d="m199.388 60.964h-180.15c-7.72 0-14 6.28-14 14v113.33c0 7.72 6.28 14 14 14h60.84v24.62h-5.22c-5.285 0-5.293 8 0 8h68.92c5.285 0 5.293-8 0-8h-5.23v-24.62h60.84c7.72 0 14-6.28 14-14v-113.33c0-7.72-6.28-14-14-14zm-68.84 165.949h-42.47v-24.62h42.47zm74.84-38.619c0 3.31-2.69 6-6 6-3.037 0-176.856 0-180.15 0-3.31 0-6-2.69-6-6v-113.33c0-3.31 2.69-6 6-6h180.15c3.31 0 6 2.69 6 6z"/><path d="m95.358 115.413c0-.14-.01-.28-.02-.42.14-3.96-1.42-11.22-7.19-16.98-15.463-15.463-42.03-4.52-42.03 17.4 0 3.01 2.24 5.51 5.14 5.91.43 4.72 2.56 8.97 5.76 12.11-6.454 4.266-10.9 11.849-10.9 20.43v11.59c0 3.86 3.14 7 7 7h35.24c3.86 0 7-3.14 7-7v-11.59c0-8.84-4.73-16.435-10.89-20.43 3.2-3.15 5.32-7.39 5.75-12.11 2.9-.399 5.14-2.899 5.14-5.91zm-8 49.041h-33.24v-10.59c0-5.152 2.399-9.852 6.04-12.8l5.39 9.34c2.282 3.984 8.076 4.002 10.39 0l5.39-9.34c3.477 2.781 6.03 7.485 6.03 12.8zm-14.02-25.56-2.6 4.51-2.6-4.51c1.66.234 3.459.245 5.2 0zm2.65-9.08c-3.27 1.656-7.133 1.705-10.5 0-3.22-1.65-5.56-4.75-6.17-8.43h8.43c4.21 0 6.93-2.03 8.8-4.4 1.68 2.25 3.32 3.39 5.67 3.94-.47 3.88-2.88 7.18-6.23 8.89zm11.28-16.42c-.681 0-3.001.049-3.56-.34-.94-.64-2.65-3.88-3.67-5.83-1.532-2.843-5.581-2.845-7.08 0-2.012 3.88-2.828 6.16-5.21 6.16-6.428 0-7.097 0-13.52 0 1.496-13.319 18.316-19.671 28.26-9.71 2.698 2.698 4.304 6.184 4.78 9.72z"/><path d="m172.348 138.094v-34.07c0-4.96-4.04-9-9-9h-47.37c-4.96 0-9 4.04-9 9v34.07c0 4.96 4.04 9 9 9h47.37c4.96 0 9-4.04 9-9zm-8 0c0 .55-.45 1-1 1h-47.37c-.55 0-1-.45-1-1v-34.07c0-.55.45-1 1-1h47.37c.55 0 1 .45 1 1z"/><path d="m122.438 118.314h25.28c5.285 0 5.293-8 0-8h-25.28c-5.285 0-5.293 8 0 8z"/><path d="m156.898 123.804h-34.46c-5.285 0-5.293 8 0 8h34.46c5.285 0 5.293-8 0-8z"/><path d="m158.308 164.424h-20c-5.285 0-5.293 8 0 8h20c5.285 0 5.293-8 0-8z"/><path d="m175.188 164.424h-1.88c-5.285 0-5.293 8 0 8h1.88c5.285 0 5.293-8 0-8z"/></g></svg>