<svg id="Icon_Set" enable-background="new 0 0 256 256" height="512" viewBox="0 0 256 256" width="512" xmlns="http://www.w3.org/2000/svg"><path id="XMLID_30_" d="m33.008 125.773 15.931-22.273c.607-.849.933-1.862.933-2.906-.001-3.809-.002-13.087-.002-12.993 0-45.118 36.089-82.516 81.206-82.849 62.885-.464 102.482 67.35 72.086 121.555-8.35 14.891-26.388 50.219-26.388 67.684 0 11.529 3.645 23.162 10.981 32.942l12.238 16.317c2.472 3.296.12 8-4 8h-87.303c-2.761 0-5-2.24-5-5.002 0-21.067.004-40.375.004-40.246.001-2.762-2.238-5.002-5-5.002h-17.178c-16.378 0-30.854-39.697-31.643-65.18h-11.699c-5.168 0-8.173-5.843-5.166-10.047z" fill="#5fcdff"/><path d="m118.687 246.25c0-21 .01-40.25.01-40.25 0-2.76-2.24-5-5-5h-15c2.76 0 5 2.24 5 5 0 0-.01 19.25-.01 40.25 0 2.76 2.24 5 5 5h15c-2.761 0-5-2.24-5-5z" fill="#73d7f9"/><path d="m64.877 135.82h-11.7c-5.17 0-8.18-5.84-5.17-10.05l15.93-22.27c.61-.85.94-1.86.94-2.91 0-3.78-.01-12.99-.01-12.99 0-42.82 32.51-78.69 74.4-82.51-2.68-.25-5.41-.36-8.19-.34-45.12.34-81.21 37.73-81.21 82.85 0 0 .01 9.21.01 12.99 0 1.05-.33 2.06-.94 2.91l-15.93 22.27c-3.01 4.21 0 10.05 5.17 10.05h11.7c.78 25.48 15.26 65.18 31.64 65.18h15c-16.38 0-30.86-39.7-31.64-65.18z" fill="#73d7f9"/><path d="m203.167 126.31c-8.35 14.89-26.39 50.22-26.39 67.68 0 11.53 3.64 23.16 10.98 32.94l12.24 16.32c2.47 3.3.12 8-4 8h-15c4.12 0 6.47-4.7 4-8l-12.24-16.32c-7.34-9.78-10.98-21.41-10.98-32.94 0-17.46 18.04-52.79 26.39-67.68 29.05-51.82-5.85-116.06-63.9-121.22 2.24-.21 4.51-.32 6.81-.34 62.88-.46 102.48 67.35 72.09 121.56z" fill="#30b6ff"/><path d="m137.498 36.846 8.103 16.418c.728 1.476 2.136 2.499 3.765 2.735l18.119 2.633c4.101.596 5.739 5.636 2.771 8.528l-13.111 12.78c-1.178 1.149-1.716 2.804-1.438 4.426l3.095 18.045c.701 4.085-3.587 7.199-7.255 5.271l-16.206-8.52c-1.457-.766-3.197-.766-4.653 0l-16.206 8.52c-3.668 1.928-7.955-1.186-7.255-5.271l3.095-18.045c.278-1.622-.26-3.277-1.438-4.426l-13.111-12.78c-2.968-2.893-1.33-7.933 2.771-8.528l18.119-2.633c1.629-.237 3.036-1.259 3.765-2.735l8.103-16.418c1.834-3.716 7.133-3.716 8.967 0z" fill="#f9d335"/><circle cx="191.199" cy="191.499" fill="#44c7b6" r="33"/><path d="m157.142 79.939c-1.18 1.15-1.71 2.8-1.43 4.43l3.09 18.04c.7 4.09-3.59 7.2-7.25 5.27l-7.69-4.04c.03-.4.01-.81-.06-1.23l-3.09-18.04c-.28-1.63.25-3.28 1.43-4.43l13.11-12.78c2.97-2.89 1.33-7.93-2.77-8.53l-18.12-2.63c-1.62-.24-3.03-1.26-3.76-2.74l-5.08-10.3 3.01-6.11c1.83-3.72 7.13-3.72 8.97 0l8.1 16.41c.73 1.48 2.14 2.5 3.76 2.74l18.12 2.63c4.1.6 5.74 5.64 2.77 8.53z" fill="#f2c300"/><path d="m140.522 42.959-5.09 10.3c-.73 1.48-2.14 2.5-3.77 2.74l-18.12 2.63c-4.1.6-5.74 5.64-2.77 8.53l13.11 12.78c1.18 1.15 1.72 2.8 1.44 4.43l-3.09 18.04c-.07.42-.09.84-.06 1.23l-7.69 4.04c-3.67 1.93-7.95-1.18-7.25-5.27l3.09-18.04c.28-1.63-.26-3.28-1.44-4.43l-13.11-12.78c-2.97-2.89-1.33-7.93 2.77-8.53l18.12-2.63c1.63-.24 3.04-1.26 3.77-2.74l8.1-16.41c1.83-3.72 7.13-3.72 8.97 0z" fill="#f9e27d"/><path d="m224.202 191.499c0 18.23-14.78 33-33 33-2.58 0-5.09-.3-7.5-.85 14.61-3.4 25.5-16.5 25.5-32.15s-10.89-28.75-25.5-32.15c2.41-.55 4.92-.85 7.5-.85 18.219 0 33 14.771 33 33z" fill="#3bb2a0"/><path d="m198.702 223.649c-2.41.55-4.92.85-7.5.85-18.23 0-33-14.77-33-33s14.77-33 33-33c2.58 0 5.09.3 7.5.85-14.61 3.4-25.5 16.5-25.5 32.15s10.89 28.75 25.5 32.15z" fill="#4bdbc3"/><g fill="#5f266d"><path d="m174.36 137c-2.026-.885-4.384.041-5.266 2.066l-2.108 4.834c-2.121 4.862 5.225 8.035 7.332 3.199l2.108-4.834c.884-2.024-.042-4.382-2.066-5.265z"/><path d="m182.423 128.515 6.396-14.666c.883-2.024-.043-4.382-2.068-5.266-2.024-.881-4.383.042-5.266 2.068l-6.396 14.666c-2.128 4.882 5.231 8.022 7.334 3.198z"/><path d="m162.746 101.736-3.096-18.042c-.056-.326.052-.657.288-.888l13.11-12.78c5.34-5.203 2.389-14.279-4.987-15.351l-18.12-2.634c-.325-.047-.606-.251-.752-.547l-8.103-16.418c-3.302-6.688-12.842-6.683-16.142 0l-8.103 16.418c-.146.296-.427.5-.753.548l-18.118 2.633c-7.378 1.072-10.326 10.149-4.987 15.351l13.111 12.781c.235.229.343.56.287.884l-3.096 18.046c-1.26 7.351 6.46 12.955 13.059 9.487l16.205-8.52c.292-.153.64-.154.932-.001l16.206 8.521c3.056 1.605 6.684 1.343 9.479-.686 2.791-2.027 4.163-5.4 3.58-8.802zm-9.336 2.408-16.206-8.521c-1.311-.689-2.749-1.034-4.188-1.034s-2.877.345-4.188 1.034l-16.206 8.52c-.746.391-1.591-.238-1.451-1.054l3.096-18.045c.501-2.921-.467-5.899-2.589-7.967l-13.11-12.78c-.6-.584-.271-1.586.554-1.706l18.118-2.632c2.932-.426 5.465-2.267 6.777-4.924l8.103-16.418c.371-.751 1.423-.751 1.794 0l8.103 16.418c1.313 2.657 3.846 4.498 6.776 4.923l18.119 2.633c.825.121 1.153 1.122.554 1.706l-13.109 12.779c-2.121 2.066-3.09 5.044-2.59 7.968l3.096 18.044c.139.821-.709 1.443-1.453 1.056z"/><path d="m228.201 191.5c0-19.705-15.484-35.857-34.923-36.938 5.484-11.952 11.024-22.104 13.373-26.295 31.765-56.666-9.21-127.816-75.61-127.517-46.969.354-85.181 39.315-85.181 86.856 0 0 .011 9.206.011 12.984 0 .487-15.822 22.433-16.124 22.854-4.896 6.847.003 16.376 8.424 16.376h7.92c1.982 24.916 15.683 65.18 35.419 65.18h17.18c.552 0 1 .448 1 .998 0 0-.01 19.251-.01 40.252 0 4.963 4.037 9 9 9h87.311c7.409 0 11.644-8.461 7.2-14.4l-9.342-12.455c19.17-1.363 34.352-17.384 34.352-36.895zm-32.21 55.75h-87.311c-.552 0-1-.448-1-1 0-20.999.01-40.248.01-40.25 0-4.963-4.037-9-9-9h-17.18c-12.44 0-26.867-35.979-27.642-61.302-.066-2.161-1.837-3.878-3.998-3.878h-11.7c-1.92 0-3.034-2.159-1.917-3.723 17.308-24.196 17.617-23.675 17.617-27.508 0-3.779-.011-12.989-.011-12.989 0-43.157 34.65-78.53 77.24-78.851 59.384-.585 97.636 63.757 68.571 115.605-2.653 4.735-9.292 16.915-15.442 30.813-17.08 3.271-30.029 18.313-30.029 36.332 0 17.704 12.5 32.535 29.137 36.151.841 1.209-.094-.061 13.451 17.996.504.674.029 1.604-.796 1.604zm-4.79-26.75c-15.99 0-29-13.01-29-29s13.01-29 29-29 29 13.01 29 29-13.01 29-29 29z"/><path d="m202.904 177.391-19.94 19.507-5.971-6.994c-1.434-1.68-3.959-1.881-5.639-.445-1.681 1.434-1.88 3.959-.445 5.639l8.75 10.25c1.505 1.765 4.186 1.879 5.839.263l23-22.5c1.579-1.545 1.607-4.077.063-5.656s-4.078-1.609-5.657-.064z"/></g></svg>