<svg id="Icon_Set" enable-background="new 0 0 256 256" height="512" viewBox="0 0 256 256" width="512" xmlns="http://www.w3.org/2000/svg"><path d="m183.131 87.258c-30.444 0-55.131 11.378-55.131 25.437 0-14.058-24.686-25.437-55.131-25.437s-55.131 11.378-55.131 25.437v136.846.98h.046 110.169.092 110.169.046v-.98-136.847c.001-14.058-24.685-25.436-55.129-25.436z" fill="#ffe2e2"/><path d="m216.548 193.605h-54.318c-1.105 0-2-.895-2-2v-54.318h54.318c1.105 0 2 .895 2 2z" fill="#f9d335"/><path d="m160.23 64.674c0-18.555-15.679-33.447-34.51-32.152-16.036 1.103-28.968 14.194-29.895 30.241-.4 6.932 1.394 13.419 4.75 18.839 3.243 5.238 4.968 11.271 4.968 17.432v18.453h43.317v-15.993c0-6.582 1.881-13.068 5.635-18.474 3.615-5.206 5.735-11.527 5.735-18.346z" fill="#f9d335"/><path d="m130.942 146.352h-7.524c-9.872 0-17.875-8.003-17.875-17.875v-10.989h43.274v10.989c0 9.872-8.003 17.875-17.875 17.875z" fill="#87828e"/><path d="m238.26 112.693v137.83h-15v-137.83c0-12.88-20.73-23.52-47.63-25.21 2.45-.15 4.96-.23 7.5-.23 30.44 0 55.13 11.38 55.13 25.44z" fill="#ffcfcf"/><path d="m80.37 87.483c-26.9 1.69-47.63 12.33-47.63 25.21v137.83h-15v-137.83c0-14.06 24.69-25.44 55.13-25.44 2.54 0 5.05.08 7.5.23z" fill="#ffefee"/><path d="m238.261 249.541c0 .322-.015.658-.046.98h-110.169c-.031-.322-.046-.658-.046-.98 0-14.043 24.686-25.437 55.131-25.437s55.13 11.394 55.13 25.437z" fill="#ffe2e2"/><path d="m128 249.541c0 .322-.015.658-.046.98h-110.169c-.031-.322-.046-.658-.046-.98 0-14.043 24.686-25.437 55.131-25.437s55.13 11.394 55.13 25.437z" fill="#ffe2e2"/><path d="m238.26 249.543c0 .32-.01.66-.04.98h-15c.03-.32.04-.66.04-.98 0-12.88-20.73-23.52-47.63-25.21 2.45-.15 4.96-.23 7.5-.23 30.44 0 55.13 11.39 55.13 25.44z" fill="#ffcfcf"/><path d="m143 249.543c0 .32.02.66.05.98h-15c-.03-.32-.05-.66-.05-.98 0-14.05 24.69-25.44 55.13-25.44 2.54 0 5.05.08 7.5.23-26.9 1.69-47.63 12.33-47.63 25.21z" fill="#ffefee"/><path d="m128 249.543c0 .32-.02.66-.05.98h-15c.03-.32.05-.66.05-.98 0-12.88-20.73-23.52-47.63-25.21 2.45-.15 4.96-.23 7.5-.23 30.44 0 55.13 11.39 55.13 25.44z" fill="#ffcfcf"/><path d="m32.74 249.543c0 .32.01.66.04.98h-15c-.03-.32-.04-.66-.04-.98 0-14.05 24.69-25.44 55.13-25.44 2.54 0 5.05.08 7.5.23-26.9 1.69-47.63 12.33-47.63 25.21z" fill="#ffefee"/><path d="m216.55 139.283v54.32h-15v-54.32c0-1.1-.9-2-2-2h15c1.1 0 2 .9 2 2z" fill="#f2c300"/><path d="m177.23 193.603h-15c-1.1 0-2-.89-2-2v-54.32h15v54.32c0 1.11.9 2 2 2z" fill="#f9e27d"/><path d="m199.741 108.275c.913-1.581 3.194-1.581 4.107 0l10.482 18.156 10.482 18.156c.913 1.581-.228 3.557-2.054 3.557h-20.965-20.963c-1.825 0-2.966-1.976-2.054-3.557l10.482-18.156z" fill="#ff4a73"/><circle cx="168.178" cy="189.534" fill="#3193f3" r="23.409"/><path d="m148.82 117.483v10.99c0 9.88-8.01 17.88-17.88 17.88h-7.52c-1.28 0-2.54-.14-3.74-.39 8.08-1.72 14.14-8.89 14.14-17.49v-10.99z" fill="#796e84"/><path d="m134.68 145.963c-1.2.25-2.46.39-3.74.39h-7.52c-9.87 0-17.88-8-17.88-17.88v-10.99h15v10.99c0 8.6 6.06 15.77 14.14 17.49z" fill="#a4a4a5"/><path d="m160.23 64.673c0 6.82-2.12 13.14-5.73 18.35-3.76 5.4-5.64 11.89-5.64 18.47v15.99h-15v-15.99c0-6.58 1.88-13.07 5.64-18.47 3.61-5.21 5.73-11.53 5.73-18.35 0-15.21-10.54-27.96-24.71-31.34 1.68-.42 3.42-.69 5.2-.81 18.83-1.3 34.51 13.6 34.51 32.15z" fill="#f2c300"/><path d="m115.58 81.603c3.24 5.24 4.96 11.27 4.96 17.43v18.45h-15v-18.45c0-6.16-1.72-12.19-4.96-17.43-3.36-5.42-5.16-11.91-4.75-18.84.92-16.05 13.85-29.14 29.89-30.24 3.39-.23 6.68.06 9.8.81-13.56 3.23-23.87 15.16-24.69 29.43-.41 6.93 1.39 13.42 4.75 18.84z" fill="#f9e27d"/><path d="m105.543 109.267h43.317v18.453h-43.317z" fill="#87828e"/><path d="m133.86 109.263h15v18.46h-15z" fill="#796e84"/><path d="m105.54 109.263h15v18.46h-15z" fill="#a4a4a5"/><path d="m222.76 148.143h-15c1.82 0 2.97-1.98 2.05-3.56l-10.48-18.15-5.03-8.72 5.44-9.44c.91-1.58 3.2-1.58 4.11 0l10.48 18.16 10.48 18.15c.92 1.58-.23 3.56-2.05 3.56z" fill="#ea2a6a"/><path d="m193.78 144.583c-.92 1.58.22 3.56 2.05 3.56h-15c-1.83 0-2.97-1.98-2.05-3.56l10.48-18.15 10.48-18.16c.91-1.58 3.2-1.58 4.11 0l5.45 9.44-5.04 8.72z" fill="#f973a3"/><path d="m191.59 189.533c0 12.93-10.48 23.41-23.41 23.41-2.62 0-5.15-.43-7.5-1.23 9.25-3.13 15.91-11.87 15.91-22.18s-6.66-19.05-15.91-22.18c2.35-.8 4.88-1.23 7.5-1.23 12.93 0 23.41 10.48 23.41 23.41z" fill="#307fed"/><path d="m175.68 211.713c-2.35.8-4.88 1.23-7.5 1.23-12.93 0-23.41-10.48-23.41-23.41s10.48-23.41 23.41-23.41c2.62 0 5.15.43 7.5 1.23-9.25 3.13-15.91 11.87-15.91 22.18s6.66 19.05 15.91 22.18z" fill="#35b1fc"/><g fill="#5f266d"><path d="m183.13 83.253c-9.35 0-18.12 1.03-25.91 2.88 4.319-6.367 7.01-12.866 7.01-21.46 0-20.582-17.345-37.615-38.78-36.14-18.12 1.24-32.57 15.86-33.62 34-.733 12.792 5.07 20.37 6.65 23.53-7.71-1.81-16.38-2.81-25.61-2.81-33.16 0-59.13 12.93-59.13 29.44v137.83c0 2.243 1.898 4 4.05 4h220.42c2.109 0 4.05-1.662 4.05-4v-137.83c0-16.51-25.97-29.44-59.13-29.44zm-110.26 8c10.83 0 20.47 1.46 28.39 3.8h.01c.35 2.571.27.919.27 33.42 0 11.438 8.977 21.88 22.46 21.88v84.19c-10.16-8.71-29.05-14.44-51.13-14.44s-40.97 5.73-51.13 14.44v-121.85c0-10.14 21-21.44 51.13-21.44zm31.11-11.76c-3.06-4.94-4.5-10.64-4.16-16.5.81-14.13 12.07-25.51 26.17-26.48 16.508-1.143 30.24 11.865 30.24 28.16 0 5.78-1.74 11.34-5.02 16.07-3.595 5.187-5.75 11.255-6.26 18.05-.113 1.677-.09 2.47-.09 6.47-4.06 0-31.245 0-35.32 0 0-.554.006-6.656-.01-7.18-.165-6.299-1.962-12.806-5.55-18.59zm130.28 155.05c-10.16-8.71-29.05-14.44-51.13-14.44s-40.97 5.73-51.13 14.44v-84.22c11.57-.55 20.82-10.14 20.82-21.85 0-30.092-.08-29.558.65-33.03 8.14-2.57 18.24-4.19 29.66-4.19 30.13 0 51.13 11.3 51.13 21.44zm-89.4-121.28v.22c0 6.922-.04 9.491-.04 10.24-19.678 0-15.354 0-35.28 0 0-2.284 0-7.975 0-10.24v-.22zm-20.86 18.46h8 12.43c-1.46 6.095-6.96 10.63-13.49 10.63h-6.94c-7.503 0-12.649-4.741-14.07-10.63zm109.66 114.8h-101.06c3.63-9.24 23.37-18.42 50.53-18.42s46.9 9.18 50.53 18.42zm-211.32 0c3.63-9.24 23.37-18.42 50.53-18.42s46.9 9.18 50.53 18.42z"/><path d="m55.05 129.923h35.08c5.284 0 5.295-8 0-8h-35.08c-5.285 0-5.293 8 0 8z"/><path d="m41.13 153.873h62.92c5.285 0 5.293-8 0-8h-62.92c-5.284 0-5.295 8 0 8z"/><path d="m104.05 169.823h-62.92c-5.306 0-5.273 8 0 8h62.92c5.281 0 5.294-8 0-8z"/><path d="m104.05 193.763h-62.92c-5.284 0-5.295 8 0 8h62.92c5.285 0 5.293-8 0-8z"/><path d="m207.31 106.273c-2.473-4.289-8.647-4.169-11.03 0l-15.6 27.01h-20.45c-2.21 0-4 1.79-4 4v27.59c-9.14 4.44-15.46 13.83-15.46 24.66 0 15.11 12.29 27.41 27.41 27.41 12.3 0 22.74-8.15 26.2-19.34h22.17c2.21 0 4-1.79 4-4v-41.46h2.21c4.891 0 7.964-5.299 5.52-9.56zm-23.66 37.87s6.225-10.783 18.14-31.43c14.75 25.54 10.326 17.879 18.15 31.43-17.667 0-20.208 0-36.29 0zm-15.47 64.8c-10.7 0-19.41-8.71-19.41-19.41 0-10.752 8.766-19.41 19.41-19.41 10.7 0 19.41 8.71 19.41 19.41v.07c-.037 10.579-8.668 19.34-19.41 19.34zm44.37-19.34h-16.96v-.07c0-16.711-14.908-29.545-31.36-27.12v-21.13h11.83c-3.883 6.73.712 10.86 4.77 10.86h31.72z"/><path d="m66.82 106.753h.15c.55 0 1.1 0 1.66.01h.09c5.211 0 5.33-7.881.07-8-.61-.01-1.22-.01-1.82-.01h-.15c-5.285 0-5.293 8 0 8z"/><path d="m37.5 115.683c.04-.05 4.18-5 15.31-7.5 5.18-1.157 3.383-8.97-1.75-7.8-13.97 3.13-19.31 9.65-19.87 10.38-3.303 4.283 3.176 9.017 6.31 4.92z"/><path d="m132 17.267v-11.824c0-5.285-8-5.292-8 0v11.823c0 5.285 8 5.293 8 .001z"/><path d="m146.648 25.891 8.359-8.36c3.738-3.737-1.916-9.401-5.656-5.656l-8.359 8.36c-3.808 3.807 1.998 9.319 5.656 5.656z"/><path d="m109.352 25.891c3.704 3.709 9.447-1.867 5.656-5.656l-8.359-8.36c-3.734-3.739-9.399 1.914-5.656 5.656z"/><path d="m119.26 75.263 7.7 1.01-8.48 8.75c-4.179 4.323 2.306 10.62 6.5 6.31l14.75-15.22c2.575-2.67 1.021-7.164-2.67-7.66l-7.8-1.02 6.25-6.59c4.115-4.33-2.446-10.579-6.58-6.23l-12.36 13.04-.04.04c-2.579 2.939-.729 7.146 2.73 7.57z"/></g></svg>