<svg id="Icon_Set" enable-background="new 0 0 256 256" height="512" viewBox="0 0 256 256" width="512" xmlns="http://www.w3.org/2000/svg"><path d="m12.312 5.67h231.377c2.761 0 5 2.239 5 5v138.942c0 2.761-2.239 5-5 5h-231.377c-2.761 0-5-2.239-5-5v-138.942c0-2.761 2.238-5 5-5z" fill="#ffe2e2"/><path d="m248.69 10.667v138.94c0 2.77-2.24 5-5 5h-15c2.76 0 5-2.23 5-5v-138.94c0-2.76-2.24-5-5-5h15c2.76 0 5 2.24 5 5z" fill="#ffcfcf"/><path d="m27.31 154.607h-15c-2.76 0-5-2.23-5-5v-138.94c0-2.76 2.24-5 5-5h15c-2.76 0-5 2.24-5 5v138.94c0 2.77 2.24 5 5 5z" fill="#ffefee"/><path d="m108.61 158.98v27.17c0 3.19-2.22 5.77-4.98 5.77h-70.25c-2.75 0-4.98-2.58-4.98-5.77v-27.17c0-12.64 4.34-24.1 11.41-32.47 3.18-3.81 6.68-6.81 10.36-9.03 11.77-7.12 25.42-6.42 36.57.13 12.51 7.34 21.87 22.06 21.87 41.37z" fill="#5fcdff"/><path d="m233.5 191.665h-86.5v-54.5c0-5.523 4.477-10 10-10h66.5c5.523 0 10 4.477 10 10z" fill="#87828e"/><circle cx="181.861" cy="39.165" fill="#ff4a73" r="16.667"/><circle cx="151.194" cy="82.082" fill="#ff4a73" r="11.25"/><circle cx="212.528" cy="82.082" fill="#ff4a73" r="11.25"/><path d="m197.882 146.196h-15.264l-7.632 13.219 7.632 13.22h15.264l7.632-13.22z" fill="#73d7f9"/><path d="m75.65 113.24c-3.58.8-7.11 2.2-10.48 4.24-3.68 2.22-7.18 5.22-10.36 9.03-7.07 8.37-11.41 19.83-11.41 32.47v27.17c0 3.19 2.23 5.77 4.98 5.77h-15c-2.75 0-4.98-2.58-4.98-5.77v-27.17c0-12.64 4.34-24.1 11.41-32.47 3.18-3.81 6.68-6.81 10.36-9.03 8.08-4.89 17.04-6.09 25.48-4.24z" fill="#73d7f9"/><path d="m78.782 147.402-10.281 25.263-10.281-25.263 10.281-20.281z" fill="#3193f3"/><path d="m108.61 158.98v27.17c0 3.19-2.22 5.77-4.98 5.77h-15c2.76 0 4.98-2.58 4.98-5.77v-27.17c0-19.31-9.36-34.03-21.87-41.37-3.49-2.05-7.24-3.53-11.09-4.37 8.91-2 18.14-.3 26.09 4.37 12.51 7.34 21.87 22.06 21.87 41.37z" fill="#30b6ff"/><path d="m90.34 135.17-21.81-8h-.05l-21.81 8 2.83-14.5.67-3.19c11.77-7.12 25.42-6.42 36.57.13l.77 3.06z" fill="#3193f3"/><path d="m93.425 92.566c-2.298-11.666-12.579-20.459-24.925-20.459-18.731 0-30.591 19.418-23.194 35.773-.009.009 0 .018.009.028 3.964 8.857 12.858 15.026 23.185 15.026 16.87 0 28.083-15.834 24.925-30.368z" fill="#ffbb98"/><path d="m76.03 121.81c-2.34.73-4.87 1.12-7.53 1.12-10.33 0-19.22-6.16-23.18-15.02-.01-.01-.02-.02-.01-.03-7.4-16.35 4.46-35.77 23.19-35.77 2.6 0 5.11.39 7.47 1.12-14.18 4.33-22.01 20.62-15.66 34.65-.01.01 0 .02.01.03 2.96 6.63 8.69 11.75 15.71 13.9z" fill="#ffcaa6"/><path d="m68.5 122.93c-2.6 0-5.11-.39-7.47-1.12 12.52-3.85 20.05-17 17.39-29.24-1.81-9.21-8.6-16.63-17.45-19.34 2.35-.73 4.87-1.12 7.53-1.12 12.35 0 22.63 8.79 24.92 20.46 3.16 14.53-8.05 30.36-24.92 30.36z" fill="#ffaa80"/><path d="m34.845 90.84v3.215h6.351c8.391 0 10.994-7.289 14.28-13.545 3.124 5.93 5.822 13.545 14.29 13.545h32.401v-3.215c0-30.079-36.45-44.806-57.462-23.796-6.096 6.087-9.86 14.496-9.86 23.796z" fill="#87828e"/><path d="m102.17 90.84v3.22h-15v-3.22c0-17.34-12.11-29.58-26.4-32.81 19.6-4.53 41.4 9.55 41.4 32.81z" fill="#796e84"/><path d="m75.77 58.03c-5.75 1.32-11.3 4.25-16.07 9.01-5.93 5.93-9.66 14.06-9.85 23.07-2.06 2.35-4.71 3.95-8.65 3.95h-6.36v-3.22c0-9.3 3.77-17.71 9.86-23.8 8.9-8.9 20.57-11.39 31.07-9.01z" fill="#a4a4a5"/><path d="m233.5 137.17v54.5h-15v-54.5c0-5.53-4.48-10-10-10h15c5.52 0 10 4.47 10 10z" fill="#796e84"/><path d="m21.167 208.665h213.667v41.667h-213.667z" fill="#b76c6c"/><path d="m21.17 208.67h15v41.66h-15z" fill="#c98585"/><path d="m219.83 208.67h15v41.66h-15z" fill="#965959"/><path d="m12.312 191.668h231.377c2.761 0 5 2.239 5 5v20.331c0 2.761-2.239 5-5 5h-231.377c-2.761 0-5-2.239-5-5v-20.331c0-2.762 2.238-5 5-5z" fill="#b76c6c"/><path d="m27.31 222h-15c-2.76 0-5-2.24-5-5v-20.33c0-2.76 2.24-5 5-5h15c-2.76 0-5 2.24-5 5v20.33c0 2.76 2.24 5 5 5z" fill="#c98585"/><path d="m248.69 196.67v20.33c0 2.76-2.24 5-5 5h-15c2.76 0 5-2.24 5-5v-20.33c0-2.76-2.24-5-5-5h15c2.76 0 5 2.24 5 5z" fill="#965959"/><path d="m172 127.17c-5.52 0-10 4.47-10 10v54.5h-15v-54.5c0-5.53 4.48-10 10-10z" fill="#a4a4a5"/><g fill="#5f266d"><path d="m243.69 158.61c4.962 0 9-4.037 9-9v-138.94c0-4.963-4.038-9-9-9h-231.38c-4.962 0-9 4.037-9 9v138.94c0 4.963 4.038 9 9 9h12.097c-.001.124-.008.247-.008.37v27.17c0 .518.048 1.021.12 1.518h-12.207c-4.962 0-9 4.037-9 9v20.331c0 4.963 4.038 9 9 9h4.858v19.331c0 4.963 4.038 9 9 9h203.66c4.962 0 9-4.037 9-9v-19.331h4.858c4.962 0 9-4.037 9-9v-20.331c0-4.963-4.038-9-9-9h-6.188v-29.058zm-232.38-9v-138.94c0-.552.449-1 1-1h231.38c.551 0 1 .448 1 1v138.94c0 .552-.449 1-1 1h-6.19v-13.445c0-7.72-6.28-14-14-14h-66.5c-7.72 0-14 6.28-14 14v13.445h-30.993c-2.154-14.842-9.888-27.321-20.529-34.747 4.238-5.311 6.304-11.511 6.433-17.808h4.256c2.209 0 4-1.791 4-4v-3.215c0-33.836-40.844-50.065-64.288-26.628-7.115 7.104-11.034 16.562-11.034 26.628v3.215c0 2.209 1.791 4 4 4h4.241c.083 6.112 2.178 12.449 6.445 17.804-11.285 7.934-18.472 20.751-20.515 34.751h-12.706c-.551 0-1-.448-1-1zm139.69-12.445c0-3.309 2.691-6 6-6h66.5c3.309 0 6 2.691 6 6v50.5h-78.5zm-65.945-8.199-8.567-3.142c2.574-.725 5.039-1.8 7.329-3.196zm-15.29-38.91c-5.925 0-7.786-5.782-10.75-11.409-1.5-2.847-5.586-2.841-7.08.004-4.83 9.194-4.93 11.405-13.08 11.405.197-7.633 3.26-14.773 8.678-20.183 18.281-18.28 49.956-5.925 50.624 20.183zm-22.662 6.806c3.479-1.444 6.463-4.134 8.356-7.719l.021-.041.025.049c1.416 2.68 3.471 4.919 5.936 6.471 4.903 3.102 6.993 2.434 28.469 2.434-.53 18.352-22.022 27.343-35.471 15.61-5.016-4.378-7.605-10.855-7.336-16.804zm6.09 25.767c2.289 1.396 4.754 2.471 7.327 3.196l-8.566 3.141zm15.308 13.339 5.888 11.615-5.888 14.47-5.888-14.47zm-36.101 50.182c0-29.709-.056-28.54.167-31.222.797-9.981 4.646-19.732 11.474-27.18-1.3 6.651-2.207 8.551.031 10.459 2.312 1.975 3.48.894 16.244-3.787l-5.663 11.171c-.524 1.033-.574 2.243-.137 3.316l10.281 25.264c1.349 3.314 6.061 3.316 7.41 0l10.281-25.264c.437-1.073.387-2.283-.137-3.316l-5.665-11.175c12.735 4.67 13.943 5.764 16.253 3.791 2.294-1.956 1.289-4.023.03-10.464 7.263 7.901 11.642 18.934 11.642 31.236v27.17c0 .688-.248 1.224-.528 1.518h-71.145c-.278-.288-.538-.813-.538-1.517zm198.43 59.18c0 .552-.449 1-1 1h-203.66c-.551 0-1-.448-1-1v-19.331h205.66zm13.858-48.662v20.331c0 .552-.449 1-1 1h-231.376c-.551 0-1-.448-1-1v-20.331c0-.552.449-1 1-1h231.377c.551 0 .999.448.999 1zm-132.198-9c.072-.496.12-1 .12-1.518v-27.17c0-.122-.007-.248-.007-.37h30.397v29.058z"/><path d="m151.194 97.332c8.409 0 15.25-6.841 15.25-15.25 0-3.985-1.549-7.606-4.06-10.325l10.419-14.044c5.759 2.825 12.349 2.828 18.114 0l10.419 14.044c-9.015 9.761-2.043 25.575 11.19 25.575 8.409 0 15.25-6.841 15.25-15.25s-6.841-15.25-15.25-15.25c-1.529 0-3.004.232-4.398.653l-10.843-14.614c11.82-13.29 2.354-34.372-15.426-34.372-17.784 0-27.244 21.086-15.426 34.371l-10.843 14.615c-9.812-2.963-19.648 4.437-19.648 14.597.002 8.409 6.844 15.25 15.252 15.25zm68.584-15.25c0 3.998-3.252 7.25-7.25 7.25s-7.25-3.252-7.25-7.25 3.252-7.25 7.25-7.25 7.25 3.252 7.25 7.25zm-37.917-55.583c6.984 0 12.667 5.682 12.667 12.666s-5.682 12.667-12.667 12.667-12.667-5.683-12.667-12.667 5.683-12.666 12.667-12.666zm-30.667 48.333c3.998 0 7.25 3.252 7.25 7.25s-3.252 7.25-7.25 7.25-7.25-3.252-7.25-7.25 3.253-7.25 7.25-7.25z"/><path d="m58.667 32.415h4.083c2.209 0 4-1.791 4-4s-1.791-4-4-4h-4.083c-2.209 0-4 1.791-4 4s1.791 4 4 4z"/><path d="m29.667 32.415h14c2.209 0 4-1.791 4-4s-1.791-4-4-4h-14c-2.209 0-4 1.791-4 4s1.791 4 4 4z"/><path d="m201.346 144.196c-.714-1.237-2.035-2-3.464-2h-15.265c-1.429 0-2.75.763-3.464 2l-7.632 13.219c-.715 1.237-.715 2.763 0 4l7.632 13.22c.715 1.237 2.035 2 3.464 2h15.265c1.429 0 2.75-.763 3.464-2l7.632-13.22c.714-1.237.714-2.763 0-4zm-5.773 24.439h-10.646l-5.323-9.22 5.323-9.219h10.646l5.323 9.219z"/></g></svg>