<svg id="Icon_Set" enable-background="new 0 0 256 256" height="512" viewBox="0 0 256 256" width="512" xmlns="http://www.w3.org/2000/svg"><path d="m188.19 85.332-61.19-52.678-59.19 52.678s-39.091 36.586-10.104 68.122c3.463 3.768 8.387 5.866 13.505 5.866h113.578c5.118 0 10.041-2.098 13.505-5.866 28.986-31.536-10.104-68.122-10.104-68.122z" fill="#b76c6c"/><path d="m86.21 159.317h-15c-5.12 0-10.04-2.09-13.5-5.86-28.99-31.54 10.1-68.12 10.1-68.12l.02-.01 6.25-5.57c2.35 3.37 5.4 5.45 8.75 5.57l-.02.01s-39.09 36.58-10.1 68.12c3.46 3.77 8.38 5.86 13.5 5.86z" fill="#c98585"/><path d="m198.29 153.457c-3.46 3.771-8.38 5.86-13.5 5.86h-15c5.12 0 10.04-2.09 13.5-5.86 28.99-31.54-10.1-68.12-10.1-68.12l-53.57-46.12 7.38-6.56 61.19 52.68s39.09 36.58 10.1 68.12z" fill="#965959"/><path d="m201.433 198.424v42.389c0 5.292-4.299 9.59-9.59 9.59h-127.686c-5.292 0-9.59-4.299-9.59-9.59v-42.389c0-27.63 15.363-52.184 38.891-64.785 1.399-.745 2.809-1.444 4.265-2.087 2.551-1.15 5.062-2.145 7.774-3.012.35-.124.711-.237 1.072-.35 6.77-2.076 13.957-3.182 21.426-3.182 7.458 0 14.645 1.106 21.426 3.182 1.049.327 2.099.677 3.137 1.061 1.889.664 3.888 1.482 5.732 2.302 26.226 11.945 43.143 37.906 43.143 66.871z" fill="#ffe2e2"/><path d="m135.49 125.387c-35.367 3.537-65.92 33.698-65.92 73.04v42.39c0 5.29 4.3 9.59 9.59 9.59h-15c-5.29 0-9.59-4.3-9.59-9.59v-42.39c0-27.63 15.36-52.19 38.89-64.79 10.777-5.695 22.29-8.63 34.53-8.63 2.53 0 5.03.13 7.5.38z" fill="#ffefee"/><path d="m201.43 198.427v42.39c0 5.29-4.3 9.59-9.59 9.59h-15c5.29 0 9.59-4.3 9.59-9.59v-42.39c0-38.722-29.731-69.419-65.94-73.04 2.47-.25 4.97-.38 7.5-.38 40.378 0 73.44 32.737 73.44 73.42z" fill="#ffcfcf"/><path d="m161.501 133.902-3.168-14.249h-61.833l-2.001 14.249-4.995 25.562 38.46-14.103h.072l38.46 14.103z" fill="#ffcfcf"/><circle cx="127.999" cy="92.201" fill="#ffbb98" r="50.413"/><path d="m135.5 142.067c-2.45.36-4.95.55-7.5.55-27.84 0-50.41-22.57-50.41-50.42 0-27.84 22.57-50.41 50.41-50.41 2.55 0 5.05.19 7.5.55-24.28 3.63-42.91 24.57-42.91 49.86 0 25.3 18.63 46.24 42.91 49.87z" fill="#ffcaa6"/><path d="m178.41 92.197c0 27.85-22.57 50.42-50.41 50.42-2.55 0-5.05-.19-7.5-.55 24.28-3.63 42.91-24.57 42.91-49.87 0-25.29-18.63-46.23-42.91-49.86 2.45-.36 4.95-.55 7.5-.55 27.84 0 50.41 22.57 50.41 50.41z" fill="#ffaa80"/><path d="m182.144 31.748c-12.093-12.094-28.775-19.56-47.227-19.56-10.897 0-21.177 2.628-30.265 7.26.362-4.739-.886-8.861-3.918-11.398-6.664-5.579-19.33-1.423-28.291 9.281-6.405 7.652-9.159 16.566-7.788 23.073-5.955 2.557-10.358 11.46-10.358 22.083 0 12.617 6.202 22.845 13.853 22.845h64.278c8.6 0 16.802-4.972 21.27-13.435l7.077-13.435 7.058 13.435c4.394 8.322 12.502 13.435 21.27 13.435h12.599v-6.377c.001-18.452-7.465-35.134-19.558-47.207z" fill="#b76c6c"/><path d="m100.03 7.517c-4.37 1.94-8.81 5.29-12.59 9.81-6.4 7.66-9.16 16.57-7.78 23.08-5.96 2.55-10.36 11.46-10.36 22.08 0 6.9 1.85 13.08 4.78 17.27 2.35 3.37 5.4 5.45 8.75 5.57.1.01.21.01.32.01h-15c-.11 0-.22 0-.32-.01-7.5-.28-13.53-10.4-13.53-22.84 0-10.62 4.4-19.53 10.36-22.08-1.38-6.51 1.38-15.42 7.78-23.08 8.66-10.34 20.78-14.57 27.59-9.81z" fill="#c98585"/><path d="m201.7 78.957v6.38h-12.6c-.81 0-1.61-.04-2.4-.13v-6.25c0-18.45-7.46-35.14-19.56-47.21-10.43-10.43-24.27-17.42-39.71-19.14 2.46-.28 4.96-.42 7.49-.42 18.45 0 35.13 7.47 47.22 19.56 12.1 12.07 19.56 28.76 19.56 47.21z" fill="#965959"/><g fill="#5f266d"><path d="m212.969 129.05c.595-16.613-9.018-31.438-15.749-39.719h4.484c2.209 0 4-1.791 4-4v-6.377c0-18.919-7.363-36.689-20.733-50.038-21-20.999-51.541-25.825-76.729-15.513-3.434-15.473-23.933-16.475-38.865 1.359-6.16 7.359-9.461 16.093-9.025 23.504-13.541 9.616-13.387 39.509.397 48.726-6.617 7.592-18.372 23.738-17.716 42.058.433 12.094 6.181 22.919 17.06 32.209-6.237 11.351-9.522 24.101-9.522 37.167v42.39c0 7.493 6.097 13.59 13.59 13.59h127.68c7.493 0 13.59-6.097 13.59-13.59v-42.39c0-13.058-3.281-25.812-9.512-37.175 10.872-9.286 16.617-20.11 17.05-32.201zm-154.672-66.563c0-9.743 4.089-16.756 7.937-18.408 1.751-.752 2.729-2.636 2.336-4.501-1.165-5.525 1.56-13.251 6.941-19.68 10.103-12.069 26.245-15.01 25.153-.756-.238 3.108 3.024 5.285 5.805 3.869 23.52-11.985 53.037-8.244 72.847 11.564 0 .001.001.002.002.003 13.037 13.016 18.386 28.555 18.386 46.753h-8.599c-7.258 0-14.053-4.331-17.729-11.295l-7.058-13.436c-1.497-2.85-5.578-2.853-7.08-.004l-7.076 13.432c-3.682 6.972-10.476 11.303-17.732 11.303h-64.28c-4.66.001-9.853-7.739-9.853-18.844zm-7.27 66.311c-.676-18.355 14.272-35.148 18.445-39.466h4.2c-.826 15.841 5.113 30.849 16.22 41.715-10.172 5.778-18.919 13.774-25.535 23.322-8.494-7.577-12.983-16.166-13.33-25.571zm72.973 117.609h-59.84c-3.083 0-5.59-2.508-5.59-5.59v-42.39c0-13.139 3.693-25.924 10.686-36.979 5.097-8.096 11.861-15.064 19.782-20.454l-3.459 17.703c-.595 3.046 2.374 5.596 5.303 4.522l33.118-12.144zm-29.208-93.143 3.077-15.749c5.661 3.782 11.887 6.424 18.459 7.852zm4.615-24.496c-12.036-9.431-18.664-23.942-17.72-39.437h50.742c10.231 0 19.736-5.965 24.809-15.57l3.534-6.708c3.672 6.99 5.934 12.56 12.988 17.417 2.808 16.926-3.656 33.714-17.168 44.288-8.227 6.449-18.113 9.858-28.592 9.858-10.474.001-20.362-3.405-28.593-9.848zm61.802 24.496-21.536-7.897c6.573-1.429 12.8-4.073 18.458-7.857zm36.221 45.163v42.39c0 3.082-2.508 5.59-5.59 5.59h-59.84v-95.332l33.119 12.144c2.919 1.068 5.901-1.462 5.303-4.523l-3.458-17.695c7.92 5.37 14.663 12.302 19.803 20.45 6.975 11.062 10.663 23.849 10.663 36.976zm-5.776-44.068c-6.659-9.601-15.377-17.547-25.557-23.309 11.221-10.964 17.294-26.29 16.166-42.636 1.344.36 2.717.614 4.112.759 3.958 4.064 19.282 21.049 18.598 39.625-.347 9.401-4.832 17.987-13.319 25.561z"/><path d="m179.5 197.487c-2.209 0-4 1.791-4 4v14c0 2.209 1.791 4 4 4s4-1.791 4-4v-14c0-2.209-1.791-4-4-4z"/><path d="m179.5 226.487c-2.209 0-4 1.791-4 4v4.5c0 2.209 1.791 4 4 4s4-1.791 4-4v-4.5c0-2.209-1.791-4-4-4z"/></g></svg>