<svg id="Icon_Set" enable-background="new 0 0 256 256" height="512" viewBox="0 0 256 256" width="512" xmlns="http://www.w3.org/2000/svg"><path d="m201.933 196.727v42.389c0 5.292-4.299 9.59-9.59 9.59h-127.686c-5.292 0-9.59-4.299-9.59-9.59v-42.389c0-27.63 15.363-52.184 38.891-64.785 19.092-10.163 42.574-11.98 64.83-2.087 26.228 11.946 43.145 37.907 43.145 66.872z" fill="#ffe2e2"/><path d="m135.99 123.69c-36.38 3.638-65.92 34.533-65.92 73.04v42.39c0 5.29 4.3 9.59 9.59 9.59h-15c-5.29 0-9.59-4.3-9.59-9.59v-42.39c0-43.34 37.478-77.437 80.92-73.04z" fill="#ffefee"/><path d="m201.93 196.73v42.39c0 5.29-4.3 9.59-9.59 9.59h-15c5.29 0 9.59-4.3 9.59-9.59v-42.39c0-28.97-16.91-54.93-43.14-66.88-7.54-3.35-15.22-5.36-22.82-6.15 12.32-1.28 25.26.57 37.82 6.15 26.23 11.95 43.14 37.91 43.14 66.88z" fill="#ffcfcf"/><path d="m94.292 28.04c0-8.422-8.494-15.25-16.917-15.25-7.55 0-13.801 5.492-15.019 12.695-2.458-1.696-5.435-2.695-8.647-2.695-8.422 0-15.25 6.828-15.25 15.25 0 3.642 1.28 6.981 3.41 9.604-4.434 2.667-7.41 7.511-7.41 13.063 0 8.422 6.828 15.25 15.25 15.25 2.227 0 4.337-.489 6.244-1.347-.095.687-.161 1.383-.161 2.097 0 8.422 6.828 15.25 15.25 15.25s16.917-6.828 16.917-15.25c0-5.738-3.172-10.73-7.856-13.333 4.683-2.603 6.189-7.596 6.189-13.333 0-3.03.772-5.846-.751-8.22 5.167-2.442 8.751-7.686 8.751-13.781z" fill="#87828e"/><path d="m161.708 76.707c0 8.422 8.494 15.25 16.917 15.25 7.55 0 13.801-5.492 15.019-12.695 2.458 1.696 5.435 2.695 8.647 2.695 8.422 0 15.25-6.828 15.25-15.25 0-3.642-1.28-6.981-3.41-9.604 4.434-2.667 7.41-7.511 7.41-13.063 0-8.422-6.828-15.25-15.25-15.25-2.227 0-4.337.489-6.244 1.347.095-.687.161-1.383.161-2.097 0-8.422-6.828-15.25-15.25-15.25s-16.917 6.828-16.917 15.25c0 5.738 3.172 10.73 7.856 13.333-4.683 2.603-6.189 7.596-6.189 13.333 0 3.03-.772 5.846.751 8.22-5.167 2.442-8.751 7.686-8.751 13.781z" fill="#87828e"/><path d="m146.616 179.337-18.123 44.536-18.123-44.536 18.123-35.752z" fill="#87828e"/><path d="m162.001 132.206-3.168-14.249h-61.833l-2.001 14.249-4.995 25.561 38.46-14.103h.072l38.46 14.103z" fill="#ffcfcf"/><path d="m178.912 57.703c0 1.011-.03 34.816-.088 35.812-1.557 26.441-23.493 47.402-50.325 47.402-26.995 0-49.034-21.217-50.351-47.885-.041-.838-.062-34.482-.062-35.33 0-27.842 22.571-50.413 50.413-50.413s50.413 22.572 50.413 50.414z" fill="#ffbb98"/><path d="m178.91 57.7c0 1.01-.03 34.82-.09 35.81-1.55 26.45-23.49 47.41-50.32 47.41-2.55 0-5.05-.19-7.49-.56 23.31-3.47 41.41-22.91 42.81-46.85.06-.99.09-34.8.09-35.81 0-25.29-18.63-46.23-42.91-49.86 2.45-.36 4.95-.55 7.5-.55 27.84 0 50.41 22.57 50.41 50.41z" fill="#ffaa80"/><path d="m136.01 140.36c-2.45.37-4.96.56-7.51.56-27 0-49.03-21.22-50.35-47.89-.04-.83-.06-34.48-.06-35.33 0-27.84 22.57-50.41 50.41-50.41 2.55 0 5.05.19 7.5.55-24.28 3.63-42.91 24.57-42.91 49.86 0 .85.02 34.5.06 35.33 1.2 24.16 19.38 43.84 42.86 47.33z" fill="#ffcaa6"/><g fill="#5f266d"><path d="m225.54 44.04c0-11.561-10.165-20.514-21.581-19.108-1.49-9.143-9.442-16.142-18.999-16.142-7.59 0-14.625 4.19-18.284 10.188-9.83-9.692-23.315-15.688-38.177-15.688-13.323 0-25.536 4.821-35.006 12.8-9.721-10.896-27.349-9.486-33.529 3.742-1.999-.688-4.106-1.042-6.254-1.042-10.614 0-19.25 8.636-19.25 19.25 0 3.014.716 5.981 2.06 8.649-3.849 3.595-6.06 8.604-6.06 14.021 0 11.561 10.165 20.514 21.581 19.108 1.654 10.147 11.28 17.692 22.294 15.865 1.242 13.2 7.159 24.957 16.048 33.672-24.296 13.79-39.313 39.423-39.313 67.375v42.39c0 7.493 6.097 13.59 13.59 13.59h127.68c7.494 0 13.59-6.097 13.59-13.59v-42.39c0-27.874-15.269-53.707-39.357-67.389 8.939-8.756 14.883-20.574 16.096-33.821 5.882-1.254 10.824-5.202 13.36-10.606 1.999.69 4.109 1.046 6.261 1.046 10.614 0 19.25-8.636 19.25-19.25 0-3.066-.704-6.008-2.059-8.677 3.807-3.596 6.059-8.67 6.059-13.993zm-165.623 31.09c.405-3.096-2.752-5.456-5.614-4.164-1.459.659-3.004.994-4.592.994-6.203 0-11.25-5.047-11.25-11.25 0-3.978 2.045-7.582 5.472-9.643 2.081-1.25 2.578-4.062 1.042-5.951-1.645-2.022-2.514-4.469-2.514-7.076 0-6.203 5.047-11.25 11.25-11.25 2.285 0 4.493.688 6.384 1.987 2.412 1.657 5.727.244 6.21-2.634 1.682-10.012 14.43-12.69 21.455-4.456-8.499 9.603-13.674 22.213-13.674 36.015 0 .258.01 19.868.036 29.846-8.218 2.085-15.249-4.464-14.205-12.418zm98.709 60.66 3.083 15.777-21.587-7.916c6.703-1.464 12.957-4.164 18.504-7.861zm-60.26.04c5.539 3.683 11.789 6.37 18.496 7.828l-21.571 7.91zm99.564 60.9v42.39c0 3.082-2.508 5.59-5.59 5.59h-127.68c-3.083 0-5.59-2.508-5.59-5.59v-42.39c0-23.176 11.515-44.58 30.47-57.446l-3.461 17.716c-.595 3.046 2.374 5.596 5.303 4.522l28.908-10.6-13.488 26.606c-.524 1.033-.574 2.243-.137 3.316l18.124 44.536c.613 1.507 2.078 2.492 3.705 2.492s3.092-.985 3.705-2.492l18.123-44.536c.437-1.073.387-2.283-.137-3.316l-13.49-26.612c31.552 11.57 29.291 10.851 30.301 10.851 2.504 0 4.411-2.286 3.926-4.767l-3.453-17.673c18.787 12.825 30.461 34.334 30.461 57.403zm-69.437-44.297 13.73 27.086-13.73 33.742-13.731-33.742zm.006-15.516c-10.651 0-20.48-3.586-28.329-9.627-.17-.159-.356-.296-.548-.421-10.104-8.018-16.793-20.166-17.476-33.981-.038-1.411-.06-33.555-.06-35.185 0-25.592 20.821-46.413 46.413-46.413s46.413 20.821 46.413 46.413c0 2.814-.032 34.089-.082 35.576-1.441 24.47-21.792 43.638-46.331 43.638zm83.576-83.249c-2.087 1.25-2.583 4.06-1.054 5.948 8.12 10.032-4.47 23.706-15.106 16.353-2.413-1.665-5.734-.253-6.219 2.627-.663 3.938-3.321 7.1-6.833 8.527.035-10.352.049-29.166.049-29.42 0-11.993-3.908-23.086-10.507-32.09 1.413-4.838 6.897-8.823 12.554-8.823 6.526 0 12.063 5.662 11.124 12.83-.407 3.111 2.772 5.453 5.614 4.164 7.42-3.353 15.842 2.128 15.842 10.256.001 3.98-2.042 7.578-5.464 9.628z"/><path d="m150.47 24.995c-6.511-4.387-14.108-6.705-21.971-6.705-7.999 0-15.706 2.394-22.289 6.921-4.331 2.979.157 9.599 4.534 6.592 5.243-3.606 11.382-5.513 17.754-5.513 6.264 0 12.315 1.847 17.501 5.34 1.831 1.234 4.318.75 5.552-1.082 1.236-1.833.751-4.319-1.081-5.553z"/><path d="m142.145 37.468c-4.042-2.733-8.761-4.178-13.646-4.178-5.505 0-10.705 1.795-15.038 5.191-4.145 3.25.765 9.563 4.936 6.297 2.911-2.282 6.404-3.488 10.103-3.488 3.282 0 6.451.97 9.165 2.805 1.831 1.238 4.317.758 5.554-1.073 1.236-1.831.756-4.317-1.074-5.554z"/><path d="m151.167 207.957c0 2.209 1.791 4 4 4h27.667c2.209 0 4-1.791 4-4s-1.791-4-4-4h-27.667c-2.209 0-4 1.791-4 4z"/><path d="m75.835 165.672c-1.353 1.399-2.582 2.933-3.652 4.558-1.759 2.672.184 6.2 3.337 6.2 2.953 0 3.127-2.158 6.066-5.197 1.536-1.588 1.493-4.12-.095-5.655-1.589-1.537-4.12-1.494-5.656.094z"/><path d="m71.162 182.542c-2.212-.065-4.062 1.646-4.142 3.853-.013.374-.02.748-.02 1.123v10.022c0 2.209 1.791 4 4 4s4-1.791 4-4c0-10.449-.009-10.193.015-10.856.08-2.208-1.646-4.063-3.853-4.142z"/></g></svg>