<svg id="Icon_Set" enable-background="new 0 0 256 256" height="512" viewBox="0 0 256 256" width="512" xmlns="http://www.w3.org/2000/svg"><path d="m95.069 189.099h65.862v42.568h-65.862z" fill="#87828e"/><path d="m241.667 189.099h-227.334c-5.523 0-10-4.477-10-10v-144.766c0-5.523 4.477-10 10-10h227.333c5.523 0 10 4.477 10 10v144.766c.001 5.523-4.476 10-9.999 10z" fill="#87828e"/><path d="m227.964 171.71h-199.928c-2.781 0-5.036-2.255-5.036-5.036v-119.915c0-2.781 2.255-5.036 5.036-5.036h199.928c2.781 0 5.036 2.255 5.036 5.036v119.915c0 2.781-2.255 5.036-5.036 5.036z" fill="#5fcdff"/><path d="m161 57.853c-18.223 0-33 6.811-33 15.226 0-8.415-14.777-15.226-33-15.226s-33 6.811-33 15.226v81.913.587h.028 65.945.055 65.945.027v-.587-81.913c0-8.415-14.777-15.226-33-15.226z" fill="#ffe2e2"/><path d="m194 73.08v82.5h-15v-82.5c0-7.23-10.89-13.27-25.5-14.83 2.41-.26 4.92-.4 7.5-.4 18.22 0 33 6.81 33 15.23z" fill="#ffcfcf"/><path d="m102.5 58.25c-14.61 1.56-25.5 7.6-25.5 14.83v82.5h-15v-82.5c0-8.42 14.78-15.23 33-15.23 2.58 0 5.09.14 7.5.4z" fill="#ffefee"/><path d="m194 154.992c0 .193-.009.394-.028.587h-65.945c-.018-.193-.028-.394-.028-.587 0-8.406 14.777-15.226 33-15.226s33.001 6.821 33.001 15.226z" fill="#ffe2e2"/><path d="m128 154.992c0 .193-.009.394-.028.587h-65.944c-.018-.193-.028-.394-.028-.587 0-8.406 14.777-15.226 33-15.226s33 6.821 33 15.226z" fill="#ffe2e2"/><path d="m194 154.99c0 .2-.01.4-.03.59h-15c.02-.19.03-.39.03-.59 0-7.21-10.89-13.26-25.5-14.82 2.41-.26 4.92-.4 7.5-.4 18.22 0 33 6.82 33 15.22z" fill="#ffcfcf"/><path d="m143 154.99c0 .2.01.4.03.59h-15c-.02-.19-.03-.39-.03-.59 0-8.4 14.78-15.22 33-15.22 2.58 0 5.09.14 7.5.4-14.61 1.56-25.5 7.61-25.5 14.82z" fill="#ffefee"/><path d="m128 154.99c0 .2-.01.4-.03.59h-15c.02-.19.03-.39.03-.59 0-7.21-10.89-13.26-25.5-14.82 2.41-.26 4.92-.4 7.5-.4 18.22 0 33 6.82 33 15.22z" fill="#ffcfcf"/><path d="m77 154.99c0 .2.01.4.03.59h-15c-.02-.19-.03-.39-.03-.59 0-8.4 14.78-15.22 33-15.22 2.58 0 5.09.14 7.5.4-14.61 1.56-25.5 7.61-25.5 14.82z" fill="#ffefee"/><path d="m233 46.76v119.91c0 2.79-2.25 5.04-5.04 5.04h-15c2.79 0 5.04-2.25 5.04-5.04v-119.91c0-2.78-2.25-5.04-5.04-5.04h15c2.79 0 5.04 2.26 5.04 5.04z" fill="#30b6ff"/><path d="m43.04 171.71h-15c-2.79 0-5.04-2.25-5.04-5.04v-119.91c0-2.78 2.25-5.04 5.04-5.04h15c-2.79 0-5.04 2.26-5.04 5.04v119.91c0 2.79 2.25 5.04 5.04 5.04z" fill="#73d7f9"/><path d="m145.93 189.1h15v42.57h-15z" fill="#796e84"/><path d="m95.07 189.1h15v42.57h-15z" fill="#a4a4a5"/><path d="m251.67 34.33v144.77c0 5.52-4.48 10-10 10h-15c5.52 0 10-4.48 10-10v-144.77c0-5.52-4.48-10-10-10h15c5.52 0 10 4.48 10 10z" fill="#796e84"/><path d="m29.33 189.1h-15c-5.52 0-10-4.48-10-10v-144.77c0-5.52 4.48-10 10-10h15c-5.52 0-10 4.48-10 10v144.77c0 5.52 4.48 10 10 10z" fill="#a4a4a5"/><g fill="#5f266d"><path d="m227.96 37.72h-199.92c-4.99 0-9.04 4.06-9.04 9.04v119.91c0 4.99 4.05 9.04 9.04 9.04h199.92c4.99 0 9.04-4.05 9.04-9.04v-119.91c0-4.98-4.05-9.04-9.04-9.04zm1.04 128.95c0 .58-.46 1.04-1.04 1.04h-199.92c-.58 0-1.04-.46-1.04-1.04v-119.91c0-.57.46-1.04 1.04-1.04h199.92c.58 0 1.04.47 1.04 1.04z"/><path d="m241.67 20.33h-227.34c-7.72 0-14 6.28-14 14v144.77c0 7.72 6.28 14 14 14h76.74v34.57h-8.04c-5.285 0-5.293 8 0 8h89.94c5.285 0 5.293-8 0-8h-8.04v-34.57h76.74c7.72 0 14-6.28 14-14v-144.77c0-7.72-6.28-14-14-14zm-84.74 207.34h-57.86v-34.57h57.86zm90.74-48.57c0 3.31-2.69 6-6 6-10.437 0-218.513 0-227.34 0-3.31 0-6-2.69-6-6v-144.77c0-3.31 2.69-6 6-6h227.34c3.31 0 6 2.69 6 6z"/><path d="m128 64.1c-16.424-16.944-70-12.113-70 8.98v82.5c0 .78.23 1.51.64 2.13.634 1.056 1.922 1.87 3.39 1.87h131.94c2.284 0 3.99-1.947 3.99-3.69.062-.342.04-82.462.04-82.81 0-21.174-53.631-25.868-70-8.98zm-62 8.98c0-14.596 58-14.601 58 0v69.7c-14.421-9.362-43.563-9.372-58 0zm1.77 78.5c10.201-10.388 44.271-10.376 54.46 0zm66 0c10.201-10.388 44.271-10.376 54.46 0zm-1.77-8.8v-69.7c0-2.49 3.33-5.58 9.21-7.89v15.89c0 .94 1.26 1.27 1.73.46 1.964-3.405.791-1.372 4.88-8.46 3.971 6.862 2.9 5.008 4.89 8.46.47.81 1.72.48 1.72-.46v-18.91c19.791-2.007 35.57 5.298 35.57 10.91v69.7c-14.421-9.362-43.563-9.372-58 0z"/><path d="m84.33 85h21c5.285 0 5.293-8 0-8h-21c-5.285 0-5.293 8 0 8z"/><path d="m76 99.33h37.67c5.285 0 5.293-8 0-8h-37.67c-5.285 0-5.293 8 0 8z"/><path d="m76 113.67h37.67c5.285 0 5.293-8 0-8h-37.67c-5.285 0-5.293 8 0 8z"/><path d="m113.67 120h-37.67c-5.285 0-5.293 8 0 8h37.67c5.285 0 5.293-8 0-8z"/><path d="m179.83 91.33h-37.66c-5.285 0-5.293 8 0 8h37.66c5.285 0 5.293-8 0-8z"/><path d="m179.83 105.67h-37.66c-5.285 0-5.293 8 0 8h37.66c5.285 0 5.293-8 0-8z"/><path d="m179.83 120h-37.66c-5.285 0-5.293 8 0 8h37.66c5.285 0 5.293-8 0-8z"/><path d="m145.75 221h3.5c5.285 0 5.293-8 0-8h-3.5c-5.285 0-5.293 8 0 8z"/><path d="m106.75 221h24c5.285 0 5.293-8 0-8h-24c-5.285 0-5.293 8 0 8z"/></g></svg>