<svg id="Icon_Set" enable-background="new 0 0 256 256" height="512" viewBox="0 0 256 256" width="512" xmlns="http://www.w3.org/2000/svg"><path d="m235.42 12.9v231.79c0 2.76-2.23 5-5 5h-157.44c-2.76 0-5-2.24-5-5v-214.68c0-6.55-2.65-12.47-6.94-16.76-4.24-4.24-10.08-6.88-16.53-6.93v-.01h184.33c3.64 0 6.58 2.95 6.58 6.59z" fill="#ffe2e2"/><path d="m67.979 96.728h-42.403c-2.761 0-5-2.239-5-5v-61.715c0-13.09 10.611-23.701 23.701-23.701 13.09 0 23.701 10.611 23.701 23.701v66.715z" fill="#ffcfcf"/><path d="m190.002 109.571-.09.023c-27.605 7.006-56.522 7.006-84.127 0l-.09-.023c-2.137-.543-3.634-2.466-3.634-4.672v-49.267h91.574v49.268c.001 2.205-1.495 4.129-3.633 4.671z" fill="#87828e"/><path d="m87.98 249.69h-15c-2.76 0-5-2.24-5-5v-214.68c0-6.55-2.65-12.47-6.94-16.76-4.24-4.24-10.08-6.88-16.53-6.93v-.01h15v.01c6.45.05 12.29 2.69 16.53 6.93 4.29 4.29 6.94 10.21 6.94 16.76v214.68c0 2.76 2.24 5 5 5z" fill="#ffefee"/><path d="m235.42 12.9v231.79c0 2.76-2.23 5-5 5h-15c2.77 0 5-2.24 5-5v-231.79c0-3.64-2.94-6.59-6.58-6.59h15c3.64 0 6.58 2.95 6.58 6.59z" fill="#ffcfcf"/><path d="m155.35 114.69c-16.62.72-33.32-.98-49.56-5.1l-.09-.02c-2.14-.54-3.64-2.46-3.64-4.67v-49.27h15v49.27c0 2.21 1.5 4.13 3.64 4.67l.09.02c11.36 2.89 22.94 4.59 34.56 5.1z" fill="#a4a4a5"/><path d="m193.64 55.63v49.27c0 2.21-1.5 4.13-3.64 4.67l-.09.02c-16.24 4.12-32.94 5.82-49.56 5.1 11.62-.51 23.2-2.21 34.56-5.1l.09-.02c2.14-.54 3.64-2.46 3.64-4.67v-49.27z" fill="#796e84"/><path d="m211.37 52.74c-.94.36-61.61 23.43-62.81 23.88-.46.18-.95.18-1.41 0h-.01c-.36-.13-5.5-2.09-12.7-4.83-17.98-6.83-48.82-18.55-50.11-19.05-1.72-.65-1.72-3.07-.01-3.73 0 0 0-.01.01-.01.69-.26 31.95-12.14 50.11-19.05 7.21-2.74 12.36-4.69 12.7-4.83.45-.17.95-.17 1.4-.01 0 0 0 0 .01.01.94.35 61 23.19 62.82 23.88 1.72.66 1.72 3.09 0 3.74z" fill="#87828e"/><path d="m211.37 52.74c-.94.36-61.61 23.43-62.81 23.88-.46.18-.95.18-1.41 0h-.01c-.36-.13-5.5-2.09-12.7-4.83 18.17-6.9 49.42-18.79 50.1-19.05 1.72-.65 1.72-3.08 0-3.74-1.29-.49-32.12-12.21-50.1-19.05 7.21-2.74 12.36-4.69 12.7-4.83.45-.17.95-.17 1.4-.01 0 0 0 0 .01.01.94.35 61 23.19 62.82 23.88 1.72.66 1.72 3.09 0 3.74z" fill="#796e84"/><path d="m109.83 52.74c1.31.5 32.89 12.51 50.77 19.3-6.86 2.61-11.71 4.45-12.04 4.58-.46.18-.95.18-1.41 0h-.01c-1.24-.47-61-23.18-62.81-23.88-1.72-.65-1.72-3.07-.01-3.73 0 0 0-.01.01-.01.96-.36 61.6-23.42 62.81-23.88.45-.17.95-.17 1.4-.01 0 0 0 0 .01.01.26.1 5.13 1.95 12.06 4.58-18.05 6.86-50.09 19.04-50.78 19.3-.01 0-.01.01-.01.01-1.71.66-1.71 3.08.01 3.73z" fill="#a4a4a5"/><g fill="#5f266d"><path d="m228.842 2.31c-2.249 0-181.936.002-184.563.002-15.274 0-27.701 12.427-27.701 27.701v61.715c0 4.963 4.037 9 9 9 32.406 0 6 .003 38.403.003v143.96c0 4.963 4.037 9 9 9h157.44c4.963 0 9-4.037 9-9v-231.791c.001-5.839-4.745-10.59-10.579-10.59zm-164.862 90.418h-38.402c-.552 0-1-.448-1-1v-61.715c0-10.863 8.838-19.701 19.701-19.701s19.701 8.837 19.701 19.701zm167.442 151.962c0 .552-.448 1-1 1h-157.441c-.552 0-1-.448-1-1 0-9.379-.001-205.3-.001-214.678 0-7.702-3.162-14.677-8.253-19.703h165.115c1.423 0 2.58 1.162 2.58 2.591z"/><path d="m219.401 94.185c1.177-.915 1.949-2.328 1.949-3.935v-7.121c0-2.611-2.009-4.73-4.561-4.956v-27.653c0-1.737-1.528-4.316-3.998-5.256l-62.811-23.882c-1.374-.522-2.888-.521-4.262 0-40.673 15.465-25.861 9.833-62.807 23.882-5.153 1.96-5.151 9.257-.001 11.217l15.15 5.761v42.658c0 4.044 2.739 7.559 6.662 8.549.027.007.09.021.143.032 28.108 7.128 57.852 7.141 85.985-.002.043-.01.086-.02.129-.031 3.922-.989 6.661-4.505 6.661-8.548v-42.66l11.147-4.239v20.171c-2.552.226-4.561 2.345-4.561 4.956 0 7.338-.491 9.161 1.948 11.056l-4.093 4.092c-2.528 2.526-.702 6.828 2.828 6.828 1.928 0 2.825-1.168 3.877-2.221v1.483c0 2.209 1.791 4 4 4s4-1.791 4-4v-1.483c1.047 1.047 1.946 2.221 3.877 2.221 3.53 0 5.356-4.302 2.828-6.828zm-29.759 10.715c0 .374-.254.699-.579.78-.045.011-.09.021-.135.032-26.874 6.826-55.279 6.826-82.151 0-.024-.006-.077-.019-.127-.029-.348-.103-.588-.42-.588-.783v-39.617l39.657 15.079c1.372.523 2.885.523 4.265.001l39.658-15.08zm-41.79-32.286c-6.856-2.607-50.07-19.039-57.18-21.742l57.18-21.742 57.179 21.742z"/><path d="m178.169 99.887c1.276-.501 2.462-1.064 3.524-1.677 1.914-1.103 2.571-3.549 1.469-5.463s-3.548-2.572-5.463-1.469c-.719.414-1.544.805-2.452 1.161-2.057.807-3.069 3.128-2.263 5.185.81 2.067 3.141 3.066 5.185 2.263z"/><path d="m150.749 103.067c2.752.19 7.342.22 11.55-.064 5.237-.355 4.785-8.281-.539-7.982-3.903.264-8.144.227-10.448.066-5.254-.399-5.864 7.607-.563 7.98z"/><path d="m92.169 141.333h116c2.209 0 4-1.791 4-4s-1.791-4-4-4h-116c-2.209 0-4 1.791-4 4s1.791 4 4 4z"/><path d="m165.002 158h-72.833c-2.209 0-4 1.791-4 4s1.791 4 4 4h72.833c2.209 0 4-1.791 4-4s-1.791-4-4-4z"/><path d="m165.002 182.667h-72.833c-2.209 0-4 1.791-4 4s1.791 4 4 4h72.833c2.209 0 4-1.791 4-4s-1.791-4-4-4z"/><path d="m165.002 207.333h-72.833c-2.209 0-4 1.791-4 4s1.791 4 4 4h72.833c2.209 0 4-1.791 4-4s-1.791-4-4-4z"/><path d="m200.885 182.53h-9.116c-2.251 0-4.083-1.832-4.083-4.083s1.832-4.083 4.083-4.083c12.693 0 13.105-.36 13.105.981 0 2.209 1.791 4 4 4 7.008 0 4.384-12.981-4.981-12.981h-3.519v-4.364c0-2.209-1.791-4-4-4s-4 1.791-4 4v4.364c-7.996 0-12.688 5.948-12.688 12.083 0 6.662 5.421 12.083 12.083 12.083h9.116c2.251 0 4.083 1.831 4.083 4.082s-1.832 4.083-4.083 4.083h-12.124c-.476 0-.98-.344-.98-.981 0-2.209-1.791-4-4-4s-4 1.791-4 4c0 4.952 4.028 8.981 8.98 8.981h3.613v4.646c0 2.209 1.791 4 4 4s4-1.791 4-4v-4.646c7.734 0 12.594-5.816 12.594-12.083 0-6.662-5.421-12.082-12.083-12.082z"/></g></svg>