<svg id="Icon_Set" enable-background="new 0 0 256 256" height="512" viewBox="0 0 256 256" width="512" xmlns="http://www.w3.org/2000/svg"><path d="m219.498 67.7 15.97-15.97c1.953-1.953 1.953-5.118 0-7.071l-9.05-9.05c-1.953-1.953-5.118-1.953-7.071 0l-15.97 15.97z" fill="#5fcdff"/><path d="m234.42 43.61c-1.95-1.95-5.12-1.95-7.07 0l-15.97 15.97-8-8 15.97-15.97c1.95-1.95 5.12-1.95 7.07 0z" fill="#73d7f9"/><path d="m50.86 90.54v92.14c0 7.06-5.73 12.79-12.79 12.79s-12.79-5.73-12.79-12.79v-92.14z" fill="#ffe2e2"/><path d="m45.57 193.04c-2.1 1.53-4.7 2.43-7.5 2.43-7.06 0-12.79-5.73-12.79-12.79v-92.14h15v92.14c0 4.26 2.08 8.03 5.29 10.36z" fill="#ffefee"/><path d="m189.931 84.406-19.751 19.751s111.099 30.096-24.814 95.801h44.565c109.479-67.705 0-115.552 0-115.552z" fill="#87828e"/><path d="m148.068 139.13 8.06-8.061-16.121-16.121-8.06 8.06c-4.452 4.452-4.452 11.669 0 16.121 4.451 4.453 11.669 4.453 16.121.001z" fill="#5fcdff"/><path d="m57.039 250h-37.473c-2.761 0-5-2.239-5-5v-3.131c0-2.761 2.239-5 5-5h37.473c2.761 0 5 2.239 5 5v3.131c0 2.761-2.239 5-5 5z" fill="#87828e"/><path d="m50.266 105.518h-24.387c-2.761 0-5-2.239-5-5v-9.643c0-2.761 2.239-5 5-5h24.387c2.761 0 5 2.239 5 5v9.643c0 2.762-2.238 5-5 5z" fill="#ffe2e2"/><path d="m50.86 148.5v34.18c0 7.06-5.73 12.79-12.79 12.79s-12.79-5.73-12.79-12.79v-34.18z" fill="#f9d335"/><circle cx="62.039" cy="36.365" fill="#f9d335" r="13.521"/><circle cx="25.282" cy="15.561" fill="#f9d335" r="9.561"/><circle cx="28.087" cy="59.859" fill="#f9d335" r="9.561"/><path d="m69.54 47.62c-2.14 1.44-4.72 2.27-7.5 2.27-7.47 0-13.52-6.06-13.52-13.52 0-7.47 6.05-13.53 13.52-13.53 2.78 0 5.36.84 7.5 2.27-3.63 2.43-6.02 6.57-6.02 11.26s2.39 8.82 6.02 11.25z" fill="#f9e27d"/><path d="m40.88 105.52h-15c-2.76 0-5-2.24-5-5v-9.65c0-2.76 2.24-5 5-5h15c-2.76 0-5 2.24-5 5v9.65c0 2.76 2.24 5 5 5z" fill="#ffefee"/><path d="m45.57 193.04c-2.1 1.53-4.7 2.43-7.5 2.43-7.06 0-12.79-5.73-12.79-12.79v-34.18h15v34.18c0 4.26 2.08 8.03 5.29 10.36z" fill="#f9e27d"/><path d="m62.04 241.87v3.13c0 2.76-2.24 5-5 5h-15c2.76 0 5-2.24 5-5v-3.13c0-2.76-2.24-5-5-5h15c2.76 0 5 2.24 5 5z" fill="#796e84"/><path d="m34.57 250h-15c-2.77 0-5-2.24-5-5v-3.13c0-2.76 2.23-5 5-5h15c-2.77 0-5 2.24-5 5v3.13c0 2.76 2.23 5 5 5z" fill="#a4a4a5"/><path d="m160.37 199.96h-15c135.91-65.71 24.81-95.8 24.81-95.8l7-7c21.56 7 102.5 39.52-16.81 102.8z" fill="#a4a4a5"/><path d="m155.913 131.366-16.202-16.202c-1.953-1.953-1.953-5.118 0-7.071l65.364-65.364c1.953-1.953 5.118-1.953 7.071 0l16.202 16.202c1.953 1.953 1.953 5.118 0 7.071l-65.364 65.364c-1.953 1.953-5.118 1.953-7.071 0z" fill="#87828e"/><path d="m228.35 66-65.37 65.37c-1.95 1.95-5.11 1.95-7.07 0l-5.7-5.7c1.65.43 3.48-.01 4.77-1.3l65.37-65.37c1.95-1.95 1.95-5.12 0-7.07l-10.5-10.5c.84.21 1.64.65 2.3 1.3l16.2 16.2c1.95 1.95 1.95 5.12 0 7.07z" fill="#796e84"/><path d="m219.15 49.73c-1.96-1.95-5.12-1.95-7.08 0l-65.36 65.36c-1.95 1.96-1.95 5.12 0 7.07l-7-7c-1.95-1.95-1.95-5.11 0-7.07l65.36-65.36c1.96-1.95 5.12-1.95 7.08 0z" fill="#a4a4a5"/><path d="m226.636 218.273h-114.84v-21.497c0-2.761 2.239-5 5-5h104.84c2.761 0 5 2.239 5 5z" fill="#87828e"/><path d="m226.64 196.78v21.49h-15v-21.49c0-2.77-2.24-5-5-5h15c2.76 0 5 2.23 5 5z" fill="#796e84"/><path d="m131.8 191.78c-2.77 0-5 2.23-5 5v21.49h-15v-21.49c0-2.77 2.23-5 5-5z" fill="#a4a4a5"/><path d="m234.969 250h-131.507c-5.523 0-10-4.477-10-10v-14.958c0-5.523 4.477-10 10-10h131.507c5.523 0 10 4.477 10 10v14.958c0 5.523-4.477 10-10 10z" fill="#87828e"/><path d="m244.97 225.04v14.96c0 5.52-4.48 10-10 10h-15c5.52 0 10-4.48 10-10v-14.96c0-5.52-4.48-10-10-10h15c5.52 0 10 4.48 10 10z" fill="#796e84"/><path d="m118.46 250h-15c-5.52 0-10-4.48-10-10v-14.96c0-5.52 4.48-10 10-10h15c-5.52 0-10 4.48-10 10v14.96c0 5.52 4.48 10 10 10z" fill="#a4a4a5"/><path d="m139.95 131.01c-2.99 2.99-3.97 7.24-2.94 11.06-1.85-.5-3.6-1.48-5.06-2.94-4.45-4.45-4.45-11.67 0-16.12l8.06-8.06 8 8z" fill="#73d7f9"/><g fill="#5f266d"><path d="m234.97 211.04h-4.33v-14.26c0-4.97-4.04-9-9-9h-7.65c20.14-16.72 29.7-33.72 28.5-50.71-1.49-21.01-19.09-36.89-33.2-46.35l21.89-21.89c2.581-2.581 3.194-6.266 2.15-9.3l4.97-4.97c3.51-3.51 3.51-9.22 0-12.73l-9.05-9.05c-3.513-3.513-9.198-3.533-12.73 0l-4.97 4.97c-3.145-1.082-6.768-.382-9.3 2.15l-65.37 65.36c-1.7 1.7-2.63 3.96-2.63 6.37 0 1.01.16 2.01.49 2.93l-5.62 5.62c-6.01 6.01-6.01 15.77 0 21.78 6.027 6.027 15.77 6.01 21.78 0l5.61-5.61c.93.32 1.92.48 2.94.48 2.4 0 4.66-.94 6.36-2.64l19.78-19.78c10.92 5.41 22.31 13.73 23.29 24.27.94 10.16-7.26 26.56-48.52 49.1h-43.56c-4.97 0-9 4.03-9 9v14.26h-4.34c-7.72 0-14 6.28-14 14v14.96c0 7.72 6.28 14 14 14h131.51c7.72 0 14-6.28 14-14v-14.96c0-7.72-6.28-14-14-14zm6 28.96c0 3.31-2.69 6-6 6h-131.51c-3.31 0-6-2.69-6-6v-14.96c0-3.31 2.69-6 6-6h131.51c3.31 0 6 2.69 6 6zm-125.17-43.22c0-.56.44-1 1-1h104.84c.55 0 1 .44 1 1v14.26h-106.84zm101.04-58.85c-1.27-13.7-13.71-23.37-25.29-29.48l11.93-11.93c12.96 8.45 29.73 22.81 31.03 41.11 1.16 16.31-10.11 33.14-33.54 50.15h-24.58c28.65-17.54 41.93-33.96 40.45-49.85zm-56.68-9.39c-.734.705-.651.249-1.2-.3l-16.13-16.12c-.521-.521-1.005-.485-.29-1.2 7.242-7.242 57.023-57.023 65.36-65.36.433-.416 1.035-.385 1.42 0l16.2 16.2c.375.375.401 1.009 0 1.41-47.795 47.795-10.192 10.201-65.36 65.37zm-25.39 7.76c-2.88-2.88-2.88-7.58 0-10.46l4.98-4.98 10.47 10.47-4.98 4.97c-2.9 2.9-7.579 2.891-10.47 0zm88.82-97.86 9.05 9.05c.39.39.39 1.02 0 1.41l-4.33 4.33-10.47-10.46 4.34-4.33c.399-.416 1.038-.387 1.41 0z"/><path d="m60.57 130.94h-5.71v-22.69c2.64-1.56 4.41-4.45 4.41-7.73v-9.64c0-4.97-4.04-9-9-9h-24.39c-4.96 0-9 4.03-9 9v9.64c0 3.28 1.77 6.16 4.4 7.73v22.69h-5.25c-4.96 0-9 4.03-9 9v48.97c0 15.89 11.91 29.05 27.27 31.02h.003v12.94h-14.733c-4.97 0-9 4.04-9 9v3.13c0 4.96 4.03 9 9 9h37.47c4.96 0 9-4.04 9-9v-3.13c0-4.96-4.04-9-9-9h-14.737v-12.941c15.369-1.971 27.267-15.13 27.267-31.02v-48.97c0-4.969-4.03-8.999-9-8.999zm-2.53 110.93v3.13c0 .55-.45 1-1 1h-37.47c-.56 0-1-.45-1-1v-3.13c0-.55.44-1 1-1h37.47c.55 0 1 .45 1 1zm-33.16-150.99c0-.56.45-1 1-1h24.39c.55 0 1 .44 1 1v9.64c0 .54-.435 1-1 1-17.751 0-6.806 0-24.39 0-.55 0-1-.445-1-1zm4.4 18.64h17.58v34.98h-17.58c0-16.114 0-19.229 0-34.98zm0 42.98h17.58v30.18c0 11.613-17.58 11.627-17.58 0zm32.29 36.41c0 6.41-2.61 12.23-6.82 16.45-14.626 14.591-39.72 4.223-39.72-16.45v-48.97c0-.55.45-1 1-1h5.25v43.74c0 22.187 33.58 22.193 33.58 0 0-8.942 0-34.857 0-43.74h5.71c.56 0 1 .45 1 1z"/><path d="m62.04 18.84c-9.66 0-17.52 7.86-17.52 17.53 0 9.66 7.86 17.52 17.52 17.52s17.52-7.86 17.52-17.52c0-9.67-7.86-17.53-17.52-17.53zm0 27.05c-5.25 0-9.52-4.27-9.52-9.52s4.27-9.53 9.52-9.53 9.52 4.28 9.52 9.53-4.27 9.52-9.52 9.52z"/><path d="m25.28 29.12c7.48 0 13.56-6.08 13.56-13.56s-6.08-13.56-13.56-13.56c-7.47 0-13.56 6.08-13.56 13.56s6.09 13.56 13.56 13.56zm0-19.12c3.07 0 5.56 2.49 5.56 5.56s-2.49 5.56-5.56 5.56c-3.06 0-5.56-2.49-5.56-5.56s2.5-5.56 5.56-5.56z"/><path d="m28.09 46.3c-7.48 0-13.56 6.08-13.56 13.56s6.08 13.56 13.56 13.56c7.47 0 13.56-6.08 13.56-13.56s-6.09-13.56-13.56-13.56zm0 19.12c-3.07 0-5.56-2.5-5.56-5.56 0-3.07 2.49-5.56 5.56-5.56 3.06 0 5.56 2.49 5.56 5.56 0 3.06-2.5 5.56-5.56 5.56z"/><path d="m135.67 228.52h-26c-5.285 0-5.293 8 0 8h26c5.285 0 5.293-8 0-8z"/><path d="m152.5 228.52h-1.83c-5.285 0-5.293 8 0 8h1.83c5.285 0 5.293-8 0-8z"/></g></svg>