<svg id="Icon_Set" enable-background="new 0 0 256 256" height="512" viewBox="0 0 256 256" width="512" xmlns="http://www.w3.org/2000/svg"><path d="m225.499 250.255h-78.7c-11.55 0-18.77-12.5-12.99-22.5l19.67-34.08.57-.99c5.48-9.48 8.72-20.06 9.52-30.94.13-1.77.2-3.54.2-5.32v-83.19h45.33v84.18c0 1.45.04 2.89.14 4.33.66 11.22 3.93 22.15 9.58 31.93l19.67 34.08c5.78 10-1.44 22.5-12.99 22.5z" fill="#ffe2e2"/><path d="m225.499 250.26h-15c11.55 0 18.77-12.5 12.99-22.5l-19.67-34.09c-5.65-9.77-8.92-20.71-9.58-31.93-.1-1.44-.14-2.88-.14-4.33v-84.18h15v84.18c0 1.45.04 2.89.14 4.33.66 11.22 3.93 22.16 9.58 31.93l19.67 34.09c5.78 10-1.44 22.5-12.99 22.5z" fill="#ffcfcf"/><path d="m178.769 73.23v83.19c0 1.79-.07 3.55-.2 5.32-.8 10.89-4.04 21.47-9.52 30.95l-.57.98-19.67 34.09c-5.78 10 1.44 22.5 12.99 22.5h-15c-11.55 0-18.77-12.5-12.99-22.5l19.67-34.09.57-.98c5.48-9.48 8.72-20.06 9.52-30.95.13-1.77.2-3.53.2-5.32v-83.19z" fill="#ffefee"/><path d="m86.099 152.616v-54.831c0-5.523-4.477-10-10-10h-19.57c-5.523 0-10 4.477-10 10v54.831c-18.846 7.979-31.874 27.012-30.954 48.97 1.07 25.537 21.376 46.568 46.865 48.457 29.797 2.209 54.658-21.313 54.658-50.641.001-21.029-12.781-39.072-30.999-46.786z" fill="#ffe2e2"/><path d="m117.099 199.4c0 29.33-24.86 52.85-54.66 50.64-1.23-.09-2.45-.23-3.65-.41 24.5-3.61 43.31-24.72 43.31-50.23 0-21.03-12.78-39.07-31-46.78v-54.83c0-5.53-4.48-10-10-10h15c5.52 0 10 4.47 10 10v54.83c18.22 7.71 31 25.75 31 46.78z" fill="#ffcfcf"/><path d="m73.789 249.63c-3.67.55-7.47.7-11.35.41-25.49-1.89-45.79-22.92-46.86-48.45-.92-21.96 12.1-40.99 30.95-48.97v-54.83c0-5.53 4.48-10 10-10h15c-5.52 0-10 4.47-10 10v54.83c-18.85 7.98-31.87 27.01-30.95 48.97 1.02 24.3 19.46 44.52 43.21 48.04z" fill="#ffefee"/><path d="m211.432 95.552h-50c-2.761 0-5-2.239-5-5v-15.421c0-2.761 2.239-5 5-5h50c2.761 0 5 2.239 5 5v15.421c0 2.762-2.238 5-5 5z" fill="#ffe2e2"/><circle cx="163.765" cy="19.804" fill="#3193f3" r="14.059"/><circle cx="50.536" cy="19.802" fill="#ff4a73" r="14.059"/><circle cx="177.824" cy="51.996" fill="#3193f3" r="9.075"/><circle cx="74.007" cy="53.822" fill="#ff4a73" r="9.075"/><circle cx="200.358" cy="24.337" fill="#3193f3" r="9.075"/><circle cx="92.156" cy="22.29" fill="#ff4a73" r="9.075"/><path d="m225.499 250.255h-78.7c-11.55 0-18.77-12.5-12.99-22.5l19.67-34.08.57-.99c5.48-9.48 8.72-20.06 9.52-30.94h14.255 22.533 8.881c.66 11.22 3.93 22.15 9.58 31.93l19.67 34.08c5.781 10-1.439 22.5-12.989 22.5z" fill="#3193f3"/><path d="m91.314 99.203h-50c-2.761 0-5-2.239-5-5v-15.421c0-2.761 2.239-5 5-5h50c2.761 0 5 2.239 5 5v15.421c0 2.762-2.239 5-5 5z" fill="#ffe2e2"/><path d="m58.032 31.689c-2.17 1.38-4.74 2.17-7.5 2.17-7.76 0-14.05-6.29-14.05-14.06 0-7.76 6.29-14.06 14.05-14.06 2.76 0 5.33.8 7.5 2.17-3.94 2.49-6.55 6.89-6.55 11.89 0 5.01 2.61 9.4 6.55 11.89z" fill="#f973a3"/><path d="m171.269 31.69c-2.17 1.38-4.74 2.17-7.5 2.17-7.77 0-14.06-6.29-14.06-14.06 0-7.76 6.29-14.06 14.06-14.06 2.76 0 5.33.8 7.5 2.17-3.95 2.49-6.56 6.89-6.56 11.89 0 5.01 2.61 9.4 6.56 11.89z" fill="#35b1fc"/><path d="m117.099 199.405c0 28.894-24.146 52.16-53.356 50.716-26.83-1.326-48.209-23.844-48.214-50.707-.001-5.533.879-10.857 2.53-15.839 0 0 25.393 35.927 39.639 2.69.536-1.25 2.107-1.642 3.142-.76 4.517 3.849 15.477 11.201 23.297.126.702-.994 2.127-1.136 3.003-.291 4.886 4.713 19.091 16.066 27.43-1.765 1.649 4.98 2.529 10.3 2.529 15.83z" fill="#ff4a73"/><path d="m117.099 199.4c0 28.9-24.15 52.17-53.36 50.72-1.68-.08-3.33-.25-4.96-.49 24.5-3.6 43.32-24.72 43.32-50.23 0-2.08-.12-4.14-.37-6.16 4.56.29 9.24-1.97 12.84-9.66 1.65 4.97 2.53 10.29 2.53 15.82z" fill="#ea2a6a"/><path d="m73.779 249.63c-3.26.49-6.61.66-10.04.49-26.83-1.33-48.21-23.84-48.21-50.71 0-5.53.88-10.85 2.53-15.83 0 0 5.38 7.61 12.57 12.58-.07 1.07-.1 2.16-.1 3.25 0 25.19 18.79 46.55 43.25 50.22z" fill="#f973a3"/><path d="m96.309 78.78v15.42c0 2.76-2.23 5-5 5h-15c2.77 0 5-2.24 5-5v-15.42c0-2.76-2.23-5-5-5h15c2.77 0 5 2.24 5 5z" fill="#ffcfcf"/><path d="m56.309 99.2h-15c-2.76 0-5-2.24-5-5v-15.42c0-2.76 2.24-5 5-5h15c-2.76 0-5 2.24-5 5v15.42c0 2.76 2.24 5 5 5z" fill="#ffefee"/><path d="m225.499 250.26h-15c11.55 0 18.77-12.5 12.99-22.5l-19.67-34.09c-5.65-9.77-8.92-20.71-9.58-31.93h15c.66 11.22 3.93 22.16 9.58 31.93l19.67 34.09c5.78 10-1.44 22.5-12.99 22.5z" fill="#307fed"/><path d="m178.569 161.74c-.8 10.89-4.04 21.47-9.52 30.95l-.57.98-19.67 34.09c-5.78 10 1.44 22.5 12.99 22.5h-15c-11.55 0-18.77-12.5-12.99-22.5l19.67-34.09.57-.98c5.48-9.48 8.72-20.06 9.52-30.95z" fill="#35b1fc"/><path d="m216.429 75.13v15.42c0 2.76-2.24 5-5 5h-15c2.76 0 5-2.24 5-5v-15.42c0-2.76-2.24-5-5-5h15c2.76 0 5 2.24 5 5z" fill="#ffcfcf"/><path d="m176.429 95.55h-15c-2.76 0-5-2.24-5-5v-15.42c0-2.76 2.24-5 5-5h15c-2.76 0-5 2.24-5 5v15.42c0 2.76 2.24 5 5 5z" fill="#ffefee"/><g fill="#5f266d"><path d="m163.749 37.86c9.96 0 18.06-8.1 18.06-18.06 0-9.95-8.1-18.05-18.06-18.05s-18.06 8.1-18.06 18.05c0 9.96 8.1 18.06 18.06 18.06zm0-28.11c5.55 0 10.06 4.51 10.06 10.05 0 5.55-4.51 10.06-10.06 10.06s-10.06-4.51-10.06-10.06c0-5.54 4.51-10.05 10.06-10.05z"/><path d="m50.539 37.86c9.95 0 18.06-8.1 18.06-18.06 0-9.95-8.11-18.05-18.06-18.05-9.96 0-18.06 8.1-18.06 18.05 0 9.96 8.1 18.06 18.06 18.06zm0-28.11c5.54 0 10.06 4.51 10.06 10.05 0 5.55-4.52 10.06-10.06 10.06-5.55 0-10.06-4.51-10.06-10.06 0-5.54 4.51-10.05 10.06-10.05z"/><path d="m164.729 52c0 7.21 5.87 13.07 13.08 13.07s13.07-5.86 13.07-13.07-5.86-13.08-13.07-13.08-13.08 5.87-13.08 13.08zm13.08 5.07c-2.8 0-5.08-2.28-5.08-5.07 0-2.8 2.28-5.08 5.08-5.08s5.07 2.28 5.07 5.08c0 2.79-2.27 5.07-5.07 5.07z"/><path d="m60.929 53.82c0 7.21 5.87 13.08 13.08 13.08s13.07-5.87 13.07-13.08-5.86-13.07-13.07-13.07-13.08 5.86-13.08 13.07zm13.08-5.07c2.8 0 5.07 2.27 5.07 5.07s-2.27 5.08-5.07 5.08-5.08-2.28-5.08-5.08 2.28-5.07 5.08-5.07z"/><path d="m200.339 37.41c7.21 0 13.08-5.86 13.08-13.07s-5.87-13.08-13.08-13.08-13.07 5.87-13.07 13.08 5.86 13.07 13.07 13.07zm0-18.15c2.8 0 5.08 2.28 5.08 5.08s-2.28 5.07-5.08 5.07-5.07-2.27-5.07-5.07 2.27-5.08 5.07-5.08z"/><path d="m92.159 35.36c7.21 0 13.07-5.86 13.07-13.07s-5.86-13.08-13.07-13.08-13.08 5.87-13.08 13.08 5.87 13.07 13.08 13.07zm0-18.15c2.8 0 5.07 2.28 5.07 5.08s-2.27 5.07-5.07 5.07-5.08-2.27-5.08-5.07 2.28-5.08 5.08-5.08z"/><path d="m241.939 225.76-19.67-34.09c-6.05-10.46-9.19-22.474-9.19-34.25v-58.02c4.17-.79 7.34-4.46 7.34-8.85v-15.42c0-4.96-4.04-9-9-9h-50c-4.97 0-9 4.04-9 9v15.42c0 4.39 3.16 8.06 7.33 8.85v57.02c0 11.96-3.189 23.9-9.18 34.27l-20.24 35.06c-7.322 12.664 1.804 28.5 16.45 28.5h78.7c14.661 0 23.766-15.838 16.46-28.49zm-16.46 20.49h-78.7c-8.461 0-13.77-9.132-9.52-16.5l20.24-35.06c5.375-9.255 8.789-20.457 9.68-28.94h38.37c0 16.353 15.073 39.076 29.46 64.01 4.228 7.308-1.027 16.49-9.53 16.49zm-14.06-172.12c.55 0 1 .45 1 1v15.42c0 .55-.45 1-1 1-10.035 0-38.555 0-50 0-.56 0-1-.45-1-1v-15.42c0-.55.44-1 1-1zm-43.67 82.29v-14.15h13.33c5.285 0 5.293-8 0-8h-13.33v-11.81h13.33c5.285 0 5.293-8 0-8h-13.33v-14.91h37.33v58.2h-37.34c.01-.45.01-.89.01-1.33z"/><path d="m90.079 150.04v-46.84h1.22c4.96 0 9-4.03 9-9v-15.42c0-4.96-4.04-9-9-9h-50c-4.96 0-9 4.04-9 9v15.42c0 4.97 4.04 9 9 9h1.21v46.84c-16.581 8.005-29.409 24.938-30.86 45.54-2.408 30.576 22.083 58.61 54.69 58.61h.01c31.866 0 56.879-27.154 54.6-58.55 0-13.094-9.112-35.115-30.87-45.6zm-23.79 96.15c-28.439 0-50.601-26.048-46.21-53.89 5.42 5.73 14.24 12.97 23.64 11.98 6.77-.72 12.34-5.45 16.57-14.1 3.76 2.79 9.55 5.95 15.68 5.18 3.84-.48 7.2-2.37 10.02-5.63 4.43 3.87 11.66 8.68 19.19 7.28 2.78-.51 5.28-1.79 7.48-3.82 4.374 22.97-14.679 53-46.37 53zm-18.22-89.89c1.48-.63 2.44-2.08 2.44-3.68v-13.36h13.33c5.285 0 5.293-8 0-8h-13.33v-8.09h13.33c5.285 0 5.293-8 0-8h-13.33v-11.97h31.57v49.42c0 1.6.96 3.05 2.44 3.68 12.18 5.16 21.34 15.03 25.7 26.98-1.87 3.44-4.05 5.42-6.5 5.87-5.36 1-11.93-4.87-13.82-6.69-2.656-2.55-6.942-2.125-9.05.86-1.75 2.49-3.67 3.83-5.88 4.11-4.51.57-9.58-3.29-11.55-4.97-3.066-2.619-7.808-1.504-9.42 2.23-3.11 7.26-6.85 11.18-11.11 11.63-7.43.79-16.26-8.26-20.33-13.39 4.45-11.75 13.54-21.56 25.51-26.63zm-7.77-62.1v-15.42c0-.55.45-1 1-1h50c.55 0 1 .45 1 1v15.42c0 .55-.45 1-1 1-5.789 0-44.598 0-50 0-.55 0-1-.45-1-1z"/><path d="m148.649 228.8-1.88 3.21c-2.701 4.648 4.31 8.537 6.91 4.04l1.88-3.21c2.672-4.555-4.228-8.612-6.91-4.04z"/><path d="m165.819 199.45-9.59 16.4c-2.681 4.571 4.241 8.603 6.9 4.04l9.59-16.4c2.686-4.58-4.252-8.596-6.9-4.04z"/></g></svg>