<svg id="Icon_Set" enable-background="new 0 0 256 256" height="512" viewBox="0 0 256 256" width="512" xmlns="http://www.w3.org/2000/svg"><path d="m181.661 4.94c-29.633 0-53.661 11.075-53.661 24.758 0-13.683-24.028-24.758-53.661-24.758s-53.661 11.075-53.661 24.758v133.198.954h.045 107.232.09 107.232.045v-.954-133.198c0-13.683-24.028-24.758-53.661-24.758z" fill="#ffe2e2"/><path d="m123.675 161.585h14.478v43.448h-14.478z" fill="#87828e"/><path d="m126.82 252h8.216c5.506 0 9.97-4.464 9.97-9.97v-33.718c0-5.523-4.477-10-10-10h-8.186c-5.523 0-10 4.477-10 10v33.688c0 5.523 4.478 10 10 10z" fill="#87828e"/><path d="m235.32 29.7v134.15h-15v-134.15c0-12.51-20.08-22.84-46.16-24.51 2.45-.17 4.95-.25 7.5-.25 29.63 0 53.66 11.07 53.66 24.76z" fill="#ffcfcf"/><path d="m81.84 5.19c-26.08 1.67-46.16 12-46.16 24.51v134.15h-15v-134.15c0-13.69 24.03-24.76 53.66-24.76 2.55 0 5.05.08 7.5.25z" fill="#ffefee"/><path d="m235.322 162.897c0 .313-.015.641-.045.954h-107.232c-.03-.313-.045-.641-.045-.954 0-13.669 24.028-24.759 53.661-24.759s53.661 11.09 53.661 24.759z" fill="#ffe2e2"/><path d="m128 162.897c0 .313-.015.641-.045.954h-107.232c-.03-.313-.045-.641-.045-.954 0-13.669 24.028-24.759 53.661-24.759s53.661 11.09 53.661 24.759z" fill="#ffe2e2"/><path d="m235.32 162.9c0 .31-.01.64-.04.95h-15c.03-.31.04-.64.04-.95 0-12.5-20.08-22.83-46.16-24.51 2.45-.17 4.95-.25 7.5-.25 29.63 0 53.66 11.09 53.66 24.76z" fill="#ffcfcf"/><path d="m35.68 162.9c0 .31.01.64.04.95h-15c-.03-.31-.04-.64-.04-.95 0-13.67 24.03-24.76 53.66-24.76 2.55 0 5.05.08 7.5.25-26.08 1.68-46.16 12.01-46.16 24.51z" fill="#ffefee"/><circle cx="128" cy="130.681" fill="#87828e" r="48.974"/><path d="m162.63 165.31c-11.46 11.46-27.23 16.04-42.13 13.75 9.94-1.52 19.49-6.11 27.13-13.75 19.09-19.09 19.09-50.16 0-69.26-7.64-7.64-17.19-12.22-27.13-13.75 14.9-2.29 30.67 2.3 42.13 13.75 19.09 19.1 19.09 50.17 0 69.26z" fill="#796e84"/><path d="m108.37 165.31c7.64 7.64 17.19 12.23 27.13 13.75-14.9 2.29-30.67-2.29-42.13-13.75-19.09-19.09-19.09-50.16 0-69.26 11.46-11.45 27.23-16.04 42.13-13.75-9.94 1.53-19.49 6.11-27.13 13.75-19.09 19.1-19.09 50.17 0 69.26z" fill="#a4a4a5"/><circle cx="128" cy="130.681" fill="#5fcdff" r="34.534"/><path d="m152.42 155.1c-8.67 8.67-20.78 11.76-31.92 9.29 6.2-1.37 12.1-4.47 16.92-9.29 13.49-13.49 13.49-35.35 0-48.84-4.82-4.82-10.72-7.92-16.92-9.28 11.14-2.48 23.25.62 31.92 9.28 13.49 13.49 13.49 35.35 0 48.84z" fill="#30b6ff"/><path d="m118.58 155.1c4.82 4.82 10.72 7.92 16.92 9.29-11.14 2.47-23.25-.62-31.92-9.29-13.49-13.49-13.49-35.35 0-48.84 8.67-8.66 20.78-11.76 31.92-9.28-6.2 1.36-12.1 4.46-16.92 9.28-13.49 13.49-13.49 35.35 0 48.84z" fill="#73d7f9"/><path d="m137.44 251.71c-.77.19-1.57.29-2.4.29h-8.22c-5.52 0-10-4.48-10-10v-33.69c0-5.52 4.48-10 10-10h8.19c.83 0 1.64.1 2.41.3-4.36 1.07-7.6 5.01-7.6 9.7v33.69c0 4.7 3.25 8.65 7.62 9.71z" fill="#a4a4a5"/><g fill="#5f266d"><path d="m181.66.47c-24.69 0-45.3 7.37-53.66 18.03-8.36-10.66-28.97-18.03-53.66-18.03-32.33 0-57.66 12.63-57.66 28.76v134.15c0 2.167 1.806 4 4.04 4h69.54c.09.1.18.19.28.29 8.21 8.21 18.46 13.15 29.13 14.84v13.3c-4.1 2.44-6.85 6.92-6.85 12.03v33.69c0 7.72 6.28 14 14 14h8.22c7.7 0 13.97-6.27 13.97-13.97v-33.72c0-5.11-2.75-9.59-6.86-12.03v-14.56c8.858-2.441 16.842-7.099 23.31-13.58.1-.1.19-.19.28-.29h69.54c.13 0 .26-.01.38-.02.13-.01.25-.03.38-.05 1.87-.34 3.28-1.97 3.28-3.93v-134.15c0-16.13-25.33-28.76-57.66-28.76zm-53.99 174.69c-23.578-.176-42.63-18.361-44.46-41.16-2.361-27.853 20.968-51.087 48.79-48.56 25.152 2.176 43.061 24.685 40.79 48.56-1.867 23.26-21.576 41.377-45.12 41.16zm13.34 66.4c0 3.29-2.68 5.97-5.97 5.97h-8.22c-3.31 0-6-2.69-6-6 0-.467-.011-33.673.02-34.14.14-1.97 1.24-3.67 2.83-4.65.91-.57 1.99-.9 3.15-.9h8.19c1.15 0 2.22.32 3.14.9 1.59.97 2.69 2.67 2.84 4.64.031.468.02 33.711.02 34.18zm-6.86-47.72h-6.48v-10.69c.11.01.22.01.33.01 2.05 0 4.1-.12 6.15-.36zm-109.47-164.61c0-9.82 20.39-20.76 49.66-20.76 29.26 0 49.66 10.94 49.66 20.76v48.17c-28.991 2.152-50.724 27.29-48.83 56.28-14.75-.527-37.922 3.305-50.49 13.93zm.63 130.15c5.558-13.551 34.875-17.938 50.99-17.69 1.37 6.2 3.86 12.21 7.48 17.69zm146.91 0c3.62-5.48 6.11-11.49 7.48-17.69 27.458-.423 47.27 8.62 50.99 17.69zm8.61-25.7c1.895-29.003-19.852-54.129-48.83-56.28v-48.17c0-9.82 20.4-20.76 49.66-20.76 29.27 0 49.66 10.94 49.66 20.76v118.38c-12.347-10.438-35.297-14.473-50.49-13.93z"/><path d="m56.99 46.11h34.15c5.285 0 5.293-8 0-8h-34.15c-5.288 0-5.285 8 0 8z"/><path d="m43.44 69.42h61.25c5.281 0 5.295-8 0-8h-61.25c-5.303 0-5.276 8 0 8z"/><path d="m43.44 92.72h35.59c5.285 0 5.293-8 0-8h-35.59c-5.285 0-5.293 8 0 8z"/><path d="m66.33 108.03h-22.89c-5.285 0-5.293 8 0 8h22.89c5.285 0 5.293-8 0-8z"/><path d="m210.18 108.03h-22.89c-5.285 0-5.293 8 0 8h22.89c5.284 0 5.295-8 0-8z"/><path d="m164.59 46.11h34.14c5.285 0 5.293-8 0-8h-34.14c-5.284 0-5.295 8 0 8z"/><path d="m212.29 61.42h-61.25c-5.305 0-5.275 8 0 8h61.25c5.278 0 5.294-8 0-8z"/><path d="m212.29 84.72h-35.32c-5.285 0-5.293 8 0 8h35.32c5.288 0 5.285-8 0-8z"/><path d="m166.27 134.67c2.494-21.574-13.122-40.595-34.27-42.76-24.3-2.558-45.137 17.971-42.27 42.76 2.079 18.713 18 33.911 37.94 34.06h.33c20.545 0 36.22-15.618 38.27-34.06zm-68.23 1.45c-4.064-20.537 13.287-38.881 33.96-36.16 17.45 2.276 29.385 18.86 25.96 36.16-6.394 33.11-53.702 32.193-59.92 0z"/><path d="m120.94 115.09c4.034-3.409-1.111-9.513-5.15-6.12-3.918 3.31-12.477 12.859-10.83 23.68.83 5.3 8.699 3.993 7.91-1.22-1.083-6.257 5.006-14.02 8.07-16.34z"/><path d="m120.6 141.55c-.35-.24-.68-.47-1.01-.71-4.284-3.15-9.019 3.256-4.75 6.44.41.3.84.6 1.28.9 4.442 2.963 8.815-3.711 4.48-6.63z"/></g></svg>