<svg id="Icon_Set" enable-background="new 0 0 256 256" height="512" viewBox="0 0 256 256" width="512" xmlns="http://www.w3.org/2000/svg"><path d="m203.927 208.891v36.35c0 2.761-2.239 5-5 5h-128.53c-6.23-4.89-9.35-12.79-9.35-20.67 0-7.9 3.12-15.78 9.35-20.68z" fill="#3193f3"/><path d="m224.927 172.541v31.35c0 2.761-2.239 5-5 5h-128.53c-6.23-4.89-9.35-12.79-9.35-20.67 0-7.9 3.12-15.78 9.35-20.68h128.53c2.762 0 5 2.238 5 5z" fill="#ff4a73"/><path d="m72.712 113.103c0-16.871-14.256-30.412-31.379-29.234-14.581 1.003-26.339 12.906-27.182 27.497-.364 6.303 1.268 12.202 4.319 17.13 2.949 4.762 4.517 10.249 4.517 15.85v16.779h39.386v-14.542c0-5.984 1.711-11.882 5.124-16.798 3.287-4.734 5.215-10.482 5.215-16.682z" fill="#f9d335"/><path d="m44.46 187.37h-3.597c-9.872 0-17.875-8.003-17.875-17.875v-8.37h39.347v8.37c0 9.872-8.003 17.875-17.875 17.875z" fill="#87828e"/><path d="m235.595 5.938c3.718-.996 7.12 2.406 6.124 6.124l-12.373 46.176-10.798 40.298c-1.237 4.616-7.624 5.033-9.45.616l-17.723-42.87-42.87-17.723c-4.416-1.826-4-8.213.616-9.45l40.298-10.798z" fill="#ffbb98"/><path d="m241.718 12.062-12.37 46.18-10.8 40.29c-1.24 4.62-7.62 5.04-9.45.62l-3.47-8.39 8.72-32.52 12.37-46.18c.35-1.31.16-2.58-.41-3.63l9.29-2.49c3.72-1 7.12 2.4 6.12 6.12z" fill="#ffaa80"/><path d="m241.718 12.062-2.86 10.68c-1.15-.85-2.68-1.23-4.26-.8l-46.18 12.37-30.45 8.16-9.46-3.91c-4.42-1.83-4-8.22.61-9.45l40.3-10.8 46.18-12.37c3.72-1 7.12 2.4 6.12 6.12z" fill="#ffcaa6"/><path d="m72.708 113.102c0 6.2-1.92 11.95-5.21 16.68-3.41 4.92-5.12 10.82-5.12 16.8v14.54h-15v-14.54c0-5.98 1.71-11.88 5.12-16.8 3.29-4.73 5.21-10.48 5.21-16.68 0-13.59-9.25-25.02-21.8-28.33 1.75-.47 3.57-.77 5.43-.9 17.12-1.18 31.37 12.36 31.37 29.23z" fill="#f2c300"/><path d="m33.468 128.492c2.95 4.77 4.52 10.25 4.52 15.85v16.78h-15v-16.78c0-5.6-1.57-11.08-4.52-15.85-3.05-4.92-4.68-10.82-4.32-17.13.85-14.59 12.6-26.49 27.19-27.49 3.33-.23 6.54.1 9.57.9-11.98 3.18-21.02 13.86-21.76 26.59-.36 6.31 1.27 12.21 4.32 17.13z" fill="#f9e27d"/><path d="m62.338 161.122v8.37c0 9.88-8.01 17.88-17.88 17.88h-3.6c-1.99 0-3.91-.33-5.7-.93 7.08-2.38 12.18-9.06 12.18-16.95v-8.37z" fill="#796e84"/><path d="m50.158 186.442c-1.79.6-3.71.93-5.7.93h-3.6c-9.87 0-17.87-8-17.87-17.88v-8.37h15v8.37c0 7.89 5.1 14.57 12.17 16.95z" fill="#a4a4a5"/><path d="m22.987 153.65h39.386v16.779h-39.386z" fill="#87828e"/><path d="m47.378 153.652h15v16.78h-15z" fill="#796e84"/><path d="m22.988 153.652h15v16.78h-15z" fill="#a4a4a5"/><path d="m224.928 172.542v31.35c0 2.76-2.24 5-5 5h-15c2.76 0 5-2.24 5-5v-31.35c0-2.76-2.24-5-5-5h15c2.76 0 5 2.24 5 5z" fill="#ea2a6a"/><path d="m106.398 208.892h-15c-6.23-4.89-9.35-12.79-9.35-20.67 0-7.9 3.12-15.78 9.35-20.68h15c-6.23 4.9-9.35 12.78-9.35 20.68 0 7.88 3.12 15.78 9.35 20.67z" fill="#f973a3"/><path d="m203.928 208.892v36.35c0 2.76-2.24 5-5 5h-15c2.76 0 5-2.24 5-5v-36.35z" fill="#307fed"/><path d="m85.398 250.242h-15c-6.23-4.89-9.35-12.79-9.35-20.67 0-7.9 3.12-15.78 9.35-20.68h15c-6.23 4.9-9.35 12.78-9.35 20.68 0 7.88 3.12 15.78 9.35 20.67z" fill="#35b1fc"/><g fill="#5f266d"><path d="m219.928 163.542h-128.53c-.9 0-1.77.3-2.47.86-6.81 5.35-10.88 14.26-10.88 23.82 0 6.07 1.64 11.88 4.58 16.67h-12.23c-.9 0-1.77.3-2.47.86-6.81 5.35-10.88 14.26-10.88 23.82s4.07 18.47 10.88 23.82c.7.55 1.57.85 2.47.85h128.53c4.96 0 9-4.04 9-9v-32.35h12c4.96 0 9-4.04 9-9v-31.35c0-4.961-4.04-9-9-9zm-70.7 28.67h71.7v11.68c0 .55-.45 1-1 1-5.408 0-121.987 0-127.07 0-4.29-3.92-6.81-10.04-6.81-16.67 0-6.62 2.53-12.76 6.81-16.68h127.07c.55 0 1 .45 1 1v11.67h-71.7c-5.281 0-5.295 8 0 8zm50.7 33.35h-67.44c-5.281 0-5.294 8 0 8h67.44v11.68c0 .55-.45 1-1 1h-127.07c-4.29-3.92-6.81-10.04-6.81-16.67s2.53-12.76 6.81-16.68h128.07z"/><path d="m66.248 171.432c.202-.719.13.653.13-24.85 0-5.34 1.52-10.36 4.41-14.52 3.87-5.58 5.92-12.14 5.92-18.96 0-18.801-15.848-34.597-35.65-33.22-16.65 1.14-29.94 14.58-30.9 31.25-.4 6.91 1.3 13.64 4.91 19.47 2.56 4.14 3.92 8.89 3.92 13.74 0 .534-.039 26.317.07 26.84 0 .02.01.04.01.06.88 11.25 10.32 20.13 21.79 20.13h3.6c11.41 0 20.81-8.78 21.79-19.94zm-21.79 11.94h-3.6c-5.91 0-10.97-3.72-12.96-8.94h29.53c-1.99 5.22-7.06 8.94-12.97 8.94zm-26.31-71.77c.73-12.67 10.81-22.87 23.46-23.74 14.784-1.019 27.1 10.619 27.1 25.24 0 5.18-1.55 10.16-4.5 14.4-3.82 5.5-5.83 12.1-5.83 19.08v3.07h-11.7v-17.23l10.44-10.44c3.729-3.729-1.894-9.402-5.66-5.66l-4.77 4.77v-6.75c0-5.285-8-5.293-8 0v6.76l-4.78-4.78c-3.74-3.74-9.4 1.92-5.66 5.66l10.43 10.42v17.25h-11.69v-5.31c0-6.34-1.77-12.55-5.12-17.95-2.74-4.43-4.03-9.54-3.72-14.79zm8.84 46.05h31.39c0 7.689-.04 7.507-.04 8.78h-31.35c0-9.446 0 .55 0-8.78z"/><path d="m47.406 71.203v-10.75c0-5.285-8-5.292-8 0v10.75c0 5.285 8 5.292 8 0z"/><path d="m62.434 79.823 7.602-7.602c3.736-3.737-1.913-9.399-5.657-5.657l-7.602 7.602c-3.737 3.738 1.929 9.383 5.657 5.657z"/><path d="m24.379 79.823c3.734 3.731 9.391-1.922 5.657-5.657l-7.602-7.602c-3.738-3.736-9.399 1.914-5.657 5.657z"/><path d="m234.558 2.072-86.47 23.17c-8.317 2.238-9.048 13.743-1.11 17.01l41.33 17.09 17.09 41.34c3.291 7.948 14.791 7.195 17.01-1.11l23.17-86.47c1.812-6.718-4.327-12.81-11.02-11.03zm-21.76 95.55-16.71-40.39 17.09-17.09c3.738-3.762-1.928-9.392-5.66-5.66l-17.08 17.08-40.4-16.7c-.901-.369-.818-1.645.12-1.89l86.47-23.17c.786-.201 1.417.503 1.23 1.22l-23.17 86.48c-.265.936-1.517 1.031-1.89.12z"/><path d="m149.992 96.379c21.257 2.556 32.778-11.512 33.193-27.216.137-5.231-7.82-5.545-7.997-.224-.342 10.075-6.518 19.092-18.519 19.72 1.448-3.389 1.538-7.127.249-10.586-2.75-7.36-10.98-11.12-18.34-8.37-7.338 2.734-11.139 10.907-8.37 18.34 1.5 4.016 4.801 7.053 7.833 8.147-8.949 5.703-18.806 2.431-24.953-4.154-3.574-3.888-9.458 1.508-5.897 5.406 7.945 8.703 26.19 17.126 42.801-1.063zm-8.614-19.187c3.32-1.216 6.889.526 8.04 3.68 1.207 3.192-.4 6.813-3.67 8.05-3.23 1.201-6.832-.439-8.05-3.68-1.2-3.23.45-6.84 3.68-8.05z"/></g></svg>