<svg id="Icon_Set" enable-background="new 0 0 256 256" height="512" viewBox="0 0 256 256" width="512" xmlns="http://www.w3.org/2000/svg"><path d="m150.712 154.618v34.251c0 4.028-3.256 7.284-7.284 7.284h-102.792c-4.021 0-7.284-3.256-7.284-7.284v-34.251c0-15.943 6.355-30.394 16.692-40.949 5.31-5.488 11.704-9.798 17.785-12.492 7.732-3.535 15.975-5.231 24.196-5.231 5.965 0 11.703.89 17.122 2.545 10.107 3.119 19.181 8.873 26.171 16.529 9.554 10.438 15.394 24.342 15.394 39.598z" fill="#3193f3"/><path d="m150.71 154.618v34.25c0 4.03-3.25 7.29-7.28 7.29h-15c4.03 0 7.28-3.26 7.28-7.29v-34.25c0-15.26-5.84-29.16-15.39-39.6-9.129-9.989-21.88-16.819-35.79-18.59 2.45-.32 4.95-.48 7.49-.48 5.97 0 11.71.89 17.13 2.54 10.657 3.357 19.432 9.157 26.17 16.53 9.55 10.44 15.39 24.34 15.39 39.6z" fill="#307fed"/><path d="m99.53 96.428c-3.31.42-6.52 1.11-9.63 2.06-9.61 2.961-18.149 8.242-24.86 15.18-10.33 10.56-16.69 25.01-16.69 40.95v34.25c0 4.03 3.27 7.29 7.29 7.29h-15c-4.02 0-7.29-3.26-7.29-7.29v-34.25c0-15.94 6.36-30.39 16.69-40.95 5.31-5.49 11.71-9.8 17.79-12.49 6.91-3.224 15.359-5.23 24.19-5.23 2.55 0 5.05.16 7.51.48z" fill="#35b1fc"/><path d="m80.646 141.048h22.759v85.835h-22.759z" fill="#5fcdff"/><path d="m155.96 213.058-52.556 13.825v-85.835l50.282-10.287c3.1-.634 6.002 1.734 6.002 4.899v72.563c0 2.271-1.531 4.258-3.728 4.835z" fill="#5fcdff"/><path d="m28.089 213.058 52.556 13.825v-85.835l-50.282-10.287c-3.1-.634-6.002 1.734-6.002 4.899v72.563c0 2.271 1.531 4.258 3.728 4.835z" fill="#5fcdff"/><path d="m111.313 103.744c-5.945 10.311-3.122 5.42-12.955 22.437-2.815 4.872-9.843 4.872-12.658 0-10.135-17.558-7.713-13.363-12.946-22.428 5.72 3.158 12.279 4.953 19.271 4.953s13.568-1.795 19.288-4.962z" fill="#ffbb98"/><path d="m99.53 124.148c-.36.64-.76 1.31-1.17 2.03-2.82 4.87-9.85 4.87-12.66 0-10.13-17.55-7.71-13.36-12.95-22.43 5.33 2.95 11.39 4.71 17.85 4.94 1.87 3.22 2.49 4.31 8.93 15.46z" fill="#ffcaa6"/><path d="m55.928 85.808c-1.57.659-3.293 1.028-5.106 1.028-7.281 0-13.199-5.918-13.199-13.199 0-7.317 5.918-13.217 13.199-13.217.731 0 1.443.054 2.129.171-.063.298-.126.595-.18.893-.198 1.056-.343 2.12-.46 3.203 0 1.218-.672 4.741.307 10.465 0 .176.32 1.749.361 1.931.113.902 1.149 4.768 2.607 7.966-.018.018 0 .027.009.045.107.245.216.48.333.714z" fill="#ffbb98"/><path d="m146.426 73.629c0 7.29-5.891 13.199-13.19 13.199-1.804 0-3.528-.37-5.097-1.019.117-.244.235-.496.343-.74 1.781-3.67 2.987-9.313 3.113-10.953.242-1.347.37-3.964.37-5.35 0-2.933-.325-5.692-.776-7.777-.027-.135-.054-.262-.081-.397.695-.117 1.407-.171 2.129-.171 7.298 0 13.189 5.909 13.189 13.208z" fill="#ffbb98"/><path d="m131.188 60.99c-3.611-18.332-19.764-32.147-39.163-32.147-19.559 0-35.83 14.063-39.251 32.643-.205 1.053-.351 2.12-.468 3.202 0 1.091-.655 4.83.308 10.467 0 .151.324 1.751.365 1.93.089.902 1.18 4.823 2.602 7.967-.014.014 0 .029.014.044 6.228 13.917 20.203 23.609 36.429 23.609 16.256 0 30.231-9.707 36.459-23.638 1.838-3.864 2.977-9.303 3.113-10.95.249-1.488.366-3.816.366-5.351.001-2.932-.323-5.697-.774-7.776z" fill="#ffbb98"/><path d="m131.96 68.768c0 1.53-.11 3.86-.36 5.35-.14 1.65-1.28 7.09-3.12 10.95-6.22 13.93-20.2 23.64-36.46 23.64-2.56 0-5.06-.24-7.49-.71 43.397-8.231 42.687-70.314 0-78.45 2.43-.46 4.93-.7 7.49-.7 19.4 0 35.56 13.81 39.17 32.14.45 2.08.77 4.85.77 7.78z" fill="#ffaa80"/><path d="m99.53 107.998c-2.43.47-4.94.71-7.51.71-16.22 0-30.2-9.69-36.42-23.61-.02-.02-.03-.03-.02-.05-1.42-3.14-2.51-7.06-2.6-7.96-.04-.18-.37-1.78-.37-1.93-.96-5.64-.3-9.38-.3-10.47.11-1.08.26-2.15.46-3.2 3.42-18.58 19.7-32.64 39.25-32.64 2.57 0 5.08.24 7.51.7-43.959 8.355-41.363 70.625 0 78.45z" fill="#ffcaa6"/><path d="m39.143 58.278v2.051c0 1.657 1.343 3 3 3h6.979c6.945 0 13.367-4.05 16.847-10.641l5.59-10.641 5.605 10.641c1.74 3.296 4.22 5.96 7.13 7.792 2.895 1.832 6.252 2.849 9.717 2.849h47.911c1.657 0 3-1.343 3-3v-2.051c0-28.597-22.699-51.881-51.049-52.851-.602-.031-1.218-.031-1.833-.031-.616 0-1.232 0-1.832.031-13.874.477-26.394 6.283-35.573 15.461-9.578 9.563-15.492 22.776-15.492 37.39z" fill="#87828e"/><path d="m144.92 58.278v2.05c0 1.66-1.34 3-3 3h-15c1.66 0 3-1.34 3-3v-2.05c0-26.66-19.72-48.7-45.37-52.35 1.86-.27 3.75-.43 5.66-.5.6-.03 1.21-.03 1.83-.03s1.23 0 1.83.03c28.35.97 51.05 24.25 51.05 52.85z" fill="#796e84"/><path d="m54.14 58.278v2.05c0 .79.3 1.5.8 2.03-1.86.63-3.82.97-5.82.97h-6.98c-1.65 0-3-1.34-3-3v-2.05c0-14.61 5.92-27.83 15.5-37.39 9.17-9.18 21.69-14.98 35.57-15.46.6-.03 1.21-.03 1.83-.03s1.23 0 1.83.03c1.92.07 3.82.24 5.68.5-11.61 1.64-22 7.05-29.91 14.96-9.58 9.56-15.5 22.78-15.5 37.39z" fill="#a4a4a5"/><path d="m80.64 141.048v85.84l-15-3.95v-84.96z" fill="#30b6ff"/><path d="m40.49 132.828c-.7 1.01-1.13 2.31-1.13 3.75v79.45l-11.27-2.97c-2.2-.58-3.73-2.56-3.73-4.84v-72.56c0-3.16 2.9-5.53 6-4.9z" fill="#73d7f9"/><path d="m80.65 141.048h11v85.84h-11z" fill="#73d7f9"/><path d="m159.69 135.658v72.56c0 2.28-1.53 4.26-3.73 4.84l-11.27 2.97v-79.13c0-1.56-.45-2.97-1.2-4.05l10.2-2.09c3.1-.63 6 1.74 6 4.9z" fill="#30b6ff"/><path d="m118.4 137.978v84.96l-15 3.95v-85.84z" fill="#73d7f9"/><circle cx="183.028" cy="202.028" fill="#ff4a73" r="48.612"/><path d="m187.511 180.563 5.406 10.955 12.089 1.757c4.101.596 5.739 5.636 2.771 8.528l-8.748 8.527 2.065 12.04c.701 4.085-3.587 7.199-7.255 5.271l-10.813-5.685-10.813 5.685c-3.668 1.928-7.955-1.186-7.255-5.271l2.065-12.04-8.748-8.527c-2.968-2.893-1.33-7.933 2.771-8.528l12.089-1.757 5.406-10.955c1.837-3.716 7.136-3.716 8.97 0z" fill="#f9d335"/><path d="m231.64 202.028c0 26.85-21.76 48.61-48.61 48.61-2.55 0-5.05-.2-7.5-.57 23.28-3.61 41.11-23.74 41.11-48.04s-17.83-44.43-41.11-48.03c2.45-.38 4.95-.58 7.5-.58 26.85 0 48.61 21.76 48.61 48.61z" fill="#ea2a6a"/><path d="m190.53 250.068c-2.45.37-4.95.57-7.5.57-26.85 0-48.61-21.76-48.61-48.61s21.76-48.61 48.61-48.61c2.55 0 5.05.2 7.5.58-23.28 3.6-41.11 23.73-41.11 48.03s17.83 44.43 41.11 48.04z" fill="#f973a3"/><path d="m207.78 201.808-8.75 8.52 2.07 12.04c.7 4.09-3.59 7.2-7.26 5.27l-7.68-4.04c.03-.4.01-.81-.06-1.23l-2.07-12.04 8.75-8.52c2.97-2.9 1.33-7.94-2.77-8.53l-12.09-1.76-2.39-4.84 3.01-6.11c1.84-3.72 7.14-3.72 8.97 0l5.41 10.95 12.09 1.76c4.1.59 5.74 5.63 2.77 8.53z" fill="#f2c300"/><path d="m173.28 201.808 8.75 8.52-2.07 12.04c-.07.42-.09.83-.06 1.23l-7.69 4.04c-3.66 1.93-7.95-1.18-7.25-5.27l2.07-12.04-8.75-8.52c-2.97-2.9-1.33-7.94 2.77-8.53l12.09-1.76 5.4-10.95c1.84-3.72 7.14-3.72 8.97 0l3.02 6.11-2.39 4.84-12.09 1.76c-4.1.59-5.74 5.63-2.77 8.53z" fill="#f9e27d"/><g fill="#5f266d"><path d="m183.03 149.418c-6.83 0-13.36 1.31-19.34 3.69v-17.45c0-5.693-5.224-9.954-10.81-8.82l-4.24.87c-2.65-5.56-6.13-10.75-10.37-15.39-4.45-4.88-9.62-8.98-15.42-12.25 2.85-2.79 5.32-5.98 7.33-9.52 1.01.19 2.03.28 3.06.28 9.47 0 17.19-7.72 17.19-17.2 0-3.44-1.01-6.64-2.75-9.32.78-1.13 1.24-2.5 1.24-3.98 0-37.76-29.656-60.355-58.85-58.9-28.767.995-54.93 23.611-54.93 58.9 0 1.47.46 2.84 1.24 3.97-1.75 2.69-2.76 5.9-2.76 9.34 0 9.48 7.72 17.2 17.2 17.2 1.04 0 2.06-.09 3.07-.28 2.01 3.52 4.47 6.71 7.3 9.49-5.09 2.89-9.94 6.63-14 10.82-4.89 5-8.85 10.68-11.78 16.84l-4.25-.87c-5.617-1.14-10.8 3.166-10.8 8.82v72.56c0 4.059 2.723 7.658 6.71 8.71l52.34 13.76c.399.109.721.2 1.21.2h.02.01 22.75c.491 0 .834-.089 1.24-.2l30.05-7.9c8.07 18.72 26.7 31.85 48.34 31.85 29.01 0 52.61-23.6 52.61-52.61s-23.6-52.61-52.61-52.61zm0 97.22c-24.685 0-44.61-20.098-44.61-44.61 0-24.729 20.129-44.61 44.61-44.61 24.6 0 44.61 20.01 44.61 44.61s-20.01 44.61-44.61 44.61zm-75.63-24.94c0-42.864 0-40.625 0-77.39 1.183-.242 42.595-8.715 47.09-9.63.59-.124 1.2.324 1.2.98v21.44c-14.96 9.064-25.27 25.803-25.27 44.93 0 4.55.58 8.96 1.67 13.17zm-8 1.19h-14.75c0-9.139 0-70.152 0-77.84h14.75zm-71.04-87.23c0-.643.591-1.105 1.2-.98 10.199 2.091 19.513 3.994 47.08 9.63v77.39l-47.53-12.51c-.44-.11-.75-.51-.75-.97zm27.87-69.52c5.54-1.91 10.33-5.99 13.28-11.59l2.05-3.91 2.07 3.92c3.983 7.554 11.623 12.77 20.38 12.77h33.92c.846 20.277-15.457 37.38-35.91 37.38-22.087 0-37.045-18.524-35.79-38.57zm-14.61 7.5c0-2.44.95-4.66 2.51-6.31h4c-.339 8.814 2.04 14.5 2.29 15.5-4.88-.21-8.8-4.25-8.8-9.19zm99.3-14.31c-10.083 0-36.851 0-46.91 0-5.46 0-10.533-3.248-13.31-8.5l-5.6-10.65c-1.451-2.774-5.561-2.895-7.08.01-2.498 4.756-1.282 2.444-5.59 10.63-5.149 9.641-13.441 8.51-19.29 8.51v-1.09c.02-26.519 21.046-47.916 47.27-48.82 26.014-.983 50.51 19.101 50.51 49.91zm-7.26 23.49c1.429-4.763 2.424-8.597 2.28-15.49h3.99c1.55 1.64 2.5 3.86 2.5 6.3 0 4.93-3.9 8.97-8.77 9.19zm-31.44 28.69c-.75 1.29-1.72 2.98-3.28 5.66l-4.05 7.01c-1.265 2.207-4.44 2.224-5.73 0l-7.31-12.67c1.002.335 5.688 1.2 10.17 1.2 3.354 0 6.695-.403 10.2-1.2zm-32.41-4.85 12.43 21.52c4.351 7.551 15.231 7.547 19.58 0 8.406-14.529 8.182-14.146 12.43-21.52.62-.35 1.23-.73 1.83-1.13 6.22 3.07 11.69 7.16 16.29 12.19 3.25 3.55 5.98 7.47 8.16 11.65l-37.54 7.68h-21.93l-37.54-7.68c2.45-4.69 5.6-9.04 9.4-12.92 4.3-4.43 9.59-8.27 15.06-10.93.6.4 1.21.78 1.83 1.14z"/><path d="m205.58 189.318-10.01-1.46-4.47-9.07c-3.346-6.714-12.878-6.642-16.14.01l-4.48 9.06c-.621.091-10.182 1.465-10.79 1.61-6.829 1.573-9.329 10.216-4.2 15.2.395.395 6.84 6.67 7.24 7.06-.187 1.067.072-.439-1.71 9.97-1.268 7.305 6.427 12.97 13.06 9.48l8.95-4.7c9.564 5.022 10.347 5.75 13.15 5.75 5.393 0 9.825-4.871 8.86-10.53l-1.71-9.97 7.24-7.06c5.336-5.206 2.393-14.292-4.99-15.35zm-24.41 29.1-10.82 5.68c-.728.388-1.583-.217-1.45-1.05l2.07-12.04c.22-1.3-.21-2.62-1.15-3.54-7.195-7.019-5.374-5.244-8.75-8.53-.597-.581-.27-1.579.55-1.71 2.74-.397.421-.061 12.09-1.75 1.31-.19 2.43-1.01 3.01-2.19l5.41-10.95c.371-.759 1.439-.749 1.79 0l5.41 10.95c.58 1.18 1.71 2 3.01 2.19l12.09 1.75c.81.127 1.165 1.105.56 1.71l-8.75 8.53c-.94.92-1.37 2.24-1.15 3.54l2.06 12.04c.144.8-.688 1.448-1.45 1.05l-10.81-5.68c-1.126-.602-2.551-.625-3.72 0z"/><path d="m46.14 180.048v-31c0-5.285-8-5.293-8 0v31c0 5.285 8 5.293 8 0z"/><path d="m46.01 200.158c.201-.714.13-1.159.13-5.11 0-5.237-8-5.303-8 0 0 .557-.047 4.301.07 4.84.769 4.207 6.748 4.38 7.8.27z"/></g></svg>