<svg id="Icon_Set" enable-background="new 0 0 256 256" height="512" viewBox="0 0 256 256" width="512" xmlns="http://www.w3.org/2000/svg"><path d="m243.941 220.139c0 9.41-4.22 17.82-10.87 23.46-5.36 4.55-12.3 7.29-19.88 7.29-7.64 0-14.64-2.79-20.01-7.4-6.58-5.64-10.74-14.01-10.74-23.35s4.16-17.71 10.74-23.34c5.37-4.62 12.37-7.41 20.01-7.41 7.58 0 14.52 2.74 19.88 7.29 6.65 5.64 10.87 14.061 10.87 23.46z" fill="#b76c6c"/><path d="m243.941 220.139c0 9.41-4.22 17.82-10.87 23.46-6.65-5.63-10.87-14.05-10.87-23.46 0-9.4 4.22-17.82 10.87-23.46 6.65 5.64 10.87 14.061 10.87 23.46z" fill="#965959"/><path d="m203.911 220.139c0 9.34-4.16 17.71-10.73 23.35-6.58-5.64-10.74-14.01-10.74-23.35s4.16-17.71 10.74-23.34c6.57 5.64 10.73 14.001 10.73 23.34z" fill="#c98585"/><path d="m144.199 189.395-17.442 17.442-107.89-97.977c-8.291-7.529-8.602-20.46-.683-28.379 7.937-7.937 20.904-7.603 28.422.731z" fill="#ffbb98"/><path d="m128.731 195.793h24.688v15.808h-24.688z" fill="#b76c6c" transform="matrix(.707 -.707 .707 .707 -102.716 159.416)"/><path d="m164.12 226.743c-4.821 4.821-12.636 4.821-17.457 0l-8.728-8.728 17.457-17.457 8.728 8.728c4.82 4.821 4.82 12.636 0 17.457z" fill="#ffbb98"/><path d="m176.638 114.52h-60.641c-2.761 0-5-2.239-5-5v-17.234h65.641c2.761 0 5 2.239 5 5v12.234c0 2.761-2.238 5-5 5z" fill="#b76c6c"/><path d="m181.638 97.29v12.23c0 2.76-2.24 5-5 5h-15c2.76 0 5-2.24 5-5v-12.23c0-2.77-2.24-5-5-5h15c2.76 0 5 2.23 5 5z" fill="#965959"/><path d="m130.998 114.52h-15c-2.76 0-5-2.24-5-5v-17.23h15v17.23c0 2.76 2.24 5 5 5z" fill="#c98585"/><path d="m174.003 101.368c8.29 0 15-6.83 15-15.11v-51.15c0-16.569-13.431-30-30-30h-22.66c-16.569 0-30 13.431-30 30v31.42l-6.245-6.245c-4.845-4.845-12.802-5.13-17.671-.309-2.429 2.405-3.654 5.585-3.654 8.764 0 3.15 1.21 6.31 3.61 8.72l19.569 19.528c2.812 2.806 6.623 4.382 10.596 4.382z" fill="#b76c6c"/><path d="m189.008 35.11v51.15c0 8.28-6.71 15.11-15 15.11h-15c8.29 0 15-6.83 15-15.11v-51.15c0-16.57-13.44-30-30-30h15c16.56 0 30 13.43 30 30z" fill="#965959"/><path d="m116.948 96.99c2.82 2.8 6.63 4.38 10.6 4.38h-15c-3.97 0-7.78-1.58-10.6-4.38l-19.56-19.53c-2.4-2.41-3.62-5.57-3.62-8.72 0-3.18 1.23-6.36 3.66-8.77 4.39-4.35 11.29-4.54 16.15-.99-.4.29-.78.63-1.15.99-2.43 2.41-3.66 5.59-3.66 8.77 0 3.15 1.22 6.31 3.62 8.72z" fill="#c98585"/><path d="m151.348 5.11c-16.57 0-30 13.43-30 30v31.42l-6.25-6.25c-2.41-2.41-5.57-3.68-8.75-3.77v-21.4c0-16.57 13.43-30 30-30z" fill="#c98585"/><path d="m144.198 189.39-7.47 7.48-97.12-107.66c-3.88-4.3-9.22-6.47-14.57-6.47-3.72 0-7.44 1.05-10.68 3.17.92-1.96 2.2-3.8 3.83-5.43 3.83-3.84 8.85-5.74 13.85-5.74 5.35 0 10.69 2.17 14.57 6.47z" fill="#ffaa80"/><path d="m134.228 199.36-7.47 7.48-107.89-97.98c-8.29-7.53-8.6-20.46-.68-28.38 1.63-1.63 3.47-2.91 5.43-3.84-5.15 7.89-4.01 18.62 3.25 25.22z" fill="#ffcaa6"/><path d="m130.692 200.523h11.314v15.804h-11.314z" fill="#c98585" transform="matrix(.707 -.707 .707 .707 -107.443 157.459)"/><path d="m167.138 221.78c-.57 1.81-1.58 3.52-3.02 4.96-4.82 4.82-12.63 4.82-17.46 0l-8.72-8.73 8-8 8.72 8.73c3.38 3.38 8.23 4.39 12.48 3.04z" fill="#ffcaa6"/><g fill="#5f266d"><path d="m185.638 109.52v-8.17c4.48-3.49 7.37-8.96 7.37-15.09v-51.15c0-18.75-15.26-34-34-34h-22.66c-18.75 0-34 15.25-34 34v21.79c-15.994-14.547-37.684 8.447-22.79 23.39l19.57 19.53c2.24 2.23 4.93 3.84 7.87 4.73v4.97c0 4.96 4.04 9 9 9h60.64c4.96 0 9-4.04 9-9zm-88.37-46.41 6.25 6.25.07.07c10.569 10.364 28.275 18.97 45.12 18.97 13.414 0 25.577-4.928 36.3-13.17v11.03c0 6.125-4.953 11.11-11 11.11-6.657 0-55.262 0-61.46 0-2.929 0-5.69-1.14-7.77-3.22l-19.56-19.51c-7.792-7.842 3.949-19.632 12.05-11.53zm30.09-52.4v44.55c0 5.285 8 5.293 8 0v-46.13c1-.03.222-.02 9.25-.02v46.15c0 5.285 8 5.293 8 0v-46.15c6.825 0 7.41-.038 9 .13v46.02c0 5.285 8 5.293 8 0v-43.88c9.07 4.06 15.4 13.17 15.4 23.73v29.68c-35.1 32.03-67.98 6-74.66.01v-29.69c0-11.18 7.09-20.73 17.01-24.4zm50.28 98.81c0 .55-.45 1-1 1h-60.64c-.55 0-1-.45-1-1v-4.15h59.01c1.24 0 2.46-.12 3.63-.36z"/><path d="m213.188 185.39c-19.1 0-34.75 15.489-34.75 34.75 0 19.252 15.623 34.75 34.75 34.75 19.078 0 34.75-15.444 34.75-34.75 0-19.312-15.678-34.75-34.75-34.75zm0 61.5c-4.92 0-9.71-1.36-13.86-3.88 5.5-6.29 8.58-14.4 8.58-22.87s-3.08-16.57-8.58-22.87c4.15-2.52 8.94-3.88 13.86-3.88 4.85 0 9.59 1.32 13.71 3.77-5.58 6.3-8.7 14.44-8.7 22.98s3.12 16.68 8.69 22.98c-4.11 2.45-8.85 3.77-13.7 3.77zm-20-44.49c4.3 4.87 6.72 11.15 6.72 17.74s-2.42 12.88-6.72 17.74c-3.359-3.357-6.75-10.466-6.75-17.74 0-7.203 3.224-14.216 6.75-17.74zm39.87 35.63c-4.39-4.88-6.86-11.22-6.86-17.89 0-6.66 2.47-13.01 6.87-17.89 3.718 3.721 6.87 10.646 6.87 17.89 0 7.134-3.026 14.037-6.88 17.89z"/><path d="m147.038 186.55c-.05-.05-.1-.1-.15-.14l-97.31-107.88c-21.834-24.177-57.676 11.275-33.4 33.29l107.75 97.85.14.13c7.572 7.572 12.028 12.028 19.77 19.77 15.159 15.206 38.403-7.817 23.11-23.11-11.813-11.813-12.508-12.509-19.91-19.91zm2.45 37.36-5.89-5.89 11.8-11.8 5.89 5.89c7.799 7.798-3.992 19.608-11.8 11.8zm-105.85-140.02 95.05 105.36c-4.523 4.523-7.539 7.539-12.06 12.06l-105.07-95.41c-16.387-14.897 8.176-37.401 22.08-22.01zm100.58 111.15 5.52 5.52-11.8 11.8-5.52-5.52z"/><path d="m50.998 119.08c3.915 3.503 9.32-2.405 5.33-5.96l-25.34-22.67c-3.972-3.538-9.264 2.455-5.33 5.96z"/><path d="m63.758 130.5c3.953 3.491 9.312-2.4 5.34-5.96l-1.59-1.42c-3.957-3.525-9.277 2.443-5.33 5.96z"/></g></svg>