<svg id="Icon_Set" enable-background="new 0 0 256 256" height="512" viewBox="0 0 256 256" width="512" xmlns="http://www.w3.org/2000/svg"><path d="m169.21 251.056h-147.407c-2.761 0-5-2.239-5-5v-222.77c0-2.761 2.239-5 5-5h147.407c2.761 0 5 2.239 5 5v222.77c0 2.762-2.238 5-5 5z" fill="#ffe2e2"/><circle cx="105.507" cy="75.733" fill="#3193f3" r="17.447"/><circle cx="79.533" cy="120.722" fill="#ff4a73" r="11.323"/><circle cx="131.481" cy="120.722" fill="#ff4a73" r="11.323"/><circle cx="53.558" cy="168.382" fill="#f9d335" r="11.323"/><circle cx="105.507" cy="164.97" fill="#f9d335" r="11.323"/><path d="m113.01 91.494c-2.27 1.08-4.82 1.69-7.5 1.69-9.64 0-17.45-7.82-17.45-17.45 0-9.64 7.81-17.45 17.45-17.45 2.68 0 5.23.61 7.5 1.69-5.88 2.8-9.95 8.8-9.95 15.76 0 6.95 4.07 12.95 9.95 15.76z" fill="#35b1fc"/><path d="m174.21 23.284v222.77c0 2.76-2.24 5-5 5h-15c2.76 0 5-2.24 5-5v-222.77c0-2.76-2.24-5-5-5h15c2.76 0 5 2.24 5 5z" fill="#ffcfcf"/><path d="m36.8 251.054h-15c-2.76 0-5-2.24-5-5v-222.77c0-2.76 2.24-5 5-5h15c-2.76 0-5 2.24-5 5v222.77c0 2.76 2.24 5 5 5z" fill="#ffefee"/><path d="m149.07 227.724c-.31.09-19.64 5.87-19.66 5.87-.78.23-1.53.01-2.05-.46-.58-.51-.88-1.34-.63-2.2 1.93-6.56 3.86-13.11 5.79-19.68l8.27 8.24.11.11z" fill="#ff4a73"/><path d="m228.98 147.484-80.08 80.08-7.98-7.95-8.56-8.521 80.08-80.079 8.56 8.52z" fill="#87828e"/><path d="m236.219 125.884-2.216-2.206c-3.956-3.938-10.355-3.924-14.294.031l-7.272 7.301 16.545 16.469 7.268-7.298c3.94-3.956 3.926-10.358-.031-14.297z" fill="#ff4a73"/><path d="m140.9 219.604-13.54 13.53c-.58-.51-.88-1.34-.63-2.2 1.93-6.56 3.86-13.11 5.79-19.68l8.27 8.24z" fill="#f973a3"/><path d="m221 139.534-80.08 80.08-8.56-8.521 80.08-80.079z" fill="#a4a4a5"/><path d="m228.27 132.224-7.27 7.3 7.99 7.95-.01.01-16.54-16.47 7.27-7.3c3.94-3.96 10.34-3.97 14.29-.04l2.22 2.21c1.14 1.13 1.95 2.46 2.43 3.88-3.53-1.18-7.58-.36-10.38 2.46z" fill="#f973a3"/><g fill="#5f266d"><path d="m239.04 123.054-2.22-2.21c-5.51-5.49-14.46-5.47-19.94.04-14.706 14.746-3.699 3.729-38.67 38.7v-136.3c0-4.96-4.04-9-9-9h-25.75v-9.37c0-5.285-8-5.293-8 0v9.37h-21.3v-9.37c0-5.285-8-5.293-8 0v9.37h-21.3v-9.37c0-5.281-8-5.294-8 0v9.37h-21.31v-9.37c0-5.305-8-5.274-8 0v9.37h-25.75c-4.96 0-9 4.04-9 9v222.77c0 4.97 4.04 9 9 9h147.41c4.96 0 9-4.03 9-9v-42.15c66.294-66.294 53.293-53.281 60.87-60.9 5.483-5.504 5.518-14.434-.04-19.95zm-68.83 123c0 .55-.45 1-1 1h-147.41c-.55 0-1-.45-1-1v-222.77c0-.55.45-1 1-1h25.75v10.52c0 5.281 8 5.294 8 0v-10.52h21.31v10.52c0 5.305 8 5.275 8 0v-10.52h21.3v10.52c0 5.285 8 5.293 8 0v-10.52h21.3v10.52c0 5.285 8 5.293 8 0v-10.52h25.75c.55 0 1 .45 1 1v144.3l-40.68 40.68c-.75.75-1.17 1.77-1.17 2.83 0 .03 0 .07.01.1l-5.48 18.61c-1.361 4.688 2.976 9.004 7.66 7.63-.001-.004 19.656-5.879 19.66-5.88 1.1-.32 1.99-1.1 2.46-2.11l17.54-17.54zm-35.75-27.22 7.02 6.98c-1.477.451-8.909 2.66-9.95 2.97zm14.43 3.08-10.87-10.83 74.42-74.42c10.72 10.651 8.848 8.788 10.88 10.82-7.541 7.541-65.649 65.649-74.43 74.43zm69.2-90.92 4.45-4.46c2.38-2.39 6.25-2.4 8.64-.02l2.22 2.21c2.396 2.396 2.394 6.245.02 8.64l-4.45 4.46z"/><path d="m101.48 150.184-10.89-18.87c5.757-5.974 5.696-15.473-.2-21.39l8.05-13.95c4.615 1.642 9.702 1.586 14.14 0l8.05 13.94c-2.76 2.77-4.47 6.6-4.47 10.81 0 8.45 6.87 15.32 15.32 15.32s15.32-6.87 15.32-15.32c0-10.001-9.486-17.398-19.25-14.82l-8.05-13.94c4.56-3.93 7.45-9.75 7.45-16.23 0-11.83-9.62-21.45-21.44-21.45-11.83 0-21.45 9.62-21.45 21.45 0 6.48 2.89 12.3 7.45 16.23l-8.04 13.94c-9.866-2.585-19.26 4.892-19.26 14.82 0 4.11 1.63 7.85 4.27 10.6l-12.65 21.9c-9.341-1.39-17.6 5.887-17.6 15.16 0 8.45 6.88 15.32 15.33 15.32s15.32-6.87 15.32-15.32c0-4.736-2.176-9.067-5.69-11.91l12.14-21.02c2.62.768 5.627.807 8.4 0l10.85 18.79c-2.72 2.76-4.4 6.55-4.4 10.73 0 8.478 6.903 15.32 15.33 15.32 8.45 0 15.32-6.87 15.32-15.32 0-10.05-9.585-17.459-19.35-14.79zm4.03 22.11c-3.98 0-7.23-3.19-7.32-7.13-.01-.06-.01-.13-.01-.19 0-4.021 3.29-7.33 7.33-7.33.09 0 .19 0 .28.02 3.9.13 7.04 3.36 7.04 7.31 0 4.03-3.29 7.32-7.32 7.32zm-33.3-51.57c0-3.91 3.06-7.11 6.92-7.31.13-.02.27-.02.4-.02 4.039 0 7.33 3.311 7.33 7.33 0 4.065-3.331 7.32-7.33 7.32-4.045 0-7.32-3.305-7.32-7.32zm33.3-58.44c7.41 0 13.44 6.03 13.44 13.45 0 7.383-6.011 13.45-13.44 13.45-7.392 0-13.45-6.029-13.45-13.45 0-7.42 6.03-13.45 13.45-13.45zm33.29 58.44c0 4.04-3.28 7.32-7.32 7.32s-7.32-3.28-7.32-7.32c0-3.991 3.25-7.33 7.32-7.33 3.999 0 7.32 3.246 7.32 7.33zm-77.92 47.66c0 4.04-3.28 7.32-7.32 7.32s-7.33-3.28-7.33-7.32c0-4.859 4.704-8.463 9.51-7 3.022.946 5.14 3.773 5.14 7z"/><path d="m50.74 229.694h-10.99c-.54 0-.88-.21-1-.33v-25.64c0-5.285-8-5.293-8 0v25.77c0 4.52 4.04 8.2 9 8.2h10.99c5.285 0 5.293-8 0-8z"/><path d="m68.21 229.694h-2.47c-5.285 0-5.293 8 0 8h2.47c5.285 0 5.293-8 0-8z"/></g></svg>