<svg id="Icon_Set" enable-background="new 0 0 256 256" height="512" viewBox="0 0 256 256" width="512" xmlns="http://www.w3.org/2000/svg"><path d="m202.2 112.53c0 7.86-1.78 14.91-4.58 19.76-9.86-8.9-22.92-14.32-37.25-14.32h-64.74c-13.43 0-25.75 4.76-35.36 12.69-2.31-4.73-3.72-11.11-3.72-18.13 0-14.62 6.11-26.47 13.64-26.47v-15.24c0-32.69 26.51-59.17 59.18-59.17 16.35 0 31.14 6.61 41.86 17.33 10.71 10.7 17.33 25.49 17.33 41.84v15.24c7.53 0 13.64 11.85 13.64 26.47z" fill="#87828e"/><path d="m194.46 176.71v37.57c0 4.69-3.81 8.5-8.5 8.5h-113.17c-4.69 0-8.5-3.81-8.5-8.5v-37.57c0-24.489 13.617-46.252 34.47-57.42 3.442-1.832 7.253-3.427 10.67-4.52 4.823-1.711 12.373-3.13 19.94-3.13 7.916 0 15.532 1.455 21.77 3.76 1.674.588 3.446 1.314 5.08 2.04 23.246 10.588 38.24 33.598 38.24 59.27z" fill="#3193f3"/><path d="m194.46 176.71v37.57c0 4.69-3.81 8.5-8.5 8.5h-15c4.69 0 8.5-3.81 8.5-8.5v-37.57c0-25.67-14.99-48.68-38.24-59.27-6.24-2.795-12.501-4.582-19.35-5.38 2.46-.28 4.96-.42 7.5-.42 7.916 0 15.532 1.455 21.77 3.76 1.67.59 3.45 1.31 5.08 2.04 23.25 10.59 38.24 33.6 38.24 59.27z" fill="#307fed"/><path d="m136.87 112.06c-32.992 3.842-57.58 31.799-57.58 64.65v37.57c0 4.69 3.81 8.5 8.5 8.5h-15c-4.69 0-8.5-3.81-8.5-8.5v-37.57c0-24.49 13.62-46.25 34.47-57.42 3.39-1.805 7.172-3.398 10.67-4.52 4.823-1.711 12.373-3.13 19.94-3.13 2.54 0 5.04.14 7.5.42z" fill="#35b1fc"/><g fill="#ff4a73"><path d="m115.388 155.091h25.226v95.141h-25.226z"/><path d="m199.271 234.802-58.658 15.43v-95.141l56.384-11.536c3.1-.634 6.002 1.734 6.002 4.899v81.513c0 2.271-1.531 4.257-3.728 4.835z"/><path d="m56.729 234.802 58.658 15.43v-95.141l-56.384-11.536c-3.1-.634-6.002 1.734-6.002 4.899v81.513c0 2.271 1.531 4.257 3.728 4.835z"/></g><path d="m203.052 148.459-.101 81.52c-.003 2.27-1.535 4.248-3.736 4.825l-11.274 2.946.114-92.36 9.002-1.829c3.102-.636 5.999 1.738 5.995 4.898z" fill="#ea2a6a"/><path d="m155.61 152.02v94.26l-15 3.95v-95.14z" fill="#f973a3"/><path d="m115.39 155.09h13v95.14h-13z" fill="#f973a3"/><path d="m115.39 155.09v95.14l-15-3.95v-94.26z" fill="#ea2a6a"/><path d="m68 145.4v92.36l-11.27-2.96c-2.2-.58-3.73-2.56-3.73-4.83v-81.52c0-3.16 2.9-5.53 6-4.89z" fill="#f973a3"/><path d="m136.91 12.12c-29.15 3.67-51.72 28.54-51.72 58.7v15.24c-7.53 0-13.64 11.85-13.64 26.47 0 3.69.39 7.21 1.1 10.4-4.47 2.03-8.63 4.64-12.38 7.73-2.31-4.73-3.72-11.11-3.72-18.13 0-14.62 6.11-26.47 13.64-26.47v-15.24c0-32.69 26.51-59.17 59.18-59.17 2.55 0 5.07.16 7.54.47z" fill="#a4a4a5"/><path d="m202.2 112.53c0 7.86-1.78 14.91-4.58 19.76-3.55-3.21-7.52-5.96-11.81-8.17.89-3.5 1.39-7.43 1.39-11.59 0-14.62-6.11-26.47-13.64-26.47v-15.24c0-16.35-6.62-31.14-17.33-41.84-9.04-9.04-20.98-15.16-34.31-16.86 2.44-.31 4.93-.47 7.45-.47 16.35 0 31.14 6.61 41.86 17.33 10.71 10.7 17.33 25.49 17.33 41.84v15.24c7.53 0 13.64 11.85 13.64 26.47z" fill="#796e84"/><path d="m151.14 115.4-3.54 6.68-9.7 18.32c-3.31 6.27-11.6 6.27-14.91 0l-9.69-18.32-3.87-7.31c4.823-1.711 12.373-3.13 19.94-3.13 7.916 0 15.532 1.454 21.77 3.76z" fill="#ffbb98"/><path d="m138.33 139.59-.43.81c-3.31 6.27-11.6 6.27-14.91 0l-9.69-18.32-3.87-7.31c4.249-1.507 11.032-2.879 17.85-3.1 1.36 3.454-.318-.798 10.71 27.13.11.27.22.54.34.79z" fill="#ffcaa6"/><circle cx="129.374" cy="82.563" fill="#ffbb98" r="44.682"/><path d="m174.06 82.56c0 27.896-25.197 48.707-52.19 44.06 21.11-3.56 37.19-21.94 37.19-44.06s-16.08-40.49-37.19-44.05c2.44-.42 4.95-.63 7.5-.63 24.68 0 44.69 20.01 44.69 44.68z" fill="#ffaa80"/><path d="m136.87 126.62c-27.084 4.663-52.18-16.266-52.18-44.06 0-24.67 20.01-44.68 44.68-44.68 2.56 0 5.06.21 7.5.63-21.1 3.57-37.18 21.94-37.18 44.05 0 22.12 16.08 40.49 37.18 44.06z" fill="#ffcaa6"/><path d="m171.226 28.982c-10.719-10.719-25.504-17.336-41.858-17.336-9.659 0-18.769 2.329-26.824 6.435.321-4.201-.786-7.854-3.473-10.103-5.907-4.944-17.133-1.262-25.074 8.226-5.677 6.782-8.118 14.683-6.902 20.45-5.279 2.267-9.181 10.158-9.181 19.573 0 11.183 5.497 20.248 12.278 20.248h56.971c7.623 0 14.892-4.407 18.852-11.908l6.273-11.908 6.255 11.908c3.895 7.376 11.08 11.908 18.852 11.908h11.167v-5.652c0-16.354-6.617-31.14-17.336-41.841z" fill="#87828e"/><path d="m188.56 70.82v5.65h-11.16c-1.3 0-2.59-.13-3.84-.37v-5.28c0-16.35-6.62-31.14-17.33-41.84-9.04-9.04-20.98-15.16-34.3-16.86 2.43-.31 4.92-.47 7.44-.47 16.35 0 31.14 6.61 41.86 17.33 10.71 10.7 17.33 25.49 17.33 41.84z" fill="#796e84"/><path d="m99.1 8.01c-3.53 1.77-7.05 4.56-10.1 8.19-5.68 6.79-8.12 14.69-6.91 20.45-5.27 2.27-9.18 10.16-9.18 19.58 0 11.18 5.5 20.24 12.28 20.24h-15c-6.78 0-12.28-9.06-12.28-20.24 0-9.42 3.91-17.31 9.18-19.58-1.21-5.76 1.23-13.66 6.91-20.45 7.94-9.48 19.16-13.17 25.07-8.22.01.01.02.02.03.03z" fill="#a4a4a5"/><path d="m196.2 139.64-7.63 1.56c-3.98-6.6-9.05-12.54-15.03-17.53 7.9 2.08 15.24 6.02 21.4 11.59 1.889 1.711 4.888 1.221 6.14-.97 3.3-5.71 5.12-13.44 5.12-21.76 0-14.98-5.64-26.78-13.64-29.75 0-4.784 0-7.888 0-11.96 0-16.982-6.636-32.802-18.5-44.67h-.01c-16.809-16.809-43.002-23.942-68.01-14.05-.74-2.91-2.23-5.38-4.4-7.19-3.95-3.31-9.49-4.03-15.59-2.03-12.719 4.161-23.812 19.01-23.24 31.66-5.42 3.99-8.9 12.25-8.9 21.69 0 11.53 5.15 20.94 12.28 23.53v3.02c-8 2.97-13.64 14.77-13.64 29.75 0 7.37 1.46 14.44 4.12 19.88 1.128 2.318 4.142 2.988 6.15 1.34 6.74-5.57 14.79-9.3 23.32-10.89-6.59 5.28-12.1 11.68-16.31 18.83l-10.03-2.05c-5.603-1.159-10.8 3.154-10.8 8.81v81.52c0 4.067 2.74 7.652 6.71 8.7l58.49 15.38c.384.113.7.18 1.19.18h25.22c.49 0 .806-.067 1.19-.18l58.49-15.38c3.95-1.04 6.71-4.62 6.71-8.7v-81.52c0-5.66-5.201-9.968-10.8-8.81zm2.8 90.33c0 .45-.31.85-.75.96l-53.64 14.11c0-10.474 0-76.491 0-86.68.336-.069 52.926-10.836 53.19-10.89.61-.128 1.2.352 1.2.98zm-62.39 16.26h-17.22c0-10.426 0-77.098 0-87.14h17.22zm-79.61-97.78c0-.587.497-1 .99-1 .174 0 53.229 10.875 53.4 10.91v86.68l-53.64-14.11c-.44-.11-.75-.51-.75-.96zm5.11-24.17c-1.02-3.52-1.56-7.55-1.56-11.75 0-13.92 5.62-22.47 9.64-22.47 2.21 0 4-1.79 4-4v-5.59h6.55c-.04.69-.05 1.39-.05 2.09 0 12 4.37 23.01 11.6 31.51-10.8.6-21.27 4.15-30.18 10.21zm6.56-83.95c1.75-.75 2.73-2.64 2.34-4.5-1.835-8.667 7.307-22.002 17.53-25.35 6.306-2.059 10.5.333 10.02 7.3-.238 3.096 3.019 5.283 5.8 3.86 19.921-10.23 46.134-7.702 64.04 10.17 10.42 10.41 16.16 24.26 16.16 39.01v1.65h-7.16c-12.239 0-16.146-11.266-21.57-21.67-1.488-2.846-5.584-2.85-7.08 0l-6.27 11.9c-3.19 6.03-9.05 9.77-15.32 9.77-7.536 0-52.484 0-56.97 0-1.34 0-2.74-.81-3.99-2.26-2.4-2.78-4.29-7.87-4.29-13.98 0-8.44 3.49-14.49 6.76-15.9zm97.63 73.93c7.33-8.52 11.76-19.61 11.76-31.7 0-.7-.01-1.4-.05-2.09h6.55v5.59c0 2.21 1.79 4 4 4 4.03 0 9.64 8.55 9.64 22.47 0 4.83-.74 9.47-2.07 13.35-8.7-6.53-19-10.54-29.83-11.62zm-77.56-33.79h38.42c9.24 0 17.82-5.38 22.39-14.04l2.73-5.18 2.73 5.18c3.3 6.26 8.7 10.8 14.92 12.84.09 1.09.13 2.18.13 3.29 0 22.398-18.204 40.69-40.69 40.69-22.484 0-40.68-18.295-40.68-40.69 0-.7.02-1.4.05-2.09zm49.95 49.88-4.33 8.18c-1.8 3.433-6.027 3.438-7.83 0l-4.12-7.78c5.362.779 10.929.649 16.28-.4zm-38.05-7.53c.27-.14.53-.28.79-.41 3.22 2.27 6.73 4.16 10.47 5.6l7.55 14.26c4.814 9.117 17.183 9.104 21.99 0l8.17-15.43c2.71-1.24 5.28-2.72 7.69-4.42 9.39 4.84 17.21 11.97 22.88 20.49l-39.98 8.18h-24.4l-37.61-7.69c5.52-8.48 13.16-15.61 22.45-20.58z" fill="#5f266d"/><path d="m92.27 231.62c.559.096 2.556.47 3.07.47 4.859 0 5.438-7.118.67-7.95l-2.39-.41c-5.245-.895-6.587 6.977-1.35 7.89z" fill="#5f266d"/><path d="m71.48 228.05 6.01 1.03c5.195.944 6.537-6.969 1.35-7.89l-6.01-1.03c-.48-.08-.83-.49-.83-.98 0-28.733 0 4.593 0-23.9 0-5.33-8-5.315-8 0v23.9c0 4.295 3.085 8.102 7.48 8.87z" fill="#5f266d"/></svg>