<svg id="Icon_Set" enable-background="new 0 0 256 256" height="512" viewBox="0 0 256 256" width="512" xmlns="http://www.w3.org/2000/svg"><path d="m193.051 170.672v37.964c0 4.465-3.609 8.074-8.074 8.074h-113.936c-4.457 0-8.074-3.609-8.074-8.074v-37.964c0-17.671 7.044-33.689 18.502-45.389 5.886-6.083 12.973-10.86 19.713-13.846 1.004-.459 2.025-.9 3.055-1.307 1.566-.623 3.167-1.177 4.786-1.67 6.006-1.835 12.366-2.821 18.978-2.821s12.972.987 18.978 2.821c1.627.502 3.219 1.064 4.786 1.696 1.038.398 2.06.831 3.072 1.281 8.245 3.769 15.389 9.034 21.15 15.344 10.59 11.569 17.064 26.981 17.064 43.891z" fill="#3193f3"/><path d="m87.99 94.402c-1.74.73-3.65 1.14-5.66 1.14-8.07 0-14.63-6.56-14.63-14.63 0-8.11 6.56-14.65 14.63-14.65.81 0 1.6.06 2.36.19-.07.33-.14.66-.2.99-.22 1.17-.38 2.35-.51 3.55 0 1.35-.745 5.255.34 11.6 0 .196.355 1.938.4 2.14.125 1 1.274 5.285 2.89 8.83-.02.02 0 .03.01.05.12.27.24.53.37.79z" fill="#ffbb98"/><path d="m188.3 80.902c0 8.08-6.53 14.63-14.62 14.63-2 0-3.91-.41-5.65-1.13.13-.27.26-.55.38-.82 1.974-4.068 3.31-10.323 3.45-12.14.268-1.493.41-4.394.41-5.93 0-3.251-.36-6.309-.86-8.62-.03-.15-.06-.29-.09-.44.77-.13 1.56-.19 2.36-.19 8.09 0 14.62 6.55 14.62 14.64z" fill="#ffbb98"/><path d="m193.05 170.672v37.96c0 4.47-3.61 8.08-8.07 8.08h-15c4.46 0 8.07-3.61 8.07-8.08v-37.96c0-16.91-6.47-32.32-17.06-43.89-5.76-6.31-12.91-11.58-21.15-15.34-1.02-.45-2.04-.89-3.08-1.29-1.56-.63-3.15-1.19-4.78-1.69-3.7-1.13-7.54-1.94-11.48-2.4 2.46-.28 4.97-.42 7.5-.42 6.61 0 12.97.98 18.98 2.82 1.63.5 3.22 1.06 4.78 1.69 1.04.4 2.06.84 3.08 1.29 8.24 3.76 15.39 9.03 21.15 15.34 10.59 11.57 17.06 26.98 17.06 43.89z" fill="#307fed"/><path d="m135.5 106.062c-3.94.46-7.78 1.27-11.48 2.4-1.62.49-3.22 1.05-4.78 1.67-1.03.4-2.05.85-3.06 1.31-6.74 2.98-13.83 7.76-19.71 13.84-11.46 11.7-18.5 27.72-18.5 45.39v37.96c0 4.47 3.61 8.08 8.07 8.08h-15c-4.46 0-8.07-3.61-8.07-8.08v-37.96c0-17.67 7.04-33.69 18.5-45.39 5.88-6.08 12.97-10.86 19.71-13.84 1.01-.46 2.03-.91 3.06-1.31 1.56-.62 3.16-1.18 4.78-1.67 6.01-1.84 12.37-2.82 18.98-2.82 2.53 0 5.04.14 7.5.42z" fill="#35b1fc"/><path d="m149.38 114.282c-6.59 11.429-3.46 6.007-14.36 24.87-3.12 5.4-10.91 5.4-14.03 0-11.233-19.461-8.549-14.811-14.35-24.86 6.34 3.5 13.61 5.49 21.36 5.49s15.04-1.99 21.38-5.5z" fill="#ffbb98"/><path d="m171.409 66.893c-4.001-20.319-21.906-35.632-43.409-35.632-21.68 0-39.715 15.588-43.506 36.182-.227 1.167-.389 2.35-.519 3.549 0 1.209-.726 5.353.341 11.602 0 .167.359 1.941.405 2.139.099 1 1.308 5.346 2.884 8.831-.016.016 0 .032.016.049 6.903 15.426 22.393 26.169 40.379 26.169 18.018 0 33.509-10.759 40.412-26.201 2.037-4.282 3.3-10.312 3.45-12.137.276-1.65.406-4.229.406-5.931 0-3.251-.358-6.316-.859-8.62z" fill="#ffbb98"/><path d="m135.5 138.312c-.15.28-.32.56-.48.84-3.12 5.4-10.91 5.4-14.03 0-11.23-19.46-8.55-14.81-14.35-24.86 5.44 3 11.57 4.9 18.1 5.37 2.18 3.78 2.79 4.83 10.76 18.65z" fill="#ffcaa6"/><path d="m172.27 75.512c0 1.7-.13 4.28-.41 5.93-.15 1.83-1.41 7.86-3.45 12.14-6.9 15.44-22.39 26.2-40.41 26.2-2.55 0-5.06-.22-7.49-.64 14.74-2.51 26.98-12.31 32.9-25.56 2.04-4.28 3.3-10.31 3.45-12.14.28-1.65.41-4.23.41-5.93 0-3.25-.36-6.32-.86-8.62-3.52-17.9-17.85-31.92-35.91-34.99 2.44-.42 4.94-.64 7.5-.64 21.5 0 39.41 15.31 43.41 35.63.5 2.3.86 5.37.86 8.62z" fill="#ffaa80"/><path d="m135.51 119.142c-2.44.42-4.95.64-7.51.64-17.99 0-33.48-10.74-40.38-26.17-.01-.02-.03-.03-.01-.05-1.58-3.48-2.79-7.83-2.89-8.83-.04-.2-.4-1.97-.4-2.14-1.07-6.25-.34-10.39-.34-11.6.13-1.2.29-2.38.51-3.55 3.8-20.59 21.83-36.18 43.51-36.18 2.56 0 5.07.22 7.5.64-18.23 3.11-32.66 17.38-36.01 35.54-.22 1.17-.38 2.35-.51 3.55 0 1.21-.73 5.35.34 11.6 0 .17.36 1.94.4 2.14.1 1 1.31 5.35 2.89 8.83-.02.02 0 .03.01.05 5.92 13.24 18.17 23.03 32.89 25.53z" fill="#ffcaa6"/><path d="m69.386 63.887v5.599h11.061c7.698 0 14.816-4.489 18.674-11.795l6.196-11.795 6.213 11.795c1.929 3.653 4.677 6.606 7.903 8.637 3.209 2.031 6.93 3.158 10.771 3.158h56.431v-5.599c0-31.697-25.16-57.506-56.584-58.581-.667-.034-1.35-.034-2.032-.034-.683 0-1.366 0-2.031.034-15.379.529-29.256 6.964-39.43 17.137-10.617 10.6-17.172 25.246-17.172 41.444z" fill="#87828e"/><path d="m186.63 63.892v5.59h-15v-5.59c0-29.84-22.3-54.47-51.13-58.14 1.8-.24 3.64-.39 5.49-.45.66-.03 1.35-.03 2.03-.03s1.36 0 2.03.03c31.42 1.08 56.58 26.89 56.58 58.59z" fill="#796e84"/><path d="m135.5 5.752c-13.18 1.69-25 7.75-33.94 16.69-10.62 10.6-17.17 25.25-17.17 41.45v5.19c-1.29.27-2.6.4-3.94.4h-11.06v-5.59c0-16.2 6.55-30.85 17.17-41.45 10.17-10.17 24.05-16.61 39.43-17.14.66-.03 1.35-.03 2.03-.03s1.36 0 2.03.03c1.84.06 3.66.21 5.45.45z" fill="#a4a4a5"/><g fill="#ff4a73"><path d="m115.388 155.631h25.226v95.141h-25.226z"/><path d="m199.271 235.342-58.658 15.43v-95.141l56.384-11.536c3.1-.634 6.002 1.734 6.002 4.899v81.513c0 2.271-1.531 4.257-3.728 4.835z"/><path d="m56.729 235.342 58.658 15.43v-95.141l-56.384-11.536c-3.1-.634-6.002 1.734-6.002 4.899v81.513c0 2.271 1.531 4.257 3.728 4.835z"/></g><path d="m203 148.992v81.51c0 2.28-1.53 4.26-3.73 4.84l-11.27 2.96v-92.37l9-1.84c3.1-.63 6 1.74 6 4.9z" fill="#ea2a6a"/><path d="m155.61 152.562v94.26l-15 3.95v-95.14z" fill="#f973a3"/><path d="m115.39 155.632h13v95.14h-13z" fill="#f973a3"/><path d="m115.39 155.632v95.14l-15-3.95v-94.26z" fill="#ea2a6a"/><path d="m68 145.932v92.37l-11.27-2.96c-2.2-.58-3.73-2.56-3.73-4.84v-81.51c0-3.16 2.9-5.53 6-4.9z" fill="#f973a3"/><path d="m196.2 140.172-5.68 1.16c-2.94-6.24-6.83-12.06-11.58-17.25-5.03-5.51-10.89-10.12-17.49-13.77 3.37-3.23 6.29-6.97 8.61-11.13 1.19.23 2.4.35 3.62.35 10.27 0 18.62-8.36 18.62-18.63 0-3.32-.87-6.43-2.39-9.13.45-.65.72-1.44.72-2.29v-5.59c0-33.982-26.983-61.446-60.37-62.58-32.915-1.792-64.87 25.253-64.87 62.58v5.59c0 .84.27 1.63.72 2.28-1.54 2.7-2.41 5.83-2.41 9.15 0 10.27 8.36 18.63 18.63 18.63 1.23 0 2.44-.12 3.63-.35 2.33 4.15 5.23 7.87 8.59 11.09-5.8 3.22-11.33 7.44-15.94 12.2-5.47 5.59-9.89 11.96-13.13 18.85l-5.68-1.16c-5.585-1.138-10.8 3.145-10.8 8.82v81.51c0 4.078 2.739 7.662 6.71 8.71l58.49 15.38c.384.113.699.18 1.19.18h25.22c.413 0 .734-.046 1.19-.18l58.49-15.38c3.95-1.04 6.71-4.62 6.71-8.71v-81.51c0-5.666-5.205-9.96-10.8-8.82zm2.8 90.33c0 .46-.31.86-.75.97l-53.64 14.11c0-8.636 0-77.004 0-86.69.004-.001 53.19-10.88 53.19-10.88.588-.124 1.2.323 1.2.98zm-62.39 16.27h-17.22c0-10.168 0-78.321 0-87.14h17.22zm-79.61-97.78c0-.39.2-.64.37-.77.17-.14.44-.29.83-.21 0 0 53.187 10.879 53.19 10.88v86.69l-53.64-14.11c-.44-.11-.75-.51-.75-.97zm30.75-74.27c.04-1.195.16-2.45.16-2.45 6.15-2.03 11.48-6.53 14.75-12.72l2.66-5.06 2.67 5.07c4.474 8.463 12.855 13.92 22.21 13.92h38.02c.03.68.05 1.36.05 2.03 0 23.164-19.458 41.151-41.75 40.24-21.316-.454-39.489-19.206-38.77-41.03zm40.27-65.45c29.27 0 54.61 22.97 54.61 55.29v.92c-11.699 0-42.256 0-52.43 0-12.05 0-15.634-10.618-21.34-21.45-1.476-2.785-5.545-2.914-7.08 0-5.399 10.323-9.246 21.45-21.33 21.45h-7.06c0-34.234 26.346-56.21 54.63-56.21zm45.66 82.26h-.13c1.829-5.729 3.058-11.458 2.67-18.05h5.06c1.87 1.92 3.02 4.54 3.02 7.42 0 5.86-4.76 10.63-10.62 10.63zm-98.95-18.05h5.07c-.345 6.897.881 12.237 2.7 18.06-6.299 0-10.8-4.976-10.8-10.63 0-2.89 1.16-5.52 3.03-7.43zm53.27 50.3c4.446 0 8.374-.609 12.18-1.56-.072.125-8.554 14.815-8.62 14.93-1.581 2.734-5.528 2.736-7.11 0l-8.61-14.93c3.468.92 7.844 1.56 12.16 1.56zm-24.3-6.59 13.83 23.96c4.628 8.046 16.273 8.094 20.95 0 2.333-4.035 11.18-19.334 13.83-23.95.79-.45 1.56-.93 2.32-1.44 7.04 3.44 13.23 8.04 18.41 13.72 3.75 4.1 6.89 8.65 9.37 13.51l-42.21 8.64h-24.4l-42.21-8.64c2.77-5.43 6.38-10.46 10.75-14.93 4.86-5.02 10.85-9.34 17.04-12.31.76.51 1.53.99 2.32 1.44z" fill="#5f266d"/><path d="m91.27 234.362c.559.096 2.556.47 3.07.47 4.85 0 5.48-7.111.67-7.95l-2.39-.41c-5.206-.884-6.57 6.98-1.35 7.89z" fill="#5f266d"/><path d="m70.48 230.792c.546.094 6.164 1.09 6.69 1.09 4.827 0 5.49-7.11.67-7.95l-6.01-1.03c-.48-.08-.83-.49-.83-.98 0-9.037 0-14.86 0-23.9 0-5.304-8-5.342-8 0v23.9c0 4.39 3.15 8.12 7.48 8.87z" fill="#5f266d"/></svg>