<svg id="Icon_Set" enable-background="new 0 0 256 256" height="512" viewBox="0 0 256 256" width="512" xmlns="http://www.w3.org/2000/svg"><path d="m174.722 250.238h-133.993c-2.761 0-5-2.239-5-5v-195.82c0-2.761 2.239-5 5-5h133.993c2.761 0 5 2.239 5 5v195.819c0 2.762-2.238 5.001-5 5.001z" fill="#ffe2e2"/><path d="m174.722 236.958h-133.993c-2.761 0-5-2.239-5-5v-195.82c0-2.761 2.239-5 5-5h133.993c2.761 0 5 2.239 5 5v195.819c0 2.762-2.238 5.001-5 5.001z" fill="#ffe2e2"/><path d="m210.458 222.704c-.809 1.499-2.958 1.503-3.774.008l-3.964-7.268-5.858-10.741 11.672-.027 11.672-.027-5.814 10.768z" fill="#ff4a73"/><path d="m219.975 91.398-23.344.054v113.252l23.344-.054z" fill="#87828e"/><path d="m209.822 71.011-3.127.007c-5.582.013-10.097 4.548-10.085 10.129l.021 10.305 23.344-.054-.021-10.299c-.012-5.584-4.548-10.101-10.132-10.088z" fill="#ff4a73"/><path d="m174.722 223.201h-133.993c-2.761 0-5-2.239-5-5v-195.819c0-2.761 2.239-5 5-5h133.993c2.761 0 5 2.239 5 5v195.819c0 2.762-2.238 5-5 5z" fill="#ffe2e2"/><path d="m179.718 22.386v195.81c0 2.77-2.23 5-5 5h-15c2.77 0 5-2.23 5-5v-195.81c0-2.77-2.23-5-5-5h15c2.77 0 5 2.23 5 5z" fill="#ffcfcf"/><path d="m55.728 223.196h-15c-2.76 0-5-2.23-5-5v-195.81c0-2.77 2.24-5 5-5h15c-2.76 0-5 2.23-5 5v195.81c0 2.771 2.24 5 5 5z" fill="#ffefee"/><path d="m207.608 81.146.02 10.28-11 .03-.02-10.31c-.01-5.58 4.51-10.12 10.09-10.13l3.12-.01c1.41 0 2.75.28 3.97.8-3.64 1.54-6.19 5.15-6.18 9.34z" fill="#f973a3"/><path d="m219.978 91.396v.03l-12.35.03v113.22l-11 .03v-113.25z" fill="#a4a4a5"/><path d="m220.208 204.646-.02.03h-.65l-11.68.03 5.86 10.74.33.6-3.59 6.66c-.81 1.5-2.96 1.5-3.77.01l-3.97-7.27-5.86-10.74 11.68-.03z" fill="#f973a3"/><g fill="#5f266d"><path d="m224.011 203.434c0-131.507.01-106.955-.02-122.26-.021-7.872-6.438-14.08-14.11-14.08h-.04l-3.12.01c-7.78.02-14.1 6.36-14.08 14.14.027 13.737.02-5.011.02 123.55 0 1.06.43 2.08 1.18 2.83.03.03.06.06.09.08l9.28 17.01c2.327 4.305 8.532 4.216 10.8-.02l9.75-18.06c.54-.99.62-2.15.25-3.2zm-10.49 5.32-4.93 9.13-4.97-9.11zm-12.88-127.53c-.01-3.36 2.73-6.11 6.1-6.12l3.12-.01h.02c3.363 0 6.089 2.72 6.11 6.1l.01 6.3-15.35.04zm.02 14.31 15.35-.04v105.25l-15.35.04z"/><path d="m174.751 13.474h-22.79v-7.83c0-5.305-8-5.274-8 0v7.83h-18.8v-7.83c0-5.285-8-5.293-8 0v7.83h-18.8v-7.83c0-5.281-8-5.294-8 0v7.83h-18.81v-7.83c0-5.285-8-5.293-8 0v7.83h-22.79c-4.96 0-9 4.03-9 9v222.85c0 4.96 4.04 9 9 9h133.99c4.97 0 9-4.04 9-9 0-3.676 0-220.269 0-222.85 0-4.97-4.03-9-9-9zm1 231.85c0 .55-.44 1-1 1h-133.99c-.55 0-1-.45-1-1v-4.34c.77.093-6.788.06 134.99.06.34 0 .67-.02 1-.06zm-135.99-222.85c0-.56.45-1 1-1h22.79c0 9.265-.061 9.039.11 9.75.95 4.099 6.829 4.106 7.78 0 .172-.71.11-.485.11-9.75h18.81c0 9.266-.061 9.04.11 9.75.95 4.099 6.829 4.106 7.78 0 .172-.71.11-.49.11-9.75h18.8c0 9.265-.061 9.04.11 9.75.947 4.089 6.827 4.115 7.78 0 .171-.71.11-.487.11-9.75h18.8c0 9.265-.061 9.04.11 9.75.947 4.089 6.827 4.115 7.78 0 .171-.71.11-.484.11-9.75h22.79c.56 0 1 .44 1 1v195.81c0 .56-.44 1-1 1h-133.99c-.55 0-1-.44-1-1 0-8.079 0-187.285 0-195.81zm135.99 209.57c0 .55-.44 1-1 1h-133.99c-.55 0-1-.45-1-1v-4.82c.33.04.66.06 1 .06h133.99c.34 0 .67-.02 1-.06z"/><path d="m80.481 68.534h54.55c5.285 0 5.293-8 0-8h-54.55c-5.288 0-5.284 8 0 8z"/><path d="m58.841 105.764h97.84c5.284 0 5.295-8 0-8h-97.84c-5.284 0-5.294 8 0 8z"/><path d="m156.681 134.994h-97.84c-5.284 0-5.295 8 0 8h97.84c5.284 0 5.295-8 0-8z"/><path d="m156.681 172.224h-97.84c-5.284 0-5.295 8 0 8h97.84c5.284 0 5.295-8 0-8z"/><path d="m57.541 84.464v-3.96c0-5.285-8-5.293-8 0v3.96c0 5.285 8 5.293 8 0z"/><path d="m57.541 65.504c0-7.37 0-12.276 0-21 0-5.285-8-5.293-8 0v21c0 5.285 8 5.293 8 0z"/></g></svg>