<svg id="Icon_Set" enable-background="new 0 0 256 256" height="512" viewBox="0 0 256 256" width="512" xmlns="http://www.w3.org/2000/svg"><path d="m198.08 4.83h-139.99c4.9.05 9.34 2.05 12.56 5.27 3.25 3.26 5.27 7.76 5.27 12.73v166.84h127.16v-179.84c0-2.76-2.24-5-5-5z" fill="#ffe2e2"/><path d="m203.08 9.83v179.84h-15v-179.84c0-2.76-2.24-5-5-5h15c2.76 0 5 2.24 5 5z" fill="#ffcfcf"/><path d="m90.92 22.83v166.84h-15v-166.84c0-4.97-2.02-9.47-5.27-12.73-3.22-3.22-7.66-5.22-12.56-5.27h15c4.9.05 9.34 2.05 12.56 5.27 3.25 3.26 5.27 7.76 5.27 12.73z" fill="#ffefee"/><path d="m163.266 92.382v13.554c0 1.938-1.571 3.508-3.508 3.508h-41.215c-1.938 0-3.508-1.571-3.508-3.508v-13.554c0-6.271 2.402-11.987 6.325-16.28 2.866-3.125 6.547-5.479 10.759-6.792 2.228-.674 4.586-1.043 7.032-1.043 2.456 0 4.814.369 7.032 1.043 3.725 1.134 7.356 3.27 10.216 6.238 4.247 4.336 6.867 10.28 6.867 16.834z" fill="#5fcdff"/><path d="m149.942 70.82-3.173 5.488-5.593 9.686c-.9 1.559-3.151 1.559-4.051 0l-5.593-9.686-3.163-5.488c.001-.002.001-.003.001-.004 1.192-.594 2.433-1.096 3.748-1.506 2.228-.674 4.586-1.043 7.032-1.043 2.456 0 4.814.369 7.032 1.043 1 .304 1.967.674 2.913 1.109.292.118.564.26.847.401z" fill="#ffbb98"/><ellipse cx="139.149" cy="52.2" fill="#ffbb98" rx="18.204" ry="18.204" transform="matrix(.998 -.071 .071 .998 -3.35 9.996)"/><path d="m163.26 47.417c0 1.272-1.031 2.303-2.303 2.303-9.165 0-9.672.581-15.074-9.703-2.1 3.987-4.088 9.703-10.237 9.703h-18.311c-1.272 0-2.303-1.031-2.303-2.303 0-21.547 26.112-32.099 41.163-17.047 8.066 8.049 7.065 18.283 7.065 17.047z" fill="#b76c6c"/><path d="m57.917 4.833c-9.941 0-18 8.059-18 18v45.667c0 2.761 2.239 5 5 5h31v-50.667c0-9.941-8.059-18-18-18z" fill="#ffcfcf"/><path d="m103.032 127.016-27.064-27.365c-.939-.95-2.219-1.484-3.555-1.484h-43.913c-2.761 0-5 2.239-5 5v25.333 50.667 67c0 2.761 2.239 5 5 5h199c2.761 0 5-2.239 5-5v-112.667c0-2.761-2.239-5-5-5h-120.913c-1.335 0-2.616-.534-3.555-1.484z" fill="#f9d335"/><path d="m232.5 133.5v112.67c0 2.76-2.24 5-5 5h-15c2.76 0 5-2.24 5-5v-112.67c0-2.76-2.24-5-5-5h15c2.76 0 5 2.24 5 5z" fill="#f2c300"/><path d="m43.5 251.17h-15c-2.76 0-5-2.24-5-5v-143c0-2.76 2.24-5 5-5h15c-2.76 0-5 2.24-5 5v143c0 2.76 2.24 5 5 5z" fill="#f9e27d"/><g fill="#5f266d"><path d="m227.5 124.502h-20.42v-114.67c0-4.963-4.038-9-9-9-.964 0-139.227.003-140.164.003-12.131 0-22 9.869-22 22v45.667c0 4.963 4.038 9 9 9h27.003v16.666h-43.419c-4.962 0-9 4.037-9 9v143c0 4.963 4.038 9 9 9h199c4.962 0 9-4.037 9-9v-112.666c0-4.963-4.038-9-9-9zm-155.583-55c-9.608 0-17.636 0-27 0-.551 0-1-.448-1-1v-45.667c0-7.72 6.28-14 14-14s14 6.28 14 14zm126.163-60.67c.551 0 1 .448 1 1v114.67h-92.493c-.265 0-.524-.108-.711-.297l-25.956-26.245c0-11.572-.003-27.581-.003-75.125 0-5.315-1.895-10.196-5.045-14.003zm30.42 237.336c0 .552-.449 1-1 1h-199c-.551 0-1-.448-1-1v-143c0-.552.449-1 1-1h43.913c.265 0 .524.108.711.297l27.064 27.365c0 .001.001.001.001.001 1.68 1.697 4.012 2.671 6.398 2.671h120.913c.551 0 1 .448 1 1z"/><path d="m118.54 113.441h41.22c4.141 0 7.51-3.364 7.51-7.5v-13.56c0-9.968-5.193-18.821-13.175-23.78 4.108-3.746 6.802-9.012 7.198-14.897 3.664-.195 6.258-3.476 5.947-6.684.703-16.866-18.36-34.011-38.878-25.514-10.689 4.427-17.329 14.355-17.329 25.912 0 3.361 2.646 6.107 5.963 6.286.396 5.888 3.094 11.156 7.207 14.903-8.704 5.584-13.174 14.531-13.174 23.774v13.56c.001 4.136 3.37 7.5 7.511 7.5zm.558-67.719c.684-8.885 6.687-14.488 12.326-16.824 13.376-5.54 26.662 3.963 27.815 16.828-5.747.007-5.444.751-9.814-7.567-.691-1.315-2.054-2.139-3.539-2.14-5.277-.003-4.558 9.703-10.239 9.703zm20.052 20.679c-7.321 0-13.364-5.563-14.126-12.68 11.302 0 16.03 1.196 20.924-5.612 2.187 3.183 4.19 4.607 7.345 5.21-.573 7.308-6.69 13.082-14.143 13.082zm4.353 7.569-4.353 7.538-4.35-7.537c2.805.559 5.752.589 8.703-.001zm-24.473 18.412c0-6.023 2.706-12.021 7.948-15.968l6.677 11.576c2.465 4.273 8.55 4.185 10.989.002l6.693-11.591c4.859 3.694 7.933 9.475 7.933 15.981v13.06h-40.24z"/><path d="m210.5 217.002c-2.209 0-4 1.791-4 4v6c0 2.209 1.791 4 4 4s4-1.791 4-4v-6c0-2.209-1.791-4-4-4z"/><path d="m210.5 179.002c-2.209 0-4 1.791-4 4v23c0 2.209 1.791 4 4 4s4-1.791 4-4v-23c0-2.209-1.791-4-4-4z"/></g></svg>