<svg id="Icon_Set" enable-background="new 0 0 256 256" height="512" viewBox="0 0 256 256" width="512" xmlns="http://www.w3.org/2000/svg"><path d="m189.355 238.18v4.683c0 4.465-3.609 8.074-8.074 8.074h-113.936c-4.457 0-8.074-3.609-8.074-8.074v-4.683c0-17.671 7.044-33.689 18.502-45.389 40.298-41.648 111.582-12.827 111.582 45.389z" fill="#87828e"/><path d="m74.268 238.184v4.68c0 4.46 3.62 8.07 8.08 8.07h-15c-4.46 0-8.08-3.61-8.08-8.07v-4.68c0-17.67 7.05-33.69 18.51-45.39 15.2-15.71 34.81-21.4 53.34-19.25-13.71 1.61-27.21 7.74-38.34 19.25-11.46 11.7-18.51 27.72-18.51 45.39z" fill="#a4a4a5"/><path d="m189.358 238.184v4.68c0 4.46-3.61 8.07-8.08 8.07h-15c4.47 0 8.08-3.61 8.08-8.07v-4.68c0-36.26-27.65-61.11-58.24-64.64 35.9-4.23 73.24 22.51 73.24 64.64z" fill="#796e84"/><path d="m167.602 133.889c-4.201-20.062-21.977-35.12-43.296-35.12-22.296 0-39.165 15.892-43.309 35.148-8.964-1.25-16.991 5.603-16.991 14.502 0 10.249 10.534 17.371 20.351 13.617 4.287 9.017 10.916 15.619 18.616 19.81 5.764 9.984 3.108 5.383 14.323 24.813 3.12 5.4 10.91 5.4 14.03 0 10.88-18.829 7.782-13.463 14.327-24.812 7.612-4.155 14.214-10.696 18.596-19.709 10.082 3.522 20.357-3.713 20.357-13.729-.001-8.734-7.883-15.606-17.004-14.52z" fill="#ffbb98"/><path d="m145.685 181.79c-6.59 11.429-3.46 6.007-14.36 24.87-3.12 5.4-10.91 5.4-14.03 0-11.233-19.461-8.549-14.811-14.35-24.86 6.34 3.5 13.61 5.49 21.36 5.49s15.04-1.99 21.38-5.5z" fill="#ffbb98"/><path d="m131.808 205.824c-.15.28-.32.56-.48.84-3.12 5.4-10.91 5.4-14.03 0-11.24-19.47-8.55-14.82-14.35-24.86 5.44 3 11.57 4.9 18.1 5.37 2.18 3.78 2.79 4.83 10.76 18.65z" fill="#ffcaa6"/><path d="m167.714 134.401c-4.002-20.319-21.907-35.632-43.409-35.632-21.68 0-39.715 15.588-43.506 36.182-1.586 8.154-.737 17.614 3.111 26.121-.016.016 0 .032.016.049 6.903 15.426 22.393 26.169 40.379 26.169 18.018 0 33.509-10.759 40.412-26.201 3.463-7.279 4.921-17.836 2.997-26.688z" fill="#ffbb98"/><path d="m164.718 161.084c-6.9 15.45-22.39 26.21-40.41 26.21-2.55 0-5.05-.22-7.49-.64 14.74-2.51 26.98-12.32 32.9-25.57 3.46-7.27 4.92-17.83 3-26.68-3.53-17.91-17.86-31.93-35.93-34.99 2.44-.42 4.96-.64 7.52-.64 21.5 0 39.4 15.31 43.41 35.63 1.92 8.85.46 19.41-3 26.68z" fill="#ffaa80"/><path d="m131.818 186.654c-2.44.42-4.95.64-7.51.64-17.99 0-33.48-10.75-40.38-26.17-.02-.02-.03-.04-.02-.05-3.84-8.51-4.69-17.97-3.11-26.12 3.79-20.6 21.83-36.18 43.51-36.18 2.55 0 5.05.22 7.48.64-18.23 3.11-32.65 17.38-35.99 35.54-1.58 8.15-.73 17.61 3.11 26.12-.01.01 0 .03.02.05 5.92 13.23 18.17 23.03 32.89 25.53z" fill="#ffcaa6"/><path d="m65.69 131.395v5.599h11.061c7.698 0 14.816-4.489 18.674-11.795l6.196-11.795 6.213 11.795c1.929 3.653 4.677 6.606 7.903 8.637 3.209 2.031 6.93 3.158 10.771 3.158h56.431v-5.599c0-31.697-25.16-57.506-56.584-58.581-.667-.034-1.35-.034-2.032-.034-.683 0-1.366 0-2.031.034-15.379.529-29.256 6.964-39.43 17.137-10.617 10.6-17.172 25.246-17.172 41.444z" fill="#b76c6c"/><path d="m131.818 73.264c-13.18 1.68-25 7.729-33.96 16.69-10.61 10.6-17.17 25.24-17.17 41.44v5.2c-1.29.27-2.6.4-3.94.4h-11.06v-5.6c0-16.2 6.56-30.84 17.17-41.44 10.18-10.18 24.06-16.61 39.43-17.14.67-.03 1.35-.03 2.04-.03.68 0 1.36 0 2.03.03 1.84.06 3.67.21 5.46.45z" fill="#c98585"/><path d="m182.938 131.394v5.6h-15v-5.6c0-29.84-22.29-54.45-51.12-58.13 1.8-.24 3.62-.39 5.47-.45.67-.03 1.35-.03 2.04-.03.68 0 1.36 0 2.03.03 31.42 1.08 56.58 26.88 56.58 58.58z" fill="#965959"/><path d="m166.145 89.691-.09.023c-27.605 7.006-56.522 7.006-84.127 0l-.09-.023c-2.137-.543-3.634-2.466-3.634-4.672v-49.267h91.574v49.268c.001 2.205-1.495 4.129-3.633 4.671z" fill="#87828e"/><path d="m131.498 94.814c-16.62.72-33.32-.97-49.57-5.1l-.09-.02c-2.14-.55-3.63-2.47-3.63-4.67v-49.27h15v49.27c0 2.2 1.49 4.12 3.63 4.67l.09.02c11.37 2.89 22.94 4.59 34.57 5.1z" fill="#a4a4a5"/><path d="m169.778 35.754v49.27c0 2.2-1.5 4.12-3.63 4.67l-.09.02c-17.04 4.33-34.58 5.98-52 4.97 10.8-.63 21.56-2.28 32.13-4.97l.09-.02c2.13-.55 3.63-2.47 3.63-4.67v-49.27z" fill="#796e84"/><path d="m89.775 17.981-29.301 11.142c-1.719.654-1.719 3.085 0 3.739l29.301 11.141 33.507 12.74c.458.174.964.174 1.422 0l33.507-12.74 29.301-11.141c1.719-.654 1.719-3.085 0-3.739l-29.301-11.141-33.507-12.74c-.458-.174-.964-.174-1.422 0z" fill="#87828e"/><path d="m187.508 32.864-29.3 11.14-33.5 12.74c-.46.17-.97.17-1.43 0l-9.22-3.51 24.28-9.23 29.3-11.14c1.72-.66 1.72-3.09 0-3.74l-29.3-11.14-24.28-9.23 9.22-3.51c.46-.18.97-.18 1.43 0l33.5 12.74 29.3 11.14c1.72.65 1.72 3.08 0 3.74z" fill="#796e84"/><path d="m136.838 52.134-12.13 4.61c-.46.17-.97.17-1.43 0l-33.5-12.74-29.3-11.14c-1.72-.66-1.72-3.09 0-3.74l29.3-11.14 33.5-12.74c.46-.18.97-.18 1.43 0l9.93 3.78-21.36 8.12-29.3 11.15c-1.72.65-1.72 3.08 0 3.73l29.3 11.15z" fill="#a4a4a5"/><g fill="#5f266d"><path d="m199.636 78.399-4.093-4.093c2.512-1.951 1.948-4.107 1.948-11.056 0-2.611-2.009-4.73-4.561-4.956v-27.654c0-1.731-1.523-4.313-3.998-5.255-68.109-25.897-64.061-25.02-67.073-23.881-41.09 15.624-25.029 9.516-62.806 23.881-5.153 1.959-5.153 9.257-.001 11.217l15.156 5.763v42.661c0 2.259.859 4.356 2.303 5.94-9.585 11.286-14.823 25.45-14.823 40.43 0 5.89-.209 6.542.714 7.873-1.552 2.754-2.394 5.891-2.394 9.156 0 11.744 10.773 20.559 22.261 18.273 2.329 4.14 5.228 7.86 8.574 11.08-20.561 11.394-35.575 33.763-35.575 60.408v4.68c0 6.655 5.419 12.07 12.08 12.07h113.93c6.661 0 12.08-5.415 12.08-12.07v-4.68c0-25.984-14.444-48.711-35.613-60.38 3.276-3.15 6.117-6.678 8.617-11.118 11.47 2.269 22.246-6.483 22.246-18.272 0-3.262-.839-6.394-2.386-9.144.926-1.334.716-1.987.716-7.876 0-15.152-5.357-29.456-15.152-40.802 1.252-1.534 1.992-3.48 1.992-5.568v-42.662l11.152-4.241v20.171c-2.552.226-4.56 2.345-4.56 4.956v7.121c0 1.606.771 3.02 1.948 3.935l-4.093 4.093c-2.528 2.527-.701 6.828 2.829 6.828 1.928 0 2.824-1.167 3.876-2.22v1.482c0 2.209 1.791 4 4 4s4-1.791 4-4v-1.483c1.047 1.047 1.944 2.22 3.877 2.22 3.531.001 5.356-4.3 2.829-6.827zm-128.608 62.597h5.062c-.271 6.4.724 12.593 2.695 18.06-9.389.187-14.375-11.282-7.757-18.06zm65.46 48.736c-1.133 1.961-7.495 12.969-8.627 14.929-1.581 2.738-5.522 2.735-7.102.001l-8.616-14.927c7.925 1.975 15.954 2.18 24.345-.003zm48.87 48.454v4.68c0 2.244-1.83 4.07-4.08 4.07h-113.93c-2.25 0-4.08-1.826-4.08-4.07v-4.68c0-24.509 14.443-45.278 34.403-54.934.763.505 1.539.989 2.329 1.451l13.831 23.959c4.659 8.065 16.294 8.073 20.957 0 10.066-17.418 8.415-14.559 13.828-23.947.781-.456 1.552-.931 2.308-1.431 20.338 9.801 34.434 30.761 34.434 54.902zm-64.942-55.103c-20.893-2.026-37.84-20.126-36.182-43.317 6.14-2.037 11.466-6.518 14.736-12.702l2.657-5.064c2.788 5.29 5.149 10.928 11.973 15.217 7.732 4.891 10.271 3.779 50.915 3.779 1.224 24.389-19.471 44.48-44.099 42.087zm49.419-24.026c1.968-5.651 2.942-11.693 2.692-18.062h5.07c1.924 1.973 3.011 4.611 3.011 7.42 0 6.425-5.416 10.786-10.773 10.642zm9.103-26.061c-56.751 0-55.691.855-61.072-2.547-5.158-3.24-6.307-6.763-12.709-18.908-1.501-2.848-5.585-2.845-7.081.007l-6.184 11.788c-3.15 5.959-8.953 9.66-15.144 9.66h-7.06c0-15.35 4.707-28.056 14.496-38.635 13.067 3.051 26.443 4.597 39.822 4.597 13.556 0 27.104-1.587 40.315-4.718 9.429 10.119 14.617 22.689 14.617 38.756zm-13.16-47.97c0 .373-.259.701-.569.78-.045.011-.09.021-.135.032-26.875 6.825-55.287 6.824-82.162 0-.023-.006-.069-.017-.115-.027-.349-.105-.589-.424-.589-.785v-39.619c41.523 15.788 40.759 16.273 43.917 15.077l39.653-15.078zm-41.786-32.29-57.179-21.742 57.179-21.742 57.179 21.742z"/><path d="m89.464 201.269c-.292.24-7.2 5.994-11.509 16.088-2.093 4.9 5.292 7.981 7.357 3.141 3.508-8.218 9.185-13.01 9.242-13.058 1.697-1.404 1.939-3.918.54-5.621-1.404-1.706-3.924-1.955-5.63-.55z"/><path d="m74.544 233.456c-.007 1.266.021 2.448.14 3.897.172 2.091 1.921 3.673 3.982 3.673 2.348 0 4.182-2.001 3.991-4.327-.077-.938-.116-1.886-.116-2.817.027-5.927-7.938-5.565-7.997-.426z"/></g></svg>