<svg id="Icon_Set" enable-background="new 0 0 256 256" height="512" viewBox="0 0 256 256" width="512" xmlns="http://www.w3.org/2000/svg"><path d="m12.312 34.873h231.377c2.761 0 5 2.239 5 5v138.942c0 2.761-2.239 5-5 5h-231.377c-2.761 0-5-2.239-5-5v-138.942c0-2.761 2.238-5 5-5z" fill="#ffe2e2"/><path d="m248.69 39.871v138.94c0 2.77-2.24 5-5 5h-15c2.76 0 5-2.23 5-5v-138.94c0-2.76-2.24-5-5-5h15c2.76 0 5 2.24 5 5z" fill="#ffcfcf"/><path d="m27.31 183.811h-15c-2.76 0-5-2.23-5-5v-138.94c0-2.76 2.24-5 5-5h15c-2.76 0-5 2.24-5 5v138.94c0 2.77 2.24 5 5 5z" fill="#ffefee"/><path d="m225.849 73.798c4.146 9.214 4.146 19.828 0 29.042-.473 1.051-1.74 1.486-2.761.95-14.905-7.825-26.133-13.723-26.088-13.699-1.427-.749-1.427-2.792 0-3.541.633-.332 26.088-13.701 26.088-13.701 1.02-.536 2.288-.102 2.761.949z" fill="#ff4a73"/><path d="m189.358 60.536c3.473 2.748 6.273 5.982 8.41 9.501.599.987.236 2.277-.786 2.813-14.795 7.766-26.129 13.722-26.084 13.698-1.427.749-1.427 2.792 0 3.541 21.626 11.358 26.084 13.697 26.084 13.697 1.024.537 1.384 1.829.784 2.817-1.447 2.383-3.198 4.636-5.258 6.696-13.796 13.796-36.166 13.796-49.963 0-14.288-14.287-13.778-37.77 1.527-51.404 12.678-11.293 31.968-11.893 45.286-1.359z" fill="#f9d335"/><path d="m211.995 90.091 15.54 8.16c-.45 1.56-1.02 3.09-1.69 4.59-.47 1.05-1.74 1.49-2.76.95-12.625-6.634-6.927-3.642-26.09-13.7-1.42-.75-1.42-2.79 0-3.54 19.15-10.051 13.489-7.078 26.09-13.7 1.02-.54 2.29-.1 2.76.95.67 1.5 1.24 3.03 1.69 4.59l-15.54 8.16c-1.42.75-1.42 2.79 0 3.54z" fill="#f973a3"/><path d="m197.765 106.601c-1.45 2.39-3.2 4.64-5.26 6.7-8.81 8.82-21.13 12-32.48 9.55 6.41-1.38 12.5-4.57 17.48-9.55 2.06-2.06 3.81-4.31 5.26-6.7.6-.98.24-2.28-.78-2.81l-10.2-5.36-15.89-8.34c-1.42-.75-1.42-2.79 0-3.54l15.89-8.35 10.2-5.35c1.02-.54 1.38-1.83.78-2.81-2.13-3.52-4.93-6.76-8.41-9.5-4.29-3.39-9.19-5.63-14.29-6.73 10.03-2.15 20.86.05 29.29 6.73 3.48 2.74 6.28 5.98 8.41 9.5.6.98.24 2.27-.78 2.81-12.622 6.62-6.916 3.624-26.09 13.7-1.42.75-1.42 2.79 0 3.54 19.154 10.053 13.486 7.077 26.09 13.7 1.02.53 1.38 1.83.78 2.81z" fill="#f2c300"/><path d="m157.545 113.301c4.98 4.98 11.08 8.16 17.48 9.55-11.35 2.45-23.66-.73-32.48-9.55-14.29-14.29-13.78-37.77 1.53-51.4 8.6-7.66 20.24-10.41 30.99-8.09-5.81 1.24-11.35 3.95-15.99 8.09-15.31 13.63-15.82 37.11-1.53 51.4z" fill="#f9e27d"/><path d="m108.344 182.666 27.145-34.101c3.41-4.284 2.702-10.521-1.582-13.931-4.284-3.41-10.521-2.702-13.931 1.582l-16.451 20.666c-1.391 1.748-4.026 1.695-5.408-.061-.009-.012-.018-.023-.028-.035-15.357-19.515-42.178-20.384-58.285-1.072-7.066 8.371-11.409 19.832-11.409 32.475v27.162c0 3.194 2.23 5.776 4.979 5.776h70.259c2.753 0 4.979-2.582 4.979-5.776v-27.162c0-1.877-.107-3.724-.294-5.543z" fill="#3193f3"/><path d="m75.94 142.5c-7.76 1.69-15.18 6.07-21.13 13.21-7.07 8.38-11.41 19.84-11.41 32.48v27.16c0 3.2 2.23 5.78 4.98 5.78h-15c-2.75 0-4.98-2.58-4.98-5.78v-27.16c0-12.64 4.34-24.1 11.41-32.48 9.75-11.7 23.44-15.99 36.13-13.21z" fill="#35b1fc"/><path d="m84.69 146.32c-1.5 3.58-3.78 9.02-8.61 20.55-3.37 8.05-11.79 8.05-15.16 0-4.56-10.9-7-16.73-8.6-20.55 4.39 3.63 10.03 5.82 16.18 5.82s11.79-2.19 16.19-5.82z" fill="#ffbb98"/><path d="m75.69 167.71c-3.58 7.2-11.52 6.92-14.77-.84-4.56-10.9-7-16.73-8.6-20.55 4.39 3.63 10.03 5.82 16.18 5.82h.17c1.45 3.43 3.09 7.35 4.97 11.86.59 1.4 1.28 2.64 2.05 3.71z" fill="#ffcaa6"/><path d="m68.5 101.312c-18.731 0-30.591 19.418-23.194 35.773-.009.009 0 .018.009.028 11.082 24.764 48.602 17.064 48.602-10.393.001-13.892-11.25-25.408-25.417-25.408z" fill="#ffbb98"/><path d="m93.92 126.72c0 19.19-18.33 28.73-33.15 24.28 9.91-2.88 18.15-11.41 18.15-24.28 0-11.33-7.49-21.09-17.94-24.3 2.34-.72 4.86-1.11 7.52-1.11 14.17 0 25.42 11.52 25.42 25.41z" fill="#ffaa80"/><path d="m75.77 151c-11.22 3.26-24.56-.73-30.45-13.89-.01-.01-.01-.01-.01-.02-7.4-16.36 4.46-35.78 23.19-35.78 2.61 0 5.12.39 7.48 1.11-14.19 4.34-22.02 20.63-15.67 34.67 0 .01 0 .01.01.02 3.34 7.45 9.07 11.97 15.45 13.89z" fill="#ffcaa6"/><path d="m34.845 120.045v3.215h6.351c8.391 0 10.994-7.289 14.28-13.545 3.124 5.93 5.822 13.545 14.29 13.545h32.401v-3.215c0-30.079-36.45-44.806-57.462-23.796-6.096 6.086-9.86 14.496-9.86 23.796z" fill="#87828e"/><path d="m102.17 120.05v3.21h-15v-3.21c0-17.34-12.11-29.58-26.4-32.81 19.6-4.53 41.4 9.55 41.4 32.81z" fill="#796e84"/><path d="m75.77 87.24c-5.75 1.32-11.3 4.25-16.07 9.01-5.93 5.93-9.66 14.05-9.85 23.06-2.06 2.35-4.71 3.95-8.65 3.95h-6.36v-3.21c0-9.31 3.77-17.71 9.86-23.8 8.9-8.9 20.57-11.39 31.07-9.01z" fill="#a4a4a5"/><path d="m108.34 182.67-.02-.02c.19 1.82.29 3.66.29 5.54v27.16c0 3.2-2.22 5.78-4.98 5.78h-15c2.76 0 4.98-2.58 4.98-5.78v-27.16c0-1.88-.1-3.72-.29-5.54l.02.02 27.15-34.11c3.02-3.79 2.81-9.11-.25-12.65 1.95-2.26 4.72-3.44 7.5-3.44 2.17 0 4.34.71 6.17 2.16 4.28 3.41 4.99 9.65 1.58 13.93z" fill="#307fed"/><g fill="#5f266d"><path d="m243.69 30.87h-231.38c-4.962 0-9 4.037-9 9v138.94c0 4.963 4.038 9 9 9h12.098c-.001.127-.008.253-.008.381v27.159c0 5.393 4.028 9.78 8.98 9.78h70.25c4.952 0 8.98-4.388 8.98-9.78 0-33.57.003-26.063-.007-27.54h131.087c4.962 0 9-4.037 9-9v-138.94c0-4.963-4.038-9-9-9zm-138.184 148.937c-.846.838-1.293 2.029-1.165 3.259.358 3.428.269 2.589.269 32.284 0 1.07-.59 1.78-.98 1.78h-70.25c-.346 0-.98-.676-.98-1.78v-27.16c0-15.924 7.403-29.419 17.772-36.642l7.059 16.867c4.751 11.348 17.794 11.334 22.539.001l7.059-16.848c8.376 5.802 8.056 10.599 14.036 10.599 2.262-.001 4.37-1.016 5.794-2.796l16.449-20.659c1.136-1.425 2.824-2.242 4.632-2.242 1.342 0 2.616.448 3.677 1.288 2.551 2.033 2.975 5.761.943 8.311zm-58.404-53.74c3.689-1.53 6.596-4.357 8.379-7.759 2.787 5.36 8.207 8.952 14.285 8.952h20.13c-.204 6.937-3.746 13.387-9.377 17.187-14.757 10.003-34.203-1.569-33.417-18.38zm29.632 28.891c-4.156 9.92-5.15 13.949-8.234 13.949-3.074 0-4.05-3.964-8.215-13.916 5.543 1.655 11.52 1.406 16.449-.033zm-6.969-35.698c-9.245 0-8.205-13.544-14.29-13.544-6.015 0-5.126 13.544-14.28 13.544h-2.341c.197-7.633 3.26-14.772 8.678-20.183 18.359-18.354 49.98-5.778 50.624 20.183zm174.925 59.55c0 .561-.439 1-1 1h-127.961l22.89-28.758c4.779-5.998 3.786-14.769-2.224-19.557-2.498-1.979-5.49-3.025-8.654-3.025-4.258 0-8.227 1.916-10.89 5.259l-16.005 20.102c-2.774-3.436-5.914-6.362-9.365-8.767 3.996-5.039 6.27-11.33 6.413-17.804h4.274c2.209 0 4-1.791 4-4v-3.215c0-33.587-40.689-50.224-64.288-26.627-7.115 7.104-11.034 16.561-11.034 26.627v3.215c0 2.209 1.791 4 4 4h4.241c.091 6.771 2.598 12.98 6.428 17.786-3.203 2.243-6.143 4.943-8.761 8.085-6.25 7.408-10.285 16.673-11.738 26.679h-12.706c-.561 0-1-.439-1-1v-138.94c0-.552.449-1 1-1h231.38c.551 0 1 .448 1 1z"/><path d="m201.174 108.68c.856-1.41 1.094-3.13.653-4.721-.927-3.342-1.274-2.81-25.708-15.641l22.711-11.927c3.06-1.604 4.142-5.474 2.346-8.432-2.456-4.045-5.601-7.599-9.347-10.562v.001c-24.715-19.553-62.682-2.923-63.626 29.779-.63 21.834 16.818 40.449 39.313 40.449 13.973.002 26.585-7.297 33.658-18.946zm-64.974-21.271c.759-26.328 31.205-39.131 50.666-23.736v.001c2.433 1.924 4.546 4.155 6.304 6.653l-24.145 12.68c-4.274 2.248-4.273 8.379.001 10.623l24.143 12.679c-17.923 25.47-57.856 11.837-56.969-18.9z"/><path d="m225.971 68.947c-3.279-1.132-2.811-.66-30.843 14.061-4.274 2.248-4.275 8.376.001 10.624l26.09 13.7c3.064 1.609 6.855.289 8.267-2.851 4.623-10.271 4.623-22.054 0-32.324-.675-1.502-1.956-2.672-3.515-3.21zm-2.973 30.283-20.777-10.91 20.777-10.912c2.608 7.035 2.608 14.787 0 21.822z"/><path d="m216.187 140.344h-60.52c-2.209 0-4 1.791-4 4s1.791 4 4 4h60.52c2.209 0 4-1.791 4-4s-1.791-4-4-4z"/><path d="m216.187 160.87h-71.237c-2.209 0-4 1.791-4 4s1.791 4 4 4h71.237c2.209 0 4-1.791 4-4s-1.791-4-4-4z"/><path d="m60.25 50.25h-4.083c-2.209 0-4 1.791-4 4s1.791 4 4 4h4.083c2.209 0 4-1.791 4-4s-1.791-4-4-4z"/><path d="m41.167 50.25h-14c-2.209 0-4 1.791-4 4s1.791 4 4 4h14c2.209 0 4-1.791 4-4s-1.792-4-4-4z"/></g></svg>