<svg id="Icon_Set" enable-background="new 0 0 256 256" height="512" viewBox="0 0 256 256" width="512" xmlns="http://www.w3.org/2000/svg"><path d="m60.628 235.312h-47.117c-2.761 0-5-2.239-5-5v-158.031c0-2.761 2.239-5 5-5h42.117c2.761 0 5 2.239 5 5z" fill="#ffe2e2"/><path d="m242.489 235.312h-47.117v-163.031c0-2.761 2.239-5 5-5h42.117c2.761 0 5 2.239 5 5v158.03c0 2.762-2.239 5.001-5 5.001z" fill="#ffe2e2"/><path d="m195.287 118.347c-7.132-6.506-60.158-54.876-67.287-61.379-7.108 6.484-60.166 54.883-67.287 61.379h-.085v116.964h134.744v-116.964z" fill="#ffe2e2"/><path d="m26.431 85.649h16.278v31.422h-16.278z" fill="#5fcdff"/><path d="m26.431 185.912h16.278v31.422h-16.278z" fill="#5fcdff"/><path d="m26.431 135.781h16.278v31.422h-16.278z" fill="#5fcdff"/><path d="m213.291 85.649h16.278v31.422h-16.278z" fill="#5fcdff"/><path d="m213.291 185.912h16.278v31.422h-16.278z" fill="#5fcdff"/><path d="m213.291 135.781h16.278v31.422h-16.278z" fill="#5fcdff"/><path d="m155.202 235.312h-54.404v-54.697c0-13.533 10.971-24.504 24.504-24.504h5.397c13.533 0 24.504 10.971 24.504 24.504v54.697z" fill="#b76c6c"/><circle cx="128" cy="118.8" fill="#f9d335" r="19.435"/><path d="m60.63 72.278v163.03h-15v-163.03c0-2.76-2.24-5-5-5h15c2.76 0 5 2.24 5 5z" fill="#ffcfcf"/><path d="m28.51 235.308h-15c-2.76 0-5-2.23-5-5v-158.03c0-2.76 2.24-5 5-5h15c-2.76 0-5 2.24-5 5v158.03c0 2.77 2.24 5 5 5z" fill="#ffefee"/><path d="m195.37 118.348v116.96h-15v-110.96h-.08c-40.54-36.974-26.141-23.839-63.08-57.54l10.79-9.84c41.256 37.638 25.956 23.682 67.29 61.38z" fill="#ffcfcf"/><path d="m138.24 66.308c-35.49 32.381-21.527 19.644-62.53 57.04h-.08v111.96h-15v-116.96h.08c41.335-37.699 26.033-23.741 67.29-61.38z" fill="#ffefee"/><path d="m247.49 72.278v158.03c0 2.77-2.24 5-5 5h-15c2.76 0 5-2.23 5-5v-158.03c0-2.76-2.24-5-5-5h15c2.76 0 5 2.24 5 5z" fill="#ffcfcf"/><path d="m215.37 67.278c-2.76 0-5 2.24-5 5v163.03h-15v-163.03c0-2.76 2.24-5 5-5z" fill="#ffefee"/><path d="m147.44 118.798c0 10.74-8.71 19.44-19.44 19.44-2.66 0-5.19-.53-7.5-1.51 7.01-2.93 11.94-9.85 11.94-17.93 0-8.07-4.93-14.99-11.94-17.92 2.31-.97 4.84-1.51 7.5-1.51 10.73 0 19.44 8.7 19.44 19.43z" fill="#f2c300"/><path d="m135.5 136.728c-2.31.98-4.84 1.51-7.5 1.51-10.73 0-19.44-8.7-19.44-19.44 0-10.73 8.71-19.43 19.44-19.43 2.66 0 5.19.54 7.5 1.51-7.01 2.93-11.94 9.85-11.94 17.92 0 8.08 4.93 15 11.94 17.93z" fill="#f9e27d"/><path d="m155.2 180.618v54.69h-15v-54.69c0-11.9-8.47-21.81-19.7-24.04 1.55-.31 3.16-.47 4.8-.47h5.4c13.53 0 24.5 10.97 24.5 24.51z" fill="#965959"/><path d="m135.5 156.578c-11.23 2.23-19.7 12.14-19.7 24.04v54.69h-15v-54.69c0-13.54 10.97-24.51 24.5-24.51h5.4c1.64 0 3.25.16 4.8.47z" fill="#c98585"/><g fill="#5f266d"><path d="m242.49 63.278h-42.12c-4.96 0-9 4.04-9 9v37.08l-59.37-54.15v-12.67h27.423c1.42 0 1.923-2.404.693-3.312-5.186-3.827-2.52-1.859-12.709-9.386 10.195-7.532 7.521-5.557 12.709-9.386 1.23-.907.726-3.312-.693-3.312h-28.649c-.25 0-.487.056-.717.135-.603-.364-1.302-.586-2.057-.586-2.209 0-4 1.791-4 4v34.515l-59.37 54.15v-37.08c0-4.96-4.04-9-9-9h-42.12c-4.96 0-9 4.04-9 9v158.03c0 4.97 4.04 9 9 9h228.98c4.96 0 9-4.03 9-9v-158.028c0-4.96-4.04-9-9-9zm-229.98 167.03v-158.03c0-.55.45-1 1-1h42.12c.55 0 1 .45 1 1v46.07 112.96h-43.12c-.55 0-1-.44-1-1zm52.12-110.12 63.37-57.8 63.37 57.8v111.12h-32.17v-50.69c0-15.72-12.78-28.51-28.5-28.51h-5.4c-15.72 0-28.5 12.79-28.5 28.51v50.69h-32.17zm40.17 111.12v-50.69c0-11.31 9.2-20.51 20.5-20.51h5.4c11.3 0 20.5 9.2 20.5 20.51v50.69zm138.69-1c0 .56-.45 1-1 1h-43.12v-112.96-46.07c0-.55.45-1 1-1h42.12c.55 0 1 .45 1 1z"/><path d="m42.71 81.648h-16.28c-2.21 0-4 1.79-4 4v31.42c0 2.21 1.79 4 4 4h16.28c2.21 0 4-1.79 4-4v-31.42c0-2.21-1.79-4-4-4zm-4 31.42h-8.28v-23.42h8.28z"/><path d="m42.71 181.908h-16.28c-2.21 0-4 1.8-4 4v31.43c0 2.21 1.79 4 4 4h16.28c2.21 0 4-1.79 4-4v-31.43c0-2.2-1.79-4-4-4zm-4 31.43h-8.28v-23.43h8.28z"/><path d="m42.71 131.778h-16.28c-2.21 0-4 1.79-4 4v31.43c0 2.2 1.79 4 4 4h16.28c2.21 0 4-1.8 4-4v-31.43c0-2.21-1.79-4-4-4zm-4 31.43h-8.28v-23.43h8.28z"/><path d="m229.57 81.648h-16.28c-2.21 0-4 1.79-4 4v31.42c0 2.21 1.79 4 4 4h16.28c2.21 0 4-1.79 4-4v-31.42c0-2.21-1.79-4-4-4zm-4 31.42h-8.28v-23.42h8.28z"/><path d="m229.57 181.908h-16.28c-2.21 0-4 1.8-4 4v31.43c0 2.21 1.79 4 4 4h16.28c2.21 0 4-1.79 4-4v-31.43c0-2.2-1.79-4-4-4zm-4 31.43h-8.28v-23.43h8.28z"/><path d="m229.57 131.778h-16.28c-2.21 0-4 1.79-4 4v31.43c0 2.2 1.79 4 4 4h16.28c2.21 0 4-1.8 4-4v-31.43c0-2.21-1.79-4-4-4zm-4 31.43h-8.28v-23.43h8.28z"/><path d="m128 142.238c12.92 0 23.44-10.52 23.44-23.44s-10.52-23.43-23.44-23.43-23.44 10.51-23.44 23.43 10.52 23.44 23.44 23.44zm0-38.87c8.51 0 15.44 6.92 15.44 15.43s-6.93 15.44-15.44 15.44-15.44-6.93-15.44-15.44 6.93-15.43 15.44-15.43z"/></g></svg>