<svg id="Icon_Set" enable-background="new 0 0 256 256" height="512" viewBox="0 0 256 256" width="512" xmlns="http://www.w3.org/2000/svg"><path d="m130.08 196.375h-118.667c-2.761 0-5-2.239-5-5v-181.25c0-2.761 2.239-5 5-5h118.667c2.761 0 5 2.239 5 5v181.25c0 2.761-2.238 5-5 5z" fill="#ffe2e2"/><path d="m135.084 10.12v181.26c0 2.76-2.24 5-5 5h-15c2.76 0 5-2.24 5-5v-181.26c0-2.76-2.24-5-5-5h15c2.759 0 5 2.24 5 5z" fill="#ffcfcf"/><path d="m26.413 196.38h-15c-2.76 0-5-2.24-5-5v-181.26c0-2.76 2.24-5 5-5h15c-2.76 0-5 2.24-5 5v181.26c0 2.76 2.24 5 5 5z" fill="#ffefee"/><path d="m166.58 250.875h-118.667c-2.761 0-5-2.239-5-5v-181.25c0-2.761 2.239-5 5-5h118.667c2.761 0 5 2.239 5 5v181.25c0 2.761-2.238 5-5 5z" fill="#5fcdff"/><path d="m171.584 64.62v181.26c0 2.76-2.24 5-5 5h-15c2.76 0 5-2.24 5-5v-181.26c0-2.76-2.24-5-5-5h15c2.759 0 5 2.24 5 5z" fill="#30b6ff"/><path d="m62.913 250.88h-15c-2.76 0-5-2.24-5-5v-181.26c0-2.76 2.24-5 5-5h15c-2.76 0-5 2.24-5 5v181.26c0 2.76 2.24 5 5 5z" fill="#73d7f9"/><path d="m200.086 158.372h-16.138v32.044c0 2.269-1.839 4.108-4.108 4.108h-16.433c-2.269 0-4.108-1.839-4.108-4.108v-32.044h-16.138c-3.162 0-5.139-3.424-3.558-6.162l28.462-49.298c1.581-2.739 5.534-2.739 7.116 0l28.462 49.298c1.582 2.739-.394 6.162-3.557 6.162z" fill="#ff4a73"/><path d="m245.459 65.039h-16.141v32.046c0 2.27-1.84 4.11-4.11 4.11h-16.43c-2.27 0-4.11-1.84-4.11-4.11v-32.046h-16.134c-3.162 0-5.139-3.423-3.558-6.162l28.462-49.298c1.581-2.739 5.534-2.739 7.116 0l28.462 49.298c1.582 2.738-.394 6.162-3.557 6.162z" fill="#ff4a73"/><path d="m174.3 158.375h-15v32.04c0 2.27 1.84 4.11 4.11 4.11h15c-2.27 0-4.11-1.84-4.11-4.11z" fill="#f973a3"/><path d="m179.12 109.745-3.94-6.83c-1.58-2.74-5.53-2.74-7.11 0l-28.47 49.29c-1.58 2.74.4 6.17 3.56 6.17h15c-3.16 0-5.14-3.43-3.56-6.17z" fill="#f973a3"/><path d="m219.668 65.035h-15v32.05c0 2.27 1.84 4.11 4.11 4.11h15c-2.27 0-4.11-1.84-4.11-4.11z" fill="#f973a3"/><path d="m224.498 16.405-3.94-6.83c-1.59-2.74-5.54-2.74-7.12 0l-28.46 49.3c-1.58 2.74.39 6.16 3.56 6.16h15c-3.17 0-5.14-3.42-3.56-6.16z" fill="#f973a3"/><g fill="#5f266d"><path d="m85.705 28.167h15c2.209 0 4-1.791 4-4s-1.791-4-4-4h-15c-2.209 0-4 1.791-4 4s1.791 4 4 4z"/><path d="m115.705 28.167h3.792c2.209 0 4-1.791 4-4s-1.791-4-4-4h-3.792c-2.209 0-4 1.791-4 4s1.791 4 4 4z"/><path d="m80.584 97.25h52c2.209 0 4-1.791 4-4s-1.791-4-4-4h-52c-2.209 0-4 1.791-4 4s1.791 4 4 4z"/><path d="m66.584 129.25h66.746c2.209 0 4-1.791 4-4s-1.791-4-4-4h-66.746c-2.209 0-4 1.791-4 4s1.791 4 4 4z"/><path d="m66.584 152.25h54.416c2.209 0 4-1.791 4-4s-1.791-4-4-4h-54.416c-2.209 0-4 1.791-4 4s1.791 4 4 4z"/><path d="m66.584 175.25h65.416c2.209 0 4-1.791 4-4s-1.791-4-4-4h-65.416c-2.209 0-4 1.791-4 4s1.791 4 4 4z"/><path d="m142.33 190.25h-75.746c-2.209 0-4 1.791-4 4s1.791 4 4 4h75.746c2.209 0 4-1.791 4-4s-1.791-4-4-4z"/><path d="m142.33 213.25h-75.746c-2.209 0-4 1.791-4 4s1.791 4 4 4h75.746c2.209 0 4-1.791 4-4s-1.791-4-4-4z"/><path d="m178.647 100.907c-.753-1.302-1.813-2.33-3.061-3.027v-33.26c0-4.963-4.037-9-9-9h-27.5v-45.5c0-4.963-4.037-9-9-9h-118.669c-4.963 0-9 4.037-9 9v181.26c0 4.963 4.037 9 9 9h27.5v45.5c0 4.963 4.037 9 9 9h118.67c4.963 0 9-4.037 9-9v-47.36h4.25c4.472 0 8.11-3.638 8.11-8.109v-28.041h12.141c6.24 0 10.145-6.752 7.021-12.163zm-139.73-36.287v127.76h-27.5c-.552 0-1-.448-1-1v-181.26c0-.552.448-1 1-1h118.67c.552 0 1 .448 1 1v45.5h-83.17c-4.963 0-9 4.037-9 9zm128.669 181.26c0 .552-.448 1-1 1h-118.669c-.552 0-1-.448-1-1v-181.26c0-.552.448-1 1-1h118.67c.552 0 1 .448 1 1v33.298c-1.215.696-2.247 1.713-2.983 2.99l-28.462 49.298c-3.12 5.405.774 12.163 7.021 12.163h12.134v28.041c0 4.472 3.639 8.109 8.11 8.109h4.18v47.361zm12.361-55.47c0 .061-.05.109-.11.109h-16.43c-.061 0-.11-.049-.11-.109v-28.041h16.65zm20.233-36.095c-.03.054-.046.054-.093.054-.293 0-57.166.089-57.019-.163l28.462-49.298c.02-.034.049-.045.079-.05.009 0 .018-.002.027-.002.031.004.062.018.083.053l28.462 49.298c.024.039.031.054-.001.108z"/><path d="m252.484 56.873-28.462-49.298c-3.118-5.401-10.921-5.412-14.044 0l-28.462 49.298c-3.12 5.404.773 12.162 7.021 12.162h12.139v28.045c0 4.472 3.639 8.11 8.11 8.11h16.43c4.472 0 8.11-3.639 8.11-8.11v-28.045h12.136c6.241 0 10.146-6.751 7.022-12.162zm-27.157 40.207c0 .061-.05.11-.11.11h-16.43c-.061 0-.11-.05-.11-.11v-28.045h16.65zm20.229-36.099c-.031.054-.047.054-.094.054h-56.925c-.047 0-.063 0-.094-.054-.031-.055-.023-.068 0-.108l28.462-49.298h.001c.022-.041.03-.055.093-.055s.071.014.095.055l28.462 49.298c.024.04.031.054 0 .108z"/></g></svg>