<svg id="Icon_Set" enable-background="new 0 0 256 256" height="512" viewBox="0 0 256 256" width="512" xmlns="http://www.w3.org/2000/svg"><path d="m25.917 239.599v-223.198c0-5.523 4.477-10 10-10h184.167c5.523 0 10 4.477 10 10v223.199c0 5.523-4.477 10-10 10h-184.167c-5.523-.001-10-4.478-10-10.001z" fill="#ffe2e2"/><path d="m200.801 210.801h-145.602c-5.523 0-10-4.477-10-10v-145.602c0-5.523 4.477-10 10-10h145.603c5.523 0 10 4.477 10 10v145.603c-.001 5.522-4.478 9.999-10.001 9.999z" fill="#5fcdff"/><path d="m193.505 172.004h-131.01v-100.004c0-2.761 2.239-5 5-5h121.01c2.761 0 5 2.239 5 5z" fill="#ffe2e2"/><circle cx="128" cy="110.292" fill="#ff4a73" r="26.379"/><path d="m230.08 16.4v223.2c0 5.52-4.47 10-10 10h-15c5.53 0 10-4.48 10-10v-223.2c0-5.52-4.47-10-10-10h15c5.53 0 10 4.48 10 10z" fill="#ffcfcf"/><path d="m50.92 249.6h-15c-5.53 0-10-4.48-10-10v-223.2c0-5.52 4.47-10 10-10h15c-5.53 0-10 4.48-10 10v223.2c0 5.52 4.47 10 10 10z" fill="#ffefee"/><path d="m210.8 55.2v145.6c0 5.52-4.48 10-10 10h-15c5.52 0 10-4.48 10-10v-145.6c0-5.52-4.48-10-10-10h15c5.52 0 10 4.48 10 10z" fill="#30b6ff"/><path d="m70.2 210.8h-15c-5.52 0-10-4.48-10-10v-145.6c0-5.52 4.48-10 10-10h15c-5.52 0-10 4.48-10 10v145.6c0 5.52 4.48 10 10 10z" fill="#73d7f9"/><path d="m193.51 72v100h-15v-100c0-2.76-2.24-5-5-5h15c2.76 0 5 2.24 5 5z" fill="#ffcfcf"/><path d="m82.49 67c-2.76 0-5 2.24-5 5v100h-15v-100c0-2.76 2.24-5 5-5z" fill="#ffefee"/><path d="m188.505 185h-121.01c-2.761 0-5-2.239-5-5v-28.833h131.01v28.833c0 2.761-2.239 5-5 5z" fill="#87828e"/><path d="m193.51 151.17v28.83c0 2.76-2.24 5-5 5h-15c2.76 0 5-2.24 5-5v-28.83z" fill="#796e84"/><path d="m82.49 185h-15c-2.76 0-5-2.24-5-5v-28.83h15v28.83c0 2.76 2.24 5 5 5z" fill="#a4a4a5"/><path d="m154.38 110.29c0 14.57-11.81 26.38-26.38 26.38-2.61 0-5.13-.38-7.5-1.09 10.92-3.23 18.88-13.33 18.88-25.29s-7.96-22.06-18.88-25.29c2.37-.71 4.89-1.09 7.5-1.09 14.57 0 26.38 11.81 26.38 26.38z" fill="#ea2a6a"/><path d="m135.5 135.58c-2.37.71-4.89 1.09-7.5 1.09-14.57 0-26.38-11.81-26.38-26.38s11.81-26.38 26.38-26.38c2.61 0 5.13.38 7.5 1.09-10.92 3.23-18.88 13.33-18.88 25.29s7.96 22.06 18.88 25.29z" fill="#f973a3"/><path d="m141.765 109.426c.667.385.667 1.347 0 1.732-.195.113-20.245 11.688-20.076 11.591-.667.385-1.5-.096-1.5-.866v-11.591-11.591c0-.77.833-1.251 1.5-.866.195.113 20.245 11.688 20.076 11.591z" fill="#f9d335"/><path d="m131.19 103.32v13.94l-9.5 5.49c-.67.38-1.5-.1-1.5-.87v-23.18c0-.77.83-1.25 1.5-.87z" fill="#f9e27d"/><g fill="#5f266d"><path d="m143.01 226.45h-29.21c-5.288 0-5.285 8 0 8h29.21c5.285 0 5.293-8 0-8z"/><path d="m220.08 2.4h-184.16c-7.72 0-14 6.28-14 14v223.2c0 7.72 6.28 14 14 14h184.16c7.72 0 14-6.28 14-14v-223.2c0-7.72-6.28-14-14-14zm6 237.2c0 3.31-2.69 6-6 6h-184.16c-3.31 0-6-2.69-6-6v-223.2c0-3.31 2.69-6 6-6h184.16c3.31 0 6 2.69 6 6z"/><path d="m200.8 41.2h-145.6c-7.72 0-14 6.28-14 14v145.6c0 7.72 6.28 14 14 14h145.6c7.72 0 14-6.28 14-14v-145.6c0-7.72-6.28-14-14-14zm6 159.6c0 3.31-2.69 6-6 6h-145.6c-3.31 0-6-2.69-6-6v-145.6c0-3.31 2.69-6 6-6h145.6c3.31 0 6 2.69 6 6z"/><path d="m165.67 31.38c3.47 0 6.28-2.82 6.28-6.29s-2.81-6.29-6.28-6.29c-3.48 0-6.29 2.82-6.29 6.29s2.81 6.29 6.29 6.29z"/><path d="m183.17 29.06c2.19 0 3.97-1.78 3.97-3.97s-1.78-3.97-3.97-3.97c-2.2 0-3.97 1.78-3.97 3.97s1.77 3.97 3.97 3.97z"/><path d="m128 140.67c16.75 0 30.38-13.63 30.38-30.38s-13.63-30.38-30.38-30.38-30.38 13.63-30.38 30.38 13.63 30.38 30.38 30.38zm0-52.76c12.34 0 22.38 10.04 22.38 22.38s-10.04 22.38-22.38 22.38-22.38-10.04-22.38-22.38 10.04-22.38 22.38-22.38z"/><path d="m123.69 126.21 20.07-11.59c3.329-1.912 3.326-6.75 0-8.66l-20.07-11.59c-3.362-1.931-7.5.519-7.5 4.33v23.18c0 3.897 4.243 6.233 7.5 4.33zm.5-22.31 11.07 6.39-11.07 6.4z"/><path d="m188.5 63h-121c-4.97 0-9 4.04-9 9v108c0 4.96 4.03 9 9 9h121c4.97 0 9-4.04 9-9 0-12.333 0-94.56 0-108 0-4.96-4.03-9-9-9zm1 117c0 .55-.44 1-1 1h-121c-.56 0-1-.45-1-1 0-9.691 0-15.571 0-24.83h123zm-122-109h121c.56 0 1 .45 1 1v75.17h-123v-75.17c0-.55.44-1 1-1z"/><path d="m81.02 176.12s3.725-2.151 9.75-5.62c1.868-1.102 1.835-3.79 0-4.83-5.991-3.45-3.767-2.166-9.75-5.63-1.86-1.07-4.18.27-4.18 2.42v11.25c0 2.143 2.337 3.479 4.18 2.41z"/><path d="m126.25 171.94c0-2.752 0-5.039 0-7.71 0-5.285-8-5.293-8 0v7.71c0 5.285 8 5.293 8 0z"/><path d="m138.19 171.94c0-2.752 0-5.039 0-7.71 0-5.285-8-5.293-8 0v7.71c0 5.285 8 5.293 8 0z"/><path d="m164.75 176.5h12.75c1.102 0 2-.91 2-2 0-4.535 0-8.311 0-12.75 0-1.1-.9-2-2-2h-12.75c-1.1 0-2 .9-2 2v12.75c0 1.092.901 2 2 2z"/></g></svg>