<svg id="Icon_Set" enable-background="new 0 0 256 256" height="512" viewBox="0 0 256 256" width="512" xmlns="http://www.w3.org/2000/svg"><path d="m25.916 239.599v-223.198c0-5.523 4.477-10 10-10h184.167c5.523 0 10 4.477 10 10v223.199c0 5.523-4.477 10-10 10h-184.167c-5.522-.001-10-4.478-10-10.001z" fill="#ffe2e2"/><path d="m200.801 210.801h-145.602c-5.523 0-10-4.477-10-10v-145.602c0-5.523 4.477-10 10-10h145.603c5.523 0 10 4.477 10 10v145.603c-.001 5.522-4.478 9.999-10.001 9.999z" fill="#5fcdff"/><path d="m176.888 162.981v25.619c0 2.761-2.239 5-5 5h-93.876c-4.613-3.621-6.923-9.471-6.923-15.306 0-5.85 2.31-11.685 6.923-15.313z" fill="#ff4a73"/><path d="m192.438 137.362v20.619c0 2.761-2.239 5-5 5h-93.876c-4.613-3.621-6.923-9.471-6.923-15.306 0-5.85 2.31-11.685 6.923-15.313h93.876c2.761 0 5 2.238 5 5z" fill="#f9d335"/><path d="m230.08 16.4v223.2c0 5.52-4.47 10-10 10h-15c5.53 0 10-4.48 10-10v-223.2c0-5.52-4.47-10-10-10h15c5.53 0 10 4.48 10 10z" fill="#ffcfcf"/><path d="m50.92 249.6h-15c-5.53 0-10-4.48-10-10v-223.2c0-5.52 4.47-10 10-10h15c-5.53 0-10 4.48-10 10v223.2c0 5.52 4.47 10 10 10z" fill="#ffefee"/><path d="m210.8 55.2v145.6c0 5.52-4.48 10-10 10h-15c5.52 0 10-4.48 10-10v-145.6c0-5.52-4.48-10-10-10h15c5.52 0 10 4.48 10 10z" fill="#30b6ff"/><path d="m70.2 210.8h-15c-5.52 0-10-4.48-10-10v-145.6c0-5.52 4.48-10 10-10h15c-5.52 0-10 4.48-10 10v145.6c0 5.52 4.48 10 10 10z" fill="#73d7f9"/><path d="m176.89 162.98v25.62c0 2.76-2.24 5-5 5h-15c2.76 0 5-2.24 5-5v-25.62z" fill="#ea2a6a"/><path d="m93.01 193.6h-15c-4.61-3.62-6.92-9.47-6.92-15.31 0-5.85 2.31-11.68 6.92-15.31h15c-4.61 3.63-6.92 9.46-6.92 15.31 0 5.84 2.31 11.69 6.92 15.31z" fill="#f973a3"/><path d="m192.44 137.36v20.62c0 2.76-2.24 5-5 5h-15c2.76 0 5-2.24 5-5v-20.62c0-2.76-2.24-5-5-5h15c2.76 0 5 2.24 5 5z" fill="#f2c300"/><path d="m108.56 162.98h-15c-4.61-3.62-6.92-9.47-6.92-15.31s2.31-11.68 6.92-15.31h15c-4.61 3.63-6.92 9.47-6.92 15.31s2.31 11.69 6.92 15.31z" fill="#f9e27d"/><path d="m159.201 137.506-1.192.303c-25.604 6.499-52.427 6.499-78.031 0l-1.192-.303c-1.33-.338-2.262-1.535-2.262-2.908v-46.841h84.939v46.841c0 1.373-.932 2.571-2.262 2.908z" fill="#87828e"/><path d="m161.46 87.76v46.84c0 1.37-.93 2.57-2.26 2.91l-1.19.3c-15.25 3.87-30.93 5.44-46.52 4.69 10.6-.5 21.15-2.06 31.52-4.69l1.19-.3c1.33-.34 2.26-1.54 2.26-2.91v-46.84z" fill="#796e84"/><path d="m126.49 142.5c-15.59.75-31.27-.82-46.51-4.69l-1.19-.3c-1.33-.34-2.27-1.54-2.27-2.91v-46.84h15v46.84c0 1.37.94 2.57 2.27 2.91l1.19.3c10.36 2.63 20.91 4.19 31.51 4.69z" fill="#a4a4a5"/><path d="m87.256 71.274-26.822 10.199c-1.719.654-1.719 3.085 0 3.739l26.822 10.198 31.027 11.797c.458.174.964.174 1.422 0l31.027-11.797 26.821-10.198c1.719-.654 1.719-3.085 0-3.739l-26.821-10.198-31.027-11.797c-.458-.174-.964-.174-1.422 0z" fill="#87828e"/><path d="m177.55 85.21-26.82 10.2-31.03 11.8c-.45.17-.96.17-1.42 0l-15.29-5.82 15.74-5.98 26.82-10.2c1.72-.65 1.72-3.08 0-3.74l-26.82-10.2-15.74-5.98 15.29-5.81c.46-.18.97-.18 1.42 0l31.03 11.79 26.82 10.2c1.72.66 1.72 3.09 0 3.74z" fill="#796e84"/><path d="m119.26 95.41 15.73 5.98-15.29 5.82c-.45.17-.96.17-1.42 0l-31.02-11.8-26.83-10.2c-1.71-.65-1.71-3.08 0-3.74l26.83-10.2 31.02-11.79c.46-.18.97-.18 1.42 0l15.29 5.81-15.73 5.98-26.83 10.2c-1.71.66-1.71 3.09 0 3.74z" fill="#a4a4a5"/><g fill="#5f266d"><path d="m143.01 226.45h-29.21c-5.288 0-5.285 8 0 8h29.21c5.285 0 5.293-8 0-8z"/><path d="m220.08 2.4h-184.16c-7.72 0-14 6.28-14 14v223.2c0 7.72 6.28 14 14 14h184.16c7.72 0 14-6.28 14-14v-223.2c0-7.72-6.28-14-14-14zm6 237.2c0 3.31-2.69 6-6 6h-184.16c-3.31 0-6-2.69-6-6v-223.2c0-3.31 2.69-6 6-6h184.16c3.31 0 6 2.69 6 6z"/><path d="m200.8 41.2h-145.6c-7.72 0-14 6.28-14 14v145.6c0 7.72 6.28 14 14 14h145.6c7.72 0 14-6.28 14-14v-145.6c0-7.72-6.28-14-14-14zm6 159.6c0 3.31-2.69 6-6 6h-145.6c-3.31 0-6-2.69-6-6v-145.6c0-3.31 2.69-6 6-6h145.6c3.31 0 6 2.69 6 6z"/><path d="m165.67 31.38c3.47 0 6.28-2.82 6.28-6.29s-2.81-6.29-6.28-6.29c-3.48 0-6.29 2.82-6.29 6.29s2.81 6.29 6.29 6.29z"/><path d="m183.17 29.06c2.19 0 3.97-1.78 3.97-3.97s-1.78-3.97-3.97-3.97c-2.2 0-3.97 1.78-3.97 3.97s1.77 3.97 3.97 3.97z"/><path d="m190.39 128.86h-.01c-.37-1.314-.758-1.488-4.89-5.62 1.03-.92 1.68-2.25 1.68-3.74v-5.88c0-2.4-1.69-4.4-3.94-4.89v-25.72c0-2.136-2.461-4.588-4.26-5.28l-57.85-21.99c-1.37-.53-2.88-.52-4.26 0l-57.85 21.99c-5.158 1.975-5.127 9.278 0 11.22l13.51 5.14v40.51c0 3.2 2.17 5.99 5.28 6.78 1 .261 2.723.716 5.34 1.3-.33 1.62-.5 3.29-.5 4.99 0 4.04.94 7.93 2.66 11.31h-7.29c-.89 0-1.77.3-2.47.86-5.29 4.16-8.45 11.06-8.45 18.45 0 7.4 3.16 14.3 8.45 18.46.71.55 1.58.85 2.47.85h93.88c4.96 0 9-4.04 9-9v-21.62h6.55c4.96 0 9-4.04 9-9v-20.62c0-3.93-2.53-7.28-6.05-8.5zm-1.95 29.12c0 .55-.45 1-1 1h-10.55-81.83c-2.79-2.71-4.42-6.84-4.42-11.31 0-1.17.11-2.32.33-3.42 9.26 1.61 18.64 2.42 28.02 2.42 4.58 0 9.16-.19 13.72-.58-.2.48-.32 1.02-.32 1.58 0 2.21 1.79 4 4 4h52.05zm-15.55 16.31h-48.9c-2.21 0-4 1.79-4 4s1.79 4 4 4h48.9v6.31c0 .55-.45 1-1 1h-92.38c-2.79-2.71-4.42-6.84-4.42-11.31 0-4.46 1.63-8.59 4.42-11.31h14.05 79.33zm-92.37-40.47v-36.69l36.34 13.82c1.415.533 2.925.507 4.27 0l36.33-13.82v35.23 1.46c-26.32 6.58-51.435 6.375-76.94 0zm94.71-25.09c-2.26.49-3.94 2.49-3.94 4.89v5.88c0 1.49.65 2.829 1.679 3.729-4.029 4.029-4.291 4.13-4.72 5.13h-2.79v-34.269l9.77-3.72v18.36zm-56.24-5.53c-22.102-8.406-40.652-15.46-52.22-19.86 27.707-10.534 15.928-6.056 52.22-19.85l52.22 19.85c-1.51.575-51.563 19.61-52.22 19.86zm31.14 40.47c3.918-.752 6.884-1.469 10.06-2.29 2.52-.64 4.42-2.6 5.05-5.02h11.88c1.285.8 2.934.801 4.22 0h6.1c.55 0 1 .45 1 1v6.31z"/><path d="m147.03 130.7c.82-.25 1.59-.54 2.27-.85 4.841-2.159 1.54-9.449-3.26-7.3-.4.18-.86.35-1.38.51-4.975 1.549-2.829 9.199 2.37 7.64z"/><path d="m104.68 132.19c4.174.38 25.754 1.449 28.17.17 3.839-1.992 2.169-7.711-2.01-7.53-12.418.487-24.52-.61-25.52-.61-5.272-.431-5.968 7.528-.64 7.97z"/></g></svg>