<svg id="Icon_Set" enable-background="new 0 0 256 256" height="512" viewBox="0 0 256 256" width="512" xmlns="http://www.w3.org/2000/svg"><path d="m150.047 131.362h22.36v67.102h-22.36z" fill="#87828e" transform="matrix(.707 -.707 .707 .707 -69.389 162.307)"/><path d="m227.924 248.249 16.661-16.661c3.893-3.893 3.893-10.206 0-14.1l-44.51-44.51c-3.905-3.905-10.237-3.905-14.142 0l-16.639 16.639c-3.905 3.905-3.905 10.237 0 14.142l44.489 44.489c3.904 3.906 10.235 3.906 14.141.001z" fill="#796e84"/><circle cx="93.064" cy="89.39" fill="#5fcdff" r="84.561"/><path d="m121.008 117.1 21.854-12.617c2.707-1.563 2.707-5.469 0-7.032l-21.854-12.617c-17.292-9.983-38.596-9.983-55.888 0l-21.854 12.617c-2.707 1.563-2.707 5.469 0 7.032l21.854 12.617c17.292 9.984 38.596 9.984 55.888 0z" fill="#ffe2e2"/><circle cx="93.064" cy="100.967" fill="#307fed" r="15.18"/><path d="m100.56 173.609c-2.47.23-4.97.34-7.5.34-46.7 0-84.56-37.86-84.56-84.56s37.86-84.56 84.56-84.56c2.53 0 5.03.11 7.5.34-43.19 3.78-77.06 40.05-77.06 84.22s33.87 80.44 77.06 84.22z" fill="#73d7f9"/><path d="m177.63 89.389c0 46.7-37.86 84.56-84.57 84.56-2.53 0-5.03-.11-7.5-.34 43.2-3.78 77.07-40.05 77.07-84.22s-33.87-80.44-77.07-84.22c2.47-.23 4.97-.34 7.5-.34 46.71 0 84.57 37.86 84.57 84.56z" fill="#30b6ff"/><path d="m230.69 245.489-2.77 2.76c-3.9 3.9-10.23 3.9-14.14 0l-44.49-44.49c-3.9-3.9-3.9-10.24 0-14.14l2.77-2.76z" fill="#87828e"/><g fill="#5f266d"><path d="m247.413 214.66-44.511-44.51c-4.624-4.624-11.696-5.315-17.071-2.106l-23.518-23.517c46.028-57.69 4.841-143.698-69.25-143.698-48.833 0-88.562 39.729-88.562 88.562 0 48.832 39.729 88.561 88.562 88.561 17.049 0 32.986-4.848 46.512-13.23l24.787 24.788c-3.215 5.375-2.525 12.454 2.102 17.079l44.489 44.489c2.729 2.729 6.313 4.094 9.898 4.094 3.586 0 7.171-1.364 9.899-4.094l16.662-16.661c5.447-5.447 5.447-14.311.001-19.757zm-234.91-125.269c0-44.422 36.14-80.562 80.562-80.562 44.421 0 80.561 36.14 80.561 80.562 0 44.421-36.14 80.561-80.561 80.561-44.423-.001-80.562-36.14-80.562-80.561zm144.537 61.175 22.824 22.823-10.154 10.154-23.419-23.419c3.837-2.895 7.433-6.091 10.749-9.558zm84.716 78.194-16.661 16.661c-2.34 2.336-6.146 2.338-8.485 0l-44.489-44.489c-2.339-2.34-2.339-6.146 0-8.486l16.639-16.639c1.17-1.17 2.707-1.754 4.243-1.754s3.073.584 4.243 1.754l44.51 44.51c2.327 2.328 2.327 6.115 0 8.443z"/><path d="m144.862 93.987-21.854-12.618c-18.469-10.665-41.417-10.663-59.888 0l-21.855 12.618c-2.522 1.456-4.029 4.065-4.029 6.979-.001 2.914 1.505 5.523 4.029 6.981l21.854 12.617c18.469 10.663 41.417 10.665 59.888 0l21.855-12.617c2.523-1.458 4.029-4.067 4.029-6.981.001-2.913-1.506-5.523-4.029-6.979zm-4 7.033-21.854 12.617c-16.002 9.239-35.884 9.239-51.888 0l-21.847-12.726 21.847-12.614c16.003-9.238 35.885-9.24 51.888 0l21.854 12.618z"/><path d="m126.604 71.534c30.288 17.487 28.317 16.585 29.791 16.585 4.075 0 5.541-5.423 2.004-7.465l-27.795-16.048c-23.156-13.369-51.925-13.369-75.081 0l-27.795 16.048c-1.913 1.104-2.568 3.551-1.464 5.464s3.55 2.569 5.464 1.464l27.795-16.048c20.688-11.944 46.393-11.944 67.081 0z"/><path d="m93.064 81.786c-10.576 0-19.181 8.604-19.181 19.181s8.604 19.181 19.181 19.181 19.18-8.604 19.18-19.181-8.604-19.181-19.18-19.181zm0 30.361c-6.165 0-11.181-5.016-11.181-11.181s5.016-11.181 11.181-11.181c6.164 0 11.18 5.016 11.18 11.181s-5.016 11.181-11.18 11.181z"/><ellipse cx="93.064" cy="100.967" rx="5.572" ry="5.572" transform="matrix(.987 -.16 .16 .987 -14.971 16.211)"/><path d="m136.332 42.829c3.404 0 5.286-4.048 3-6.644-.642-.729-1.325-1.451-2.032-2.149-1.571-1.554-4.104-1.538-5.656.035-1.553 1.571-1.537 4.104.035 5.656 1.687 1.668 2.409 3.102 4.653 3.102z"/><path d="m104.646 25.737c.076.017 7.689 1.712 15.804 5.995 1.957 1.033 4.374.282 5.404-1.67 1.031-1.953.284-4.373-1.67-5.404-9.128-4.819-17.489-6.662-17.841-6.738-2.155-.465-4.284.902-4.753 3.059s.9 4.287 3.056 4.758z"/></g></svg>