<svg id="Icon_Set" enable-background="new 0 0 256 256" height="512" viewBox="0 0 256 256" width="512" xmlns="http://www.w3.org/2000/svg"><path d="m61.393 134.627s-44.384 36.967-26.783 85.509c.34.937 1.218 1.588 2.214 1.642 4.337.236 16.198-.18 23.49-10.713l36.019-59.399z" fill="#b76c6c"/><path d="m194.589 134.627s44.384 36.967 26.783 85.509c-.34.937-1.218 1.588-2.214 1.642-4.337.236-16.198-.18-23.49-10.713l-36.019-59.399z" fill="#b76c6c"/><path d="m171.299 137.627h-38.226-10.147-38.225s-34.926 60.222-19.758 102.286c2.119 5.875 7.794 9.714 14.04 9.714h43.943 10.147 43.943c6.246 0 11.921-3.839 14.04-9.714 15.169-42.064-19.757-102.286-19.757-102.286z" fill="#b76c6c"/><path d="m93.98 249.63h-15c-6.24 0-11.92-3.84-14.04-9.72-15.17-42.06 19.76-102.28 19.76-102.28h15s-34.93 60.22-19.76 102.28c2.12 5.88 7.8 9.72 14.04 9.72z" fill="#c98585"/><path d="m191.06 239.91c-2.12 5.88-7.8 9.72-14.04 9.72h-15c6.24 0 11.92-3.84 14.04-9.72 15.17-42.06-19.76-102.28-19.76-102.28h15s34.93 60.22 19.76 102.28z" fill="#965959"/><path d="m199.434 104.002v7.63c0 24.86-20.152 45.012-45.012 45.012h-11.426l-3.325 2.883-11.676 10.1-11.666-10.1-3.325-2.883h-11.436c-24.851 0-45.002-20.151-45.002-45.012v-7.63c0-21.766 15.462-39.929 35.988-44.099 2.912-.596 5.93-.903 9.014-.903h52.854c3.085 0 6.102.307 9.014.903 20.536 4.171 35.998 22.333 35.998 44.099z" fill="#b76c6c"/><path d="m127.038 153.247-7.499-11.753c-3.246-5.087.408-11.753 6.443-11.753.021 0 2.13 0 2.112 0 6.034 0 9.688 6.666 6.443 11.753z" fill="#f9d335"/><circle cx="93.75" cy="104.789" fill="#ffe2e2" r="18.657"/><circle cx="162.25" cy="104.789" fill="#ffe2e2" r="18.657"/><path d="m101.25 121.87c-2.29 1.02-4.83 1.58-7.5 1.58-10.3 0-18.66-8.36-18.66-18.66s8.36-18.66 18.66-18.66c2.67 0 5.21.56 7.5 1.58-6.57 2.88-11.16 9.45-11.16 17.08s4.59 14.2 11.16 17.08z" fill="#ffefee"/><path d="m169.75 121.87c-2.29 1.02-4.83 1.58-7.5 1.58-10.3 0-18.66-8.36-18.66-18.66s8.36-18.66 18.66-18.66c2.67 0 5.21.56 7.5 1.58-6.57 2.88-11.16 9.45-11.16 17.08s4.59 14.2 11.16 17.08z" fill="#ffefee"/><path d="m71.57 111.63v-7.63c0-21.76 15.46-39.93 35.98-44.1 2.92-.59 5.93-.9 9.02-.9h-15c-3.09 0-6.1.31-9.02.9-20.52 4.17-35.98 22.34-35.98 44.1v7.63c0 24.86 20.15 45.01 45 45.01h11.43 3.57c-24.85 0-45-20.15-45-45.01z" fill="#c98585"/><path d="m163.44 59.9c-2.92-.59-5.93-.9-9.02-.9h-15c3.09 0 6.1.31 9.02.9 20.53 4.17 35.99 22.34 35.99 44.1v7.63c0 24.86-20.15 45.01-45.01 45.01h3.58 11.42c24.86 0 45.01-20.15 45.01-45.01v-7.63c0-21.76-15.46-39.93-35.99-44.1z" fill="#965959"/><path d="m170.025 64.834-1.294.226c-27.804 4.861-56.93 4.861-84.734 0l-1.294-.226c-1.445-.253-2.456-1.148-2.456-2.175v-35.036h92.235v35.036c-.001 1.026-1.013 1.922-2.457 2.175z" fill="#87828e"/><path d="m133.86 68.58c-16.72.51-33.52-.66-49.86-3.52l-1.3-.23c-1.44-.25-2.45-1.14-2.45-2.17v-35.04h15v35.04c0 1.03 1.01 1.92 2.45 2.17l1.3.23c11.46 2 23.14 3.18 34.86 3.52z" fill="#a4a4a5"/><path d="m172.48 27.62v35.04c0 1.03-1.01 1.92-2.46 2.17l-1.29.23c-16.34 2.86-33.15 4.03-49.87 3.52 11.73-.34 23.41-1.52 34.87-3.52l1.29-.23c1.45-.25 2.46-1.14 2.46-2.17v-35.04z" fill="#796e84"/><path d="m91.899 15.294-29.126 7.628c-1.867.489-1.867 2.308 0 2.797l29.126 7.628 33.692 8.824c.497.13 1.047.13 1.544 0l33.692-8.824 29.126-7.628c1.867-.489 1.867-2.308 0-2.797l-29.126-7.628-33.692-8.824c-.497-.13-1.047-.13-1.544 0z" fill="#87828e"/><path d="m49.47 219.74c-5.17 2.09-10.15 2.17-12.65 2.04-.99-.06-1.87-.71-2.21-1.64-17.6-48.55 26.78-85.51 26.78-85.51l9.93 4.84c-11.06 11.49-35.37 42.3-21.85 80.27z" fill="#c98585"/><path d="m221.37 220.14c-.34.93-1.22 1.58-2.21 1.64-2.5.13-7.48.05-12.65-2.04 13.52-37.97-10.79-68.78-21.85-80.271l9.93-4.84c0 .001 44.38 36.96 26.78 85.511z" fill="#965959"/><path d="m141.73 33.35 9.55 2.5-24.14 6.32c-.5.13-1.05.13-1.55 0l-33.69-8.82-29.13-7.63c-1.86-.49-1.86-2.31 0-2.8l29.13-7.63 33.69-8.82c.5-.13 1.05-.13 1.55 0l24.14 6.32-9.55 2.5-29.12 7.63c-1.87.49-1.87 2.31 0 2.8z" fill="#a4a4a5"/><g fill="#5f266d"><path d="m218.058 157.169c-7.348-12.646-16.062-21.246-19.452-24.345 5.462-11.342 4.824-20.074 4.824-28.824 0-18.566-10.496-35.459-26.95-43.762v-26.856l11.291-2.957v12.805h-1.284c-1.844 0-3.338 1.495-3.338 3.338 0 5.546-.251 6.322.969 7.552l-2.549 1.756c-1.819 1.253-2.278 3.744-1.025 5.563 1.256 1.822 3.749 2.275 5.563 1.024l1.665-1.146c0 5.446 8 5.466 8 0 1.685 1.161 2.418 1.853 3.93 1.853 3.916 0 5.499-5.072 2.272-7.294l-2.55-1.756c1.221-1.23.969-2.014.969-7.552 0-1.844-1.495-3.338-3.338-3.338h-1.284v-19.155c0-1.485-.819-2.766-2.021-3.456-1.653-1.623 2.622-.151-65.604-18.02-1.167-.306-2.4-.306-3.568.001-11.194 2.932-25.761 6.747-62.819 16.452-5.84 1.531-5.836 9.006.001 10.535l14.49 3.795v28.653c-14.684 8.858-23.68 24.656-23.68 41.965 0 8.728-.643 17.472 4.824 28.824-3.391 3.1-12.104 11.7-19.451 24.345-12.254 21.088-14.707 43.334-7.092 64.333.89 2.451 3.148 4.127 5.756 4.271 7.147.392 14.697-1.412 20.601-5.79.311 7.321 1.526 14.511 3.97 21.284 2.666 7.395 9.821 12.363 17.803 12.363h98.04c7.982 0 15.137-4.969 17.803-12.362 2.444-6.774 3.659-13.963 3.97-21.285 5.854 4.341 13.388 6.186 20.603 5.79 2.606-.144 4.865-1.819 5.755-4.272 7.612-20.998 5.159-43.244-7.094-64.332zm-144.836-132.849 53.142-13.918 53.141 13.918-53.141 13.918zm11.028 36.721v-25.563c43.785 11.468 41.435 11.21 43.899 10.562l40.331-10.563v25.563c-26.918 4.825-56.446 4.936-84.23.001zm56.15 11.269-13.36 10.603-13.264-10.526c8.947.447 17.627.423 26.624-.077zm-79.83 31.69c0-14.726 7.794-28.13 20.45-35.471 1.335.405 10.149 1.848 18.466 2.73 27.114 21.517 25.633 20.76 27.555 20.76 1.928 0 .431.765 27.764-20.927 2.211-.249 16.21-1.833 18.713-3.388 13.403 7.06 21.914 21 21.914 36.295v7.63c0 22.613-18.397 41.01-41.01 41.01h-11.422c-.963 0-1.895.348-2.622.979l-12.378 10.722-12.378-10.721c-.728-.632-1.659-.979-2.622-.979h-11.43c-22.607 0-41-18.396-41-41.01zm-3.133 104.305c-.145.151-.289.305-.412.483-5.619 8.115-14.538 9.139-18.993 9.029-13.282-38.413 14.949-69.586 23.544-77.925 3.207 4.527 7.16 8.485 11.681 11.699-6.417 14.28-14.198 35.426-15.82 56.714zm129.86 30.249c-1.526 4.232-5.656 7.076-10.277 7.076h-98.04c-4.621 0-8.751-2.844-10.277-7.077-9.709-26.911 2.216-62.032 11.472-82.841 6.469 3.154 13.728 4.928 21.395 4.928h9.936l13.876 12.015c1.503 1.301 3.732 1.301 5.235 0l13.876-12.015h9.926c7.67 0 14.933-1.775 21.404-4.93 9.257 20.808 21.184 55.93 11.474 82.844zm30.671-20.736c-4.457.108-13.375-.915-18.993-9.029-.123-.178-.267-.332-.412-.483-1.622-21.29-9.403-42.437-15.821-56.715 4.523-3.215 8.477-7.175 11.685-11.703 8.597 8.312 36.858 39.42 23.541 77.93z"/><path d="m116.167 143.645 7.499 11.753c.735 1.151 2.006 1.849 3.372 1.849s2.637-.697 3.372-1.849l7.499-11.753c4.951-7.757-.612-17.904-9.814-17.904h-2.112c-4.317 0-8.134 2.26-10.209 6.046s-1.929 8.219.393 11.858zm6.622-8.012c1.207-2.203 3.19-1.892 5.306-1.892 2.877 0 4.62 3.172 3.07 5.602l-4.126 6.468c-4.274-6.698-5.558-7.796-4.25-10.178z"/><path d="m93.75 127.446c12.493 0 22.657-10.164 22.657-22.657s-10.164-22.657-22.657-22.657-22.657 10.164-22.657 22.657 10.164 22.657 22.657 22.657zm0-37.314c8.082 0 14.657 6.575 14.657 14.657s-6.575 14.657-14.657 14.657-14.657-6.575-14.657-14.657 6.575-14.657 14.657-14.657z"/><circle cx="93.75" cy="104.789" r="5.846"/><path d="m162.25 127.446c12.493 0 22.657-10.164 22.657-22.657s-10.164-22.657-22.657-22.657-22.657 10.164-22.657 22.657 10.164 22.657 22.657 22.657zm0-37.314c8.082 0 14.657 6.575 14.657 14.657s-6.575 14.657-14.657 14.657-14.657-6.575-14.657-14.657 6.575-14.657 14.657-14.657z"/><circle cx="162.25" cy="104.789" r="5.846"/><path d="m102.155 196.539 5.88-7.707c1.34-1.757 1.002-4.267-.754-5.606-1.756-1.342-4.266-1.003-5.606.753l-5.88 7.708c-.4.524-1.188.528-1.59-.001l-5.88-7.707c-1.34-1.756-3.851-2.093-5.606-.753-1.756 1.34-2.094 3.85-.754 5.606l5.88 7.706c3.6 4.72 10.704 4.727 14.31.001z"/><path d="m135.155 196.539 5.88-7.707c1.34-1.757 1.002-4.267-.754-5.606-1.756-1.342-4.266-1.003-5.606.753l-5.88 7.708c-.4.524-1.188.528-1.59-.001l-5.88-7.707c-1.341-1.756-3.85-2.093-5.606-.753s-2.094 3.85-.754 5.606l5.88 7.706c3.6 4.72 10.704 4.727 14.31.001z"/><path d="m173.282 183.225c-1.756-1.342-4.267-1.003-5.606.753l-5.88 7.708c-.4.524-1.188.528-1.59-.001l-5.88-7.707c-1.34-1.756-3.851-2.093-5.606-.753-1.756 1.34-2.094 3.85-.754 5.606l5.88 7.706c3.6 4.72 10.704 4.728 14.311.001l5.88-7.707c1.338-1.756 1.001-4.266-.755-5.606z"/><path d="m123.782 212.405c-1.756-1.34-4.267-1.002-5.606.755l-5.88 7.708c-.401.526-1.188.526-1.59 0l-5.88-7.708c-1.34-1.757-3.85-2.094-5.606-.755-1.756 1.341-2.094 3.851-.754 5.606l5.88 7.708c3.601 4.721 10.705 4.728 14.311 0l5.88-7.708c1.338-1.755 1.001-4.265-.755-5.606z"/><path d="m156.782 212.405c-1.756-1.34-4.266-1.002-5.606.755l-5.88 7.708c-.401.526-1.188.526-1.59 0l-5.88-7.708c-1.34-1.757-3.85-2.094-5.606-.755-1.756 1.341-2.094 3.851-.754 5.606l5.88 7.708c3.601 4.721 10.705 4.728 14.311 0l5.88-7.708c1.338-1.755 1.001-4.265-.755-5.606z"/></g></svg>