<svg id="Layer_1" enable-background="new 0 0 512 512" height="512" viewBox="0 0 512 512" width="512" xmlns="http://www.w3.org/2000/svg"><g><g><path d="m495.933 112.628h-30.705-209.225v.04l-.007-.04h-209.224-30.705c-8.874 0-16.067 7.193-16.067 16.067v288.775 9.29c0 8.873 7.193 16.067 16.067 16.067h479.867c8.873 0 16.067-7.193 16.067-16.067v-9.29-288.775c-.001-8.874-7.194-16.067-16.068-16.067z" fill="#86dcff"/><path d="m454.18 72.566c-15.201-5.015-46.187-12.682-93.567-12.682-70.411-.001-104.613 16.931-104.613 16.931s-34.202-16.931-104.612-16.931c-47.38 0-78.366 7.667-93.567 12.682-6.593 2.175-11.049 8.321-11.049 15.264v287.35h418.457v-287.35c-.001-6.943-4.456-13.089-11.049-15.264z" fill="#f2fdff"/><path d="m199.872 226.205c-15.397-2.459-25.324-4.295-48.485-4.295-23.154 0-33.093 1.833-48.488 4.29l-9.29-9.29v-91.922c0-2.562 1.871-4.741 4.406-5.108 14.609-2.115 32.369-3.625 53.372-3.625 21.002 0 38.761 1.51 53.369 3.625 2.535.367 4.406 2.547 4.406 5.108v91.927z" fill="#ff5876"/><path d="m93.609 216.91v12.592c0 3.129 2.758 5.545 5.857 5.112 14.329-2.004 31.616-3.414 51.921-3.414 20.311 0 37.589 1.412 51.917 3.418 3.1.434 5.858-1.982 5.858-5.112v-12.591c-15.397-2.459-34.614-4.295-57.775-4.295-23.154 0-42.383 1.832-57.778 4.29z" fill="#e6485d"/><path d="m360.612 358.249c-70.41 0-104.612 16.931-104.612 16.931s-34.202-16.931-104.612-16.931-104.616 16.931-104.616 16.931v4.349 9.29c0 7.218 6.985 12.37 13.878 10.231 16.053-4.981 46.129-11.777 90.737-11.777 48.293 0 79.553 7.965 94.426 12.969l21.331-.319c15.235-5.016 46.188-12.65 93.468-12.65 44.608 0 74.685 6.796 90.738 11.777 6.893 2.139 13.878-3.013 13.878-10.231v-9.29-4.349s-34.205-16.931-104.616-16.931z" fill="#e4eef9"/><path d="m451.35 389.76c-16.053-4.981-46.129-11.777-90.738-11.777-70.411 0-104.612 16.931-104.612 16.931s-34.202-16.931-104.612-16.931c-44.608 0-74.685 6.796-90.737 11.777-6.894 2.139-13.878-3.013-13.878-10.231v18.58c0 7.218 6.985 12.37 13.878 10.231 16.053-4.981 46.129-11.777 90.737-11.777 70.411 0 104.612 16.931 104.612 16.931s34.202-16.931 104.612-16.931c44.608 0 74.685 6.796 90.738 11.777 6.893 2.139 13.878-3.013 13.878-10.231v-18.58c0 7.218-6.985 12.37-13.878 10.231z" fill="#d5e0f2"/><path d="m495.933 433.536h-479.866c-8.874 0-16.067-7.193-16.067-16.067v18.581c0 8.873 7.193 16.067 16.067 16.067h479.867c8.873 0 16.067-7.193 16.067-16.067v-18.581c-.001 8.874-7.194 16.067-16.068 16.067z" fill="#56caed"/></g><g fill="#405b6c"><path d="m302.919 166.434c.406 0 .818-.032 1.232-.098 17.477-2.791 36.541-4.207 56.665-4.207 20.14 0 39.205 1.414 56.668 4.202 4.233.678 8.207-2.207 8.883-6.437s-2.207-8.207-6.437-8.883c-18.269-2.917-38.158-4.396-59.114-4.396-20.941 0-40.828 1.481-59.111 4.401-4.231.676-7.113 4.653-6.437 8.883.61 3.817 3.906 6.535 7.651 6.535z"/><path d="m302.919 204.824c.406 0 .818-.032 1.232-.098 17.478-2.791 36.543-4.206 56.665-4.206 20.137 0 39.203 1.414 56.669 4.201 4.232.676 8.206-2.207 8.882-6.437s-2.207-8.207-6.438-8.883c-18.272-2.916-38.16-4.395-59.113-4.395-20.939 0-40.827 1.481-59.111 4.4-4.231.676-7.113 4.653-6.437 8.883.609 3.816 3.906 6.535 7.651 6.535z"/><path d="m302.919 243.213c.406 0 .818-.032 1.232-.098 17.477-2.791 36.541-4.207 56.665-4.207 20.138 0 39.204 1.413 56.668 4.202 4.233.675 8.207-2.207 8.883-6.437s-2.207-8.207-6.437-8.883c-18.271-2.917-38.159-4.396-59.114-4.396-20.941 0-40.828 1.481-59.111 4.401-4.231.676-7.113 4.653-6.437 8.883.61 3.817 3.906 6.535 7.651 6.535z"/><path d="m419.93 266.181c-18.269-2.917-38.158-4.396-59.114-4.396-20.941 0-40.828 1.481-59.111 4.401-4.231.676-7.113 4.653-6.437 8.884.657 4.252 4.748 7.126 8.883 6.436 17.477-2.791 36.541-4.207 56.665-4.207 20.14 0 39.205 1.414 56.668 4.202 4.233.678 8.207-2.207 8.883-6.437.676-4.231-2.207-8.208-6.437-8.883z"/><path d="m360.816 300.174c-20.939 0-40.827 1.481-59.111 4.4-4.23.676-7.113 4.653-6.437 8.883.656 4.253 4.748 7.127 8.883 6.437 17.478-2.791 36.543-4.206 56.665-4.206 4.285 0 7.757-3.473 7.757-7.757s-3.472-7.757-7.757-7.757z"/><path d="m210.295 266.185c-18.283-2.92-38.17-4.401-59.111-4.401-20.956 0-40.845 1.479-59.114 4.396-4.23.676-7.112 4.653-6.437 8.883.676 4.23 4.652 7.11 8.883 6.437 17.463-2.788 36.529-4.202 56.668-4.202 20.123 0 39.188 1.416 56.664 4.207 4.135.69 8.227-2.184 8.884-6.436.675-4.231-2.206-8.208-6.437-8.884z"/><path d="m210.295 304.574c-18.284-2.919-38.172-4.4-59.11-4.4-20.953 0-40.841 1.479-59.113 4.395-4.23.675-7.113 4.652-6.437 8.883.675 4.23 4.652 7.113 8.883 6.437 17.466-2.788 36.532-4.201 56.668-4.201 20.122 0 39.186 1.415 56.664 4.206 4.136.69 8.227-2.184 8.883-6.437.674-4.23-2.208-8.207-6.438-8.883z"/><path d="m302.919 128.047c.406 0 .818-.032 1.232-.098 17.477-2.791 36.541-4.207 56.665-4.207 20.14 0 39.205 1.414 56.668 4.202 4.233.678 8.207-2.207 8.883-6.437s-2.207-8.207-6.437-8.883c-18.269-2.917-38.158-4.396-59.114-4.396-20.941 0-40.828 1.481-59.111 4.401-4.231.676-7.113 4.653-6.437 8.883.61 3.817 3.906 6.535 7.651 6.535z"/></g></g></svg>