<svg id="Layer_1" enable-background="new 0 0 512 512" height="512" viewBox="0 0 512 512" width="512" xmlns="http://www.w3.org/2000/svg"><g><g><path d="m164.987 165.507-20.414 3.226c-8.251 1.304-13.922 8.955-12.823 17.189 0 0 9.24 9.061 17.616 7.737l10.964-1.733 6.411-10.935 8.84-7.613z" fill="#e4eef9"/><path d="m166.742 180.992-30.569 4.878c-1.498.237-2.977.239-4.408.051.017.125.02.249.04.374 1.324 8.375 9.186 14.092 17.562 12.769l23.995-3.792 6.423-6.423z" fill="#d5e0f2"/><path d="m200.501 236.858v-13.194l2.273-10.921-10.792 2.401-16.282 16.283c-3.511 3.511-4.966 8.3-4.365 12.87.425 3.234 13.485 8.242 19.481 2.246z" fill="#e4eef9"/><path d="m200.501 223.665-16.282 16.282c-3.511 3.511-8.298 4.95-12.868 4.349.425 3.234 1.864 6.36 4.349 8.845 5.996 5.996 15.717 5.996 21.713 0l16.282-16.282v-13.194z" fill="#d5e0f2"/><path d="m442.145 502.671h-337.653l-9.329-9.329v-2.776c0-14.312 11.602-25.915 25.915-25.915h304.482c14.312 0 25.915 11.602 25.915 25.915v2.776z" fill="#405b6c"/><path d="m100.346 512h345.946c2.863 0 5.183-2.32 5.183-5.183v-13.476h-356.312v13.476c0 2.863 2.32 5.183 5.183 5.183z" fill="#2d4456"/><path d="m380.351 81.723v-13.194l-3.423-16.617-29.811-16.616-31.356 31.356 16.617 29.811 16.616 3.422 13.194.001z" fill="#e4eef9"/><path d="m380.351 68.529-31.357 31.357v13.193h13.194l31.356-31.356v-13.194z" fill="#d5e0f2"/><path d="m356.511 147.143-1.263 20.828c36.969 25.902 61.186 68.817 61.186 117.283 0 78.914-64.202 143.116-143.116 143.116-37.235 0-71.189-14.298-96.672-37.687l-30.146-11.645-18.234 11.647c32.647 44.796 85.504 73.965 145.052 73.965 98.919 0 179.396-80.477 179.396-179.396 0-58.434-28.088-110.427-71.467-143.201z" fill="#e4eef9"/><path d="m365.307 131.295-25.55 5.527-1.1 21.122c5.786 2.982 11.344 6.348 16.641 10.062l25.937-25.937c-5.108-3.859-10.416-7.468-15.928-10.774z" fill="#d5e0f2"/><path d="m159.583 372.016-20.955-9.329-22.282 9.329c3.595 6.478 7.593 12.701 11.935 18.658h48.373c-6.217-5.706-11.937-11.945-17.071-18.658z" fill="#d5e0f2"/><path d="m61.389 348.467c2.715-4.687 7.784-7.84 13.59-7.84h233.346c5.806 0 10.876 3.153 13.59 7.84 1.338 2.31.18 14.22-13.59 14.22h-233.346c-13.771 0-14.928-11.91-13.59-14.22z" fill="#405b6c"/><path d="m308.325 356.322h-233.346c-5.806 0-10.863-3.161-13.578-7.847-1.338 2.31-2.117 4.985-2.117 7.847 0 8.668 7.027 15.694 15.694 15.694h233.346c8.668 0 15.694-7.026 15.694-15.694 0-2.862-.779-5.537-2.117-7.847-2.713 4.686-7.77 7.847-13.576 7.847z" fill="#2d4456"/><path d="m391.018 79.197-50.904-50.904c-2.024-2.024-2.024-5.306 0-7.33l19.446-19.445c2.024-2.024 5.306-2.024 7.33 0l50.904 50.904v13.194l-13.581 13.581z" fill="#405b6c"/><path d="m417.793 52.422-26.775 26.775 9.529 9.529c2.024 2.024 5.306 2.024 7.33 0l19.445-19.445c2.024-2.024 2.024-5.306 0-7.33z" fill="#2d4456"/><path d="m271.38 212.028h-13.194l-29.301-16.108-25.267-38.461 97.81-97.81c2.024-2.024 5.306-2.024 7.33 0l50.904 50.904v13.194z" fill="#86dcff"/><path d="m359.662 110.553-101.475 101.475v13.193h13.194l97.81-97.81c2.024-2.024 2.024-5.306 0-7.33z" fill="#56caed"/><path d="m253.202 280.986-4.891-18.76-.528-9.116-14.214 2.368-3.792 23.995c-.237 1.498-.248 2.979-.06 4.409 0 .001 13.153 16.318 23.485-2.896z" fill="#e4eef9"/><path d="m282.515 236.357-103.225-103.226c-19.143 19.143-19.143 50.179 0 69.322l34.405 34.405 6.095 6.095c19.143 19.143 43.582 25.739 62.725 6.597z" fill="#405b6c"/><path d="m260.108 284.266 3.226-20.414-7.198-6.247-7.822 4.614-1.399 8.853c-1.304 8.25-8.954 13.906-17.188 12.809.866 6.569 5.942 12.067 12.82 13.154 8.374 1.324 16.237-4.393 17.561-12.769z" fill="#d5e0f2"/><path d="m295.709 249.55-13.194-13.194c-19.142 19.143-50.179 19.143-69.321.001l13.193 13.193c19.143 19.143 50.179 19.143 69.322 0z" fill="#2d4456"/></g></g></svg>