<svg id="Layer_1" enable-background="new 0 0 512 512" height="512" viewBox="0 0 512 512" width="512" xmlns="http://www.w3.org/2000/svg"><g><g><path d="m65.878 9.29-9.291-9.29h-12.548c-8.552 0-15.484 6.932-15.484 15.484v481.032c0 8.552 6.932 15.484 15.484 15.484h12.549l9.29-9.29z" fill="#ffcf4d"/><path d="m56.587 0v512h18.581l27.871-256-27.871-256z" fill="#ffb629"/><path d="m474.155 43.333-9.29 9.29-14.536 9.29-14.536-9.29v-28.797c0-9.863 5.993-18.326 14.536-21.947l9.327-.103c10.328 2.295 14.5 8.891 14.5 22.05v19.507z" fill="#ff5876"/><path d="m459.619 0c-3.296 0-6.436.67-9.29 1.88 8.543 3.621 14.536 12.084 14.536 21.947v28.796l9.29 9.29 9.29-9.29v-28.797c0-13.159-10.668-23.826-23.826-23.826z" fill="#e6485d"/><path d="m339.608 512h-9.29-255.15v-512h255.149 9.29c19.953 0 36.129 16.176 36.129 36.129v439.742c.001 19.953-16.175 36.129-36.128 36.129z" fill="#ff5876"/><path d="m348.898 0h-18.581c19.953 0 36.129 16.176 36.129 36.129v439.742c0 19.953-16.176 36.129-36.129 36.129h18.581c19.953 0 36.129-16.176 36.129-36.129v-439.742c0-19.953-16.176-36.129-36.129-36.129z" fill="#e6485d"/><path d="m302.694 184.904h-9.29-143.773c-5.701 0-10.322-4.622-10.322-10.323v-85.502c0-5.701 4.622-10.322 10.322-10.322h143.773 9.29c5.701 0 10.323 4.622 10.323 10.322v85.502c0 5.701-4.622 10.323-10.323 10.323z" fill="#f2fdff"/><path d="m311.985 78.756h-18.581c5.701 0 10.323 4.622 10.323 10.322v85.502c0 5.701-4.622 10.323-10.323 10.323h18.581c5.701 0 10.323-4.622 10.323-10.323v-85.501c-.001-5.701-4.622-10.323-10.323-10.323z" fill="#e4eef9"/><path d="m474.155 78.842-9.291 9.29-14.536 9.29-14.536-9.29v-35.509h29.072l9.291 9.29z" fill="#e4eef9"/><path d="m464.864 52.623v35.509l9.291 9.29 9.29-9.29v-35.509z" fill="#d5e0f2"/><path d="m474.155 458.134-9.291 9.29-14.536 9.29-14.536-9.29v-379.292h29.072l9.291 9.29z" fill="#ffcf4d"/><path d="m464.864 88.132v379.292l9.291 9.29 9.29-9.29v-379.292z" fill="#ffb629"/><path d="m458.254 499.105 11.735-23.381-5.125-8.3h-29.072l14.536 31.576z" fill="#ffe0cc"/><path d="m464.864 467.424-14.536 31.576 4.602 9.997c1.843 4.004 7.534 4.004 9.377 0l19.138-41.573z" fill="#ffceb3"/></g></g></svg>