<svg id="Layer_1" enable-background="new 0 0 512 512" height="512" viewBox="0 0 512 512" width="512" xmlns="http://www.w3.org/2000/svg"><g><g><path d="m117.507 253.207v-232.131c0-11.64 9.436-21.076 21.076-21.076h234.833c11.64 0 21.076 9.436 21.076 21.076v232.131z" fill="#ffcf4d"/><path d="m256 230.359c-80.938 0-138.493 22.849-138.493 22.849v18.581h276.986v-18.581c0-.001-57.555-22.849-138.493-22.849z" fill="#ffb629"/><path d="m385.203 446.037h-258.405l-9.291-6.713-9.29-8.217 9.29-7.787h276.986l9.29 7.91-9.29 8.094z" fill="#2d4456"/><path d="m117.507 455.327h276.986l9.29-8.002-9.29-8.001h-276.986l-9.29 8.001z" fill="#253847"/><path d="m117.507 271.788s57.555-22.849 138.493-22.849 138.493 22.849 138.493 22.849v7.861 9.29c0 11.402-9.243 20.645-20.645 20.645h-235.696c-11.402 0-20.645-9.243-20.645-20.645v-9.29z" fill="#ff9517"/><path d="m373.848 300.294h-235.696c-11.402 0-20.645-9.243-20.645-20.645v18.581c0 11.402 9.243 20.645 20.645 20.645h235.695c11.402 0 20.645-9.243 20.645-20.645v-18.581c.001 11.403-9.242 20.645-20.644 20.645z" fill="#ef7f0f"/><path d="m310.122 177.125h-192.615v-6.244l-9.29-7.767 9.29-7.767h192.615c5.747 0 10.765 3.121 13.452 7.76 1.324 2.287-4.872 14.018-13.452 14.018z" fill="#2d4456"/><path d="m310.122 170.882h-192.615l-9.29 7.559 9.29 7.975h192.615c8.579 0 15.534-6.955 15.534-15.534 0-2.833-.771-5.48-2.095-7.767-2.687 4.638-7.692 7.767-13.439 7.767z" fill="#253847"/><path d="m420.438 151.378v351.332l-8.328 9.29h-12.457c-2.851 0-5.161-2.311-5.161-5.161v-355.461c0-6.518 3.539-12.209 8.801-15.256 0 0 17.145-.196 17.145 15.256z" fill="#405b6c"/><path d="m413.528 133.816c-3.747-.298-7.255.598-10.227 2.32 5.261 3.047 8.809 8.724 8.809 15.242v360.622h12.457c2.85 0 5.161-2.311 5.161-5.161v-354.972c.001-9.27-6.959-17.316-16.2-18.051z" fill="#2d4456"/><path d="m108.217 151.378v351.332l-8.328 9.29h-12.456c-2.851 0-5.161-2.311-5.161-5.161v-355.461c0-6.518 3.539-12.209 8.801-15.256-.001 0 17.144-.196 17.144 15.256z" fill="#405b6c"/><path d="m101.307 133.816c-3.746-.298-7.255.598-10.227 2.32 5.261 3.047 8.809 8.724 8.809 15.242v360.622h12.457c2.851 0 5.161-2.311 5.161-5.161v-354.972c0-9.27-6.959-17.316-16.2-18.051z" fill="#2d4456"/></g></g></svg>