<svg id="Layer_1" enable-background="new 0 0 512 512" height="512" viewBox="0 0 512 512" width="512" xmlns="http://www.w3.org/2000/svg"><g><g><path d="m246.711 502.71-9.29 9.29h-201.501c-8.552 0-15.484-6.932-15.484-15.484v-481.032c0-8.552 6.933-15.484 15.484-15.484h201.501l9.29 9.29z" fill="#ff5876"/><path d="m237.421 0v512h18.581l18.58-256-18.58-256z" fill="#e6485d"/><path d="m200.385 475.138h-137.751c-2.85 0-5.161-2.311-5.161-5.161v-427.954c0-2.851 2.311-5.161 5.161-5.161h137.751l9.29 9.29v419.696z" fill="#ffcf4d"/><path d="m200.385 36.862v438.276h13.419c2.85 0 5.161-2.311 5.161-5.161v-427.954c0-2.851-2.311-5.161-5.161-5.161z" fill="#ffb629"/><path d="m466.79 512h-9.29-201.502v-512h201.501 9.29c8.551 0 15.484 6.932 15.484 15.484v481.032c0 8.552-6.932 15.484-15.483 15.484z" fill="#ff5876"/><path d="m476.08 0h-18.581c8.552 0 15.484 6.932 15.484 15.484v481.032c0 8.552-6.932 15.484-15.484 15.484h18.581c8.552 0 15.484-6.932 15.484-15.484v-481.032c0-8.552-6.932-15.484-15.484-15.484z" fill="#e6485d"/><path d="m435.947 475.138h-137.751c-2.85 0-5.161-2.311-5.161-5.161v-427.954c0-2.851 2.311-5.161 5.161-5.161h137.751l9.29 9.29v419.696z" fill="#ffcf4d"/><path d="m435.947 36.862v438.276h13.419c2.85 0 5.161-2.311 5.161-5.161v-427.954c0-2.851-2.311-5.161-5.161-5.161z" fill="#ffb629"/></g><g><path d="m172.458 257.153v32.184c0 4.284 3.473 7.757 7.757 7.757 4.285 0 7.757-3.473 7.757-7.757v-32.184c0-4.284-3.472-7.757-7.757-7.757s-7.757 3.473-7.757 7.757z" fill="#ff5876"/><g fill="#405b6c"><path d="m106.333 93.843h63.311c4.285 0 7.757-3.473 7.757-7.757s-3.472-7.757-7.757-7.757h-63.311c-4.285 0-7.757 3.473-7.757 7.757 0 4.283 3.472 7.757 7.757 7.757z"/><path d="m106.333 128.055h63.311c4.285 0 7.757-3.473 7.757-7.757s-3.472-7.757-7.757-7.757h-63.311c-4.285 0-7.757 3.473-7.757 7.757s3.472 7.757 7.757 7.757z"/><path d="m106.333 162.269h63.311c4.285 0 7.757-3.473 7.757-7.757s-3.472-7.757-7.757-7.757h-63.311c-4.285 0-7.757 3.473-7.757 7.757s3.472 7.757 7.757 7.757z"/><path d="m106.333 433.672h63.311c4.285 0 7.757-3.473 7.757-7.757s-3.472-7.757-7.757-7.757h-63.311c-4.285 0-7.757 3.473-7.757 7.757s3.472 7.757 7.757 7.757z"/><path d="m106.333 399.459h63.311c4.285 0 7.757-3.473 7.757-7.757s-3.472-7.757-7.757-7.757h-63.311c-4.285 0-7.757 3.473-7.757 7.757s3.472 7.757 7.757 7.757z"/></g><path d="m423.996 289.337v-32.184c0-4.284-3.473-7.757-7.757-7.757-4.285 0-7.757 3.473-7.757 7.757v32.184c0 4.284 3.473 7.757 7.757 7.757s7.757-3.473 7.757-7.757z" fill="#ff5876"/><path d="m342.356 93.843h63.311c4.285 0 7.757-3.473 7.757-7.757s-3.473-7.757-7.757-7.757h-63.311c-4.285 0-7.757 3.473-7.757 7.757 0 4.283 3.473 7.757 7.757 7.757z" fill="#405b6c"/><path d="m342.356 128.055h63.311c4.285 0 7.757-3.473 7.757-7.757s-3.473-7.757-7.757-7.757h-63.311c-4.285 0-7.757 3.473-7.757 7.757s3.473 7.757 7.757 7.757z" fill="#405b6c"/><path d="m342.356 162.269h63.311c4.285 0 7.757-3.473 7.757-7.757s-3.473-7.757-7.757-7.757h-63.311c-4.285 0-7.757 3.473-7.757 7.757s3.473 7.757 7.757 7.757z" fill="#405b6c"/><path d="m405.667 418.157h-63.311c-4.285 0-7.757 3.473-7.757 7.757s3.472 7.757 7.757 7.757h63.311c4.285 0 7.757-3.473 7.757-7.757s-3.472-7.757-7.757-7.757z" fill="#405b6c"/><path d="m405.667 383.944h-63.311c-4.285 0-7.757 3.473-7.757 7.757s3.472 7.757 7.757 7.757h63.311c4.285 0 7.757-3.473 7.757-7.757s-3.472-7.757-7.757-7.757z" fill="#405b6c"/></g></g></svg>