<svg id="Layer_1" enable-background="new 0 0 512 512" height="512" viewBox="0 0 512 512" width="512" xmlns="http://www.w3.org/2000/svg"><g><g><path d="m330.519 91.119h-66.775l-9.29-9.29v-43.476h85.993c3.908 0 6.398 4.175 4.542 7.613l-11.319 20.963c-.826 1.53-.826 3.374 0 4.904l5.397 9.996z" fill="#ff5876"/><g><g><path d="m254.454 81.829v18.581h85.993c3.908 0 6.398-4.175 4.542-7.613l-5.922-10.967h-84.613z" fill="#e6485d"/></g></g><path d="m254.455 170.355c-4.276 0-7.742-3.466-7.742-7.742v-137.13c0-4.276 3.466-7.742 7.742-7.742s7.742 3.466 7.742 7.742v137.13c0 4.276-3.467 7.742-7.742 7.742z" fill="#ff9517"/><path d="m89.801 447.192 65.537-9.29 9.29-103.646-9.29-112.937h-115.59c-8.552 0-15.484 6.932-15.484 15.484v201.099z" fill="#d5e0f2"/><path d="m24.264 456.482 65.537 9.291 65.538-9.291 9.29-9.29-9.29-9.29h-131.075z" fill="#bdcde5"/><path d="m419.108 447.192-65.537-9.29-9.29-103.646 9.29-112.937h115.591c8.552 0 15.484 6.932 15.484 15.484v201.099z" fill="#d5e0f2"/><path d="m353.57 456.482 65.538 9.291 65.537-9.291v-18.58h-131.075l-9.29 9.29z" fill="#bdcde5"/><path d="m344.28 447.192h-179.651l-9.29-9.29v-259.805c0-8.551 6.932-15.484 15.484-15.484h167.264c8.551 0 15.484 6.932 15.484 15.484v259.805z" fill="#e4eef9"/><path d="m155.339 456.482 100.661 9.291 97.57-9.291v-18.58h-198.231z" fill="#d5e0f2"/><path d="m254.454 447.192-47.323-9.29v-67.701c0-25.742 21.187-46.61 47.323-46.61 26.136 0 47.323 20.868 47.323 46.61v67.701z" fill="#4ea1f4"/><path d="m207.132 456.482 47.322 9.291 47.323-9.291v-18.58h-94.645z" fill="#3292e0"/><path d="m293.254 231.952c-4.187-17.547-19.97-30.594-38.799-30.594s-34.612 13.047-38.799 30.594c-.712 2.982-.021 39.89 38.799 39.89s39.51-36.908 38.799-39.89z" fill="#ffcf4d"/><path d="m254.454 262.552c-18.829 0-34.6-13.051-38.788-30.597-.712 2.982-1.099 6.09-1.099 9.29 0 22.029 17.858 39.887 39.887 39.887s39.887-17.858 39.887-39.887c0-3.2-.387-6.308-1.099-9.29-4.187 17.546-19.959 30.597-38.788 30.597z" fill="#ffb629"/><path d="m256 484.969-256-9.29v-8.874c0-5.701 4.622-10.323 10.323-10.323h491.355c5.701 0 10.323 4.622 10.323 10.323v8.874z" fill="#ff9517"/><path d="m5.161 494.259h501.677c2.851 0 5.161-2.311 5.161-5.161v-13.419h-511.999v13.419c0 2.85 2.311 5.161 5.161 5.161z" fill="#ef7f0f"/></g><g fill="#405b6c"><path d="m241.978 250.924h15.429c4.284 0 7.757-3.473 7.757-7.757v-16.811c0-4.284-3.473-7.757-7.757-7.757s-7.757 3.473-7.757 7.757v9.053h-7.672c-4.284 0-7.757 3.473-7.757 7.757 0 4.285 3.473 7.758 7.757 7.758z"/><path d="m67.54 303.543c4.284 0 7.757-3.473 7.757-7.757v-18.564c0-4.284-3.473-7.757-7.757-7.757s-7.757 3.473-7.757 7.757v18.564c0 4.284 3.473 7.757 7.757 7.757z"/><path d="m111.413 303.543c4.284 0 7.757-3.473 7.757-7.757v-18.564c0-4.284-3.473-7.757-7.757-7.757s-7.757 3.473-7.757 7.757v18.564c0 4.284 3.473 7.757 7.757 7.757z"/><path d="m59.783 354.205c0 4.284 3.473 7.757 7.757 7.757s7.757-3.473 7.757-7.757v-18.564c0-4.284-3.473-7.757-7.757-7.757s-7.757 3.473-7.757 7.757z"/><path d="m103.656 354.205c0 4.284 3.473 7.757 7.757 7.757s7.757-3.473 7.757-7.757v-18.564c0-4.284-3.473-7.757-7.757-7.757s-7.757 3.473-7.757 7.757z"/><path d="m59.783 412.624c0 4.284 3.473 7.757 7.757 7.757s7.757-3.473 7.757-7.757v-18.564c0-4.284-3.473-7.757-7.757-7.757s-7.757 3.473-7.757 7.757z"/><path d="m103.656 412.624c0 4.284 3.473 7.757 7.757 7.757s7.757-3.473 7.757-7.757v-18.564c0-4.284-3.473-7.757-7.757-7.757s-7.757 3.473-7.757 7.757z"/><path d="m449.121 277.222c0-4.284-3.473-7.757-7.757-7.757s-7.757 3.473-7.757 7.757v18.564c0 4.284 3.473 7.757 7.757 7.757s7.757-3.473 7.757-7.757z"/><path d="m405.247 277.222c0-4.284-3.473-7.757-7.757-7.757s-7.757 3.473-7.757 7.757v18.564c0 4.284 3.473 7.757 7.757 7.757s7.757-3.473 7.757-7.757z"/><path d="m449.121 335.641c0-4.284-3.473-7.757-7.757-7.757s-7.757 3.473-7.757 7.757v18.564c0 4.284 3.473 7.757 7.757 7.757s7.757-3.473 7.757-7.757z"/><path d="m405.247 335.641c0-4.284-3.473-7.757-7.757-7.757s-7.757 3.473-7.757 7.757v18.564c0 4.284 3.473 7.757 7.757 7.757s7.757-3.473 7.757-7.757z"/><path d="m441.363 386.303c-4.284 0-7.757 3.473-7.757 7.757v18.564c0 4.284 3.473 7.757 7.757 7.757s7.757-3.473 7.757-7.757v-18.564c.001-4.284-3.472-7.757-7.757-7.757z"/><path d="m397.49 386.303c-4.284 0-7.757 3.473-7.757 7.757v18.564c0 4.284 3.473 7.757 7.757 7.757s7.757-3.473 7.757-7.757v-18.564c0-4.284-3.473-7.757-7.757-7.757z"/></g></g></svg>