<svg id="Layer_1" enable-background="new 0 0 512 512" height="512" viewBox="0 0 512 512" width="512" xmlns="http://www.w3.org/2000/svg"><g><g><path d="m412.267 421.864-153.67 89.434c-1.607.935-3.593.935-5.201 0l-153.663-89.434c-1.591-.926-2.569-2.628-2.569-4.468v-285.379l158.853-9.305 158.819 9.305v285.379c0 1.841-.978 3.543-2.569 4.468z" fill="#ffcf4d"/><path d="m97.164 113.407v18.61h317.672v-18.61l-158.819-9.305z" fill="#ffb629"/><path d="m378.512 400.82-119.914 69.789c-1.607.935-3.593.935-5.201 0l-119.909-69.789c-1.591-.926-2.569-2.628-2.569-4.468v-264.335l125.098-9.305 125.064 9.305v264.335c0 1.841-.978 3.542-2.569 4.468z" fill="#ff5876"/><path d="m130.919 113.407v18.61h250.162v-18.61l-125.064-9.305z" fill="#e6485d"/><path d="m84.158 96.929c-3.066 0-5.969-1.83-7.19-4.846-1.607-3.97.309-8.49 4.278-10.098l160.557-64.997c3.969-1.606 8.49.308 10.098 4.278 1.607 3.97-.309 8.49-4.278 10.098l-160.557 64.997c-.953.385-1.939.568-2.908.568z" fill="#ea9d57"/><path d="m427.842 96.929c-.969 0-1.954-.183-2.907-.568l-160.558-64.997c-3.969-1.607-5.885-6.128-4.278-10.098s6.128-5.883 10.098-4.278l160.558 64.997c3.969 1.607 5.885 6.128 4.278 10.098-1.222 3.016-4.126 4.846-7.191 4.846z" fill="#ea9d57"/><path d="m278.32 14.87c-3.645-8.733-12.266-14.87-22.32-14.87-10.014 0-18.606 6.088-22.276 14.766-1.223 2.892-.1 24.281 22.276 24.281 22.415 0 23.515-21.313 22.32-24.177z" fill="#ffcf4d"/><path d="m256 29.741c-10.054 0-18.672-6.138-22.317-14.871-1.196 2.864-1.858 6.007-1.858 9.305 0 13.352 10.824 24.176 24.176 24.176s24.176-10.824 24.176-24.176c0-3.298-.663-6.441-1.858-9.305-3.647 8.733-12.265 14.871-22.319 14.871z" fill="#ffb629"/><path d="m436.138 104.102h-360.276c-8.923 0-15.368-12.559-13.99-14.937 2.795-4.825 8.013-8.07 13.99-8.07h360.277c5.977 0 11.196 3.246 13.99 8.07 1.377 2.378-5.068 14.937-13.991 14.937z" fill="#2d4456"/><path d="m436.138 97.251h-360.276c-5.977 0-11.182-3.254-13.977-8.078-1.378 2.378-2.179 5.132-2.179 8.078 0 8.923 7.233 16.156 16.156 16.156h360.277c8.923 0 16.156-7.233 16.156-16.156 0-2.946-.801-5.7-2.179-8.078-2.795 4.824-8.001 8.078-13.978 8.078z" fill="#253847"/></g><g fill="#f2fdff"><path d="m234.521 234.916c4.306 0 7.797-3.491 7.797-7.797s-3.491-7.797-7.797-7.797h-37.31c-4.306 0-7.797 3.491-7.797 7.797v92.886c0 4.306 3.491 7.797 7.797 7.797s7.797-3.491 7.797-7.797v-38.62h29.513c4.306 0 7.797-3.491 7.797-7.797s-3.491-7.797-7.797-7.797h-29.513v-30.876h29.513z"/><path d="m289.985 234.832c8.347 0 15.559 5.94 17.15 14.123.821 4.227 4.914 6.988 9.141 6.166 4.227-.821 6.988-4.913 6.166-9.141-3.011-15.495-16.661-26.742-32.456-26.742-18.238 0-33.075 14.837-33.075 33.075v42.465c0 18.238 14.837 33.075 33.075 33.075 15.796 0 29.446-11.247 32.456-26.742.821-4.227-1.939-8.32-6.166-9.141-4.226-.818-8.319 1.939-9.141 6.166-1.59 8.183-8.803 14.123-17.15 14.123-9.64 0-17.482-7.842-17.482-17.482v-42.465c0-9.637 7.843-17.48 17.482-17.48z"/></g></g></svg>