<svg id="Layer_1" enable-background="new 0 0 512 512" height="512" viewBox="0 0 512 512" width="512" xmlns="http://www.w3.org/2000/svg"><g><g><path d="m355.801 460.493c-3.05 0-5.93-1.844-7.102-4.857-1.527-3.921.415-8.337 4.336-9.864 61.067-23.772 124.232-92.974 124.232-167.633 0-4.208 3.411-7.619 7.619-7.619s7.619 3.411 7.619 7.619c0 26.631-7.281 67.647-41.966 111.815-24.593 31.316-58.118 56.837-91.976 70.017-.908.354-1.844.522-2.762.522z" fill="#2d4456"/><path d="m167.31 405.627-18.286 9.143v75.063c0 12.243 9.925 22.168 22.168 22.168h165.928c12.243 0 22.168-9.925 22.168-22.168v-75.063l-18.286-9.143z" fill="#2d4456"/><path d="m149.025 396.484v18.286c29.954 20.416 66.147 32.358 105.131 32.358s75.177-11.942 105.131-32.358v-18.286z" fill="#253847"/><path d="m440.84 232.796c-4.768-98.977-86.525-177.76-186.684-177.76s-181.916 78.783-186.684 177.76c-.146 3.029 0 186.904 186.684 186.904s186.83-183.875 186.684-186.904z" fill="#ff5876"/><path d="m254.156 410.556c-100.158 0-181.91-78.784-186.678-177.76-.146 3.03-.225 6.077-.225 9.143 0 103.224 83.679 186.903 186.903 186.903s186.903-83.679 186.903-186.903c0-3.066-.079-6.113-.225-9.143-4.768 98.976-86.52 177.76-186.678 177.76z" fill="#e6485d"/><path d="m289.192 232.795c-4.051-15.566-18.202-27.057-35.036-27.057s-30.985 11.491-35.036 27.057c-.76 2.921-.026 36.201 35.036 36.201s35.796-33.28 35.036-36.201z" fill="#ffcf4d"/><path d="m254.156 259.853c-16.834 0-30.982-11.492-35.033-27.058-.76 2.921-1.167 5.984-1.167 9.143 0 19.993 16.208 36.201 36.201 36.201s36.2-16.208 36.2-36.201c0-3.159-.407-6.222-1.167-9.143-4.051 15.567-18.2 27.058-35.034 27.058z" fill="#ffb629"/><path d="m508.658 249.427c-3.577-8.532-12.007-14.525-21.838-14.525-9.804 0-18.216 5.961-21.809 14.456-1.198 2.832-.098 23.739 21.809 23.739 21.933-.001 23.017-20.857 21.838-23.67z" fill="#ffcf4d"/><path d="m486.82 263.953c-9.831 0-18.26-5.994-21.837-14.526-1.179 2.813-1.832 5.902-1.832 9.143 0 13.072 10.597 23.669 23.669 23.669s23.669-10.597 23.669-23.669c0-3.241-.653-6.33-1.832-9.143-3.577 8.532-12.007 14.526-21.837 14.526z" fill="#ffb629"/></g><g fill="#ffcf4d"><path d="m130.554 52.647c3.676-2.064 4.984-6.717 2.921-10.394-2.064-3.676-6.716-4.985-10.394-2.921-35.039 19.666-62.877 49.112-80.506 85.157-4.466 8.813 9.439 15.691 13.715 6.708 16.261-33.247 41.941-60.409 74.264-78.55z"/><path d="m120.932 14.529c3.807-1.812 5.425-6.366 3.613-10.174-1.812-3.807-6.367-5.424-10.174-3.613-51.143 24.339-90.995 66.632-112.215 119.088-3.834 9.104 10.516 14.99 14.154 5.725 19.783-48.904 56.939-88.334 104.622-111.026z"/><path d="m377.824 52.647c32.323 18.141 58.003 45.303 74.263 78.549 4.278 8.988 18.182 2.1 13.715-6.708-17.628-36.044-45.467-65.491-80.505-85.157-3.676-2.062-8.331-.756-10.393 2.921-2.064 3.678-.757 8.332 2.92 10.395z"/><path d="m387.445 14.529c47.682 22.692 84.838 62.122 104.622 111.026 3.64 9.269 17.988 3.374 14.155-5.725-21.221-52.457-61.074-94.75-112.216-119.088-3.804-1.811-8.361-.195-10.174 3.613-1.811 3.808-.194 8.362 3.613 10.174z"/></g></g></svg>