<svg id="Layer_1" enable-background="new 0 0 512 512" height="512" viewBox="0 0 512 512" width="512" xmlns="http://www.w3.org/2000/svg"><g><g><g fill="#bdcde5"><path d="m408.037 56.918h-304.07c-4.276 0-7.742-3.466-7.742-7.742s3.466-7.742 7.742-7.742h304.07c4.276 0 7.742 3.466 7.742 7.742s-3.466 7.742-7.742 7.742z"/><path d="m391.552 105.019h-271.101c-4.276 0-7.742-3.466-7.742-7.742s3.466-7.742 7.742-7.742h271.101c4.276 0 7.742 3.466 7.742 7.742s-3.466 7.742-7.742 7.742z"/><path d="m363.376 153.121h-214.755c-4.276 0-7.742-3.466-7.742-7.742s3.466-7.742 7.742-7.742h214.755c4.276 0 7.742 3.466 7.742 7.742s-3.465 7.742-7.742 7.742z"/><path d="m363.376 374.356h-214.755c-4.276 0-7.742-3.466-7.742-7.742s3.466-7.742 7.742-7.742h214.755c4.276 0 7.742 3.466 7.742 7.742s-3.465 7.742-7.742 7.742z"/><path d="m318.472 326.255h-124.937c-4.276 0-7.742-3.466-7.742-7.742s3.466-7.742 7.742-7.742h124.938c4.276 0 7.742 3.466 7.742 7.742s-3.467 7.742-7.743 7.742z"/><path d="m390.189 422.458h-268.373c-4.276 0-7.742-3.466-7.742-7.742s3.466-7.742 7.742-7.742h268.373c4.276 0 7.742 3.466 7.742 7.742 0 4.275-3.466 7.742-7.742 7.742z"/><path d="m408.037 470.559h-304.07c-4.276 0-7.742-3.466-7.742-7.742s3.466-7.742 7.742-7.742h304.07c4.276 0 7.742 3.466 7.742 7.742 0 4.275-3.466 7.742-7.742 7.742z"/><path d="m318.472 201.222h-119.346c-4.276 0-7.742-3.466-7.742-7.742s3.466-7.742 7.742-7.742h119.346c4.276 0 7.742 3.466 7.742 7.742s-3.466 7.742-7.742 7.742z"/></g><path d="m116.239 494.263c.114-.638.752-39.602 19.128-85.007 24.445-60.401 70.998-112.756 129.046-145.208 36.228-20.253 65.116-43.475 90.227-74.263 20.095-24.639 33.869-49.644 45.898-79.797 20.525-51.447 22.593-85.758 22.628-87.465.153-7.513-.132-18.063-6.587-20.949-2.151-.962-4.527-1.518-7.031-1.569-.126-.004-.252-.005-.377-.005-9.849 0-17.93 7.881-18.131 17.773-.008.322-1.125 36.871-19.574 82.458-24.446 60.402-66.274 107.482-124.321 139.934-36.228 20.253-67.329 46.133-92.44 76.922-20.096 24.64-36.385 52.422-48.415 82.576-20.523 51.447-21.576 92.119-21.611 93.826-.056 2.739.498 5.349 1.538 7.699 2.762 6.245 26.484 12.912 30.022-6.925z" fill="#ff9517"/><path d="m93.157 502.706c.126.002.252.004.377.004 9.836 0 17.91-7.862 18.13-17.737.018-.648 1.199-37.088 19.575-82.493 24.445-60.402 66.273-107.482 124.32-139.934 36.228-20.253 67.331-46.134 92.441-76.922 20.096-24.639 36.384-52.422 48.414-82.575 20.525-51.447 21.578-92.12 21.612-93.826.056-2.74-.516-5.34-1.556-7.691 6.512 2.862 11.001 9.427 10.846 16.981-.034 1.706-1.087 42.379-21.612 93.826-12.03 30.154-28.318 57.936-48.414 82.575-25.111 30.788-56.213 56.669-92.441 76.922-58.048 32.452-99.875 79.532-124.32 139.934-18.376 45.406-19.557 81.845-19.575 82.493-.22 9.875-8.294 17.737-18.13 17.737-.125 0-.251-.001-.377-.003-7.278-.149-13.45-4.572-16.213-10.817 2.124.932 4.46 1.476 6.923 1.526z" fill="#ef7f0f"/><path d="m300.698 39.885c-3.634-8.67-12.201-14.76-22.19-14.76-9.962 0-18.509 6.057-22.161 14.689-1.217 2.877-.099 24.122 22.161 24.122 22.286 0 23.388-21.192 22.19-24.051z" fill="#a0e557"/><path d="m278.507 54.646c-9.989 0-18.555-6.091-22.189-14.76-1.198 2.859-1.862 5.997-1.862 9.29 0 13.283 10.768 24.051 24.051 24.051s24.051-10.768 24.051-24.051c0-3.294-.664-6.432-1.862-9.29-3.634 8.669-12.199 14.76-22.189 14.76z" fill="#87d654"/><ellipse cx="233.497" cy="366.614" fill="#a0e557" rx="24.051" ry="24.051" transform="matrix(.707 -.707 .707 .707 -190.846 272.486)"/><path d="m233.497 372.084c-9.989 0-18.555-6.091-22.189-14.76-1.198 2.859-1.862 5.997-1.862 9.29 0 13.283 10.768 24.051 24.051 24.051s24.051-10.768 24.051-24.051c0-3.294-.664-6.432-1.862-9.29-3.635 8.67-12.2 14.76-22.189 14.76z" fill="#87d654"/><path d="m229.25 87.986c-3.634-8.67-12.201-14.759-22.19-14.759-9.962 0-18.509 6.057-22.161 14.689-1.217 2.877-.1 24.122 22.161 24.122 22.287 0 23.388-21.193 22.19-24.052z" fill="#ff5876"/><path d="m207.06 102.747c-9.989 0-18.554-6.091-22.189-14.76-1.198 2.859-1.862 5.997-1.862 9.29 0 13.283 10.768 24.051 24.051 24.051s24.051-10.768 24.051-24.051c0-3.293-.663-6.432-1.862-9.29-3.635 8.67-12.2 14.76-22.189 14.76z" fill="#e6485d"/><path d="m282.754 405.425c3.634-8.67 12.201-14.76 22.19-14.76 9.962 0 18.509 6.057 22.161 14.689 1.217 2.877.099 24.122-22.161 24.122-22.287 0-23.388-21.193-22.19-24.051z" fill="#ff5876"/><path d="m304.944 420.185c-9.989 0-18.554-6.091-22.189-14.76-1.198 2.859-1.862 5.997-1.862 9.29 0 13.283 10.768 24.051 24.051 24.051s24.051-10.768 24.051-24.051c0-3.294-.664-6.432-1.862-9.29-3.634 8.67-12.199 14.76-22.189 14.76z" fill="#e6485d"/><path d="m310.857 136.088c-3.634-8.67-12.201-14.76-22.19-14.76-9.962 0-18.509 6.057-22.161 14.689-1.217 2.877-.099 24.122 22.161 24.122 22.287 0 23.389-21.193 22.19-24.051z" fill="#86dcff"/><path d="m288.667 150.849c-9.989 0-18.554-6.091-22.189-14.76-1.198 2.859-1.862 5.997-1.862 9.29 0 13.283 10.768 24.051 24.051 24.051s24.051-10.768 24.051-24.051c0-3.294-.664-6.432-1.862-9.29-3.634 8.669-12.2 14.76-22.189 14.76z" fill="#56caed"/><path d="m201.147 453.526c3.634-8.67 12.201-14.76 22.19-14.76 9.962 0 18.51 6.057 22.161 14.689 1.217 2.877.1 24.122-22.161 24.122-22.287 0-23.389-21.193-22.19-24.051z" fill="#86dcff"/><path d="m223.337 468.287c-9.989 0-18.554-6.091-22.189-14.76-1.198 2.858-1.862 5.997-1.862 9.29 0 13.283 10.768 24.051 24.051 24.051s24.051-10.768 24.051-24.051c0-3.294-.664-6.432-1.862-9.29-3.635 8.669-12.2 14.76-22.189 14.76z" fill="#56caed"/><path d="m395.761 494.263c-.114-.638-.752-39.602-19.128-85.007-24.445-60.401-70.998-112.756-129.046-145.208-36.228-20.253-65.116-43.475-90.227-74.263-20.095-24.639-33.869-49.644-45.898-79.797-20.525-51.449-22.593-85.759-22.628-87.466-.153-7.513.132-18.063 6.587-20.949 2.151-.962 4.527-1.518 7.031-1.569.126-.003.252-.004.377-.004 9.849 0 17.93 7.881 18.131 17.773.008.322 1.125 36.871 19.574 82.458 24.446 60.402 66.273 107.482 124.321 139.934 36.228 20.253 67.329 46.133 92.44 76.922 20.096 24.64 36.385 52.422 48.415 82.576 20.523 51.447 21.576 92.119 21.611 93.826.056 2.739-.498 5.349-1.538 7.699-2.762 6.245-26.484 12.912-30.022-6.925z" fill="#ffcf4d"/><path d="m418.843 502.706c-.125.002-.252.004-.377.004-9.836 0-17.91-7.862-18.13-17.737-.018-.648-1.199-37.088-19.575-82.493-24.445-60.402-66.273-107.482-124.32-139.934-36.228-20.253-67.33-46.134-92.441-76.922-20.096-24.639-36.384-52.422-48.414-82.575-20.525-51.448-21.578-92.121-21.612-93.827-.056-2.74.516-5.34 1.556-7.691-6.512 2.862-11.001 9.427-10.846 16.981.034 1.706 1.087 42.379 21.612 93.826 12.03 30.154 28.318 57.936 48.414 82.575 25.111 30.788 56.213 56.669 92.441 76.922 58.048 32.452 99.876 79.532 124.32 139.934 18.376 45.406 19.557 81.845 19.575 82.493.22 9.875 8.294 17.737 18.13 17.737.125 0 .251-.001.377-.003 7.278-.149 13.45-4.572 16.213-10.817-2.124.933-4.46 1.477-6.923 1.527z" fill="#ffb629"/></g></g></svg>