<svg id="Layer_1" enable-background="new 0 0 512 512" height="512" viewBox="0 0 512 512" width="512" xmlns="http://www.w3.org/2000/svg"><g><g><path d="m283.153 295.294c-11.82-35.508-39.577-63.733-74.795-76.182v-160.546l-40.498-9.29-40.497 9.29v160.546c-35.217 12.449-62.975 40.674-74.795 76.182l115.292 37.161z" fill="#e4eef9"/><path d="m287.289 143.306-61.978-6.338-9.29-7.801 9.29-7.828h123.956l9.29 8.247-9.29 7.382z" fill="#ffbe7c"/><path d="m225.311 136.968h123.956v15.629h-123.956z" fill="#ea9d57"/><path d="m371.833 446.267v-252.524l15.628-9.29 15.629 9.29v252.524l-15.629 9.291z" fill="#ffbe7c"/><path d="m371.833 464.848 15.628 9.29 15.629-9.29v-18.581h-31.257z" fill="#ea9d57"/><path d="m371.833 175.162v18.581h31.257v-18.581l-15.629-9.29z" fill="#ea9d57"/><path d="m371.833 80.192v-64.563c0-8.632 6.997-15.629 15.628-15.629 8.632 0 15.629 6.997 15.629 15.629v64.564l-15.629 9.29z" fill="#ffbe7c"/><path d="m371.833 80.192v18.581l15.628 9.29 15.629-9.29v-18.581z" fill="#ea9d57"/><g><path d="m208.358 39.986-40.497-9.291-40.497 9.291v18.58h80.994z" fill="#d5e0f2"/></g><path d="m167.861 445.884c121.493 0 121.376-118.365 121.148-121.401-.761-10.127-2.766-19.905-5.856-29.189h-230.584c-3.013 9.05-4.994 18.571-5.796 28.427-.268 3.284-.405 122.163 121.088 122.163z" fill="#ff5876"/><path d="m167.861 436.593c-63.941 0-116.345-49.396-121.135-112.11-.228 3.037-.357 6.102-.357 9.198 0 67.098 54.394 121.492 121.493 121.492 67.098 0 121.493-54.394 121.493-121.492 0-3.096-.129-6.161-.357-9.198-4.792 62.715-57.196 112.11-121.137 112.11z" fill="#e6485d"/><path d="m127.164 160.719-19.745-9.29v-42.342c0-2.85 2.311-5.161 5.161-5.161h29.167c2.851 0 5.161 2.311 5.161 5.161v42.342z" fill="#ffcf4d"/><path d="m208.25 160.719-17.062-9.29v-42.342c0-2.85 2.311-5.161 5.161-5.161h23.8c2.851 0 5.161 2.311 5.161 5.161v42.342z" fill="#ffcf4d"/><path d="m112.581 170.01h29.167c2.851 0 5.161-2.311 5.161-5.161v-13.419h-39.49v13.419c.001 2.85 2.311 5.161 5.162 5.161z" fill="#ffb629"/><path d="m196.349 170.01h23.8c2.85 0 5.161-2.311 5.161-5.161v-13.419h-34.123v13.419c.001 2.85 2.312 5.161 5.162 5.161z" fill="#ffb629"/><path d="m387.461 165.872-38.194-9.29v-52.647c0-2.851 2.311-5.161 5.161-5.161h66.067c2.85 0 5.161 2.311 5.161 5.161v52.647z" fill="#ffcf4d"/><path d="m354.428 175.162h66.066c2.851 0 5.161-2.311 5.161-5.161v-13.419h-76.389v13.419c.001 2.85 2.312 5.161 5.162 5.161z" fill="#ffb629"/><path d="m456.341 502.71h-206.178l-9.29-9.29v-2.765c0-14.253 11.554-25.807 25.806-25.807h173.146c14.253 0 25.807 11.554 25.807 25.807v2.765z" fill="#2d4456"/><path d="m246.034 512h214.436c2.851 0 5.161-2.311 5.161-5.161v-13.419h-224.759v13.419c0 2.85 2.311 5.161 5.162 5.161z" fill="#253847"/><path d="m213.72 30.695h-91.718c-17.705 0-17.705-19.998-17.705-19.998 3.346-6.36 10.019-10.697 17.705-10.697h91.718c7.686 0 14.359 4.337 17.705 10.697 0 0 0 19.998-17.705 19.998z" fill="#d5e0f2"/><path d="m213.72 21.405h-91.718c-7.686 0-14.349-4.342-17.695-10.703-1.461 2.777-2.298 5.935-2.298 9.29 0 11.042 8.951 19.993 19.993 19.993h91.718c11.042 0 19.993-8.951 19.993-19.993 0-3.356-.836-6.513-2.298-9.29-3.346 6.361-10.009 10.703-17.695 10.703z" fill="#bdcde5"/></g></g></svg>