<svg id="Layer_1" enable-background="new 0 0 512 512" height="512" viewBox="0 0 512 512" width="512" xmlns="http://www.w3.org/2000/svg"><g><g><path d="m470.923 67.905h-429.846c-8.552 0-15.484 6.932-15.484 15.484v298.369l9.29 9.29h442.232l9.29-9.29v-298.369c.001-8.551-6.931-15.484-15.482-15.484z" fill="#a0e557"/><path d="m25.594 400.339 230.406 18.58 230.406-18.58v-18.581h-460.812z" fill="#87d654"/><path d="m409.576 391.048h-80.709l-9.29-9.29v-8.933c0-5.701 4.622-10.323 10.323-10.323h78.644c5.701 0 10.323 4.622 10.323 10.323v8.933z" fill="#2d4456"/><path d="m319.577 400.339 49.645 9.29 49.644-9.29v-18.581h-99.289z" fill="#253847"/><path d="m501.677 434.804h-491.354c-5.701 0-10.323-4.621-10.323-10.322v-9.29-4.53c0-5.701 4.622-10.323 10.323-10.323h491.355c5.701 0 10.323 4.622 10.323 10.323v4.53 9.29c-.001 5.701-4.623 10.322-10.324 10.322z" fill="#ff9517"/><path d="m501.677 425.514h-491.354c-5.701 0-10.323-4.622-10.323-10.323v18.581c0 5.701 4.622 10.323 10.323 10.323h491.355c5.701 0 10.323-4.622 10.323-10.323v-18.581c-.001 5.701-4.623 10.323-10.324 10.323z" fill="#ef7f0f"/></g></g></svg>