<svg id="Layer_1" enable-background="new 0 0 512 512" height="512" viewBox="0 0 512 512" width="512" xmlns="http://www.w3.org/2000/svg"><g><g><path d="m456.899 423.571h-2.207l-9.29-9.29v-60.876l9.29-9.29h2.207c8.552 0 15.484 6.932 15.484 15.484v48.489c0 8.55-6.932 15.483-15.484 15.483z" fill="#ffcf4d"/><path d="m436.111 344.114-9.29 39.728 9.29 39.729h18.581v-79.457z" fill="#ffb629"/><path d="m456.899 167.886h-2.207l-9.29-9.29v-60.876l9.29-9.29h2.207c8.552 0 15.484 6.932 15.484 15.484v48.489c0 8.551-6.932 15.483-15.484 15.483z" fill="#86dcff"/><path d="m436.111 88.429-9.29 39.729 9.29 39.728h18.581v-79.457z" fill="#56caed"/><path d="m456.899 216.272h-20.788v-169.811c0-8.552-6.932-15.484-15.484-15.484h-2.207l-9.29 9.29v431.466l9.29 9.29h2.207c8.552 0 15.484-6.932 15.484-15.484v-169.811h20.788c8.552 0 15.484-6.932 15.484-15.484v-48.489c0-8.551-6.932-15.483-15.484-15.483z" fill="#ff5876"/><path d="m399.84 30.977-12.037 226.153 12.037 223.893h18.58v-450.046z" fill="#e6485d"/><path d="m375.065 512h-9.29-310.674c-8.552 0-15.484-6.932-15.484-15.484v-481.032c0-8.552 6.932-15.484 15.484-15.484h310.674 9.29c8.552 0 15.484 6.932 15.484 15.484v481.032c0 8.552-6.932 15.484-15.484 15.484z" fill="#86dcff"/><path d="m384.356 0h-18.581c8.551 0 15.484 6.932 15.484 15.484v481.032c0 8.552-6.932 15.484-15.484 15.484h18.581c8.551 0 15.484-6.932 15.484-15.484v-481.032c0-8.552-6.933-15.484-15.484-15.484z" fill="#56caed"/><path d="m305.55 184.904h-9.29-171.644c-5.701 0-10.323-4.622-10.323-10.323v-85.502c0-5.701 4.622-10.323 10.323-10.323h171.644 9.29c5.701 0 10.323 4.622 10.323 10.323v85.502c0 5.701-4.622 10.323-10.323 10.323z" fill="#f2fdff"/><path d="m314.84 78.756h-18.58c5.701 0 10.323 4.622 10.323 10.323v85.502c0 5.701-4.622 10.323-10.323 10.323h18.581c5.701 0 10.323-4.622 10.323-10.323v-85.502c-.001-5.701-4.623-10.323-10.324-10.323z" fill="#e4eef9"/></g><g fill="#405b6c"><path d="m114.016 399.875h122.415c4.284 0 7.757-3.473 7.757-7.757s-3.473-7.757-7.757-7.757h-122.415c-4.284 0-7.757 3.473-7.757 7.757s3.473 7.757 7.757 7.757z"/><path d="m114.016 441.879h85.181c4.284 0 7.757-3.473 7.757-7.757s-3.473-7.757-7.757-7.757h-85.181c-4.284 0-7.757 3.473-7.757 7.757s3.473 7.757 7.757 7.757z"/></g></g></svg>