<svg id="Layer_1" enable-background="new 0 0 512 512" height="512" viewBox="0 0 512 512" width="512" xmlns="http://www.w3.org/2000/svg"><g><g><path d="m389.856 502.728h-267.712c-17.103 0-30.968-13.865-30.968-30.968v-9.309-288.17l164.824-18.545 164.823 18.544v288.171 9.309c.001 17.103-13.864 30.968-30.967 30.968z" fill="#d5e0f2"/><path d="m389.856 493.419h-267.712c-17.103 0-30.968-13.865-30.968-30.968v18.581c0 17.103 13.865 30.968 30.968 30.968h267.712c17.103 0 30.968-13.865 30.968-30.968v-18.581c0 17.104-13.865 30.968-30.968 30.968z" fill="#bdcde5"/><path d="m389.856 0h-267.712c-17.103 0-30.968 13.865-30.968 30.968v143.313h329.647v-143.313c.001-17.103-13.864-30.968-30.967-30.968z" fill="#2d4456"/><path d="m355.367 437.775h-31.108c-5.701 0-10.323-4.622-10.323-10.323v-9.309-106.1c0-5.701 4.622-10.323 10.323-10.323h31.108c5.701 0 10.323 4.622 10.323 10.323v106.101 9.309c0 5.701-4.622 10.322-10.323 10.322z" fill="#ff5876"/><path d="m355.367 428.467h-31.108c-5.701 0-10.323-4.621-10.323-10.323v18.581c0 5.701 4.622 10.323 10.323 10.323h31.108c5.701 0 10.323-4.622 10.323-10.323v-18.581c0 5.701-4.622 10.323-10.323 10.323z" fill="#e6485d"/><path d="m271.554 437.775h-31.108c-10.323 0-10.323-19.631-10.323-19.631v-12.527c0-5.701 4.622-10.323 10.323-10.323h31.108c5.701 0 10.323 4.621 10.323 10.323v12.527s0 19.631-10.323 19.631z" fill="#2d4456"/><path d="m271.554 428.467h-31.108c-5.701 0-10.323-4.621-10.323-10.323v18.581c0 5.701 4.622 10.323 10.323 10.323h31.108c5.701 0 10.323-4.622 10.323-10.323v-18.581c0 5.701-4.622 10.323-10.323 10.323z" fill="#253847"/><path d="m350.206 131.032h-188.412c-8.552 0-15.484-6.932-15.484-15.484v-9.308-39.424c0-8.551 6.932-15.484 15.484-15.484h188.412c8.551 0 15.484 6.932 15.484 15.484v39.424 9.308c0 8.552-6.932 15.484-15.484 15.484z" fill="#a0e557"/><path d="m350.206 121.724h-188.412c-8.552 0-15.484-6.932-15.484-15.484v18.581c0 8.552 6.932 15.484 15.484 15.484h188.412c8.552 0 15.484-6.932 15.484-15.484v-18.581c0 8.551-6.932 15.484-15.484 15.484z" fill="#87d654"/><path d="m187.741 437.775h-31.108c-10.322 0-10.322-19.631-10.322-19.631v-12.527c0-5.701 4.621-10.323 10.322-10.323h31.108c5.701 0 10.323 4.621 10.323 10.323v12.527c-.001 0-.001 19.631-10.323 19.631z" fill="#2d4456"/><path d="m187.741 428.467h-31.108c-5.701 0-10.322-4.621-10.322-10.323v18.581c0 5.701 4.621 10.323 10.322 10.323h31.108c5.701 0 10.323-4.622 10.323-10.323v-18.581c-.001 5.701-4.622 10.323-10.323 10.323z" fill="#253847"/><path d="m271.554 344.202h-31.108c-10.323 0-10.323-19.631-10.323-19.631v-12.527c0-5.701 4.622-10.323 10.323-10.323h31.108c5.701 0 10.323 4.622 10.323 10.323v12.527c0-.001 0 19.631-10.323 19.631z" fill="#2d4456"/><path d="m271.554 334.893h-31.108c-5.701 0-10.323-4.622-10.323-10.323v18.581c0 5.701 4.622 10.323 10.323 10.323h31.108c5.701 0 10.323-4.622 10.323-10.323v-18.581c0 5.701-4.622 10.323-10.323 10.323z" fill="#253847"/><path d="m187.741 344.202h-31.108c-10.322 0-10.322-19.631-10.322-19.631v-12.527c0-5.701 4.621-10.323 10.322-10.323h31.108c5.701 0 10.323 4.622 10.323 10.323v12.527c-.001-.001-.001 19.631-10.323 19.631z" fill="#2d4456"/><path d="m187.741 334.893h-31.108c-5.701 0-10.322-4.622-10.322-10.323v18.581c0 5.701 4.621 10.323 10.322 10.323h31.108c5.701 0 10.323-4.622 10.323-10.323v-18.581c-.001 5.701-4.622 10.323-10.323 10.323z" fill="#253847"/><path d="m271.554 250.628h-31.108c-10.323 0-10.323-19.631-10.323-19.631v-12.527c0-5.701 4.622-10.322 10.323-10.322h31.108c5.701 0 10.323 4.621 10.323 10.322v12.527s0 19.631-10.323 19.631z" fill="#2d4456"/><path d="m271.554 241.319h-31.108c-5.701 0-10.323-4.622-10.323-10.323v18.581c0 5.701 4.622 10.323 10.323 10.323h31.108c5.701 0 10.323-4.622 10.323-10.323v-18.581c0 5.701-4.622 10.323-10.323 10.323z" fill="#253847"/><path d="m187.741 250.628h-31.108c-10.322 0-10.322-19.631-10.322-19.631v-12.527c0-5.701 4.621-10.322 10.322-10.322h31.108c5.701 0 10.323 4.621 10.323 10.322v12.527c-.001 0-.001 19.631-10.323 19.631z" fill="#2d4456"/><path d="m187.741 241.319h-31.108c-5.701 0-10.322-4.622-10.322-10.323v18.581c0 5.701 4.621 10.323 10.322 10.323h31.108c5.701 0 10.323-4.622 10.323-10.323v-18.581c-.001 5.701-4.622 10.323-10.323 10.323z" fill="#253847"/><path d="m355.367 250.628h-31.108c-10.322 0-10.322-19.631-10.322-19.631v-12.527c0-5.701 4.621-10.322 10.322-10.322h31.108c5.701 0 10.323 4.621 10.323 10.322v12.527s0 19.631-10.323 19.631z" fill="#2d4456"/><path d="m355.367 241.319h-31.108c-5.701 0-10.322-4.622-10.322-10.323v18.581c0 5.701 4.621 10.323 10.322 10.323h31.108c5.701 0 10.323-4.622 10.323-10.323v-18.581c0 5.701-4.622 10.323-10.323 10.323z" fill="#253847"/></g></g></svg>