<svg id="Layer_1" enable-background="new 0 0 512 512" height="512" viewBox="0 0 512 512" width="512" xmlns="http://www.w3.org/2000/svg"><g><g><path d="m496.555 450.203h-481.11c-8.53 0-15.445-6.915-15.445-15.445v-9.267-295.771l255.999-18.533 256.001 18.533v295.772 9.267c0 8.529-6.915 15.444-15.445 15.444z" fill="#d5e0f2"/><path d="m496.555 440.936h-481.11c-8.53 0-15.445-6.915-15.445-15.444v18.533c0 8.53 6.915 15.445 15.445 15.445h481.111c8.53 0 15.445-6.915 15.445-15.445v-18.533c-.001 8.529-6.916 15.444-15.446 15.444z" fill="#bdcde5"/><path d="m496.555 52.53h-481.11c-8.53 0-15.445 6.915-15.445 15.445v43.212l9.267 9.267h493.466l9.267-9.267v-43.212c0-8.53-6.915-15.445-15.445-15.445z" fill="#2d4456"/><path d="m0 111.187h512v18.534h-512z" fill="#253847"/><path d="m246.737 405.864h-141.395c-8.53 0-15.445-6.915-15.445-15.445v-9.267-149.99c0-8.53 6.915-15.445 15.445-15.445h150.661v168.884l9.267 6.164-9.267 5.831z" fill="#405b6c"/><path d="m89.897 381.152v18.534c0 8.53 6.915 15.445 15.445 15.445h150.661l9.267-9.267-9.267-9.267h-150.661c-8.53 0-15.445-6.915-15.445-15.445z" fill="#2d4456"/><path d="m265.27 405.864h141.395c8.53 0 15.444-6.915 15.444-15.445v-9.267-149.99c0-8.53-6.915-15.445-15.444-15.445h-150.662v180.879z" fill="#2d4456"/><path d="m406.664 396.597h-150.661v18.534h150.661c8.53 0 15.444-6.915 15.444-15.445v-18.534c.001 8.53-6.914 15.445-15.444 15.445z" fill="#253847"/><path d="m384.642 198.931c-82.694-50.601-128.643 1.512-128.643 1.512s-45.949-52.114-128.643-1.512c-1.519.929-2.434 2.596-2.434 4.376v162.761l7.644 4.673c72.876-43.33 114.83-1.155 114.83-1.155l8.603-3.518 8.603 3.518s41.953-42.175 114.83 1.155l7.644-4.673v-162.761c0-1.781-.915-3.447-2.434-4.376z" fill="#f2fdff"/><path d="m256.007 366.068v.007l-.008-.007s-46.851-53.137-131.077 0v9.437c0 3.967 4.284 6.418 7.731 4.453 79.357-45.247 123.346 4.644 123.346 4.644l.008-.009v.009s43.989-49.891 123.346-4.644c3.447 1.965 7.731-.485 7.731-4.453v-9.437c-84.226-53.137-131.077 0-131.077 0z" fill="#e4eef9"/></g><g><ellipse cx="47.015" cy="90.46" fill="#ff5876" rx="12.938" ry="12.938" transform="matrix(.707 -.707 .707 .707 -50.194 59.74)"/><ellipse cx="85.727" cy="90.46" fill="#a0e557" rx="12.938" ry="12.938" transform="matrix(.973 -.23 .23 .973 -18.49 22.116)"/><ellipse cx="124.44" cy="90.46" fill="#ffcf4d" rx="12.938" ry="12.938" transform="matrix(.707 -.707 .707 .707 -27.517 114.487)"/></g></g></svg>