<svg id="Layer_1" enable-background="new 0 0 512 512" height="512" viewBox="0 0 512 512" width="512" xmlns="http://www.w3.org/2000/svg"><g><g><path d="m69.996 15.484c0-8.552 6.933-15.484 15.484-15.484h260.588l95.935 114.516v363.42 9.29c0 8.552-6.932 15.484-15.484 15.484h-341.039c-8.552 0-15.484-6.932-15.484-15.484v-9.29z" fill="#f2fdff"/><path d="m346.069 0v99.032c0 8.552 6.932 15.484 15.484 15.484h80.451v-18.581z" fill="#d3ecf5"/><path d="m426.52 493.419h-341.04c-8.552 0-15.484-6.932-15.484-15.484v18.581c0 8.552 6.932 15.484 15.484 15.484h341.04c8.552 0 15.484-6.932 15.484-15.484v-18.581c0 8.552-6.933 15.484-15.484 15.484z" fill="#d3ecf5"/><circle cx="213.11" cy="119.39" fill="#ffcf4d" r="78.873"/><path d="m361.552 86.645h43.29l18.581-9.29-77.354-77.355v61.871s0 24.774 15.483 24.774z" fill="#e4f0f9"/><path d="m361.552 77.354c-8.551 0-15.484-6.932-15.484-15.484v18.581c0 8.551 6.932 15.484 15.484 15.484h80.451l-18.581-18.581z" fill="#bdcde5"/></g><g><g fill="#ff5876"><path d="m201.344 80.531c-6.097 0-11.292 3.946-12.93 9.82l-18.193 65.292c-1.15 4.127 1.264 8.404 5.391 9.554 4.126 1.154 8.404-1.263 9.554-5.39l4.669-16.756h23.02l4.669 16.756c.956 3.431 4.072 5.677 7.468 5.677.689 0 1.39-.093 2.087-.287 4.126-1.15 6.54-5.427 5.389-9.554l-18.194-65.293c-1.637-5.873-6.833-9.819-12.93-9.819zm-7.186 47.006 7.187-25.791 7.187 25.791z"/><path d="m245.226 71.162c-4.285 0-7.757 3.473-7.757 7.757v3.214h-3.214c-4.285 0-7.757 3.473-7.757 7.757s3.473 7.757 7.757 7.757h3.214v3.214c0 4.284 3.473 7.757 7.757 7.757 4.285 0 7.757-3.473 7.757-7.757v-3.214h3.214c4.285 0 7.757-3.473 7.757-7.757s-3.473-7.757-7.757-7.757h-3.214v-3.214c0-4.284-3.473-7.757-7.757-7.757z"/><path d="m213.026 32.338c-47.854 0-86.785 38.931-86.785 86.784s38.931 86.784 86.785 86.784c47.853 0 86.784-38.931 86.784-86.784 0-34.203-20.184-65.32-51.419-79.273-3.913-1.746-8.499.007-10.247 3.918-1.747 3.911.007 8.499 3.918 10.246 25.656 11.461 42.234 37.018 42.234 65.109 0 39.299-31.972 71.27-71.27 71.27-39.299 0-71.27-31.972-71.27-71.27 0-39.299 31.972-71.27 71.27-71.27 4.285 0 7.757-3.473 7.757-7.757s-3.472-7.757-7.757-7.757z"/></g><path d="m126.602 261.168 15.842 18.403c2.769 3.356 8.25 3.596 11.3.487l31.39-30.672c3.064-2.994 3.121-7.905.127-10.97-2.994-3.064-7.907-3.122-10.969-.127l-25.48 24.897-10.451-12.141c-2.795-3.247-7.693-3.612-10.94-.818-3.247 2.796-3.614 7.694-.819 10.941z" fill="#a0e557"/><path d="m386.786 232.777h-163.413c-4.285 0-7.757 3.473-7.757 7.757s3.472 7.757 7.757 7.757h163.413c4.284 0 7.757-3.473 7.757-7.757s-3.473-7.757-7.757-7.757z" fill="#405b6c"/><path d="m223.373 285.571h92.977c4.285 0 7.757-3.473 7.757-7.757s-3.473-7.757-7.757-7.757h-92.977c-4.285 0-7.757 3.473-7.757 7.757s3.472 7.757 7.757 7.757z" fill="#405b6c"/><path d="m126.602 345.982 15.842 18.403c2.769 3.356 8.25 3.596 11.3.487l31.39-30.672c3.064-2.994 3.121-7.905.127-10.969s-7.907-3.122-10.969-.127l-25.48 24.897-10.451-12.141c-2.795-3.246-7.693-3.612-10.94-.818-3.247 2.795-3.614 7.692-.819 10.94z" fill="#a0e557"/><path d="m386.786 317.591h-163.413c-4.285 0-7.757 3.473-7.757 7.757s3.472 7.757 7.757 7.757h163.413c4.284 0 7.757-3.473 7.757-7.757 0-4.283-3.473-7.757-7.757-7.757z" fill="#405b6c"/><path d="m223.373 370.385h92.977c4.285 0 7.757-3.473 7.757-7.757s-3.473-7.757-7.757-7.757h-92.977c-4.285 0-7.757 3.473-7.757 7.757s3.472 7.757 7.757 7.757z" fill="#405b6c"/><path d="m126.602 430.796 15.842 18.403c2.769 3.356 8.25 3.596 11.3.487l31.39-30.672c3.064-2.994 3.121-7.905.127-10.97-2.994-3.063-7.907-3.122-10.969-.127l-25.48 24.898-10.451-12.141c-2.795-3.247-7.693-3.613-10.94-.818s-3.614 7.693-.819 10.94z" fill="#a0e557"/><path d="m394.543 410.163c0-4.284-3.473-7.757-7.757-7.757h-163.413c-4.285 0-7.757 3.473-7.757 7.757s3.472 7.757 7.757 7.757h163.413c4.284 0 7.757-3.473 7.757-7.757z" fill="#405b6c"/><path d="m223.373 439.685c-4.285 0-7.757 3.473-7.757 7.757s3.472 7.757 7.757 7.757h92.977c4.285 0 7.757-3.473 7.757-7.757s-3.473-7.757-7.757-7.757z" fill="#405b6c"/></g></g></svg>