<svg id="Layer_1" enable-background="new 0 0 512 512" height="512" viewBox="0 0 512 512" width="512" xmlns="http://www.w3.org/2000/svg"><g><g><g><g><path d="m487.997 410.342h-463.994c-13.256 0-24.003-10.746-24.003-24.003v-9.29-260.679c0-13.257 10.747-24.003 24.003-24.003h463.994c13.257 0 24.003 10.746 24.003 24.003v260.679 9.29c0 13.257-10.746 24.003-24.003 24.003z" fill="#d5e0f2"/></g></g><path d="m487.997 401.052h-463.994c-13.256 0-24.003-10.746-24.003-24.003v18.581c0 13.257 10.747 24.003 24.003 24.003h463.994c13.257 0 24.003-10.747 24.003-24.003v-18.581c0 13.257-10.746 24.003-24.003 24.003z" fill="#bdcde5"/><path d="m432.821 329.975h-113.987c-10.767 0-19.496-8.729-19.496-19.496v-9.29-108.959c0-10.767 8.729-19.496 19.496-19.496h113.988c10.767 0 19.496 8.729 19.496 19.496v108.959 9.29c-.001 10.768-8.729 19.496-19.497 19.496z" fill="#86dcff"/><path d="m432.821 320.685h-113.987c-10.767 0-19.496-8.729-19.496-19.496v18.581c0 10.418 8.171 18.927 18.454 19.468.345.018 10.332-9.263 10.332-9.263h95.407s9.987 9.281 10.332 9.263c10.283-.541 18.454-9.051 18.454-19.468v-18.581c0 10.768-8.728 19.496-19.496 19.496z" fill="#56caed"/><path d="m424.574 329.975 7.999-9.252c-3.678-23.765-15.139-36.211-33.471-43.849-2.512-1.046-3.14-4.343-1.119-6.165 7.972-7.186 12.721-15.831 12.721-28.144 0-19.144-15.665-34.63-34.876-34.337-19.211-.292-34.876 15.193-34.876 34.337 0 12.313 4.749 20.958 12.721 28.144 2.021 1.822 1.393 5.118-1.119 6.165-18.332 7.637-29.794 20.083-33.471 43.849l7.999 9.252z" fill="#2d4456"/><path d="m319.09 320.685c-.861 5.549-1.3 11.713-1.3 18.581h116.074c0-6.868-.439-13.031-1.3-18.581z" fill="#253847"/></g><g fill="#405b6c"><path d="m244.495 175.377h-185.196c-4.284 0-7.757 3.473-7.757 7.757 0 4.285 3.473 7.757 7.757 7.757h185.196c4.284 0 7.757-3.473 7.757-7.757 0-4.285-3.473-7.757-7.757-7.757z"/><path d="m244.495 218.512h-185.196c-4.284 0-7.757 3.472-7.757 7.757s3.473 7.757 7.757 7.757h185.196c4.284 0 7.757-3.473 7.757-7.757s-3.473-7.757-7.757-7.757z"/><path d="m252.252 269.741c0-4.285-3.473-7.757-7.757-7.757h-185.196c-4.284 0-7.757 3.473-7.757 7.757s3.473 7.757 7.757 7.757h185.196c4.284 0 7.757-3.473 7.757-7.757z"/><path d="m51.542 312.735v25.319c0 4.285 3.473 7.757 7.757 7.757s7.757-3.472 7.757-7.757v-25.319c0-4.285-3.473-7.757-7.757-7.757s-7.757 3.472-7.757 7.757z"/><path d="m82.408 312.735v25.319c0 4.285 3.473 7.757 7.757 7.757s7.757-3.472 7.757-7.757v-25.319c0-4.285-3.473-7.757-7.757-7.757s-7.757 3.472-7.757 7.757z"/><path d="m113.274 312.735v25.319c0 4.285 3.473 7.757 7.757 7.757s7.757-3.472 7.757-7.757v-25.319c0-4.285-3.473-7.757-7.757-7.757s-7.757 3.472-7.757 7.757z"/><path d="m175.006 312.735v25.319c0 4.285 3.473 7.757 7.757 7.757s7.757-3.472 7.757-7.757v-25.319c0-4.285-3.473-7.757-7.757-7.757s-7.757 3.472-7.757 7.757z"/><path d="m144.14 312.735v25.319c0 4.285 3.473 7.757 7.757 7.757s7.757-3.472 7.757-7.757v-25.319c0-4.285-3.473-7.757-7.757-7.757s-7.757 3.472-7.757 7.757z"/><path d="m205.872 312.735v25.319c0 4.285 3.473 7.757 7.757 7.757s7.757-3.472 7.757-7.757v-25.319c0-4.285-3.473-7.757-7.757-7.757s-7.757 3.472-7.757 7.757z"/><path d="m252.252 312.735c0-4.285-3.473-7.757-7.757-7.757s-7.757 3.472-7.757 7.757v25.319c0 4.285 3.473 7.757 7.757 7.757s7.757-3.472 7.757-7.757z"/></g></g></svg>