<svg id="Layer_1" enable-background="new 0 0 512 512" height="512" viewBox="0 0 512 512" width="512" xmlns="http://www.w3.org/2000/svg"><g><g><path d="m66.785 0c12.364 0 21.88 10.921 20.187 23.168l-2.606 18.861-11.681 9.152h-11.8l-11.681-9.152-2.606-18.861c-1.693-12.247 7.823-23.168 20.187-23.168z" fill="#ff5876"/><path d="m49.204 42.029 2.529 18.304 15.052 9.152 15.052-9.152 2.529-18.304z" fill="#e6485d"/><path d="m484.544 92.753 9.152-9.152v-8.015c0-8.424-6.829-15.253-15.253-15.253h-444.886c-8.424 0-15.253 6.829-15.253 15.253v8.015l9.152 9.152z" fill="#ffcf4d"/><path d="m18.304 101.905 237.696 18.303 237.696-18.303v-18.304h-475.392z" fill="#ffb629"/><path d="m12.802 365.048 24.651 11.536 6.459-4.86 9.152-14.32-9.152-14.32-31.106 14.32z" fill="#ffe0cc"/><path d="m2.958 371.174 40.954 18.853v-18.304l-31.106-14.32-9.848 4.533c-3.944 1.817-3.944 7.423 0 9.238z" fill="#ffceb3"/><path d="m53.064 380.876-9.152-9.152v-28.64h381.269l9.152 14.32-9.152 14.32-9.152 9.152z" fill="#ffcf4d"/><path d="m43.912 390.028h381.269l9.152-9.152-9.152-9.152h-381.269z" fill="#ffb629"/><path d="m0 258.81v-9.152-142.669c0-2.808 2.276-5.084 5.084-5.084h501.831c2.808 0 5.084 2.276 5.084 5.084v142.669 9.152c0 19.656-15.935 35.591-35.591 35.591h-440.817c-19.656 0-35.591-15.935-35.591-35.591z" fill="#ff5876"/><path d="m476.409 285.249h-440.818c-19.657 0-35.591-15.935-35.591-35.591v18.304c0 19.656 15.934 35.591 35.591 35.591h440.818c19.656 0 35.591-15.935 35.591-35.591v-18.304c0 19.656-15.935 35.591-35.591 35.591z" fill="#e6485d"/><path d="m5.766 456.942-5.766-10.479v-1.121c0-2.369 1.636-4.423 3.944-4.955l47.043-10.828 9.152 12.879-9.152 15.76-8.59 7.175z" fill="#e4eef9"/><path d="m460.161 437.954-9.152 11.849 9.152 9.152h36.762c11.974 0 11.974-15.087 11.974-15.087-2.755-3.596-7.094-5.915-11.974-5.915h-36.762z" fill="#ff5876"/><path d="m50.987 429.56v28.639l9.152 9.152h355.89l9.152-9.152 9.152-14.32-9.152-14.319z" fill="#ff5876"/><path d="m3.944 465.675 47.043 10.828 9.152-9.152-9.152-9.152-50.987-11.736v14.257c0 2.369 1.636 4.423 3.944 4.955z" fill="#d5e0f2"/><path d="m496.923 449.804h-36.762l-9.152 9.152 9.152 9.152h36.762c8.327 0 15.077-6.75 15.077-15.077 0-3.446-1.169-6.613-3.115-9.152-2.756 3.596-7.081 5.925-11.962 5.925z" fill="#e6485d"/><path d="m425.181 458.199h-374.194v18.304h358.941v7.533c0 7.009-5.702 12.711-12.711 12.711h-136.382c-4.213 0-7.627 3.414-7.627 7.627s3.414 7.627 7.627 7.627h136.381c15.419 0 27.964-12.545 27.964-27.964v-7.533l9.152-9.152z" fill="#e6485d"/><path d="m434.333 380.876-9.152-9.152v-28.64h34.98l9.152 14.32-9.152 14.32-9.152 9.152z" fill="#e4eef9"/><path d="m460.161 380.876v-9.152-28.639h28.367c9.716 0 18.053 5.904 21.62 14.319 1.192 2.812-8.657 23.472-21.62 23.472z" fill="#ff5876"/><path d="m425.181 390.028h34.98l9.152-9.152-9.152-9.152h-34.98z" fill="#d5e0f2"/><path d="m488.528 371.724h-28.367v18.304h28.367c12.963 0 23.471-10.509 23.471-23.472 0-3.247-.66-6.34-1.852-9.152-3.566 8.416-11.902 14.32-21.619 14.32z" fill="#e6485d"/><path d="m425.181 429.56v28.639l9.152 9.152h16.676l9.152-9.152v-23.555c0-2.808-2.276-5.084-5.084-5.084z" fill="#e4eef9"/><path d="m425.181 476.503h29.896c2.808 0 5.084-2.276 5.084-5.084v-13.219h-34.98z" fill="#d5e0f2"/></g></g></svg>