<svg id="Layer_1" enable-background="new 0 0 512 512" height="512" viewBox="0 0 512 512" width="512" xmlns="http://www.w3.org/2000/svg"><g><g><path d="m397.234 397.234c120.43-120.43 112.369-298.925 103.966-367.224-1.432-11.635-11.192-20.757-11.192-20.757-4.354-2.615-9.292-4.364-14.581-5.015-26.345-3.242-69.086-6.432-118.566-2.217l-25.853 10.339-37.221-1.024c-63.275 13.585-130.503 41.787-185.583 96.868s-83.284 122.307-96.869 185.582l.807 38.699-10.122 24.376c-4.215 49.48-1.025 92.221 2.217 118.566.638 5.189 2.335 10.04 4.868 14.333 0 0 9.17 9.995 20.904 11.439 68.3 8.404 246.795 16.464 367.225-103.965z" fill="#ea9d57"/><path d="m155.449 502.47 45.632-6.235 3.998-8.712-193.735-193.735c-4.66 21.708-7.602 42.946-9.317 63.073l139.979 139.979z" fill="#f2fdff"/><path d="m502.47 155.449-6.235 45.632-8.712 3.998-193.735-193.735c21.708-4.66 42.946-7.602 63.073-9.317l139.979 139.979z" fill="#f2fdff"/><path d="m496.84 142.006 7.504-1.504 5.635 14.642c-1.714 20.127-4.656 41.366-9.317 63.074l-8.601 2.593-4.538-15.732c4.66-21.708 7.602-42.946 9.317-63.073z" fill="#d5e0f2"/><g><path d="m323.86 210.043 20.666-20.666c5.76-5.76 6.4-15.079 1.105-21.269-2.524-2.951-5.868-4.67-9.36-5.22-.082-.027-.164-.052-.245-.063-4.653-.657-9.548.804-13.126 4.383l-20.938 20.938-18.712-18.712c-6.047-6.047-15.851-6.047-21.897 0-6.047 6.047-6.047 15.85 0 21.897l18.712 18.712-24.063 24.063-18.712-18.712c-6.046-6.048-15.851-6.048-21.897 0-6.047 6.047-6.047 15.85 0 21.897l18.712 18.712-24.063 24.063-18.712-18.712c-6.046-6.047-15.851-6.047-21.897 0-6.047 6.047-6.047 15.851 0 21.897l18.712 18.712-20.938 20.938c-6.095 6.079-5.974 15.904 0 21.897 6.046 6.047 15.851 6.047 21.897 0l20.938-20.938 18.712 18.712c6.064 6.065 15.906 6.046 21.946-.049 6.055-6.109 5.706-16.093-.376-22.175l-18.385-18.385 24.063-24.063 18.712 18.712c6.065 6.065 15.907 6.046 21.948-.051 6.053-6.109 5.704-16.092-.377-22.174l-18.385-18.384 24.063-24.063 18.712 18.712c6.065 6.065 15.907 6.046 21.947-.05 6.054-6.109 5.705-16.093-.377-22.174z" fill="#f2fdff"/></g><path d="m142.006 496.84-1.504 7.504 14.642 5.635c20.127-1.714 41.366-4.656 63.074-9.317l2.593-8.601-15.732-4.538c-21.708 4.66-42.946 7.602-63.073 9.317z" fill="#d5e0f2"/><g fill="#e68d4e"><path d="m142.006 496.84c-49.477 4.214-92.222 1.032-118.566-2.21-5.189-.638-10.037-2.339-14.331-4.872 5.729 9.71 15.735 16.567 27.469 18.011 26.344 3.241 69.089 6.424 118.566 2.21l-6.563-6.563z"/><path d="m489.758 9.109c2.533 4.293 4.234 9.142 4.872 14.331 3.241 26.344 6.424 69.089 2.21 118.566l13.139 13.139c4.214-49.477 1.032-92.222-2.21-118.566-1.444-11.735-8.302-21.74-18.011-27.47z"/><path d="m487.523 205.079c-13.584 63.277-41.777 130.503-96.859 185.585s-122.309 83.274-185.585 96.859l13.139 13.139c63.277-13.584 130.503-41.777 185.585-96.859s83.275-122.308 96.859-185.585z"/></g></g></g></svg>