<svg id="Layer_1" enable-background="new 0 0 512 512" height="512" viewBox="0 0 512 512" width="512" xmlns="http://www.w3.org/2000/svg"><g><g><path d="m226.512 270.63 16.225-2.203c2.111-10.537 1.48-24.027-8.536-37.256 0 0 4.102-23.988-5.786-37.728-14.657-20.368-38.847-15.827-38.847-15.827l-9.436 15.189 9.436 21.573 7.991 26.825z" fill="#a0e557"/><path d="m189.568 214.379-11.03 7.47 11.03 20.524 9.982 27.146 35.109 18.681s5.73-8.064 8.076-19.773z" fill="#87d654"/><path d="m460.057 181.696-58.785-9.29-58.808 9.29-20.435 41.444 79.19 9.29 79.272-9.29z" fill="#e4eef9"/><path d="m471.16 279.01-139.881-.2-9.267-9.291.058-46.48 158.463.201-.059 46.48z" fill="#86dcff"/><path d="m480.45 269.72-158.438-.201-.024 18.581 79.313 9.391 79.149-9.191z" fill="#56caed"/><g fill="#ff5876"><path d="m238.702 405.491h-184.286c-18.81 0-34.058-15.248-34.058-34.058v-30.276l9.29-9.29h233.821l9.29 9.29v30.276c.001 18.81-15.247 34.058-34.057 34.058z"/><path d="m457.584 405.491h-120.265c-18.809 0-34.058-15.248-34.058-34.058v-30.276l9.29-9.29h169.799l9.29 9.29v30.276c.002 18.81-15.246 34.058-34.056 34.058z"/></g><path d="m20.358 322.576v18.581h252.402v-18.581l-126.201-9.29z" fill="#e6485d"/><path d="m303.262 322.576v18.581h188.38v-18.581l-90.423-9.29z" fill="#e6485d"/><path d="m494.812 313.286h-477.624c-14.913 0-14.913-16.449-14.913-16.449 2.966-5.161 8.534-8.637 14.913-8.637h477.624c6.38 0 11.948 3.476 14.913 8.637 0 0 0 16.449-14.913 16.449z" fill="#d5e0f2"/><path d="m494.812 305.489h-477.624c-6.379 0-11.934-3.484-14.9-8.644-1.448 2.518-2.288 5.43-2.288 8.543 0 9.493 7.695 17.188 17.188 17.188h477.624c9.493 0 17.188-7.695 17.188-17.188 0-3.113-.84-6.025-2.288-8.544-2.966 5.161-8.521 8.645-14.9 8.645z" fill="#bdcde5"/><path d="m74.425 115.908 9.854-8.563c9.621-1.928 21.925-1.077 34.656 8.563 0 0 23.988-4.102 37.728 5.786 20.368 14.657 15.827 38.847 15.827 38.847l-14.182 7.245-21.702-7.245-27.859-9.75z" fill="#a0e557"/><path d="m206.787 278.91h-157.506l-9.29-9.29v-151.543c0-10.158 12.32-15.203 19.445-7.962l156.94 159.505z" fill="#ffc4ad"/><path d="m84.28 107.346c-11.483 2.302-19.145 8.561-19.145 8.561l43.915 44.633 17.094 7.245 10.462-7.245z" fill="#87d654"/><path d="m39.991 269.62v18.58h194.667l-18.282-18.58z" fill="#ffb69f"/><path d="m351.754 172.406h99.012l9.29-9.29v-1.202c0-9.405-7.624-17.029-17.029-17.029h-83.535c-9.405 0-17.029 7.624-17.029 17.029v1.202z" fill="#e4eef9"/><path d="m342.464 163.115h117.593v18.581h-117.593z" fill="#d5e0f2"/><path d="m178.538 221.849 11.03-7.47v-48.677c0-2.851-2.311-5.161-5.161-5.161h-47.799l-10.462 7.245z" fill="#ffcf4d"/><path d="m189.568 214.379-52.961-53.838h-27.557l80.518 81.832z" fill="#ffb629"/></g></g></svg>