<svg id="Layer_1" enable-background="new 0 0 512 512" height="512" viewBox="0 0 512 512" width="512" xmlns="http://www.w3.org/2000/svg"><g><g><path d="m136.535 228.029 39.95-29.587 8.21-27.305-23.475-13.066-84.274 31.864-7.857 26.148 23.121 14.224z" fill="#ffcf4d"/><path d="m92.21 230.307-5.383 12.052 11.53 4.204 84.275-31.865 7.664-12.847-13.811-3.409z" fill="#ffb629"/><g fill="#ff9517"><path d="m228.195 272.087-95.93 210.085c-3.512 7.69-.125 16.771 7.566 20.281 2.062.942 4.221 1.387 6.349 1.387 5.808 0 11.362-3.324 13.932-8.953l95.114-208.298-7.299-17.346z"/><path d="m311.611 272.23-9.946 14.368 95.109 208.29c2.57 5.63 8.125 8.953 13.932 8.953 2.127 0 4.288-.445 6.349-1.387 7.69-3.511 11.077-12.591 7.566-20.281l-95.92-210.065z"/><path d="m263.137 288.563v208.131c0 8.453 6.853 15.307 15.307 15.307s15.307-6.853 15.307-15.307v-208.125l-15.307-7.716z"/></g><path d="m236.707 253.446-8.512 18.64c7.884 6.469 17.038 11.445 27.031 14.503l7.782-17.043z" fill="#ef7f0f"/><path d="m263.137 269.579v18.983c4.96.971 10.08 1.494 15.324 1.494 5.232 0 10.34-.521 15.289-1.488v-19.325z" fill="#ef7f0f"/><path d="m319.805 252.624-26.063 16.622 7.923 17.352c9.994-3.054 19.149-8.025 27.036-14.491z" fill="#ef7f0f"/><path d="m235.369 251.949c14.865 17.434 39.602 24.571 62.264 16.002s36.489-30.288 36.101-53.195l-52.697 8.595z" fill="#ff5876"/><path d="m330.626 197.346-58.126 11.82-46.32 27.672c2.303 5.638 5.442 10.693 9.201 15.102l98.337-37.182c-.098-5.794-1.089-11.661-3.092-17.412z" fill="#e6485d"/><path d="m266.528 240.166c6.347 2.943 13.826 3.43 20.887.76s12.347-7.983 15.159-14.389l-20.657-1.894z" fill="#ffcf4d"/><g><path d="m426.831 20.635 39.487 104.435 6.99 2.237c16.192-21.15 13.736-46.174 13.736-46.174-.817-4.208-2-8.403-3.567-12.549-9.682-25.607-31.639-42.966-56.646-47.949z" fill="#ffe0cc"/></g><path d="m394.785 164.784-180.459 67.635c-22.908 9.941-32.667-20.294-32.667-20.294l-25.72-68.023c-4.136-10.939 1.379-23.16 12.318-27.296l193.263-73.074 43.931 43.977-3.125 63.946z" fill="#ff5876"/><path d="m303.595 207.566h-31.551l-18.833 19.05c2.735 6.189 7.562 10.875 13.319 13.544l36.039-13.626c2.551-5.81 3.07-12.518 1.026-18.968z" fill="#ffb629"/><path d="m487.039 81.135c-1.97 15.579-9.259 30.882-20.72 43.935l-1.914 11.714 8.322 5.234c12.952-16.998 18.54-39.098 14.312-60.883z" fill="#ffceb3"/><path d="m209.348 224.621c-11.097 4.196-23.494-1.399-27.69-12.495l6.255 16.542c4.136 10.939 16.357 16.454 27.296 12.318l193.263-73.074 7.808-13.521-13.955-2.735z" fill="#e6485d"/><path d="m88.928 263.241-23.096 8.733c-15.12 5.187-25.02-21.229-25.02-21.229l-16.249-42.975c-2.99-7.907.997-16.741 8.904-19.731l23.096-8.733c7.907-2.99 16.741.997 19.731 8.904l21.983 58.14c-.001 0 1.726 11.779-9.349 16.891z" fill="#ff5876"/><path d="m98.276 246.35-36.565 13.826c-8.375 3.167-17.732-1.055-20.899-9.431l6.467 17.104c2.99 7.907 11.824 11.894 19.731 8.904l23.096-8.733c7.907-2.99 11.894-11.824 8.904-19.731z" fill="#e6485d"/><path d="m430.376 180.224 35.072-13.261c8.204-3.102 10.668-15.98 10.668-15.98l-53.205-140.714c-3.102-8.204-12.268-12.34-20.472-9.238l-35.072 13.261c-8.204 3.102-12.341 12.268-9.238 20.472l47.322 125.156s8.748 25.914 24.925 20.304z" fill="#ffcf4d"/><path d="m476.116 150.983-49.225 18.612c-8.592 3.249-18.192-1.083-21.441-9.675l6.412 16.96c3.102 8.204 12.268 12.34 20.472 9.238l35.072-13.261c8.204-3.102 12.341-12.268 9.238-20.472z" fill="#ffb629"/></g></g></svg>