<svg id="Layer_1" enable-background="new 0 0 512 512" height="512" viewBox="0 0 512 512" width="512" xmlns="http://www.w3.org/2000/svg"><g><g><path d="m490.034 469.63h-468.068c-12.132 0-21.966-9.834-21.966-21.966v-9.29-383.328c0-12.132 9.834-21.966 21.966-21.966h468.068c12.132 0 21.966 9.835 21.966 21.966v383.328 9.29c0 12.132-9.835 21.966-21.966 21.966z" fill="#86dcff"/><path d="m490.034 460.34h-468.068c-12.132 0-21.966-9.835-21.966-21.966v18.581c0 12.131 9.834 21.966 21.966 21.966h468.068c12.131 0 21.966-9.835 21.966-21.966v-18.581c0 12.131-9.835 21.966-21.966 21.966z" fill="#56caed"/><path d="m354.88 114.266h-197.76l-9.29-9.29v-13.436c0-2.851 2.311-5.161 5.161-5.161h206.019c2.85 0 5.161 2.311 5.161 5.161v13.436z" fill="#ff5876"/><path d="m152.99 123.556h206.019c2.85 0 5.161-2.311 5.161-5.161v-13.419h-216.341v13.419c0 2.85 2.311 5.161 5.161 5.161z" fill="#e6485d"/><path d="m150.187 276.862h-98.306l-9.29-9.29v-88.571c0-2.85 2.311-5.161 5.161-5.161h106.564c2.851 0 5.161 2.311 5.161 5.161v88.571z" fill="#f2fdff"/><path d="m47.752 286.153h106.564c2.851 0 5.161-2.311 5.161-5.161v-13.419h-116.886v13.419c0 2.85 2.31 5.161 5.161 5.161z" fill="#d3ecf5"/><path d="m305.153 276.862h-98.306l-9.29-9.29v-88.571c0-2.85 2.311-5.161 5.161-5.161h106.564c2.85 0 5.161 2.311 5.161 5.161v88.571z" fill="#f2fdff"/><path d="m202.718 286.153h106.564c2.85 0 5.161-2.311 5.161-5.161v-13.419h-116.887v13.419c0 2.85 2.311 5.161 5.162 5.161z" fill="#d3ecf5"/><path d="m460.119 276.862h-98.306l-9.29-9.29v-88.571c0-2.85 2.311-5.161 5.161-5.161h106.564c2.85 0 5.161 2.311 5.161 5.161v88.571z" fill="#f2fdff"/><path d="m357.684 286.153h106.564c2.85 0 5.161-2.311 5.161-5.161v-13.419h-116.887v13.419c0 2.85 2.311 5.161 5.162 5.161z" fill="#d3ecf5"/><path d="m150.187 425.677h-98.306l-9.29-9.29v-88.571c0-2.85 2.311-5.161 5.161-5.161h106.564c2.851 0 5.161 2.311 5.161 5.161v88.571z" fill="#f2fdff"/><path d="m47.752 434.967h106.564c2.851 0 5.161-2.311 5.161-5.161v-13.419h-116.886v13.419c0 2.85 2.31 5.161 5.161 5.161z" fill="#d3ecf5"/><path d="m305.153 425.677h-98.306l-9.29-9.29v-88.571c0-2.85 2.311-5.161 5.161-5.161h106.564c2.85 0 5.161 2.311 5.161 5.161v88.571z" fill="#f2fdff"/><path d="m202.718 434.967h106.564c2.85 0 5.161-2.311 5.161-5.161v-13.419h-116.887v13.419c0 2.85 2.311 5.161 5.162 5.161z" fill="#d3ecf5"/><path d="m460.119 425.677h-98.306l-9.29-9.29v-88.571c0-2.85 2.311-5.161 5.161-5.161h106.564c2.85 0 5.161 2.311 5.161 5.161v88.571z" fill="#f2fdff"/><path d="m357.684 434.967h106.564c2.85 0 5.161-2.311 5.161-5.161v-13.419h-116.887v13.419c0 2.85 2.311 5.161 5.162 5.161z" fill="#d3ecf5"/></g><g><g fill="#405b6c"><path d="m70.432 220.189h61.204c4.276 0 7.742-3.466 7.742-7.742s-3.466-7.742-7.742-7.742h-61.204c-4.276 0-7.742 3.466-7.742 7.742s3.466 7.742 7.742 7.742z"/><path d="m70.432 255.287h61.204c4.276 0 7.742-3.466 7.742-7.742s-3.466-7.742-7.742-7.742h-61.204c-4.276 0-7.742 3.466-7.742 7.742 0 4.277 3.466 7.742 7.742 7.742z"/><path d="m70.432 369.003h61.204c4.276 0 7.742-3.466 7.742-7.742s-3.466-7.742-7.742-7.742h-61.204c-4.276 0-7.742 3.466-7.742 7.742s3.466 7.742 7.742 7.742z"/><path d="m70.432 404.102h61.204c4.276 0 7.742-3.466 7.742-7.742s-3.466-7.742-7.742-7.742h-61.204c-4.276 0-7.742 3.466-7.742 7.742s3.466 7.742 7.742 7.742z"/><path d="m225.398 220.189h61.205c4.276 0 7.742-3.466 7.742-7.742s-3.466-7.742-7.742-7.742h-61.205c-4.276 0-7.742 3.466-7.742 7.742s3.466 7.742 7.742 7.742z"/><path d="m225.398 255.287h61.205c4.276 0 7.742-3.466 7.742-7.742s-3.466-7.742-7.742-7.742h-61.205c-4.276 0-7.742 3.466-7.742 7.742 0 4.277 3.466 7.742 7.742 7.742z"/><path d="m225.398 369.003h61.205c4.276 0 7.742-3.466 7.742-7.742s-3.466-7.742-7.742-7.742h-61.205c-4.276 0-7.742 3.466-7.742 7.742s3.466 7.742 7.742 7.742z"/><path d="m225.398 404.102h61.205c4.276 0 7.742-3.466 7.742-7.742s-3.466-7.742-7.742-7.742h-61.205c-4.276 0-7.742 3.466-7.742 7.742s3.466 7.742 7.742 7.742z"/><path d="m441.568 204.705h-61.204c-4.276 0-7.742 3.466-7.742 7.742s3.466 7.742 7.742 7.742h61.204c4.276 0 7.742-3.466 7.742-7.742 0-4.277-3.466-7.742-7.742-7.742z"/><path d="m441.568 239.803h-61.204c-4.276 0-7.742 3.466-7.742 7.742s3.466 7.742 7.742 7.742h61.204c4.276 0 7.742-3.466 7.742-7.742s-3.466-7.742-7.742-7.742z"/><path d="m441.568 353.519h-61.204c-4.276 0-7.742 3.466-7.742 7.742s3.466 7.742 7.742 7.742h61.204c4.276 0 7.742-3.466 7.742-7.742s-3.466-7.742-7.742-7.742z"/><path d="m441.568 388.618h-61.204c-4.276 0-7.742 3.466-7.742 7.742s3.466 7.742 7.742 7.742h61.204c4.276 0 7.742-3.466 7.742-7.742s-3.466-7.742-7.742-7.742z"/></g></g></g></svg>