<svg id="Layer_1" enable-background="new 0 0 1512 1512" height="512" viewBox="0 0 1512 1512" width="512" xmlns="http://www.w3.org/2000/svg"><g><path d="m315.774 1494.863h-66.44c-8.229 0-14.896-6.67-14.896-14.896v-731.374l48.116-26.813 48.116 26.813v731.375c.002 8.225-6.668 14.895-14.896 14.895z" fill="#e4eef9"/><path d="m234.438 694.965v53.628h96.234v-53.628l-48.118-26.813z" fill="#d5e0f2"/><path d="m756.001 292.096-278.581-26.813v-192.954c0-30.481 24.712-55.193 55.193-55.193h446.777c30.481 0 55.193 24.712 55.193 55.193v192.953z" fill="#ea9d57"/><path d="m477.421 318.908 278.58 26.816 278.581-26.816v-53.625h-557.161z" fill="#e68d4e"/><path d="m1262.669 1494.863h-66.44c-8.226 0-14.896-6.67-14.896-14.896v-731.374l48.116-26.813 48.116 26.813v731.375c0 8.225-6.67 14.895-14.896 14.895z" fill="#e4eef9"/><path d="m1181.33 694.965v53.628h96.235v-53.628l-48.116-26.813z" fill="#d5e0f2"/><path d="m965.224 1494.863h-66.44c-8.228 0-14.896-6.67-14.896-14.896v-731.374l48.116-26.813 48.116 26.813v731.375c0 8.225-6.67 14.895-14.896 14.895z" fill="#e4eef9"/><path d="m883.885 694.965v53.628h96.235v-53.628l-48.116-26.813z" fill="#d5e0f2"/><path d="m883.885 953.547v53.628h96.235v-53.628l-48.116-26.813z" fill="#d5e0f2"/><path d="m613.219 1494.863h-66.44c-8.229 0-14.896-6.67-14.896-14.896v-731.374l48.116-26.813 48.116 26.813v731.375c-.001 8.225-6.668 14.895-14.896 14.895z" fill="#e4eef9"/><path d="m531.883 694.965v53.628h96.231v-53.628l-48.115-26.813z" fill="#d5e0f2"/><path d="m531.883 953.547v53.628h96.231v-53.628l-48.115-26.813z" fill="#d5e0f2"/><path d="m1307.665 694.965h-1103.327c-49.363 0-89.377-40.014-89.377-89.377v-125.394l26.813-26.813h1228.452l26.813 26.813v125.394c.002 49.362-40.015 89.377-89.374 89.377z" fill="#ea9d57"/><path d="m114.961 426.566v53.628h1282.08v-53.628l-641.04-26.813z" fill="#e68d4e"/><path d="m1441.038 399.753h-1370.074c-29.728 0-51.224-45.954-46.673-53.854 9.296-16.131 26.715-26.992 46.673-26.992h1370.071c19.955 0 37.376 10.858 46.673 26.992 4.555 7.9-16.942 53.854-46.67 53.854z" fill="#ffbe7c"/><path d="m1441.038 372.938h-1370.074c-19.955 0-37.333-10.884-46.629-27.015-4.554 7.9-7.198 17.04-7.198 26.813 0 29.728 24.1 53.828 53.827 53.828h1370.071c29.728 0 53.828-24.1 53.828-53.828 0-9.775-2.647-18.913-7.198-26.813-9.294 16.131-26.675 27.015-46.627 27.015z" fill="#ea9d57"/><path d="m1028.969 926.734h-545.935c-29.728 0-51.224-45.951-46.673-53.854 9.296-16.131 26.715-26.992 46.673-26.992h545.937c19.955 0 37.376 10.858 46.673 26.992 4.549 7.9-16.945 53.854-46.675 53.854z" fill="#ffbe7c"/><path d="m1028.969 899.918h-545.935c-19.955 0-37.333-10.884-46.629-27.015-4.554 7.9-7.198 17.04-7.198 26.813 0 29.728 24.1 53.828 53.83 53.828h545.937c29.728 0 53.83-24.1 53.83-53.828 0-9.775-2.647-18.913-7.201-26.813-9.302 16.132-26.679 27.015-46.634 27.015z" fill="#ea9d57"/></g></svg>