<svg id="Layer_1" enable-background="new 0 0 512 512" height="512" viewBox="0 0 512 512" width="512" xmlns="http://www.w3.org/2000/svg"><g><g><path d="m375.275 352.235c41.217-74.94-3.441-270.594-119.275-270.594-115.652 0-160.351 195.037-119.469 270.239z" fill="#ff9517"/><path d="m291.155 321.591h-70.31c-32.993 0-62.827 11.593-84.31 30.287 4.3 7.91 9.544 14.498 15.755 19.389h207.42c6.211-4.892 11.455-11.48 15.755-19.389-21.483-18.695-51.317-30.287-84.31-30.287z" fill="#ef7f0f"/><path d="m378.858 502.848h-245.716l-9.152-9.152v-51.997c0-37.353 20.117-70.008 50.108-87.72h163.804c29.991 17.713 50.108 50.367 50.108 87.72v51.997z" fill="#86dcff"/><path d="m129.075 512h39.443l7.627-9.152 7.627 9.152h64.603l7.626-9.152 7.627 9.152h64.603l7.627-9.152 7.627 9.152h39.443c2.808 0 5.084-2.276 5.084-5.084v-13.219h-264.021v13.219c0 2.808 2.276 5.084 5.084 5.084z" fill="#56caed"/><path d="m259.863 436.016 67.287-78.624-.146-8.986c-12.49-5.472-26.289-8.512-40.799-8.512h-60.41c-14.51 0-28.308 3.039-40.798 8.512l.072 9.241 67.069 78.368c2.029 2.372 5.696 2.372 7.725.001z" fill="#ffcf4d"/><path d="m256 502.848 7.627-9.152v-52.929l74.273-86.781c-.004-.002-.007-.006-.011-.008h-.003c-3.502-2.07-7.136-3.917-10.882-5.562v-.01c-1.881-.824-3.795-1.586-5.733-2.298l-61.406 71.758c-2.034 2.369-5.695 2.369-7.728 0l-61.406-71.758c-1.938.712-3.852 1.473-5.733 2.298v.01c-3.746 1.645-7.38 3.492-10.882 5.562h-.003c-.004.002-.007.006-.011.008l74.273 86.781v52.929z" fill="#ffb629"/><path d="m248.373 493.696h15.253v18.304h-15.253z" fill="#ff9517"/><path d="m288.221 339.894-28.161 37.376c-2.034 2.7-6.087 2.7-8.122 0l-28.161-37.376z" fill="#f2fdff"/><g fill="#4ea1f4"><path d="m183.771 470.023v23.673l-7.627 9.152-7.627-9.152v-23.673c0-4.22 3.417-7.627 7.627-7.627 4.21.001 7.627 3.407 7.627 7.627z"/><path d="m343.482 470.023v23.673l-7.627 9.152-7.627-9.152v-23.673c0-4.22 3.417-7.627 7.627-7.627 4.211.001 7.627 3.407 7.627 7.627z"/></g><path d="m168.518 493.696h15.253v18.304h-15.253z" fill="#3292e0"/><path d="m328.229 493.696h15.253v18.304h-15.253z" fill="#3292e0"/><path d="m277.979 163.983c-27.377 33.6-84.516 45.956-100.419 48.82-2.424.437-4.187 2.541-4.187 5.004v30.309 9.152c0 45.633 36.993 82.626 82.626 82.626h.001c45.633 0 82.626-36.993 82.626-82.626v-9.152-31.112c0-2.077-1.271-3.928-3.193-4.712-25.243-10.296-42.089-35.373-49.112-47.653-1.769-3.092-6.091-3.418-8.342-.656z" fill="#ffe0cc"/><path d="m256 330.742c-45.633 0-82.627-36.993-82.627-82.626v18.304c0 45.633 36.993 82.626 82.626 82.626 45.633 0 82.627-36.993 82.627-82.626v-18.304c.001 45.633-36.993 82.626-82.626 82.626z" fill="#ffceb3"/><path d="m258.017 72.455-61.666-17.826v7.939l9.152 5.151-9.152 5.215v28.793s11.169 16.946 59.537 16.946 59.545-16.946 59.545-16.946v-27.566l-9.152-5.846 9.152-4.629v-7.83c-28.691 8.295-57.416 16.599-57.416 16.599z" fill="#2d4456"/><path d="m258.017 72.455-61.666-17.826v27.304l60.254 17.418c.923.267 1.895.268 2.818.002 6.096-1.762 31.066-8.98 56.011-16.191v-27.305c-28.692 8.294-57.417 16.598-57.417 16.598z" fill="#253847"/><path d="m370.148 90.737c-4.213 0-7.627-3.414-7.627-7.627v-43.07c0-4.212 15.253-4.212 15.253 0v43.071c.001 4.212-3.413 7.626-7.626 7.626z" fill="#ffbe7c"/><path d="m372.266 32.714-112.131-32.415c-1.384-.399-2.852-.399-4.236 0l-112.131 32.415c-3.263.943-5.508 3.931-5.508 7.327s2.246 6.383 5.508 7.327l112.131 32.414c.692.2 1.405.3 2.118.3s1.426-.1 2.118-.3l112.131-32.414c3.262-.943 5.508-3.93 5.508-7.327.001-3.397-2.246-6.384-5.508-7.327z" fill="#405b6c"/></g><g><path d="m215.962 225.532c-4.212 0-7.627 3.414-7.627 7.627v18.523c0 4.213 3.415 7.627 7.627 7.627s7.627-3.414 7.627-7.627v-18.523c0-4.213-3.415-7.627-7.627-7.627z" fill="#2d4456"/><path d="m296.038 259.309c4.212 0 7.627-3.414 7.627-7.627v-18.523c0-4.212-3.415-7.627-7.627-7.627s-7.627 3.414-7.627 7.627v18.523c0 4.213 3.415 7.627 7.627 7.627z" fill="#2d4456"/><path d="m289.666 283.955c3.729-9.535-9.852-15.19-14.039-5.955l-.001-.001c-.16.347-4.087 8.488-17.609 8.488-13.521 0-17.448-8.141-17.609-8.488l-.002.001c-3.626-9.231-18.173-3.188-14.04 5.955.323.783 7.643 17.785 31.65 17.785s31.326-17.001 31.65-17.785z" fill="#ff5876"/></g></g></svg>