<svg id="Layer_1" enable-background="new 0 0 512 512" height="512" viewBox="0 0 512 512" width="512" xmlns="http://www.w3.org/2000/svg"><g><g><path d="m409.065 139.786-25.065-9.29-25.065 9.29v65.757l9.29 9.29h31.549l9.291-9.29z" fill="#86dcff"/><path d="m358.935 205.543h50.13v18.581h-50.13z" fill="#56caed"/><path d="m430.604 258.095h-93.209l-9.29-9.29v-8.706c0-8.823 7.152-15.975 15.975-15.975h79.841c8.823 0 15.975 7.152 15.975 15.975v8.706z" fill="#e4eef9"/><path d="m328.105 267.385 56.145 9.29 55.645-9.29v-18.581h-111.79z" fill="#d5e0f2"/><path d="m55.544 452.917h400.913c11.402 0 20.645-9.243 20.645-20.645v-8.876l-221.102-9.291-221.102 9.29v8.876c0 11.403 9.244 20.646 20.646 20.646z" fill="#2d4456"/><path d="m34.898 404.815v18.58h442.204v-18.58l-221.102-9.291z" fill="#253847"/><path d="m15.484 267.385h481.032c8.552 0 15.484 6.932 15.484 15.484v87.881 9.29c0 8.551-6.932 15.484-15.484 15.484h-481.032c-8.552 0-15.484-6.932-15.484-15.484v-9.29-87.881c0-8.552 6.932-15.484 15.484-15.484z" fill="#e4eef9"/><path d="m496.516 386.234h-481.032c-8.552 0-15.484-6.933-15.484-15.484v18.581c0 8.551 6.932 15.484 15.484 15.484h481.032c8.552 0 15.484-6.933 15.484-15.484v-18.581c0 8.551-6.932 15.484-15.484 15.484z" fill="#d5e0f2"/><path d="m163.097 421.111c94.301 0 94.148-91.245 93.849-94.302-4.667-47.72-44.903-85.01-93.849-85.01-48.826 0-88.985 37.107-93.814 84.659-.322 3.17-.002 94.653 93.814 94.653z" fill="#ffcf4d"/><path d="m163.097 411.82c-48.946 0-89.179-37.291-93.846-85.011-.299 3.057-.456 6.155-.456 9.29 0 52.081 42.22 94.301 94.301 94.301s94.301-42.22 94.301-94.301c0-3.135-.157-6.234-.456-9.29-4.666 47.72-44.898 85.011-93.844 85.011z" fill="#ffb629"/><path d="m163.097 392.165c64.705 0 65.132-62.323 64.7-65.358-4.511-31.694-31.76-56.064-64.7-56.064s-60.189 24.37-64.701 56.064c-.432 3.036-.004 65.358 64.701 65.358z" fill="#86dcff"/><path d="m163.097 382.875c-32.94 0-60.175-24.373-64.687-56.066-.432 3.036-.669 6.135-.669 9.29 0 36.095 29.261 65.356 65.356 65.356s65.356-29.261 65.356-65.356c0-3.155-.236-6.254-.669-9.29-4.512 31.693-31.748 56.066-64.687 56.066z" fill="#56caed"/><path d="m412.024 103.647 15.261 9.29-18.22 26.849h-50.13l-18.221-26.849 15.262-9.29z" fill="#e4eef9"/><path d="m427.285 112.937 12.61-18.581-55.895-9.29-55.895 9.29 12.609 18.581z" fill="#d5e0f2"/><path d="m454.592 85.066h-141.185c-9.74 0-16.667-14.947-14.988-17.647 3.112-5.004 8.661-8.336 14.988-8.336h141.185c6.327 0 11.876 3.331 14.988 8.336 1.679 2.7-5.247 17.647-14.988 17.647z" fill="#86dcff"/><path d="m454.592 75.776h-141.185c-6.327 0-11.859-3.342-14.971-8.346-1.679 2.7-2.666 5.876-2.666 9.29 0 9.74 7.896 17.636 17.637 17.636h141.185c9.741 0 17.637-7.896 17.637-17.636 0-3.414-.986-6.59-2.666-9.29-3.112 5.004-8.644 8.346-14.971 8.346z" fill="#56caed"/></g><g><path d="m75.092 160.167c26.883-14.186 57.252-21.684 87.823-21.684s60.94 7.499 87.823 21.684c3.712 1.983 8.472.585 10.48-3.24 2-3.789.549-8.481-3.24-10.48-29.106-15.36-61.978-23.478-95.063-23.478s-65.956 8.119-95.063 23.478c-3.79 1.999-5.24 6.691-3.24 10.48 1.999 3.79 6.69 5.24 10.48 3.24z" fill="#86dcff"/><path d="m162.915 169.904c-20.499 0-40.865 5.03-58.899 14.548-3.79 1.999-5.24 6.691-3.24 10.48 1.999 3.79 6.69 5.239 10.48 3.24 15.811-8.344 33.675-12.754 51.659-12.754s35.848 4.41 51.659 12.754c3.712 1.983 8.472.585 10.48-3.24 2-3.789.549-8.481-3.24-10.48-18.034-9.518-38.4-14.548-58.899-14.548z" fill="#86dcff"/><g fill="#405b6c"><path d="m339.165 307.676h-26.08c-4.285 0-7.757 3.472-7.757 7.757s3.473 7.757 7.757 7.757h26.08c4.285 0 7.757-3.472 7.757-7.757s-3.472-7.757-7.757-7.757z"/><path d="m397.29 307.676h-26.08c-4.285 0-7.757 3.472-7.757 7.757s3.473 7.757 7.757 7.757h26.08c4.284 0 7.757-3.472 7.757-7.757s-3.472-7.757-7.757-7.757z"/><path d="m455.415 307.676h-26.08c-4.285 0-7.757 3.472-7.757 7.757s3.473 7.757 7.757 7.757h26.08c4.285 0 7.757-3.472 7.757-7.757s-3.473-7.757-7.757-7.757z"/><path d="m339.165 347.22h-26.08c-4.285 0-7.757 3.473-7.757 7.757s3.473 7.757 7.757 7.757h26.08c4.285 0 7.757-3.473 7.757-7.757s-3.472-7.757-7.757-7.757z"/><path d="m397.29 347.22h-26.08c-4.285 0-7.757 3.473-7.757 7.757s3.473 7.757 7.757 7.757h26.08c4.284 0 7.757-3.473 7.757-7.757s-3.472-7.757-7.757-7.757z"/><path d="m455.415 347.22h-26.08c-4.285 0-7.757 3.473-7.757 7.757s3.473 7.757 7.757 7.757h26.08c4.285 0 7.757-3.473 7.757-7.757s-3.473-7.757-7.757-7.757z"/></g></g></g></svg>