<svg id="Layer_1" enable-background="new 0 0 512 512" height="512" viewBox="0 0 512 512" width="512" xmlns="http://www.w3.org/2000/svg"><g><g><path d="m103.701 404.111c-18.976 0-43.589 12.62-43.589 43.589 0 32.889 24.612 43.589 43.589 43.589h319.315v-35.944l-9.174-7.645 9.174-7.645v-35.944z" fill="#e4eef9"/><path d="m70.538 438.526s-10.425 0-10.425 9.174c0 18.976 12.706 43.589 43.589 43.589h319.315v-27.522h-319.316c-15.799-.001-29.137-10.706-33.163-25.241z" fill="#d5e0f2"/><path d="m442.714 502.826h-339.013c-63.832 0-64.14-60.364-63.83-62.919 3.858-31.793 31.012-56.506 63.83-56.506l152.451-9.174 152.148 9.174h34.415c5.158 0 9.705 2.613 12.391 6.588.123.182.242.366.357.554 1.392 2.271-4.495 13.569-12.747 13.569h-339.015c-18.976 0-34.415 24.613-34.415 43.589s15.438 34.415 34.415 34.415h339.013c5.158 0 9.705 2.613 12.391 6.588 1.611 2.384-4.138 14.122-12.391 14.122z" fill="#86dcff"/><g fill="#56caed"><path d="m442.714 496.417h-339.013c-32.816 0-59.951-24.716-63.811-56.508-.31 2.556-.489 5.153-.489 7.791 0 35.455 28.844 64.3 64.3 64.3h339.013c8.253 0 14.943-6.69 14.943-14.943 0-2.859-.817-5.521-2.21-7.792-2.628 4.284-7.34 7.152-12.733 7.152z"/><path d="m442.714 397.703h-339.013c-18.976 0-34.415 15.439-34.415 34.414 0 2.68.318 5.286.9 7.792 3.541-15.234 17.218-26.623 33.514-26.623h339.013c8.253 0 14.943-6.69 14.943-14.943 0-2.859-.817-5.521-2.21-7.792-2.627 4.284-7.339 7.152-12.732 7.152z"/></g><path d="m408.299 275.512c18.976 0 43.589 12.62 43.589 43.589 0 32.889-24.612 43.589-43.589 43.589h-319.315v-35.944l9.174-7.645-9.174-7.645v-35.944z" fill="#e4eef9"/><path d="m441.462 309.927s10.426 0 10.426 9.174c0 18.976-12.706 43.589-43.589 43.589h-319.315v-27.522h319.315c15.799-.001 29.137-10.706 33.163-25.241z" fill="#d5e0f2"/><path d="m69.286 374.226h339.013c63.832 0 64.14-60.364 63.83-62.919-3.858-31.793-31.012-56.506-63.83-56.506h-339.013c-5.158 0-9.705 2.613-12.391 6.588-.123.182-.242.366-.357.554-1.392 2.271 4.495 13.569 12.747 13.569h339.013c18.976 0 34.415 24.613 34.415 43.589s-15.438 34.415-34.415 34.415h-339.012c-5.158 0-9.705 2.613-12.391 6.588-1.611 2.384 4.138 14.122 12.391 14.122z" fill="#ffcf4d"/><g fill="#ffb629"><path d="m69.286 367.817h339.013c32.816 0 59.951-24.716 63.811-56.508.31 2.556.489 5.153.489 7.791 0 35.455-28.844 64.3-64.3 64.3h-339.013c-8.253 0-14.942-6.69-14.942-14.943 0-2.859.817-5.521 2.21-7.792 2.627 4.285 7.339 7.152 12.732 7.152z"/><path d="m69.286 269.103h339.013c18.976 0 34.415 15.439 34.415 34.414 0 2.68-.318 5.286-.901 7.792-3.541-15.234-17.218-26.623-33.514-26.623h-339.013c-8.253 0-14.942-6.69-14.942-14.943 0-2.859.817-5.521 2.21-7.792 2.627 4.285 7.339 7.152 12.732 7.152z"/></g><path d="m88.984 311.456h283.234c4.222 0 7.645 3.422 7.645 7.645s-3.423 7.645-7.645 7.645h-283.234z" fill="#bdcde5"/><path d="m256.151 35.561c54.28 0 101.795 22.769 111.506 67.983 1.172 5.455 1.93 11.137 2.308 16.963 3.874 59.632-32.014 125.12-70.902 125.12-27.215 0-42.912-28.057-42.912-28.057s-15.697 28.057-42.912 28.057c-38.888 0-74.776-65.488-70.902-125.12.378-5.826 1.136-11.508 2.308-16.963 9.712-45.214 57.227-67.983 111.506-67.983z" fill="#ff5876"/><path d="m299.064 236.453c-19.112 0-32.543-13.836-38.848-22.076-2.056-2.687-6.074-2.687-8.129 0-6.304 8.24-19.736 22.076-38.847 22.076-34.979 0-67.523-60.405-70.895-115.945-3.875 59.632 32.006 134.293 70.895 134.293 27.215 0 42.912-28.057 42.912-28.057s15.697 28.057 42.912 28.057c38.888 0 74.77-74.661 70.895-134.293-3.373 55.54-35.916 115.945-70.895 115.945z" fill="#e6485d"/><path d="m244.955 14.219c-18.152-18.152-53.295-12.438-53.295-12.438s-.086.526-.202 1.482c-.838 6.861 1.32 33.953 17.252 49.885 18.152 18.152 50.02 6.152 49.348-4.387-.718-11.258-3.727-25.167-13.103-34.542z" fill="#a0e557"/><path d="m204.825 35.489c-8.801-8.801-12.21-21.404-13.368-32.226-.838 6.847-3.298 35.876 12.64 51.814 18.152 18.152 53.296 12.438 53.296 12.438s1.329-8.219.658-18.754c-5.309.656-36.299 3.654-53.226-13.272z" fill="#87d654"/><path d="m290.926 80.776c0-4.228-3.428-7.656-7.656-7.656-2.957 0-5.517 1.679-6.793 4.133-.281.47-3.771 5.985-13.459 8.09.988-15.529 4.784-49.237 19.344-73.797 2.154-3.632.955-8.322-2.677-10.475-3.631-2.154-8.322-.954-10.475 2.677-16.691 28.154-20.621 65.318-21.545 81.721-10.187-2.002-13.819-7.762-14.092-8.219-1.276-2.452-3.836-4.129-6.791-4.129-4.228 0-7.656 3.428-7.656 7.656 0 1.467.42 2.833 1.135 3.997.694 1.229 3.104 5.034 8.139 8.743 4.908 3.615 13.511 7.924 26.625 7.924s21.717-4.309 26.625-7.924c5.05-3.72 7.46-7.538 8.146-8.755.713-1.163 1.13-2.524 1.13-3.986z" fill="#ffbe7c"/><path d="m423.016 440.055h-283.235c-4.222 0-7.645 3.422-7.645 7.645s3.423 7.645 7.645 7.645h283.234v-15.29z" fill="#bdcde5"/></g></g></svg>