<svg id="Layer_1" enable-background="new 0 0 512 512" height="512" viewBox="0 0 512 512" width="512" xmlns="http://www.w3.org/2000/svg"><g><g><path d="m394.618 438.389v55.03l9.29 9.29h22.037c8.551 0 15.484-6.932 15.484-15.484v-9.29-55.03z" fill="#67b734"/><path d="m425.945 493.419h-31.327v18.581h31.327c8.551 0 15.484-6.932 15.484-15.484v-18.581c0 8.552-6.933 15.484-15.484 15.484z" fill="#549e25"/><path d="m394.618 438.389-138.618-9.29-128.382 9.29h-20.242c-17.118 0-31.506 11.685-35.623 27.514-.772 2.968 5.003 36.806 35.623 36.806h277.951l9.29-9.29v-10.482l-9.29-7.742 9.29-7.742v-29.064z" fill="#e4eef9"/><path d="m71.756 465.904c-.772 2.968-1.185 6.081-1.185 9.29 0 20.327 16.478 36.805 36.805 36.805h287.242v-18.581h-287.242c-17.117.001-31.503-11.685-35.62-27.514z" fill="#d5e0f2"/><path d="m89.152 46.452v363.71l18.225 18.937h318.569c15.484 0 15.484-24.774 15.484-24.774v-388.841c-.001-8.552-6.934-15.484-15.485-15.484h-298.327z" fill="#a0e557"/><path d="m425.945 419.809h-318.569c-20.327 0-36.805 16.478-36.805 36.805v18.581c0-20.327 16.478-36.805 36.805-36.805h318.569c8.551 0 15.484-6.933 15.484-15.484v-18.581c0 8.551-6.933 15.484-15.484 15.484z" fill="#87d654"/><path d="m379.562 175.615h-190.226c-5.701 0-10.323-4.622-10.323-10.323v-9.29-66.923c0-5.701 4.622-10.323 10.323-10.323h190.225c5.701 0 10.323 4.622 10.323 10.323v66.922 9.29c0 5.702-4.621 10.324-10.322 10.324z" fill="#f2fdff"/><path d="m379.562 166.324h-190.226c-5.701 0-10.323-4.622-10.323-10.323v18.581c0 5.701 4.622 10.323 10.323 10.323h190.225c5.701 0 10.323-4.622 10.323-10.323v-18.581c0 5.701-4.621 10.323-10.322 10.323z" fill="#d3ecf5"/><path d="m127.618 0h-20.246c-20.325 0-36.801 16.476-36.801 36.801v419.813 18.581c0-20.327 16.478-46.096 36.805-46.096h10.952l9.29-9.29z" fill="#ff5876"/><path d="m70.571 456.614v18.581c0-20.327 16.478-36.805 36.805-36.805h20.242v-9.29-9.29h-20.242c-20.327-.001-36.805 16.477-36.805 36.804z" fill="#e6485d"/><path d="m394.618 467.453h-267c-4.276 0-7.742 3.466-7.742 7.742s3.466 7.742 7.742 7.742h266.999v-15.484z" fill="#bdcde5"/></g></g></svg>