<svg id="Layer_1" enable-background="new 0 0 512 512" height="512" viewBox="0 0 512 512" width="512" xmlns="http://www.w3.org/2000/svg"><g><g><path d="m256 439.516c-4.276 0-7.742-3.466-7.742-7.742v-51.331c0-4.276 3.466-7.742 7.742-7.742s7.742 3.466 7.742 7.742v51.331c0 4.276-3.466 7.742-7.742 7.742z" fill="#ea9d57"/><path d="m278.19 446.533c-3.634-8.67-12.201-14.76-22.19-14.76-9.962 0-18.51 6.057-22.161 14.689-1.217 2.877-.1 24.122 22.161 24.122 22.287.001 23.388-21.192 22.19-24.051z" fill="#ff5876"/><path d="m256 461.294c-9.989 0-18.554-6.091-22.189-14.76-1.198 2.858-1.862 5.997-1.862 9.29 0 13.283 10.768 24.051 24.051 24.051s24.051-10.768 24.051-24.051c0-3.294-.664-6.432-1.862-9.29-3.635 8.67-12.2 14.76-22.189 14.76z" fill="#e6485d"/><path d="m41.077 371.153h429.845c8.552 0 15.484-6.932 15.484-15.484v-9.29-251.918l-9.29-9.29h-442.232l-9.29 9.29v251.918 9.29c0 8.552 6.932 15.484 15.483 15.484z" fill="#f2fdff"/><path d="m470.923 361.863h-429.846c-8.552 0-15.484-6.932-15.484-15.484v18.581c0 8.551 6.932 15.484 15.484 15.484h429.845c8.552 0 15.484-6.932 15.484-15.484v-18.581c0 8.552-6.932 15.484-15.483 15.484z" fill="#d3ecf5"/><path d="m25.594 75.881v18.58h460.812v-18.58l-230.406-9.291z" fill="#d3ecf5"/><g fill="#86dcff"><path d="m279.892 151.983v47.637l41.255 23.819 41.255-23.819v-47.637l-41.255-23.819z"/><path d="m197.382 151.983v47.637l41.255 23.819 41.255-23.819v-47.637l-41.255-23.819z"/><path d="m321.147 223.426v47.638l41.255 23.819 41.256-23.819v-47.638l-41.256-23.818z"/></g><path d="m10.323 32.125h491.355c5.701 0 10.323 4.622 10.323 10.323v4.53 9.291c0 5.701-4.622 10.323-10.323 10.323h-491.355c-5.701-.001-10.323-4.623-10.323-10.324v-9.291-4.53c0-5.7 4.622-10.322 10.323-10.322z" fill="#ff5876"/><path d="m501.677 57.3h-491.354c-5.701 0-10.323-4.621-10.323-10.322v18.581c0 5.701 4.622 10.323 10.323 10.323h491.355c5.701 0 10.323-4.621 10.323-10.323v-18.581c-.001 5.701-4.623 10.322-10.324 10.322z" fill="#e6485d"/></g><g fill="#405b6c"><path d="m222.924 158.174c-4.285 0-7.757 3.473-7.757 7.757v21.775c0 4.285 3.472 7.757 7.757 7.757s7.757-3.472 7.757-7.757v-21.775c0-4.285-3.472-7.757-7.757-7.757z"/><path d="m233.563 270.223h-148.672c-4.285 0-7.757 3.473-7.757 7.757 0 4.285 3.473 7.757 7.757 7.757h148.672c4.285 0 7.757-3.472 7.757-7.757 0-4.284-3.472-7.757-7.757-7.757z"/><path d="m154.572 135.702h-69.681c-4.285 0-7.757 3.473-7.757 7.757 0 4.285 3.473 7.757 7.757 7.757h69.681c4.285 0 7.757-3.473 7.757-7.757 0-4.285-3.472-7.757-7.757-7.757z"/><path d="m84.891 196.056h69.681c4.285 0 7.757-3.473 7.757-7.757 0-4.285-3.472-7.757-7.757-7.757h-69.681c-4.285 0-7.757 3.473-7.757 7.757-.001 4.285 3.472 7.757 7.757 7.757z"/><path d="m84.891 240.897h69.681c4.285 0 7.757-3.473 7.757-7.757 0-4.285-3.472-7.757-7.757-7.757h-69.681c-4.285 0-7.757 3.472-7.757 7.757-.001 4.284 3.472 7.757 7.757 7.757z"/><path d="m233.563 315.064h-148.672c-4.285 0-7.757 3.473-7.757 7.757s3.473 7.757 7.757 7.757h148.672c4.285 0 7.757-3.472 7.757-7.757s-3.472-7.757-7.757-7.757z"/><path d="m403.963 280.041 28.601 16.373c1.216.696 2.54 1.026 3.847 1.026 2.691 0 5.307-1.402 6.739-3.904 2.128-3.719.84-8.458-2.878-10.586l-28.569-16.354v-38.722l28.568-16.353c3.718-2.128 5.007-6.867 2.879-10.585s-6.868-5.007-10.585-2.879l-28.59 16.366-33.607-19.403v-43.24c0-2.771-1.479-5.332-3.878-6.718l-41.336-23.865c-2.4-1.386-5.357-1.386-7.757 0l-37.457 21.626-37.457-21.626c-2.4-1.386-5.357-1.386-7.757 0l-41.337 23.865c-2.4 1.386-3.879 3.946-3.879 6.718v47.731c0 2.772 1.479 5.332 3.879 6.718l41.337 23.865c2.4 1.386 5.357 1.386 7.757 0l37.457-21.626 33.579 19.387v43.239c0 2.772 1.479 5.332 3.878 6.718l37.457 21.627v28.864c0 4.285 3.473 7.757 7.757 7.757s7.757-3.473 7.757-7.757v-28.864zm-82.688-143.17 33.579 19.387v38.761l-33.59 19.393-33.567-19.38v-38.774zm-49.093 58.161-33.579 19.387-33.58-19.387v-38.774l33.58-19.387 33.579 19.387zm56.85 32.809 33.579-19.387 33.579 19.387v38.773l-33.579 19.388-33.579-19.388z"/></g></g></svg>