<svg id="Layer_1" enable-background="new 0 0 512 512" height="512" viewBox="0 0 512 512" width="512" xmlns="http://www.w3.org/2000/svg"><g><g><path d="m506.624 484.396h-500.895c-2.844 0-5.152-2.3-5.161-5.144l-.528-159.238 5.127-6.662s12.737 21.27 46.041 21.27 51.208-26.629 51.208-26.629 17.903 26.629 51.208 26.629c33.304 0 51.169-26.629 51.169-26.629s17.903 26.629 51.208 26.629 51.208-26.629 51.208-26.629 17.903 26.629 51.208 26.629 51.169-26.629 51.169-26.629 17.903 26.629 51.208 26.629c33.304 0 41.917-26.629 41.917-26.629l8.055 10.826c.663.891 1.021 1.971 1.021 3.081v157.335c-.001 2.85-2.312 5.161-5.163 5.161z" fill="#86dcff"/><path d="m9.29 319.641s8.613 14.981 41.917 14.981 51.208-26.629 51.208-26.629 17.903 26.629 51.208 26.629c33.304 0 51.169-26.629 51.169-26.629s17.903 26.629 51.208 26.629 51.208-26.629 51.208-26.629 17.903 26.629 51.208 26.629 51.169-26.629 51.169-26.629 17.903 26.629 51.208 26.629c33.304 0 41.917-17.339 41.917-17.339l9.29-18.581v-115.781c0-2.85-2.311-5.161-5.161-5.161h-64.841l-17.527-9.29-17.527 9.29h-134.753l-16.149-9.29-18.905 9.29h-231.414c-2.841 0-5.148 2.297-5.161 5.138l-.479 118.282z" fill="#ffbe7c"/><path d="m146.728 259.429-9.291-9.291-9.29-9.334 9.29-9.245h134.754l9.29 8.494-9.29 10.085-9.291 9.291z" fill="#e4eef9"/><path d="m137.437 268.719h134.754l9.29-9.29-9.29-9.291h-134.754l-9.29 9.291z" fill="#d5e0f2"/><path d="m357.931 27.608c-47.198-.457-85.74 37.804-85.74 84.899v219.902c22.872-6.38 35.017-24.416 35.017-24.416s.02.029.037.054v-194.655c0-27.894 22.827-51.205 50.718-50.726 27.089.464 48.982 22.644 48.982 49.842v46.664l17.527 9.29 17.527-9.29v-45.58c-.001-46.745-37.326-85.531-84.068-85.984z" fill="#d5e0f2"/><path d="m406.944 159.171h35.054v18.581h-35.054z" fill="#bdcde5"/><path d="m188.124 27.608c-47.199-.457-85.74 37.804-85.74 84.899v195.533c.013-.019.032-.047.032-.047s12.146 18.039 35.022 24.418v-219.019c0-27.894 22.827-51.205 50.717-50.726 27.089.464 48.982 22.644 48.982 49.842v46.664l17.527 9.29 17.527-9.29v-45.58c0-46.745-37.326-85.531-84.067-85.984z" fill="#e4eef9"/><path d="m237.137 159.171h35.054v18.581h-35.054z" fill="#d5e0f2"/><g fill="#41adf7"><path d="m512 294.699s-4.908 6.757-6.408 8.95c-.648.948-16.214 23.232-44.799 23.232-28.586 0-44.151-22.283-44.783-23.207-1.438-2.139-3.847-3.422-6.424-3.422-.001 0-.003 0-.004 0-2.579.001-4.988 1.287-6.425 3.428-.155.232-15.898 23.201-44.74 23.201-28.586 0-44.151-22.283-44.783-23.207-1.432-2.13-3.836-3.399-6.403-3.409-.01 0-.019 0-.029 0-2.556 0-4.957 1.274-6.4 3.384-.648.948-16.214 23.232-44.799 23.232s-44.151-22.283-44.783-23.207c-1.432-2.131-3.838-3.4-6.406-3.409-.009 0-.018 0-.026 0-2.559 0-4.962 1.276-6.404 3.391-.647.948-16.176 23.225-44.757 23.225-28.586 0-44.151-22.283-44.783-23.207-1.431-2.13-3.836-3.399-6.403-3.409-.01 0-.019 0-.029 0-2.557 0-4.957 1.274-6.4 3.384-.648.948-16.214 23.232-44.799 23.232-28.586 0-44.151-22.283-44.783-23.207-1.486-2.21-6.39-8.991-6.39-8.991l-.04 13.31.04 12.021c8.662 8.916 25.903 22.35 51.168 22.35 25.297 0 42.556-13.472 51.208-22.387 8.651 8.915 25.91 22.387 51.208 22.387 25.291 0 42.53-13.465 51.174-22.383 8.653 8.916 25.91 22.383 51.203 22.383 25.297 0 42.556-13.472 51.208-22.387 8.651 8.915 25.91 22.387 51.208 22.387 25.291 0 42.53-13.465 51.174-22.383 8.653 8.916 25.91 22.383 51.203 22.383 25.101 0 42.276-13.258 50.993-22.174l.213-12.197z"/><path d="m409.623 436.937c-25.297 0-42.556-13.472-51.208-22.387-8.651 8.915-25.91 22.387-51.208 22.387-25.292 0-42.549-13.467-51.203-22.383-8.644 8.918-25.883 22.383-51.174 22.383-25.297 0-42.556-13.472-51.208-22.387-8.651 8.915-25.91 22.387-51.208 22.387-37.003 0-56.807-28.825-57.632-30.051-2.386-3.548-1.444-8.359 2.105-10.744 3.547-2.386 8.358-1.445 10.744 2.105.632.923 16.197 23.207 44.783 23.207s44.151-22.283 44.799-23.232c1.444-2.11 3.844-3.384 6.4-3.384h.03c2.566.01 4.971 1.279 6.402 3.409.632.923 16.198 23.207 44.783 23.207 28.581 0 44.11-22.277 44.757-23.225 1.442-2.115 3.846-3.391 6.403-3.391h.027c2.569.009 4.974 1.278 6.406 3.409.632.923 16.198 23.207 44.783 23.207 28.586 0 44.151-22.283 44.799-23.232 1.443-2.11 3.844-3.384 6.4-3.384h.03c2.566.01 4.971 1.279 6.402 3.409.632.923 16.198 23.207 44.783 23.207 28.581 0 44.11-22.277 44.757-23.225 2.404-3.521 7.212-4.451 10.742-2.061 3.531 2.389 4.475 7.171 2.1 10.713-.819 1.225-20.586 30.056-57.594 30.056z"/></g></g></g></svg>