<svg id="Layer_1" enable-background="new 0 0 512 512" height="512" viewBox="0 0 512 512" width="512" xmlns="http://www.w3.org/2000/svg"><g><g><path d="m491.355 403.781h-470.71c-11.402 0-20.645-9.243-20.645-20.645v-9.29-310.124c0-11.402 9.243-20.645 20.645-20.645h470.71c11.402 0 20.645 9.243 20.645 20.645v310.124 9.29c0 11.402-9.243 20.645-20.645 20.645z" fill="#86dcff"/><path d="m491.355 394.491h-470.71c-11.402 0-20.645-9.244-20.645-20.645v18.581c0 11.402 9.243 20.645 20.645 20.645h470.71c11.402 0 20.645-9.243 20.645-20.645v-18.581c0 11.401-9.243 20.645-20.645 20.645z" fill="#56caed"/><path d="m473.993 343.472v-230.795c-17.448 0-31.592-14.144-31.592-31.592h-372.801c0 17.448-14.144 31.592-31.592 31.592v230.795c10.501 0 19.806 5.124 25.55 13.008l24.623 9.294h335.64l24.622-9.294c5.744-7.885 15.048-13.008 25.55-13.008z" fill="#f2fdff"/><path d="m63.552 356.483c3.8 5.215 6.048 11.634 6.048 18.581h372.8c0-6.947 2.248-13.365 6.048-18.581z" fill="#d3ecf5"/><path d="m222.545 421.531v42.224c0 3.792 3.951 6.289 7.376 4.662l23.865-11.336c1.401-.666 3.028-.666 4.429 0l23.865 11.336c3.425 1.627 7.376-.871 7.376-4.662v-42.224z" fill="#ffcf4d"/><path d="m222.545 402.951v18.581c9.571 6.402 21.076 10.141 33.455 10.141 12.38 0 23.884-3.738 33.455-10.141v-18.581z" fill="#ffb629"/><path d="m315.543 343.546c-4.468-28.867-29.425-50.964-59.543-50.964s-55.075 22.097-59.543 50.964c-.469 3.028-.006 60.255 59.543 60.255s60.012-57.227 59.543-60.255z" fill="#ff5876"/><path d="m256 394.511c-30.118 0-55.072-22.098-59.54-50.964-.469 3.029-.715 6.131-.715 9.29 0 33.278 26.977 60.254 60.255 60.254s60.255-26.977 60.255-60.254c0-3.16-.246-6.262-.715-9.29-4.468 28.866-29.422 50.964-59.54 50.964z" fill="#e6485d"/><path d="m284.732 343.89c-3.809-12.247-15.232-21.139-28.732-21.139-13.373 0-24.707 8.725-28.622 20.793-.949 2.926-.049 30.087 28.622 30.087 28.775 0 29.611-26.914 28.732-29.741z" fill="#ffcf4d"/><path d="m256 364.341c-13.372 0-24.701-8.727-28.616-20.795-.95 2.927-1.469 6.047-1.469 9.29 0 16.615 13.47 30.085 30.085 30.085s30.085-13.47 30.085-30.085c0-3.243-.519-6.364-1.469-9.29-3.915 12.068-15.244 20.795-28.616 20.795z" fill="#ffb629"/></g><g fill="#405b6c"><path d="m321.44 157.364c4.284 0 7.757-3.473 7.757-7.757 0-4.285-3.473-7.757-7.757-7.757h-130.88c-4.284 0-7.757 3.473-7.757 7.757 0 4.285 3.473 7.757 7.757 7.757z"/><path d="m83.966 200.032c0 4.285 3.473 7.757 7.757 7.757h328.554c4.284 0 7.757-3.472 7.757-7.757s-3.473-7.757-7.757-7.757h-328.554c-4.284 0-7.757 3.472-7.757 7.757z"/><path d="m138.265 242.701c-4.284 0-7.757 3.472-7.757 7.757s3.473 7.757 7.757 7.757h235.469c4.284 0 7.757-3.472 7.757-7.757s-3.473-7.757-7.757-7.757z"/></g></g></svg>