<svg id="Layer_1" enable-background="new 0 0 512 512" height="512" viewBox="0 0 512 512" width="512" xmlns="http://www.w3.org/2000/svg"><g><g><path d="m378.858 502.848h-245.716l-9.152-9.152v-51.997c0-37.353 20.117-70.008 50.108-87.72h163.804c29.991 17.713 50.108 50.367 50.108 87.72v51.997z" fill="#86dcff"/><path d="m129.075 512h39.443l7.627-9.152 7.627 9.152h64.603l7.626-9.152 7.627 9.152h64.603l7.627-9.152 7.627 9.152h39.443c2.808 0 5.084-2.276 5.084-5.084v-13.219h-264.022v13.219c0 2.808 2.277 5.084 5.085 5.084z" fill="#56caed"/><path d="m259.863 436.016 67.287-78.624-.146-8.986c-12.49-5.472-26.289-8.512-40.799-8.512h-60.41c-14.51 0-28.308 3.039-40.799 8.512l.072 9.241 67.069 78.368c2.029 2.372 5.696 2.372 7.726.001z" fill="#ffcf4d"/><path d="m256 502.848 7.627-9.152v-52.929l74.273-86.781c-.004-.002-.007-.006-.011-.008h-.003c-3.502-2.07-7.136-3.917-10.882-5.562v-.01c-1.881-.824-3.795-1.586-5.733-2.298l-61.406 71.758c-2.034 2.369-5.695 2.369-7.728 0l-61.406-71.758c-1.938.712-3.852 1.473-5.733 2.298v.01c-3.746 1.645-7.38 3.492-10.882 5.562h-.003c-.004.002-.007.006-.011.008l74.273 86.781v52.929z" fill="#ffb629"/><path d="m248.373 493.696h15.253v18.304h-15.253z" fill="#ff9517"/><path d="m288.221 339.894-28.161 37.376c-2.034 2.7-6.088 2.7-8.122 0l-28.161-37.376z" fill="#f2fdff"/><path d="m182.525 252.738-9.152-19.434c-.937-.096-1.887-.146-2.849-.146-12.007 0-22.22 7.681-25.994 18.397 0 0-1.557 19.674 22.247 27.059l6.663-8.813z" fill="#ffc4ad"/><path d="m170.524 269.957c-12.007 0-22.214-7.683-25.988-18.399-1.009 2.864-1.563 5.943-1.563 9.152 0 15.216 12.335 27.551 27.551 27.551 1.925 0 3.803-.199 5.617-.575l2.914-9.398-5.606-8.487c-.961.101-1.936.156-2.925.156z" fill="#ffb69f"/><path d="m329.475 252.738 9.152-19.434c.937-.096 1.887-.146 2.849-.146 12.007 0 22.22 7.681 25.994 18.397 0 0 1.557 19.674-22.248 27.059l-6.663-8.813z" fill="#ffc4ad"/><path d="m341.475 269.957c12.007 0 22.214-7.683 25.988-18.399 1.009 2.864 1.563 5.943 1.563 9.152 0 15.216-12.335 27.551-27.551 27.551-1.925 0-3.803-.199-5.617-.575l-2.914-9.398 5.606-8.487c.962.101 1.937.156 2.925.156z" fill="#ffb69f"/><path d="m173.373 148.474v99.643 9.152c0 45.633 36.993 82.626 82.626 82.626 45.633 0 82.627-36.993 82.627-82.626v-9.152-99.643z" fill="#ffe0cc"/><path d="m256 330.742c-45.633 0-82.627-36.993-82.627-82.626v18.304c0 45.633 36.993 82.626 82.626 82.626 45.633 0 82.627-36.993 82.627-82.626v-18.304c0 45.633-36.993 82.626-82.626 82.626z" fill="#ffceb3"/><path d="m338.256 192.532c-16.375-9.385-31.195-29.204-31.195-29.204-19.973 17.454-41.078 23.21-41.078 23.21l-17.584-19.503c-29.805 21.891-63.531 25.312-72.813 25.081-1.411-.035-2.808-.265-4.161-.679-21.629-6.62-26.916-15.862-26.916-15.862l.558-9.522c19.371-4.506 26.247-17.909 26.247-17.909-22.54.682-30.286-15.501-32.895-25.122-.902-3.327 1.8-6.496 5.239-6.255 42.693 2.997 53.36-23.483 93.913-35.46 42.543-12.565 72.665 19.885 72.665 19.885s43.116-4.163 46.816 39.792c3.536 42.012-18.796 51.548-18.796 51.548" fill="#ff9517"/><g fill="#ef7f0f"><path d="m249.433 160.893c.584-4.709-5.081-7.577-8.543-4.333-26.275 24.614-56.844 26.614-65.304 26.403-1.411-.035-2.808-.265-4.161-.679-9.503-2.909-18.729-9.653-26.089-16.301-1.814.432-3.737.787-5.776 1.046-4.096.52-5.844 5.503-3.038 8.532 7.746 8.362 21.032 20.781 34.903 25.027 1.353.414 2.749.644 4.161.679 9.282.231 45.174-2.199 72.813-34.232.479-2.319.812-4.355 1.034-6.142z"/><path d="m357.016 140.627c-1.986 20.713-10.532 32.8-15.246 38.011-1.727 1.909-4.619 2.267-6.7.751-9.867-7.189-18.906-19.851-23.915-27.635-1.893-2.942-6.069-3.077-8.258-.349-18.066 22.522-54.498 15.63-54.498 15.63s8.762 10.729 9.103 23.513c.087 3.272 3.096 5.658 6.277 4.888 10.818-2.619 31.875-10.354 43.281-32.108 0 0 13.048 23.459 27.998 34.358 2.079 1.516 4.977 1.173 6.704-.735 5.961-6.585 18.065-24.178 15.258-56.324-.014 0 .011 0-.004 0z"/></g><path d="m258.017 72.455-61.666-17.826v7.939l9.152 5.151-9.152 5.215v28.793s11.169 16.946 59.537 16.946 59.545-16.946 59.545-16.946v-27.566l-9.152-5.846 9.152-4.629v-7.83c-28.691 8.295-57.416 16.599-57.416 16.599z" fill="#2d4456"/><path d="m258.017 72.455-61.666-17.826v27.304l60.254 17.418c.922.267 1.895.268 2.818.002 6.096-1.762 31.066-8.98 56.011-16.191v-27.305c-28.692 8.294-57.417 16.598-57.417 16.598z" fill="#253847"/><path d="m370.148 90.737c-4.212 0-7.627-3.414-7.627-7.627v-43.07c0-4.212 15.253-4.212 15.253 0v43.071c.001 4.212-3.413 7.626-7.626 7.626z" fill="#ffbe7c"/><path d="m372.266 32.714-112.131-32.415c-1.384-.399-2.852-.399-4.236 0l-112.131 32.415c-3.263.943-5.508 3.931-5.508 7.327s2.246 6.383 5.508 7.327l112.131 32.414c.692.2 1.405.3 2.118.3s1.426-.1 2.118-.3l112.131-32.414c3.262-.943 5.508-3.93 5.508-7.327.001-3.397-2.246-6.384-5.508-7.327z" fill="#405b6c"/><g fill="#4ea1f4"><path d="m183.771 470.023v23.673l-7.627 9.152-7.627-9.152v-23.673c0-4.22 3.417-7.627 7.627-7.627 4.21.001 7.627 3.407 7.627 7.627z"/><path d="m343.482 470.023v23.673l-7.627 9.152-7.627-9.152v-23.673c0-4.22 3.417-7.627 7.627-7.627 4.211.001 7.627 3.407 7.627 7.627z"/></g><g fill="#3292e0"><path d="m168.518 493.696h15.253v18.304h-15.253z"/><path d="m328.229 493.696h15.253v18.304h-15.253z"/></g></g><g><path d="m215.884 225.447c-4.22 0-7.642 3.421-7.642 7.641v18.56c0 4.221 3.421 7.642 7.642 7.642 4.22 0 7.641-3.421 7.641-7.642v-18.56c0-4.22-3.421-7.641-7.641-7.641z" fill="#2d4456"/><path d="m296.116 259.29c4.221 0 7.642-3.421 7.642-7.642v-18.56c0-4.221-3.421-7.641-7.642-7.641s-7.642 3.421-7.642 7.641v18.56c0 4.221 3.421 7.642 7.642 7.642z" fill="#2d4456"/><path d="m287.695 283.955c3.729-9.535-9.852-15.19-14.039-5.955l-.001-.001c-.16.347-4.087 8.488-17.609 8.488-13.521 0-17.448-8.141-17.609-8.488l-.002.001c-3.626-9.231-18.172-3.188-14.039 5.955.323.783 7.643 17.785 31.65 17.785 24.006 0 31.325-17.001 31.649-17.785z" fill="#ff5876"/></g></g></svg>