<svg id="Layer_1" enable-background="new 0 0 512 512" height="512" viewBox="0 0 512 512" width="512" xmlns="http://www.w3.org/2000/svg"><g><g><path d="m499.116 236.096 10.828-12.689c-7.411-58.323-34.446-110.521-74.277-149.767l-20.304-2.032-3.406-18.633c-39.356-30.279-87.767-49.37-140.472-52.514l-15.485 11.065-15.485-11.065c-52.705 3.144-101.116 22.235-140.473 52.513l-1.047 23.258-22.662-2.593c-39.832 39.246-66.866 91.445-74.278 149.767l10.387 11.928-10.214 54.413c16.594 124.075 123.887 212.963 253.772 212.963s237.177-88.887 253.772-212.962z" fill="#ff9517"/><path d="m397.382 121.482c4.023-8.995 9.427-17.718 16.233-26.123 8.159-10.076 16.566-17.414 22.042-21.709-7.468-7.358-15.387-14.259-23.71-20.662-12.496 10.53-30.911 29.204-42.732 55.484-30.68-12.326-63.626-19.748-97.732-21.481v-86.511c-5.123-.306-10.282-.48-15.483-.48s-10.36.174-15.484.48v86.512c-34.106 1.733-67.052 9.155-97.732 21.481-11.821-26.28-30.235-44.954-42.732-55.484-8.322 6.402-16.24 13.303-23.709 20.661 5.476 4.295 13.883 11.633 22.042 21.709 6.806 8.405 12.21 17.128 16.233 26.123-45.204 23.763-84.097 58.729-112.562 101.924-.967 7.608-1.6 15.32-1.883 23.12-.114 3.144.099 6.302.099 9.473 0 11.441 2.483 30.006 2.483 30.006l1.592-1.462c24.028-57.052 66.278-103.106 118.481-132.285.434 4.528.558 9.107.356 13.735-1.086 24.953-8.836 50.381-17.809 79.823-14.931 48.99-32.911 108.013-29.016 192.548 10.234 10.083 21.312 19.308 33.12 27.565-9.764-95.276 9.682-159.121 25.519-211.085 9.189-30.15 17.868-58.628 19.125-87.505.451-10.364-.333-20.11-2.028-29.237 27.712-11.416 57.529-18.359 88.423-20.107v393.525c5.122.306 10.281.48 15.482.48s10.36-.174 15.484-.48v-393.524c30.894 1.748 60.711 8.691 88.423 20.107-1.695 9.127-2.479 18.873-2.028 29.237 1.257 28.876 9.936 57.354 19.125 87.505 15.837 51.964 35.283 115.809 25.518 211.085 11.808-8.257 22.886-17.483 33.12-27.565 3.895-84.535-14.085-143.558-29.016-192.548-8.973-29.443-16.723-54.87-17.809-79.823-.201-4.628-.078-9.207.356-13.735 52.202 29.179 94.452 75.233 118.481 132.285l1.548 1.417s2.537-18.519 2.537-29.96c0-3.172.203-6.33.089-9.473-.284-7.801-.917-15.513-1.883-23.12-28.466-43.197-67.359-78.163-112.563-101.926z" fill="#f2fdff"/><g fill="#ef7f0f"><path d="m404.152 446.191c-37.876 26.931-83.391 43.807-132.668 46.749l-8.136 9.77 8.136 8.811c48.57-2.898 93.487-19.333 131.038-45.591l8.149-13.331z"/><path d="m109.478 465.929c37.551 26.258 82.468 42.693 131.038 45.591l8.885-8.811-8.885-9.77c-49.277-2.941-94.792-19.817-132.668-46.749l-5.46 7.504z"/><path d="m76.358 438.364 5.245-5.756-5.753-13.342c-36.22-35.891-61.786-82.516-71.5-134.721h-1.146s-.989 5.195-.987 5.204c0-.003-.001-.005-.001-.008 7.619 57.865 34.565 109.633 74.142 148.623z"/><path d="m507.65 284.545c-9.714 52.206-35.28 98.831-71.5 134.721l-5.14 15.186 4.632 3.911c39.575-38.988 66.52-90.753 74.141-148.615l-.582-3.788z"/></g><g fill="#d5e0f2"><path d="m256 493.414c-5.201 0-10.36-.174-15.484-.479v18.586c5.124.305 10.283.479 15.484.479s10.36-.174 15.484-.48v-18.586c-5.124.306-10.283.48-15.484.48z"/><path d="m75.85 419.282c.052 6.22.207 12.566.508 19.082 10.234 10.083 21.312 19.309 33.12 27.565-.69-6.732-1.219-13.29-1.629-19.715-11.396-8.101-22.092-17.118-31.999-26.932z"/><path d="m.179 246.527c-.115 3.144-.179 6.301-.179 9.473 0 11.441.762 22.704 2.217 33.748.692-1.743 1.405-3.475 2.131-5.198-2.306-12.384-3.716-25.081-4.169-38.023z"/><path d="m507.653 284.551c.726 1.723 1.438 3.455 2.13 5.198 1.455-11.045 2.217-22.307 2.217-33.749 0-3.172-.065-6.329-.179-9.473-.453 12.942-1.863 25.639-4.168 38.024z"/><path d="m404.151 446.214c-.41 6.425-.939 12.983-1.629 19.715 11.808-8.257 22.886-17.483 33.12-27.565.3-6.516.456-12.862.508-19.082-9.907 9.814-20.603 18.831-31.999 26.932z"/></g></g></g></svg>