<svg id="Capa_1" enable-background="new 0 0 510 510" height="512" viewBox="0 0 510 510" width="512" xmlns="http://www.w3.org/2000/svg" xmlns:xlink="http://www.w3.org/1999/xlink"><linearGradient id="SVGID_1_" gradientTransform="matrix(1 0 0 -1 0 512)" gradientUnits="userSpaceOnUse" x1="147.816" x2="434.297" y1="398.11" y2="111.628"><stop offset="0" stop-color="#ffb5b0"/><stop offset="1" stop-color="#ff70ac"/></linearGradient><linearGradient id="lg1"><stop offset="0" stop-color="#ffb5b0" stop-opacity="0"/><stop offset="1" stop-color="#ff70ac"/></linearGradient><linearGradient id="SVGID_2_" gradientTransform="matrix(1 0 0 -1 0 512)" gradientUnits="userSpaceOnUse" x1="343.052" x2="355.59" xlink:href="#lg1" y1="302.006" y2="169.316"/><linearGradient id="lg2"><stop offset="0" stop-color="#e9edf5" stop-opacity="0"/><stop offset="1" stop-color="#fff"/></linearGradient><linearGradient id="SVGID_3_" gradientTransform="matrix(1 0 0 -1 0 512)" gradientUnits="userSpaceOnUse" x1="180.893" x2="84.07" xlink:href="#lg2" y1="378.349" y2="471.69"/><linearGradient id="lg3"><stop offset="0" stop-color="#ffb5b0" stop-opacity="0"/><stop offset=".0454" stop-color="#ffafb0" stop-opacity=".045"/><stop offset=".2799" stop-color="#ff93ae" stop-opacity=".28"/><stop offset=".5169" stop-color="#ff80ad" stop-opacity=".517"/><stop offset=".7559" stop-color="#ff74ac" stop-opacity=".756"/><stop offset="1" stop-color="#ff70ac"/></linearGradient><linearGradient id="SVGID_4_" gradientTransform="matrix(1 0 0 -1 0 512)" gradientUnits="userSpaceOnUse" x1="217.48" x2="268.33" xlink:href="#lg3" y1="428.853" y2="530.553"/><linearGradient id="SVGID_5_" gradientTransform="matrix(1 0 0 -1 0 512)" gradientUnits="userSpaceOnUse" x1="320.013" x2="396.285" xlink:href="#lg3" y1="376.622" y2="513.492"/><linearGradient id="SVGID_6_" gradientTransform="matrix(-.707 .707 .707 .707 551.455 3568.131)" gradientUnits="userSpaceOnUse" x1="-2189.406" x2="-2138.556" xlink:href="#lg3" y1="-2673.581" y2="-2571.882"/><linearGradient id="SVGID_7_" gradientTransform="matrix(.707 .707 -.707 .707 -1078.806 3568.131)" gradientUnits="userSpaceOnUse" x1="-1455.465" x2="-1404.615" xlink:href="#lg3" y1="-3407.519" y2="-3305.819"/><linearGradient id="SVGID_8_" gradientTransform="matrix(.707 -.707 -.707 -.707 -1205.455 1108.263)" gradientUnits="userSpaceOnUse" x1="1644.461" x2="1695.311" xlink:href="#lg3" y1="-486.722" y2="-385.022"/><linearGradient id="SVGID_9_" gradientTransform="matrix(-.707 -.707 .707 -.707 424.806 1108.263)" gradientUnits="userSpaceOnUse" x1="731.409" x2="782.259" xlink:href="#lg3" y1="426.326" y2="528.025"/><linearGradient id="SVGID_10_" gradientTransform="matrix(1 0 0 -1 0 512)" gradientUnits="userSpaceOnUse" x1="183.162" x2="117.684" xlink:href="#lg1" y1="300.555" y2="165.419"/><linearGradient id="SVGID_11_" gradientTransform="matrix(1 0 0 -1 0 512)" gradientUnits="userSpaceOnUse" x1="139.814" x2="-110.94" xlink:href="#lg2" y1="272.138" y2="419.456"/><linearGradient id="SVGID_12_" gradientTransform="matrix(1 0 0 -1 0 512)" gradientUnits="userSpaceOnUse" x1="132.233" x2="126.661" xlink:href="#lg1" y1="365.14" y2="304.77"/><linearGradient id="SVGID_13_" gradientTransform="matrix(1 0 0 -1 0 512)" gradientUnits="userSpaceOnUse" x1="375.766" x2="403.976" xlink:href="#lg3" y1="352.594" y2="316.026"/><linearGradient id="SVGID_14_" gradientTransform="matrix(1 0 0 -1 0 512)" gradientUnits="userSpaceOnUse" x1="323.789" x2="150.351" xlink:href="#lg3" y1="312.02" y2="238.883"/><linearGradient id="SVGID_15_" gradientTransform="matrix(1 0 0 -1 0 512)" gradientUnits="userSpaceOnUse" x1="325.889" x2="223.669" xlink:href="#lg3" y1="215.441" y2="113.221"/><linearGradient id="SVGID_16_" gradientTransform="matrix(1 0 0 -1 0 512)" gradientUnits="userSpaceOnUse" x1="255.294" x2="255.294" xlink:href="#lg3" y1="278.321" y2="393.961"/><linearGradient id="SVGID_17_" gradientTransform="matrix(1 0 0 -1 0 512)" gradientUnits="userSpaceOnUse" x1="332.946" x2="268.168" xlink:href="#lg2" y1="291.321" y2="588.047"/><linearGradient id="SVGID_18_" gradientTransform="matrix(1 0 0 -1 0 512)" gradientUnits="userSpaceOnUse" x1="199.866" x2="137.611" xlink:href="#lg2" y1="170.402" y2="26.378"/><linearGradient id="lg4"><stop offset="0" stop-color="#ff7044"/><stop offset="1" stop-color="#f92814"/></linearGradient><linearGradient id="SVGID_19_" gradientUnits="userSpaceOnUse" x1="32.232" x2="68.134" xlink:href="#lg4" y1="228.226" y2="228.226"/><linearGradient id="lg5"><stop offset="0" stop-color="#92f37f"/><stop offset="1" stop-color="#4ab272"/></linearGradient><linearGradient id="SVGID_20_" gradientTransform="matrix(.707 -.707 -.707 -.707 -914.823 2142.283)" gradientUnits="userSpaceOnUse" x1="1969.101" x2="2005.004" xlink:href="#lg5" y1="553.34" y2="553.34"/><linearGradient id="lg6"><stop offset="0" stop-color="#ffda45"/><stop offset="1" stop-color="#ffa425"/></linearGradient><linearGradient id="SVGID_21_" gradientTransform="matrix(.707 .707 -.707 .707 -914.823 4182.653)" gradientUnits="userSpaceOnUse" x1="-2180.585" x2="-2144.682" xlink:href="#lg6" y1="-3596.345" y2="-3596.345"/><linearGradient id="SVGID_22_" gradientTransform="matrix(-1 0 0 -1 -472.379 1271.75)" gradientUnits="userSpaceOnUse" x1="-950.733" x2="-914.831" xlink:href="#lg4" y1="1043.524" y2="1043.524"/><linearGradient id="SVGID_23_" gradientTransform="matrix(-.707 .707 .707 .707 -28.241 2343.718)" gradientUnits="userSpaceOnUse" x1="-1908.145" x2="-1872.242" xlink:href="#lg6" y1="-1268.112" y2="-1268.112"/><linearGradient id="SVGID_24_" gradientTransform="matrix(-.707 -.707 .707 -.707 -28.241 303.347)" gradientUnits="userSpaceOnUse" x1="-359.133" x2="-323.23" xlink:href="#lg5" y1="280.899" y2="280.899"/><linearGradient id="lg7"><stop offset="0" stop-color="#f9f7fc"/><stop offset="1" stop-color="#f0ddfc"/></linearGradient><linearGradient id="SVGID_25_" gradientTransform="matrix(1 0 0 -1 0 512)" gradientUnits="userSpaceOnUse" x1="255.293" x2="255.293" xlink:href="#lg7" y1="133.528" y2="71.151"/><linearGradient id="SVGID_26_" gradientTransform="matrix(1 0 0 -1 0 512)" gradientUnits="userSpaceOnUse" x1="255.294" x2="255.294" xlink:href="#lg7" y1="146.424" y2="71.881"/><linearGradient id="SVGID_27_" gradientTransform="matrix(1 0 0 -1 0 512)" gradientUnits="userSpaceOnUse" x1="255.294" x2="255.294" xlink:href="#lg7" y1="99.864" y2="41.649"/><linearGradient id="lg8"><stop offset="0" stop-color="#f0ddfc" stop-opacity="0"/><stop offset=".2889" stop-color="#c8b7e0" stop-opacity=".289"/><stop offset=".5915" stop-color="#a595c8" stop-opacity=".592"/><stop offset=".8395" stop-color="#8f81b8" stop-opacity=".84"/><stop offset="1" stop-color="#8779b3"/></linearGradient><linearGradient id="SVGID_28_" gradientTransform="matrix(1 0 0 -1 0 512)" gradientUnits="userSpaceOnUse" x1="255.294" x2="255.294" xlink:href="#lg8" y1="69.864" y2="230.544"/><linearGradient id="SVGID_29_" gradientTransform="matrix(1 0 0 -1 0 512)" gradientUnits="userSpaceOnUse" x1="255.294" x2="255.294" xlink:href="#lg8" y1="50.024" y2="170.084"/><linearGradient id="SVGID_30_" gradientTransform="matrix(1 0 0 -1 0 512)" gradientUnits="userSpaceOnUse" x1="255.294" x2="255.294" xlink:href="#lg8" y1="86.364" y2="22.357"/><linearGradient id="SVGID_31_" gradientTransform="matrix(1 0 0 -1 0 512)" gradientUnits="userSpaceOnUse" x1="177.465" x2="421.55" y1="129.48" y2="-120.918"><stop offset="0" stop-color="#4a98f7"/><stop offset="1" stop-color="#0469bc"/></linearGradient><linearGradient id="SVGID_32_" gradientTransform="matrix(1 0 0 -1 0 512)" gradientUnits="userSpaceOnUse" x1="336.907" x2="248.908" y1="55.346" y2="55.846"><stop offset="0" stop-color="#0469bc" stop-opacity="0"/><stop offset="1" stop-color="#0469bc"/></linearGradient><path d="m429.541 251.863c0-19.574-6.818-37.552-18.204-51.7 5.439-6.784 8.7-15.389 8.7-24.761 0-19.668-14.333-35.981-33.122-39.083-5.407-27.939-25.905-50.496-52.676-58.841.001-.092.007-.183.007-.275 0-24.361-19.749-44.11-44.11-44.11-14.171 0-26.772 6.69-34.842 17.076-8.07-10.386-20.671-17.076-34.842-17.076-24.361 0-44.11 19.749-44.11 44.11 0 .092.006.183.007.275-26.771 8.345-47.269 30.902-52.676 58.841-18.789 3.103-33.122 19.415-33.122 39.083 0 9.371 3.261 17.977 8.7 24.761-11.385 14.148-18.204 32.127-18.204 51.7 0 38.184 25.932 70.305 61.144 79.728 5.149 32.171 33.027 56.754 66.649 56.754 18 0 34.353-7.046 46.455-18.529 12.102 11.483 28.455 18.529 46.455 18.529 33.622 0 61.5-24.582 66.649-56.754 35.21-9.422 61.142-41.544 61.142-79.728z" fill="url(#SVGID_1_)"/><circle cx="347.008" cy="251.863" fill="url(#SVGID_2_)" r="82.533"/><path d="m276.343 151.042c0-13.854-3.659-26.852-10.061-38.085-8.007 11.125-21.058 18.376-35.812 18.376-14.735 0-27.771-7.233-35.78-18.334-7.618-5.493-13.417-13.35-16.306-22.505-19.676 8.639-35.05 25.26-42.019 45.771 10.913 1.713 20.341 7.883 26.379 16.585 10.312 7.154 17.07 19.071 17.07 32.572 0 13.811-7.073 25.962-17.787 33.053 11.046 6.121 23.752 9.609 37.274 9.609 42.549-.001 77.042-34.493 77.042-77.042z" fill="url(#SVGID_3_)"/><circle cx="220.451" cy="77.203" fill="url(#SVGID_4_)" r="44.11"/><circle cx="311.284" cy="151.042" fill="url(#SVGID_5_)" r="77.042"/><circle cx="211.183" cy="135.779" fill="url(#SVGID_6_)" r="44.11"/><circle cx="299.403" cy="135.779" fill="url(#SVGID_7_)" r="44.11"/><circle cx="299.403" cy="283.322" fill="url(#SVGID_8_)" r="44.11"/><circle cx="211.183" cy="283.322" fill="url(#SVGID_9_)" r="44.11"/><circle cx="163.578" cy="251.863" fill="url(#SVGID_10_)" r="82.533"/><circle cx="168.33" cy="256.615" fill="url(#SVGID_11_)" r="77.781"/><path d="m163.578 169.33c1.944 0 3.871.072 5.782.205-2.836-19.1-19.299-33.756-39.188-33.756-21.883 0-39.623 17.74-39.623 39.623 0 9.371 3.261 17.977 8.7 24.761 15.127-18.799 38.321-30.833 64.329-30.833z" fill="url(#SVGID_12_)"/><path d="m347.008 169.33c26.008 0 49.202 12.034 64.329 30.833 5.439-6.784 8.7-15.389 8.7-24.761 0-21.883-17.74-39.623-39.623-39.623-19.889 0-36.352 14.655-39.188 33.756 1.911-.132 3.838-.205 5.782-.205z" fill="url(#SVGID_13_)"/><path d="m301.748 388.346c33.622 0 61.5-24.582 66.649-56.754 35.212-9.423 61.144-41.545 61.144-79.728 0-19.574-6.818-37.552-18.204-51.7 5.439-6.784 8.7-15.389 8.7-24.761 0-19.668-14.333-35.981-33.122-39.083-5.407-27.939-25.905-50.496-52.676-58.841.001-.092.007-.183.007-.275 0-24.361-19.749-44.11-44.11-44.11-14.171 0-26.772 6.69-34.842 17.076v319.648c12.101 11.482 28.454 18.528 46.454 18.528z" fill="url(#SVGID_14_)"/><path d="m366.364 340.42c.867-2.867 1.55-5.815 2.032-8.829.751-4.693 1.026-9.544.752-14.509-1.994-36.151-31.709-64.014-67.915-63.744-17.797.133-33.953 7.154-45.94 18.527v89.8c0 5.521 7.111 14.032 7.136 14.05 1.771 1.186 34.006 21.982 68.07 6.046 25.963-12.146 34.447-36.954 35.865-41.341z" fill="url(#SVGID_15_)"/><circle cx="255.293" cy="232.117" fill="url(#SVGID_16_)" r="51.205"/><circle cx="340.791" cy="256.615" fill="url(#SVGID_17_)" r="77.781"/><circle cx="208.838" cy="320.841" fill="url(#SVGID_18_)" r="58.927"/><path d="m59.339 219.43h-18.312c-4.857 0-8.795 3.938-8.795 8.795 0 4.857 3.938 8.795 8.795 8.795h18.312c4.857 0 8.795-3.938 8.795-8.795 0-4.857-3.938-8.795-8.795-8.795z" fill="url(#SVGID_19_)"/><path d="m111.648 345.716-12.949 12.948c-3.435 3.435-9.003 3.435-12.438 0-3.435-3.435-3.435-9.003 0-12.438l12.949-12.949c3.435-3.435 9.003-3.435 12.438 0 3.435 3.435 3.435 9.004 0 12.439z" fill="url(#SVGID_20_)"/><path d="m111.648 110.735-12.949-12.949c-3.435-3.435-9.003-3.435-12.438 0-3.435 3.435-3.435 9.003 0 12.438l12.949 12.949c3.435 3.435 9.003 3.435 12.438 0 3.435-3.435 3.435-9.004 0-12.438z" fill="url(#SVGID_21_)"/><path d="m451.247 237.02h18.312c4.857 0 8.795-3.938 8.795-8.795 0-4.857-3.938-8.795-8.795-8.795h-18.312c-4.857 0-8.795 3.938-8.795 8.795 0 4.858 3.938 8.795 8.795 8.795z" fill="url(#SVGID_22_)"/><path d="m398.938 110.735 12.949-12.949c3.435-3.435 9.003-3.435 12.438 0 3.435 3.435 3.435 9.003 0 12.438l-12.949 12.949c-3.435 3.435-9.003 3.435-12.438 0-3.435-3.435-3.435-9.004 0-12.438z" fill="url(#SVGID_23_)"/><path d="m398.938 345.716 12.949 12.949c3.435 3.435 9.003 3.435 12.438 0 3.435-3.435 3.435-9.003 0-12.438l-12.949-12.949c-3.435-3.435-9.003-3.435-12.438 0-3.435 3.434-3.435 9.003 0 12.438z" fill="url(#SVGID_24_)"/><path d="m496.47 413.284c-21.459-10.026-144.112-61.364-241.177 24.46-97.065-85.824-219.718-34.486-241.177-24.46-2.007.938-3.275 2.902-3.275 5.053 0 4.078 4.373 6.817 8.219 5.123 117.258-51.629 206.762-3.663 235.157 15.252l1.075.72 1.075-.72c28.395-18.915 117.899-66.881 235.157-15.252 3.847 1.694 8.219-1.045 8.219-5.123.002-2.151-1.266-4.115-3.273-5.053z" fill="url(#SVGID_25_)"/><path d="m490.9 395.267c-20.34-10.026-143.603-48.355-235.607 37.468-92.004-85.824-215.267-47.494-235.607-37.468-1.902.938-3.104 2.902-3.104 5.053 0 4.078 4.145 6.817 7.791 5.123 111.145-51.629 202.987 13.348 229.901 32.263l1.019.72 1.019-.72c26.915-18.915 118.756-83.892 229.901-32.263 3.646 1.694 7.791-1.045 7.791-5.123 0-2.151-1.202-4.116-3.104-5.053z" fill="url(#SVGID_26_)"/><path d="m500.293 440.108v15.805c0 7.732-7.946 13.019-15.273 10.177-35.244-13.651-71.23-20.47-107.227-20.47-38.262 0-76.514 7.71-113.859 23.141-2.752 1.137-5.678 1.751-8.639 1.751-2.963 0-5.891-.614-8.645-1.751-72.474-29.935-148.391-30.825-221.084-2.67-7.327 2.841-15.273-2.446-15.273-10.178v-15.805c0-5.568 3.36-10.633 8.597-12.797 37.368-15.441 75.624-23.149 113.891-23.149 41.212 0 82.435 8.948 122.511 26.845 77.31-34.519 158.812-35.747 236.402-3.696 5.24 2.164 8.599 7.229 8.599 12.797z" fill="url(#SVGID_27_)"/><path d="m491.695 437.324c-77.59-32.051-159.092-30.823-236.402 3.696-40.077-17.897-81.3-26.845-122.511-26.845-38.267 0-76.523 7.708-113.891 23.149-5.238 2.164-8.598 7.229-8.598 12.797v5.793c0 7.732 7.946 13.019 15.273 10.177 72.693-28.154 148.61-27.264 221.084 2.67 2.754 1.137 5.682 1.751 8.645 1.751 2.961 0 5.887-.614 8.639-1.751 37.345-15.431 75.597-23.141 113.859-23.141 35.997 0 71.983 6.819 107.227 20.47 7.328 2.842 15.273-2.445 15.273-10.177v-5.793c0-5.567-3.359-10.632-8.598-12.796z" fill="url(#SVGID_28_)"/><path d="m255.293 455.262c-40.077-17.897-81.3-26.845-122.511-26.845-38.267 0-76.523 7.708-113.891 23.149-3.781 1.562-6.575 4.64-7.842 8.324 2.147 5.421 8.536 8.52 14.517 6.2 72.693-28.154 148.61-27.264 221.084 2.67 2.754 1.137 5.682 1.751 8.645 1.751 2.961 0 5.887-.614 8.639-1.751 37.345-15.431 75.597-23.141 113.859-23.141 35.997 0 71.983 6.819 107.227 20.47 5.981 2.32 12.37-.779 14.518-6.2-1.266-3.684-4.061-6.762-7.842-8.324-77.591-32.05-159.093-30.822-236.403 3.697z" fill="url(#SVGID_29_)"/><path d="m255.293 431.008-19.413 33.549c3.597 1.337 7.189 2.725 10.77 4.204 2.754 1.137 5.682 1.751 8.645 1.751 2.961 0 5.887-.614 8.639-1.751 3.582-1.48 7.175-2.867 10.772-4.205z" fill="url(#SVGID_30_)"/><path d="m393.293 436.654c-43.104 0-86.196 7.71-128.266 23.141-3.1 1.137-6.397 1.751-9.732 1.751-3.338 0-6.636-.614-9.739-1.751-78.444-28.761-160.466-30.69-239.409-5.826-3.476 1.094-5.854 4.303-5.854 7.948 0 7.732 8.27 13.019 15.897 10.177 75.66-28.154 154.675-27.264 230.108 2.67 2.866 1.137 5.914 1.751 8.997 1.751 3.082 0 6.128-.614 8.992-1.751 38.869-15.431 78.682-23.141 118.507-23.141 37.466 0 74.921 6.819 111.603 20.47 7.627 2.842 15.897-2.445 15.897-10.177v-.001c0-3.642-2.373-6.853-5.846-7.947-36.616-11.534-73.879-17.314-111.155-17.314z" fill="url(#SVGID_31_)"/><path d="m504.447 453.969c-36.615-11.535-73.878-17.315-111.154-17.315-43.104 0-86.196 7.71-128.266 23.141-3.1 1.137-6.397 1.751-9.732 1.751h-.001v14.969h.001c3.082 0 6.128-.614 8.992-1.751 38.869-15.431 78.682-23.141 118.507-23.141 37.466 0 74.921 6.819 111.603 20.47 7.627 2.842 15.897-2.445 15.897-10.177v-.001c-.001-3.64-2.373-6.851-5.847-7.946z" fill="url(#SVGID_32_)"/></svg>