<svg id="Capa_1" enable-background="new 0 0 510 510" height="512" viewBox="0 0 510 510" width="512" xmlns="http://www.w3.org/2000/svg" xmlns:xlink="http://www.w3.org/1999/xlink"><radialGradient id="SVGID_1_" cx="202.257" cy="149.73" gradientUnits="userSpaceOnUse" r="249.815"><stop offset="0" stop-color="#ffda45"/><stop offset=".3043" stop-color="#ffce3e"/><stop offset=".8558" stop-color="#ffae2b"/><stop offset="1" stop-color="#ffa425"/></radialGradient><linearGradient id="lg1"><stop offset="0" stop-color="#ffda45" stop-opacity="0"/><stop offset="1" stop-color="#fcee21"/></linearGradient><linearGradient id="SVGID_2_" gradientUnits="userSpaceOnUse" x1="272.629" x2="112.48" xlink:href="#lg1" y1="226.873" y2="66.724"/><linearGradient id="SVGID_3_" gradientUnits="userSpaceOnUse" x1="265.441" x2="236.733" y1="165.302" y2="43.695"><stop offset="0" stop-color="#ffda45" stop-opacity="0"/><stop offset="1" stop-color="#fff"/></linearGradient><linearGradient id="lg2"><stop offset="0" stop-color="#ffda45" stop-opacity="0"/><stop offset="1" stop-color="#b53759"/></linearGradient><linearGradient id="SVGID_4_" gradientUnits="userSpaceOnUse" x1="260.483" x2="477.5" xlink:href="#lg2" y1="269.752" y2="-133.868"/><radialGradient id="SVGID_5_" cx="255" cy="294.292" gradientUnits="userSpaceOnUse" r="95.801"><stop offset="0" stop-color="#fcee21" stop-opacity=".6"/><stop offset=".3263" stop-color="#fdea28" stop-opacity=".404"/><stop offset=".7865" stop-color="#fee03a" stop-opacity=".128"/><stop offset="1" stop-color="#ffda45" stop-opacity="0"/></radialGradient><linearGradient id="lg3"><stop offset="0" stop-color="#7e8595"/><stop offset="1" stop-color="#555a66"/></linearGradient><linearGradient id="SVGID_6_" gradientUnits="userSpaceOnUse" x1="182.068" x2="327.932" xlink:href="#lg3" y1="451.824" y2="451.824"/><linearGradient id="lg4"><stop offset="0" stop-color="#555a66" stop-opacity="0"/><stop offset="1" stop-color="#555a66"/></linearGradient><linearGradient id="SVGID_7_" gradientUnits="userSpaceOnUse" x1="254.883" x2="255.203" xlink:href="#lg4" y1="424.119" y2="406.802"/><linearGradient id="SVGID_8_" gradientUnits="userSpaceOnUse" x1="254.883" x2="255.203" xlink:href="#lg4" y1="460.061" y2="442.743"/><linearGradient id="SVGID_9_" gradientUnits="userSpaceOnUse" x1="254.748" x2="255.068" xlink:href="#lg4" y1="494.328" y2="477.035"/><linearGradient id="SVGID_10_" gradientUnits="userSpaceOnUse" x1="255" x2="255" xlink:href="#lg1" y1="329.729" y2="279.022"/><linearGradient id="SVGID_11_" gradientUnits="userSpaceOnUse" x1="255" x2="255" xlink:href="#lg2" y1="339.992" y2="400.297"/><linearGradient id="lg5"><stop offset="0" stop-color="#f9f7fc"/><stop offset="1" stop-color="#f0ddfc"/></linearGradient><linearGradient id="SVGID_12_" gradientUnits="userSpaceOnUse" x1="254.622" x2="255.553" xlink:href="#lg5" y1="389.794" y2="411.666"/><linearGradient id="SVGID_13_" gradientUnits="userSpaceOnUse" x1="254.622" x2="255.553" xlink:href="#lg3" y1="425.762" y2="447.634"/><linearGradient id="SVGID_14_" gradientUnits="userSpaceOnUse" x1="254.622" x2="255.553" xlink:href="#lg3" y1="461.73" y2="483.602"/><linearGradient id="SVGID_15_" gradientUnits="userSpaceOnUse" x1="254.322" x2="258.17" xlink:href="#lg5" y1="496.327" y2="524.227"/><linearGradient id="lg6"><stop offset="0" stop-color="#92f37f"/><stop offset="1" stop-color="#4ab272"/></linearGradient><linearGradient id="SVGID_16_" gradientUnits="userSpaceOnUse" x1="64.64" x2="64.64" xlink:href="#lg6" y1="208.54" y2="229.228"/><linearGradient id="SVGID_17_" gradientUnits="userSpaceOnUse" x1="445.36" x2="445.36" xlink:href="#lg6" y1="208.54" y2="229.228"/><linearGradient id="SVGID_18_" gradientTransform="matrix(0 1 1 0 83.218 -83.218)" gradientUnits="userSpaceOnUse" x1="103.739" x2="103.739" xlink:href="#lg6" y1="169.441" y2="190.129"/><linearGradient id="SVGID_19_" gradientTransform="matrix(.707 .707 -.707 .707 196.151 -130.093)" gradientUnits="userSpaceOnUse" x1="92.359" x2="92.359" xlink:href="#lg6" y1="197.154" y2="217.842"/><linearGradient id="SVGID_20_" gradientTransform="matrix(-.707 .707 .707 .707 313.849 -130.093)" gradientUnits="userSpaceOnUse" x1="92.359" x2="92.359" xlink:href="#lg6" y1="197.154" y2="217.842"/><path d="m412.882 209.244c0-88.696-73.14-160.31-162.398-157.819-84.785 2.366-152.959 72.231-153.364 157.048-.206 43.151 16.902 82.303 44.777 110.916 25.627 26.306 40.228 61.408 40.228 98.133v12.086h145.751v-12.086c0-36.549 14.284-71.671 39.871-97.769 27.918-28.474 45.135-67.479 45.135-110.509z" fill="url(#SVGID_1_)"/><circle cx="255" cy="209.244" fill="url(#SVGID_2_)" r="147.694"/><ellipse cx="255" cy="121.074" fill="url(#SVGID_3_)" rx="95.801" ry="55.685"/><path d="m325.625 68.013c10.648 21.252 16.651 45.236 16.651 70.625 0 87.196-70.686 157.882-157.882 157.882-25.389 0-49.373-6.002-70.625-16.651 25.922 51.736 79.425 87.257 141.231 87.257 87.196 0 157.882-70.686 157.882-157.882 0-61.807-35.521-115.309-87.257-141.231z" fill="url(#SVGID_4_)"/><circle cx="255" cy="294.292" fill="url(#SVGID_5_)" r="95.801"/><path d="m312.479 496.961c-36.347 17.385-78.61 17.385-114.958 0-9.442-4.516-15.453-14.054-15.453-24.521v-78.793h145.863v78.793c.001 10.467-6.01 20.005-15.452 24.521z" fill="url(#SVGID_6_)"/><path d="m182.068 410.617 14.462 14.462h131.402v-14.585h-145.864z" fill="url(#SVGID_7_)"/><path d="m182.068 446.558 14.462 14.462h131.402v-14.585h-145.864z" fill="url(#SVGID_8_)"/><path d="m183.37 480.703c.245.766.523 1.519.833 2.257l12.328 12.328h118.923c5.348-3.44 9.272-8.62 11.177-14.585z" fill="url(#SVGID_9_)"/><path d="m296.087 294.292h-2.962c-11.739 0-21.289 9.55-21.289 21.289v6.857h-16.836-16.837v-6.857c0-11.739-9.55-21.289-21.289-21.289h-2.962c-11.739 0-21.289 9.55-21.289 21.289s9.55 21.289 21.289 21.289h9.819v55.076h14.432v-55.076h16.837 16.837v55.076h14.431v-55.076h9.819c11.739 0 21.289-9.55 21.289-21.289s-9.55-21.289-21.289-21.289zm-72.355 28.146h-9.819c-3.781 0-6.857-3.076-6.857-6.857s3.076-6.857 6.857-6.857h2.962c3.781 0 6.857 3.076 6.857 6.857zm72.355 0h-9.819v-6.857c0-3.781 3.076-6.857 6.857-6.857h2.962c3.781 0 6.857 3.076 6.857 6.857.001 3.781-3.075 6.857-6.857 6.857z" fill="url(#SVGID_10_)"/><path d="m296.087 294.292h-2.962c-11.739 0-21.289 9.55-21.289 21.289v6.857h-16.836-16.837v-6.857c0-11.739-9.55-21.289-21.289-21.289h-2.962c-11.739 0-21.289 9.55-21.289 21.289s9.55 21.289 21.289 21.289h9.819v55.076h14.432v-55.076h16.837 16.837v55.076h14.431v-55.076h9.819c11.739 0 21.289-9.55 21.289-21.289s-9.55-21.289-21.289-21.289zm-72.355 28.146h-9.819c-3.781 0-6.857-3.076-6.857-6.857s3.076-6.857 6.857-6.857h2.962c3.781 0 6.857 3.076 6.857 6.857zm72.355 0h-9.819v-6.857c0-3.781 3.076-6.857 6.857-6.857h2.962c3.781 0 6.857 3.076 6.857 6.857.001 3.781-3.075 6.857-6.857 6.857z" fill="url(#SVGID_11_)"/><path d="m323.95 411.187h-137.9c-6.908 0-12.507-5.6-12.507-12.507 0-6.908 5.6-12.507 12.507-12.507h137.9c6.908 0 12.507 5.6 12.507 12.507.001 6.907-5.599 12.507-12.507 12.507z" fill="url(#SVGID_12_)"/><path d="m323.95 447.155h-137.9c-6.908 0-12.507-5.6-12.507-12.507 0-6.908 5.6-12.507 12.507-12.507h137.9c6.908 0 12.507 5.6 12.507 12.507.001 6.907-5.599 12.507-12.507 12.507z" fill="url(#SVGID_13_)"/><path d="m323.95 483.122h-137.9c-6.908 0-12.507-5.6-12.507-12.507 0-6.908 5.6-12.507 12.507-12.507h137.9c6.908 0 12.507 5.6 12.507 12.507.001 6.908-5.599 12.507-12.507 12.507z" fill="url(#SVGID_14_)"/><path d="m302.488 501.243c-13.268-4.502-29.696-7.168-47.488-7.168s-34.221 2.665-47.488 7.168c30.575 11.669 64.401 11.669 94.976 0z" fill="url(#SVGID_15_)"/><path d="m75.107 220.936h-20.934c-5.553 0-10.054-4.501-10.054-10.054 0-5.553 4.501-10.054 10.054-10.054h20.934c5.553 0 10.054 4.502 10.054 10.054 0 5.553-4.501 10.054-10.054 10.054z" fill="url(#SVGID_16_)"/><path d="m455.827 220.936h-20.934c-5.553 0-10.054-4.501-10.054-10.054 0-5.553 4.501-10.054 10.054-10.054h20.934c5.553 0 10.054 4.502 10.054 10.054.001 5.553-4.501 10.054-10.054 10.054z" fill="url(#SVGID_17_)"/><path d="m265.054 30.988v-20.934c0-5.552-4.501-10.054-10.054-10.054-5.553 0-10.054 4.502-10.054 10.054v20.934c0 5.553 4.501 10.054 10.054 10.054 5.553.001 10.054-4.501 10.054-10.054z" fill="url(#SVGID_18_)"/><path d="m120.687 90.787-14.803-14.803c-3.926-3.926-3.926-10.292 0-14.219 3.926-3.926 10.293-3.926 14.219 0l14.803 14.803c3.926 3.926 3.926 10.292 0 14.219-3.927 3.927-10.293 3.927-14.219 0z" fill="url(#SVGID_19_)"/><path d="m389.313 90.787 14.803-14.803c3.927-3.926 3.927-10.292 0-14.219-3.926-3.926-10.292-3.926-14.219 0l-14.803 14.803c-3.926 3.926-3.926 10.292 0 14.219 3.927 3.927 10.293 3.927 14.219 0z" fill="url(#SVGID_20_)"/></svg>