<svg id="Capa_1" enable-background="new 0 0 510 510" height="512" viewBox="0 0 510 510" width="512" xmlns="http://www.w3.org/2000/svg" xmlns:xlink="http://www.w3.org/1999/xlink"><linearGradient id="lg1"><stop offset="0" stop-color="#f9f7fc"/><stop offset="1" stop-color="#f0ddfc"/></linearGradient><linearGradient id="SVGID_1_" gradientUnits="userSpaceOnUse" x1="39.546" x2="519.524" xlink:href="#lg1" y1="-27.948" y2="540.526"/><linearGradient id="SVGID_2_" gradientUnits="userSpaceOnUse" x1="316.47" x2="-13.514" y1="284.196" y2="-20.289"><stop offset="0" stop-color="#e9edf5" stop-opacity="0"/><stop offset="1" stop-color="#fff"/></linearGradient><linearGradient id="lg2"><stop offset="0" stop-color="#f0ddfc" stop-opacity="0"/><stop offset=".2889" stop-color="#c8b7e0" stop-opacity=".289"/><stop offset=".5915" stop-color="#a595c8" stop-opacity=".592"/><stop offset=".8395" stop-color="#8f81b8" stop-opacity=".84"/><stop offset="1" stop-color="#8779b3"/></linearGradient><linearGradient id="SVGID_3_" gradientUnits="userSpaceOnUse" x1="401.669" x2="245.405" xlink:href="#lg2" y1="619.585" y2="463.322"/><linearGradient id="SVGID_4_" gradientUnits="userSpaceOnUse" x1="231.491" x2="231.491" xlink:href="#lg1" y1="436.693" y2="488.917"/><linearGradient id="SVGID_5_" gradientUnits="userSpaceOnUse" x1="434.545" x2="436.946" xlink:href="#lg1" y1="509.149" y2="511.55"/><linearGradient id="SVGID_6_" gradientUnits="userSpaceOnUse" x1="344.222" x2="248.222" xlink:href="#lg2" y1="132.739" y2="39.739"/><linearGradient id="SVGID_7_" gradientUnits="userSpaceOnUse" x1="428.059" x2="274.595" xlink:href="#lg2" y1="244.981" y2="29.196"/><linearGradient id="lg3"><stop offset="0" stop-color="#92f37f"/><stop offset="1" stop-color="#4ab272"/></linearGradient><linearGradient id="SVGID_8_" gradientUnits="userSpaceOnUse" x1="254.708" x2="445.086" xlink:href="#lg3" y1="84.795" y2="185.331"/><linearGradient id="SVGID_9_" gradientUnits="userSpaceOnUse" x1="449.484" x2="337.484" xlink:href="#lg2" y1="236.564" y2="121.563"/><linearGradient id="SVGID_10_" gradientUnits="userSpaceOnUse" x1="315.043" x2="427.334" xlink:href="#lg3" y1="125.132" y2="184.432"/><path d="m432.455 509.998h-337.692v-476.662c0-18.411 14.924-33.336 33.335-33.336h318.449c18.527 0 33.547 15.019 33.547 33.547v428.812c.001 26.31-21.328 47.639-47.639 47.639z" fill="url(#SVGID_1_)"/><path d="m149.686 21.588c-18.411 0-33.336 14.925-33.336 33.336v455.075h316.105c26.31 0 47.639-21.329 47.639-47.639v-428.813c0-3.606-.576-7.076-1.628-10.331-3.255-1.053-6.725-1.628-10.331-1.628z" fill="url(#SVGID_2_)"/><path d="m470.352 491.217-86.625-86.625c-1.818-2.702-4.904-4.48-8.405-4.48h-280.559v109.887h337.693c15.459-.001 29.193-7.37 37.896-18.782z" fill="url(#SVGID_3_)"/><path d="m433.077 510h-355.526c-26.323 0-47.646-21.337-47.646-47.646v-52.119c0-5.591 4.533-10.124 10.124-10.124h335.292c5.592 0 10.124 4.533 10.124 10.124v52.119c.001 26.309 21.323 47.646 47.632 47.646z" fill="url(#SVGID_4_)"/><path d="m437.513 509.797v.203h-4.436c1.493 0 2.972-.072 4.436-.203z" fill="url(#SVGID_5_)"/><g fill="#bec3d2"><path d="m299.431 374h-143.805c-2.263 0-4.097-1.835-4.097-4.097v-13.805c0-2.263 1.834-4.097 4.097-4.097h143.805c2.263 0 4.097 1.835 4.097 4.097v13.805c.001 2.262-1.834 4.097-4.097 4.097z"/><path d="m370.684 374h-45.058c-2.263 0-4.097-1.835-4.097-4.097v-13.805c0-2.263 1.835-4.097 4.097-4.097h45.058c2.263 0 4.097 1.835 4.097 4.097v13.805c0 2.262-1.834 4.097-4.097 4.097z"/><path d="m419.231 374h-23.78c-2.263 0-4.097-1.835-4.097-4.097v-13.805c0-2.263 1.835-4.097 4.097-4.097h23.78c2.263 0 4.097 1.835 4.097 4.097v13.805c0 2.262-1.834 4.097-4.097 4.097z"/><path d="m370.338 240.271h-143.805c-2.263 0-4.097-1.835-4.097-4.097v-13.805c0-2.263 1.835-4.097 4.097-4.097h143.805c2.263 0 4.097 1.835 4.097 4.097v13.805c.001 2.263-1.834 4.097-4.097 4.097z"/><path d="m200.684 240.271h-45.058c-2.263 0-4.097-1.835-4.097-4.097v-13.805c0-2.263 1.834-4.097 4.097-4.097h45.058c2.263 0 4.097 1.835 4.097 4.097v13.805c0 2.263-1.834 4.097-4.097 4.097z"/><path d="m419.231 240.271h-23.78c-2.263 0-4.097-1.835-4.097-4.097v-13.805c0-2.263 1.835-4.097 4.097-4.097h23.78c2.263 0 4.097 1.835 4.097 4.097v13.805c0 2.263-1.834 4.097-4.097 4.097z"/><path d="m275.426 151.407h143.805c2.263 0 4.097 1.834 4.097 4.097v13.805c0 2.263-1.835 4.097-4.097 4.097h-143.805c-2.263 0-4.097-1.835-4.097-4.097v-13.805c-.001-2.263 1.834-4.097 4.097-4.097z"/><path d="m204.173 151.407h45.058c2.263 0 4.097 1.834 4.097 4.097v13.805c0 2.263-1.834 4.097-4.097 4.097h-45.058c-2.263 0-4.097-1.835-4.097-4.097v-13.805c0-2.263 1.834-4.097 4.097-4.097z"/><path d="m155.626 151.407h23.78c2.263 0 4.097 1.834 4.097 4.097v13.805c0 2.263-1.835 4.097-4.097 4.097h-23.78c-2.263 0-4.097-1.835-4.097-4.097v-13.805c0-2.263 1.834-4.097 4.097-4.097z"/><path d="m204.519 285.136h143.805c2.263 0 4.097 1.834 4.097 4.097v13.805c0 2.263-1.835 4.097-4.097 4.097h-143.805c-2.263 0-4.097-1.835-4.097-4.097v-13.805c0-2.263 1.834-4.097 4.097-4.097z"/><path d="m374.173 285.136h45.058c2.263 0 4.097 1.834 4.097 4.097v13.805c0 2.263-1.835 4.097-4.097 4.097h-45.058c-2.263 0-4.097-1.835-4.097-4.097v-13.805c0-2.263 1.834-4.097 4.097-4.097z"/><path d="m155.626 285.136h23.78c2.263 0 4.097 1.834 4.097 4.097v13.805c0 2.263-1.835 4.097-4.097 4.097h-23.78c-2.263 0-4.097-1.835-4.097-4.097v-13.805c0-2.263 1.834-4.097 4.097-4.097z"/></g><path d="m480.095 113.166-51.676-51.676c-19.656-20.965-47.583-34.088-78.522-34.088-59.365 0-107.662 48.296-107.662 107.661 0 30.938 13.122 58.865 34.087 78.521l203.772 203.772v-304.19z" fill="url(#SVGID_6_)"/><path d="m480.095 190.659-113.354-113.354c-1.156-1.902-2.96-3.44-5.425-4.607-3.338-1.581-7.176-2.372-11.507-2.372-4.334 0-8.169.791-11.506 2.372-3.338 1.581-5.476 3.837-6.412 6.764l-32.676 107.162c-.236.939-.351 1.581-.351 1.932 0 2.725 1.526 5.12 4.572 7.187l176.659 176.659z" fill="url(#SVGID_7_)"/><path d="m349.897 242.724c-59.365 0-107.662-48.296-107.662-107.661s48.297-107.661 107.662-107.661 107.661 48.296 107.661 107.661-48.296 107.661-107.661 107.661zm0-200.322c-51.094 0-92.662 41.568-92.662 92.661s41.568 92.661 92.662 92.661 92.661-41.568 92.661-92.661-41.567-92.661-92.661-92.661z" fill="url(#SVGID_8_)"/><path d="m480.09 113.17v304.19l-203.77-203.78c19.26 18.07 45.15 29.14 73.58 29.14 59.36 0 107.66-48.29 107.66-107.66 0-28.39-11.05-54.26-29.08-73.51z" fill="url(#SVGID_9_)"/><path d="m298.863 188.556c0-.352.115-.994.351-1.932l32.676-107.163c.936-2.926 3.074-5.182 6.412-6.764 3.338-1.581 7.172-2.372 11.506-2.372 4.332 0 8.169.791 11.507 2.372s5.473 3.837 6.413 6.764l32.851 107.163c.233.939.351 1.581.351 1.932 0 3.047-1.904 5.682-5.709 7.906-3.807 2.226-7.76 3.338-11.858 3.338-5.037 0-8.023-1.697-8.959-5.094l-5.973-21.96h-37.067l-5.973 21.96c-.939 3.398-3.925 5.094-8.96 5.094-4.101 0-8.053-1.112-11.858-3.338-3.808-2.223-5.71-4.859-5.71-7.906zm38.122-36.892h25.648l-12.825-47.081z" fill="url(#SVGID_10_)"/></svg>