<svg id="Capa_1" enable-background="new 0 0 510 510" height="512" viewBox="0 0 510 510" width="512" xmlns="http://www.w3.org/2000/svg" xmlns:xlink="http://www.w3.org/1999/xlink"><linearGradient id="lg1"><stop offset="0" stop-color="#f9f7fc"/><stop offset="1" stop-color="#f0ddfc"/></linearGradient><linearGradient id="SVGID_1_" gradientUnits="userSpaceOnUse" x1="39.546" x2="519.524" xlink:href="#lg1" y1="-27.948" y2="540.526"/><linearGradient id="SVGID_2_" gradientUnits="userSpaceOnUse" x1="316.47" x2="-13.514" y1="284.196" y2="-20.289"><stop offset="0" stop-color="#e9edf5" stop-opacity="0"/><stop offset="1" stop-color="#fff"/></linearGradient><linearGradient id="lg2"><stop offset="0" stop-color="#f0ddfc" stop-opacity="0"/><stop offset=".2889" stop-color="#c8b7e0" stop-opacity=".289"/><stop offset=".5915" stop-color="#a595c8" stop-opacity=".592"/><stop offset=".8395" stop-color="#8f81b8" stop-opacity=".84"/><stop offset="1" stop-color="#8779b3"/></linearGradient><linearGradient id="SVGID_3_" gradientUnits="userSpaceOnUse" x1="401.669" x2="245.405" xlink:href="#lg2" y1="619.585" y2="463.322"/><linearGradient id="SVGID_4_" gradientUnits="userSpaceOnUse" x1="231.491" x2="231.491" xlink:href="#lg1" y1="436.693" y2="488.917"/><linearGradient id="SVGID_5_" gradientUnits="userSpaceOnUse" x1="434.545" x2="436.946" xlink:href="#lg1" y1="509.149" y2="511.55"/><linearGradient id="SVGID_6_" gradientUnits="userSpaceOnUse" x1="344.222" x2="248.222" xlink:href="#lg2" y1="132.739" y2="39.739"/><linearGradient id="SVGID_7_" gradientUnits="userSpaceOnUse" x1="418.119" x2="268.619" xlink:href="#lg2" y1="202.018" y2="92.518"/><linearGradient id="lg3"><stop offset="0" stop-color="#ff7044"/><stop offset="1" stop-color="#f92814"/></linearGradient><linearGradient id="SVGID_8_" gradientUnits="userSpaceOnUse" x1="316.988" x2="398.816" xlink:href="#lg3" y1="137.064" y2="137.064"/><linearGradient id="SVGID_9_" gradientUnits="userSpaceOnUse" x1="254.708" x2="445.086" xlink:href="#lg3" y1="84.795" y2="185.331"/><linearGradient id="SVGID_10_" gradientUnits="userSpaceOnUse" x1="449.484" x2="337.484" xlink:href="#lg2" y1="236.564" y2="121.563"/><path d="m432.455 509.998h-337.692v-476.662c0-18.411 14.925-33.336 33.335-33.336h318.449c18.527 0 33.547 15.019 33.547 33.547v428.812c.001 26.31-21.328 47.639-47.639 47.639z" fill="url(#SVGID_1_)"/><path d="m149.686 21.588c-18.411 0-33.336 14.925-33.336 33.336v455.075h316.105c26.31 0 47.639-21.329 47.639-47.639v-428.813c0-3.606-.576-7.076-1.628-10.331-3.255-1.053-6.725-1.628-10.331-1.628z" fill="url(#SVGID_2_)"/><path d="m470.352 491.217-86.625-86.625c-1.818-2.702-4.904-4.48-8.405-4.48h-280.559v109.887h337.693c15.459-.001 29.193-7.37 37.896-18.782z" fill="url(#SVGID_3_)"/><path d="m433.077 510h-355.526c-26.323 0-47.646-21.337-47.646-47.646v-52.119c0-5.591 4.533-10.124 10.124-10.124h335.292c5.591 0 10.124 4.533 10.124 10.124v52.119c.001 26.309 21.323 47.646 47.632 47.646z" fill="url(#SVGID_4_)"/><path d="m437.513 509.797v.203h-4.436c1.493 0 2.972-.072 4.436-.203z" fill="url(#SVGID_5_)"/><g fill="#bec3d2"><path d="m299.494 374h-143.93c-2.229 0-4.035-1.807-4.035-4.035v-13.93c0-2.229 1.807-4.035 4.035-4.035h143.93c2.229 0 4.035 1.807 4.035 4.035v13.93c0 2.228-1.807 4.035-4.035 4.035z"/><path d="m370.746 374h-45.182c-2.229 0-4.035-1.807-4.035-4.035v-13.93c0-2.229 1.807-4.035 4.035-4.035h45.182c2.229 0 4.035 1.807 4.035 4.035v13.93c0 2.228-1.806 4.035-4.035 4.035z"/><path d="m419.293 374h-23.905c-2.229 0-4.035-1.807-4.035-4.035v-13.93c0-2.229 1.807-4.035 4.035-4.035h23.905c2.229 0 4.035 1.807 4.035 4.035v13.93c0 2.228-1.806 4.035-4.035 4.035z"/><path d="m370.4 240.271h-143.93c-2.229 0-4.035-1.807-4.035-4.035v-13.93c0-2.229 1.807-4.035 4.035-4.035h143.93c2.229 0 4.035 1.807 4.035 4.035v13.93c0 2.229-1.806 4.035-4.035 4.035z"/><path d="m200.746 240.271h-45.182c-2.229 0-4.035-1.807-4.035-4.035v-13.93c0-2.229 1.807-4.035 4.035-4.035h45.182c2.229 0 4.035 1.807 4.035 4.035v13.93c0 2.229-1.806 4.035-4.035 4.035z"/><path d="m419.293 240.271h-23.905c-2.229 0-4.035-1.807-4.035-4.035v-13.93c0-2.229 1.807-4.035 4.035-4.035h23.905c2.229 0 4.035 1.807 4.035 4.035v13.93c0 2.229-1.806 4.035-4.035 4.035z"/><path d="m275.363 151.407h143.93c2.229 0 4.035 1.807 4.035 4.035v13.93c0 2.229-1.807 4.035-4.035 4.035h-143.93c-2.229 0-4.035-1.807-4.035-4.035v-13.93c0-2.229 1.807-4.035 4.035-4.035z"/><path d="m204.111 151.407h45.182c2.229 0 4.035 1.807 4.035 4.035v13.93c0 2.229-1.807 4.035-4.035 4.035h-45.182c-2.229 0-4.035-1.807-4.035-4.035v-13.93c0-2.229 1.806-4.035 4.035-4.035z"/><path d="m155.564 151.407h23.905c2.229 0 4.035 1.807 4.035 4.035v13.93c0 2.229-1.807 4.035-4.035 4.035h-23.905c-2.229 0-4.035-1.807-4.035-4.035v-13.93c0-2.229 1.806-4.035 4.035-4.035z"/><path d="m204.457 285.136h143.93c2.229 0 4.035 1.807 4.035 4.035v13.93c0 2.229-1.807 4.035-4.035 4.035h-143.93c-2.229 0-4.035-1.807-4.035-4.035v-13.93c0-2.229 1.806-4.035 4.035-4.035z"/><path d="m374.111 285.136h45.182c2.229 0 4.035 1.807 4.035 4.035v13.93c0 2.229-1.807 4.035-4.035 4.035h-45.182c-2.229 0-4.035-1.807-4.035-4.035v-13.93c0-2.229 1.806-4.035 4.035-4.035z"/><path d="m155.564 285.136h23.905c2.229 0 4.035 1.807 4.035 4.035v13.93c0 2.229-1.807 4.035-4.035 4.035h-23.905c-2.229 0-4.035-1.807-4.035-4.035v-13.93c0-2.229 1.806-4.035 4.035-4.035z"/></g><path d="m480.095 113.166-51.677-51.676c-19.656-20.965-47.583-34.088-78.521-34.088-59.365 0-107.662 48.296-107.662 107.661 0 30.938 13.122 58.865 34.087 78.521l203.772 203.772v-304.19z" fill="url(#SVGID_6_)"/><path d="m480.095 159.485-83.145-83.145c-.086-.157-.167-.317-.259-.471-1.417-2.361-3.484-3.542-6.199-3.542h-61.46c-3.308 0-6.141.739-8.501 2.214-2.364 1.478-3.543 3.573-3.543 6.288v112.471c0 2.682 1.326 4.755 3.974 6.227l159.133 159.133z" fill="url(#SVGID_7_)"/><path d="m316.988 193.299v-112.47c0-2.715 1.179-4.81 3.543-6.288 2.361-1.475 5.194-2.214 8.501-2.214h61.46c2.715 0 4.782 1.182 6.199 3.542 1.417 2.363 2.125 5.136 2.125 8.324 0 3.426-.738 6.318-2.214 8.679-1.478 2.363-3.515 3.543-6.111 3.543h-45.874v29.933h26.745c2.596 0 4.633 1.063 6.111 3.188 1.475 2.125 2.214 4.666 2.214 7.616 0 2.718-.709 5.136-2.125 7.262-1.417 2.125-3.485 3.188-6.2 3.188h-26.745v45.697c0 2.718-1.359 4.813-4.074 6.288-2.718 1.478-5.964 2.214-9.741 2.214-3.781 0-7.027-.736-9.741-2.214-2.718-1.475-4.073-3.57-4.073-6.288z" fill="url(#SVGID_8_)"/><path d="m349.897 242.724c-59.365 0-107.662-48.296-107.662-107.661s48.297-107.661 107.662-107.661 107.661 48.296 107.661 107.661-48.296 107.661-107.661 107.661zm0-200.322c-51.094 0-92.662 41.568-92.662 92.661s41.568 92.661 92.662 92.661 92.661-41.568 92.661-92.661-41.567-92.661-92.661-92.661z" fill="url(#SVGID_9_)"/><path d="m480.09 113.17v304.19l-203.77-203.78c19.26 18.07 45.15 29.14 73.58 29.14 59.36 0 107.66-48.29 107.66-107.66 0-28.39-11.05-54.26-29.08-73.51z" fill="url(#SVGID_10_)"/></svg>