<svg id="Capa_1" enable-background="new 0 0 510 510" height="512" viewBox="0 0 510 510" width="512" xmlns="http://www.w3.org/2000/svg" xmlns:xlink="http://www.w3.org/1999/xlink"><linearGradient id="lg1"><stop offset="0" stop-color="#7e8595"/><stop offset="1" stop-color="#555a66"/></linearGradient><linearGradient id="SVGID_1_" gradientUnits="userSpaceOnUse" x1="12.963" x2="64.595" xlink:href="#lg1" y1="157.579" y2="264.21"/><linearGradient id="lg2"><stop offset="0" stop-color="#bec3d2" stop-opacity="0"/><stop offset=".5577" stop-color="#d4d9e4" stop-opacity=".558"/><stop offset="1" stop-color="#e9edf5"/></linearGradient><linearGradient id="SVGID_2_" gradientUnits="userSpaceOnUse" x1="33.423" x2="-26.065" xlink:href="#lg2" y1="201.593" y2="132.751"/><linearGradient id="SVGID_3_" gradientUnits="userSpaceOnUse" x1="451.175" x2="502.807" xlink:href="#lg1" y1="157.579" y2="264.21"/><linearGradient id="SVGID_4_" gradientUnits="userSpaceOnUse" x1="471.636" x2="412.147" xlink:href="#lg2" y1="201.593" y2="132.751"/><linearGradient id="lg3"><stop offset="0" stop-color="#ffda45"/><stop offset="1" stop-color="#ffa425"/></linearGradient><linearGradient id="SVGID_5_" gradientUnits="userSpaceOnUse" x1="252.754" x2="259.209" xlink:href="#lg3" y1="158.412" y2="336.577"/><linearGradient id="lg4"><stop offset="0" stop-color="#ffda45" stop-opacity="0"/><stop offset="1" stop-color="#b53759"/></linearGradient><linearGradient id="SVGID_6_" gradientUnits="userSpaceOnUse" x1="303.976" x2="-84.157" xlink:href="#lg4" y1="170.25" y2="-240.632"/><linearGradient id="lg5"><stop offset="0" stop-color="#ffda45" stop-opacity="0"/><stop offset="1" stop-color="#fcee21"/></linearGradient><linearGradient id="SVGID_7_" gradientUnits="userSpaceOnUse" x1="249.569" x2="85.677" xlink:href="#lg5" y1="204.192" y2="-99.161"/><linearGradient id="SVGID_8_" gradientUnits="userSpaceOnUse" x1="255" x2="255" xlink:href="#lg3" y1="69.903" y2="-50.566"/><linearGradient id="SVGID_9_" gradientUnits="userSpaceOnUse" x1="285.357" x2="267.543" xlink:href="#lg4" y1="100.867" y2=".089"/><linearGradient id="lg6"><stop offset="0" stop-color="#f9f7fc"/><stop offset="1" stop-color="#f0ddfc"/></linearGradient><linearGradient id="SVGID_10_" gradientUnits="userSpaceOnUse" x1="250.431" x2="264.172" xlink:href="#lg6" y1="30.897" y2="90.445"/><linearGradient id="lg7"><stop offset="0" stop-color="#f0ddfc" stop-opacity="0"/><stop offset=".2889" stop-color="#c8b7e0" stop-opacity=".289"/><stop offset=".5915" stop-color="#a595c8" stop-opacity=".592"/><stop offset=".8395" stop-color="#8f81b8" stop-opacity=".84"/><stop offset="1" stop-color="#8779b3"/></linearGradient><linearGradient id="SVGID_11_" gradientUnits="userSpaceOnUse" x1="273.597" x2="188.767" xlink:href="#lg7" y1="94.586" y2="-105.613"/><linearGradient id="SVGID_12_" gradientTransform="matrix(-1 0 0 -1 510 781.145)" gradientUnits="userSpaceOnUse" x1="255" x2="255" xlink:href="#lg1" y1="375.223" y2="403.993"/><linearGradient id="SVGID_13_" gradientTransform="matrix(-1 0 0 -1 510 781.145)" gradientUnits="userSpaceOnUse" x1="255" x2="255" xlink:href="#lg1" y1="387.624" y2="416.394"/><linearGradient id="SVGID_14_" gradientTransform="matrix(-1 0 0 -1 510 781.145)" gradientUnits="userSpaceOnUse" x1="255" x2="255" xlink:href="#lg1" y1="400.026" y2="428.796"/><linearGradient id="SVGID_15_" gradientTransform="matrix(-1 0 0 -1 510 781.145)" gradientUnits="userSpaceOnUse" x1="255" x2="255" xlink:href="#lg1" y1="412.427" y2="441.197"/><linearGradient id="SVGID_16_" gradientUnits="userSpaceOnUse" x1="255" x2="255" xlink:href="#lg3" y1="407.817" y2="277.872"/><linearGradient id="SVGID_17_" gradientUnits="userSpaceOnUse" x1="248.347" x2="265.201" xlink:href="#lg3" y1="280.315" y2="377.476"/><linearGradient id="SVGID_18_" gradientUnits="userSpaceOnUse" x1="231.251" x2="176.339" xlink:href="#lg5" y1="325.247" y2="228.388"/><linearGradient id="SVGID_19_" gradientUnits="userSpaceOnUse" x1="330.935" x2="147.029" xlink:href="#lg4" y1="337.097" y2="148.515"/><linearGradient id="lg8"><stop offset="0" stop-color="#ffda45" stop-opacity="0"/><stop offset=".5194" stop-color="#d9874f" stop-opacity=".519"/><stop offset="1" stop-color="#b53759"/></linearGradient><linearGradient id="SVGID_20_" gradientUnits="userSpaceOnUse" x1="192.356" x2="88.596" xlink:href="#lg8" y1="441.184" y2="348.066"/><linearGradient id="SVGID_21_" gradientUnits="userSpaceOnUse" x1="463.445" x2="399.593" xlink:href="#lg8" y1="425.986" y2="357.478"/><linearGradient id="SVGID_22_" gradientUnits="userSpaceOnUse" x1="127.503" x2="180.221" xlink:href="#lg1" y1="476.02" y2="528.738"/><linearGradient id="lg9"><stop offset="0" stop-color="#555a66" stop-opacity="0"/><stop offset="1" stop-color="#555a66"/></linearGradient><linearGradient id="SVGID_23_" gradientUnits="userSpaceOnUse" x1="128.44" x2="111.978" xlink:href="#lg9" y1="491.576" y2="404.401"/><linearGradient id="SVGID_24_" gradientUnits="userSpaceOnUse" x1="146.859" x2="146.859" xlink:href="#lg9" y1="481.523" y2="546.971"/><linearGradient id="SVGID_25_" gradientUnits="userSpaceOnUse" x1="395.099" x2="447.816" xlink:href="#lg1" y1="476.02" y2="528.738"/><linearGradient id="SVGID_26_" gradientUnits="userSpaceOnUse" x1="396.036" x2="379.574" xlink:href="#lg9" y1="491.576" y2="404.401"/><linearGradient id="SVGID_27_" gradientUnits="userSpaceOnUse" x1="414.455" x2="414.455" xlink:href="#lg9" y1="481.523" y2="546.971"/><linearGradient id="SVGID_28_" gradientUnits="userSpaceOnUse" x1="326.845" x2="22.178" xlink:href="#lg3" y1="384.007" y2="296.322"/><linearGradient id="SVGID_29_" gradientUnits="userSpaceOnUse" x1="255" x2="255" y1="426.899" y2="483.275"><stop offset="0" stop-color="#bec3d2"/><stop offset=".97" stop-color="#808797"/><stop offset="1" stop-color="#7e8595"/></linearGradient><linearGradient id="SVGID_30_" gradientUnits="userSpaceOnUse" x1="548.33" x2="-367.994" xlink:href="#lg4" y1="308.301" y2="-122.824"/><linearGradient id="SVGID_31_" gradientUnits="userSpaceOnUse" x1="135.833" x2="265.82" xlink:href="#lg1" y1="135.752" y2="265.74"/><linearGradient id="SVGID_32_" gradientUnits="userSpaceOnUse" x1="306.417" x2="437.735" xlink:href="#lg1" y1="135.339" y2="266.657"/><linearGradient id="SVGID_33_" gradientUnits="userSpaceOnUse" x1="192.482" x2="-10.574" xlink:href="#lg2" y1="199.124" y2="-212.846"/><linearGradient id="SVGID_34_" gradientUnits="userSpaceOnUse" x1="344.833" x2="141.776" xlink:href="#lg2" y1="196.874" y2="-215.095"/><linearGradient id="SVGID_35_" gradientUnits="userSpaceOnUse" x1="290.909" x2="131.938" xlink:href="#lg9" y1="185.963" y2="26.992"/><linearGradient id="SVGID_36_" gradientUnits="userSpaceOnUse" x1="213.662" x2="225.657" xlink:href="#lg1" y1="113.807" y2="125.802"/><linearGradient id="SVGID_37_" gradientUnits="userSpaceOnUse" x1="251.346" x2="271.458" xlink:href="#lg3" y1="82.834" y2="102.946"/><linearGradient id="SVGID_38_" gradientUnits="userSpaceOnUse" x1="255" x2="255" xlink:href="#lg3" y1="333.693" y2="304.597"/><linearGradient id="SVGID_39_" gradientUnits="userSpaceOnUse" x1="255" x2="255" xlink:href="#lg1" y1="315.639" y2="328.287"/><linearGradient id="SVGID_40_" gradientUnits="userSpaceOnUse" x1="255" x2="255" xlink:href="#lg3" y1="356.163" y2="327.067"/><linearGradient id="SVGID_41_" gradientUnits="userSpaceOnUse" x1="255" x2="255" xlink:href="#lg1" y1="338.109" y2="350.757"/><linearGradient id="SVGID_42_" gradientUnits="userSpaceOnUse" x1="255" x2="255" xlink:href="#lg3" y1="378.633" y2="349.537"/><linearGradient id="SVGID_43_" gradientUnits="userSpaceOnUse" x1="255" x2="255" xlink:href="#lg1" y1="360.579" y2="373.227"/><linearGradient id="SVGID_44_" gradientUnits="userSpaceOnUse" x1="255" x2="255" xlink:href="#lg3" y1="401.103" y2="372.007"/><linearGradient id="SVGID_45_" gradientUnits="userSpaceOnUse" x1="255" x2="255" xlink:href="#lg1" y1="383.048" y2="395.697"/><linearGradient id="SVGID_46_" gradientUnits="userSpaceOnUse" x1="91.294" x2="144.284" xlink:href="#lg6" y1="347.258" y2="400.248"/><linearGradient id="lg10"><stop offset="0" stop-color="#fff" stop-opacity="0"/><stop offset="1" stop-color="#fff"/></linearGradient><linearGradient id="SVGID_47_" gradientUnits="userSpaceOnUse" x1="111.511" x2="86.267" xlink:href="#lg10" y1="369.525" y2="333.736"/><linearGradient id="SVGID_48_" gradientUnits="userSpaceOnUse" x1="108.023" x2="164.261" xlink:href="#lg7" y1="378.246" y2="273.651"/><linearGradient id="SVGID_49_" gradientUnits="userSpaceOnUse" x1="388.09" x2="441.08" xlink:href="#lg6" y1="347.258" y2="400.248"/><linearGradient id="SVGID_50_" gradientUnits="userSpaceOnUse" x1="408.307" x2="383.063" xlink:href="#lg10" y1="369.525" y2="333.736"/><linearGradient id="SVGID_51_" gradientUnits="userSpaceOnUse" x1="404.819" x2="461.057" xlink:href="#lg7" y1="378.246" y2="273.651"/><linearGradient id="SVGID_52_" gradientUnits="userSpaceOnUse" x1="134.632" x2="50.798" xlink:href="#lg3" y1="64.929" y2="-18.906"/><linearGradient id="SVGID_53_" gradientUnits="userSpaceOnUse" x1="113.29" x2="137.905" xlink:href="#lg6" y1="43.586" y2="68.202"/><linearGradient id="SVGID_54_" gradientUnits="userSpaceOnUse" x1="122.681" x2="110.954" xlink:href="#lg10" y1="53.93" y2="37.305"/><linearGradient id="SVGID_55_" gradientUnits="userSpaceOnUse" x1="121.061" x2="147.185" xlink:href="#lg7" y1="57.981" y2="9.394"/><linearGradient id="SVGID_56_" gradientUnits="userSpaceOnUse" x1="403.831" x2="319.997" xlink:href="#lg3" y1="64.929" y2="-18.906"/><linearGradient id="SVGID_57_" gradientUnits="userSpaceOnUse" x1="382.488" x2="407.104" xlink:href="#lg6" y1="43.586" y2="68.202"/><linearGradient id="SVGID_58_" gradientUnits="userSpaceOnUse" x1="391.88" x2="380.153" xlink:href="#lg10" y1="53.93" y2="37.305"/><linearGradient id="SVGID_59_" gradientUnits="userSpaceOnUse" x1="390.26" x2="416.384" xlink:href="#lg7" y1="57.981" y2="9.394"/><path d="m44.312 169.577h-16.836v-37.353c0-15.711 12.782-28.493 28.493-28.493h28.003v16.837h-28.003c-6.428 0-11.657 5.229-11.657 11.657z" fill="#555a66"/><path d="m48.846 246.467h-25.904c-4.935 0-8.936-4.001-8.936-8.936v-65.189c0-4.935 4.001-8.936 8.936-8.936h25.904c4.935 0 8.936 4.001 8.936 8.936v65.189c-.001 4.935-4.001 8.936-8.936 8.936z" fill="url(#SVGID_1_)"/><path d="m29.112 169.577c-4.935 0-8.936 4.001-8.936 8.936v65.189c0 .841.124 1.652.342 2.424.772.217 1.582.342 2.424.342h25.904c4.935 0 8.936-4.001 8.936-8.936v-65.189c0-.841-.124-1.652-.342-2.424-.772-.217-1.583-.342-2.424-.342z" fill="url(#SVGID_2_)"/><path d="m465.688 169.577h16.837v-37.353c0-15.711-12.782-28.493-28.493-28.493h-28.003v16.837h28.003c6.428 0 11.657 5.229 11.657 11.657v37.352z" fill="#555a66"/><path d="m487.058 246.467h-25.904c-4.935 0-8.936-4.001-8.936-8.936v-65.189c0-4.935 4.001-8.936 8.936-8.936h25.904c4.935 0 8.936 4.001 8.936 8.936v65.189c0 4.935-4.001 8.936-8.936 8.936z" fill="url(#SVGID_3_)"/><path d="m467.325 169.577c-4.935 0-8.936 4.001-8.936 8.936v65.189c0 .841.124 1.652.342 2.424.772.217 1.582.342 2.424.342h25.904c4.935 0 8.936-4.001 8.936-8.936v-65.189c0-.841-.124-1.652-.342-2.424-.772-.217-1.582-.342-2.424-.342z" fill="url(#SVGID_4_)"/><path d="m426.704 376.657h-343.408c-8.555 0-15.49-6.935-15.49-15.49v-280.792c0-22.821 13.976-43.313 35.222-51.644 97.694-38.308 206.252-38.308 303.946 0 21.246 8.331 35.221 28.823 35.221 51.644v280.791c0 8.555-6.936 15.491-15.491 15.491z" fill="url(#SVGID_5_)"/><path d="m406.973 28.731c-48.847-19.154-100.41-28.731-151.973-28.731v376.657h171.704c8.555 0 15.49-6.935 15.49-15.49v-280.792c.001-22.821-13.975-43.313-35.221-51.644z" fill="url(#SVGID_6_)"/><path d="m417.468 366.526h-324.936c-8.095 0-14.657-6.562-14.657-14.657v-265.687c0-21.593 13.224-40.983 33.327-48.866 92.439-36.248 195.157-36.248 287.596 0 20.103 7.883 33.327 27.273 33.327 48.866v265.687c0 8.095-6.562 14.657-14.657 14.657z" fill="url(#SVGID_7_)"/><path d="m355.24 70.6h-200.479c-4.086 0-7.398-3.312-7.398-7.398v-25.009c0-4.086 3.312-7.398 7.398-7.398h200.479c4.086 0 7.398 3.312 7.398 7.398v25.008c0 4.086-3.312 7.399-7.398 7.399z" fill="url(#SVGID_8_)"/><path d="m355.269 39.312c-.256-.668-.898-1.145-1.656-1.145h-197.226c-.982 0-1.777.796-1.777 1.777v21.506c0 .758.477 1.401 1.145 1.656l51.183 51.182c.256.668.898 1.145 1.656 1.145h197.226c.982 0 1.777-.796 1.777-1.778v-21.504c0-.758-.477-1.401-1.145-1.656z" fill="url(#SVGID_9_)"/><path d="m353.613 63.227h-197.226c-.982 0-1.777-.796-1.777-1.777v-21.505c0-.982.796-1.777 1.777-1.777h197.226c.982 0 1.777.796 1.777 1.777v21.505c0 .982-.795 1.777-1.777 1.777z" fill="url(#SVGID_10_)"/><path d="m159.91 45.245c0-.982.796-1.777 1.778-1.777h193.702v-3.523c0-.982-.796-1.777-1.777-1.777h-197.226c-.982 0-1.777.796-1.777 1.777v21.505c0 .982.796 1.777 1.777 1.777h3.523z" fill="url(#SVGID_11_)"/><path d="m168.603 390.769h172.794c2.48 0 4.49 2.01 4.49 4.49 0 2.48-2.01 4.49-4.49 4.49h-172.794c-2.48 0-4.49-2.01-4.49-4.49 0-2.48 2.011-4.49 4.49-4.49z" fill="url(#SVGID_12_)"/><path d="m168.603 378.368h172.794c2.48 0 4.49 2.01 4.49 4.49 0 2.48-2.01 4.49-4.49 4.49h-172.794c-2.48 0-4.49-2.01-4.49-4.49 0-2.48 2.011-4.49 4.49-4.49z" fill="url(#SVGID_13_)"/><path d="m168.603 365.966h172.794c2.48 0 4.49 2.01 4.49 4.49 0 2.48-2.01 4.49-4.49 4.49h-172.794c-2.48 0-4.49-2.01-4.49-4.49 0-2.48 2.011-4.49 4.49-4.49z" fill="url(#SVGID_14_)"/><path d="m168.603 353.565h172.794c2.48 0 4.49 2.01 4.49 4.49 0 2.48-2.01 4.49-4.49 4.49h-172.794c-2.48 0-4.49-2.01-4.49-4.49 0-2.48 2.011-4.49 4.49-4.49z" fill="url(#SVGID_15_)"/><path d="m448.267 425.36h-386.534c-7.296 0-13.21-5.914-13.21-13.21v-98.045c0-10.775 7.587-20.061 18.147-22.208l2.859-.581c123.378-25.086 250.561-24.903 373.866.54 10.529 2.173 18.082 11.444 18.082 22.194v98.099c.001 7.297-5.914 13.211-13.21 13.211z" fill="url(#SVGID_16_)"/><path d="m461.478 325.249v-11.199c0-10.751-7.553-20.022-18.082-22.194-123.305-25.443-250.488-25.626-373.866-.54l-2.86.581c-10.559 2.147-18.147 11.432-18.147 22.208v11.144z" fill="url(#SVGID_17_)"/><path d="m437.606 425.36h-365.212c-6.894 0-12.482-5.425-12.482-12.118v-89.936c0-9.884 7.169-18.402 17.146-20.371l2.702-.533c116.573-23.012 236.74-22.843 353.244.495 9.948 1.993 17.085 10.497 17.085 20.359v89.986c-.001 6.693-5.589 12.118-12.483 12.118z" fill="url(#SVGID_18_)"/><path d="m443.395 291.856c-62.141-12.822-125.267-19.221-188.395-19.211v152.715h193.267c7.296 0 13.21-5.914 13.21-13.21v-98.099c.001-10.751-7.553-20.022-18.082-22.195z" fill="url(#SVGID_19_)"/><path d="m227.178 425.357h-115.557l-32.39-32.39c-8.314-7.49-13.541-18.335-13.541-30.404 0-22.595 18.315-40.91 40.91-40.91 12.069 0 22.914 5.227 30.404 13.54z" fill="url(#SVGID_20_)"/><path d="m461.482 362.871v49.275c0 7.305-5.916 13.211-13.211 13.211h-39.86l-32.39-32.39c-8.314-7.49-13.54-18.335-13.54-30.404 0-22.595 18.325-40.91 40.92-40.91 12.069 0 22.914 5.227 30.404 13.54z" fill="url(#SVGID_21_)"/><path d="m156.481 510h-70.558c-8.856 0-16.035-7.179-16.035-16.035v-55.134h102.628v55.134c0 8.856-7.179 16.035-16.035 16.035z" fill="url(#SVGID_22_)"/><path d="m69.888 438.831v28.833l.052-.025 42.362 42.361h44.179c8.856 0 16.035-7.179 16.035-16.035v-55.134z" fill="url(#SVGID_23_)"/><path d="m121.202 510h35.279c8.856 0 16.035-7.179 16.035-16.035v-55.134h-51.314z" fill="url(#SVGID_24_)"/><path d="m424.077 510h-70.558c-8.856 0-16.035-7.179-16.035-16.035v-55.134h102.628v55.134c0 8.856-7.179 16.035-16.035 16.035z" fill="url(#SVGID_25_)"/><path d="m337.484 438.831v28.833l.052-.025 42.362 42.361h44.179c8.856 0 16.035-7.179 16.035-16.035v-55.134z" fill="url(#SVGID_26_)"/><path d="m388.798 510h35.279c8.856 0 16.035-7.179 16.035-16.035v-55.134h-51.314z" fill="url(#SVGID_27_)"/><path d="m335.869 425.36h-161.738c-3.053 0-5.528-5.425-5.528-12.118v-89.936c0-9.884 3.175-18.402 7.593-20.371l1.197-.533c51.625-23.012 104.843-22.843 156.438.495 4.406 1.993 7.566 10.497 7.566 20.359v89.986c0 6.693-2.475 12.118-5.528 12.118z" fill="url(#SVGID_28_)"/><path d="m462.399 467.639h-414.798c-6.329 0-11.46-5.131-11.46-11.46v-34.694c0-6.329 5.131-11.46 11.46-11.46h414.799c6.329 0 11.46 5.131 11.46 11.46v34.694c0 6.329-5.131 11.46-11.461 11.46z" fill="url(#SVGID_29_)"/><path d="m419.775 261.914h-329.55c-3.271 0-5.923-2.652-5.923-5.923v-171.401c0-3.271 2.652-5.923 5.923-5.923h329.551c3.271 0 5.923 2.652 5.923 5.923v171.402c-.001 3.271-2.653 5.922-5.924 5.922z" fill="url(#SVGID_30_)"/><path d="m98.073 86.49h146.905v162.122c0 3.027-2.454 5.481-5.481 5.481h-141.424c-3.077 0-5.571-2.494-5.571-5.571v-156.461c0-3.077 2.494-5.571 5.571-5.571z" fill="url(#SVGID_31_)"/><path d="m417.498 92.061v156.461c0 3.077-2.494 5.571-5.571 5.571h-140.961c-3.283 0-5.944-2.661-5.944-5.944v-161.659h146.905c3.077 0 5.571 2.494 5.571 5.571z" fill="url(#SVGID_32_)"/><path d="m120.646 101.505h124.332v137.574h-124.332c-8.062 0-14.594-6.532-14.594-14.594v-108.395c-.001-8.053 6.531-14.585 14.594-14.585z" fill="url(#SVGID_33_)"/><path d="m403.949 116.09v108.394c0 8.062-6.532 14.594-14.594 14.594h-124.333v-137.573h124.332c8.063 0 14.595 6.532 14.595 14.585z" fill="url(#SVGID_34_)"/><path d="m264.383 78.935c-2.209-2.741-5.589-4.497-9.383-4.497-6.656 0-12.051 5.395-12.051 12.051 0 1.113.163 2.186.446 3.21l-60.708 60.708c-2.191 2.191-2.191 5.744 0 7.936l93.301 93.301c2.191 2.191 5.744 2.191 7.936 0l60.465-60.465c1.228.422 2.541.662 3.912.662 6.655 0 12.051-5.395 12.051-12.051 0-3.794-1.757-7.174-4.497-9.383z" fill="url(#SVGID_35_)"/><path d="m182.687 158.342c-2.191-2.191-2.191-5.744 0-7.936l67.574-67.574c2.191-2.191 5.744-2.191 7.936 0 2.191 2.191 2.191 5.744 0 7.936l-67.574 67.574c-2.191 2.191-5.744 2.191-7.936 0z" fill="url(#SVGID_36_)"/><circle cx="255" cy="86.488" fill="url(#SVGID_37_)" r="12.051"/><path d="m313.145 330.758h-116.29c-5.01 0-9.072-4.062-9.072-9.072v-.153c0-5.01 4.062-9.072 9.072-9.072h116.29c5.01 0 9.072 4.062 9.072 9.072v.153c0 5.01-4.062 9.072-9.072 9.072z" fill="url(#SVGID_38_)"/><path d="m313.712 326.636h-117.423c-2.701 0-4.89-2.189-4.89-4.89v-.274c0-2.701 2.189-4.89 4.89-4.89h117.423c2.701 0 4.89 2.189 4.89 4.89v.274c-.001 2.701-2.19 4.89-4.89 4.89z" fill="url(#SVGID_39_)"/><path d="m313.145 353.228h-116.29c-5.01 0-9.072-4.062-9.072-9.072v-.153c0-5.01 4.062-9.072 9.072-9.072h116.29c5.01 0 9.072 4.062 9.072 9.072v.153c0 5.01-4.062 9.072-9.072 9.072z" fill="url(#SVGID_40_)"/><path d="m313.712 349.106h-117.423c-2.701 0-4.89-2.189-4.89-4.89v-.274c0-2.701 2.189-4.89 4.89-4.89h117.423c2.701 0 4.89 2.189 4.89 4.89v.274c-.001 2.701-2.19 4.89-4.89 4.89z" fill="url(#SVGID_41_)"/><path d="m313.145 375.698h-116.29c-5.01 0-9.072-4.062-9.072-9.072v-.153c0-5.01 4.062-9.072 9.072-9.072h116.29c5.01 0 9.072 4.062 9.072 9.072v.153c0 5.01-4.062 9.072-9.072 9.072z" fill="url(#SVGID_42_)"/><path d="m313.712 371.576h-117.423c-2.701 0-4.89-2.189-4.89-4.89v-.274c0-2.701 2.189-4.89 4.89-4.89h117.423c2.701 0 4.89 2.189 4.89 4.89v.274c-.001 2.701-2.19 4.89-4.89 4.89z" fill="url(#SVGID_43_)"/><path d="m313.145 398.167h-116.29c-5.01 0-9.072-4.062-9.072-9.072v-.153c0-5.01 4.062-9.072 9.072-9.072h116.29c5.01 0 9.072 4.062 9.072 9.072v.153c0 5.011-4.062 9.072-9.072 9.072z" fill="url(#SVGID_44_)"/><path d="m313.712 394.046h-117.423c-2.701 0-4.89-2.189-4.89-4.89v-.274c0-2.701 2.189-4.89 4.89-4.89h117.423c2.701 0 4.89 2.189 4.89 4.89v.274c-.001 2.701-2.19 4.89-4.89 4.89z" fill="url(#SVGID_45_)"/><circle cx="106.602" cy="362.566" fill="url(#SVGID_46_)" r="40.914"/><circle cx="106.602" cy="362.566" fill="url(#SVGID_47_)" r="34.146"/><path d="m124.904 325.967c2.759 5.507 4.315 11.723 4.315 18.302 0 22.596-18.318 40.914-40.914 40.914-6.579 0-12.795-1.555-18.302-4.315 6.718 13.407 20.582 22.612 36.599 22.612 22.596 0 40.914-18.318 40.914-40.914 0-16.017-9.205-29.882-22.612-36.599z" fill="url(#SVGID_48_)"/><circle cx="403.398" cy="362.566" fill="url(#SVGID_49_)" r="40.914"/><circle cx="403.398" cy="362.566" fill="url(#SVGID_50_)" r="34.146"/><path d="m421.7 325.967c2.759 5.507 4.315 11.723 4.315 18.302 0 22.596-18.318 40.914-40.914 40.914-6.579 0-12.795-1.555-18.302-4.315 6.718 13.407 20.582 22.612 36.599 22.612 22.596 0 40.914-18.318 40.914-40.914 0-16.017-9.205-29.882-22.612-36.599z" fill="url(#SVGID_51_)"/><circle cx="120.401" cy="50.697" fill="url(#SVGID_52_)" r="22.019"/><circle cx="120.401" cy="50.697" fill="url(#SVGID_53_)" r="19.006"/><circle cx="120.401" cy="50.697" fill="url(#SVGID_54_)" r="15.862"/><path d="m128.902 33.696c1.282 2.558 2.004 5.445 2.004 8.502 0 10.497-8.509 19.006-19.006 19.006-3.056 0-5.943-.723-8.502-2.004 3.12 6.228 9.561 10.504 17.001 10.504 10.497 0 19.006-8.509 19.006-19.006.001-7.441-4.275-13.881-10.503-17.002z" fill="url(#SVGID_55_)"/><circle cx="389.599" cy="50.697" fill="url(#SVGID_56_)" r="22.019"/><circle cx="389.599" cy="50.697" fill="url(#SVGID_57_)" r="19.006"/><circle cx="389.599" cy="50.697" fill="url(#SVGID_58_)" r="15.862"/><path d="m398.101 33.696c1.282 2.558 2.004 5.445 2.004 8.502 0 10.497-8.509 19.006-19.006 19.006-3.056 0-5.944-.723-8.502-2.004 3.121 6.228 9.561 10.504 17.001 10.504 10.497 0 19.006-8.509 19.006-19.006.001-7.441-4.275-13.881-10.503-17.002z" fill="url(#SVGID_59_)"/></svg>