<svg id="Capa_1" enable-background="new 0 0 510 510" height="512" viewBox="0 0 510 510" width="512" xmlns="http://www.w3.org/2000/svg" xmlns:xlink="http://www.w3.org/1999/xlink"><linearGradient id="lg1"><stop offset="0" stop-color="#ff7044"/><stop offset="1" stop-color="#f92814"/></linearGradient><linearGradient id="SVGID_1_" gradientUnits="userSpaceOnUse" x1="236.748" x2="452.595" xlink:href="#lg1" y1="-109.487" y2="919.062"/><linearGradient id="SVGID_2_" gradientUnits="userSpaceOnUse" x1="334.208" x2="236.09" y1="174.286" y2="-109.165"><stop offset="0" stop-color="#ff7044" stop-opacity="0"/><stop offset="1" stop-color="#ffa425"/></linearGradient><linearGradient id="SVGID_3_" gradientUnits="userSpaceOnUse" x1="260.508" x2="260.508" xlink:href="#lg1" y1="-1.606" y2="154.899"/><linearGradient id="SVGID_4_" gradientUnits="userSpaceOnUse" x1="511.969" x2="422.573" xlink:href="#lg1" y1="249.492" y2="249.492"/><linearGradient id="lg2"><stop offset="0" stop-color="#ffda45"/><stop offset="1" stop-color="#ffa425"/></linearGradient><linearGradient id="SVGID_5_" gradientTransform="matrix(0 -1 1 0 112.479 48.242)" gradientUnits="userSpaceOnUse" x1="23.125" x2="23.125" xlink:href="#lg2" y1="-52.845" y2="-41.568"/><linearGradient id="SVGID_6_" gradientTransform="matrix(0 -1 1 0 112.479 48.242)" gradientUnits="userSpaceOnUse" x1="28.579" x2="28.579" xlink:href="#lg2" y1="-22.138" y2="-10.86"/><linearGradient id="SVGID_7_" gradientTransform="matrix(0 -1 1 0 112.479 48.242)" gradientUnits="userSpaceOnUse" x1="28.579" x2="28.579" xlink:href="#lg2" y1="8.57" y2="19.847"/><linearGradient id="SVGID_8_" gradientTransform="matrix(0 -1 1 0 112.479 48.242)" gradientUnits="userSpaceOnUse" x1="23.125" x2="23.125" xlink:href="#lg2" y1="39.277" y2="50.554"/><linearGradient id="SVGID_9_" gradientTransform="matrix(0 -1 1 0 112.479 48.242)" gradientUnits="userSpaceOnUse" x1="28.579" x2="28.579" xlink:href="#lg2" y1="69.985" y2="81.262"/><linearGradient id="SVGID_10_" gradientTransform="matrix(0 -1 1 0 112.479 48.242)" gradientUnits="userSpaceOnUse" x1="28.579" x2="28.579" xlink:href="#lg2" y1="100.692" y2="111.969"/><linearGradient id="SVGID_11_" gradientTransform="matrix(0 -1 1 0 112.479 48.242)" gradientUnits="userSpaceOnUse" x1="23.125" x2="23.125" xlink:href="#lg2" y1="131.399" y2="142.676"/><linearGradient id="SVGID_12_" gradientTransform="matrix(0 -1 1 0 112.479 48.242)" gradientUnits="userSpaceOnUse" x1="28.579" x2="28.579" xlink:href="#lg2" y1="162.107" y2="173.384"/><linearGradient id="SVGID_13_" gradientTransform="matrix(0 -1 1 0 112.479 48.242)" gradientUnits="userSpaceOnUse" x1="28.579" x2="28.579" xlink:href="#lg2" y1="192.814" y2="204.091"/><linearGradient id="SVGID_14_" gradientTransform="matrix(0 -1 1 0 112.479 48.242)" gradientUnits="userSpaceOnUse" x1="23.125" x2="23.125" xlink:href="#lg2" y1="223.521" y2="234.799"/><linearGradient id="SVGID_15_" gradientTransform="matrix(0 -1 1 0 112.479 48.242)" gradientUnits="userSpaceOnUse" x1="28.579" x2="28.579" xlink:href="#lg2" y1="254.229" y2="265.506"/><linearGradient id="SVGID_16_" gradientTransform="matrix(0 -1 1 0 112.479 48.242)" gradientUnits="userSpaceOnUse" x1="28.579" x2="28.579" xlink:href="#lg2" y1="284.936" y2="296.213"/><linearGradient id="SVGID_17_" gradientTransform="matrix(0 -1 1 0 112.479 48.242)" gradientUnits="userSpaceOnUse" x1="23.125" x2="23.125" xlink:href="#lg2" y1="315.644" y2="326.921"/><linearGradient id="SVGID_18_" gradientUnits="userSpaceOnUse" x1="484.883" x2="484.883" xlink:href="#lg2" y1="63.972" y2="75.249"/><linearGradient id="SVGID_19_" gradientUnits="userSpaceOnUse" x1="490.337" x2="490.337" xlink:href="#lg2" y1="94.679" y2="105.957"/><linearGradient id="SVGID_20_" gradientUnits="userSpaceOnUse" x1="490.337" x2="490.337" xlink:href="#lg2" y1="125.387" y2="136.664"/><linearGradient id="SVGID_21_" gradientUnits="userSpaceOnUse" x1="484.883" x2="484.883" xlink:href="#lg2" y1="156.094" y2="167.371"/><linearGradient id="SVGID_22_" gradientUnits="userSpaceOnUse" x1="490.337" x2="490.337" xlink:href="#lg2" y1="186.801" y2="198.078"/><linearGradient id="SVGID_23_" gradientUnits="userSpaceOnUse" x1="490.337" x2="490.337" xlink:href="#lg2" y1="217.509" y2="228.786"/><linearGradient id="SVGID_24_" gradientUnits="userSpaceOnUse" x1="484.883" x2="484.883" xlink:href="#lg2" y1="248.216" y2="259.493"/><linearGradient id="SVGID_25_" gradientUnits="userSpaceOnUse" x1="490.337" x2="490.337" xlink:href="#lg2" y1="278.923" y2="290.201"/><linearGradient id="SVGID_26_" gradientUnits="userSpaceOnUse" x1="490.337" x2="490.337" xlink:href="#lg2" y1="309.631" y2="320.908"/><linearGradient id="SVGID_27_" gradientUnits="userSpaceOnUse" x1="484.883" x2="484.883" xlink:href="#lg2" y1="340.338" y2="351.615"/><linearGradient id="SVGID_28_" gradientUnits="userSpaceOnUse" x1="490.337" x2="490.337" xlink:href="#lg2" y1="371.045" y2="382.323"/><linearGradient id="SVGID_29_" gradientUnits="userSpaceOnUse" x1="490.337" x2="490.337" xlink:href="#lg2" y1="401.753" y2="413.03"/><linearGradient id="SVGID_30_" gradientUnits="userSpaceOnUse" x1="484.883" x2="484.883" xlink:href="#lg2" y1="432.46" y2="443.737"/><linearGradient id="lg3"><stop offset="0" stop-color="#92f37f"/><stop offset="1" stop-color="#4ab272"/></linearGradient><linearGradient id="SVGID_31_" gradientUnits="userSpaceOnUse" x1="16.64" x2="51.075" xlink:href="#lg3" y1="473.465" y2="507.9"/><linearGradient id="lg4"><stop offset="0" stop-color="#92f37f" stop-opacity="0"/><stop offset="1" stop-color="#ffee83"/></linearGradient><linearGradient id="SVGID_32_" gradientUnits="userSpaceOnUse" x1="29.777" x2="13.373" xlink:href="#lg4" y1="487.935" y2="464.678"/><linearGradient id="lg5"><stop offset="0" stop-color="#4ab272" stop-opacity="0"/><stop offset="1" stop-color="#009245"/></linearGradient><linearGradient id="SVGID_33_" gradientUnits="userSpaceOnUse" x1="27.511" x2="64.056" xlink:href="#lg5" y1="493.602" y2="425.633"/><linearGradient id="SVGID_34_" gradientUnits="userSpaceOnUse" x1="16.64" x2="51.075" xlink:href="#lg3" y1="91.488" y2="125.923"/><linearGradient id="SVGID_35_" gradientUnits="userSpaceOnUse" x1="29.777" x2="13.373" xlink:href="#lg4" y1="105.958" y2="82.701"/><linearGradient id="SVGID_36_" gradientUnits="userSpaceOnUse" x1="27.511" x2="64.056" xlink:href="#lg5" y1="111.625" y2="43.656"/><linearGradient id="SVGID_37_" gradientUnits="userSpaceOnUse" x1="398.909" x2="433.344" xlink:href="#lg3" y1="473.465" y2="507.9"/><linearGradient id="SVGID_38_" gradientUnits="userSpaceOnUse" x1="412.047" x2="395.643" xlink:href="#lg4" y1="487.935" y2="464.678"/><linearGradient id="SVGID_39_" gradientUnits="userSpaceOnUse" x1="409.781" x2="446.326" xlink:href="#lg5" y1="493.602" y2="425.633"/><path d="m491.149 0h-459.329c-13.586 0-20.389 16.426-10.783 26.032l462.931 462.931c9.606 9.606 26.032 2.803 26.032-10.783v-459.329c0-10.411-8.44-18.851-18.851-18.851zm-82.296 289.33c0 5.346-6.464 8.024-10.245 4.243l-182.181-182.181c-3.781-3.781-1.103-10.245 4.243-10.245h180.764c4.097 0 7.419 3.322 7.419 7.419z" fill="url(#SVGID_1_)"/><path d="m491.146 64.173h-394.512c-5.711 0-8.572 6.905-4.533 10.944l413.654 413.654c2.584-2.638 4.241-6.269 4.241-10.597v-395.151c0-10.411-8.44-18.85-18.85-18.85zm-82.289 225.159c0 5.342-6.465 8.024-10.248 4.241l-182.182-182.182c-3.783-3.783-1.101-10.248 4.241-10.248h180.765c4.099 0 7.424 3.325 7.424 7.424z" fill="url(#SVGID_2_)"/><path d="m504.479 5.521c-3.412-3.412-8.122-5.516-13.333-5.516h-459.321c-13.595 0-20.398 16.418-10.793 26.023l24.203 24.202h414.535z" fill="url(#SVGID_3_)"/><path d="m459.77 464.765 24.202 24.202c9.604 9.605 26.023 2.802 26.023-10.793v-459.32c0-5.211-2.104-9.921-5.516-13.333l-44.709 44.709z" fill="url(#SVGID_4_)"/><path d="m66.391 13.957v22.32c0 3.027-2.454 5.48-5.481 5.48-3.027 0-5.481-2.454-5.481-5.48v-22.32c0-3.027 2.454-5.481 5.481-5.481 3.027 0 5.481 2.454 5.481 5.481z" fill="url(#SVGID_5_)"/><path d="m97.098 13.957v11.411c0 3.027-2.454 5.481-5.481 5.481-3.027 0-5.481-2.454-5.481-5.481v-11.411c0-3.027 2.454-5.481 5.481-5.481 3.027 0 5.481 2.454 5.481 5.481z" fill="url(#SVGID_6_)"/><path d="m127.805 13.957v11.411c0 3.027-2.454 5.481-5.481 5.481-3.027 0-5.481-2.454-5.481-5.481v-11.411c0-3.027 2.454-5.481 5.481-5.481 3.028 0 5.481 2.454 5.481 5.481z" fill="url(#SVGID_7_)"/><path d="m158.513 13.957v22.32c0 3.027-2.454 5.48-5.48 5.48-3.027 0-5.481-2.454-5.481-5.48v-22.32c0-3.027 2.454-5.481 5.481-5.481 3.026 0 5.48 2.454 5.48 5.481z" fill="url(#SVGID_8_)"/><path d="m189.22 13.957v11.411c0 3.027-2.454 5.481-5.481 5.481-3.027 0-5.481-2.454-5.481-5.481v-11.411c0-3.027 2.454-5.481 5.481-5.481 3.027 0 5.481 2.454 5.481 5.481z" fill="url(#SVGID_9_)"/><path d="m219.928 13.957v11.411c0 3.027-2.454 5.481-5.481 5.481-3.027 0-5.481-2.454-5.481-5.481v-11.411c0-3.027 2.454-5.481 5.481-5.481 3.027 0 5.481 2.454 5.481 5.481z" fill="url(#SVGID_10_)"/><path d="m250.635 13.957v22.32c0 3.027-2.454 5.48-5.481 5.48-3.027 0-5.48-2.454-5.48-5.48v-22.32c0-3.027 2.454-5.481 5.48-5.481 3.027 0 5.481 2.454 5.481 5.481z" fill="url(#SVGID_11_)"/><path d="m281.342 13.957v11.411c0 3.027-2.454 5.481-5.481 5.481-3.027 0-5.481-2.454-5.481-5.481v-11.411c0-3.027 2.454-5.481 5.481-5.481 3.027 0 5.481 2.454 5.481 5.481z" fill="url(#SVGID_12_)"/><path d="m312.05 13.957v11.411c0 3.027-2.454 5.481-5.48 5.481-3.027 0-5.481-2.454-5.481-5.481v-11.411c0-3.027 2.454-5.481 5.481-5.481 3.026 0 5.48 2.454 5.48 5.481z" fill="url(#SVGID_13_)"/><path d="m342.757 13.957v22.32c0 3.027-2.454 5.48-5.481 5.48-3.027 0-5.481-2.454-5.481-5.48v-22.32c0-3.027 2.454-5.481 5.481-5.481 3.027 0 5.481 2.454 5.481 5.481z" fill="url(#SVGID_14_)"/><path d="m373.464 13.957v11.411c0 3.027-2.454 5.481-5.481 5.481-3.027 0-5.481-2.454-5.481-5.481v-11.411c0-3.027 2.454-5.481 5.481-5.481 3.028 0 5.481 2.454 5.481 5.481z" fill="url(#SVGID_15_)"/><path d="m404.172 13.957v11.411c0 3.027-2.454 5.481-5.481 5.481-3.027 0-5.48-2.454-5.48-5.481v-11.411c0-3.027 2.454-5.481 5.48-5.481 3.027 0 5.481 2.454 5.481 5.481z" fill="url(#SVGID_16_)"/><path d="m434.879 13.957v22.32c0 3.027-2.454 5.48-5.481 5.48-3.027 0-5.481-2.454-5.481-5.48v-22.32c0-3.027 2.454-5.481 5.481-5.481 3.027 0 5.481 2.454 5.481 5.481z" fill="url(#SVGID_17_)"/><path d="m496.043 70.728h-22.32c-3.027 0-5.48-2.454-5.48-5.481 0-3.027 2.454-5.481 5.48-5.481h22.32c3.027 0 5.48 2.454 5.48 5.481 0 3.028-2.453 5.481-5.48 5.481z" fill="url(#SVGID_18_)"/><path d="m496.043 101.436h-11.411c-3.027 0-5.48-2.454-5.48-5.481 0-3.027 2.454-5.481 5.48-5.481h11.411c3.027 0 5.48 2.454 5.48 5.481 0 3.027-2.453 5.481-5.48 5.481z" fill="url(#SVGID_19_)"/><path d="m496.043 132.143h-11.411c-3.027 0-5.48-2.454-5.48-5.481 0-3.027 2.454-5.48 5.48-5.48h11.411c3.027 0 5.48 2.454 5.48 5.48 0 3.027-2.453 5.481-5.48 5.481z" fill="url(#SVGID_20_)"/><path d="m496.043 162.85h-22.32c-3.027 0-5.48-2.454-5.48-5.481 0-3.027 2.454-5.481 5.48-5.481h22.32c3.027 0 5.48 2.454 5.48 5.481 0 3.028-2.453 5.481-5.48 5.481z" fill="url(#SVGID_21_)"/><path d="m496.043 193.558h-11.411c-3.027 0-5.48-2.454-5.48-5.48 0-3.027 2.454-5.481 5.48-5.481h11.411c3.027 0 5.48 2.454 5.48 5.481 0 3.026-2.453 5.48-5.48 5.48z" fill="url(#SVGID_22_)"/><path d="m496.043 224.265h-11.411c-3.027 0-5.48-2.454-5.48-5.481 0-3.027 2.454-5.481 5.48-5.481h11.411c3.027 0 5.48 2.454 5.48 5.481 0 3.027-2.453 5.481-5.48 5.481z" fill="url(#SVGID_23_)"/><path d="m496.043 254.973h-22.32c-3.027 0-5.48-2.454-5.48-5.481 0-3.027 2.454-5.481 5.48-5.481h22.32c3.027 0 5.48 2.454 5.48 5.481 0 3.027-2.453 5.481-5.48 5.481z" fill="url(#SVGID_24_)"/><path d="m496.043 285.68h-11.411c-3.027 0-5.48-2.454-5.48-5.481 0-3.027 2.454-5.48 5.48-5.48h11.411c3.027 0 5.48 2.454 5.48 5.48 0 3.027-2.453 5.481-5.48 5.481z" fill="url(#SVGID_25_)"/><path d="m496.043 316.387h-11.411c-3.027 0-5.48-2.454-5.48-5.481 0-3.027 2.454-5.481 5.48-5.481h11.411c3.027 0 5.48 2.454 5.48 5.481 0 3.028-2.453 5.481-5.48 5.481z" fill="url(#SVGID_26_)"/><path d="m496.043 347.095h-22.32c-3.027 0-5.48-2.454-5.48-5.48 0-3.027 2.454-5.481 5.48-5.481h22.32c3.027 0 5.48 2.454 5.48 5.481 0 3.026-2.453 5.48-5.48 5.48z" fill="url(#SVGID_27_)"/><path d="m496.043 377.802h-11.411c-3.027 0-5.48-2.454-5.48-5.481 0-3.027 2.454-5.481 5.48-5.481h11.411c3.027 0 5.48 2.454 5.48 5.481 0 3.027-2.453 5.481-5.48 5.481z" fill="url(#SVGID_28_)"/><path d="m496.043 408.509h-11.411c-3.027 0-5.48-2.454-5.48-5.48 0-3.027 2.454-5.481 5.48-5.481h11.411c3.027 0 5.48 2.454 5.48 5.481 0 3.027-2.453 5.48-5.48 5.48z" fill="url(#SVGID_29_)"/><path d="m496.043 439.217h-22.32c-3.027 0-5.48-2.454-5.48-5.481 0-3.027 2.454-5.48 5.48-5.48h22.32c3.027 0 5.48 2.454 5.48 5.48 0 3.027-2.453 5.481-5.48 5.481z" fill="url(#SVGID_30_)"/><path d="m420.901 501.303h-15c-6.903 0-12.5-5.597-12.5-12.5s5.597-12.5 12.5-12.5h15c6.903 0 12.5 5.597 12.5 12.5s-5.596 12.5-12.5 12.5zm-65 0h-15c-6.903 0-12.5-5.597-12.5-12.5s5.597-12.5 12.5-12.5h15c6.903 0 12.5 5.597 12.5 12.5s-5.596 12.5-12.5 12.5zm-65 0h-15c-6.903 0-12.5-5.597-12.5-12.5s5.597-12.5 12.5-12.5h15c6.903 0 12.5 5.597 12.5 12.5s-5.596 12.5-12.5 12.5zm-65 0h-15c-6.903 0-12.5-5.597-12.5-12.5s5.597-12.5 12.5-12.5h15c6.903 0 12.5 5.597 12.5 12.5s-5.596 12.5-12.5 12.5zm-65 0h-15c-6.903 0-12.5-5.597-12.5-12.5s5.597-12.5 12.5-12.5h15c6.903 0 12.5 5.597 12.5 12.5s-5.596 12.5-12.5 12.5zm-65 0h-15c-6.903 0-12.5-5.597-12.5-12.5s5.597-12.5 12.5-12.5h15c6.903 0 12.5 5.597 12.5 12.5s-5.596 12.5-12.5 12.5zm-65 0h-9.705c-6.903 0-12.5-5.597-12.5-12.5v-5.295c0-6.903 5.597-12.5 12.5-12.5 4.226 0 7.961 2.096 10.224 5.306 6.663.272 11.981 5.76 11.981 12.489 0 6.904-5.596 12.5-12.5 12.5zm-9.704-55.295c-6.903 0-12.5-5.597-12.5-12.5v-15c0-6.903 5.597-12.5 12.5-12.5s12.5 5.597 12.5 12.5v15c0 6.903-5.597 12.5-12.5 12.5zm0-65c-6.903 0-12.5-5.597-12.5-12.5v-15c0-6.903 5.597-12.5 12.5-12.5s12.5 5.597 12.5 12.5v15c0 6.903-5.597 12.5-12.5 12.5zm0-65c-6.903 0-12.5-5.597-12.5-12.5v-15c0-6.903 5.597-12.5 12.5-12.5s12.5 5.597 12.5 12.5v15c0 6.903-5.597 12.5-12.5 12.5zm0-65c-6.903 0-12.5-5.597-12.5-12.5v-15c0-6.903 5.597-12.5 12.5-12.5s12.5 5.597 12.5 12.5v15c0 6.903-5.597 12.5-12.5 12.5zm0-65c-6.903 0-12.5-5.597-12.5-12.5v-15c0-6.903 5.597-12.5 12.5-12.5s12.5 5.597 12.5 12.5v15c0 6.903-5.597 12.5-12.5 12.5zm0-65c-6.903 0-12.5-5.597-12.5-12.5v-15c0-6.903 5.597-12.5 12.5-12.5s12.5 5.597 12.5 12.5v15c0 6.903-5.597 12.5-12.5 12.5z" fill="#7e8595"/><circle cx="26.587" cy="483.413" fill="url(#SVGID_31_)" r="26.587"/><circle cx="26.587" cy="483.413" fill="url(#SVGID_32_)" r="22.189"/><path d="m38.481 459.629c1.793 3.579 2.804 7.618 2.804 11.893 0 14.684-11.904 26.587-26.587 26.587-4.276 0-8.314-1.011-11.893-2.804 4.364 8.713 13.374 14.695 23.782 14.695 14.684 0 26.587-11.904 26.587-26.587.001-10.409-5.981-19.418-14.693-23.784z" fill="url(#SVGID_33_)"/><circle cx="26.587" cy="101.436" fill="url(#SVGID_34_)" r="26.587"/><circle cx="26.587" cy="101.436" fill="url(#SVGID_35_)" r="22.189"/><path d="m38.481 77.652c1.793 3.579 2.804 7.618 2.804 11.893 0 14.684-11.904 26.587-26.587 26.587-4.276 0-8.314-1.011-11.893-2.804 4.365 8.712 13.375 14.694 23.783 14.694 14.684 0 26.587-11.904 26.587-26.587 0-10.407-5.982-19.417-14.694-23.783z" fill="url(#SVGID_36_)"/><circle cx="408.857" cy="483.413" fill="url(#SVGID_37_)" r="26.587"/><circle cx="408.857" cy="483.413" fill="url(#SVGID_38_)" r="22.189"/><path d="m420.75 459.629c1.793 3.579 2.804 7.618 2.804 11.893 0 14.684-11.904 26.587-26.587 26.587-4.276 0-8.315-1.011-11.893-2.804 4.365 8.712 13.375 14.694 23.783 14.694 14.684 0 26.587-11.904 26.587-26.587 0-10.408-5.981-19.417-14.694-23.783z" fill="url(#SVGID_39_)"/></svg>