<svg id="Capa_1" enable-background="new 0 0 510 510" height="512" viewBox="0 0 510 510" width="512" xmlns="http://www.w3.org/2000/svg" xmlns:xlink="http://www.w3.org/1999/xlink"><linearGradient id="SVGID_1_" gradientTransform="matrix(.707 .707 -.707 .707 326.032 -76.309)" gradientUnits="userSpaceOnUse" x1="145.971" x2="231.334" y1="-1.69" y2="-1.69"><stop offset="0" stop-color="#ff7044"/><stop offset="1" stop-color="#f92814"/></linearGradient><linearGradient id="SVGID_2_" gradientTransform="matrix(.707 .707 -.707 .707 326.032 -76.309)" gradientUnits="userSpaceOnUse" x1="193.426" x2="136.671" y1="13.442" y2="-54.349"><stop offset="0" stop-color="#ff7044" stop-opacity="0"/><stop offset="1" stop-color="#ffa425"/></linearGradient><linearGradient id="SVGID_3_" gradientTransform="matrix(.707 .707 -.707 .707 326.032 -76.309)" gradientUnits="userSpaceOnUse" x1="214.579" x2="232.972" y1="-47.112" y2="18.577"><stop offset="0" stop-color="#f92814" stop-opacity="0"/><stop offset="1" stop-color="#c1272d"/></linearGradient><linearGradient id="lg1"><stop offset="0" stop-color="#f9f7fc"/><stop offset="1" stop-color="#f0ddfc"/></linearGradient><linearGradient id="SVGID_4_" gradientTransform="matrix(.707 .707 -.707 .707 326.032 -76.309)" gradientUnits="userSpaceOnUse" x1="142.004" x2="236.26" xlink:href="#lg1" y1="55.305" y2="55.305"/><linearGradient id="SVGID_5_" gradientTransform="matrix(.707 .707 -.707 .707 326.032 -76.309)" gradientUnits="userSpaceOnUse" x1="190.78" x2="175.015" y1="90.583" y2="12.807"><stop offset="0" stop-color="#f0ddfc" stop-opacity="0"/><stop offset=".2889" stop-color="#c8b7e0" stop-opacity=".289"/><stop offset=".5915" stop-color="#a595c8" stop-opacity=".592"/><stop offset=".8395" stop-color="#8f81b8" stop-opacity=".84"/><stop offset="1" stop-color="#8779b3"/></linearGradient><linearGradient id="SVGID_6_" gradientTransform="matrix(.707 .707 -.707 .707 326.032 -76.309)" gradientUnits="userSpaceOnUse" x1="183.714" x2="184.529" xlink:href="#lg1" y1="39.174" y2="58.33"/><linearGradient id="SVGID_7_" gradientTransform="matrix(.707 .707 -.707 .707 326.032 -76.309)" gradientUnits="userSpaceOnUse" x1="120.217" x2="247.874" y1="566.363" y2="566.363"><stop offset="0" stop-color="#ffdaaa"/><stop offset=".4213" stop-color="#ffd8a8"/><stop offset=".6519" stop-color="#fed1a0"/><stop offset=".8359" stop-color="#fdc592"/><stop offset=".9951" stop-color="#fcb47f"/><stop offset="1" stop-color="#fcb37e"/></linearGradient><linearGradient id="SVGID_8_" gradientTransform="matrix(.707 .707 -.707 .707 326.032 -76.309)" gradientUnits="userSpaceOnUse" x1="208.638" x2="108.791" y1="571.197" y2="555.432"><stop offset="0" stop-color="#ffdaaa" stop-opacity="0"/><stop offset=".2507" stop-color="#ffe7c8" stop-opacity=".251"/><stop offset=".5543" stop-color="#fff4e6" stop-opacity=".554"/><stop offset=".8148" stop-color="#fffcf8" stop-opacity=".815"/><stop offset="1" stop-color="#fff"/></linearGradient><linearGradient id="lg2"><stop offset="0" stop-color="#ffda45"/><stop offset="1" stop-color="#ffa425"/></linearGradient><linearGradient id="SVGID_9_" gradientTransform="matrix(.707 .707 -.707 .707 326.032 -76.309)" gradientUnits="userSpaceOnUse" x1="120.217" x2="247.874" xlink:href="#lg2" y1="312.846" y2="312.846"/><linearGradient id="SVGID_10_" gradientTransform="matrix(.707 .707 -.707 .707 326.032 -76.309)" gradientUnits="userSpaceOnUse" x1="152.333" x2="253.766" xlink:href="#lg2" y1="311.738" y2="311.738"/><linearGradient id="SVGID_11_" gradientUnits="userSpaceOnUse" x1="256.277" x2="182.277" y1="302.396" y2="177.396"><stop offset="0" stop-color="#ffda45" stop-opacity="0"/><stop offset="1" stop-color="#fcee21"/></linearGradient><linearGradient id="SVGID_12_" gradientTransform="matrix(.707 .707 -.707 .707 326.032 -76.309)" gradientUnits="userSpaceOnUse" x1="180.192" x2="212.764" y1="625.326" y2="625.326"><stop offset="0" stop-color="#7e8595"/><stop offset="1" stop-color="#555a66"/></linearGradient><linearGradient id="SVGID_13_" gradientTransform="matrix(.707 .707 -.707 .707 326.032 -76.309)" gradientUnits="userSpaceOnUse" x1="225.222" x2="142.717" y1="189.123" y2="12.551"><stop offset="0" stop-color="#ffda45" stop-opacity="0"/><stop offset="1" stop-color="#b53759"/></linearGradient><linearGradient id="SVGID_14_" gradientTransform="matrix(.707 .707 -.707 .707 326.032 -76.309)" gradientUnits="userSpaceOnUse" x1="183.714" x2="184.529" xlink:href="#lg1" y1="82.841" y2="101.996"/><path d="m477.824 113.926-81.75-81.75 28.493-28.493c4.18-4.18 10.708-4.884 15.683-1.691 27.194 17.453 50.305 40.564 67.757 67.757 3.193 4.975 2.489 11.503-1.691 15.683z" fill="url(#SVGID_1_)"/><path d="m477.824 113.926 28.493-28.493c.677-.677 1.253-1.42 1.746-2.204-.33-1.207-.833-2.382-1.538-3.479-17.453-27.194-40.564-50.305-67.757-67.757-4.975-3.193-11.503-2.489-15.683 1.691l-22.751 22.751z" fill="url(#SVGID_2_)"/><path d="m508.008 69.75c-2.956-4.606-6.087-9.084-9.36-13.448-.754 1.947-1.907 3.764-3.458 5.316l-34.837 34.837 17.471 17.471 28.493-28.493c4.18-4.18 4.884-10.708 1.691-15.683z" fill="url(#SVGID_3_)"/><path d="m436.44 163.826 48.122-48.123c1.874-1.874 1.874-4.912 0-6.786l-83.48-83.48c-1.874-1.874-4.912-1.874-6.786 0l-48.122 48.123z" fill="url(#SVGID_4_)"/><path d="m370.412 49.261v180.593l90.403-90.342-90.327-90.327z" fill="url(#SVGID_5_)"/><path d="m457.921 137.475-85.396-85.396c-4.277-4.278-4.277-11.213 0-15.491 4.278-4.278 11.213-4.278 15.491 0l85.396 85.396c4.277 4.278 4.277 11.213 0 15.491-4.278 4.278-11.213 4.278-15.491 0z" fill="url(#SVGID_6_)"/><path d="m45.257 374.477-44.796 125.311c-2.167 6.063 3.688 11.918 9.751 9.751l125.312-44.796c25-25-65.267-115.267-90.267-90.266z" fill="url(#SVGID_7_)"/><path d="m67.105 395.234-65.924 110.162c-.106.178-.184.354-.274.531 1.673 3.112 5.442 4.994 9.306 3.613l125.312-44.796c.193-.193.359-.402.538-.603 7.434-29.218-44.532-88.437-68.958-68.907z" fill="url(#SVGID_8_)"/><path d="m444.069 156.198-308.546 308.545c-1.196-2.074-2.69-4.028-4.459-5.797-11.044-11.044-28.954-11.044-39.998 0-.498.498 1.427-1.546 1.427-1.546 9.594-11.111 9.119-27.907-1.434-38.46s-27.349-11.029-38.46-1.434c0 0-2.044 1.925-1.546 1.427 11.044-11.044 11.044-28.954 0-39.998-1.769-1.769-3.723-3.263-5.797-4.459l308.546-308.545z" fill="url(#SVGID_9_)"/><path d="m418.882 131.012-326.389 326.389c9.594-11.111 9.119-27.907-1.434-38.46s-27.349-11.029-38.46-1.434l326.389-326.389z" fill="url(#SVGID_10_)"/><path d="m51.054 418.934c-.498.498 1.546-1.427 1.546-1.427 11.111-9.594 27.907-9.119 38.46 1.434s11.029 27.349 1.434 38.46c0 0-1.925 2.044-1.427 1.546 11.044-11.044 28.954-11.044 39.998 0 1.769 1.769 3.263 3.723 4.459 5.797l308.545-308.545-79.53-79.53-308.68 308.68c5.887 10.737 4.291 24.489-4.805 33.585z" fill="url(#SVGID_11_)"/><path d="m25.755 484.245c-4.742-4.742-10.042-8.547-15.649-11.438l-9.646 26.982c-2.168 6.063 3.688 11.918 9.751 9.751l26.982-9.645c-2.89-5.608-6.695-10.908-11.438-15.65z" fill="url(#SVGID_12_)"/><path d="m339.553 80.121.211 180.442 90.191-90.192-90.326-90.326z" fill="url(#SVGID_13_)"/><path d="m427.045 168.351-85.396-85.396c-4.278-4.278-4.278-11.213 0-15.49 4.278-4.278 11.213-4.278 15.49 0l85.396 85.396c4.278 4.278 4.278 11.213 0 15.49-4.277 4.278-11.213 4.278-15.49 0z" fill="url(#SVGID_14_)"/></svg>