<svg id="Capa_1" enable-background="new 0 0 510 510" height="512" viewBox="0 0 510 510" width="512" xmlns="http://www.w3.org/2000/svg" xmlns:xlink="http://www.w3.org/1999/xlink"><linearGradient id="lg1"><stop offset="0" stop-color="#7e8595"/><stop offset="1" stop-color="#555a66"/></linearGradient><linearGradient id="SVGID_1_" gradientTransform="matrix(.707 .707 -.707 .707 260.825 -103.321)" gradientUnits="userSpaceOnUse" x1="246.624" x2="256.185" xlink:href="#lg1" y1="595.027" y2="595.027"/><linearGradient id="SVGID_2_" gradientTransform="matrix(.707 .707 -.707 .707 260.825 -103.321)" gradientUnits="userSpaceOnUse" x1="220.311" x2="296.037" xlink:href="#lg1" y1="219.809" y2="219.809"/><linearGradient id="SVGID_3_" gradientTransform="matrix(.707 .707 -.707 .707 260.825 -103.321)" gradientUnits="userSpaceOnUse" x1="267.377" x2="38.459" y1="244.607" y2="302.494"><stop offset="0" stop-color="#bec3d2" stop-opacity="0"/><stop offset=".221" stop-color="#c5c9d7" stop-opacity=".221"/><stop offset=".5343" stop-color="#d7dae3" stop-opacity=".534"/><stop offset=".9014" stop-color="#f6f6f8" stop-opacity=".901"/><stop offset="1" stop-color="#fff"/></linearGradient><linearGradient id="lg2"><stop offset="0" stop-color="#ffda45"/><stop offset="1" stop-color="#ffa425"/></linearGradient><linearGradient id="SVGID_4_" gradientTransform="matrix(.707 .707 -.707 .707 260.825 -103.321)" gradientUnits="userSpaceOnUse" x1="224.2" x2="289.751" xlink:href="#lg2" y1="506.88" y2="506.88"/><linearGradient id="lg3"><stop offset="0" stop-color="#ffda45" stop-opacity="0"/><stop offset="1" stop-color="#fcee21"/></linearGradient><linearGradient id="SVGID_5_" gradientTransform="matrix(.707 .707 -.707 .707 260.825 -103.321)" gradientUnits="userSpaceOnUse" x1="271.229" x2="198.869" xlink:href="#lg3" y1="504.62" y2="509.882"/><linearGradient id="SVGID_6_" gradientTransform="matrix(.707 .707 -.707 .707 260.825 -103.321)" gradientUnits="userSpaceOnUse" x1="316.814" x2="263.312" y1="173.368" y2="159.335"><stop offset="0" stop-color="#555a66" stop-opacity="0"/><stop offset="1" stop-color="#555a66"/></linearGradient><linearGradient id="SVGID_7_" gradientTransform="matrix(.707 .707 -.707 .707 260.825 -103.321)" gradientUnits="userSpaceOnUse" x1="226.242" x2="286.45" xlink:href="#lg2" y1="11.633" y2="11.633"/><linearGradient id="SVGID_8_" gradientTransform="matrix(.707 .707 -.707 .707 260.825 -103.321)" gradientUnits="userSpaceOnUse" x1="240.556" x2="201.745" xlink:href="#lg3" y1="12.714" y2="14.359"/><linearGradient id="SVGID_9_" gradientTransform="matrix(.707 .707 -.707 .707 260.825 -103.321)" gradientUnits="userSpaceOnUse" x1="301.039" x2="246.66" y1="62.88" y2="16.833"><stop offset="0" stop-color="#ffda45" stop-opacity="0"/><stop offset="1" stop-color="#b53759"/></linearGradient><linearGradient id="SVGID_10_" gradientTransform="matrix(.707 .707 -.707 .707 260.825 -103.321)" gradientUnits="userSpaceOnUse" x1="237.954" x2="267.52" xlink:href="#lg2" y1="129.239" y2="129.239"/><linearGradient id="SVGID_11_" gradientTransform="matrix(.707 .707 -.707 .707 260.825 -103.321)" gradientUnits="userSpaceOnUse" x1="268.041" x2="228.573" xlink:href="#lg3" y1="129.74" y2="125.793"/><path d="m20.407 467.292c-16.1 22.709-23.351 37.562-19.306 41.607s18.898-3.206 41.608-19.306z" fill="url(#SVGID_1_)"/><path d="m308.833 297.091c-44.613 44.613-88.78 84.089-128.878 115.994-81.232 64.634-85.774 21.064-121.955 38.915 10.32-35.603-25.719-40.723 38.915-121.955 31.905-40.099 71.381-84.265 115.994-128.878 134.99-134.99 265.894-222.947 292.383-196.459 26.488 26.489-61.469 157.393-196.459 292.383z" fill="url(#SVGID_2_)"/><path d="m290.931 279.189c-134.99 134.989-257.879 230.962-274.481 214.361s79.371-139.49 214.361-274.48 257.879-230.963 274.481-214.362c16.601 16.602-79.372 139.491-214.361 274.481z" fill="url(#SVGID_3_)"/><path d="m140.865 369.135c-14.302-14.302-29.048-27.357-43.948-39.088-64.631 81.23-98.201 145.769-80.467 163.503s82.273-15.836 163.502-80.467c-11.73-14.9-24.784-29.646-39.087-43.948z" fill="url(#SVGID_4_)"/><path d="m166.038 396.213c-7.898-9.151-16.294-18.2-25.172-27.079-8.878-8.878-17.928-17.274-27.079-25.172-68.569 78.92-108.526 138.398-97.337 149.588 11.19 11.189 70.668-28.767 149.588-97.337z" fill="url(#SVGID_5_)"/><path d="m308.833 297.091c54.793-54.793 101.836-108.912 136.622-155.649v-48.675c.49-4.386-.946-8.896-4.249-12.199-3.925-3.925-7.85-7.85-11.775-11.775-5.139-5.139-13.203-5.785-19.169-1.635-61.96 43.098-92.253 116.438-152.29 161.356-4.981 3.727-7.279 9.58-6.726 15.235v108.366c18.914-17.241 38.207-35.644 57.587-55.024z" fill="url(#SVGID_6_)"/><path d="m440.449 69.551c-11.009-11.008-22.281-21.266-33.683-30.76-1.73-1.441-4.199-1.56-6.073-.313-5.316 3.538-12.488 8.547-17.339 12.003-2.721 1.938-2.871 5.932-.291 8.054 12.141 9.989 24.145 20.847 35.85 32.552s22.563 23.709 32.552 35.85c2.122 2.58 6.116 2.429 8.054-.291 3.456-4.852 8.465-12.023 12.003-17.339 1.247-1.874 1.128-4.343-.313-6.073-9.494-11.402-19.751-22.675-30.76-33.683z" fill="url(#SVGID_7_)"/><path d="m459.519 126.647c3.455-4.852 8.465-12.023 12.003-17.339 1.247-1.874 1.128-4.343-.313-6.073-8.073-9.696-16.732-19.287-25.902-28.713-9.426-9.17-19.017-17.829-28.713-25.902-1.73-1.44-4.199-1.56-6.073-.313-5.316 3.538-12.487 8.547-17.339 12.003-1.679 1.196-2.376 3.173-2.06 5.012 9.393 8.071 18.683 16.659 27.79 25.766 1.644 1.644 3.267 3.295 4.878 4.951 1.655 1.611 3.307 3.234 4.951 4.878 9.108 9.107 17.695 18.397 25.766 27.79 1.838.315 3.816-.382 5.012-2.06z" fill="url(#SVGID_8_)"/><path d="m418.912 91.088c9.401 9.401 18.246 18.997 26.543 28.7v-27.021c.49-4.386-.946-8.896-4.249-12.199-3.925-3.925-7.85-7.85-11.775-11.775-5.139-5.139-13.203-5.785-19.169-1.635-3.175 2.208-6.247 4.515-9.264 6.874 6.034 5.468 12.012 11.154 17.914 17.056z" fill="url(#SVGID_9_)"/><path d="m256.056 253.943c-7.277-7.277-6.325-19.263 1.916-25.428 60.037-44.919 90.33-118.259 152.29-161.356 5.966-4.15 14.03-3.504 19.169 1.635 3.925 3.925 7.85 7.85 11.775 11.775 5.139 5.139 5.785 13.203 1.635 19.169-43.096 61.961-116.438 92.253-161.357 152.291-6.164 8.239-18.151 9.191-25.428 1.914z" fill="url(#SVGID_10_)"/><path d="m419.1 75.996c-61.96 43.098-92.253 116.438-152.29 161.356-6.458 4.831-8.416 13.231-5.469 20.144 6.913 2.947 15.313.989 20.144-5.469 44.919-60.037 118.261-90.329 161.357-152.291 4.15-5.966 3.503-14.03-1.635-19.169-.979-.979-1.958-1.958-2.937-2.938-5.14-5.137-13.204-5.783-19.17-1.633z" fill="url(#SVGID_11_)"/></svg>