<svg id="Capa_1" enable-background="new 0 0 510 510" height="512" viewBox="0 0 510 510" width="512" xmlns="http://www.w3.org/2000/svg" xmlns:xlink="http://www.w3.org/1999/xlink"><linearGradient id="SVGID_1_" gradientUnits="userSpaceOnUse" x1="187.968" x2="374.643" y1="317.211" y2="560.04"><stop offset="0" stop-color="#4a98f7"/><stop offset="1" stop-color="#0469bc"/></linearGradient><linearGradient id="lg1"><stop offset="0" stop-color="#0469bc" stop-opacity="0"/><stop offset="1" stop-color="#0469bc"/></linearGradient><linearGradient id="SVGID_2_" gradientUnits="userSpaceOnUse" x1="263.843" x2="255.502" xlink:href="#lg1" y1="431.716" y2="314.102"/><linearGradient id="lg2"><stop offset="0" stop-color="#f9f7fc"/><stop offset="1" stop-color="#f0ddfc"/></linearGradient><linearGradient id="SVGID_3_" gradientUnits="userSpaceOnUse" x1="137.574" x2="245.245" xlink:href="#lg2" y1="325.115" y2="465.175"/><linearGradient id="SVGID_4_" gradientUnits="userSpaceOnUse" x1="292.888" x2="417.832" xlink:href="#lg2" y1="318.04" y2="480.569"/><linearGradient id="SVGID_5_" gradientUnits="userSpaceOnUse" x1="304.586" x2="102.771" y1="351.964" y2="205.303"><stop offset="0" stop-color="#18cffc" stop-opacity="0"/><stop offset="1" stop-color="#65e1dc"/></linearGradient><linearGradient id="SVGID_6_" gradientUnits="userSpaceOnUse" x1="255" x2="255" xlink:href="#lg1" y1="486.257" y2="315.374"/><linearGradient id="lg3"><stop offset="0" stop-color="#f0ddfc" stop-opacity="0"/><stop offset=".2889" stop-color="#c8b7e0" stop-opacity=".289"/><stop offset=".5915" stop-color="#a595c8" stop-opacity=".592"/><stop offset=".8395" stop-color="#8f81b8" stop-opacity=".84"/><stop offset="1" stop-color="#8779b3"/></linearGradient><linearGradient id="SVGID_7_" gradientUnits="userSpaceOnUse" x1="173.444" x2="173.444" xlink:href="#lg3" y1="433.405" y2="307.374"/><linearGradient id="SVGID_8_" gradientUnits="userSpaceOnUse" x1="336.556" x2="336.556" xlink:href="#lg3" y1="433.405" y2="307.374"/><linearGradient id="lg4"><stop offset="0" stop-color="#ffda45"/><stop offset="1" stop-color="#ffa425"/></linearGradient><linearGradient id="SVGID_9_" gradientUnits="userSpaceOnUse" x1="76.159" x2="433.841" xlink:href="#lg4" y1="178.841" y2="178.841"/><linearGradient id="lg5"><stop offset="0" stop-color="#ffda45" stop-opacity="0"/><stop offset=".5194" stop-color="#d9874f" stop-opacity=".519"/><stop offset="1" stop-color="#b53759"/></linearGradient><linearGradient id="SVGID_10_" gradientUnits="userSpaceOnUse" x1="335.209" x2="462.853" xlink:href="#lg5" y1="204.843" y2="246.222"/><linearGradient id="SVGID_11_" gradientUnits="userSpaceOnUse" x1="237.976" x2="384.973" xlink:href="#lg5" y1="146.103" y2="428.789"/><linearGradient id="SVGID_12_" gradientUnits="userSpaceOnUse" x1="249.498" x2="232.136" xlink:href="#lg5" y1="234.651" y2="410.752"/><linearGradient id="SVGID_13_" gradientUnits="userSpaceOnUse" x1="219.578" x2="165.907" xlink:href="#lg5" y1="243.626" y2="341.788"/><linearGradient id="SVGID_14_" gradientUnits="userSpaceOnUse" x1="76.159" x2="433.841" xlink:href="#lg4" y1="159.936" y2="159.936"/><linearGradient id="SVGID_15_" gradientTransform="matrix(-1 0 0 1 -353.219 0)" gradientUnits="userSpaceOnUse" x1="-767.115" x2="-449.324" xlink:href="#lg4" y1="159.936" y2="159.936"/><linearGradient id="SVGID_16_" gradientUnits="userSpaceOnUse" x1="111.153" x2="398.847" xlink:href="#lg4" y1="159.936" y2="159.936"/><linearGradient id="SVGID_17_" gradientUnits="userSpaceOnUse" x1="446.064" x2="86.349" xlink:href="#lg5" y1="339.541" y2="30.634"/><linearGradient id="lg6"><stop offset="0" stop-color="#ffda45"/><stop offset="1" stop-color="#fcb37e"/></linearGradient><linearGradient id="SVGID_18_" gradientUnits="userSpaceOnUse" x1="211.555" x2="380.906" xlink:href="#lg6" y1="122.333" y2="297.787"/><linearGradient id="lg7"><stop offset="0" stop-color="#fcb37e" stop-opacity="0"/><stop offset="1" stop-color="#ff7044"/></linearGradient><linearGradient id="SVGID_19_" gradientUnits="userSpaceOnUse" x1="185.621" x2="290.952" xlink:href="#lg7" y1="131.538" y2="243.891"/><linearGradient id="SVGID_20_" gradientUnits="userSpaceOnUse" x1="182.742" x2="254.899" xlink:href="#lg6" y1="207.5" y2="207.5"/><linearGradient id="SVGID_21_" gradientUnits="userSpaceOnUse" x1="237.785" x2="361.061" xlink:href="#lg7" y1="173.346" y2="312.226"/><linearGradient id="SVGID_22_" gradientUnits="userSpaceOnUse" x1="167.183" x2="325.569" xlink:href="#lg7" y1="210.228" y2="204.766"/><linearGradient id="SVGID_23_" gradientUnits="userSpaceOnUse" x1="308.76" x2="268.188" xlink:href="#lg6" y1="274.029" y2="93.797"/><linearGradient id="SVGID_24_" gradientUnits="userSpaceOnUse" x1="193.963" x2="218.15" xlink:href="#lg6" y1="119.885" y2="224.436"/><linearGradient id="SVGID_25_" gradientUnits="userSpaceOnUse" x1="296.951" x2="147.147" xlink:href="#lg7" y1="118.473" y2="59.176"/><linearGradient id="SVGID_26_" gradientUnits="userSpaceOnUse" x1="231.912" x2="309.154" xlink:href="#lg7" y1="69.302" y2="201.16"/><linearGradient id="SVGID_27_" gradientUnits="userSpaceOnUse" x1="327.736" x2="184.174" xlink:href="#lg7" y1="119.134" y2="246.311"/><linearGradient id="SVGID_28_" gradientUnits="userSpaceOnUse" x1="301.936" x2="351.871" xlink:href="#lg7" y1="170.82" y2="27.258"/><linearGradient id="SVGID_29_" gradientUnits="userSpaceOnUse" x1="257.932" x2="209.415" y1="161.917" y2="91.836"><stop offset="0" stop-color="#ffda45" stop-opacity="0"/><stop offset="1" stop-color="#ffee83"/></linearGradient><linearGradient id="SVGID_30_" gradientUnits="userSpaceOnUse" x1="246.182" x2="151.68" y1="147.704" y2="16.622"><stop offset="0" stop-color="#ffda45" stop-opacity="0"/><stop offset="1" stop-color="#fcee21"/></linearGradient><path d="m254.576 223.745c-66.18.229-119.321 54.863-119.321 121.044v159.196c0 4.851 5.456 7.7 9.436 4.926l98.956-68.947c6.822-4.753 15.883-4.753 22.705 0l98.956 68.947c3.98 2.773 9.436-.075 9.436-4.926v-160.496c.001-66.274-53.84-119.973-120.168-119.744z" fill="url(#SVGID_1_)"/><path d="m374.745 503.985v-160.496c0-66.275-53.841-119.974-120.168-119.744-56.88.197-104.128 40.583-116.284 93.947l.333 1.484 117.258 117.258c3.673.163 7.312 1.332 10.47 3.532l98.957 68.947c3.978 2.772 9.434-.076 9.434-4.928z" fill="url(#SVGID_2_)"/><path d="m186.197 245.789v234.201l-25.505 17.772v-227.443c7.255-9.369 15.842-17.65 25.485-24.509z" fill="url(#SVGID_3_)"/><path d="m349.308 269.699v228.063l-25.505-17.772v-234.506c9.643 6.778 18.24 14.948 25.505 24.215z" fill="url(#SVGID_4_)"/><path d="m255 223.749v212.651c3.971 0 7.941 1.188 11.352 3.565l98.956 68.947c3.98 2.773 9.436-.075 9.436-4.926v-160.497c.001-66.133-53.611-119.739-119.744-119.74z" fill="url(#SVGID_5_)"/><path d="m365.309 489.502-98.956-68.947c-6.822-4.753-15.883-4.753-22.705 0l-98.956 68.947c-3.98 2.773-9.436-.075-9.436-4.926v19.41c0 4.852 5.456 7.7 9.436 4.926l98.956-68.947c6.822-4.753 15.883-4.753 22.705 0l98.956 68.947c3.98 2.773 9.436-.075 9.436-4.926v-19.41c0 4.851-5.456 7.699-9.436 4.926z" fill="url(#SVGID_6_)"/><path d="m186.197 245.784v120.972l-25.505-25.505v-70.937c.508-.65 1.026-1.301 1.545-1.951.549-.681 1.118-1.372 1.687-2.042.467-.549.935-1.097 1.402-1.636.955-1.087 1.921-2.164 2.916-3.211.356-.386.721-.762 1.087-1.138.955-1.006 1.941-1.982 2.937-2.947.975-.945 1.961-1.88 2.977-2.784.183-.173.366-.335.549-.498.518-.467 1.037-.925 1.565-1.372.864-.752 1.738-1.484 2.622-2.205.417-.345.833-.681 1.26-1.016.396-.315.793-.62 1.189-.925.813-.63 1.626-1.24 2.449-1.839.427-.325.864-.63 1.301-.945z" fill="url(#SVGID_7_)"/><path d="m349.308 269.699v228.063l-25.505-17.772v-234.506c9.643 6.778 18.24 14.948 25.505 24.215z" fill="url(#SVGID_8_)"/><path d="m433.841 159.936c0-88.33-80.07-159.936-178.841-159.936s-178.841 71.606-178.841 159.936v37.81c0 88.33 80.07 159.936 178.841 159.936s178.841-71.606 178.841-159.936c0-.124 0-37.686 0-37.81z" fill="url(#SVGID_9_)"/><path d="m433.841 159.936c0-88.33-80.07-159.936-178.841-159.936s-178.841 71.606-178.841 159.936v37.81c0 88.33 80.07 159.936 178.841 159.936s178.841-71.606 178.841-159.936c0-.124 0-37.686 0-37.81z" fill="url(#SVGID_10_)"/><path d="m402.292 69.217c-32.26-41.81-86.193-69.217-147.292-69.217s-115.032 27.407-147.292 69.217v219.249c32.26 41.81 86.193 69.217 147.292 69.217s115.032-27.407 147.292-69.217z" fill="url(#SVGID_11_)"/><path d="m150.103 327.283c29.468 19.118 65.707 30.399 104.897 30.399s75.428-11.282 104.897-30.399v-296.884c-29.469-19.117-65.707-30.399-104.897-30.399s-75.428 11.282-104.897 30.399z" fill="url(#SVGID_12_)"/><path d="m214.368 353.534c13.054 2.712 26.655 4.148 40.632 4.148s27.578-1.436 40.632-4.148v-349.386c-13.054-2.712-26.655-4.148-40.632-4.148s-27.578 1.436-40.632 4.148z" fill="url(#SVGID_13_)"/><ellipse cx="255" cy="159.936" fill="url(#SVGID_14_)" rx="178.841" ry="159.936"/><ellipse cx="255" cy="159.936" fill="url(#SVGID_15_)" rx="158.896" ry="142.099"/><ellipse cx="255" cy="159.936" fill="url(#SVGID_16_)" rx="143.847" ry="128.641"/><path d="m430.839 189.223-64.899-64.899c-1.093-2.265-3.223-4.049-6.118-4.462l-30.207-4.393-67.325-67.16v-.001c-1.475-3.037-4.383-4.571-7.29-4.571s-5.815 1.533-7.29 4.571l-29.999 61.733-67.533 9.821c-3.341.477-5.67 2.777-6.552 5.54-.897 2.777-.333 6.017 2.112 8.346l47.859 47.727c.103.137.217.269.331.403l-11.06 64.518c-.564 3.254.839 6.147 3.124 7.854l65.586 65.585c1.139.019 2.279.039 3.423.039 87.583-.002 160.453-56.309 175.838-130.651z" fill="url(#SVGID_17_)"/><path d="m366.374 125.401c-.882-2.763-3.211-5.063-6.552-5.54l-67.533-9.821-29.999-61.733c-1.475-3.037-4.383-4.571-7.29-4.571s-5.815 1.533-7.29 4.571l-29.999 61.733-67.533 9.821c-3.341.477-5.67 2.777-6.552 5.54-.897 2.777-.333 6.017 2.112 8.346l48.513 46.242-11.383 66.405c-.564 3.255.839 6.147 3.124 7.854 2.3 1.721 5.497 2.256 8.476.766l60.532-30.172 60.533 30.172c2.98 1.49 6.176.955 8.476-.766 2.285-1.707 3.688-4.6 3.124-7.854l-11.383-66.405 48.513-46.242c2.444-2.329 3.008-5.569 2.111-8.346zm-111.374 35.322-.101.029.043-.043.058-.087.058.087.043.043z" fill="url(#SVGID_18_)"/><path d="m254.942 160.708-.043.043-60.648 19.237-48.513-46.242c-2.444-2.329-3.009-5.569-2.112-8.346z" fill="url(#SVGID_19_)"/><path d="m254.899 160.752-68.908 93.497c-2.285-1.707-3.688-4.6-3.124-7.854l11.383-66.405z" fill="url(#SVGID_20_)"/><path d="m324.009 254.248c-2.3 1.721-5.496 2.256-8.476.766l-60.533-30.172v-64.12l.101.029z" fill="url(#SVGID_21_)"/><path d="m255 160.723v64.12l-60.533 30.172c-2.98 1.49-6.176.955-8.476-.766l68.908-93.497z" fill="url(#SVGID_22_)"/><path d="m324.009 254.248-68.908-93.497 60.648 19.237 11.383 66.405c.565 3.256-.838 6.149-3.123 7.855z" fill="url(#SVGID_23_)"/><path d="m255 160.622-.058.087-111.316-35.307c.882-2.763 3.211-5.063 6.552-5.54l67.533-9.821z" fill="url(#SVGID_24_)"/><path d="m292.289 110.04-37.289 50.582v-116.886c2.907 0 5.815 1.533 7.29 4.571z" fill="url(#SVGID_25_)"/><path d="m255 43.736v116.885l-37.289-50.581 29.999-61.733c1.475-3.038 4.383-4.571 7.29-4.571z" fill="url(#SVGID_26_)"/><path d="m366.374 125.401-111.316 35.307-.058-.086 37.289-50.581 67.533 9.821c3.341.477 5.67 2.776 6.552 5.539z" fill="url(#SVGID_27_)"/><path d="m364.263 133.747-48.513 46.242-60.648-19.237-.043-.043 111.316-35.307c.896 2.776.332 6.016-2.112 8.345z" fill="url(#SVGID_28_)"/><path d="m347.512 129.535c-.733-2.295-2.667-4.205-5.443-4.602l-56.096-8.158-24.918-51.278c-1.226-2.523-3.64-3.797-6.055-3.797s-4.83 1.274-6.055 3.797l-24.918 51.278-56.096 8.158c-2.776.397-4.71 2.307-5.443 4.602-.745 2.307-.276 4.998 1.754 6.932l40.297 38.41-9.455 55.159c-.469 2.703.697 5.106 2.595 6.524 1.91 1.43 4.566 1.874 7.041.637l50.28-25.062 50.281 25.062c2.475 1.238 5.13.793 7.041-.637 1.898-1.418 3.064-3.821 2.595-6.524l-9.455-55.159 40.297-38.41c2.029-1.934 2.498-4.625 1.753-6.932zm-92.512 29.339-.084.024.036-.036.048-.072.048.072.036.036z" fill="url(#SVGID_29_)"/><ellipse cx="255" cy="159.936" fill="url(#SVGID_30_)" rx="128.598" ry="115.004"/></svg>