<svg id="Capa_1" enable-background="new 0 0 510 510" height="512" viewBox="0 0 510 510" width="512" xmlns="http://www.w3.org/2000/svg" xmlns:xlink="http://www.w3.org/1999/xlink"><linearGradient id="SVGID_1_" gradientTransform="matrix(1 0 0 -1 0 512)" gradientUnits="userSpaceOnUse" x1="132.132" x2="459.633" y1="367.693" y2="40.191"><stop offset="0" stop-color="#ffb5b0"/><stop offset="1" stop-color="#ff70ac"/></linearGradient><linearGradient id="lg1"><stop offset="0" stop-color="#ffb5b0" stop-opacity="0"/><stop offset="1" stop-color="#ff70ac"/></linearGradient><linearGradient id="SVGID_2_" gradientTransform="matrix(1 0 0 -1 0 512)" gradientUnits="userSpaceOnUse" x1="355.324" x2="369.657" xlink:href="#lg1" y1="257.83" y2="106.14"/><linearGradient id="lg2"><stop offset="0" stop-color="#e9edf5" stop-opacity="0"/><stop offset="1" stop-color="#fff"/></linearGradient><linearGradient id="SVGID_3_" gradientTransform="matrix(1 0 0 -1 0 512)" gradientUnits="userSpaceOnUse" x1="169.948" x2="59.26" xlink:href="#lg2" y1="345.104" y2="451.81"/><linearGradient id="lg3"><stop offset="0" stop-color="#ffb5b0" stop-opacity="0"/><stop offset=".0454" stop-color="#ffafb0" stop-opacity=".045"/><stop offset=".2799" stop-color="#ff93ae" stop-opacity=".28"/><stop offset=".5169" stop-color="#ff80ad" stop-opacity=".517"/><stop offset=".7559" stop-color="#ff74ac" stop-opacity=".756"/><stop offset="1" stop-color="#ff70ac"/></linearGradient><linearGradient id="SVGID_4_" gradientTransform="matrix(1 0 0 -1 0 512)" gradientUnits="userSpaceOnUse" x1="211.772" x2="269.902" xlink:href="#lg3" y1="402.839" y2="519.101"/><linearGradient id="SVGID_5_" gradientTransform="matrix(1 0 0 -1 0 512)" gradientUnits="userSpaceOnUse" x1="328.988" x2="416.179" xlink:href="#lg3" y1="343.129" y2="499.596"/><linearGradient id="SVGID_6_" gradientTransform="matrix(-.707 .707 .707 .707 -45.087 -440.773)" gradientUnits="userSpaceOnUse" x1="251.476" x2="309.607" xlink:href="#lg3" y1="601.157" y2="717.419"/><linearGradient id="SVGID_7_" gradientTransform="matrix(.707 .707 -.707 .707 581.736 -440.773)" gradientUnits="userSpaceOnUse" x1="232.632" x2="290.763" xlink:href="#lg3" y1="620.001" y2="736.262"/><linearGradient id="SVGID_8_" gradientTransform="matrix(.707 -.707 -.707 -.707 455.087 861.167)" gradientUnits="userSpaceOnUse" x1="260.714" x2="318.845" xlink:href="#lg3" y1="468.972" y2="585.233"/><linearGradient id="SVGID_9_" gradientTransform="matrix(-.707 -.707 .707 -.707 -171.736 861.167)" gradientUnits="userSpaceOnUse" x1="100.448" x2="158.579" xlink:href="#lg3" y1="629.238" y2="745.5"/><linearGradient id="SVGID_10_" gradientTransform="matrix(1 0 0 -1 0 512)" gradientUnits="userSpaceOnUse" x1="172.541" x2="97.688" xlink:href="#lg1" y1="256.17" y2="101.685"/><linearGradient id="SVGID_11_" gradientTransform="matrix(1 0 0 -1 0 512)" gradientUnits="userSpaceOnUse" x1="122.986" x2="-163.673" xlink:href="#lg2" y1="223.684" y2="392.096"/><linearGradient id="SVGID_12_" gradientTransform="matrix(1 0 0 -1 0 512)" gradientUnits="userSpaceOnUse" x1="114.32" x2="107.95" xlink:href="#lg1" y1="330.003" y2="260.99"/><linearGradient id="SVGID_13_" gradientTransform="matrix(1 0 0 -1 0 512)" gradientUnits="userSpaceOnUse" x1="392.722" x2="424.971" xlink:href="#lg3" y1="315.661" y2="273.857"/><linearGradient id="SVGID_14_" gradientTransform="matrix(1 0 0 -1 0 512)" gradientUnits="userSpaceOnUse" x1="333.303" x2="135.031" xlink:href="#lg3" y1="269.278" y2="185.669"/><linearGradient id="SVGID_15_" gradientTransform="matrix(1 0 0 -1 0 512)" gradientUnits="userSpaceOnUse" x1="335.649" x2="218.591" xlink:href="#lg3" y1="158.832" y2="41.774"/><linearGradient id="SVGID_16_" gradientTransform="matrix(1 0 0 -1 0 512)" gradientUnits="userSpaceOnUse" x1="255" x2="255" xlink:href="#lg3" y1="230.753" y2="362.951"/><linearGradient id="SVGID_17_" gradientTransform="matrix(1 0 0 -1 0 512)" gradientUnits="userSpaceOnUse" x1="343.771" x2="269.718" xlink:href="#lg2" y1="245.614" y2="584.826"/><linearGradient id="SVGID_18_" gradientTransform="matrix(1 0 0 -1 0 512)" gradientUnits="userSpaceOnUse" x1="191.637" x2="120.468" xlink:href="#lg2" y1="107.382" y2="-57.264"/><linearGradient id="lg4"><stop offset="0" stop-color="#92f37f"/><stop offset="1" stop-color="#4ab272"/></linearGradient><linearGradient id="SVGID_19_" gradientUnits="userSpaceOnUse" x1="20.521" x2="20.521" xlink:href="#lg4" y1="278.355" y2="257.667"/><linearGradient id="SVGID_20_" gradientTransform="matrix(.707 -.707 -.707 -.707 745.709 1895.169)" gradientUnits="userSpaceOnUse" x1="576.381" x2="576.381" xlink:href="#lg4" y1="1525.452" y2="1504.763"/><linearGradient id="SVGID_21_" gradientTransform="matrix(.707 .707 -.707 .707 745.709 173.768)" gradientUnits="userSpaceOnUse" x1="-496.247" x2="-496.247" xlink:href="#lg4" y1="452.825" y2="432.136"/><linearGradient id="SVGID_22_" gradientTransform="matrix(-1 0 0 -1 591.621 1271.75)" gradientUnits="userSpaceOnUse" x1="102.142" x2="102.142" xlink:href="#lg4" y1="998.078" y2="977.39"/><linearGradient id="SVGID_23_" gradientTransform="matrix(-.707 .707 .707 .707 -624.773 -1665.169)" gradientUnits="userSpaceOnUse" x1="528.977" x2="528.977" xlink:href="#lg4" y1="2028.274" y2="2007.585"/><linearGradient id="SVGID_24_" gradientTransform="matrix(-.707 -.707 .707 -.707 -624.773 56.233)" gradientUnits="userSpaceOnUse" x1="-999.068" x2="-999.068" xlink:href="#lg4" y1="500.228" y2="479.539"/><path d="m454.197 302.035c0-22.376-7.795-42.929-20.81-59.103 6.218-7.755 9.945-17.593 9.945-28.306 0-22.484-16.385-41.132-37.865-44.679-6.182-31.94-29.614-57.726-60.219-67.266.001-.105.008-.209.008-.315 0-27.85-22.577-50.426-50.426-50.426-16.2 0-30.606 7.648-39.831 19.521-9.226-11.873-23.631-19.521-39.831-19.521-27.85 0-50.426 22.577-50.426 50.426 0 .106.007.209.008.315-30.604 9.539-54.037 35.326-60.219 67.266-21.479 3.547-37.865 22.195-37.865 44.679 0 10.713 3.728 20.551 9.945 28.306-13.015 16.174-20.81 36.727-20.81 59.103 0 43.651 29.645 80.372 69.899 91.144 5.887 36.778 37.755 64.88 76.192 64.88 20.577 0 39.271-8.055 53.106-21.182 13.835 13.127 32.529 21.182 53.106 21.182 38.437 0 70.305-28.102 76.192-64.88 40.256-10.771 69.901-47.493 69.901-91.144z" fill="url(#SVGID_1_)"/><circle cx="359.847" cy="302.035" fill="url(#SVGID_2_)" r="94.35"/><path d="m279.064 186.778c0-15.838-4.183-30.697-11.501-43.538-9.154 12.718-24.073 21.007-40.94 21.007-16.845 0-31.747-8.269-40.903-20.96-8.708-6.28-15.339-15.262-18.641-25.728-22.494 9.876-40.069 28.877-48.035 52.325 12.475 1.959 23.254 9.011 30.155 18.96 11.789 8.178 19.515 21.802 19.515 37.236 0 15.788-8.085 29.679-20.334 37.785 12.627 6.997 27.152 10.984 42.611 10.984 48.642.001 88.073-39.43 88.073-88.071z" fill="url(#SVGID_3_)"/><circle cx="215.169" cy="102.366" fill="url(#SVGID_4_)" r="50.426"/><circle cx="319.009" cy="186.778" fill="url(#SVGID_5_)" r="88.073"/><circle cx="204.574" cy="169.33" fill="url(#SVGID_6_)" r="50.426"/><circle cx="305.426" cy="169.33" fill="url(#SVGID_7_)" r="50.426"/><circle cx="305.426" cy="337.998" fill="url(#SVGID_8_)" r="50.426"/><circle cx="204.574" cy="337.998" fill="url(#SVGID_9_)" r="50.426"/><circle cx="150.153" cy="302.035" fill="url(#SVGID_10_)" r="94.35"/><circle cx="155.585" cy="307.468" fill="url(#SVGID_11_)" r="88.918"/><path d="m150.153 207.685c2.222 0 4.425.083 6.61.234-3.242-21.835-22.062-38.589-44.799-38.589-25.017 0-45.296 20.28-45.296 45.296 0 10.713 3.728 20.551 9.945 28.306 17.294-21.49 43.808-35.247 73.54-35.247z" fill="url(#SVGID_12_)"/><path d="m359.847 207.685c29.732 0 56.246 13.757 73.54 35.247 6.218-7.755 9.945-17.593 9.945-28.306 0-25.016-20.28-45.296-45.296-45.296-22.737 0-41.557 16.754-44.799 38.589 2.185-.151 4.388-.234 6.61-.234z" fill="url(#SVGID_13_)"/><path d="m308.106 458.06c38.437 0 70.305-28.102 76.192-64.88 40.254-10.772 69.899-47.493 69.899-91.144 0-22.376-7.795-42.929-20.81-59.103 6.218-7.755 9.945-17.593 9.945-28.306 0-22.484-16.385-41.132-37.865-44.679-6.182-31.94-29.614-57.726-60.219-67.266.001-.105.008-.209.008-.315 0-27.85-22.577-50.426-50.426-50.426-16.2 0-30.606 7.648-39.831 19.521v365.416c13.836 13.127 32.53 21.182 53.107 21.182z" fill="url(#SVGID_14_)"/><path d="m381.973 403.284c.001-.003.002-.007.003-.01.992-3.277 1.771-6.647 2.323-10.093.859-5.365 1.173-10.911.86-16.586-2.281-41.33-36.251-73.183-77.641-72.874-20.345.152-38.815 8.178-52.518 21.18v102.658c0 6.312 2.949 12.313 8.072 16.001.029.021.057.041.086.062 3.122 2.226 32.485 22.393 68.65 10.728 37.546-12.112 49.168-47.809 50.165-51.066z" fill="url(#SVGID_15_)"/><circle cx="255" cy="279.461" fill="url(#SVGID_16_)" r="58.537"/><circle cx="352.74" cy="307.468" fill="url(#SVGID_17_)" r="88.918"/><circle cx="201.894" cy="380.889" fill="url(#SVGID_18_)" r="67.365"/><path d="m30.988 265.959h-20.934c-5.552 0-10.054 4.501-10.054 10.054 0 5.553 4.502 10.054 10.054 10.054h20.934c5.553 0 10.054-4.501 10.054-10.054.001-5.553-4.501-10.054-10.054-10.054z" fill="url(#SVGID_19_)"/><path d="m90.787 410.326-14.803 14.803c-3.926 3.927-10.292 3.927-14.219 0-3.926-3.926-3.926-10.292 0-14.219l14.803-14.803c3.926-3.926 10.292-3.926 14.219 0 3.927 3.927 3.927 10.293 0 14.219z" fill="url(#SVGID_20_)"/><path d="m90.787 141.7-14.803-14.803c-3.926-3.926-10.292-3.926-14.219 0-3.926 3.926-3.926 10.292 0 14.219l14.803 14.803c3.926 3.926 10.292 3.926 14.219 0 3.927-3.926 3.927-10.292 0-14.219z" fill="url(#SVGID_21_)"/><path d="m479.012 286.068h20.934c5.553 0 10.054-4.501 10.054-10.054 0-5.553-4.501-10.054-10.054-10.054h-20.934c-5.553 0-10.054 4.501-10.054 10.054-.001 5.552 4.501 10.054 10.054 10.054z" fill="url(#SVGID_22_)"/><path d="m419.213 141.7 14.803-14.803c3.926-3.926 10.292-3.926 14.219 0 3.927 3.926 3.927 10.292 0 14.219l-14.803 14.803c-3.926 3.926-10.292 3.926-14.219 0-3.927-3.926-3.927-10.292 0-14.219z" fill="url(#SVGID_23_)"/><path d="m419.213 410.326 14.803 14.803c3.926 3.927 10.292 3.927 14.219 0 3.927-3.926 3.927-10.292 0-14.219l-14.803-14.803c-3.926-3.926-10.292-3.926-14.219 0-3.927 3.927-3.927 10.293 0 14.219z" fill="url(#SVGID_24_)"/></svg>