<svg id="Capa_1" enable-background="new 0 0 510 510" height="512" viewBox="0 0 510 510" width="512" xmlns="http://www.w3.org/2000/svg" xmlns:xlink="http://www.w3.org/1999/xlink"><linearGradient id="SVGID_1_" gradientTransform="matrix(.961 .278 -.278 .961 40.509 -28.11)" gradientUnits="userSpaceOnUse" x1="100.869" x2="163.96" y1="364.331" y2="427.422"><stop offset="0" stop-color="#ffda45"/><stop offset="1" stop-color="#ffa425"/></linearGradient><linearGradient id="SVGID_2_" gradientTransform="matrix(.961 .278 -.278 .961 40.509 -28.11)" gradientUnits="userSpaceOnUse" x1="124.94" x2="94.884" y1="390.843" y2="348.232"><stop offset="0" stop-color="#ffda45" stop-opacity="0"/><stop offset="1" stop-color="#fcee21"/></linearGradient><linearGradient id="SVGID_3_" gradientTransform="matrix(.961 .278 -.278 .961 40.509 -28.11)" gradientUnits="userSpaceOnUse" x1="120.787" x2="187.745" y1="401.226" y2="276.695"><stop offset="0" stop-color="#ffda45" stop-opacity="0"/><stop offset="1" stop-color="#b53759"/></linearGradient><linearGradient id="SVGID_4_" gradientUnits="userSpaceOnUse" x1="201.657" x2="264.747" y1="364.594" y2="427.685"><stop offset="0" stop-color="#ff7044"/><stop offset="1" stop-color="#f92814"/></linearGradient><linearGradient id="SVGID_5_" gradientUnits="userSpaceOnUse" x1="225.727" x2="195.671" y1="391.106" y2="348.495"><stop offset="0" stop-color="#ff7044" stop-opacity="0"/><stop offset="1" stop-color="#ffa425"/></linearGradient><linearGradient id="SVGID_6_" gradientUnits="userSpaceOnUse" x1="221.574" x2="288.532" y1="401.489" y2="276.957"><stop offset="0" stop-color="#f92814" stop-opacity="0"/><stop offset="1" stop-color="#c1272d"/></linearGradient><linearGradient id="SVGID_7_" gradientUnits="userSpaceOnUse" x1="299.082" x2="362.172" y1="364.594" y2="427.685"><stop offset="0" stop-color="#18cffc"/><stop offset="1" stop-color="#4a98f7"/></linearGradient><linearGradient id="SVGID_8_" gradientUnits="userSpaceOnUse" x1="323.152" x2="293.096" y1="391.106" y2="348.495"><stop offset="0" stop-color="#18cffc" stop-opacity="0"/><stop offset="1" stop-color="#65e1dc"/></linearGradient><linearGradient id="SVGID_9_" gradientUnits="userSpaceOnUse" x1="319" x2="385.957" y1="401.489" y2="276.957"><stop offset="0" stop-color="#0469bc" stop-opacity="0"/><stop offset="1" stop-color="#0469bc"/></linearGradient><linearGradient id="SVGID_10_" gradientUnits="userSpaceOnUse" x1="396.507" x2="459.598" y1="364.594" y2="427.685"><stop offset="0" stop-color="#92f37f"/><stop offset="1" stop-color="#4ab272"/></linearGradient><linearGradient id="SVGID_11_" gradientUnits="userSpaceOnUse" x1="420.578" x2="390.522" y1="391.106" y2="348.495"><stop offset="0" stop-color="#92f37f" stop-opacity="0"/><stop offset="1" stop-color="#ffee83"/></linearGradient><linearGradient id="SVGID_12_" gradientUnits="userSpaceOnUse" x1="416.425" x2="483.383" y1="401.489" y2="276.957"><stop offset="0" stop-color="#4ab272" stop-opacity="0"/><stop offset="1" stop-color="#009245"/></linearGradient><linearGradient id="lg1"><stop offset="0" stop-color="#f9f7fc"/><stop offset="1" stop-color="#f0ddfc"/></linearGradient><linearGradient id="SVGID_13_" gradientTransform="matrix(0 1 1 0 257.208 -257.208)" gradientUnits="userSpaceOnUse" x1="348.481" x2="382.938" xlink:href="#lg1" y1="11.387" y2="11.387"/><linearGradient id="SVGID_14_" gradientTransform="matrix(0 1 1 0 257.208 -257.208)" gradientUnits="userSpaceOnUse" x1="315.394" x2="396.434" y1="20.496" y2="4.911"><stop offset="0" stop-color="#fff"/><stop offset="1" stop-color="#e9edf5" stop-opacity="0"/></linearGradient><linearGradient id="lg2"><stop offset="0" stop-color="#f0ddfc" stop-opacity="0"/><stop offset=".2889" stop-color="#c8b7e0" stop-opacity=".289"/><stop offset=".5915" stop-color="#a595c8" stop-opacity=".592"/><stop offset=".8395" stop-color="#8f81b8" stop-opacity=".84"/><stop offset="1" stop-color="#8779b3"/></linearGradient><linearGradient id="SVGID_15_" gradientTransform="matrix(0 1 1 0 257.208 -257.208)" gradientUnits="userSpaceOnUse" x1="404.195" x2="350.432" xlink:href="#lg2" y1="-138.055" y2="-191.817"/><linearGradient id="SVGID_16_" gradientUnits="userSpaceOnUse" x1="45.931" x2="84.715" xlink:href="#lg1" y1="97.209" y2="135.993"/><linearGradient id="lg3"><stop offset="0" stop-color="#e9edf5" stop-opacity="0"/><stop offset="1" stop-color="#fff"/></linearGradient><linearGradient id="SVGID_17_" gradientUnits="userSpaceOnUse" x1="66.919" x2="39.819" xlink:href="#lg3" y1="118.197" y2="91.097"/><linearGradient id="SVGID_18_" gradientUnits="userSpaceOnUse" x1="58.175" x2="99.336" xlink:href="#lg2" y1="119.889" y2="43.336"/><linearGradient id="SVGID_19_" gradientUnits="userSpaceOnUse" x1="468.85" x2="507.634" xlink:href="#lg1" y1="97.209" y2="135.993"/><linearGradient id="SVGID_20_" gradientUnits="userSpaceOnUse" x1="489.838" x2="462.739" xlink:href="#lg3" y1="118.197" y2="91.097"/><linearGradient id="SVGID_21_" gradientUnits="userSpaceOnUse" x1="481.094" x2="522.255" xlink:href="#lg2" y1="119.889" y2="43.336"/><path d="m55.424 374.817-13.616-3.934 73.737-255.214c1.086-3.76 5.015-5.927 8.775-4.841 3.76 1.086 5.927 5.015 4.841 8.775z" fill="#555a66"/><circle cx="48.725" cy="372.474" fill="url(#SVGID_1_)" r="48.713"/><circle cx="48.725" cy="372.474" fill="url(#SVGID_2_)" r="40.655"/><path d="m81.755 336.659c1.336 7.211 1.062 14.835-1.113 22.36-7.468 25.846-34.474 40.745-60.32 33.277-7.526-2.174-14.121-6.008-19.508-10.984 3.253 17.555 16.07 32.666 34.39 37.959 25.846 7.467 52.852-7.431 60.319-33.277 5.294-18.32-.653-37.221-13.768-49.335z" fill="url(#SVGID_3_)"/><path d="m226.969 383.212h-14.172v-265.653c0-3.914 3.173-7.086 7.086-7.086 3.914 0 7.086 3.173 7.086 7.086z" fill="#555a66"/><circle cx="219.883" cy="382.82" fill="url(#SVGID_4_)" r="48.713"/><circle cx="219.883" cy="382.82" fill="url(#SVGID_5_)" r="40.655"/><path d="m241.673 339.245c3.285 6.557 5.137 13.957 5.137 21.791 0 26.903-21.809 48.713-48.713 48.713-7.833 0-15.233-1.852-21.791-5.137 7.998 15.963 24.506 26.922 43.575 26.922 26.903 0 48.713-21.809 48.713-48.712.001-19.071-10.958-35.579-26.921-43.577z" fill="url(#SVGID_6_)"/><path d="m324.394 383.212h-14.172v-265.653c0-3.914 3.173-7.086 7.086-7.086 3.914 0 7.086 3.173 7.086 7.086z" fill="#555a66"/><circle cx="317.308" cy="382.82" fill="url(#SVGID_7_)" r="48.713"/><circle cx="317.308" cy="382.82" fill="url(#SVGID_8_)" r="40.655"/><path d="m339.098 339.245c3.285 6.557 5.137 13.957 5.137 21.791 0 26.903-21.809 48.713-48.713 48.713-7.833 0-15.233-1.852-21.791-5.137 7.998 15.963 24.505 26.922 43.575 26.922 26.903 0 48.712-21.809 48.712-48.712.002-19.071-10.957-35.579-26.92-43.577z" fill="url(#SVGID_9_)"/><path d="m421.819 383.212h-14.172v-265.653c0-3.914 3.173-7.086 7.086-7.086 3.914 0 7.086 3.173 7.086 7.086z" fill="#555a66"/><circle cx="414.733" cy="382.82" fill="url(#SVGID_10_)" r="48.713"/><circle cx="414.733" cy="382.82" fill="url(#SVGID_11_)" r="40.655"/><path d="m436.524 339.245c3.285 6.557 5.137 13.957 5.137 21.791 0 26.903-21.809 48.713-48.713 48.713-7.833 0-15.233-1.852-21.791-5.137 7.998 15.963 24.505 26.922 43.575 26.922 26.903 0 48.713-21.809 48.713-48.712.001-19.071-10.959-35.579-26.921-43.577z" fill="url(#SVGID_12_)"/><path d="m472.171 108.413c0-9.842-7.978-17.82-17.82-17.82h-389.332v35.64h389.332c9.842-.001 17.82-7.979 17.82-17.82z" fill="url(#SVGID_13_)"/><path d="m471.247 114.047c-2.36 7.077-9.026 12.186-16.896 12.186h-389.332v-24.372h389.332c7.871 0 14.537 5.108 16.896 12.186z" fill="url(#SVGID_14_)"/><path d="m116.219 126.232h-35.64v-35.639z" fill="url(#SVGID_15_)"/><circle cx="57.135" cy="108.412" fill="url(#SVGID_16_)" r="29.945"/><circle cx="57.135" cy="108.413" fill="url(#SVGID_17_)" r="24.992"/><path d="m70.531 81.625c2.02 4.031 3.158 8.58 3.158 13.395 0 16.538-13.407 29.945-29.945 29.945-4.815 0-9.364-1.138-13.395-3.158 4.917 9.813 15.064 16.55 26.787 16.55 16.538 0 29.945-13.407 29.945-29.945 0-11.722-6.738-21.87-16.55-26.787z" fill="url(#SVGID_18_)"/><circle cx="480.055" cy="108.412" fill="url(#SVGID_19_)" r="29.945"/><circle cx="480.055" cy="108.413" fill="url(#SVGID_20_)" r="24.992"/><path d="m493.45 81.625c2.02 4.031 3.158 8.58 3.158 13.395 0 16.538-13.407 29.945-29.945 29.945-4.815 0-9.364-1.138-13.395-3.158 4.917 9.813 15.064 16.55 26.787 16.55 16.538 0 29.945-13.407 29.945-29.945 0-11.722-6.737-21.87-16.55-26.787z" fill="url(#SVGID_21_)"/></svg>