<svg id="Capa_1" enable-background="new 0 0 510 510" height="512" viewBox="0 0 510 510" width="512" xmlns="http://www.w3.org/2000/svg" xmlns:xlink="http://www.w3.org/1999/xlink"><linearGradient id="lg1"><stop offset="0" stop-color="#ffda45"/><stop offset="1" stop-color="#ffa425"/></linearGradient><linearGradient id="SVGID_1_" gradientUnits="userSpaceOnUse" x1="40.094" x2="84.906" xlink:href="#lg1" y1="256.519" y2="249.947"/><linearGradient id="lg2"><stop offset="0" stop-color="#ff7044"/><stop offset="1" stop-color="#f92814"/></linearGradient><linearGradient id="SVGID_2_" gradientUnits="userSpaceOnUse" x1="52.12" x2="63.473" xlink:href="#lg2" y1="387.831" y2="405.159"/><linearGradient id="SVGID_3_" gradientUnits="userSpaceOnUse" x1="59.267" x2="99.299" xlink:href="#lg2" y1="105.815" y2="151.822"/><linearGradient id="lg3"><stop offset="0" stop-color="#ff7044" stop-opacity="0"/><stop offset=".2503" stop-color="#ff813a" stop-opacity=".25"/><stop offset=".7194" stop-color="#ff9a2b" stop-opacity=".719"/><stop offset="1" stop-color="#ffa425"/></linearGradient><linearGradient id="SVGID_4_" gradientUnits="userSpaceOnUse" x1="92.921" x2="29.586" xlink:href="#lg3" y1="142.509" y2="120.402"/><linearGradient id="SVGID_5_" gradientTransform="matrix(-1 0 0 1 870.755 0)" gradientUnits="userSpaceOnUse" x1="400.849" x2="445.661" xlink:href="#lg1" y1="256.519" y2="249.947"/><linearGradient id="lg4"><stop offset="0" stop-color="#ffda45" stop-opacity="0"/><stop offset=".5194" stop-color="#d9874f" stop-opacity=".519"/><stop offset="1" stop-color="#b53759"/></linearGradient><linearGradient id="SVGID_6_" gradientUnits="userSpaceOnUse" x1="452.199" x2="377.512" xlink:href="#lg4" y1="285.514" y2="234.129"/><linearGradient id="SVGID_7_" gradientTransform="matrix(-1 0 0 1 870.755 0)" gradientUnits="userSpaceOnUse" x1="412.875" x2="424.228" xlink:href="#lg2" y1="387.831" y2="405.159"/><linearGradient id="SVGID_8_" gradientTransform="matrix(-1 0 0 1 870.755 0)" gradientUnits="userSpaceOnUse" x1="420.022" x2="460.054" xlink:href="#lg2" y1="105.815" y2="151.822"/><linearGradient id="SVGID_9_" gradientUnits="userSpaceOnUse" x1="397.057" x2="315.797" xlink:href="#lg3" y1="147.086" y2="74.789"/><linearGradient id="SVGID_10_" gradientUnits="userSpaceOnUse" x1="469.334" x2="361.784" y1="223.754" y2="148.469"><stop offset="0" stop-color="#f92814" stop-opacity="0"/><stop offset=".0664" stop-color="#f32817" stop-opacity=".066"/><stop offset=".4333" stop-color="#d82723" stop-opacity=".433"/><stop offset=".7567" stop-color="#c7272a" stop-opacity=".757"/><stop offset="1" stop-color="#c1272d"/></linearGradient><radialGradient id="SVGID_11_" cx="255" cy="59.515" gradientUnits="userSpaceOnUse" r="52.581"><stop offset="0" stop-color="#ffa425"/><stop offset=".2925" stop-color="#ffa727"/><stop offset=".5496" stop-color="#ffb22d"/><stop offset=".7925" stop-color="#ffc438"/><stop offset="1" stop-color="#ffda45"/></radialGradient><linearGradient id="lg5"><stop offset="0" stop-color="#18cffc"/><stop offset="1" stop-color="#4a98f7"/></linearGradient><linearGradient id="SVGID_12_" gradientUnits="userSpaceOnUse" x1="107.993" x2="449.762" xlink:href="#lg5" y1="159.833" y2="518.333"/><linearGradient id="SVGID_13_" gradientUnits="userSpaceOnUse" x1="334.256" x2="28.336" y1="376.375" y2="121.84"><stop offset="0" stop-color="#18cffc" stop-opacity="0"/><stop offset="1" stop-color="#65e1dc"/></linearGradient><linearGradient id="lg6"><stop offset="0" stop-color="#0469bc" stop-opacity="0"/><stop offset="1" stop-color="#0469bc"/></linearGradient><linearGradient id="SVGID_14_" gradientUnits="userSpaceOnUse" x1="252.894" x2="623.923" xlink:href="#lg6" y1="315.621" y2="224.208"/><linearGradient id="SVGID_15_" gradientUnits="userSpaceOnUse" x1="328.746" x2="241.909" xlink:href="#lg6" y1="523.586" y2="328.402"/><linearGradient id="SVGID_16_" gradientUnits="userSpaceOnUse" x1="255" x2="255" xlink:href="#lg6" y1="472.074" y2="512.774"/><linearGradient id="SVGID_17_" gradientUnits="userSpaceOnUse" x1="146.923" x2="105.098" xlink:href="#lg6" y1="451" y2="398.022"/><linearGradient id="SVGID_18_" gradientUnits="userSpaceOnUse" x1="206.843" x2="323.953" xlink:href="#lg1" y1="299.186" y2="487.996"/><linearGradient id="SVGID_19_" gradientUnits="userSpaceOnUse" x1="195.382" x2="638.726" xlink:href="#lg4" y1="373.955" y2="396.66"/><linearGradient id="SVGID_20_" gradientUnits="userSpaceOnUse" x1="272.085" x2="169.315" y1="398.028" y2="253.034"><stop offset="0" stop-color="#ffda45" stop-opacity="0"/><stop offset=".6245" stop-color="#fde82b" stop-opacity=".625"/><stop offset="1" stop-color="#fcee21"/></linearGradient><linearGradient id="SVGID_21_" gradientUnits="userSpaceOnUse" x1="254.797" x2="256.02" xlink:href="#lg1" y1="379.027" y2="344.347"/><linearGradient id="SVGID_22_" gradientUnits="userSpaceOnUse" x1="266.201" x2="266.201" xlink:href="#lg2" y1="359.345" y2="366.914"/><linearGradient id="SVGID_23_" gradientUnits="userSpaceOnUse" x1="156.619" x2="30.348" xlink:href="#lg4" y1="450.365" y2="352.774"/><linearGradient id="SVGID_24_" gradientUnits="userSpaceOnUse" x1="82.812" x2="127.426" xlink:href="#lg2" y1="391.131" y2="419.811"/><linearGradient id="lg7"><stop offset="0" stop-color="#c1272d"/><stop offset=".2642" stop-color="#c5272b" stop-opacity=".736"/><stop offset=".5348" stop-color="#d12726" stop-opacity=".465"/><stop offset=".8073" stop-color="#e6281d" stop-opacity=".193"/><stop offset="1" stop-color="#f92814" stop-opacity="0"/></linearGradient><radialGradient id="SVGID_25_" cx="93.275" cy="383.886" gradientUnits="userSpaceOnUse" r="15.337" xlink:href="#lg7"/><linearGradient id="SVGID_26_" gradientUnits="userSpaceOnUse" x1="88.194" x2="98.355" xlink:href="#lg2" y1="370.191" y2="370.191"/><linearGradient id="SVGID_27_" gradientUnits="userSpaceOnUse" x1="272.98" x2="198.89" xlink:href="#lg5" y1="257.041" y2="62.256"/><linearGradient id="SVGID_28_" gradientUnits="userSpaceOnUse" x1="253.106" x2="257.886" xlink:href="#lg5" y1="186.094" y2="245.844"/><linearGradient id="SVGID_29_" gradientUnits="userSpaceOnUse" x1="255" x2="255" xlink:href="#lg5" y1="197.224" y2="174.519"/><linearGradient id="SVGID_30_" gradientTransform="matrix(1 .008 -.008 1 1.394 -1.52)" gradientUnits="userSpaceOnUse" x1="215.619" x2="215.619" xlink:href="#lg1" y1="187.27" y2="192.682"/><linearGradient id="SVGID_31_" gradientTransform="matrix(1 .008 -.008 1 1.394 -1.52)" gradientUnits="userSpaceOnUse" x1="173.791" x2="173.791" xlink:href="#lg1" y1="188.067" y2="193.606"/><linearGradient id="SVGID_32_" gradientTransform="matrix(1 .008 -.008 1 1.394 -1.52)" gradientUnits="userSpaceOnUse" x1="257.455" x2="257.455" xlink:href="#lg1" y1="186.979" y2="192.274"/><linearGradient id="SVGID_33_" gradientTransform="matrix(1 .008 -.008 1 1.394 -1.52)" gradientUnits="userSpaceOnUse" x1="299.281" x2="299.281" xlink:href="#lg1" y1="187.071" y2="192.428"/><linearGradient id="SVGID_34_" gradientTransform="matrix(1 .008 -.008 1 1.394 -1.52)" gradientUnits="userSpaceOnUse" x1="341.091" x2="341.091" xlink:href="#lg1" y1="187.628" y2="193.106"/><linearGradient id="SVGID_35_" gradientUnits="userSpaceOnUse" x1="219.693" x2="106.964" xlink:href="#lg6" y1="278.436" y2="193.989"/><linearGradient id="SVGID_36_" gradientUnits="userSpaceOnUse" x1="148.121" x2="192.735" xlink:href="#lg2" y1="217.052" y2="245.732"/><radialGradient id="SVGID_37_" cx="158.584" cy="209.807" gradientUnits="userSpaceOnUse" r="15.337" xlink:href="#lg7"/><linearGradient id="SVGID_38_" gradientUnits="userSpaceOnUse" x1="153.503" x2="163.664" xlink:href="#lg2" y1="196.112" y2="196.112"/><path d="m46.194 109.517h26.434v288.339h-26.434z" fill="url(#SVGID_1_)"/><path d="m72.628 410.531h-24.461c-4.36 0-7.895-3.534-7.895-7.895v-10.856c0-4.36 3.535-7.895 7.895-7.895h24.461z" fill="url(#SVGID_2_)"/><path d="m152.68 232.524h-87.127l-19.041-116.089c-1.028-6.372.462-12.888 4.12-18.206 11.098-16.133 24.234-30.76 39.034-43.509 13.053-11.244 33.384-3.832 36.13 13.175z" fill="url(#SVGID_3_)"/><path d="m152.68 232.524-26.884-164.629c-.71-4.395-2.6-8.143-5.23-11.1-5.993-.93-12.427.568-17.683 5.095-14.8 12.749-27.936 27.376-39.034 43.509-3.658 5.318-5.149 11.834-4.12 18.206l17.865 108.919z" fill="url(#SVGID_4_)"/><path d="m437.372 109.517h26.434v288.339h-26.434z" fill="url(#SVGID_5_)"/><path d="m437.372 152.77v245.085h26.434v-218.651z" fill="url(#SVGID_6_)"/><path d="m437.372 410.531h24.461c4.36 0 7.895-3.534 7.895-7.895v-10.856c0-4.36-3.535-7.895-7.895-7.895h-24.461z" fill="url(#SVGID_7_)"/><path d="m357.32 232.524h87.127l19.041-116.089c1.028-6.372-.462-12.888-4.12-18.206-11.098-16.133-24.234-30.76-39.034-43.509-13.053-11.244-33.384-3.832-36.13 13.175z" fill="url(#SVGID_8_)"/><path d="m444.448 232.524 19.041-116.089c1.028-6.372-.462-12.888-4.12-18.206-4.468-6.495-9.281-12.732-14.385-18.714-4.922-5.113-10.076-10.003-15.456-14.637-13.053-11.244-33.384-3.832-36.13 13.175l-25.225 154.471z" fill="url(#SVGID_9_)"/><path d="m393.701 232.524h50.747l10.241-62.437-60.988-60.988z" fill="url(#SVGID_10_)"/><path d="m314.515 119.03h-119.029v-59.516c0-32.816 26.697-59.514 59.514-59.514s59.515 26.698 59.515 59.514zm-89.155-29.875h59.279v-29.64c0-16.344-13.296-29.639-29.639-29.639-16.344 0-29.64 13.296-29.64 29.639z" fill="url(#SVGID_11_)"/><path d="m402.824 495.335c-97.58 19.553-198.069 19.553-295.649 0-25.044-5.018-43.067-27.012-43.067-52.553v-202.533c0-105.426 85.465-190.891 190.892-190.891 105.426 0 190.892 85.465 190.892 190.891v202.533c0 25.542-18.024 47.535-43.068 52.553z" fill="url(#SVGID_12_)"/><path d="m278.798 73.155c-105.427 0-190.892 85.465-190.892 190.892v202.533c0 8.605 2.053 16.803 5.723 24.089 4.207 2.115 8.746 3.705 13.546 4.667 97.58 19.553 198.069 19.553 295.648 0 25.044-5.018 43.067-27.012 43.067-52.553v-202.534c0-46.654-16.746-89.392-44.543-122.551-33.158-27.797-75.895-44.543-122.549-44.543z" fill="url(#SVGID_13_)"/><path d="m350.418 74.885c20.161 31.555 31.85 69.047 31.85 109.27v215.62c0 27.192-19.188 50.607-45.85 55.949-88.391 17.712-179.022 20.343-268.082 7.915 6.741 15.939 21.007 28.123 38.84 31.697 97.58 19.553 198.069 19.553 295.648 0 25.044-5.018 43.067-27.012 43.067-52.553v-202.534c.001-70.667-38.401-132.362-95.473-165.364z" fill="url(#SVGID_14_)"/><path d="m402.824 495.335c25.044-5.018 43.067-27.012 43.067-52.553v-105.206l-35.387-35.387c-7.715-8.299-18.416-13.728-30.261-14.705-83.512-6.888-166.975-6.888-250.487 0-20.404 1.683-37.432 16.558-41.604 36.601-7.37 35.404-7.371 70.073 0 105.483 1.994 9.581 6.931 17.975 13.764 24.318l48.848 48.848c83.734 11.713 168.952 9.254 252.06-7.399z" fill="url(#SVGID_15_)"/><path d="m64.108 430.491v12.291c0 25.542 18.023 47.535 43.067 52.553 97.58 19.553 198.069 19.553 295.648 0 25.044-5.018 43.067-27.012 43.067-52.553v-12.291z" fill="url(#SVGID_16_)"/><path d="m97.771 363.103c-.845-1.633-2.53-2.762-4.496-2.762-2.806 0-5.081 2.275-5.081 5.081v.541c-7.421 2.194-12.844 9.054-12.844 17.182v29.421c0 5.501 2.488 10.421 6.393 13.71l77.607 77.607c20.906 2.679 41.896 4.475 62.915 5.391v-15.064c0-4.947-2.008-9.429-5.258-12.667z" fill="url(#SVGID_17_)"/><path d="m380.244 466.171c-83.513 6.888-166.975 6.888-250.488 0-20.404-1.683-37.432-16.559-41.605-36.602-7.371-35.41-7.369-70.079 0-105.483 4.172-20.043 21.201-34.919 41.604-36.601 83.513-6.888 166.975-6.888 250.487 0 20.404 1.683 37.432 16.558 41.604 36.601 7.37 35.404 7.371 70.073 0 105.483-4.17 20.043-21.198 34.919-41.602 36.602z" fill="url(#SVGID_18_)"/><path d="m421.848 324.085c-4.172-20.043-21.201-34.918-41.604-36.601-4.863-.401-9.727-.774-14.59-1.128 6.776 34.398 6.603 68.141-.566 102.582-4.172 20.044-21.201 34.92-41.605 36.602-78.649 6.487-157.254 6.86-235.898 1.128.19.967.365 1.932.566 2.899 4.172 20.044 21.201 34.919 41.605 36.602 83.513 6.888 166.975 6.888 250.488 0 20.404-1.683 37.433-16.559 41.605-36.602 7.37-35.409 7.369-70.078-.001-105.482z" fill="url(#SVGID_19_)"/><path d="m380.244 466.17c20.404-1.683 37.433-16.559 41.605-36.602 7.371-35.41 7.369-70.079 0-105.483-.732-3.517-1.868-6.87-3.34-10.026-5.902-3.468-12.617-5.672-19.748-6.26-83.513-6.888-166.975-6.888-250.488 0-20.404 1.683-37.432 16.558-41.604 36.601-7.37 35.404-7.371 70.073 0 105.483.732 3.518 1.868 6.871 3.341 10.027 5.901 3.468 12.617 5.672 19.748 6.26 83.511 6.889 166.973 6.888 250.486 0z" fill="url(#SVGID_20_)"/><path d="m83.453 356.547c-.486 6.003-.744 11.998-.799 17.992 52.141-2.775 111.644-4.243 172.346-4.243s120.205 1.468 172.346 4.243c-.055-5.994-.313-11.989-.799-17.992-52.036-2.732-111.212-4.176-171.547-4.176-60.334 0-119.511 1.444-171.547 4.176z" fill="url(#SVGID_21_)"/><path d="m421.508 370.893c-.087 0-.174-.002-.262-.007-5.866-.316-11.825-.616-17.87-.899-2.637-.124-4.675-2.362-4.551-4.999.123-2.636 2.374-4.687 4.998-4.551 6.068.285 12.05.585 17.938.903 2.636.142 4.658 2.395 4.515 5.031-.137 2.549-2.247 4.522-4.768 4.522zm-310.612-1.107c-2.542 0-4.656-2.001-4.772-4.565-.118-2.637 1.924-4.871 4.561-4.99 5.906-.265 11.89-.515 17.943-.746 2.627-.111 4.858 1.956 4.959 4.593.101 2.638-1.956 4.859-4.594 4.96-6.031.231-11.994.478-17.879.743-.073.003-.146.005-.218.005zm268.827-.801c-.061 0-.122-.001-.183-.004-5.9-.223-11.865-.43-17.887-.621-2.639-.084-4.709-2.291-4.626-4.929.084-2.639 2.281-4.656 4.929-4.626 6.041.191 12.025.4 17.944.623 2.638.099 4.696 2.319 4.596 4.956-.096 2.577-2.216 4.601-4.773 4.601zm-227.028-.762c-2.573 0-4.697-2.046-4.775-4.635-.08-2.639 1.994-4.843 4.633-4.922 5.932-.18 11.917-.344 17.948-.491 2.629-.093 4.831 2.021 4.896 4.662.064 2.638-2.023 4.831-4.662 4.895-6.012.147-11.978.309-17.892.489-.049.001-.099.002-.148.002zm185.228-.525c-.039 0-.078 0-.117-.001-5.922-.142-11.886-.27-17.888-.383-2.64-.049-4.739-2.229-4.69-4.869.05-2.64 2.239-4.758 4.869-4.689 6.019.113 12 .24 17.939.383 2.639.063 4.727 2.255 4.664 4.893-.063 2.6-2.19 4.666-4.777 4.666zm-143.402-.463c-2.602 0-4.732-2.085-4.778-4.697-.046-2.64 2.057-4.816 4.697-4.862 5.953-.103 11.941-.191 17.956-.264h.059c2.613 0 4.747 2.102 4.778 4.723.032 2.64-2.082 4.805-4.722 4.837-5.999.072-11.97.16-17.908.261-.026.002-.054.002-.082.002zm101.593-.281c-.019 0-.037 0-.057 0-5.941-.069-11.909-.124-17.896-.163-2.64-.018-4.766-2.172-4.749-4.811.017-2.64 2.148-4.792 4.811-4.749 6.004.04 11.987.094 17.944.163 2.64.03 4.755 2.195 4.724 4.835-.029 2.621-2.163 4.725-4.777 4.725zm-59.754-.189c-2.628 0-4.765-2.124-4.779-4.754-.014-2.64 2.115-4.792 4.755-4.806 5.969-.032 11.955-.048 17.954-.049 2.64 0 4.781 2.139 4.781 4.779.001 2.64-2.139 4.781-4.779 4.781-5.983.001-11.954.017-17.906.049-.008 0-.017 0-.026 0z" fill="url(#SVGID_22_)"/><path d="m97.771 363.103c-.845-1.633-2.53-2.762-4.496-2.762-2.806 0-5.081 2.275-5.081 5.081v.541c-1.971.583-3.795 1.503-5.42 2.68-.663 20.251 1.118 40.465 5.377 60.926.298 1.433.669 2.835 1.095 4.212l30.407 30.407c3.239 1.016 6.619 1.696 10.102 1.983 25.407 2.096 50.81 3.544 76.211 4.365z" fill="url(#SVGID_23_)"/><path d="m105.942 370.478c-3.239-3.25-7.72-5.258-12.667-5.258-9.895 0-17.925 8.03-17.925 17.925v29.421c0 9.895 8.031 17.925 17.925 17.925 9.895 0 17.925-8.03 17.925-17.925v-29.421c0-4.948-2.008-9.429-5.258-12.667zm-12.667 22.968c-5.282 0-9.56-4.278-9.56-9.56s4.278-9.56 9.56-9.56 9.56 4.278 9.56 9.56-4.278 9.56-9.56 9.56z" fill="url(#SVGID_24_)"/><path d="m93.275 367.156c-9.243 0-16.73 7.487-16.73 16.73s7.487 16.73 16.73 16.73 16.73-7.487 16.73-16.73c0-9.244-7.487-16.73-16.73-16.73zm0 26.29c-5.282 0-9.56-4.278-9.56-9.56s4.278-9.56 9.56-9.56 9.56 4.278 9.56 9.56-4.278 9.56-9.56 9.56z" fill="url(#SVGID_25_)"/><path d="m93.275 380.041c-2.806 0-5.081-2.275-5.081-5.081v-9.539c0-2.806 2.275-5.081 5.081-5.081 2.806 0 5.081 2.275 5.081 5.081v9.539c-.001 2.806-2.275 5.081-5.081 5.081z" fill="url(#SVGID_26_)"/><path d="m348.537 253.389h-187.074c-9.928 0-17.977-8.048-17.977-17.977v-51.282c0-9.928 8.048-17.977 17.977-17.977h187.074c9.928 0 17.977 8.048 17.977 17.977v51.282c-.001 9.928-8.049 17.977-17.977 17.977z" fill="url(#SVGID_27_)"/><path d="m344.383 245.815h-178.766c-8.768 0-15.877-7.108-15.877-15.877v-40.334c0-8.768 7.108-15.877 15.877-15.877h178.766c8.768 0 15.877 7.108 15.877 15.877v40.334c0 8.769-7.108 15.877-15.877 15.877z" fill="url(#SVGID_28_)"/><path d="m255 199.917c35.938 0 71.441.519 105.26 1.514v-11.828c0-2.177-.44-4.251-1.233-6.141-33.468-.967-68.54-1.471-104.027-1.471-35.486 0-70.559.503-104.027 1.471-.793 1.889-1.233 3.963-1.233 6.141v11.828c33.819-.995 69.322-1.514 105.26-1.514z" fill="url(#SVGID_29_)"/><path d="m224.457 186.027c-.019 0-.039 0-.059 0-6.016.023-12.004.063-17.958.117-2.64.024-4.761 2.183-4.737 4.823.024 2.612 2.137 4.715 4.739 4.736h.084c5.938-.053 11.91-.092 17.909-.115 2.64-.011 4.771-2.159 4.761-4.799-.009-2.621-2.126-4.74-4.739-4.762z" fill="url(#SVGID_30_)"/><path d="m182.498 186.447c-6.031.098-12.018.214-17.951.345-2.64.058-4.731 2.245-4.673 4.884.057 2.59 2.164 4.653 4.737 4.674.049 0 .099 0 .148-.001 5.915-.132 11.882-.245 17.895-.343 2.64-.043 4.745-2.218 4.702-4.857-.044-2.642-2.228-4.774-4.858-4.702z" fill="url(#SVGID_31_)"/><path d="m266.292 186.113c-5.999-.048-11.985-.08-17.954-.098-2.64-.007-4.786 2.127-4.794 4.767-.007 2.63 2.113 4.772 4.74 4.793h.026c5.952.017 11.923.049 17.906.097 2.64.022 4.797-2.102 4.818-4.742.021-2.639-2.101-4.795-4.742-4.817z" fill="url(#SVGID_32_)"/><path d="m308.168 186.693c-5.957-.118-11.939-.221-17.942-.31-2.663-.065-4.811 2.07-4.85 4.709s2.069 4.811 4.709 4.85c5.987.089 11.954.192 17.895.309h.057c2.614.021 4.765-2.065 4.817-4.686.05-2.638-2.047-4.82-4.686-4.872z" fill="url(#SVGID_33_)"/><path d="m350.027 187.779c-5.937-.191-11.917-.367-17.935-.529-2.629-.09-4.836 2.01-4.907 4.649s2.01 4.836 4.65 4.907c6.001.162 11.964.338 17.885.529.039.001.078.002.117.002 2.587.021 4.731-2.027 4.814-4.626.085-2.638-1.985-4.847-4.624-4.932z" fill="url(#SVGID_34_)"/><path d="m163.08 189.024c-.845-1.633-2.53-2.762-4.496-2.762-2.806 0-5.081 2.275-5.081 5.081v.541c-7.421 2.194-12.844 9.054-12.844 17.182v29.421c0 5.502 2.488 10.421 6.393 13.71l77.607 77.607c20.906 2.679 41.896 4.475 62.915 5.391v-15.063c0-4.947-2.008-9.429-5.258-12.667z" fill="url(#SVGID_35_)"/><path d="m171.251 196.399c-3.239-3.25-7.72-5.258-12.667-5.258-9.895 0-17.925 8.03-17.925 17.925v29.421c0 9.895 8.03 17.925 17.925 17.925s17.925-8.03 17.925-17.925v-29.421c0-4.948-2.008-9.429-5.258-12.667zm-12.667 22.968c-5.282 0-9.56-4.278-9.56-9.56s4.278-9.56 9.56-9.56 9.56 4.278 9.56 9.56c0 5.281-4.279 9.56-9.56 9.56z" fill="url(#SVGID_36_)"/><path d="m158.584 193.077c-9.243 0-16.73 7.486-16.73 16.73 0 9.243 7.487 16.73 16.73 16.73s16.73-7.487 16.73-16.73c0-9.244-7.487-16.73-16.73-16.73zm0 26.29c-5.282 0-9.56-4.278-9.56-9.56s4.278-9.56 9.56-9.56 9.56 4.278 9.56 9.56c0 5.281-4.279 9.56-9.56 9.56z" fill="url(#SVGID_37_)"/><path d="m158.584 205.962c-2.806 0-5.081-2.275-5.081-5.081v-9.539c0-2.806 2.275-5.081 5.081-5.081 2.806 0 5.081 2.275 5.081 5.081v9.539c-.001 2.806-2.276 5.081-5.081 5.081z" fill="url(#SVGID_38_)"/></svg>