<svg id="Capa_1" enable-background="new 0 0 510 510" height="512" viewBox="0 0 510 510" width="512" xmlns="http://www.w3.org/2000/svg" xmlns:xlink="http://www.w3.org/1999/xlink"><linearGradient id="lg1"><stop offset="0" stop-color="#ff7044"/><stop offset="1" stop-color="#f92814"/></linearGradient><linearGradient id="SVGID_1_" gradientUnits="userSpaceOnUse" x1="243.031" x2="294.254" xlink:href="#lg1" y1="451.867" y2="563.917"/><linearGradient id="SVGID_2_" gradientUnits="userSpaceOnUse" x1="276.205" x2="94.205" y1="475.416" y2="363.416"><stop offset="0" stop-color="#ff7044" stop-opacity="0"/><stop offset="1" stop-color="#ffa425"/></linearGradient><linearGradient id="SVGID_3_" gradientUnits="userSpaceOnUse" x1="328.013" x2="362.893" xlink:href="#lg1" y1="456.966" y2="533.265"/><linearGradient id="SVGID_4_" gradientUnits="userSpaceOnUse" x1="301.419" x2="278.318" y1="484.439" y2="413.95"><stop offset="0" stop-color="#f92814" stop-opacity="0"/><stop offset="1" stop-color="#c1272d"/></linearGradient><linearGradient id="lg2"><stop offset="0" stop-color="#7e8595"/><stop offset="1" stop-color="#555a66"/></linearGradient><linearGradient id="SVGID_5_" gradientUnits="userSpaceOnUse" x1="255" x2="255" xlink:href="#lg2" y1="416.659" y2="261.722"/><linearGradient id="lg3"><stop offset="0" stop-color="#ffda45"/><stop offset="1" stop-color="#ffa425"/></linearGradient><linearGradient id="SVGID_6_" gradientUnits="userSpaceOnUse" x1="197.689" x2="221.211" xlink:href="#lg3" y1="425.874" y2="477.329"/><linearGradient id="SVGID_7_" gradientTransform="matrix(-1 0 0 1 4675.15 0)" gradientUnits="userSpaceOnUse" x1="4362.839" x2="4386.362" xlink:href="#lg3" y1="425.874" y2="477.329"/><linearGradient id="SVGID_8_" gradientUnits="userSpaceOnUse" x1="174.184" x2="318.384" y1="366.319" y2="408.801"><stop offset="0" stop-color="#ffdaaa"/><stop offset=".2841" stop-color="#ffd4a4"/><stop offset=".6728" stop-color="#fdc592"/><stop offset="1" stop-color="#fcb37e"/></linearGradient><linearGradient id="lg4"><stop offset="0" stop-color="#fcb37e" stop-opacity="0"/><stop offset="1" stop-color="#ff7044"/></linearGradient><linearGradient id="SVGID_9_" gradientUnits="userSpaceOnUse" x1="284.709" x2="266.161" xlink:href="#lg4" y1="396.848" y2="333.424"/><radialGradient id="SVGID_10_" cx="217.951" cy="161.806" gradientUnits="userSpaceOnUse" r="188.786"><stop offset="0" stop-color="#ffdaaa"/><stop offset=".4213" stop-color="#ffd8a8"/><stop offset=".6519" stop-color="#fed1a0"/><stop offset=".8359" stop-color="#fdc592"/><stop offset=".9951" stop-color="#fcb47f"/><stop offset="1" stop-color="#fcb37e"/></radialGradient><linearGradient id="SVGID_11_" gradientUnits="userSpaceOnUse" x1="276.811" x2="214.584" xlink:href="#lg4" y1="194.096" y2="65.453"/><linearGradient id="SVGID_12_" gradientUnits="userSpaceOnUse" x1="137.388" x2="374.331" xlink:href="#lg2" y1="-26.095" y2="317.353"/><linearGradient id="lg5"><stop offset="0" stop-color="#555a66" stop-opacity="0"/><stop offset="1" stop-color="#555a66"/></linearGradient><linearGradient id="SVGID_13_" gradientUnits="userSpaceOnUse" x1="292.162" x2="403.454" xlink:href="#lg5" y1="52.591" y2="164.48"/><linearGradient id="SVGID_14_" gradientUnits="userSpaceOnUse" x1="222.318" x2="71.572" y1="79.684" y2="-201.482"><stop offset="0" stop-color="#bec3d2" stop-opacity="0"/><stop offset=".5577" stop-color="#d4d9e4" stop-opacity=".558"/><stop offset="1" stop-color="#e9edf5"/></linearGradient><linearGradient id="SVGID_15_" gradientUnits="userSpaceOnUse" x1="276.331" x2="228.831" xlink:href="#lg5" y1="133.763" y2="150.763"/><linearGradient id="SVGID_16_" gradientUnits="userSpaceOnUse" x1="193.698" x2="218.479" xlink:href="#lg2" y1="198.459" y2="223.241"/><linearGradient id="lg6"><stop offset="0" stop-color="#bec3d2" stop-opacity="0"/><stop offset=".3183" stop-color="#c2c7d5" stop-opacity=".318"/><stop offset=".6082" stop-color="#cdd1de" stop-opacity=".608"/><stop offset=".8861" stop-color="#dfe3ed" stop-opacity=".886"/><stop offset="1" stop-color="#e9edf5"/></linearGradient><linearGradient id="SVGID_17_" gradientUnits="userSpaceOnUse" x1="198.651" x2="184.772" xlink:href="#lg6" y1="202.438" y2="182.431"/><linearGradient id="SVGID_18_" gradientUnits="userSpaceOnUse" x1="201.521" x2="227.821" xlink:href="#lg5" y1="212.951" y2="164.037"/><linearGradient id="SVGID_19_" gradientUnits="userSpaceOnUse" x1="301.984" x2="326.766" xlink:href="#lg2" y1="198.459" y2="223.241"/><linearGradient id="SVGID_20_" gradientUnits="userSpaceOnUse" x1="306.937" x2="293.058" xlink:href="#lg6" y1="202.438" y2="182.431"/><linearGradient id="SVGID_21_" gradientUnits="userSpaceOnUse" x1="309.808" x2="336.108" xlink:href="#lg5" y1="212.951" y2="164.037"/><linearGradient id="SVGID_22_" gradientUnits="userSpaceOnUse" x1="255" x2="255" xlink:href="#lg4" y1="224.386" y2="304.046"/><path d="m348.564 393.722h-187.128c-41.074 0-74.37 33.297-74.37 74.37v34.542c0 4.068 3.298 7.366 7.366 7.366h321.137c4.068 0 7.366-3.298 7.366-7.366v-34.542c-.001-41.073-33.297-74.37-74.371-74.37z" fill="url(#SVGID_1_)"/><path d="m353.858 402h-173.806c-38.15 0-69.076 30.927-69.076 69.076v32.083c0 3.778 3.063 6.841 6.841 6.841h297.752c4.068 0 7.365-3.298 7.365-7.366v-31.558c0-38.149-30.926-69.076-69.076-69.076z" fill="url(#SVGID_2_)"/><path d="m348.564 393.722h-19.194c-41.074 0-74.37 33.297-74.37 74.37v41.908h160.569c4.068 0 7.366-3.298 7.366-7.366v-34.541c-.001-41.074-33.298-74.371-74.371-74.371z" fill="url(#SVGID_3_)"/><path d="m157.091 403.373v13.636c0 18.336 6.4 36.098 18.095 50.221 1.157 1.397 2.396 2.687 3.695 3.884l38.886 38.886h197.801c4.068 0 7.366-3.298 7.366-7.366v-32.946l-71.84-71.84c-1.747-2.479-4.592-4.121-7.836-4.126h-.099-176.318-.099c-5.33 0-9.651 4.321-9.651 9.651z" fill="url(#SVGID_4_)"/><path d="m381.261 126.261c0-69.732-56.529-126.261-126.261-126.261-69.732 0-126.261 56.529-126.261 126.261 0 43.554-11.141 86.385-32.365 124.418l-50.843 91.113c-3.845 6.89-.091 15.551 7.566 17.456l39.041 9.711c106.944 26.602 218.777 26.602 325.721 0l39.041-9.711c7.657-1.905 11.411-10.565 7.566-17.456l-50.843-91.113c-21.221-38.033-32.362-80.863-32.362-124.418z" fill="url(#SVGID_5_)"/><path d="m255 454.155-33.247-60.432h-54.912c-.033 0-.066 0-.099 0-5.358.008-9.65 4.467-9.65 9.825v13.461c0 18.336 6.4 36.098 18.095 50.221 13.519 16.324 37.505 19.085 54.379 6.259z" fill="url(#SVGID_6_)"/><path d="m255 454.155 33.247-60.432h54.912.099c5.358.008 9.65 4.467 9.65 9.825v13.461c0 18.336-6.4 36.098-18.095 50.221-13.519 16.324-37.505 19.085-54.379 6.259z" fill="url(#SVGID_7_)"/><path d="m288.906 348.295v-20.358h-67.812v20.358c0 25.089-20.338 45.427-45.427 45.427 0 33.376 27.057 60.432 60.432 60.432h37.802c33.376 0 60.432-27.057 60.432-60.432-25.089 0-45.427-20.338-45.427-45.427z" fill="url(#SVGID_8_)"/><path d="m334.333 393.722c-25.089 0-45.427-20.339-45.427-45.427v-20.358h-67.812v20.358c0 1.134-.056 2.255-.137 3.368l.001.001 89.876 89.876c14.289-11.053 23.499-28.355 23.499-47.818z" fill="url(#SVGID_9_)"/><path d="m255 357.154c-59.524 0-107.778-48.254-107.778-107.778v-113.392c0-59.524 48.254-107.778 107.778-107.778 59.524 0 107.778 48.254 107.778 107.778v113.392c0 59.524-48.254 107.778-107.778 107.778z" fill="url(#SVGID_10_)"/><path d="m255 28.206c-59.524 0-107.778 48.254-107.778 107.778v50.8l157.981 157.98c34.235-18.055 57.576-53.993 57.576-95.388v-113.392c0-59.524-48.255-107.778-107.779-107.778z" fill="url(#SVGID_11_)"/><path d="m255 0c-69.732 0-126.261 56.529-126.261 126.261 0 21.622-2.753 43.064-8.115 63.831 52.734-.31 96.98-36.425 109.641-85.272 29.715 51.003 84.983 85.287 148.266 85.287 3.617 0 7.203-.125 10.764-.346-5.306-20.664-8.034-41.992-8.034-63.499 0-69.733-56.529-126.262-126.261-126.262z" fill="url(#SVGID_12_)"/><path d="m389.292 189.76c-3.554.215-7.144.347-10.758.347-.122 0-.244 0-.365 0-20.977-.044-38.575-16.098-40.696-36.967-.905-8.902-1.361-17.872-1.361-26.875 0-34.871-13.547-66.428-35.446-89.284-17.544-18.299-40.448-31.008-66.046-35.328 6.63-1.089 13.439-1.651 20.38-1.651 34.871 0 66.428 14.133 89.284 36.978 22.845 22.857 36.978 54.413 36.978 89.284 0 21.504 2.728 42.829 8.03 63.496z" fill="url(#SVGID_13_)"/><path d="m255 13.836c-59.524 0-107.778 48.254-107.778 107.778v65.169c40.554-9.964 72.583-41.607 83.043-81.964 27.22 46.721 75.889 79.392 132.514 84.552v-67.757c0-59.524-48.255-107.778-107.779-107.778z" fill="url(#SVGID_14_)"/><path d="m378.531 190.106c3.617 0 7.203-.125 10.764-.346-3.543-13.797-5.929-27.892-7.129-42.137-120.388-9.272-162.176-90.123-162.176-90.123 0 27 10.274 47.32 10.274 47.32 29.715 51.002 84.984 85.286 148.267 85.286z" fill="url(#SVGID_15_)"/><circle cx="200.857" cy="205.618" fill="url(#SVGID_16_)" r="19.134"/><circle cx="200.857" cy="205.618" fill="url(#SVGID_17_)" r="15.969"/><path d="m209.416 188.503c1.29 2.576 2.018 5.482 2.018 8.559 0 10.567-8.566 19.134-19.134 19.134-3.077 0-5.984-.727-8.559-2.018 3.142 6.27 9.625 10.575 17.116 10.575 10.567 0 19.134-8.566 19.134-19.134-.001-7.491-4.305-13.975-10.575-17.116z" fill="url(#SVGID_18_)"/><circle cx="309.143" cy="205.618" fill="url(#SVGID_19_)" r="19.134"/><circle cx="309.143" cy="205.618" fill="url(#SVGID_20_)" r="15.969"/><path d="m317.702 188.503c1.29 2.576 2.018 5.482 2.018 8.559 0 10.567-8.566 19.134-19.134 19.134-3.077 0-5.984-.727-8.559-2.018 3.142 6.27 9.625 10.575 17.116 10.575 10.567 0 19.134-8.566 19.134-19.134 0-7.491-4.305-13.975-10.575-17.116z" fill="url(#SVGID_21_)"/><path d="m261.123 280.031h-12.246c-9.813 0-17.459-8.512-16.409-18.269l6.402-59.515h32.259l6.402 59.515c1.05 9.758-6.595 18.269-16.408 18.269z" fill="url(#SVGID_22_)"/></svg>