<svg id="Capa_1" enable-background="new 0 0 510 510" height="512" viewBox="0 0 510 510" width="512" xmlns="http://www.w3.org/2000/svg" xmlns:xlink="http://www.w3.org/1999/xlink"><linearGradient id="lg1"><stop offset="0" stop-color="#ffda45"/><stop offset="1" stop-color="#ffa425"/></linearGradient><linearGradient id="SVGID_1_" gradientUnits="userSpaceOnUse" x1="392.845" x2="411.226" xlink:href="#lg1" y1="197.728" y2="197.728"/><linearGradient id="lg2"><stop offset="0" stop-color="#ffda45" stop-opacity="0"/><stop offset=".5194" stop-color="#d9874f" stop-opacity=".519"/><stop offset="1" stop-color="#b53759"/></linearGradient><linearGradient id="SVGID_2_" gradientUnits="userSpaceOnUse" x1="408.769" x2="399.501" xlink:href="#lg2" y1="210.653" y2="180.72"/><linearGradient id="lg3"><stop offset="0" stop-color="#7e8595"/><stop offset="1" stop-color="#555a66"/></linearGradient><linearGradient id="SVGID_3_" gradientTransform="matrix(.826 .564 -.564 .826 162.202 -167.553)" gradientUnits="userSpaceOnUse" x1="370.232" x2="370.232" xlink:href="#lg3" y1="141.809" y2="151.562"/><linearGradient id="SVGID_4_" gradientTransform="matrix(.826 .564 -.564 .826 162.202 -167.553)" gradientUnits="userSpaceOnUse" x1="370.232" x2="370.232" xlink:href="#lg3" y1="146.556" y2="172.772"/><linearGradient id="lg4"><stop offset="0" stop-color="#555a66" stop-opacity="0"/><stop offset="1" stop-color="#555a66"/></linearGradient><linearGradient id="SVGID_5_" gradientTransform="matrix(.826 .564 -.564 .826 162.202 -167.553)" gradientUnits="userSpaceOnUse" x1="386.508" x2="386.508" xlink:href="#lg4" y1="146.556" y2="172.772"/><linearGradient id="lg5"><stop offset="0" stop-color="#bec3d2" stop-opacity="0"/><stop offset=".221" stop-color="#c5c9d7" stop-opacity=".221"/><stop offset=".5343" stop-color="#d7dae3" stop-opacity=".534"/><stop offset=".9014" stop-color="#f6f6f8" stop-opacity=".901"/><stop offset="1" stop-color="#fff"/></linearGradient><linearGradient id="SVGID_6_" gradientTransform="matrix(.826 .564 -.564 .826 162.202 -167.553)" gradientUnits="userSpaceOnUse" x1="360.68" x2="302.249" xlink:href="#lg5" y1="147.898" y2="125.425"/><linearGradient id="SVGID_7_" gradientUnits="userSpaceOnUse" x1="418.638" x2="405.612" xlink:href="#lg4" y1="195.543" y2="184.856"/><linearGradient id="lg6"><stop offset="0" stop-color="#f9f7fc"/><stop offset="1" stop-color="#f0ddfc"/></linearGradient><linearGradient id="SVGID_8_" gradientUnits="userSpaceOnUse" x1="396.592" x2="409.111" xlink:href="#lg6" y1="176.036" y2="188.555"/><linearGradient id="lg7"><stop offset="0" stop-color="#e9edf5" stop-opacity="0"/><stop offset="1" stop-color="#fff"/></linearGradient><linearGradient id="SVGID_9_" gradientUnits="userSpaceOnUse" x1="401.369" x2="395.404" xlink:href="#lg7" y1="181.297" y2="172.842"/><linearGradient id="lg8"><stop offset="0" stop-color="#f0ddfc" stop-opacity="0"/><stop offset=".2889" stop-color="#c8b7e0" stop-opacity=".289"/><stop offset=".5915" stop-color="#a595c8" stop-opacity=".592"/><stop offset=".8395" stop-color="#8f81b8" stop-opacity=".84"/><stop offset="1" stop-color="#8779b3"/></linearGradient><linearGradient id="SVGID_10_" gradientUnits="userSpaceOnUse" x1="401.525" x2="414.811" xlink:href="#lg8" y1="181.535" y2="156.824"/><linearGradient id="SVGID_11_" gradientUnits="userSpaceOnUse" x1="250.704" x2="250.704" xlink:href="#lg3" y1="418.818" y2="514.084"/><linearGradient id="SVGID_12_" gradientUnits="userSpaceOnUse" x1="242.689" x2="266.282" xlink:href="#lg3" y1="378.429" y2="378.429"/><linearGradient id="SVGID_13_" gradientUnits="userSpaceOnUse" x1="276.928" x2="251.545" xlink:href="#lg4" y1="358.39" y2="283.244"/><radialGradient id="SVGID_14_" cx="235.01" cy="251.101" gradientUnits="userSpaceOnUse" r="66.756"><stop offset="0" stop-color="#ffda45"/><stop offset=".3043" stop-color="#ffce3e"/><stop offset=".8558" stop-color="#ffae2b"/><stop offset="1" stop-color="#ffa425"/></radialGradient><linearGradient id="lg9"><stop offset="0" stop-color="#ffda45" stop-opacity="0"/><stop offset="1" stop-color="#fcee21"/></linearGradient><linearGradient id="SVGID_15_" gradientUnits="userSpaceOnUse" x1="255.95" x2="208.296" xlink:href="#lg9" y1="278.89" y2="231.237"/><linearGradient id="SVGID_16_" gradientUnits="userSpaceOnUse" x1="252.336" x2="316.911" y1="291.649" y2="171.549"><stop offset="0" stop-color="#ffda45" stop-opacity="0"/><stop offset="1" stop-color="#b53759"/></linearGradient><linearGradient id="SVGID_17_" gradientUnits="userSpaceOnUse" x1="273.145" x2="245.363" xlink:href="#lg2" y1="296.086" y2="268.304"/><linearGradient id="SVGID_18_" gradientUnits="userSpaceOnUse" x1="247.088" x2="259.607" xlink:href="#lg6" y1="270.028" y2="282.547"/><linearGradient id="SVGID_19_" gradientUnits="userSpaceOnUse" x1="251.864" x2="245.9" xlink:href="#lg7" y1="275.289" y2="266.834"/><linearGradient id="SVGID_20_" gradientUnits="userSpaceOnUse" x1="252.02" x2="265.306" xlink:href="#lg8" y1="275.526" y2="250.815"/><linearGradient id="SVGID_21_" gradientUnits="userSpaceOnUse" x1="253.811" x2="245.269" y1="260.569" y2="224.384"><stop offset="0" stop-color="#ffda45" stop-opacity="0"/><stop offset="1" stop-color="#fff"/></linearGradient><linearGradient id="SVGID_22_" gradientUnits="userSpaceOnUse" x1="215.585" x2="215.585" xlink:href="#lg3" y1="102.288" y2="317.285"/><linearGradient id="SVGID_23_" gradientTransform="matrix(.863 .506 -.506 .863 170.139 -116.491)" gradientUnits="userSpaceOnUse" x1="387.036" x2="313.329" xlink:href="#lg4" y1="289.326" y2="146.908"/><linearGradient id="SVGID_24_" gradientTransform="matrix(.863 .506 -.506 .863 170.139 -116.491)" gradientUnits="userSpaceOnUse" x1="204.793" x2="205.803" xlink:href="#lg5" y1="217.851" y2="59.785"/><linearGradient id="SVGID_25_" gradientTransform="matrix(.863 .506 -.506 .863 170.139 -116.491)" gradientUnits="userSpaceOnUse" x1="52.585" x2="-8.772" xlink:href="#lg4" y1="223.71" y2="223.71"/><linearGradient id="SVGID_26_" gradientTransform="matrix(.863 .506 -.506 .863 170.139 -116.491)" gradientUnits="userSpaceOnUse" x1="-16.601" x2="12.759" xlink:href="#lg1" y1="223.71" y2="223.71"/><linearGradient id="SVGID_27_" gradientTransform="matrix(.863 .506 -.506 .863 170.139 -116.491)" gradientUnits="userSpaceOnUse" x1="11.202" x2="-33.743" xlink:href="#lg9" y1="230.622" y2="217.997"/><linearGradient id="SVGID_28_" gradientTransform="matrix(.863 .506 -.506 .863 170.139 -116.491)" gradientUnits="userSpaceOnUse" x1="274.663" x2="227.464" xlink:href="#lg4" y1="223.71" y2="223.71"/><linearGradient id="SVGID_29_" gradientTransform="matrix(.863 .506 -.506 .863 170.139 -116.491)" gradientUnits="userSpaceOnUse" x1="206.514" x2="235.874" xlink:href="#lg1" y1="223.71" y2="223.71"/><linearGradient id="SVGID_30_" gradientTransform="matrix(.863 .506 -.506 .863 170.139 -116.491)" gradientUnits="userSpaceOnUse" x1="233.251" x2="191.946" xlink:href="#lg9" y1="229.915" y2="218.312"/><linearGradient id="SVGID_31_" gradientTransform="matrix(.863 .506 -.506 .863 170.139 -116.491)" gradientUnits="userSpaceOnUse" x1="327.118" x2="352.703" xlink:href="#lg1" y1="222.491" y2="222.491"/><linearGradient id="SVGID_32_" gradientTransform="matrix(.863 .506 -.506 .863 170.139 -116.491)" gradientUnits="userSpaceOnUse" x1="350.417" x2="314.423" xlink:href="#lg9" y1="227.898" y2="217.787"/><linearGradient id="SVGID_33_" gradientTransform="matrix(-.506 .863 -1.395 -.817 768.164 -319.195)" gradientUnits="userSpaceOnUse" x1="674.694" x2="739.249" xlink:href="#lg3" y1="-31.911" y2="5.592"/><linearGradient id="SVGID_34_" gradientTransform="matrix(-.506 .863 .863 .506 951.33 -211.86)" gradientUnits="userSpaceOnUse" x1="734.782" x2="680.372" xlink:href="#lg4" y1="-166.529" y2="-271.661"/><linearGradient id="SVGID_35_" gradientTransform="matrix(-.506 .863 -.863 -.506 793.366 -304.426)" gradientUnits="userSpaceOnUse" x1="700.95" x2="700.95" xlink:href="#lg3" y1="-49.481" y2="-31.959"/><linearGradient id="SVGID_36_" gradientTransform="matrix(-.506 .863 -.863 -.506 793.366 -304.426)" gradientUnits="userSpaceOnUse" x1="700.9" x2="700.9" xlink:href="#lg3" y1="46.871" y2="64.393"/><linearGradient id="SVGID_37_" gradientTransform="matrix(-.506 .863 -.863 -.506 793.366 -304.426)" gradientUnits="userSpaceOnUse" x1="697.777" x2="659.044" xlink:href="#lg5" y1="39.678" y2="1.407"/><linearGradient id="SVGID_38_" gradientUnits="userSpaceOnUse" x1="130.617" x2="130.617" xlink:href="#lg3" y1="474.74" y2="490.121"/><linearGradient id="SVGID_39_" gradientUnits="userSpaceOnUse" x1="130.617" x2="130.617" xlink:href="#lg3" y1="491.06" y2="517.269"/><linearGradient id="SVGID_40_" gradientUnits="userSpaceOnUse" x1="146.895" x2="146.895" xlink:href="#lg4" y1="491.06" y2="517.269"/><linearGradient id="SVGID_41_" gradientUnits="userSpaceOnUse" x1="123.03" x2="64.595" xlink:href="#lg5" y1="487.291" y2="464.816"/><linearGradient id="SVGID_42_" gradientUnits="userSpaceOnUse" x1="250.704" x2="250.704" xlink:href="#lg3" y1="474.74" y2="490.121"/><linearGradient id="SVGID_43_" gradientUnits="userSpaceOnUse" x1="250.704" x2="250.704" xlink:href="#lg3" y1="491.06" y2="517.269"/><linearGradient id="SVGID_44_" gradientUnits="userSpaceOnUse" x1="266.981" x2="266.981" xlink:href="#lg4" y1="491.06" y2="517.269"/><linearGradient id="SVGID_45_" gradientUnits="userSpaceOnUse" x1="243.117" x2="184.682" xlink:href="#lg5" y1="487.291" y2="464.816"/><linearGradient id="SVGID_46_" gradientUnits="userSpaceOnUse" x1="370.791" x2="370.791" xlink:href="#lg3" y1="474.74" y2="490.121"/><linearGradient id="SVGID_47_" gradientUnits="userSpaceOnUse" x1="370.791" x2="370.791" xlink:href="#lg3" y1="491.06" y2="517.269"/><linearGradient id="SVGID_48_" gradientUnits="userSpaceOnUse" x1="387.068" x2="387.068" xlink:href="#lg4" y1="491.06" y2="517.269"/><linearGradient id="SVGID_49_" gradientUnits="userSpaceOnUse" x1="363.203" x2="304.769" xlink:href="#lg5" y1="487.291" y2="464.816"/><path d="m400.209 226.666c-5.358 0-9.702-4.344-9.702-9.702v-38.471c0-5.358 4.344-9.702 9.702-9.702 5.358 0 9.702 4.344 9.702 9.702v38.471c-.001 5.358-4.344 9.702-9.702 9.702z" fill="url(#SVGID_1_)"/><path d="m400.209 168.791c-5.358 0-9.702 4.344-9.702 9.702v10.505l19.403 19.403v-29.909c0-5.357-4.343-9.701-9.701-9.701z" fill="url(#SVGID_2_)"/><path d="m409.934 170.625-8.583 12.556c-2.262 3.309-6.788 4.159-10.096 1.898l-29.488-20.157c-3.317-2.267-4.159-6.787-1.898-10.096l8.589-12.565c1.426.453 2.819 1.114 4.118 2.001l34.005 23.244c1.297.889 2.419 1.947 3.353 3.119z" fill="url(#SVGID_3_)"/><path d="m410.605 188.925-2.324 3.4c-2.262 3.309-6.779 4.165-10.096 1.898l-47.455-32.437c-3.317-2.267-4.159-6.787-1.898-10.096l2.324-3.4c3.913-5.724 11.006-7.987 17.3-6.027 1.426.453 2.819 1.114 4.118 2.001l34.005 23.244c1.299.888 2.42 1.946 3.354 3.118.131.163.255.32.381.491.118.165.235.331.347.504.118.165.229.339.328.515.963 1.556 1.638 3.268 1.992 5.039.045.201.082.395.11.585.031.203.062.406.085.604.076.598.117 1.196.115 1.802.001.159.002.317-.005.47.003.245-.017.486-.034.742-.013.197-.033.403-.06.602-.22 1.937-.803 3.856-1.794 5.643-.111.215-.23.425-.363.638-.138.22-.277.441-.43.664z" fill="url(#SVGID_4_)"/><path d="m410.605 188.925-2.324 3.4c-2.262 3.309-6.779 4.165-10.096 1.898l-26.577-18.167c2.622 1.792 5.769 2.232 8.62 1.487 2.372-.612 4.543-2.065 6.035-4.249l3.364-4.922c2.092-3.061 3.313-6.462 3.733-9.9l13.218 9.035c1.299.888 2.42 1.946 3.354 3.118.131.163.255.32.381.491.118.165.235.331.347.504.118.165.229.339.328.515.963 1.556 1.638 3.268 1.992 5.039.045.201.082.395.11.585.031.203.062.406.085.604.076.598.117 1.196.115 1.802.001.159.002.317-.005.47.003.245-.017.486-.034.742-.013.197-.033.403-.06.602-.22 1.937-.803 3.856-1.794 5.643-.111.215-.23.425-.363.638-.137.221-.276.442-.429.665z" fill="url(#SVGID_5_)"/><path d="m410.605 188.925-2.324 3.4c-2.262 3.309-6.779 4.165-10.096 1.898l-39.687-27.128c-3.317-2.267-4.159-6.787-1.898-10.096l2.324-3.4c1.329-1.944 3.028-3.489 4.931-4.603 3.702-2.166 8.213-2.712 12.364-1.416l.384-.562 29.977 20.49c1.299.888 2.42 1.946 3.354 3.118.131.163.255.32.381.491.118.165.235.331.347.504.118.165.229.339.328.515.963 1.556 1.638 3.268 1.992 5.039.045.201.082.395.11.585.031.203.062.406.085.604.076.598.117 1.196.115 1.802.001.159.002.317-.005.47.003.245-.017.486-.034.742-.013.197-.033.403-.06.602-.22 1.937-.803 3.856-1.794 5.643-.111.215-.23.425-.363.638-.139.22-.278.441-.431.664z" fill="url(#SVGID_6_)"/><path d="m400.209 169.987c-5.338 0-9.666 4.328-9.666 9.666 0 2.851 1.235 5.414 3.199 7.183l8.649 8.649c2.28-.035 4.508-1.136 5.891-3.16l2.324-3.4c.153-.223.291-.444.43-.665.133-.212.252-.422.363-.638.991-1.787 1.574-3.706 1.794-5.643.027-.2.046-.405.06-.602.017-.255.036-.497.034-.741.007-.153.006-.311.006-.47.001-.38-.02-.756-.05-1.131l-5.85-5.85c-1.771-1.963-4.333-3.198-7.184-3.198z" fill="url(#SVGID_7_)"/><circle cx="400.209" cy="179.653" fill="url(#SVGID_8_)" r="9.666"/><circle cx="400.209" cy="179.653" fill="url(#SVGID_9_)" r="8.067"/><path d="m404.533 171.006c.652 1.301 1.019 2.77 1.019 4.324 0 5.338-4.328 9.666-9.666 9.666-1.554 0-3.023-.367-4.324-1.019 1.587 3.167 4.863 5.342 8.647 5.342 5.338 0 9.666-4.328 9.666-9.666 0-3.784-2.175-7.06-5.342-8.647z" fill="url(#SVGID_10_)"/><path d="m359.924 489.441-109.22-190.606-109.22 190.606-21.734-12.454 130.954-228.533 130.954 228.533z" fill="url(#SVGID_11_)"/><path d="m238.18 273.645h25.049v209.57h-25.049z" fill="url(#SVGID_12_)"/><path d="m326.769 381.198-76.065-132.744-33.374 58.243 18.353 18.353 2.497-4.358v6.855l25.048 25.049v-31.904l34.671 60.506z" fill="url(#SVGID_13_)"/><circle cx="250.704" cy="273.645" fill="url(#SVGID_14_)" r="46.979"/><circle cx="250.704" cy="273.645" fill="url(#SVGID_15_)" r="43.948"/><path d="m271.719 231.62c3.168 6.324 4.955 13.46 4.955 21.015 0 25.946-21.033 46.979-46.979 46.979-7.555 0-14.691-1.786-21.015-4.955 7.713 15.394 23.633 25.964 42.025 25.964 25.946 0 46.979-21.033 46.979-46.979-.001-18.39-10.57-34.31-25.965-42.024z" fill="url(#SVGID_16_)"/><path d="m290.041 299.332-32.154-32.154c-1.769-1.964-4.331-3.199-7.183-3.199-5.338 0-9.666 4.328-9.666 9.666 0 2.851 1.235 5.414 3.199 7.183l32.154 32.154c5.438-3.558 10.092-8.213 13.65-13.65z" fill="url(#SVGID_17_)"/><circle cx="250.704" cy="273.645" fill="url(#SVGID_18_)" r="9.666"/><circle cx="250.704" cy="273.645" fill="url(#SVGID_19_)" r="8.067"/><path d="m255.028 264.998c.652 1.301 1.019 2.77 1.019 4.324 0 5.338-4.328 9.666-9.666 9.666-1.554 0-3.023-.367-4.324-1.019 1.587 3.167 4.863 5.342 8.647 5.342 5.338 0 9.666-4.328 9.666-9.666 0-3.784-2.174-7.06-5.342-8.647z" fill="url(#SVGID_20_)"/><ellipse cx="250.704" cy="247.409" fill="url(#SVGID_21_)" rx="28.506" ry="16.57"/><path d="m423.06 230.37-52.9 90.28-43.33-21.92-318.72-161.21 78.23-133.5 320 215.11z" fill="url(#SVGID_22_)"/><path d="m322.429 296.531 37.292 18.862 39.61-72.081-12.537-37.321-8.113-5.454z" fill="url(#SVGID_23_)"/><path d="m8.108 137.521 386.491 195.487 40.471-69.064-359.45-241.631z" fill="url(#SVGID_24_)"/><path d="m8.108 137.521 145.014 73.348-50.773-194.503-1.085-2.31-14.926-10.034z" fill="url(#SVGID_25_)"/><path d="m10.794 146.569c-6.738-3.948-8.999-12.611-5.051-19.349l70.452-120.227c3.948-6.738 12.611-8.999 19.349-5.051 6.738 3.948 8.999 12.611 5.051 19.349l-70.453 120.228c-3.948 6.737-12.611 8.999-19.348 5.05z" fill="url(#SVGID_26_)"/><path d="m77.3 15.097-70.453 120.227c-.917 1.565-1.486 3.236-1.754 4.926 1.166 2.555 3.094 4.792 5.701 6.319 6.738 3.948 15.4 1.687 19.349-5.051l70.453-120.227c.917-1.565 1.486-3.236 1.754-4.926-1.166-2.555-3.094-4.792-5.701-6.319-6.738-3.948-15.401-1.687-19.349 5.051z" fill="url(#SVGID_27_)"/><path d="m219.852 244.621 111.552 56.423-41.879-160.435-6.257-4.206z" fill="url(#SVGID_28_)"/><path d="m209.469 250.666-1.601-.938c-6.296-3.689-8.409-11.784-4.719-18.08l60.637-103.476c3.689-6.296 11.784-8.409 18.08-4.719l1.6.938c6.296 3.689 8.409 11.784 4.719 18.08l-60.637 103.476c-3.689 6.295-11.783 8.408-18.079 4.719z" fill="url(#SVGID_29_)"/><path d="m265.741 134.823-61.513 104.972c-.801 1.367-1.258 2.848-1.425 4.363 1.27 2.378 3.259 4.51 5.865 6.038 6.738 3.948 14.994 2.38 18.442-3.503l61.513-104.972c.801-1.367 1.258-2.848 1.425-4.363-1.27-2.378-3.259-4.51-5.866-6.038-6.737-3.948-14.993-2.379-18.441 3.503z" fill="url(#SVGID_30_)"/><path d="m317.45 301.622-1.395-.817c-5.486-3.215-7.327-10.269-4.113-15.755l52.84-90.171c3.215-5.486 10.269-7.327 15.755-4.113l1.395.817c5.486 3.215 7.327 10.269 4.113 15.755l-52.84 90.171c-3.215 5.487-10.269 7.328-15.755 4.113z" fill="url(#SVGID_31_)"/><path d="m366.486 200.676-53.603 91.474c-.698 1.191-1.097 2.482-1.242 3.802 1.107 2.072 2.84 3.93 5.111 5.262 5.871 3.441 13.066 2.074 16.07-3.052l53.603-91.474c.698-1.191 1.097-2.482 1.242-3.802-1.107-2.072-2.84-3.93-5.111-5.261-5.871-3.442-13.066-2.075-16.07 3.051z" fill="url(#SVGID_32_)"/><path d="m377.197 302.971 33.881-57.818 85.734 50.24-33.881 57.818z" fill="url(#SVGID_33_)"/><path d="m373.789 300.917 33.881-57.818 12.153 7.121 16.929 64.854-9.919 16.926z" fill="url(#SVGID_34_)"/><path d="m449.074 349 37.292-63.639c2.234-3.812 7.136-5.092 10.948-2.858l4.929 2.889c3.812 2.234 5.092 7.136 2.858 10.948l-37.292 63.639c-2.234 3.812-7.136 5.092-10.948 2.858l-4.929-2.888c-3.813-2.235-5.092-7.137-2.858-10.949z" fill="url(#SVGID_35_)"/><path d="m360.263 309.98 48.703-83.112c2.234-3.812 7.136-5.092 10.948-2.858l4.929 2.889c3.812 2.234 5.092 7.136 2.858 10.948l-48.703 83.112c-2.234 3.812-7.136 5.092-10.948 2.858l-4.929-2.889c-3.812-2.234-5.092-7.136-2.858-10.948z" fill="url(#SVGID_36_)"/><path d="m363.121 320.928 4.929 2.889c3.812 2.234 8.714.954 10.948-2.858l39.067-66.668c2.234-3.812.955-8.714-2.858-10.948l-4.929-2.889c-3.812-2.234-8.714-.954-10.948 2.858l-39.067 66.668c-2.234 3.812-.954 8.714 2.858 10.948z" fill="url(#SVGID_37_)"/><path d="m148.478 506.368h-35.721c-4.012 0-7.264-3.252-7.264-7.264v-21.99c0-4.012 3.252-7.264 7.264-7.264h35.721c4.012 0 7.264 3.252 7.264 7.264v21.99c0 4.012-3.252 7.264-7.264 7.264z" fill="url(#SVGID_38_)"/><path d="m159.362 510h-57.488c-4.012 0-7.264-3.252-7.264-7.264v-4.11c0-8.512 6.9-15.412 15.412-15.412h41.193c8.512 0 15.412 6.9 15.412 15.412v4.11c-.002 4.012-3.254 7.264-7.265 7.264z" fill="url(#SVGID_39_)"/><path d="m151.214 483.214h-16.01c1.596 3.078 2.503 6.571 2.503 10.278v5.965c0 5.823-4.72 10.543-10.543 10.543h32.198c4.012 0 7.264-3.252 7.264-7.264v-4.11c-.001-8.512-6.901-15.412-15.412-15.412z" fill="url(#SVGID_40_)"/><path d="m166.625 502.736v-4.11c0-6.936-4.582-12.8-10.883-14.734v-6.778c0-4.012-3.252-7.264-7.264-7.264h-26.313c-4.012 0-7.264 3.252-7.264 7.264v6.778c-6.301 1.934-10.883 7.799-10.883 14.734v4.11c0 4.012 3.252 7.264 7.264 7.264h48.08c4.011 0 7.263-3.252 7.263-7.264z" fill="url(#SVGID_41_)"/><path d="m268.565 506.368h-35.721c-4.012 0-7.264-3.252-7.264-7.264v-21.99c0-4.012 3.252-7.264 7.264-7.264h35.721c4.012 0 7.264 3.252 7.264 7.264v21.99c0 4.012-3.252 7.264-7.264 7.264z" fill="url(#SVGID_42_)"/><path d="m279.448 510h-57.488c-4.012 0-7.264-3.252-7.264-7.264v-4.11c0-8.512 6.9-15.412 15.412-15.412h41.193c8.512 0 15.412 6.9 15.412 15.412v4.11c-.001 4.012-3.253 7.264-7.265 7.264z" fill="url(#SVGID_43_)"/><path d="m271.301 483.214h-16.01c1.596 3.078 2.503 6.571 2.503 10.278v5.965c0 5.823-4.72 10.543-10.543 10.543h32.198c4.012 0 7.264-3.252 7.264-7.264v-4.11c-.001-8.512-6.901-15.412-15.412-15.412z" fill="url(#SVGID_44_)"/><path d="m286.712 502.736v-4.11c0-6.936-4.582-12.8-10.883-14.734v-6.778c0-4.012-3.252-7.264-7.264-7.264h-26.313c-4.012 0-7.264 3.252-7.264 7.264v6.778c-6.301 1.934-10.883 7.799-10.883 14.734v4.11c0 4.012 3.252 7.264 7.264 7.264h48.08c4.011 0 7.263-3.252 7.263-7.264z" fill="url(#SVGID_45_)"/><path d="m388.651 506.368h-35.721c-4.012 0-7.264-3.252-7.264-7.264v-21.99c0-4.012 3.252-7.264 7.264-7.264h35.721c4.012 0 7.264 3.252 7.264 7.264v21.99c0 4.012-3.252 7.264-7.264 7.264z" fill="url(#SVGID_46_)"/><path d="m399.535 510h-57.488c-4.012 0-7.264-3.252-7.264-7.264v-4.11c0-8.512 6.9-15.412 15.412-15.412h41.193c8.512 0 15.412 6.9 15.412 15.412v4.11c-.001 4.012-3.253 7.264-7.265 7.264z" fill="url(#SVGID_47_)"/><path d="m391.387 483.214h-16.01c1.596 3.078 2.503 6.571 2.503 10.278v5.965c0 5.823-4.72 10.543-10.543 10.543h32.198c4.012 0 7.264-3.252 7.264-7.264v-4.11c0-8.512-6.9-15.412-15.412-15.412z" fill="url(#SVGID_48_)"/><path d="m406.799 502.736v-4.11c0-6.936-4.582-12.8-10.883-14.734v-6.778c0-4.012-3.252-7.264-7.264-7.264h-26.313c-4.012 0-7.264 3.252-7.264 7.264v6.778c-6.301 1.934-10.883 7.799-10.883 14.734v4.11c0 4.012 3.252 7.264 7.264 7.264h48.08c4.011 0 7.263-3.252 7.263-7.264z" fill="url(#SVGID_49_)"/></svg>