<svg id="Capa_1" enable-background="new 0 0 510 510" height="512" viewBox="0 0 510 510" width="512" xmlns="http://www.w3.org/2000/svg" xmlns:xlink="http://www.w3.org/1999/xlink"><linearGradient id="lg1"><stop offset="0" stop-color="#ffdaaa"/><stop offset=".4213" stop-color="#ffd8a8"/><stop offset=".6519" stop-color="#fed1a0"/><stop offset=".8359" stop-color="#fdc592"/><stop offset=".9951" stop-color="#fcb47f"/><stop offset="1" stop-color="#fcb37e"/></linearGradient><linearGradient id="SVGID_1_" gradientUnits="userSpaceOnUse" x1="223.88" x2="389.931" xlink:href="#lg1" y1="176.268" y2="596.365"/><linearGradient id="SVGID_2_" gradientUnits="userSpaceOnUse" x1="465" x2="-135.9" xlink:href="#lg1" y1="465" y2="-135.9"/><linearGradient id="SVGID_3_" gradientUnits="userSpaceOnUse" x1="348.984" x2="68.498" y1="390.196" y2="-13.284"><stop offset="0" stop-color="#a67c52"/><stop offset="1" stop-color="#ff7044"/></linearGradient><linearGradient id="lg2"><stop offset="0" stop-color="#ff7044" stop-opacity="0"/><stop offset="1" stop-color="#8c6239"/></linearGradient><linearGradient id="SVGID_4_" gradientUnits="userSpaceOnUse" x1="66" x2="25.988" xlink:href="#lg2" y1="255" y2="255"/><linearGradient id="SVGID_5_" gradientUnits="userSpaceOnUse" x1="255" x2="255" xlink:href="#lg2" y1="145.667" y2="103.37"/><linearGradient id="lg3"><stop offset="0" stop-color="#ff7044" stop-opacity="0"/><stop offset=".0291" stop-color="#f96f43" stop-opacity=".029"/><stop offset=".2344" stop-color="#d26b40" stop-opacity=".234"/><stop offset=".4375" stop-color="#b3673d" stop-opacity=".438"/><stop offset=".6354" stop-color="#9e643b" stop-opacity=".635"/><stop offset=".8257" stop-color="#906339" stop-opacity=".826"/><stop offset="1" stop-color="#8c6239"/></linearGradient><linearGradient id="SVGID_6_" gradientUnits="userSpaceOnUse" x1="327.771" x2="202.271" xlink:href="#lg3" y1="310.944" y2="235.944"/><linearGradient id="SVGID_7_" gradientUnits="userSpaceOnUse" x1="509.924" x2="410.565" xlink:href="#lg3" y1="293.119" y2="233.741"/><linearGradient id="lg4"><stop offset="0" stop-color="#4a98f7"/><stop offset="1" stop-color="#0469bc"/></linearGradient><linearGradient id="SVGID_8_" gradientUnits="userSpaceOnUse" x1="185.492" x2="275.351" xlink:href="#lg4" y1="263.616" y2="263.616"/><linearGradient id="SVGID_9_" gradientUnits="userSpaceOnUse" x1="198.703" x2="232.662" xlink:href="#lg4" y1="263.616" y2="263.616"/><linearGradient id="lg5"><stop offset="0" stop-color="#ffda45"/><stop offset="1" stop-color="#ffa425"/></linearGradient><linearGradient id="SVGID_10_" gradientUnits="userSpaceOnUse" x1="185.492" x2="238.887" xlink:href="#lg5" y1="158.497" y2="158.497"/><linearGradient id="SVGID_11_" gradientUnits="userSpaceOnUse" x1="185.492" x2="238.887" xlink:href="#lg5" y1="181.503" y2="181.503"/><linearGradient id="SVGID_12_" gradientUnits="userSpaceOnUse" x1="185.492" x2="238.887" xlink:href="#lg5" y1="345.729" y2="345.729"/><linearGradient id="SVGID_13_" gradientUnits="userSpaceOnUse" x1="185.492" x2="238.887" xlink:href="#lg5" y1="368.735" y2="368.735"/><linearGradient id="SVGID_14_" gradientUnits="userSpaceOnUse" x1="190.889" x2="108.06" y1="252.078" y2="213.458"><stop offset="0" stop-color="#18cffc" stop-opacity="0"/><stop offset="1" stop-color="#65e1dc"/></linearGradient><linearGradient id="SVGID_15_" gradientUnits="userSpaceOnUse" x1="397.095" x2="486.954" xlink:href="#lg5" y1="263.616" y2="263.616"/><linearGradient id="SVGID_16_" gradientUnits="userSpaceOnUse" x1="410.305" x2="444.265" xlink:href="#lg5" y1="263.616" y2="263.616"/><linearGradient id="lg6"><stop offset="0" stop-color="#92f37f"/><stop offset="1" stop-color="#4ab272"/></linearGradient><linearGradient id="SVGID_17_" gradientUnits="userSpaceOnUse" x1="397.095" x2="450.489" xlink:href="#lg6" y1="158.497" y2="158.497"/><linearGradient id="SVGID_18_" gradientUnits="userSpaceOnUse" x1="397.095" x2="450.489" xlink:href="#lg6" y1="181.503" y2="181.503"/><linearGradient id="SVGID_19_" gradientUnits="userSpaceOnUse" x1="397.095" x2="450.489" xlink:href="#lg6" y1="345.729" y2="345.729"/><linearGradient id="SVGID_20_" gradientUnits="userSpaceOnUse" x1="397.095" x2="450.489" xlink:href="#lg6" y1="368.735" y2="368.735"/><linearGradient id="lg7"><stop offset="0" stop-color="#ffda45" stop-opacity="0"/><stop offset="1" stop-color="#fcee21"/></linearGradient><linearGradient id="SVGID_21_" gradientUnits="userSpaceOnUse" x1="402.491" x2="319.662" xlink:href="#lg7" y1="252.078" y2="213.458"/><linearGradient id="lg8"><stop offset="0" stop-color="#ff7044"/><stop offset="1" stop-color="#f92814"/></linearGradient><linearGradient id="SVGID_22_" gradientTransform="matrix(.968 .251 -.251 .968 -358.329 143.053)" gradientUnits="userSpaceOnUse" x1="657.398" x2="747.257" xlink:href="#lg8" y1="-57.649" y2="-57.649"/><linearGradient id="SVGID_23_" gradientTransform="matrix(.968 .251 -.251 .968 -358.329 143.053)" gradientUnits="userSpaceOnUse" x1="670.608" x2="704.568" xlink:href="#lg8" y1="-57.649" y2="-57.649"/><linearGradient id="lg9"><stop offset="0" stop-color="#f9f7fc"/><stop offset="1" stop-color="#f0ddfc"/></linearGradient><linearGradient id="SVGID_24_" gradientTransform="matrix(.968 .251 -.251 .968 -358.329 143.053)" gradientUnits="userSpaceOnUse" x1="657.398" x2="710.792" xlink:href="#lg9" y1="-162.768" y2="-162.768"/><linearGradient id="SVGID_25_" gradientTransform="matrix(.968 .251 -.251 .968 -358.329 143.053)" gradientUnits="userSpaceOnUse" x1="657.398" x2="710.792" xlink:href="#lg9" y1="47.47" y2="47.47"/><linearGradient id="SVGID_26_" gradientTransform="matrix(.968 .251 -.251 .968 -358.329 143.053)" gradientUnits="userSpaceOnUse" x1="657.398" x2="710.792" xlink:href="#lg9" y1="24.341" y2="24.341"/><linearGradient id="SVGID_27_" gradientTransform="matrix(.968 .251 -.251 .968 -358.329 143.053)" gradientUnits="userSpaceOnUse" x1="684.352" x2="622.611" y1="-56.146" y2="-72.153"><stop offset="0" stop-color="#ff7044" stop-opacity="0"/><stop offset="1" stop-color="#ffa425"/></linearGradient><linearGradient id="SVGID_28_" gradientUnits="userSpaceOnUse" x1="112.906" x2="202.765" xlink:href="#lg6" y1="263.616" y2="263.616"/><linearGradient id="SVGID_29_" gradientUnits="userSpaceOnUse" x1="126.116" x2="160.076" xlink:href="#lg6" y1="263.616" y2="263.616"/><linearGradient id="SVGID_30_" gradientUnits="userSpaceOnUse" x1="112.906" x2="166.3" xlink:href="#lg4" y1="158.497" y2="158.497"/><linearGradient id="SVGID_31_" gradientUnits="userSpaceOnUse" x1="112.906" x2="166.3" xlink:href="#lg4" y1="368.735" y2="368.735"/><linearGradient id="SVGID_32_" gradientUnits="userSpaceOnUse" x1="139.86" x2="78.119" y1="265.119" y2="249.113"><stop offset="0" stop-color="#92f37f" stop-opacity="0"/><stop offset="1" stop-color="#ffee83"/></linearGradient><linearGradient id="SVGID_33_" gradientUnits="userSpaceOnUse" x1="40.319" x2="130.178" xlink:href="#lg5" y1="263.616" y2="263.616"/><linearGradient id="SVGID_34_" gradientUnits="userSpaceOnUse" x1="53.529" x2="87.489" xlink:href="#lg5" y1="263.616" y2="263.616"/><linearGradient id="SVGID_35_" gradientUnits="userSpaceOnUse" x1="40.319" x2="93.714" xlink:href="#lg8" y1="158.497" y2="158.497"/><linearGradient id="SVGID_36_" gradientUnits="userSpaceOnUse" x1="40.319" x2="93.714" xlink:href="#lg8" y1="368.735" y2="368.735"/><linearGradient id="SVGID_37_" gradientUnits="userSpaceOnUse" x1="67.273" x2="5.533" xlink:href="#lg7" y1="265.119" y2="249.113"/><path d="m494.098 433.512h-478.196c-8.782 0-15.902-7.12-15.902-15.903v-325.218c0-8.783 7.12-15.902 15.902-15.902h478.195c8.783 0 15.902 7.12 15.902 15.902v325.219c.001 8.782-7.119 15.902-15.901 15.902z" fill="url(#SVGID_1_)"/><path d="m486.067 425.453h-462.134c-8.435 0-15.273-6.838-15.273-15.273v-310.36c0-8.435 6.838-15.273 15.273-15.273h462.133c8.435 0 15.273 6.838 15.273 15.273v310.36c.001 8.435-6.837 15.273-15.272 15.273z" fill="url(#SVGID_2_)"/><path d="m472.591 409.942h-435.181c-7.061 0-12.785-5.724-12.785-12.785v-284.313c0-7.061 5.724-12.785 12.785-12.785h435.181c7.061 0 12.785 5.724 12.785 12.785v284.313c0 7.061-5.724 12.785-12.785 12.785z" fill="url(#SVGID_3_)"/><path d="m66 100.058h-28.59c-7.061 0-12.785 5.724-12.785 12.785v284.313c0 7.061 5.724 12.785 12.785 12.785h28.59z" fill="url(#SVGID_4_)"/><path d="m472.59 100.058h-435.18c-7.061 0-12.785 5.724-12.785 12.785v23.157h460.752v-23.156c-.001-7.062-5.725-12.786-12.787-12.786z" fill="url(#SVGID_5_)"/><path d="m255 120.628 64.017 64.017v224.943h-71.871v-288.96z" fill="url(#SVGID_6_)"/><path d="m485.38 139.03v258.13c0 6.04-4.19 11.09-9.81 12.43h-16.44v-288.96h7.85z" fill="url(#SVGID_7_)"/><path d="m247.146 409.942h-50.722c-6.038 0-10.932-4.895-10.932-10.932v-270.787c0-6.038 4.895-10.932 10.932-10.932h50.722c6.038 0 10.932 4.895 10.932 10.932v270.787c.001 6.037-4.894 10.932-10.932 10.932z" fill="url(#SVGID_8_)"/><path d="m198.703 117.291h46.166v292.651h-46.166z" fill="url(#SVGID_9_)"/><path d="m185.492 153.699h72.587v9.596h-72.587z" fill="url(#SVGID_10_)"/><path d="m185.492 176.705h72.587v9.596h-72.587z" fill="url(#SVGID_11_)"/><path d="m185.492 340.931h72.587v9.596h-72.587z" fill="url(#SVGID_12_)"/><path d="m185.492 363.937h72.587v9.596h-72.587z" fill="url(#SVGID_13_)"/><path d="m206.637 127.787c-6.038 0-10.932 4.895-10.932 10.932v270.787c0 .135.015.266.02.4.232.015.463.035.699.035h50.722c6.038 0 10.932-4.895 10.932-10.932v-270.786c0-.135-.015-.266-.02-.4-.232-.015-.463-.035-.699-.035h-50.722z" fill="url(#SVGID_14_)"/><path d="m458.749 409.942h-50.722c-6.038 0-10.932-4.895-10.932-10.932v-270.787c0-6.038 4.895-10.932 10.932-10.932h50.722c6.038 0 10.932 4.895 10.932 10.932v270.787c0 6.037-4.894 10.932-10.932 10.932z" fill="url(#SVGID_15_)"/><path d="m410.305 117.291h46.166v292.651h-46.166z" fill="url(#SVGID_16_)"/><path d="m397.094 153.699h72.587v9.596h-72.587z" fill="url(#SVGID_17_)"/><path d="m397.094 176.705h72.587v9.596h-72.587z" fill="url(#SVGID_18_)"/><path d="m397.094 340.931h72.587v9.596h-72.587z" fill="url(#SVGID_19_)"/><path d="m397.094 363.937h72.587v9.596h-72.587z" fill="url(#SVGID_20_)"/><path d="m418.24 127.787c-6.038 0-10.932 4.895-10.932 10.932v270.787c0 .135.015.266.02.4.232.015.463.035.699.035h50.722c6.038 0 10.932-4.895 10.932-10.932v-270.786c0-.135-.015-.266-.02-.4-.232-.015-.463-.035-.699-.035h-50.722z" fill="url(#SVGID_21_)"/><path d="m315.36 409.588-49.094-12.747c-5.844-1.517-9.351-7.485-7.834-13.329l68.052-262.096c1.517-5.844 7.485-9.351 13.329-7.834l49.094 12.747c5.844 1.517 9.351 7.485 7.834 13.329l-68.052 262.096c-1.517 5.844-7.485 9.352-13.329 7.834z" fill="url(#SVGID_22_)"/><path d="m313.155 409.016-44.684-11.602 73.547-283.259 44.684 11.602z" fill="url(#SVGID_23_)"/><path d="m387.927 173.605-70.257-18.242 2.411-9.288 70.258 18.242z" fill="url(#SVGID_24_)"/><path d="m335.092 377.096-70.257-18.242 2.411-9.288 70.257 18.242z" fill="url(#SVGID_25_)"/><path d="m340.904 354.709-70.257-18.242 2.412-9.288 70.257 18.242z" fill="url(#SVGID_26_)"/><path d="m347.06 126.309c-5.844-1.517-11.812 1.99-13.329 7.834l-68.052 262.096c-.034.131-.052.262-.081.393.221.073.439.151.668.21l49.094 12.747c5.844 1.517 11.812-1.99 13.329-7.834l68.052-262.096c.034-.131.052-.262.081-.393-.221-.073-.44-.151-.668-.21z" fill="url(#SVGID_27_)"/><path d="m174.56 409.942h-50.722c-6.038 0-10.932-4.895-10.932-10.932v-270.787c0-6.038 4.895-10.932 10.932-10.932h50.722c6.038 0 10.932 4.895 10.932 10.932v270.787c0 6.037-4.894 10.932-10.932 10.932z" fill="url(#SVGID_28_)"/><path d="m126.116 117.291h46.166v292.651h-46.166z" fill="url(#SVGID_29_)"/><path d="m112.906 153.699h72.587v9.596h-72.587z" fill="url(#SVGID_30_)"/><path d="m112.906 363.937h72.587v9.596h-72.587z" fill="url(#SVGID_31_)"/><path d="m134.051 127.787c-6.038 0-10.932 4.895-10.932 10.932v270.787c0 .135.015.266.02.4.232.015.463.035.699.035h50.722c6.038 0 10.932-4.895 10.932-10.932v-270.786c0-.135-.015-.266-.02-.4-.232-.015-.463-.035-.699-.035h-50.722z" fill="url(#SVGID_32_)"/><path d="m101.973 409.942h-50.722c-6.038 0-10.932-4.895-10.932-10.932v-270.787c0-6.038 4.895-10.932 10.932-10.932h50.722c6.038 0 10.932 4.895 10.932 10.932v270.787c0 6.037-4.894 10.932-10.932 10.932z" fill="url(#SVGID_33_)"/><path d="m53.529 117.291h46.166v292.651h-46.166z" fill="url(#SVGID_34_)"/><path d="m40.319 153.699h72.587v9.596h-72.587z" fill="url(#SVGID_35_)"/><path d="m40.319 363.937h72.587v9.596h-72.587z" fill="url(#SVGID_36_)"/><path d="m61.464 127.787c-6.038 0-10.932 4.895-10.932 10.932v270.787c0 .135.015.266.02.4.232.015.463.035.699.035h50.722c6.038 0 10.932-4.895 10.932-10.932v-270.786c0-.135-.015-.266-.02-.4-.232-.015-.463-.035-.699-.035h-50.722z" fill="url(#SVGID_37_)"/></svg>