<svg id="Capa_1" enable-background="new 0 0 510 510" height="512" viewBox="0 0 510 510" width="512" xmlns="http://www.w3.org/2000/svg" xmlns:xlink="http://www.w3.org/1999/xlink"><linearGradient id="lg1"><stop offset="0" stop-color="#18cffc"/><stop offset="1" stop-color="#4a98f7"/></linearGradient><linearGradient id="SVGID_1_" gradientUnits="userSpaceOnUse" x1="243.019" x2="294.292" xlink:href="#lg1" y1="451.811" y2="563.969"/><linearGradient id="SVGID_2_" gradientUnits="userSpaceOnUse" x1="276.226" x2="94.049" y1="475.383" y2="363.274"><stop offset="0" stop-color="#18cffc" stop-opacity="0"/><stop offset="1" stop-color="#65e1dc"/></linearGradient><linearGradient id="SVGID_3_" gradientUnits="userSpaceOnUse" x1="328.084" x2="362.997" xlink:href="#lg1" y1="456.915" y2="533.288"/><linearGradient id="SVGID_4_" gradientUnits="userSpaceOnUse" x1="326.654" x2="252.582" y1="489.408" y2="398.821"><stop offset="0" stop-color="#0469bc" stop-opacity="0"/><stop offset="1" stop-color="#0469bc"/></linearGradient><linearGradient id="SVGID_5_" gradientUnits="userSpaceOnUse" x1="174.105" x2="318.445" y1="366.18" y2="408.703"><stop offset="0" stop-color="#ffdaaa"/><stop offset=".2841" stop-color="#ffd4a4"/><stop offset=".6728" stop-color="#fdc592"/><stop offset="1" stop-color="#fcb37e"/></linearGradient><linearGradient id="lg2"><stop offset="0" stop-color="#fcb37e" stop-opacity="0"/><stop offset="1" stop-color="#ff7044"/></linearGradient><linearGradient id="SVGID_6_" gradientUnits="userSpaceOnUse" x1="284.738" x2="266.172" xlink:href="#lg2" y1="396.738" y2="333.253"/><linearGradient id="lg3"><stop offset="0" stop-color="#f9f7fc"/><stop offset="1" stop-color="#f0ddfc"/></linearGradient><linearGradient id="SVGID_7_" gradientUnits="userSpaceOnUse" x1="359.991" x2="421.648" xlink:href="#lg3" y1="111.899" y2="173.556"/><linearGradient id="lg4"><stop offset="0" stop-color="#fff" stop-opacity="0"/><stop offset="1" stop-color="#fff"/></linearGradient><linearGradient id="SVGID_8_" gradientUnits="userSpaceOnUse" x1="382.545" x2="339.463" xlink:href="#lg4" y1="134.453" y2="91.371"/><linearGradient id="lg5"><stop offset="0" stop-color="#f0ddfc" stop-opacity="0"/><stop offset=".2085" stop-color="#dfcdf1" stop-opacity=".209"/><stop offset=".6167" stop-color="#b5a4d3" stop-opacity=".617"/><stop offset="1" stop-color="#8779b3"/></linearGradient><linearGradient id="SVGID_9_" gradientUnits="userSpaceOnUse" x1="379.456" x2="444.892" xlink:href="#lg5" y1="147.955" y2="26.252"/><linearGradient id="SVGID_10_" gradientUnits="userSpaceOnUse" x1="113.452" x2="208.61" xlink:href="#lg3" y1="181.619" y2="276.778"/><linearGradient id="SVGID_11_" gradientUnits="userSpaceOnUse" x1="148.261" x2="81.771" xlink:href="#lg4" y1="216.428" y2="149.938"/><linearGradient id="SVGID_12_" gradientUnits="userSpaceOnUse" x1="143.493" x2="244.484" xlink:href="#lg5" y1="237.267" y2="49.438"/><linearGradient id="SVGID_13_" gradientUnits="userSpaceOnUse" x1="341.569" x2="436.727" xlink:href="#lg3" y1="181.619" y2="276.778"/><linearGradient id="SVGID_14_" gradientUnits="userSpaceOnUse" x1="376.377" x2="309.888" xlink:href="#lg4" y1="216.428" y2="149.938"/><linearGradient id="SVGID_15_" gradientUnits="userSpaceOnUse" x1="371.61" x2="472.601" xlink:href="#lg5" y1="237.267" y2="49.438"/><linearGradient id="SVGID_16_" gradientUnits="userSpaceOnUse" x1="434.056" x2="306.056" xlink:href="#lg5" y1="248.26" y2="198.927"/><radialGradient id="SVGID_17_" cx="217.915" cy="161.468" gradientUnits="userSpaceOnUse" r="188.969"><stop offset="0" stop-color="#ffdaaa"/><stop offset=".4213" stop-color="#ffd8a8"/><stop offset=".6519" stop-color="#fed1a0"/><stop offset=".8359" stop-color="#fdc592"/><stop offset=".9951" stop-color="#fcb47f"/><stop offset="1" stop-color="#fcb37e"/></radialGradient><linearGradient id="SVGID_18_" gradientUnits="userSpaceOnUse" x1="276.832" x2="214.544" xlink:href="#lg2" y1="193.79" y2="65.021"/><linearGradient id="lg6"><stop offset="0" stop-color="#7e8595"/><stop offset="1" stop-color="#555a66"/></linearGradient><linearGradient id="SVGID_19_" gradientUnits="userSpaceOnUse" x1="193.638" x2="218.444" xlink:href="#lg6" y1="198.157" y2="222.962"/><linearGradient id="lg7"><stop offset="0" stop-color="#bec3d2" stop-opacity="0"/><stop offset=".3183" stop-color="#c2c7d5" stop-opacity=".318"/><stop offset=".6082" stop-color="#cdd1de" stop-opacity=".608"/><stop offset=".8861" stop-color="#dfe3ed" stop-opacity=".886"/><stop offset="1" stop-color="#e9edf5"/></linearGradient><linearGradient id="SVGID_20_" gradientUnits="userSpaceOnUse" x1="198.596" x2="184.703" xlink:href="#lg7" y1="202.14" y2="182.113"/><linearGradient id="lg8"><stop offset="0" stop-color="#555a66" stop-opacity="0"/><stop offset="1" stop-color="#555a66"/></linearGradient><linearGradient id="SVGID_21_" gradientUnits="userSpaceOnUse" x1="201.469" x2="227.795" xlink:href="#lg8" y1="212.663" y2="163.701"/><linearGradient id="SVGID_22_" gradientUnits="userSpaceOnUse" x1="302.03" x2="326.835" xlink:href="#lg6" y1="198.157" y2="222.962"/><linearGradient id="SVGID_23_" gradientUnits="userSpaceOnUse" x1="306.988" x2="293.095" xlink:href="#lg7" y1="202.14" y2="182.113"/><linearGradient id="SVGID_24_" gradientUnits="userSpaceOnUse" x1="309.861" x2="336.187" xlink:href="#lg8" y1="212.663" y2="163.701"/><linearGradient id="SVGID_25_" gradientUnits="userSpaceOnUse" x1="255" x2="255" xlink:href="#lg2" y1="224.108" y2="303.846"/><linearGradient id="SVGID_26_" gradientUnits="userSpaceOnUse" x1="234.755" x2="304.754" xlink:href="#lg3" y1="85.526" y2="252.668"/><linearGradient id="SVGID_27_" gradientUnits="userSpaceOnUse" x1="313.104" x2="282.575" xlink:href="#lg4" y1="96.668" y2="15.589"/><linearGradient id="SVGID_28_" gradientUnits="userSpaceOnUse" x1="178.413" x2="111.011" xlink:href="#lg4" y1="125.323" y2="57.92"/><linearGradient id="SVGID_29_" gradientUnits="userSpaceOnUse" x1="319.309" x2="426.793" xlink:href="#lg5" y1="135.902" y2="-64.003"/><linearGradient id="SVGID_30_" gradientUnits="userSpaceOnUse" x1="212.058" x2="109.959" xlink:href="#lg5" y1="59.448" y2="84.473"/><linearGradient id="SVGID_31_" gradientUnits="userSpaceOnUse" x1="269.848" x2="316.894" xlink:href="#lg5" y1="29.602" y2="56.628"/><linearGradient id="SVGID_32_" gradientUnits="userSpaceOnUse" x1="212.55" x2="189.528" xlink:href="#lg1" y1="427.606" y2="476.653"/><linearGradient id="SVGID_33_" gradientUnits="userSpaceOnUse" x1="289.241" x2="319.77" xlink:href="#lg1" y1="422.29" y2="450.817"/><linearGradient id="lg9"><stop offset="0" stop-color="#ff7044"/><stop offset="1" stop-color="#f92814"/></linearGradient><linearGradient id="SVGID_34_" gradientUnits="userSpaceOnUse" x1="255" x2="255" xlink:href="#lg9" y1="181.333" y2="187.343"/><linearGradient id="SVGID_35_" gradientUnits="userSpaceOnUse" x1="162.717" x2="230.334" xlink:href="#lg9" y1="154.956" y2="269.088"/><linearGradient id="SVGID_36_" gradientUnits="userSpaceOnUse" x1="232.807" x2="146.656" xlink:href="#lg9" y1="244.32" y2="158.169"/><linearGradient id="lg10"><stop offset="0" stop-color="#f92814" stop-opacity="0"/><stop offset="1" stop-color="#c1272d"/></linearGradient><linearGradient id="SVGID_37_" gradientUnits="userSpaceOnUse" x1="200.591" x2="157.091" xlink:href="#lg10" y1="218.564" y2="146.564"/><linearGradient id="SVGID_38_" gradientUnits="userSpaceOnUse" x1="226.941" x2="152.803" xlink:href="#lg4" y1="238.453" y2="164.315"/><linearGradient id="SVGID_39_" gradientUnits="userSpaceOnUse" x1="291.249" x2="358.865" xlink:href="#lg9" y1="154.956" y2="269.088"/><linearGradient id="SVGID_40_" gradientUnits="userSpaceOnUse" x1="361.339" x2="275.188" xlink:href="#lg9" y1="244.32" y2="158.169"/><linearGradient id="SVGID_41_" gradientUnits="userSpaceOnUse" x1="329.123" x2="285.623" xlink:href="#lg10" y1="218.564" y2="146.564"/><linearGradient id="SVGID_42_" gradientUnits="userSpaceOnUse" x1="355.472" x2="281.334" xlink:href="#lg4" y1="238.453" y2="164.315"/><linearGradient id="SVGID_43_" gradientUnits="userSpaceOnUse" x1="271.995" x2="215.995" xlink:href="#lg2" y1="302.006" y2="119.34"/><path d="m348.655 393.61h-187.31c-41.113 0-74.443 33.329-74.443 74.443v34.575c0 4.072 3.301 7.373 7.373 7.373h321.449c4.072 0 7.373-3.301 7.373-7.373v-34.575c0-41.114-33.329-74.443-74.442-74.443z" fill="url(#SVGID_1_)"/><path d="m353.954 401.895h-173.975c-38.187 0-69.143 30.957-69.143 69.143v32.114c0 3.782 3.066 6.848 6.848 6.848h298.041c4.072 0 7.373-3.301 7.373-7.373v-31.589c-.001-38.186-30.957-69.143-69.144-69.143z" fill="url(#SVGID_2_)"/><path d="m348.655 393.61h-19.212c-41.113 0-74.442 33.329-74.442 74.442v41.948h160.725c4.072 0 7.373-3.301 7.373-7.373v-34.575c-.002-41.113-33.331-74.442-74.444-74.442z" fill="url(#SVGID_3_)"/><path d="m423.097 502.627v-22.419l-86.598-86.598h-162.8c-.911 1.492-1.446 3.24-1.446 5.117v11.865c0 5.199 1.597 10.272 4.574 14.534l39.365 56.341 28.498 28.533h171.035c4.072 0 7.372-3.301 7.372-7.373z" fill="url(#SVGID_4_)"/><path d="m288.939 348.138v-20.378h-67.878v20.378c0 25.113-20.358 45.471-45.471 45.471 0 33.408 27.083 60.491 60.491 60.491h37.839c33.408 0 60.491-27.083 60.491-60.491-25.114.001-45.472-20.358-45.472-45.471z" fill="url(#SVGID_5_)"/><path d="m334.41 393.61c-25.113 0-45.472-20.358-45.472-45.471v-20.378h-67.878v20.378c0 1.135-.056 2.257-.138 3.371l.001.001 89.963 89.963c14.305-11.064 23.524-28.383 23.524-47.864z" fill="url(#SVGID_6_)"/><circle cx="377.803" cy="129.71" fill="url(#SVGID_7_)" r="47.606"/><circle cx="377.802" cy="129.71" fill="url(#SVGID_8_)" r="39.731"/><path d="m399.098 87.125c3.211 6.408 5.021 13.64 5.021 21.295 0 26.292-21.314 47.606-47.606 47.606-7.655 0-14.887-1.81-21.295-5.021 7.816 15.6 23.949 26.31 42.585 26.31 26.292 0 47.606-21.314 47.606-47.606-.001-18.635-10.711-34.768-26.311-42.584z" fill="url(#SVGID_9_)"/><circle cx="140.942" cy="209.109" fill="url(#SVGID_10_)" r="73.472"/><circle cx="140.942" cy="209.109" fill="url(#SVGID_11_)" r="61.319"/><path d="m173.808 143.385c4.955 9.89 7.749 21.051 7.749 32.866 0 40.578-32.895 73.472-73.472 73.472-11.815 0-22.976-2.793-32.866-7.749 12.063 24.076 36.961 40.606 65.724 40.606 40.578 0 73.472-32.895 73.472-73.472-.001-28.761-16.531-53.659-40.607-65.723z" fill="url(#SVGID_12_)"/><circle cx="369.058" cy="209.109" fill="url(#SVGID_13_)" r="73.472"/><circle cx="369.058" cy="209.109" fill="url(#SVGID_14_)" r="61.319"/><path d="m401.925 143.385c4.955 9.89 7.749 21.051 7.749 32.866 0 40.578-32.895 73.472-73.472 73.472-11.815 0-22.976-2.793-32.866-7.749 12.063 24.076 36.961 40.606 65.724 40.606 40.578 0 73.472-32.895 73.472-73.472-.001-28.761-16.531-53.659-40.607-65.723z" fill="url(#SVGID_15_)"/><path d="m372.55 159.892h-58.037c-11.762 13.027-18.927 30.284-18.927 49.217 0 40.578 32.895 73.472 73.472 73.472 34.212 0 62.961-23.385 71.14-55.041z" fill="url(#SVGID_16_)"/><path d="m255 357.006c-59.582 0-107.883-48.301-107.883-107.883v-113.502c0-59.582 48.301-107.883 107.883-107.883 59.582 0 107.883 48.301 107.883 107.883v113.502c0 59.582-48.301 107.883-107.883 107.883z" fill="url(#SVGID_17_)"/><path d="m255 27.738c-59.582 0-107.883 48.301-107.883 107.883v50.849l158.134 158.134c34.268-18.073 57.632-54.045 57.632-95.481v-113.502c0-59.582-48.301-107.883-107.883-107.883z" fill="url(#SVGID_18_)"/><circle cx="200.804" cy="205.323" fill="url(#SVGID_19_)" r="19.152"/><circle cx="200.804" cy="205.323" fill="url(#SVGID_20_)" r="15.984"/><path d="m209.372 188.19c1.292 2.578 2.02 5.487 2.02 8.567 0 10.577-8.575 19.152-19.152 19.152-3.08 0-5.989-.728-8.567-2.02 3.145 6.276 9.635 10.585 17.132 10.585 10.577 0 19.152-8.575 19.152-19.152-.001-7.497-4.309-13.987-10.585-17.132z" fill="url(#SVGID_21_)"/><circle cx="309.196" cy="205.323" fill="url(#SVGID_22_)" r="19.152"/><circle cx="309.196" cy="205.323" fill="url(#SVGID_23_)" r="15.984"/><path d="m317.763 188.19c1.292 2.578 2.02 5.487 2.02 8.567 0 10.577-8.575 19.152-19.152 19.152-3.08 0-5.989-.728-8.567-2.02 3.145 6.276 9.635 10.585 17.132 10.585 10.577 0 19.152-8.575 19.152-19.152 0-7.497-4.309-13.987-10.585-17.132z" fill="url(#SVGID_24_)"/><path d="m261.129 279.808h-12.257c-9.823 0-17.476-8.52-16.425-18.287l6.409-59.573h32.29l6.409 59.573c1.049 9.767-6.603 18.287-16.426 18.287z" fill="url(#SVGID_25_)"/><path d="m316.593 27.738c-2.246 0-4.464.117-6.662.302-3.448-13.87-15.979-24.15-30.916-24.15-9.774 0-18.516 4.406-24.36 11.334-10.624-9.465-24.622-15.224-39.97-15.224-27.923 0-51.395 19.037-58.159 44.839-34.207 6.736-60.012 36.882-60.012 73.064 0 41.135 33.346 74.481 74.481 74.481 35.546 0 65.257-24.908 72.679-58.218 11.325 29.229 39.693 49.964 72.92 49.964 43.186 0 78.196-35.009 78.196-78.196-.001-43.187-35.01-78.196-78.197-78.196z" fill="url(#SVGID_26_)"/><circle cx="316.593" cy="105.934" fill="url(#SVGID_27_)" r="75.387"/><circle cx="170.994" cy="117.903" fill="url(#SVGID_28_)" r="62.161"/><path d="m351.572 35.985c5.274 10.526 8.247 22.404 8.247 34.979 0 43.186-35.009 78.196-78.196 78.196-12.575 0-24.454-2.973-34.979-8.247 12.839 25.624 39.337 43.216 69.949 43.216 43.186 0 78.196-35.009 78.196-78.196 0-30.611-17.593-57.11-43.217-69.948z" fill="url(#SVGID_29_)"/><path d="m214.685 0c-27.923 0-51.395 19.037-58.159 44.839 4.682-.922 9.517-1.416 14.469-1.416 39.118 0 71.17 30.164 74.221 68.497 17.71-10.462 29.596-29.735 29.596-51.794-.001-33.207-26.921-60.126-60.127-60.126z" fill="url(#SVGID_30_)"/><path d="m309.931 28.04c-3.448-13.87-15.979-24.15-30.916-24.15-17.596 0-31.86 14.264-31.86 31.86 0 8.263 3.146 15.791 8.306 21.453 13.028-16.322 32.444-27.303 54.47-29.163z" fill="url(#SVGID_31_)"/><path d="m204.218 383.46 50.782 70.641-19.741 27.489c-4.699 6.543-14.453 6.479-19.067-.124l-39.365-56.341c-2.978-4.262-4.574-9.335-4.574-14.534v-11.865c0-5.436 4.407-9.844 9.844-9.844h3.42c3.361 0 6.692-.639 9.814-1.883z" fill="url(#SVGID_32_)"/><path d="m305.782 383.46-50.782 70.641 19.741 27.489c4.699 6.543 14.453 6.479 19.066-.124l39.365-56.341c2.978-4.262 4.574-9.335 4.574-14.534v-11.865c0-5.436-4.407-9.844-9.844-9.844h-3.42c-3.361 0-6.692-.639-9.814-1.883z" fill="url(#SVGID_33_)"/><path d="m240.103 177.333h29.794v12.774h-29.794z" fill="url(#SVGID_34_)"/><path d="m240.71 157.923h-99.951c-2.222 0-4.022 2.04-4.022 4.558v79.532c0 2.517 1.801 4.558 4.022 4.558h99.951c2.222 0 4.022-2.04 4.022-4.558v-79.532c0-2.517-1.8-4.558-4.022-4.558zm-6.821 74.612c0 2.064-1.476 3.736-3.297 3.736h-79.716c-1.821 0-3.297-1.672-3.297-3.736v-60.576c0-2.064 1.476-3.736 3.297-3.736h79.716c1.821 0 3.297 1.672 3.297 3.736z" fill="url(#SVGID_35_)"/><path d="m144.925 242.355h91.618c2.023 0 3.663-1.859 3.663-4.151v-71.915c0-2.292-1.641-4.151-3.663-4.151h-91.618c-2.023 0-3.663 1.859-3.663 4.151v71.915c0 2.293 1.641 4.151 3.663 4.151zm2.654-70.396c0-2.064 1.476-3.736 3.297-3.736h79.716c1.821 0 3.297 1.672 3.297 3.736v60.576c0 2.064-1.476 3.736-3.297 3.736h-79.716c-1.821 0-3.297-1.672-3.297-3.736z" fill="url(#SVGID_36_)"/><path d="m244.732 242.013v-79.532c0-.962-.265-1.853-.714-2.589l-11.476 9.059c.816.68 1.347 1.772 1.347 3.008v60.576c0 2.064-1.476 3.736-3.297 3.736h-79.716c-.889 0-1.695-.401-2.288-1.049l-11.364 8.97c.682 1.417 2.008 2.379 3.534 2.379h99.951c2.223 0 4.023-2.041 4.023-4.558z" fill="url(#SVGID_37_)"/><path d="m147.579 171.959c0-2.064 1.476-3.736 3.297-3.736h79.716c1.821 0 3.297 1.672 3.297 3.736v60.576c0 2.064-1.476 3.736-3.297 3.736h-79.716c-1.821 0-3.297-1.672-3.297-3.736z" fill="url(#SVGID_38_)"/><path d="m369.241 157.923h-99.951c-2.222 0-4.022 2.04-4.022 4.558v79.532c0 2.517 1.801 4.558 4.022 4.558h99.951c2.222 0 4.022-2.04 4.022-4.558v-79.532c.001-2.517-1.8-4.558-4.022-4.558zm-6.82 74.612c0 2.064-1.476 3.736-3.297 3.736h-79.716c-1.821 0-3.297-1.672-3.297-3.736v-60.576c0-2.064 1.476-3.736 3.297-3.736h79.716c1.821 0 3.297 1.672 3.297 3.736z" fill="url(#SVGID_39_)"/><path d="m273.457 242.355h91.618c2.023 0 3.663-1.859 3.663-4.151v-71.915c0-2.292-1.641-4.151-3.663-4.151h-91.618c-2.023 0-3.663 1.859-3.663 4.151v71.915c0 2.293 1.64 4.151 3.663 4.151zm2.654-70.396c0-2.064 1.476-3.736 3.297-3.736h79.716c1.821 0 3.297 1.672 3.297 3.736v60.576c0 2.064-1.476 3.736-3.297 3.736h-79.716c-1.821 0-3.297-1.672-3.297-3.736z" fill="url(#SVGID_40_)"/><path d="m373.264 242.013v-79.532c0-.962-.265-1.853-.714-2.589l-11.476 9.059c.816.68 1.347 1.772 1.347 3.008v60.576c0 2.064-1.476 3.736-3.297 3.736h-79.716c-.889 0-1.695-.401-2.288-1.049l-11.364 8.97c.682 1.417 2.008 2.379 3.534 2.379h99.951c2.222 0 4.023-2.041 4.023-4.558z" fill="url(#SVGID_41_)"/><path d="m276.111 171.959c0-2.064 1.476-3.736 3.297-3.736h79.716c1.821 0 3.297 1.672 3.297 3.736v60.576c0 2.064-1.476 3.736-3.297 3.736h-79.716c-1.821 0-3.297-1.672-3.297-3.736z" fill="url(#SVGID_42_)"/><path d="m362.78 246.57v2.81c0 58.6-46.77 106.27-105.02 107.73l-110.54-110.54h93.49c2.22 0 4.02-2.04 4.02-4.56v-51.9h20.54v51.9c0 2.52 1.8 4.56 4.02 4.56z" fill="url(#SVGID_43_)"/></svg>