<svg id="Capa_1" enable-background="new 0 0 510 510" height="512" viewBox="0 0 510 510" width="512" xmlns="http://www.w3.org/2000/svg" xmlns:xlink="http://www.w3.org/1999/xlink"><linearGradient id="lg1"><stop offset="0" stop-color="#7e8595"/><stop offset="1" stop-color="#555a66"/></linearGradient><linearGradient id="SVGID_1_" gradientUnits="userSpaceOnUse" x1="250.704" x2="250.704" xlink:href="#lg1" y1="418.818" y2="514.084"/><linearGradient id="SVGID_2_" gradientUnits="userSpaceOnUse" x1="242.689" x2="266.282" xlink:href="#lg1" y1="378.429" y2="378.429"/><linearGradient id="SVGID_3_" gradientUnits="userSpaceOnUse" x1="130.617" x2="130.617" xlink:href="#lg1" y1="474.74" y2="490.121"/><linearGradient id="SVGID_4_" gradientUnits="userSpaceOnUse" x1="130.617" x2="130.617" xlink:href="#lg1" y1="491.06" y2="517.269"/><linearGradient id="lg2"><stop offset="0" stop-color="#555a66" stop-opacity="0"/><stop offset="1" stop-color="#555a66"/></linearGradient><linearGradient id="SVGID_5_" gradientUnits="userSpaceOnUse" x1="146.895" x2="146.895" xlink:href="#lg2" y1="491.06" y2="517.269"/><linearGradient id="lg3"><stop offset="0" stop-color="#bec3d2" stop-opacity="0"/><stop offset=".221" stop-color="#c5c9d7" stop-opacity=".221"/><stop offset=".5343" stop-color="#d7dae3" stop-opacity=".534"/><stop offset=".9014" stop-color="#f6f6f8" stop-opacity=".901"/><stop offset="1" stop-color="#fff"/></linearGradient><linearGradient id="SVGID_6_" gradientUnits="userSpaceOnUse" x1="123.03" x2="64.595" xlink:href="#lg3" y1="487.291" y2="464.816"/><linearGradient id="SVGID_7_" gradientUnits="userSpaceOnUse" x1="250.704" x2="250.704" xlink:href="#lg1" y1="474.74" y2="490.121"/><linearGradient id="SVGID_8_" gradientUnits="userSpaceOnUse" x1="250.704" x2="250.704" xlink:href="#lg1" y1="491.06" y2="517.269"/><linearGradient id="SVGID_9_" gradientUnits="userSpaceOnUse" x1="266.981" x2="266.981" xlink:href="#lg2" y1="491.06" y2="517.269"/><linearGradient id="SVGID_10_" gradientUnits="userSpaceOnUse" x1="243.117" x2="184.682" xlink:href="#lg3" y1="487.291" y2="464.816"/><linearGradient id="SVGID_11_" gradientUnits="userSpaceOnUse" x1="370.791" x2="370.791" xlink:href="#lg1" y1="474.74" y2="490.121"/><linearGradient id="SVGID_12_" gradientUnits="userSpaceOnUse" x1="370.791" x2="370.791" xlink:href="#lg1" y1="491.06" y2="517.269"/><linearGradient id="SVGID_13_" gradientUnits="userSpaceOnUse" x1="387.068" x2="387.068" xlink:href="#lg2" y1="491.06" y2="517.269"/><linearGradient id="SVGID_14_" gradientUnits="userSpaceOnUse" x1="363.203" x2="304.769" xlink:href="#lg3" y1="487.291" y2="464.816"/><linearGradient id="lg4"><stop offset="0" stop-color="#f9f7fc"/><stop offset="1" stop-color="#f0ddfc"/></linearGradient><linearGradient id="SVGID_15_" gradientUnits="userSpaceOnUse" x1="211.901" x2="338.732" xlink:href="#lg4" y1="74.524" y2="383.225"/><linearGradient id="lg5"><stop offset="0" stop-color="#f0ddfc" stop-opacity="0"/><stop offset=".2889" stop-color="#c8b7e0" stop-opacity=".289"/><stop offset=".5915" stop-color="#a595c8" stop-opacity=".592"/><stop offset=".8395" stop-color="#8f81b8" stop-opacity=".84"/><stop offset="1" stop-color="#8779b3"/></linearGradient><linearGradient id="SVGID_16_" gradientUnits="userSpaceOnUse" x1="261.764" x2="246.764" xlink:href="#lg5" y1="159.785" y2="-79.215"/><linearGradient id="SVGID_17_" gradientUnits="userSpaceOnUse" x1="40.699" x2="40.699" xlink:href="#lg1" y1="26.5" y2="48.616"/><linearGradient id="SVGID_18_" gradientUnits="userSpaceOnUse" x1="255.744" x2="255.744" xlink:href="#lg4" y1="25.642" y2="88.388"/><linearGradient id="SVGID_19_" gradientTransform="matrix(0 -1 1 0 4972.616 -1130.422)" gradientUnits="userSpaceOnUse" x1="-1164.72" x2="-1164.72" xlink:href="#lg5" y1="-4491.296" y2="-4544.273"/><linearGradient id="SVGID_20_" gradientTransform="matrix(0 -1 1 0 4972.616 -1130.422)" gradientUnits="userSpaceOnUse" x1="-1137.161" x2="-1186.416" xlink:href="#lg5" y1="-4496.403" y2="-4545.658"/><linearGradient id="SVGID_21_" gradientUnits="userSpaceOnUse" x1="461.833" x2="461.833" xlink:href="#lg1" y1="33.742" y2="47.769"/><linearGradient id="SVGID_22_" gradientUnits="userSpaceOnUse" x1="486.448" x2="470.572" xlink:href="#lg1" y1="27.063" y2="39.319"/><linearGradient id="SVGID_23_" gradientTransform="matrix(0 -1 1 0 4972.616 -1130.422)" gradientUnits="userSpaceOnUse" x1="-1176.055" x2="-1143.848" xlink:href="#lg4" y1="-4522.058" y2="-4561.98"/><linearGradient id="SVGID_24_" gradientUnits="userSpaceOnUse" x1="40.699" x2="40.699" xlink:href="#lg1" y1="316.753" y2="338.869"/><linearGradient id="SVGID_25_" gradientUnits="userSpaceOnUse" x1="255.744" x2="255.744" xlink:href="#lg4" y1="315.896" y2="378.642"/><linearGradient id="SVGID_26_" gradientTransform="matrix(0 -1 1 0 4972.616 -1130.422)" gradientUnits="userSpaceOnUse" x1="-1454.974" x2="-1454.974" xlink:href="#lg5" y1="-4491.296" y2="-4544.273"/><linearGradient id="SVGID_27_" gradientTransform="matrix(0 -1 1 0 4972.616 -1130.422)" gradientUnits="userSpaceOnUse" x1="-1427.415" x2="-1476.67" xlink:href="#lg5" y1="-4496.403" y2="-4545.658"/><linearGradient id="SVGID_28_" gradientUnits="userSpaceOnUse" x1="461.833" x2="461.833" xlink:href="#lg1" y1="323.995" y2="338.023"/><linearGradient id="SVGID_29_" gradientUnits="userSpaceOnUse" x1="486.448" x2="470.572" xlink:href="#lg1" y1="317.317" y2="329.572"/><linearGradient id="SVGID_30_" gradientTransform="matrix(0 -1 1 0 4972.616 -1130.422)" gradientUnits="userSpaceOnUse" x1="-1466.308" x2="-1434.101" xlink:href="#lg4" y1="-4522.058" y2="-4561.98"/><linearGradient id="SVGID_31_" gradientUnits="userSpaceOnUse" x1="142.224" x2="158.469" y1="227.507" y2="255.84"><stop offset="0" stop-color="#ff7044"/><stop offset="1" stop-color="#f92814"/></linearGradient><linearGradient id="SVGID_32_" gradientUnits="userSpaceOnUse" x1="200.605" x2="232.542" y1="204.935" y2="258.476"><stop offset="0" stop-color="#ffda45"/><stop offset="1" stop-color="#ffa425"/></linearGradient><linearGradient id="SVGID_33_" gradientUnits="userSpaceOnUse" x1="259.793" x2="302.476" y1="214.549" y2="214.549"><stop offset="0" stop-color="#18cffc"/><stop offset="1" stop-color="#4a98f7"/></linearGradient><linearGradient id="SVGID_34_" gradientTransform="matrix(0 1 -1 0 -3360.202 -3576.241)" gradientUnits="userSpaceOnUse" x1="3829.068" x2="3845.744" xlink:href="#lg1" y1="-3555.969" y2="-3555.969"/><linearGradient id="SVGID_35_" gradientUnits="userSpaceOnUse" x1="135.426" x2="99.463" xlink:href="#lg2" y1="276.921" y2="240.959"/><linearGradient id="SVGID_36_" gradientUnits="userSpaceOnUse" x1="107.427" x2="124.102" xlink:href="#lg1" y1="179.425" y2="179.425"/><linearGradient id="SVGID_37_" gradientUnits="userSpaceOnUse" x1="215.198" x2="241.982" y1="163.734" y2="200.215"><stop offset="0" stop-color="#92f37f"/><stop offset="1" stop-color="#4ab272"/></linearGradient><path d="m359.924 489.441-109.22-190.606-109.22 190.606-21.734-12.454 130.954-228.533 130.954 228.533z" fill="url(#SVGID_1_)"/><path d="m238.18 273.645h25.049v209.57h-25.049z" fill="url(#SVGID_2_)"/><path d="m148.478 506.368h-35.721c-4.012 0-7.264-3.252-7.264-7.264v-21.99c0-4.012 3.252-7.264 7.264-7.264h35.721c4.012 0 7.264 3.252 7.264 7.264v21.99c0 4.012-3.252 7.264-7.264 7.264z" fill="url(#SVGID_3_)"/><path d="m159.362 510h-57.488c-4.012 0-7.264-3.252-7.264-7.264v-4.11c0-8.512 6.9-15.412 15.412-15.412h41.193c8.512 0 15.412 6.9 15.412 15.412v4.11c-.002 4.012-3.254 7.264-7.265 7.264z" fill="url(#SVGID_4_)"/><path d="m151.214 483.214h-16.01c1.596 3.078 2.503 6.571 2.503 10.278v5.965c0 5.823-4.72 10.543-10.543 10.543h32.198c4.012 0 7.264-3.252 7.264-7.264v-4.11c-.001-8.512-6.901-15.412-15.412-15.412z" fill="url(#SVGID_5_)"/><path d="m166.625 502.736v-4.11c0-6.936-4.582-12.8-10.883-14.734v-6.778c0-4.012-3.252-7.264-7.264-7.264h-26.313c-4.012 0-7.264 3.252-7.264 7.264v6.778c-6.301 1.934-10.883 7.799-10.883 14.734v4.11c0 4.012 3.252 7.264 7.264 7.264h48.08c4.011 0 7.263-3.252 7.263-7.264z" fill="url(#SVGID_6_)"/><path d="m268.565 506.368h-35.721c-4.012 0-7.264-3.252-7.264-7.264v-21.99c0-4.012 3.252-7.264 7.264-7.264h35.721c4.012 0 7.264 3.252 7.264 7.264v21.99c0 4.012-3.252 7.264-7.264 7.264z" fill="url(#SVGID_7_)"/><path d="m279.448 510h-57.488c-4.012 0-7.264-3.252-7.264-7.264v-4.11c0-8.512 6.9-15.412 15.412-15.412h41.193c8.512 0 15.412 6.9 15.412 15.412v4.11c-.001 4.012-3.253 7.264-7.265 7.264z" fill="url(#SVGID_8_)"/><path d="m271.301 483.214h-16.01c1.596 3.078 2.503 6.571 2.503 10.278v5.965c0 5.823-4.72 10.543-10.543 10.543h32.198c4.012 0 7.264-3.252 7.264-7.264v-4.11c-.001-8.512-6.901-15.412-15.412-15.412z" fill="url(#SVGID_9_)"/><path d="m286.712 502.736v-4.11c0-6.936-4.582-12.8-10.883-14.734v-6.778c0-4.012-3.252-7.264-7.264-7.264h-26.313c-4.012 0-7.264 3.252-7.264 7.264v6.778c-6.301 1.934-10.883 7.799-10.883 14.734v4.11c0 4.012 3.252 7.264 7.264 7.264h48.08c4.011 0 7.263-3.252 7.263-7.264z" fill="url(#SVGID_10_)"/><path d="m388.651 506.368h-35.721c-4.012 0-7.264-3.252-7.264-7.264v-21.99c0-4.012 3.252-7.264 7.264-7.264h35.721c4.012 0 7.264 3.252 7.264 7.264v21.99c0 4.012-3.252 7.264-7.264 7.264z" fill="url(#SVGID_11_)"/><path d="m399.535 510h-57.488c-4.012 0-7.264-3.252-7.264-7.264v-4.11c0-8.512 6.9-15.412 15.412-15.412h41.193c8.512 0 15.412 6.9 15.412 15.412v4.11c-.001 4.012-3.253 7.264-7.265 7.264z" fill="url(#SVGID_12_)"/><path d="m391.387 483.214h-16.01c1.596 3.078 2.503 6.571 2.503 10.278v5.965c0 5.823-4.72 10.543-10.543 10.543h32.198c4.012 0 7.264-3.252 7.264-7.264v-4.11c0-8.512-6.9-15.412-15.412-15.412z" fill="url(#SVGID_13_)"/><path d="m406.799 502.736v-4.11c0-6.936-4.582-12.8-10.883-14.734v-6.778c0-4.012-3.252-7.264-7.264-7.264h-26.313c-4.012 0-7.264 3.252-7.264 7.264v6.778c-6.301 1.934-10.883 7.799-10.883 14.734v4.11c0 4.012 3.252 7.264 7.264 7.264h48.08c4.011 0 7.263-3.252 7.263-7.264z" fill="url(#SVGID_14_)"/><path d="m58.446 34.299h393.107v290.253h-393.107z" fill="url(#SVGID_15_)"/><path d="m313.259 324.552h138.295v-290.253h-393.108v35.44z" fill="url(#SVGID_16_)"/><path d="m32.923 16.531c-4.384 0-7.938 7.955-7.938 17.768s3.554 17.768 7.938 17.768h23.488v-35.536z" fill="url(#SVGID_17_)"/><path d="m57.305.017c-8.285.348-14.955 15.557-14.955 34.281s6.67 33.934 14.954 34.281v.017h396.594c8.414 0 15.238-15.355 15.238-34.299s-6.823-34.297-15.237-34.297h-396.594z" fill="url(#SVGID_18_)"/><path d="m453.899 0c8.414 0 15.238 15.355 15.238 34.299s-6.824 34.299-15.238 34.299c-5.526 0-10.365-6.613-13.038-16.513-1.4-5.186.803-1.272.803-7.784 0-.153-3.01-10.308-3.009-10.461.109-18.732 6.891-33.84 15.244-33.84z" fill="url(#SVGID_19_)"/><path d="m453.899 0c8.414 0 15.238 15.355 15.238 34.299 0 2.156-.091 4.265-.258 6.313-.091.559-.195 1.1-.314 1.63-.146.645-.307 1.27-.481 1.872-.118.398-.244.787-.376 1.161-.07.19-.132.374-.202.555-.962 2.55-2.245 4.474-3.701 5.469-.621.427-1.283.687-1.959.754-.112.009-.23.014-.342.014h-20.648c-1.394-5.185-2.203-11.265-2.203-17.768 0-.152 0-.308.007-.46.105-18.73 6.888-33.839 15.239-33.839z" fill="url(#SVGID_20_)"/><path d="m485.015 34.299c0 9.815-3.554 17.77-7.938 17.77h-33.225c-1.398-5.18-5.2-11.263-5.2-17.77s.802-12.589 2.2-17.77h36.225c4.384 0 7.938 7.954 7.938 17.77z" fill="url(#SVGID_21_)"/><ellipse cx="477.075" cy="34.299" fill="url(#SVGID_22_)" rx="7.938" ry="17.768"/><path d="m438.661 33.839h14.952c0 .152-.007.303-.007.46 0 9.81 3.534 17.768 7.898 17.768h-20.648c-1.394-5.185-2.203-11.265-2.203-17.768.001-.152.001-.308.008-.46z" fill="url(#SVGID_23_)"/><path d="m32.923 306.784c-4.384 0-7.938 7.955-7.938 17.768s3.554 17.768 7.938 17.768h23.488v-35.535h-23.488z" fill="url(#SVGID_24_)"/><path d="m57.305 290.271c-8.285.348-14.954 15.557-14.954 34.281s6.67 33.934 14.954 34.281v.017h396.594c8.414 0 15.238-15.355 15.238-34.299 0-18.943-6.824-34.299-15.238-34.299h-396.594z" fill="url(#SVGID_25_)"/><path d="m453.899 290.253c8.414 0 15.238 15.355 15.238 34.299 0 18.943-6.824 34.299-15.238 34.299-5.529 0-10.37-6.621-13.043-16.531-1.398-5.182 6.635-5.128 2.8-10.382-.654-.896-5.002-7.692-5.001-7.845.109-18.732 6.891-33.84 15.244-33.84z" fill="url(#SVGID_26_)"/><path d="m453.899 290.253c8.414 0 15.238 15.355 15.238 34.299 0 2.156-.091 4.265-.258 6.313-.091.559-.195 1.1-.314 1.63-.146.645-.307 1.27-.481 1.872-.118.398-.244.787-.376 1.161-.07.19-.132.374-.202.555-.962 2.55-2.245 4.474-3.701 5.469-.621.427-1.283.687-1.959.754-.112.009-.23.014-.342.014h-20.648c-1.394-5.185-2.203-11.265-2.203-17.768 0-.152 0-.308.007-.46.105-18.73 6.888-33.839 15.239-33.839z" fill="url(#SVGID_27_)"/><path d="m485.015 324.552c0 9.815-3.554 17.77-7.938 17.77h-33.225c-1.398-5.18-5.2-11.263-5.2-17.77 0-6.506.802-12.589 2.2-17.77h36.225c4.384 0 7.938 7.955 7.938 17.77z" fill="url(#SVGID_28_)"/><ellipse cx="477.075" cy="324.552" fill="url(#SVGID_29_)" rx="7.938" ry="17.768"/><path d="m438.661 324.092h14.952c0 .152-.007.303-.007.46 0 9.81 3.534 17.768 7.898 17.768h-20.648c-1.394-5.185-2.203-11.265-2.203-17.768.001-.152.001-.308.008-.46z" fill="url(#SVGID_30_)"/><path d="m132.65 254.305h42.684v-11.233c0-2.727-2.211-4.938-4.938-4.938h-32.807c-2.727 0-4.938 2.211-4.938 4.938v11.233z" fill="url(#SVGID_31_)"/><path d="m196.221 254.305h42.684v-40.519c0-2.727-2.211-4.938-4.938-4.938h-32.807c-2.727 0-4.938 2.211-4.938 4.938v40.519z" fill="url(#SVGID_32_)"/><path d="m259.792 254.305h42.684v-74.574c0-2.727-2.211-4.938-4.938-4.938h-32.807c-2.727 0-4.938 2.211-4.938 4.938v74.574z" fill="url(#SVGID_33_)"/><path d="m79.976 258.392c0-4.108 3.331-7.439 7.439-7.439h216.704c4.108 0 7.439 3.331 7.439 7.439 0 4.108-3.331 7.439-7.439 7.439h-216.704c-4.108 0-7.439-3.331-7.439-7.439z" fill="url(#SVGID_34_)"/><path d="m113.512 265.831h21.648l-14.878-14.878h-6.77z" fill="url(#SVGID_35_)"/><path d="m112.991 279.734c-4.108 0-7.439-3.331-7.439-7.439v-185.74c0-4.108 3.331-7.439 7.439-7.439 4.108 0 7.439 3.331 7.439 7.439v185.74c0 4.108-3.33 7.439-7.439 7.439z" fill="url(#SVGID_36_)"/><path d="m285.209 98.604-30.234 17.009c-5.303 2.983-5.42 10.576-.212 13.722l8.026 4.848c-10.327 14.497-23.566 27.482-39.521 38.731-16.849 11.878-36.746 21.869-59.14 29.695-9.479 3.313-18.617 5.954-27.011 8.054-3.677.92-6.239 4.243-6.186 8.034.074 5.263 5.034 9.089 10.139 7.807 8.687-2.181 18.149-4.92 28.02-8.354 23.899-8.314 45.218-19 63.365-31.76 17.935-12.612 32.792-27.282 44.333-43.751l7.224 4.364c5.208 3.146 11.874-.492 12.047-6.574l.985-34.676c.176-6.174-6.452-10.177-11.835-7.149z" fill="url(#SVGID_37_)"/><g fill="#bec3d2"><path d="m388.566 143.386h-66.212c-2.516 0-4.555-2.04-4.555-4.555v-8.388c0-2.516 2.04-4.555 4.555-4.555h66.212c2.516 0 4.555 2.04 4.555 4.555v8.388c0 2.515-2.039 4.555-4.555 4.555z"/><path d="m425.468 143.386h-12.375c-2.516 0-4.555-2.04-4.555-4.555v-8.388c0-2.516 2.04-4.555 4.555-4.555h12.375c2.516 0 4.555 2.04 4.555 4.555v8.388c.001 2.515-2.039 4.555-4.555 4.555z"/><path d="m364.165 170.985h-41.812c-2.516 0-4.555-2.04-4.555-4.555v-8.388c0-2.516 2.04-4.555 4.555-4.555h41.812c2.516 0 4.555 2.04 4.555 4.555v8.388c.001 2.516-2.039 4.555-4.555 4.555z"/><path d="m425.468 170.985h-37.231c-2.516 0-4.555-2.04-4.555-4.555v-8.388c0-2.516 2.04-4.555 4.555-4.555h37.231c2.516 0 4.555 2.04 4.555 4.555v8.388c.001 2.516-2.039 4.555-4.555 4.555z"/></g></svg>