<svg id="Capa_1" enable-background="new 0 0 510 510" height="512" viewBox="0 0 510 510" width="512" xmlns="http://www.w3.org/2000/svg" xmlns:xlink="http://www.w3.org/1999/xlink"><radialGradient id="SVGID_1_" cx="183.572" cy="137.187" gradientTransform="matrix(1.243 0 0 1.088 -64.281 -1.644)" gradientUnits="userSpaceOnUse" r="294.585"><stop offset="0" stop-color="#ffda45"/><stop offset=".4414" stop-color="#ffd844"/><stop offset=".645" stop-color="#ffd03f"/><stop offset=".7999" stop-color="#ffc438"/><stop offset=".9293" stop-color="#ffb22d"/><stop offset="1" stop-color="#ffa425"/></radialGradient><linearGradient id="SVGID_2_" gradientUnits="userSpaceOnUse" x1="294.351" x2="106.772" y1="210.542" y2="-4.623"><stop offset="0" stop-color="#ffda45" stop-opacity="0"/><stop offset="1" stop-color="#fcee21"/></linearGradient><linearGradient id="lg1"><stop offset="0" stop-color="#ffda45" stop-opacity="0"/><stop offset="1" stop-color="#b53759"/></linearGradient><linearGradient id="SVGID_3_" gradientUnits="userSpaceOnUse" x1="281.139" x2="220.275" xlink:href="#lg1" y1="308.949" y2="305.657"/><linearGradient id="SVGID_4_" gradientUnits="userSpaceOnUse" x1="440.791" x2="243.704" xlink:href="#lg1" y1="396.746" y2="349.117"/><radialGradient id="SVGID_5_" cx="109.266" cy="82.62" gradientTransform="matrix(1.243 0 0 1.088 -64.281 -1.644)" gradientUnits="userSpaceOnUse" r="364.767"><stop offset="0" stop-color="#ff7044"/><stop offset=".3385" stop-color="#ff6d42"/><stop offset=".5435" stop-color="#fe653d"/><stop offset=".7128" stop-color="#fd5733"/><stop offset=".8618" stop-color="#fb4326"/><stop offset=".9977" stop-color="#f92914"/><stop offset="1" stop-color="#f92814"/></radialGradient><linearGradient id="SVGID_6_" gradientUnits="userSpaceOnUse" x1="350.755" x2="244.926" y1="190.35" y2="1.841"><stop offset="0" stop-color="#ff7044" stop-opacity="0"/><stop offset="1" stop-color="#ffa425"/></linearGradient><linearGradient id="lg2"><stop offset="0" stop-color="#ffda45"/><stop offset="1" stop-color="#ffa425"/></linearGradient><linearGradient id="SVGID_7_" gradientUnits="userSpaceOnUse" x1="333.247" x2="337.914" xlink:href="#lg2" y1="316.526" y2="212.526"/><linearGradient id="SVGID_8_" gradientTransform="matrix(-1 0 0 -1 510 442.564)" gradientUnits="userSpaceOnUse" x1="121.799" x2="121.799" xlink:href="#lg2" y1="339.356" y2="275.469"/><radialGradient id="SVGID_9_" cx="109.66" cy="161.188" gradientTransform="matrix(1.243 0 0 1.088 -64.281 -1.644)" gradientUnits="userSpaceOnUse" r="238.216"><stop offset="0" stop-color="#18cffc"/><stop offset=".342" stop-color="#1bccfc"/><stop offset=".5745" stop-color="#23c3fb"/><stop offset=".7745" stop-color="#31b4fa"/><stop offset=".9551" stop-color="#449ff8"/><stop offset="1" stop-color="#4a98f7"/></radialGradient><linearGradient id="SVGID_10_" gradientUnits="userSpaceOnUse" x1="237.395" x2="-22.734" y1="346.987" y2="59.986"><stop offset="0" stop-color="#18cffc" stop-opacity="0"/><stop offset="1" stop-color="#65e1dc"/></linearGradient><linearGradient id="lg3"><stop offset="0" stop-color="#7e8595"/><stop offset="1" stop-color="#555a66"/></linearGradient><linearGradient id="SVGID_11_" gradientTransform="matrix(-1 0 0 1 510 -70.943)" gradientUnits="userSpaceOnUse" x1="391.346" x2="391.346" xlink:href="#lg3" y1="327.217" y2="263.33"/><linearGradient id="SVGID_12_" gradientUnits="userSpaceOnUse" x1="170.349" x2="169.31" xlink:href="#lg3" y1="379.11" y2="350.377"/><path d="m497.264 41.108c-52.188 35.202-135.701 58.014-229.838 58.014s-177.65-22.812-229.838-58.014c-5.206-3.514-12.736-.316-12.736 5.439v156.863c0 110.283 70.478 211.298 182.546 261.664l38.83 17.46c6.66 2.992 13.929 4.482 21.198 4.482s14.538-1.49 21.198-4.482l38.83-17.46c112.068-50.366 182.546-151.38 182.546-261.663v-156.864c0-5.754-7.53-8.952-12.736-5.439z" fill="url(#SVGID_1_)"/><path d="m267.426 481.469c-3.538 0-7.071-.78-10.216-2.256l-40.25-18.903c-52.798-24.785-97.053-62.363-127.985-108.674s-47.282-99.473-47.282-153.736v-139.667c59.635 32.202 139.841 50.287 225.733 50.287s166.1-18.085 225.733-50.286v139.665c0 54.263-16.35 107.425-47.282 153.736s-75.187 83.889-127.981 108.673l-40.263 18.909c-3.136 1.472-6.669 2.252-10.207 2.252z" fill="url(#SVGID_2_)"/><path d="m236.609 127.654h-15.233v343.706l24.851 11.174c6.66 2.991 13.929 4.482 21.198 4.482s14.538-1.49 21.198-4.482l38.83-17.46c64.523-28.998 115.254-74.788 146.69-129.468z" fill="url(#SVGID_3_)"/><path d="m265.044 294.166-.763 153.222 34.784 30.451 28.389-12.765c80.245-36.064 139.16-98.099 166.152-170.908z" fill="url(#SVGID_4_)"/><path d="m494.165 1.447c-48.312 32.608-123.49 54.588-209.096 57.672-11.624.419-20.788 8.819-20.788 19.004v99.732c0 2.137-.412 4.259-1.219 6.276l-19.251 48.119c-4.939 12.346 5.527 25.264 20.47 25.264l14 21.481-14 15.049v153.344c7.272 0 14.545-1.495 21.198-4.485l38.834-17.453c112.069-50.367 182.538-151.385 182.538-261.67v-156.861c0-5.728-7.504-8.97-12.686-5.472z" fill="url(#SVGID_5_)"/><path d="m274.13 423.548 38.833-17.453c50.92-22.886 93.603-57.585 123.435-100.35 29.833-42.765 45.602-91.855 45.602-141.965v-128.965c-57.516 29.735-134.872 46.433-217.718 46.433v176.266l17 17.611-17 18.919v131.588c3.408 0 6.814-.721 9.848-2.084z" fill="url(#SVGID_6_)"/><path d="m409.819 206.03c-29.184 43.81-83.43 51.485-145.537 51.485v36.481.048c73.876 0 135.029-25.897 145.537-88.014z" fill="url(#SVGID_7_)"/><path d="m388.201 137.421c25.783 0 48.301 17.662 60.416 43.941-4.362-37.26-29.748-65.853-60.416-65.853s-56.054 28.592-60.416 65.853c12.115-26.279 34.634-43.941 60.416-43.941z" fill="url(#SVGID_8_)"/><path d="m242.574 240.465v-99.728c0-10.211-9.209-18.586-20.863-19.007-85.549-3.093-160.677-25.059-208.975-57.638-5.206-3.513-12.736-.315-12.736 5.44v156.863c0 110.283 70.478 211.298 182.546 261.664l38.83 17.46c6.66 2.991 13.929 4.482 21.198 4.482v-189.876c14.942 0 25.409-12.918 20.47-25.264l-19.251-48.119c-.807-2.017-1.219-4.139-1.219-6.277z" fill="url(#SVGID_9_)"/><path d="m242.574 143.862v344.381c-3.405 0-6.809-.718-9.854-2.089l-38.83-17.449c-50.92-22.888-93.603-57.589-123.437-100.351s-45.602-91.854-45.602-141.959v-128.972c57.519 29.741 134.881 46.439 217.723 46.439z" fill="url(#SVGID_10_)"/><path d="m118.654 222.061c25.783 0 48.301-17.662 60.416-43.941-4.362 37.26-29.748 65.853-60.416 65.853s-56.054-28.592-60.416-65.853c12.115 26.279 34.634 43.941 60.416 43.941z" fill="url(#SVGID_11_)"/><path d="m242.574 320.125v-.048c-73.876 0-135.03 25.897-145.537 88.014 29.184-43.81 83.429-51.484 145.537-51.484z" fill="url(#SVGID_12_)"/></svg>