<svg id="Capa_1" enable-background="new 0 0 510 510" height="512" viewBox="0 0 510 510" width="512" xmlns="http://www.w3.org/2000/svg" xmlns:xlink="http://www.w3.org/1999/xlink"><linearGradient id="lg1"><stop offset="0" stop-color="#555a66" stop-opacity="0"/><stop offset="1" stop-color="#333"/></linearGradient><linearGradient id="SVGID_1_" gradientUnits="userSpaceOnUse" x1="112.501" x2="112.501" xlink:href="#lg1" y1="208.07" y2="190.93"/><linearGradient id="SVGID_2_" gradientUnits="userSpaceOnUse" x1="207.504" x2="207.504" xlink:href="#lg1" y1="208.07" y2="190.93"/><linearGradient id="SVGID_3_" gradientUnits="userSpaceOnUse" x1="302.496" x2="302.496" xlink:href="#lg1" y1="208.07" y2="190.93"/><linearGradient id="SVGID_4_" gradientUnits="userSpaceOnUse" x1="397.499" x2="397.499" xlink:href="#lg1" y1="208.07" y2="190.93"/><linearGradient id="SVGID_5_" gradientUnits="userSpaceOnUse" x1="112.501" x2="112.501" xlink:href="#lg1" y1="330.242" y2="313.102"/><linearGradient id="SVGID_6_" gradientUnits="userSpaceOnUse" x1="207.504" x2="207.504" xlink:href="#lg1" y1="330.242" y2="313.102"/><linearGradient id="SVGID_7_" gradientUnits="userSpaceOnUse" x1="302.496" x2="302.496" xlink:href="#lg1" y1="330.242" y2="313.102"/><linearGradient id="SVGID_8_" gradientUnits="userSpaceOnUse" x1="397.499" x2="397.499" xlink:href="#lg1" y1="330.242" y2="313.102"/><linearGradient id="SVGID_9_" gradientUnits="userSpaceOnUse" x1="112.501" x2="112.501" xlink:href="#lg1" y1="399.413" y2="382.274"/><linearGradient id="SVGID_10_" gradientUnits="userSpaceOnUse" x1="207.504" x2="207.504" xlink:href="#lg1" y1="273.614" y2="256.474"/><linearGradient id="SVGID_11_" gradientUnits="userSpaceOnUse" x1="302.496" x2="302.496" xlink:href="#lg1" y1="399.413" y2="382.274"/><linearGradient id="SVGID_12_" gradientUnits="userSpaceOnUse" x1="397.499" x2="397.499" xlink:href="#lg1" y1="273.614" y2="256.474"/><linearGradient id="SVGID_13_" gradientUnits="userSpaceOnUse" x1="112.501" x2="112.501" xlink:href="#lg1" y1="180.837" y2="163.697"/><linearGradient id="SVGID_14_" gradientUnits="userSpaceOnUse" x1="207.504" x2="207.504" xlink:href="#lg1" y1="180.837" y2="163.697"/><linearGradient id="SVGID_15_" gradientUnits="userSpaceOnUse" x1="302.496" x2="302.496" xlink:href="#lg1" y1="180.837" y2="163.697"/><linearGradient id="SVGID_16_" gradientUnits="userSpaceOnUse" x1="397.499" x2="397.499" xlink:href="#lg1" y1="180.837" y2="163.697"/><linearGradient id="lg2"><stop offset="0" stop-color="#ffdaaa"/><stop offset=".4213" stop-color="#ffd8a8"/><stop offset=".6519" stop-color="#fed1a0"/><stop offset=".8359" stop-color="#fdc592"/><stop offset=".9951" stop-color="#fcb47f"/><stop offset="1" stop-color="#fcb37e"/></linearGradient><linearGradient id="SVGID_17_" gradientUnits="userSpaceOnUse" x1="122.693" x2="442.003" xlink:href="#lg2" y1="31.673" y2="570.65"/><linearGradient id="SVGID_18_" gradientTransform="matrix(-1 0 0 -1 -1618 -1618)" gradientUnits="userSpaceOnUse" x1="-1993.347" x2="-1702.902" xlink:href="#lg2" y1="-2076.138" y2="-1585.885"/><linearGradient id="lg3"><stop offset="0" stop-color="#ff7044"/><stop offset="1" stop-color="#f92814"/></linearGradient><linearGradient id="SVGID_19_" gradientUnits="userSpaceOnUse" x1="102.263" x2="137.714" xlink:href="#lg3" y1="124.69" y2="160.141"/><linearGradient id="lg4"><stop offset="0" stop-color="#ff7044" stop-opacity="0"/><stop offset="1" stop-color="#ffa425"/></linearGradient><linearGradient id="SVGID_20_" gradientUnits="userSpaceOnUse" x1="115.568" x2="99.81" xlink:href="#lg4" y1="139.275" y2="116.934"/><linearGradient id="lg5"><stop offset="0" stop-color="#f92814" stop-opacity="0"/><stop offset="1" stop-color="#c1272d"/></linearGradient><linearGradient id="SVGID_21_" gradientUnits="userSpaceOnUse" x1="112.913" x2="146.3" xlink:href="#lg5" y1="144.006" y2="81.91"/><linearGradient id="SVGID_22_" gradientUnits="userSpaceOnUse" x1="102.263" x2="137.714" xlink:href="#lg3" y1="278.862" y2="314.313"/><linearGradient id="SVGID_23_" gradientUnits="userSpaceOnUse" x1="115.568" x2="99.81" xlink:href="#lg4" y1="293.448" y2="271.107"/><linearGradient id="SVGID_24_" gradientUnits="userSpaceOnUse" x1="112.913" x2="146.3" xlink:href="#lg5" y1="298.178" y2="236.082"/><linearGradient id="SVGID_25_" gradientUnits="userSpaceOnUse" x1="102.263" x2="137.714" xlink:href="#lg3" y1="347.421" y2="382.873"/><linearGradient id="SVGID_26_" gradientUnits="userSpaceOnUse" x1="115.568" x2="99.81" xlink:href="#lg4" y1="362.007" y2="339.666"/><linearGradient id="SVGID_27_" gradientUnits="userSpaceOnUse" x1="112.913" x2="146.3" xlink:href="#lg5" y1="366.738" y2="304.642"/><linearGradient id="lg6"><stop offset="0" stop-color="#ffda45"/><stop offset="1" stop-color="#ffa425"/></linearGradient><linearGradient id="SVGID_28_" gradientUnits="userSpaceOnUse" x1="197.26" x2="232.711" xlink:href="#lg6" y1="124.69" y2="160.141"/><linearGradient id="lg7"><stop offset="0" stop-color="#ffda45" stop-opacity="0"/><stop offset="1" stop-color="#fcee21"/></linearGradient><linearGradient id="SVGID_29_" gradientUnits="userSpaceOnUse" x1="210.566" x2="194.807" xlink:href="#lg7" y1="139.275" y2="116.934"/><linearGradient id="lg8"><stop offset="0" stop-color="#ffda45" stop-opacity="0"/><stop offset="1" stop-color="#b53759"/></linearGradient><linearGradient id="SVGID_30_" gradientUnits="userSpaceOnUse" x1="207.91" x2="241.297" xlink:href="#lg8" y1="144.006" y2="81.91"/><linearGradient id="SVGID_31_" gradientUnits="userSpaceOnUse" x1="197.26" x2="232.711" xlink:href="#lg6" y1="278.862" y2="314.314"/><linearGradient id="SVGID_32_" gradientUnits="userSpaceOnUse" x1="210.566" x2="194.807" xlink:href="#lg7" y1="293.448" y2="271.107"/><linearGradient id="SVGID_33_" gradientUnits="userSpaceOnUse" x1="207.91" x2="241.297" xlink:href="#lg8" y1="298.178" y2="236.082"/><linearGradient id="SVGID_34_" gradientUnits="userSpaceOnUse" x1="197.26" x2="232.711" xlink:href="#lg6" y1="216.848" y2="252.3"/><linearGradient id="SVGID_35_" gradientUnits="userSpaceOnUse" x1="210.566" x2="194.807" xlink:href="#lg7" y1="231.434" y2="209.093"/><linearGradient id="SVGID_36_" gradientUnits="userSpaceOnUse" x1="207.91" x2="241.298" xlink:href="#lg8" y1="236.165" y2="174.069"/><linearGradient id="lg9"><stop offset="0" stop-color="#92f37f"/><stop offset="1" stop-color="#4ab272"/></linearGradient><linearGradient id="SVGID_37_" gradientUnits="userSpaceOnUse" x1="292.257" x2="327.709" xlink:href="#lg9" y1="124.69" y2="160.141"/><linearGradient id="lg10"><stop offset="0" stop-color="#92f37f" stop-opacity="0"/><stop offset="1" stop-color="#ffee83"/></linearGradient><linearGradient id="SVGID_38_" gradientUnits="userSpaceOnUse" x1="305.563" x2="289.805" xlink:href="#lg10" y1="139.275" y2="116.934"/><linearGradient id="lg11"><stop offset="0" stop-color="#4ab272" stop-opacity="0"/><stop offset="1" stop-color="#009245"/></linearGradient><linearGradient id="SVGID_39_" gradientUnits="userSpaceOnUse" x1="302.907" x2="336.295" xlink:href="#lg11" y1="144.006" y2="81.91"/><linearGradient id="SVGID_40_" gradientUnits="userSpaceOnUse" x1="292.257" x2="327.709" xlink:href="#lg9" y1="278.862" y2="314.314"/><linearGradient id="SVGID_41_" gradientUnits="userSpaceOnUse" x1="305.563" x2="289.805" xlink:href="#lg10" y1="293.448" y2="271.107"/><linearGradient id="SVGID_42_" gradientUnits="userSpaceOnUse" x1="302.907" x2="336.295" xlink:href="#lg11" y1="298.178" y2="236.082"/><linearGradient id="SVGID_43_" gradientUnits="userSpaceOnUse" x1="292.257" x2="327.709" xlink:href="#lg9" y1="347.421" y2="382.873"/><linearGradient id="SVGID_44_" gradientUnits="userSpaceOnUse" x1="305.563" x2="289.805" xlink:href="#lg10" y1="362.007" y2="339.666"/><linearGradient id="SVGID_45_" gradientUnits="userSpaceOnUse" x1="302.907" x2="336.295" xlink:href="#lg11" y1="366.738" y2="304.642"/><linearGradient id="lg12"><stop offset="0" stop-color="#18cffc"/><stop offset="1" stop-color="#4a98f7"/></linearGradient><linearGradient id="SVGID_46_" gradientUnits="userSpaceOnUse" x1="387.255" x2="422.706" xlink:href="#lg12" y1="124.69" y2="160.141"/><linearGradient id="lg13"><stop offset="0" stop-color="#18cffc" stop-opacity="0"/><stop offset="1" stop-color="#65e1dc"/></linearGradient><linearGradient id="SVGID_47_" gradientUnits="userSpaceOnUse" x1="400.56" x2="384.802" xlink:href="#lg13" y1="139.275" y2="116.934"/><linearGradient id="lg14"><stop offset="0" stop-color="#0469bc" stop-opacity="0"/><stop offset="1" stop-color="#0469bc"/></linearGradient><linearGradient id="SVGID_48_" gradientUnits="userSpaceOnUse" x1="397.905" x2="431.292" xlink:href="#lg14" y1="144.006" y2="81.91"/><linearGradient id="SVGID_49_" gradientUnits="userSpaceOnUse" x1="387.255" x2="422.706" xlink:href="#lg12" y1="278.862" y2="314.313"/><linearGradient id="SVGID_50_" gradientUnits="userSpaceOnUse" x1="400.56" x2="384.802" xlink:href="#lg13" y1="293.448" y2="271.107"/><linearGradient id="SVGID_51_" gradientUnits="userSpaceOnUse" x1="397.905" x2="431.292" xlink:href="#lg14" y1="298.178" y2="236.082"/><linearGradient id="SVGID_52_" gradientUnits="userSpaceOnUse" x1="387.255" x2="422.706" xlink:href="#lg12" y1="217.981" y2="253.432"/><linearGradient id="SVGID_53_" gradientUnits="userSpaceOnUse" x1="400.56" x2="384.802" xlink:href="#lg13" y1="232.566" y2="210.225"/><linearGradient id="SVGID_54_" gradientUnits="userSpaceOnUse" x1="397.905" x2="431.292" xlink:href="#lg14" y1="237.297" y2="175.201"/><g fill="#555a66"><path d="m112.504 421.954c-4.791 0-8.676-3.884-8.676-8.675v-316.557c0-4.791 3.884-8.675 8.676-8.675 4.791 0 8.675 3.884 8.675 8.675v316.557c0 4.791-3.884 8.675-8.675 8.675z"/><path d="m207.501 421.954c-4.791 0-8.675-3.884-8.675-8.675v-316.557c0-4.791 3.884-8.675 8.675-8.675 4.791 0 8.675 3.884 8.675 8.675v316.557c.001 4.791-3.883 8.675-8.675 8.675z"/><path d="m302.499 421.954c-4.791 0-8.675-3.884-8.675-8.675v-316.557c0-4.791 3.884-8.675 8.675-8.675 4.791 0 8.675 3.884 8.675 8.675v316.557c0 4.791-3.884 8.675-8.675 8.675z"/><path d="m397.496 421.954c-4.791 0-8.676-3.884-8.676-8.675v-316.557c0-4.791 3.884-8.675 8.676-8.675 4.791 0 8.676 3.884 8.676 8.675v316.557c0 4.791-3.885 8.675-8.676 8.675z"/></g><path d="m103.827 177.871h17.348v35.908h-17.348z" fill="url(#SVGID_1_)"/><path d="m198.83 177.871h17.348v35.908h-17.348z" fill="url(#SVGID_2_)"/><path d="m293.822 177.871h17.348v35.908h-17.348z" fill="url(#SVGID_3_)"/><path d="m388.825 177.871h17.348v35.908h-17.348z" fill="url(#SVGID_4_)"/><path d="m103.827 300.043h17.348v35.908h-17.348z" fill="url(#SVGID_5_)"/><path d="m198.83 300.043h17.348v35.908h-17.348z" fill="url(#SVGID_6_)"/><path d="m293.822 300.043h17.348v35.908h-17.348z" fill="url(#SVGID_7_)"/><path d="m388.825 300.043h17.348v35.908h-17.348z" fill="url(#SVGID_8_)"/><path d="m103.827 369.215h17.348v35.908h-17.348z" fill="url(#SVGID_9_)"/><path d="m198.83 243.416h17.348v35.908h-17.348z" fill="url(#SVGID_10_)"/><path d="m293.822 369.215h17.348v35.908h-17.348z" fill="url(#SVGID_11_)"/><path d="m388.825 243.416h17.348v35.908h-17.348z" fill="url(#SVGID_12_)"/><path d="m103.827 150.638h17.348v35.908h-17.348z" fill="url(#SVGID_13_)"/><path d="m198.83 150.638h17.348v35.908h-17.348z" fill="url(#SVGID_14_)"/><path d="m293.822 150.638h17.348v35.908h-17.348z" fill="url(#SVGID_15_)"/><path d="m388.825 150.638h17.348v35.908h-17.348z" fill="url(#SVGID_16_)"/><path d="m13.947 178.19v-.639c0-4.615 3.741-8.356 8.356-8.356h465.393c4.615 0 8.356 3.741 8.356 8.356v.639c0 4.615-3.741 8.356-8.356 8.356h-465.393c-4.615 0-8.356-3.741-8.356-8.356z" fill="#555a66"/><path d="m491.005 45.686h-472.01c-10.491 0-18.995 9.635-18.995 21.523v375.583c0 11.888 8.504 21.523 18.995 21.523h472.009c10.492 0 18.995-9.635 18.995-21.523v-375.583c.001-11.888-8.503-21.523-18.994-21.523zm-32.21 352.346c0 9.745-6.969 17.642-15.57 17.642h-376.45c-8.601 0-15.57-7.896-15.57-17.642v-286.064c0-9.745 6.969-17.642 15.57-17.642h376.449c8.601 0 15.57 7.896 15.57 17.642v286.064z" fill="url(#SVGID_17_)"/><path d="m38.671 444.407h432.657c9.552 0 17.299-8.778 17.299-19.601v-339.613c0-10.823-7.747-19.601-17.299-19.601h-432.657c-9.552 0-17.299 8.778-17.299 19.601v339.614c0 10.822 7.748 19.6 17.299 19.6zm12.534-332.439c0-9.745 6.969-17.642 15.57-17.642h376.449c8.601 0 15.57 7.896 15.57 17.642v286.064c0 9.745-6.969 17.642-15.57 17.642h-376.449c-8.601 0-15.57-7.896-15.57-17.642z" fill="url(#SVGID_18_)"/><ellipse cx="112.504" cy="134.931" fill="url(#SVGID_19_)" rx="32.206" ry="21.47"/><ellipse cx="112.504" cy="134.931" fill="url(#SVGID_20_)" rx="26.878" ry="17.919"/><path d="m126.911 115.725c2.172 2.89 3.397 6.151 3.397 9.604 0 11.857-14.419 21.47-32.206 21.47-5.179 0-10.071-.816-14.407-2.264 5.288 7.036 16.202 11.866 28.809 11.866 17.787 0 32.206-9.612 32.206-21.47 0-8.405-7.246-15.68-17.799-19.206z" fill="url(#SVGID_21_)"/><ellipse cx="112.504" cy="289.103" fill="url(#SVGID_22_)" rx="32.206" ry="21.47"/><ellipse cx="112.504" cy="289.103" fill="url(#SVGID_23_)" rx="26.878" ry="17.919"/><path d="m126.911 269.898c2.172 2.89 3.397 6.151 3.397 9.604 0 11.858-14.419 21.47-32.206 21.47-5.179 0-10.071-.816-14.407-2.264 5.288 7.036 16.202 11.866 28.809 11.866 17.787 0 32.206-9.612 32.206-21.47 0-8.406-7.246-15.681-17.799-19.206z" fill="url(#SVGID_24_)"/><ellipse cx="112.504" cy="357.663" fill="url(#SVGID_25_)" rx="32.206" ry="21.47"/><ellipse cx="112.504" cy="357.663" fill="url(#SVGID_26_)" rx="26.878" ry="17.919"/><path d="m126.911 338.457c2.172 2.89 3.397 6.152 3.397 9.604 0 11.857-14.419 21.47-32.206 21.47-5.179 0-10.071-.816-14.407-2.264 5.288 7.035 16.202 11.866 28.809 11.866 17.787 0 32.206-9.612 32.206-21.47 0-8.405-7.246-15.681-17.799-19.206z" fill="url(#SVGID_27_)"/><ellipse cx="207.501" cy="134.931" fill="url(#SVGID_28_)" rx="32.206" ry="21.47"/><ellipse cx="207.501" cy="134.931" fill="url(#SVGID_29_)" rx="26.878" ry="17.919"/><path d="m221.908 115.725c2.172 2.89 3.396 6.151 3.396 9.604 0 11.857-14.419 21.47-32.206 21.47-5.179 0-10.071-.816-14.407-2.264 5.288 7.036 16.202 11.866 28.809 11.866 17.787 0 32.206-9.612 32.206-21.47.001-8.405-7.245-15.68-17.798-19.206z" fill="url(#SVGID_30_)"/><ellipse cx="207.501" cy="289.103" fill="url(#SVGID_31_)" rx="32.206" ry="21.47"/><ellipse cx="207.501" cy="289.103" fill="url(#SVGID_32_)" rx="26.878" ry="17.919"/><path d="m221.908 269.898c2.172 2.89 3.396 6.151 3.396 9.604 0 11.858-14.419 21.47-32.206 21.47-5.179 0-10.071-.816-14.407-2.264 5.288 7.036 16.202 11.866 28.809 11.866 17.787 0 32.206-9.612 32.206-21.47.001-8.406-7.245-15.681-17.798-19.206z" fill="url(#SVGID_33_)"/><ellipse cx="207.501" cy="227.09" fill="url(#SVGID_34_)" rx="32.206" ry="21.47"/><ellipse cx="207.501" cy="227.09" fill="url(#SVGID_35_)" rx="26.878" ry="17.918"/><path d="m221.908 207.884c2.172 2.89 3.396 6.152 3.396 9.604 0 11.857-14.419 21.47-32.206 21.47-5.179 0-10.071-.816-14.407-2.264 5.288 7.035 16.202 11.866 28.809 11.866 17.787 0 32.206-9.612 32.206-21.47.001-8.405-7.245-15.681-17.798-19.206z" fill="url(#SVGID_36_)"/><ellipse cx="302.499" cy="134.931" fill="url(#SVGID_37_)" rx="32.206" ry="21.47"/><ellipse cx="302.499" cy="134.931" fill="url(#SVGID_38_)" rx="26.878" ry="17.919"/><path d="m316.905 115.725c2.172 2.89 3.397 6.151 3.397 9.604 0 11.857-14.419 21.47-32.206 21.47-5.179 0-10.072-.816-14.407-2.264 5.288 7.036 16.202 11.866 28.809 11.866 17.787 0 32.206-9.612 32.206-21.47 0-8.405-7.245-15.68-17.799-19.206z" fill="url(#SVGID_39_)"/><ellipse cx="302.499" cy="289.103" fill="url(#SVGID_40_)" rx="32.206" ry="21.47"/><ellipse cx="302.499" cy="289.103" fill="url(#SVGID_41_)" rx="26.878" ry="17.919"/><path d="m316.905 269.898c2.172 2.89 3.397 6.151 3.397 9.604 0 11.858-14.419 21.47-32.206 21.47-5.179 0-10.072-.816-14.407-2.264 5.288 7.036 16.202 11.866 28.809 11.866 17.787 0 32.206-9.612 32.206-21.47 0-8.406-7.245-15.681-17.799-19.206z" fill="url(#SVGID_42_)"/><ellipse cx="302.499" cy="357.663" fill="url(#SVGID_43_)" rx="32.206" ry="21.47"/><ellipse cx="302.499" cy="357.663" fill="url(#SVGID_44_)" rx="26.878" ry="17.919"/><path d="m316.905 338.457c2.172 2.89 3.397 6.152 3.397 9.604 0 11.857-14.419 21.47-32.206 21.47-5.179 0-10.072-.816-14.407-2.264 5.288 7.035 16.202 11.866 28.809 11.866 17.787 0 32.206-9.612 32.206-21.47 0-8.405-7.245-15.681-17.799-19.206z" fill="url(#SVGID_45_)"/><ellipse cx="397.496" cy="134.931" fill="url(#SVGID_46_)" rx="32.206" ry="21.47"/><ellipse cx="397.496" cy="134.931" fill="url(#SVGID_47_)" rx="26.878" ry="17.919"/><path d="m411.902 115.725c2.172 2.89 3.397 6.151 3.397 9.604 0 11.857-14.419 21.47-32.206 21.47-5.179 0-10.072-.816-14.407-2.264 5.288 7.036 16.202 11.866 28.809 11.866 17.787 0 32.206-9.612 32.206-21.47.001-8.405-7.245-15.68-17.799-19.206z" fill="url(#SVGID_48_)"/><ellipse cx="397.496" cy="289.103" fill="url(#SVGID_49_)" rx="32.206" ry="21.47"/><ellipse cx="397.496" cy="289.103" fill="url(#SVGID_50_)" rx="26.878" ry="17.919"/><path d="m411.902 269.898c2.172 2.89 3.397 6.151 3.397 9.604 0 11.858-14.419 21.47-32.206 21.47-5.179 0-10.072-.816-14.407-2.264 5.288 7.036 16.202 11.866 28.809 11.866 17.787 0 32.206-9.612 32.206-21.47.001-8.406-7.245-15.681-17.799-19.206z" fill="url(#SVGID_51_)"/><ellipse cx="397.496" cy="228.222" fill="url(#SVGID_52_)" rx="32.206" ry="21.47"/><ellipse cx="397.496" cy="228.222" fill="url(#SVGID_53_)" rx="26.878" ry="17.919"/><path d="m411.902 209.016c2.172 2.89 3.397 6.151 3.397 9.604 0 11.857-14.419 21.47-32.206 21.47-5.179 0-10.072-.816-14.407-2.264 5.288 7.036 16.202 11.866 28.809 11.866 17.787 0 32.206-9.612 32.206-21.47.001-8.405-7.245-15.68-17.799-19.206z" fill="url(#SVGID_54_)"/></svg>