<svg id="Capa_1" enable-background="new 0 0 510 510" height="512" viewBox="0 0 510 510" width="512" xmlns="http://www.w3.org/2000/svg" xmlns:xlink="http://www.w3.org/1999/xlink"><linearGradient id="lg1"><stop offset="0" stop-color="#7e8595"/><stop offset="1" stop-color="#555a66"/></linearGradient><linearGradient id="SVGID_1_" gradientUnits="userSpaceOnUse" x1="263.362" x2="443.016" xlink:href="#lg1" y1="301.198" y2="627.193"/><linearGradient id="SVGID_2_" gradientUnits="userSpaceOnUse" x1="261.634" x2="66.834" xlink:href="#lg1" y1="300.316" y2="-119.345"/><linearGradient id="SVGID_3_" gradientUnits="userSpaceOnUse" x1="226.934" x2="522.082" xlink:href="#lg1" y1="292.44" y2="681.452"/><linearGradient id="SVGID_4_" gradientUnits="userSpaceOnUse" x1="236.903" x2="333.463" xlink:href="#lg1" y1="34.344" y2="278.632"/><linearGradient id="SVGID_5_" gradientUnits="userSpaceOnUse" x1="391.951" x2=".076" xlink:href="#lg1" y1="217.077" y2="-174.798"/><linearGradient id="SVGID_6_" gradientUnits="userSpaceOnUse" x1="241.159" x2="315.012" y1="45.11" y2="231.951"><stop offset="0" stop-color="#18cffc"/><stop offset="1" stop-color="#4a98f7"/></linearGradient><linearGradient id="lg2"><stop offset="0" stop-color="#0469bc" stop-opacity="0"/><stop offset="1" stop-color="#0469bc"/></linearGradient><linearGradient id="SVGID_7_" gradientUnits="userSpaceOnUse" x1="100.879" x2="54.435" xlink:href="#lg2" y1="80.127" y2="80.127"/><linearGradient id="SVGID_8_" gradientUnits="userSpaceOnUse" x1="255" x2="255" xlink:href="#lg2" y1="62.113" y2="13.018"/><linearGradient id="SVGID_9_" gradientUnits="userSpaceOnUse" x1="263.388" x2="314.171" xlink:href="#lg2" y1="89.55" y2="-111.835"/><linearGradient id="SVGID_10_" gradientUnits="userSpaceOnUse" x1="286.201" x2="160.526" y1="147.243" y2="-123.097"><stop offset="0" stop-color="#18cffc" stop-opacity="0"/><stop offset="1" stop-color="#65e1dc"/></linearGradient><linearGradient id="lg3"><stop offset="0" stop-color="#555a66" stop-opacity="0"/><stop offset="1" stop-color="#555a66"/></linearGradient><linearGradient id="SVGID_11_" gradientUnits="userSpaceOnUse" x1="332.949" x2="223.669" xlink:href="#lg3" y1="334.75" y2="225.47"/><linearGradient id="SVGID_12_" gradientUnits="userSpaceOnUse" x1="216.755" x2="114.221" xlink:href="#lg3" y1="342.175" y2="239.641"/><linearGradient id="SVGID_13_" gradientUnits="userSpaceOnUse" x1="329.43" x2="233.968" xlink:href="#lg3" y1="472.937" y2="377.475"/><linearGradient id="SVGID_14_" gradientUnits="userSpaceOnUse" x1="201.394" x2="122.93" xlink:href="#lg3" y1="468.525" y2="390.062"/><linearGradient id="SVGID_15_" gradientUnits="userSpaceOnUse" x1="443.811" x2="306.185" xlink:href="#lg3" y1="371.374" y2="302.561"/><linearGradient id="lg4"><stop offset="0" stop-color="#f9f7fc"/><stop offset="1" stop-color="#f0ddfc"/></linearGradient><linearGradient id="SVGID_16_" gradientUnits="userSpaceOnUse" x1="230.931" x2="307.367" xlink:href="#lg4" y1="232.732" y2="309.168"/><linearGradient id="lg5"><stop offset="0" stop-color="#f0ddfc" stop-opacity="0"/><stop offset=".2085" stop-color="#dfcdf1" stop-opacity=".209"/><stop offset=".6167" stop-color="#b5a4d3" stop-opacity=".617"/><stop offset="1" stop-color="#8779b3"/></linearGradient><linearGradient id="SVGID_17_" gradientUnits="userSpaceOnUse" x1="300.863" x2="203.218" xlink:href="#lg5" y1="302.806" y2="205.161"/><linearGradient id="lg6"><stop offset="0" stop-color="#ff7044"/><stop offset="1" stop-color="#f92814"/></linearGradient><linearGradient id="SVGID_18_" gradientUnits="userSpaceOnUse" x1="222.392" x2="309.985" xlink:href="#lg6" y1="227.647" y2="306.481"/><linearGradient id="SVGID_19_" gradientUnits="userSpaceOnUse" x1="230.931" x2="307.367" xlink:href="#lg4" y1="374.443" y2="450.879"/><linearGradient id="SVGID_20_" gradientUnits="userSpaceOnUse" x1="292.291" x2="234.137" xlink:href="#lg5" y1="403.968" y2="345.814"/><linearGradient id="SVGID_21_" gradientUnits="userSpaceOnUse" x1="300.863" x2="203.218" xlink:href="#lg5" y1="444.517" y2="346.872"/><linearGradient id="SVGID_22_" gradientUnits="userSpaceOnUse" x1="281.251" x2="247.998" xlink:href="#lg5" y1="456.598" y2="423.345"/><linearGradient id="SVGID_23_" gradientUnits="userSpaceOnUse" x1="222.392" x2="309.986" xlink:href="#lg6" y1="369.359" y2="448.192"/><linearGradient id="SVGID_24_" gradientUnits="userSpaceOnUse" x1="249.574" x2="272.106" xlink:href="#lg6" y1="424.921" y2="447.453"/><linearGradient id="SVGID_25_" gradientUnits="userSpaceOnUse" x1="249.574" x2="272.106" xlink:href="#lg6" y1="361.251" y2="383.783"/><linearGradient id="SVGID_26_" gradientUnits="userSpaceOnUse" x1="107.312" x2="183.748" xlink:href="#lg4" y1="232.732" y2="309.168"/><linearGradient id="SVGID_27_" gradientUnits="userSpaceOnUse" x1="177.315" x2="79.67" xlink:href="#lg5" y1="302.735" y2="205.09"/><linearGradient id="SVGID_28_" gradientUnits="userSpaceOnUse" x1="98.773" x2="186.366" xlink:href="#lg6" y1="227.647" y2="306.481"/><linearGradient id="SVGID_29_" gradientUnits="userSpaceOnUse" x1="107.312" x2="183.748" xlink:href="#lg4" y1="374.443" y2="450.879"/><linearGradient id="SVGID_30_" gradientUnits="userSpaceOnUse" x1="193.318" x2="53.386" xlink:href="#lg5" y1="460.449" y2="320.518"/><linearGradient id="SVGID_31_" gradientTransform="matrix(.707 .707 -.707 .707 -3019.657 -485.965)" gradientUnits="userSpaceOnUse" x1="2821.76" x2="2909.354" xlink:href="#lg6" y1="-1633.803" y2="-1554.969"/><linearGradient id="SVGID_32_" gradientUnits="userSpaceOnUse" x1="316.413" x2="441.184" y1="239.86" y2="410.844"><stop offset="0" stop-color="#ffda45"/><stop offset="1" stop-color="#ffa425"/></linearGradient><linearGradient id="lg7"><stop offset="0" stop-color="#ffda45" stop-opacity="0"/><stop offset="1" stop-color="#b53759"/></linearGradient><linearGradient id="SVGID_33_" gradientUnits="userSpaceOnUse" x1="419.85" x2="352.702" xlink:href="#lg7" y1="364.787" y2="259.902"/><linearGradient id="SVGID_34_" gradientUnits="userSpaceOnUse" x1="410.908" x2="352.639" xlink:href="#lg7" y1="393.949" y2="302.938"/><linearGradient id="lg8"><stop offset="0" stop-color="#fffcf8"/><stop offset=".1875" stop-color="#faf8f6"/><stop offset=".4041" stop-color="#eceef2"/><stop offset=".6353" stop-color="#d5dcea"/><stop offset=".875" stop-color="#b5c4df"/><stop offset="1" stop-color="#a1b5d8"/></linearGradient><linearGradient id="SVGID_35_" gradientUnits="userSpaceOnUse" x1="344.727" x2="432.321" xlink:href="#lg8" y1="273.343" y2="352.177"/><linearGradient id="SVGID_36_" gradientUnits="userSpaceOnUse" x1="344.727" x2="432.321" xlink:href="#lg8" y1="316.474" y2="395.308"/><linearGradient id="SVGID_37_" gradientUnits="userSpaceOnUse" x1="266.725" x2="266.725" xlink:href="#lg4" y1="55.693" y2="135.468"/><linearGradient id="SVGID_38_" gradientUnits="userSpaceOnUse" x1="323.746" x2="323.746" xlink:href="#lg4" y1="55.693" y2="135.468"/><linearGradient id="SVGID_39_" gradientUnits="userSpaceOnUse" x1="394.176" x2="394.176" xlink:href="#lg4" y1="55.693" y2="135.468"/><path d="m453.332 510h-396.664c-9.559 0-17.308-7.749-17.308-17.308v-413.335c0-9.559 7.749-17.308 17.308-17.308h396.664c9.559 0 17.308 7.749 17.308 17.308v413.335c0 9.559-7.749 17.308-17.308 17.308z" fill="url(#SVGID_1_)"/><path d="m444.087 498.253h-378.174c-9.113 0-16.501-7.388-16.501-16.501v-391.455c0-9.113 7.388-16.501 16.501-16.501h378.173c9.113 0 16.501 7.388 16.501 16.501v391.454c.001 9.114-7.387 16.502-16.5 16.502z" fill="url(#SVGID_2_)"/><path d="m428.38 482.833h-346.76c-7.554 0-13.678-6.124-13.678-13.678v-279.446c0-7.554 6.124-13.678 13.678-13.678h346.76c7.554 0 13.678 6.124 13.678 13.678v279.446c0 7.554-6.124 13.678-13.678 13.678z" fill="url(#SVGID_3_)"/><path d="m452.181 160.253h-394.362c-10.194 0-18.458-8.264-18.458-18.458v-123.337c-.001-10.194 8.263-18.458 18.458-18.458h394.363c10.194 0 18.458 8.264 18.458 18.458v123.336c0 10.195-8.264 18.459-18.459 18.459z" fill="url(#SVGID_4_)"/><path d="m442.86 150.899h-375.72c-9.791 0-17.728-7.937-17.728-17.728v-106.089c0-9.791 7.937-17.728 17.728-17.728h375.72c9.791 0 17.728 7.937 17.728 17.728v106.089c0 9.791-7.937 17.728-17.728 17.728z" fill="url(#SVGID_5_)"/><path d="m427.217 132.895h-344.434c-8.196 0-14.841-6.644-14.841-14.841v-75.855c0-8.196 6.644-14.841 14.841-14.841h344.434c8.196 0 14.841 6.644 14.841 14.841v75.855c0 8.196-6.645 14.841-14.841 14.841z" fill="url(#SVGID_6_)"/><path d="m115.969 27.358h-33.186c-8.196 0-14.841 6.644-14.841 14.841v75.855c0 8.196 6.644 14.841 14.841 14.841h33.186z" fill="url(#SVGID_7_)"/><path d="m427.217 27.358h-344.434c-8.196 0-14.841 6.644-14.841 14.841v26.879h374.116v-26.879c0-8.196-6.644-14.841-14.841-14.841z" fill="url(#SVGID_8_)"/><path d="m81.711 132.895h344.434c8.196 0 14.841-6.645 14.841-14.841v-75.855c0-3.987-1.581-7.6-4.139-10.266l-367.833 93.776c2.599 4.301 7.305 7.186 12.697 7.186z" fill="url(#SVGID_9_)"/><path d="m410.307 115.601h-310.614c-7.471 0-13.527-6.056-13.527-13.527v-43.894c0-7.471 6.056-13.527 13.527-13.527h310.613c7.471 0 13.527 6.056 13.527 13.527v43.894c.001 7.471-6.055 13.527-13.526 13.527z" fill="url(#SVGID_10_)"/><path d="m297.316 220.754c-10.114-10.749-24.459-17.471-40.383-17.471-30.625 0-55.452 24.827-55.452 55.452 0 15.924 6.722 30.269 17.471 40.382l120.06 120.06c10.114 10.749 24.459 17.471 40.383 17.471 30.625 0 55.452-24.827 55.452-55.452 0-15.924-6.722-30.269-17.471-40.383z" fill="url(#SVGID_11_)"/><path d="m173.697 220.754c-10.114-10.749-24.459-17.471-40.383-17.471-30.625 0-55.452 24.827-55.452 55.452 0 15.924 6.722 30.269 17.471 40.382l120.06 120.06c10.114 10.749 24.459 17.471 40.383 17.471 30.625 0 55.452-24.827 55.452-55.452 0-15.924-6.722-30.269-17.471-40.383z" fill="url(#SVGID_12_)"/><path d="m428.25 496.662h-153.455l-55.834-55.834c-10.752-10.115-17.478-24.462-17.478-40.379 0-3.204.267-6.346.801-9.407 4.467-26.146 27.234-46.048 54.653-46.048 15.928 0 30.274 6.727 40.379 17.468l120.059 120.059c4.333 4.077 8.02 8.852 10.875 14.141z" fill="url(#SVGID_13_)"/><path d="m304.62 496.662h-153.455l-55.834-55.834c-10.752-10.115-17.468-24.462-17.468-40.379 0-30.623 24.821-55.454 55.444-55.454 15.928 0 30.274 6.727 40.389 17.468l120.059 120.059c4.334 4.076 8.02 8.851 10.865 14.14z" fill="url(#SVGID_14_)"/><path d="m462.339 484.536v-242.609l-31.863-31.863c-1.607-2.242-4.227-3.707-7.196-3.707h-88.027c-4.891 0-8.855 3.965-8.855 8.855v221.565c0 2.968 1.465 5.589 3.707 7.195l52.688 52.688h67.421c6.696.001 12.125-5.428 12.125-12.124z" fill="url(#SVGID_15_)"/><circle cx="256.934" cy="258.734" fill="url(#SVGID_16_)" r="55.452"/><path d="m312.35 260.118-14.91-14.734h-80.854c-.829 0-1.5.672-1.5 1.5v23.7c0 .719.506 1.318 1.18 1.464l41.798 42.109c29.639-.594 53.559-24.432 54.286-54.039z" fill="url(#SVGID_17_)"/><path d="m297.281 245.384h-80.695c-.829 0-1.5.672-1.5 1.5v23.7c0 .829.672 1.5 1.5 1.5h80.695c.829 0 1.5-.672 1.5-1.5v-23.7c0-.828-.672-1.5-1.5-1.5z" fill="url(#SVGID_18_)"/><circle cx="256.934" cy="400.446" fill="url(#SVGID_19_)" r="55.452"/><path d="m312.266 403.914-44.682-44.681c-2.603-2.954-6.404-4.828-10.651-4.828-7.846 0-14.206 6.36-14.206 14.206 0 4.247 1.874 8.048 4.828 10.651l54.041 54.041c6.135-8.325 9.993-18.425 10.67-29.389z" fill="url(#SVGID_20_)"/><path d="m312.35 401.829-14.91-14.734h-80.854c-.829 0-1.5.672-1.5 1.5v23.7c0 .719.506 1.318 1.18 1.465l41.798 42.109c29.639-.595 53.559-24.433 54.286-54.04z" fill="url(#SVGID_21_)"/><path d="m289.791 445.109-22.206-22.206c-2.603-2.954-6.404-4.828-10.651-4.828-7.846 0-14.206 6.36-14.206 14.206 0 4.247 1.874 8.048 4.828 10.651l12.847 12.847c10.963-.678 21.063-4.535 29.388-10.67z" fill="url(#SVGID_22_)"/><path d="m297.281 387.096h-80.695c-.829 0-1.5.672-1.5 1.5v23.7c0 .829.672 1.5 1.5 1.5h80.695c.829 0 1.5-.672 1.5-1.5v-23.7c0-.829-.672-1.5-1.5-1.5z" fill="url(#SVGID_23_)"/><circle cx="256.934" cy="432.281" fill="url(#SVGID_24_)" r="14.206"/><circle cx="256.934" cy="368.611" fill="url(#SVGID_25_)" r="14.206"/><circle cx="133.314" cy="258.734" fill="url(#SVGID_26_)" r="55.452"/><path d="m188.731 260.118-42.102-42.051c-.147-.675-.746-1.18-1.464-1.18h-23.7c-.829 0-1.5.672-1.5 1.5v25.497c0 .829-.672 1.5-1.5 1.5h-25.498c-.828 0-1.5.672-1.5 1.5v23.7c0 .719.506 1.318 1.18 1.464l41.798 42.109c29.639-.594 53.559-24.432 54.286-54.039z" fill="url(#SVGID_27_)"/><path d="m173.662 245.384h-25.497c-.829 0-1.5-.672-1.5-1.5v-25.497c0-.829-.672-1.5-1.5-1.5h-23.7c-.829 0-1.5.672-1.5 1.5v25.497c0 .829-.672 1.5-1.5 1.5h-25.498c-.828 0-1.5.672-1.5 1.5v23.7c0 .829.672 1.5 1.5 1.5h25.497c.829 0 1.5.672 1.5 1.5v25.497c0 .829.672 1.5 1.5 1.5h23.7c.829 0 1.5-.672 1.5-1.5v-25.497c0-.829.672-1.5 1.5-1.5h25.497c.828 0 1.5-.672 1.5-1.5v-23.7c.001-.828-.671-1.5-1.499-1.5z" fill="url(#SVGID_28_)"/><circle cx="133.314" cy="400.446" fill="url(#SVGID_29_)" r="55.452"/><path d="m152.404 362.476-18.029 18.029c-.586.586-1.536.586-2.122 0l-18.029-18.029c-.586-.586-1.536-.586-2.122 0l-16.758 16.758c-.586.586-.586 1.536 0 2.122l18.029 18.029c.586.586.586 1.536 0 2.122l-18.029 18.029c-.586.586-.586 1.536 0 2.122l34.09 34.09c1.283.089 2.574.15 3.88.15 30.625 0 55.452-24.827 55.452-55.452 0-1.306-.061-2.597-.15-3.88l-34.09-34.09c-.586-.586-1.536-.586-2.122 0z" fill="url(#SVGID_30_)"/><path d="m171.284 419.536-18.029-18.029c-.586-.586-.586-1.536 0-2.122l18.029-18.029c.586-.586.586-1.536 0-2.122l-16.758-16.758c-.586-.586-1.536-.586-2.122 0l-18.029 18.029c-.586.586-1.536.586-2.122 0l-18.029-18.029c-.586-.586-1.536-.586-2.122 0l-16.758 16.758c-.586.586-.586 1.536 0 2.122l18.029 18.029c.586.586.586 1.536 0 2.122l-18.029 18.029c-.586.586-.586 1.536 0 2.122l16.758 16.758c.586.586 1.536.586 2.122 0l18.029-18.029c.586-.586 1.536-.586 2.122 0l18.029 18.029c.586.586 1.536.586 2.122 0l16.758-16.758c.586-.587.586-1.536 0-2.122z" fill="url(#SVGID_31_)"/><path d="m432.135 215.214v221.56c0 4.894-3.963 8.857-8.857 8.857h-88.023c-4.894 0-8.857-3.963-8.857-8.857v-221.56c0-4.894 3.963-8.857 8.857-8.857h88.023c4.894 0 8.857 3.963 8.857 8.857z" fill="url(#SVGID_32_)"/><path d="m432.137 303.296-12.362-12.216h-80.854c-.829 0-1.5.672-1.5 1.5v23.7c0 .719.506 1.318 1.18 1.465l93.536 93.837z" fill="url(#SVGID_33_)"/><path d="m432.135 346.425v90.349c0 4.894-3.963 8.857-8.857 8.857h-.195l-84.478-84.757c-.679-.149-1.182-.744-1.182-1.461v-23.706c0-.828.67-1.498 1.498-1.498h80.85z" fill="url(#SVGID_34_)"/><path d="m419.616 291.08h-80.695c-.829 0-1.5.672-1.5 1.5v23.7c0 .828.672 1.5 1.5 1.5h80.695c.829 0 1.5-.672 1.5-1.5v-23.7c0-.828-.671-1.5-1.5-1.5z" fill="url(#SVGID_35_)"/><path d="m419.616 334.211h-80.695c-.829 0-1.5.672-1.5 1.5v23.7c0 .828.672 1.5 1.5 1.5h80.695c.829 0 1.5-.672 1.5-1.5v-23.7c0-.828-.671-1.5-1.5-1.5z" fill="url(#SVGID_36_)"/><path d="m251.08 52.401c0-2.9 1.166-5.033 3.503-6.403l15.947-9.665c.885-.562 2.054-.845 3.503-.845 2.093 0 4.006.564 5.738 1.691 1.731 1.129 2.597 2.537 2.597 4.229v76.834c0 1.853-.927 3.282-2.779 4.289-1.854 1.008-4.068 1.51-6.644 1.51-2.578 0-4.793-.502-6.645-1.51-1.854-1.007-2.779-2.436-2.779-4.289v-61.492l-3.503 2.174c-.966.646-1.974.967-3.02.967-1.691 0-3.101-.765-4.228-2.296-1.127-1.528-1.69-3.261-1.69-5.194z" fill="url(#SVGID_37_)"/><path d="m294.087 96.254v-32.014c0-9.825 2.698-17.034 8.094-21.625 5.395-4.59 12.564-6.886 21.504-6.886 9.019 0 16.228 2.295 21.624 6.886 5.395 4.591 8.094 11.8 8.094 21.625v32.014c0 9.827-2.699 17.034-8.094 21.625-5.397 4.59-12.606 6.886-21.624 6.886-8.94 0-16.109-2.295-21.504-6.886-5.396-4.591-8.094-11.798-8.094-21.625zm18.847 0c0 8.054 3.583 12.08 10.752 12.08 7.248 0 10.872-4.026 10.872-12.08v-32.014c0-8.053-3.624-12.08-10.872-12.08-7.169 0-10.752 4.028-10.752 12.08z" fill="url(#SVGID_38_)"/><path d="m364.518 96.254v-32.014c0-9.825 2.697-17.034 8.094-21.625 5.395-4.59 12.564-6.886 21.504-6.886 9.019 0 16.228 2.295 21.624 6.886 5.395 4.591 8.094 11.8 8.094 21.625v32.014c0 9.827-2.699 17.034-8.094 21.625-5.397 4.59-12.605 6.886-21.624 6.886-8.94 0-16.109-2.295-21.504-6.886-5.397-4.591-8.094-11.798-8.094-21.625zm18.845 0c0 8.054 3.583 12.08 10.752 12.08 7.249 0 10.873-4.026 10.873-12.08v-32.014c0-8.053-3.624-12.08-10.873-12.08-7.169 0-10.752 4.028-10.752 12.08z" fill="url(#SVGID_39_)"/></svg>