<svg id="Capa_1" enable-background="new 0 0 510 510" height="512" viewBox="0 0 510 510" width="512" xmlns="http://www.w3.org/2000/svg" xmlns:xlink="http://www.w3.org/1999/xlink"><linearGradient id="lg1"><stop offset="0" stop-color="#4ab272"/><stop offset="1" stop-color="#077565"/></linearGradient><linearGradient id="SVGID_1_" gradientUnits="userSpaceOnUse" x1="228.202" x2="371.191" xlink:href="#lg1" y1="219.99" y2="581.739"/><linearGradient id="SVGID_2_" gradientUnits="userSpaceOnUse" x1="276.508" x2="1.53" y1="334.052" y2="-257.456"><stop offset="0" stop-color="#92f37f" stop-opacity="0"/><stop offset="1" stop-color="#ffee83"/></linearGradient><linearGradient id="lg2"><stop offset="0" stop-color="#92f37f"/><stop offset="1" stop-color="#4ab272"/></linearGradient><linearGradient id="SVGID_3_" gradientUnits="userSpaceOnUse" x1="237.34" x2="316.984" xlink:href="#lg2" y1="234.218" y2="475.804"/><linearGradient id="SVGID_4_" gradientUnits="userSpaceOnUse" x1="329.745" x2="36.512" xlink:href="#lg2" y1="336.371" y2="145.769"/><linearGradient id="lg3"><stop offset="0" stop-color="#4ab272" stop-opacity="0"/><stop offset="1" stop-color="#009245"/></linearGradient><linearGradient id="SVGID_5_" gradientUnits="userSpaceOnUse" x1="323.723" x2="117.591" xlink:href="#lg3" y1="337.867" y2="246.615"/><linearGradient id="SVGID_6_" gradientUnits="userSpaceOnUse" x1="245.74" x2="325.586" xlink:href="#lg1" y1="279.439" y2="333.213"/><linearGradient id="SVGID_7_" gradientUnits="userSpaceOnUse" x1="230.257" x2="84.257" xlink:href="#lg3" y1="310.618" y2="61.952"/><linearGradient id="SVGID_8_" gradientUnits="userSpaceOnUse" x1="542.624" x2="390.542" xlink:href="#lg3" y1="299.917" y2="147.835"/><linearGradient id="SVGID_9_" gradientTransform="matrix(-1 0 0 -1 -241.027 2369.237)" gradientUnits="userSpaceOnUse" x1="-689.491" x2="-574.516" y1="2179.159" y2="2262.124"><stop offset="0" stop-color="#ff7044"/><stop offset="1" stop-color="#f92814"/></linearGradient><linearGradient id="SVGID_10_" gradientTransform="matrix(-1 0 0 -1 -241.027 2369.237)" gradientUnits="userSpaceOnUse" x1="-629.452" x2="-760.223" y1="2211.039" y2="2149.538"><stop offset="0" stop-color="#ff7044" stop-opacity="0"/><stop offset="1" stop-color="#ffa425"/></linearGradient><linearGradient id="SVGID_11_" gradientTransform="matrix(-1 0 0 -1 -241.027 2369.237)" gradientUnits="userSpaceOnUse" x1="-614.725" x2="-736.725" y1="2177.319" y2="2359.168"><stop offset="0" stop-color="#f92814" stop-opacity="0"/><stop offset="1" stop-color="#c1272d"/></linearGradient><linearGradient id="SVGID_12_" gradientUnits="userSpaceOnUse" x1="61.536" x2="176.49" y1="163.1" y2="246.05"><stop offset="0" stop-color="#ffda45"/><stop offset="1" stop-color="#ffa425"/></linearGradient><linearGradient id="SVGID_13_" gradientUnits="userSpaceOnUse" x1="121.563" x2="-9.184" y1="194.973" y2="133.484"><stop offset="0" stop-color="#ffda45" stop-opacity="0"/><stop offset="1" stop-color="#ffee83"/></linearGradient><linearGradient id="SVGID_14_" gradientUnits="userSpaceOnUse" x1="136.3" x2="14.284" y1="161.249" y2="343.122"><stop offset="0" stop-color="#ffda45" stop-opacity="0"/><stop offset="1" stop-color="#b53759"/></linearGradient><path d="m495.848 427.652h-481.696c-7.816 0-14.152-6.336-14.152-14.152v-251.427c0-7.816 6.336-14.152 14.152-14.152h481.696c7.816 0 14.152 6.336 14.152 14.152v251.427c0 7.816-6.336 14.152-14.152 14.152z" fill="url(#SVGID_1_)"/><path d="m485.376 417.954h-460.752c-7.372 0-13.347-5.976-13.347-13.347v-233.64c0-7.372 5.976-13.347 13.347-13.347h460.752c7.371 0 13.347 5.976 13.347 13.347v233.639c0 7.372-5.976 13.348-13.347 13.348z" fill="url(#SVGID_2_)"/><path d="m467.226 233.47c-23.624 0-42.774-19.151-42.774-42.774 0-.97.033-1.933.098-2.886.31-4.579-3.305-8.462-7.894-8.462h-323.311c-4.589 0-8.204 3.884-7.894 8.462.065.954.097 1.916.097 2.886 0 23.624-19.151 42.774-42.774 42.774-.028 0-.056 0-.084 0-4.437-.009-8.079 3.483-8.079 7.92v92.793c0 4.437 3.642 7.929 8.079 7.921h.084c23.624 0 42.774 19.151 42.774 42.774 0 .97-.033 1.933-.097 2.886-.31 4.579 3.305 8.462 7.894 8.462h323.309c4.589 0 8.204-3.883 7.894-8.462-.065-.954-.098-1.916-.098-2.886 0-23.624 19.151-42.774 42.774-42.774h.084c4.437.009 8.079-3.483 8.079-7.921v-92.793c0-4.437-3.642-7.929-8.079-7.92-.027 0-.054 0-.082 0z" fill="url(#SVGID_3_)"/><circle cx="255" cy="287.787" fill="url(#SVGID_4_)" r="97.441"/><path d="m293.261 228.957c-1.483-2.319-4.352-4.248-8.622-5.784-4.603-1.652-9.509-2.775-14.706-3.391-.279-.177-.562-.332-.85-.464l-7.698-8.249c-1.208-.887-2.511-1.334-3.907-1.334-1.525 0-2.829.447-3.908 1.334-1.081.891-1.62 1.906-1.62 3.05v5.527c-10.292 1.143-18.902 4.574-25.827 10.292-6.927 5.718-10.388 14.099-10.388 25.136 0 3.931.444 7.514 1.334 10.748.887 3.234 2.35 6.055 4.384 8.464 2.031 2.409 3.969 4.47 5.813 6.183.013.012.028.024.041.036 0 0 23.967 23.969 23.98 23.98.223.238.441.461.661.69v31.882c-5.632-.381-10.59-1.838-14.879-4.375-4.288-2.534-7.656-4.911-10.111-7.133-2.454-2.219-4.434-3.33-5.941-3.33-2.275 0-4.294 1.206-6.064 3.616-1.769 2.409-2.65 4.819-2.65 7.228 0 3.852 2.17 7.647 6.511 11.389l83.2 83.2h189.941z" fill="url(#SVGID_5_)"/><path d="m212.305 333.063c0-2.409.881-4.818 2.65-7.228 1.769-2.409 3.788-3.615 6.064-3.615 1.507 0 3.488 1.111 5.941 3.33 2.454 2.222 5.823 4.598 10.111 7.133 4.289 2.538 9.247 3.994 14.879 4.375v-44.699c-3.812-1.394-6.737-2.505-8.768-3.33-2.034-.822-4.735-2.028-8.1-3.613-3.368-1.584-5.975-3.234-7.815-4.947-1.844-1.712-3.782-3.773-5.813-6.182-2.034-2.409-3.497-5.23-4.384-8.464-.89-3.234-1.334-6.817-1.334-10.748 0-11.037 3.46-19.418 10.388-25.136 6.924-5.718 15.534-9.149 25.826-10.292v-5.528c0-1.144.539-2.159 1.62-3.05 1.078-.887 2.383-1.334 3.908-1.334 1.396 0 2.698.447 3.907 1.334 1.206.89 1.811 1.906 1.811 3.05v5.146c7.749.256 14.897 1.557 21.443 3.907 6.543 2.353 9.816 5.623 9.816 9.816 0 2.287-.771 4.67-2.308 7.148s-3.589 3.717-6.15 3.717c-1.012 0-3.797-1.078-8.347-3.24-4.554-2.159-9.372-3.431-14.453-3.812v38.627c5.054 1.903 9.256 3.71 12.603 5.423s6.889 4.089 10.617 7.133c3.729 3.043 6.54 6.879 8.434 11.507s2.844 10.051 2.844 16.264c0 11.353-3.097 20.377-9.289 27.071-6.194 6.695-14.596 10.808-25.21 12.339v6.367c0 1.123-.605 2.121-1.811 2.996-1.208.872-2.51 1.31-3.907 1.31-1.525 0-2.83-.438-3.908-1.308-1.081-.876-1.62-1.873-1.62-2.996v-5.798c-11.054-.128-20.427-2.656-28.114-7.588-7.689-4.932-11.531-9.959-11.531-15.085zm22.301-79.889c0 4.947 1.539 8.72 4.622 11.317 3.079 2.6 7.701 5.042 13.866 7.323v-34.651c-12.327 1.525-18.488 6.862-18.488 16.011zm27.446 83.502c11.18-2.028 16.773-8.306 16.773-18.831 0-5.578-1.463-9.953-4.384-13.122-2.925-3.169-7.052-5.897-12.389-8.181z" fill="url(#SVGID_6_)"/><g fill="#4ab272"><path d="m106.937 298.48h-51.198c-2.232 0-4.041-1.809-4.041-4.041v-13.305c0-2.232 1.809-4.041 4.041-4.041h51.198c2.232 0 4.041 1.809 4.041 4.041v13.305c0 2.232-1.809 4.041-4.041 4.041z"/><path d="m135.98 298.48h-8.828c-2.232 0-4.041-1.809-4.041-4.041v-13.305c0-2.232 1.809-4.041 4.041-4.041h8.828c2.232 0 4.041 1.809 4.041 4.041v13.305c0 2.232-1.809 4.041-4.041 4.041z"/><path d="m406.015 298.48h-31.995c-2.232 0-4.041-1.809-4.041-4.041v-13.305c0-2.232 1.809-4.041 4.041-4.041h31.995c2.232 0 4.041 1.809 4.041 4.041v13.305c0 2.232-1.809 4.041-4.041 4.041z"/><path d="m454.261 298.48h-28.39c-2.232 0-4.041-1.809-4.041-4.041v-13.305c0-2.232 1.809-4.041 4.041-4.041h28.39c2.232 0 4.041 1.809 4.041 4.041v13.305c0 2.232-1.81 4.041-4.041 4.041z"/></g><path d="m173.14 147.921h-142.804l-3.242 3.242c-7.324 7.324-4.308 18.934 4.029 22.751 1.374 2.926 17.113 18.781 19.989 20.216l-.007 71.692c0 1.108.178 1.973.506 2.647.771 1.582 112.362 111.406 160.948 159.183h240.312z" fill="url(#SVGID_7_)"/><path d="m510 162.073c0-7.816-6.336-14.152-14.152-14.152h-138.196l.001 15.997c.001 7.771-6.299 14.071-14.07 14.07-12.536-.001-18.813 15.155-9.948 24.021l3.302 3.302 173.063 173.063z" fill="url(#SVGID_8_)"/><path d="m357.653 163.918-.007-76.568c-.001-5.614 4.551-4.981 10.164-4.98l80.9.008c5.614.001 10.165-.632 10.165 4.982l.007 76.568c.001 7.771 6.301 14.072 14.073 14.073 12.536.001 18.816 15.159 9.952 24.023l-64.68 64.68c-5.495 5.495-14.404 5.494-19.9-.002l-64.693-64.693c-8.865-8.866-2.589-24.022 9.948-24.021 7.772.001 14.072-6.299 14.071-14.07z" fill="url(#SVGID_9_)"/><path d="m447.43 93.822.007 70.104c.001 14.07 11.449 25.518 25.52 25.519 1.165 0 1.981.546 2.426 1.622.446 1.076.255 2.039-.569 2.862l-64.68 64.681c-.636.636-1.361.769-1.857.769s-1.221-.133-1.857-.769l-64.693-64.693c-.824-.824-1.015-1.787-.569-2.862.445-1.076 1.261-1.621 2.426-1.621 14.07.001 25.516-11.444 25.515-25.514l-.007-70.104z" fill="url(#SVGID_10_)"/><path d="m367.81 82.369c-5.614 0-10.165-.633-10.164 4.98l.007 76.568c.001 7.771-6.299 14.071-14.07 14.07-12.536-.001-18.813 15.155-9.948 24.021l64.693 64.693c2.748 2.748 6.349 4.122 9.951 4.122l-.019-188.45z" fill="url(#SVGID_11_)"/><path d="m152.342 189.244-.007 76.568c-.001 5.614-4.551 4.982-10.165 4.982l-80.899.008c-5.614.001-10.165.633-10.164-4.98l.007-76.568c.001-7.771-6.299-14.071-14.07-14.07-12.537.001-18.813-15.155-9.948-24.021l64.69-64.693c5.496-5.496 14.406-5.497 19.9-.002l64.68 64.68c8.864 8.864 2.584 24.021-9.952 24.023-7.771.001-14.072 6.302-14.072 14.073z" fill="url(#SVGID_12_)"/><path d="m62.551 259.357.007-70.105c.001-14.07-11.444-25.516-25.515-25.514-1.165 0-1.981-.546-2.426-1.621-.446-1.076-.255-2.038.569-2.862l64.692-64.693c.636-.636 1.361-.769 1.857-.769s1.221.133 1.857.769l64.68 64.681c.824.823 1.015 1.786.569 2.862s-1.262 1.622-2.426 1.622c-14.07.001-25.518 11.449-25.52 25.519l-.007 70.104z" fill="url(#SVGID_13_)"/><path d="m142.169 270.795c5.614-.001 10.165.631 10.165-4.982l.007-76.568c.001-7.771 6.301-14.072 14.073-14.073 12.536-.001 18.816-15.159 9.952-24.023l-64.68-64.68c-2.747-2.747-6.349-4.121-9.95-4.12l-.018 188.451z" fill="url(#SVGID_14_)"/></svg>