<svg id="Capa_1" enable-background="new 0 0 510 510" height="512" viewBox="0 0 510 510" width="512" xmlns="http://www.w3.org/2000/svg" xmlns:xlink="http://www.w3.org/1999/xlink"><linearGradient id="lg1"><stop offset="0" stop-color="#7e8595"/><stop offset="1" stop-color="#555a66"/></linearGradient><linearGradient id="SVGID_1_" gradientUnits="userSpaceOnUse" x1="229.145" x2="342.464" xlink:href="#lg1" y1="319.689" y2="548.019"/><linearGradient id="SVGID_2_" gradientUnits="userSpaceOnUse" x1="252.652" x2="72.24" y1="457.958" y2="616.476"><stop offset="0" stop-color="#bec3d2" stop-opacity="0"/><stop offset=".221" stop-color="#c5c9d7" stop-opacity=".221"/><stop offset=".5343" stop-color="#d7dae3" stop-opacity=".534"/><stop offset=".9014" stop-color="#f6f6f8" stop-opacity=".901"/><stop offset="1" stop-color="#fff"/></linearGradient><linearGradient id="lg2"><stop offset="0" stop-color="#555a66" stop-opacity="0"/><stop offset="1" stop-color="#555a66"/></linearGradient><linearGradient id="SVGID_3_" gradientUnits="userSpaceOnUse" x1="319.974" x2="307.306" xlink:href="#lg2" y1="482.945" y2="401.394"/><linearGradient id="SVGID_4_" gradientUnits="userSpaceOnUse" x1="396.678" x2="461.82" y1="360.121" y2="491.379"><stop offset="0" stop-color="#7e8595"/><stop offset="1" stop-color="#555a66" stop-opacity="0"/></linearGradient><linearGradient id="lg3"><stop offset="0" stop-color="#ffda45"/><stop offset=".3043" stop-color="#ffce3e"/><stop offset=".8558" stop-color="#ffae2b"/><stop offset="1" stop-color="#ffa425"/></linearGradient><radialGradient id="SVGID_5_" cx="214.435" cy="100.521" gradientUnits="userSpaceOnUse" r="274.62" xlink:href="#lg3"/><linearGradient id="lg4"><stop offset="0" stop-color="#ffda45" stop-opacity="0"/><stop offset="1" stop-color="#fcee21"/></linearGradient><linearGradient id="SVGID_6_" gradientUnits="userSpaceOnUse" x1="300.577" x2="104.541" xlink:href="#lg4" y1="214.841" y2="18.805"/><linearGradient id="lg5"><stop offset="0" stop-color="#ffda45" stop-opacity="0"/><stop offset="1" stop-color="#b53759"/></linearGradient><linearGradient id="SVGID_7_" gradientUnits="userSpaceOnUse" x1="285.71" x2="551.357" xlink:href="#lg5" y1="267.329" y2="-226.738"/><linearGradient id="SVGID_8_" gradientUnits="userSpaceOnUse" x1="371.51" x2="257.739" y1="285.786" y2="172.015"><stop offset="0" stop-color="#ffda45" stop-opacity="0"/><stop offset=".5194" stop-color="#d9874f" stop-opacity=".519"/><stop offset="1" stop-color="#b53759"/></linearGradient><linearGradient id="SVGID_9_" gradientUnits="userSpaceOnUse" x1="264.12" x2="315.621" y1="178.384" y2="229.885"><stop offset="0" stop-color="#f9f7fc"/><stop offset="1" stop-color="#f0ddfc"/></linearGradient><linearGradient id="SVGID_10_" gradientUnits="userSpaceOnUse" x1="283.769" x2="259.234" y1="200.026" y2="165.242"><stop offset="0" stop-color="#e9edf5" stop-opacity="0"/><stop offset="1" stop-color="#fff"/></linearGradient><linearGradient id="SVGID_11_" gradientUnits="userSpaceOnUse" x1="284.411" x2="339.069" y1="201.003" y2="99.347"><stop offset="0" stop-color="#f0ddfc" stop-opacity="0"/><stop offset=".2889" stop-color="#c8b7e0" stop-opacity=".289"/><stop offset=".5915" stop-color="#a595c8" stop-opacity=".592"/><stop offset=".8395" stop-color="#8f81b8" stop-opacity=".84"/><stop offset="1" stop-color="#8779b3"/></linearGradient><radialGradient id="SVGID_12_" cx="261.624" cy="203.323" gradientUnits="userSpaceOnUse" r="233.628"><stop offset="0" stop-color="#ffda45"/><stop offset=".509" stop-color="#ffd844"/><stop offset=".6924" stop-color="#ffd140"/><stop offset=".823" stop-color="#ffc639"/><stop offset=".9279" stop-color="#ffb52f"/><stop offset="1" stop-color="#ffa425"/></radialGradient><linearGradient id="SVGID_13_" gradientUnits="userSpaceOnUse" x1="67.148" x2="60.023" xlink:href="#lg5" y1="246.25" y2="203.498"/><radialGradient id="SVGID_14_" cx="51.794" cy="183.135" gradientUnits="userSpaceOnUse" r="29.988" xlink:href="#lg3"/><linearGradient id="SVGID_15_" gradientUnits="userSpaceOnUse" x1="60.946" x2="41.848" xlink:href="#lg4" y1="195.364" y2="176.266"/><linearGradient id="SVGID_16_" gradientUnits="userSpaceOnUse" x1="59.577" x2="88.585" xlink:href="#lg5" y1="201.35" y2="147.399"/><linearGradient id="SVGID_17_" gradientUnits="userSpaceOnUse" x1="278.771" x2="279.257" xlink:href="#lg1" y1="467.701" y2="440.959"/><linearGradient id="SVGID_18_" gradientUnits="userSpaceOnUse" x1="278.771" x2="279.257" xlink:href="#lg1" y1="494.351" y2="467.609"/><linearGradient id="SVGID_19_" gradientUnits="userSpaceOnUse" x1="335.336" x2="284.493" xlink:href="#lg2" y1="463.626" y2="345.293"/><linearGradient id="SVGID_20_" gradientUnits="userSpaceOnUse" x1="267.407" x2="293.754" xlink:href="#lg1" y1="386.142" y2="439.231"/><linearGradient id="SVGID_21_" gradientUnits="userSpaceOnUse" x1="291.779" x2="256.637" y1="139.473" y2="-9.386"><stop offset="0" stop-color="#ffda45" stop-opacity="0"/><stop offset="1" stop-color="#fff"/></linearGradient><path d="m424.412 510h-290.829c-16.364 0-29.63-13.266-29.63-29.63v-120.46c0-16.364 13.266-29.63 29.63-29.63h290.829c16.364 0 29.63 13.266 29.63 29.63v120.46c.001 16.364-13.265 29.63-29.63 29.63z" fill="url(#SVGID_1_)"/><path d="m149.201 345.897c-16.364 0-29.63 13.266-29.63 29.63v120.46c0 4.132.848 8.065 2.376 11.638 3.573 1.527 7.506 2.375 11.638 2.375h290.829c16.364 0 29.63-13.266 29.63-29.63v-120.46c0-4.132-.848-8.065-2.376-11.638-3.573-1.528-7.506-2.376-11.638-2.376h-290.829z" fill="url(#SVGID_2_)"/><path d="m424.412 330.28h-281.693l179.72 179.72h101.974c16.364 0 29.63-13.266 29.63-29.63v-120.46c0-16.364-13.266-29.63-29.631-29.63z" fill="url(#SVGID_3_)"/><path d="m424.412 330.28h-14.276c16.364 0 29.63 13.266 29.63 29.63v120.46c0 16.364-13.266 29.63-29.63 29.63h14.276c16.364 0 29.63-13.266 29.63-29.63v-120.46c.001-16.364-13.265-29.63-29.63-29.63z" fill="url(#SVGID_4_)"/><circle cx="278.998" cy="193.262" fill="url(#SVGID_5_)" r="193.262"/><circle cx="278.998" cy="193.262" fill="url(#SVGID_6_)" r="180.79"/><path d="m365.45 20.382c13.034 26.015 20.382 55.373 20.382 86.452 0 106.735-86.526 193.262-193.262 193.262-31.079 0-60.437-7.347-86.452-20.382 31.731 63.329 97.223 106.81 172.88 106.81 106.735 0 193.262-86.526 193.262-193.262 0-75.657-43.481-141.149-106.81-172.88z" fill="url(#SVGID_7_)"/><path d="m440.822 298.933-132.276-132.277c-7.278-8.078-18.819-11.159-30.548-11.159-21.961 0-37.764 16.803-37.764 38.764 0 11.73 4.081 21.27 12.16 28.549l132.276 132.276c22.369-14.637 41.515-33.784 56.152-56.153z" fill="url(#SVGID_8_)"/><circle cx="278.998" cy="193.262" fill="url(#SVGID_9_)" r="39.764"/><circle cx="278.998" cy="193.262" fill="url(#SVGID_10_)" r="33.187"/><path d="m296.786 157.691c2.682 5.353 4.194 11.393 4.194 17.788 0 21.961-17.803 39.764-39.764 39.764-6.395 0-12.435-1.512-17.788-4.194 6.529 13.03 20.004 21.977 35.571 21.977 21.961 0 39.764-17.803 39.764-39.764-.001-15.567-8.947-29.042-21.977-35.571z" fill="url(#SVGID_11_)"/><path d="m278.998 421.009c-125.58 0-227.747-102.167-227.747-227.747h17.284c0 116.05 94.413 210.464 210.464 210.464v17.283z" fill="url(#SVGID_12_)"/><path d="m68.534 193.262h-17.284c0 20.582 2.761 40.529 7.903 59.507h17.961c-5.573-18.878-8.58-38.847-8.58-59.507z" fill="url(#SVGID_13_)"/><circle cx="58.844" cy="193.262" fill="url(#SVGID_14_)" r="21.104"/><circle cx="58.844" cy="193.262" fill="url(#SVGID_15_)" r="17.613"/><path d="m68.284 174.384c1.423 2.841 2.226 6.047 2.226 9.44 0 11.655-9.448 21.104-21.104 21.104-3.394 0-6.6-.802-9.44-2.226 3.465 6.915 10.616 11.663 18.878 11.663 11.655 0 21.104-9.448 21.104-21.104 0-8.261-4.748-15.412-11.664-18.877z" fill="url(#SVGID_16_)"/><path d="m345.523 462.361h-133.051c-3.937 0-7.128-3.191-7.128-7.128 0-3.937 3.191-7.128 7.128-7.128h133.051c3.936 0 7.128 3.191 7.128 7.128 0 3.937-3.191 7.128-7.128 7.128z" fill="url(#SVGID_17_)"/><path d="m345.523 489.01h-133.051c-3.937 0-7.128-3.191-7.128-7.128 0-3.936 3.191-7.128 7.128-7.128h133.051c3.936 0 7.128 3.191 7.128 7.128 0 3.937-3.191 7.128-7.128 7.128z" fill="url(#SVGID_18_)"/><path d="m424.412 510c3.669 0 7.18-.672 10.423-1.891l-116.132-116.133c-1.203-2.012-3.38-3.372-5.895-3.372h-67.621c-3.805 0-6.889 3.084-6.889 6.889v28.008c0 1.137.29 2.199.782 3.14l83.359 83.359z" fill="url(#SVGID_19_)"/><path d="m312.808 430.39h-67.62c-3.805 0-6.889-3.084-6.889-6.889v-28.008c0-3.805 3.084-6.889 6.889-6.889h67.62c3.805 0 6.889 3.084 6.889 6.889v28.008c0 3.805-3.084 6.889-6.889 6.889z" fill="url(#SVGID_20_)"/><ellipse cx="278.998" cy="85.333" fill="url(#SVGID_21_)" rx="117.269" ry="68.164"/></svg>